<svg width="40" height="40" viewBox="0 0 40 40" fill="none" xmlns="http://www.w3.org/2000/svg">
<rect width="40" height="40" rx="6" fill="#F7EDED"/>
<path fill-rule="evenodd" clip-rule="evenodd" d="M21.1318 17.6392C21.1309 13.9389 18.296 10.8559 14.6088 10.5452C10.9216 10.2346 7.61081 12.7997 6.99073 16.4477C6.37066 20.0957 8.64791 23.6107 12.2307 24.5357V31.818C12.2307 32.8012 13.0277 33.5982 14.0109 33.5982C14.9941 33.5982 15.7911 32.8012 15.7911 31.818V24.5357C18.9358 23.7238 21.1326 20.8869 21.1318 17.6392Z" stroke="#2A1E71" stroke-width="1.5" stroke-linecap="round" stroke-linejoin="round"/>
<path fill-rule="evenodd" clip-rule="evenodd" d="M21.1318 17.6392C21.1309 13.9389 18.296 10.8559 14.6088 10.5452C10.9216 10.2346 7.61081 12.7997 6.99073 16.4477C6.37066 20.0957 8.64791 23.6107 12.2307 24.5357V31.818C12.2307 32.8012 13.0277 33.5982 14.0109 33.5982C14.9941 33.5982 15.7911 32.8012 15.7911 31.818V24.5357C18.9358 23.7238 21.1326 20.8869 21.1318 17.6392Z" stroke="black" stroke-opacity="0.2" stroke-width="1.5" stroke-linecap="round" stroke-linejoin="round"/>
<path d="M22.0968 24.6923C23.0267 24.5639 23.9219 24.2521 24.7303 23.7749L30.554 29.5974C31.2525 30.2721 32.3629 30.2624 33.0496 29.5757C33.7363 28.889 33.7459 27.7787 33.0713 27.0802L27.244 21.2577C28.8881 18.4729 28.4493 14.93 26.1754 12.6305C23.9016 10.331 20.3638 9.8525 17.5608 11.4653" stroke="#2A1E71" stroke-width="1.5" stroke-linecap="round" stroke-linejoin="round"/>
<path d="M22.0968 24.6923C23.0267 24.5639 23.9219 24.2521 24.7303 23.7749L30.554 29.5974C31.2525 30.2721 32.3629 30.2624 33.0496 29.5757C33.7363 28.889 33.7459 27.7787 33.0713 27.0802L27.244 21.2577C28.8881 18.4729 28.4493 14.93 26.1754 12.6305C23.9016 10.331 20.3638 9.8525 17.5608 11.4653" stroke="black" stroke-opacity="0.2" stroke-width="1.5" stroke-linecap="round" stroke-linejoin="round"/>
<path fill-rule="evenodd" clip-rule="evenodd" d="M14.0109 18.5292C14.9941 18.5292 15.7912 17.7322 15.7912 16.749C15.7912 15.7658 14.9941 14.9688 14.0109 14.9688C13.0277 14.9688 12.2307 15.7658 12.2307 16.749C12.2307 17.7322 13.0277 18.5292 14.0109 18.5292Z" stroke="#2A1E71" stroke-width="1.5" stroke-linecap="round" stroke-linejoin="round"/>
<path fill-rule="evenodd" clip-rule="evenodd" d="M14.0109 18.5292C14.9941 18.5292 15.7912 17.7322 15.7912 16.749C15.7912 15.7658 14.9941 14.9688 14.0109 14.9688C13.0277 14.9688 12.2307 15.7658 12.2307 16.749C12.2307 17.7322 13.0277 18.5292 14.0109 18.5292Z" stroke="black" stroke-opacity="0.2" stroke-width="1.5" stroke-linecap="round" stroke-linejoin="round"/>
<path d="M14.011 14.9688V9.56047C14.011 8.08568 15.2065 6.89014 16.6813 6.89014C18.1561 6.89014 19.3516 8.08568 19.3516 9.56047V10.7342" stroke="#2A1E71" stroke-width="1.5" stroke-linecap="round" stroke-linejoin="round"/>
<path d="M14.011 14.9688V9.56047C14.011 8.08568 15.2065 6.89014 16.6813 6.89014C18.1561 6.89014 19.3516 8.08568 19.3516 9.56047V10.7342" stroke="black" stroke-opacity="0.2" stroke-width="1.5" stroke-linecap="round" stroke-linejoin="round"/>
</svg>