<svg width="160" height="110" viewBox="0 0 160 110" fill="none" xmlns="http://www.w3.org/2000/svg">
<path d="M68.2666 37.7141C72.5412 44.058 79.7436 48.1903 87.9999 48.1903C96.2563 48.1903 103.459 44.058 107.733 37.7141" stroke="black" stroke-width="6" stroke-miterlimit="10"/>
<ellipse cx="113.067" cy="70.1905" rx="2.13333" ry="2.09524" fill="#C4C4C4"/>
<rect x="1.5" y="1.5" width="157" height="107" rx="14.5" fill="white" stroke="#444444" stroke-width="3"/>
<path d="M26 72C28.2091 72 30 73.7909 30 76L30 90C30 92.2091 28.2091 94 26 94L19 94C16.7909 94 15 92.2091 15 90L15 76C15 73.7909 16.7909 72 19 72L26 72Z" fill="#E9E9E9"/>
<path d="M45 57C47.2091 57 49 58.7909 49 61L49 90C49 92.2091 47.2091 94 45 94L38 94C35.7909 94 34 92.2091 34 90L34 61C34 58.7909 35.7909 57 38 57L45 57Z" fill="#E9E9E9"/>
<path d="M83 57C85.2091 57 87 58.7909 87 61L87 90C87 92.2091 85.2091 94 83 94L76 94C73.7909 94 72 92.2091 72 90L72 61C72 58.7909 73.7909 57 76 57L83 57Z" fill="#E9E9E9"/>
<path d="M103 68C105.209 68 107 69.7909 107 72L107 90C107 92.2091 105.209 94 103 94L96 94C93.7909 94 92 92.2091 92 90L92 72C92 69.7909 93.7909 68 96 68L103 68Z" fill="#E9E9E9"/>
<path d="M123 78C125.209 78 127 79.7909 127 82L127 90C127 92.2091 125.209 94 123 94L116 94C113.791 94 112 92.2091 112 90L112 82C112 79.7909 113.791 78 116 78L123 78Z" fill="#E9E9E9"/>
<path d="M142 68C144.209 68 146 69.7909 146 72L146 90C146 92.2091 144.209 94 142 94L135 94C132.791 94 131 92.2091 131 90L131 72C131 69.7909 132.791 68 135 68L142 68Z" fill="#E9E9E9"/>
<path d="M64 42C66.2091 42 68 43.7909 68 46L68 90C68 92.2091 66.2091 94 64 94L57 94C54.7909 94 53 92.2091 53 90L53 46C53 43.7909 54.7909 42 57 42L64 42Z" fill="#E9E9E9"/>
<path fill-rule="evenodd" clip-rule="evenodd" d="M69.7848 35.9209C71.5815 35.9209 72.7015 33.9726 71.8032 32.4209L63.0182 17.2426C62.1198 15.6909 59.8798 15.6909 58.9815 17.2426L50.1965 32.4209C49.2981 33.9726 50.4181 35.9209 52.2148 35.9209H69.7848ZM60.9998 27.7543C60.3581 27.7543 59.8331 27.2293 59.8331 26.5876V24.2543C59.8331 23.6126 60.3581 23.0876 60.9998 23.0876C61.6415 23.0876 62.1665 23.6126 62.1665 24.2543V26.5876C62.1665 27.2293 61.6415 27.7543 60.9998 27.7543ZM59.8331 30.0876V32.4209H62.1665V30.0876H59.8331Z" fill="#6349FF"/>
</svg>
