<?xml version="1.0" encoding="utf-8"?>
<!-- Generator: Adobe Illustrator 19.1.0, SVG Export Plug-In . SVG Version: 6.00 Build 0)  -->
<svg version="1.1" id="Layer_1" xmlns="http://www.w3.org/2000/svg" xmlns:xlink="http://www.w3.org/1999/xlink" x="0px" y="0px"
	 viewBox="812 -136.7 2220 868" style="enable-background:new 812 -136.7 2220 868;" xml:space="preserve">
<style type="text/css">
	.st0{fill:#FFFFFF;}
	.st1{fill:#DDEFF1;}
	.st2{fill:#444444;}
	.st3{fill:#FFC398;}
	.st4{fill:#FFFFFF;fill-opacity:0.7;}
</style>
<path class="st0" d="M812,731.3v-868l2220,0v868H812z"/>
<path class="st1" d="M2131-96.2h227c10.2,0,18.5,8.3,18.5,18.5V42.2c0,10.2-8.3,18.5-18.5,18.5h-227c-10.2,0-18.5-8.3-18.5-18.5
	V-77.8C2112.5-87.9,2120.8-96.2,2131-96.2z"/>
<path class="st2" d="M2358,62.2h-227c-11,0-20-9-20-20V-77.7c0-11,9-20,20-20h227c11,0,20,9,20,20V42.2
	C2378,53.2,2369,62.2,2358,62.2z M2131-94.7c-9.4,0-17,7.6-17,17V42.2c0,9.4,7.6,17,17,17h227c9.4,0,17-7.6,17-17V-77.7
	c0-9.4-7.6-17-17-17H2131z"/>
<path class="st2" d="M2154.1-10.4c3.2,0,5.3-1.7,5.3-4.4c0-2.6-1.7-3.5-3.7-4l-2.5-0.5c-1.3-0.3-2.1-0.6-2.1-1.7
	c0-1.1,1-1.7,2.4-1.7c1.7,0,2.8,0.7,3.4,1.8c0.4,0.3,0.7,0.6,1.2,0.6c0.7,0,1.1-0.5,1.1-1.2c0-0.8-0.5-1.7-1.4-2.3
	c-1-0.6-2.3-1.2-4.1-1.2c-3.2,0-5.3,1.7-5.3,4.2c0,2.4,1.5,3.5,3.8,4l2.6,0.5c1.1,0.2,1.8,0.7,1.8,1.8c0,1.1-0.9,1.8-2.5,1.8
	c-2,0-3.1-0.7-4-2.1c-0.3-0.3-0.6-0.5-0.9-0.5c-0.7,0-1.2,0.6-1.2,1.2c0,0.8,0.6,1.8,1.4,2.4C2150.7-10.9,2152-10.4,2154.1-10.4z
	 M2164.4-10.5c0.8,0,1.3-0.5,1.3-1.3v-11.9c0-0.8-0.5-1.3-1.3-1.3c-0.8,0-1.3,0.5-1.3,1.3v11.9C2163.1-11,2163.6-10.5,2164.4-10.5z
	 M2176.4-10.4c3.9,0,6.6-2.4,6.6-6.8c0-1-0.6-1.4-1.3-1.4h-5.4c-0.7,0-1.2,0.4-1.2,1.2c0,0.7,0.5,1.2,1.2,1.2h4.2
	c-0.1,2.1-1.6,3.3-3.9,3.3c-2.8,0-4.7-2-4.7-4.8c0-2.8,1.9-4.9,4.7-4.9c1.8,0,3.1,0.8,3.8,1.8c0.4,0.4,0.8,0.5,1.2,0.5
	c0.6,0,1.2-0.4,1.2-1.1c0-0.8-0.7-1.7-1.5-2.3c-1.1-0.8-2.6-1.3-4.6-1.3c-4.3,0-7.3,3-7.3,7.4C2169.2-13.4,2172.1-10.4,2176.4-10.4z
	 M2187.8-10.5c0.8,0,1.3-0.5,1.3-1.3v-8.8l6.2,8.9c0.6,0.8,1.1,1.1,1.7,1.1c0.9,0,1.5-0.6,1.5-1.6v-11.5c0-0.8-0.5-1.3-1.3-1.3
	c-0.7,0-1.3,0.5-1.3,1.3v9l-6.2-9c-0.7-0.9-1.1-1.2-1.7-1.2c-0.9,0-1.5,0.7-1.5,1.6v11.6C2186.6-11,2187.1-10.5,2187.8-10.5z
	 M2204-10.7h7.7c0.7,0,1.3-0.5,1.3-1.2c0-0.7-0.5-1.2-1.3-1.2h-6.4v-3.4h5.7c0.7,0,1.2-0.5,1.2-1.2c0-0.7-0.5-1.2-1.2-1.2h-5.7v-3.3
	h6.3c0.7,0,1.3-0.5,1.3-1.2s-0.5-1.2-1.3-1.2h-7.6c-0.8,0-1.3,0.5-1.3,1.3v11.5C2202.7-11.2,2203.2-10.7,2204-10.7z M2217.9-10.7
	h4.5c4.1,0,6.8-2.9,6.8-7s-2.7-7-6.8-7h-4.5c-0.8,0-1.3,0.5-1.3,1.3v11.5C2216.7-11.2,2217.2-10.7,2217.9-10.7z M2219.2-13.2v-9.1
	h3.2c2.5,0,4.2,1.9,4.2,4.6s-1.7,4.6-4.2,4.6L2219.2-13.2L2219.2-13.2z M2238.4-10.5c0.6,0,1-0.3,1.2-0.8l1.1-2.7h6.8l1.1,2.7
	c0.2,0.5,0.6,0.8,1.2,0.8c0.7,0,1.2-0.5,1.2-1.2c0-0.2,0-0.5-0.2-0.8l-4.4-10.6c-0.5-1.3-1.2-2-2.4-2s-1.9,0.6-2.4,2l-4.3,10.6
	c-0.1,0.3-0.2,0.6-0.2,0.8C2237.2-11,2237.8-10.5,2238.4-10.5z M2241.7-16.4l2.5-6.3l2.5,6.3H2241.7z M2254.9-10.5
	c0.8,0,1.3-0.5,1.3-1.3v-4.1h3.1l3.2,4.8c0.2,0.3,0.6,0.6,1.1,0.6c0.7,0,1.2-0.5,1.2-1.1c0-0.3-0.1-0.6-0.3-1l-2.5-3.7
	c1.7-0.7,2.8-2.1,2.8-4.1c0-2.7-2.1-4.5-4.9-4.5h-4.8c-0.8,0-1.3,0.5-1.3,1.3v11.7C2253.7-11,2254.2-10.5,2254.9-10.5z M2256.2-18.2
	v-4.1h3.6c1.3,0,2.2,0.8,2.2,2.1c0,1.3-0.9,2.1-2.2,2.1L2256.2-18.2L2256.2-18.2z M2272.7-10.5c0.8,0,1.3-0.5,1.3-1.3v-10.5h3.5
	c0.7,0,1.3-0.5,1.3-1.2c0-0.7-0.5-1.2-1.3-1.2h-9.5c-0.7,0-1.3,0.5-1.3,1.2c0,0.7,0.5,1.2,1.3,1.2h3.5v10.5
	C2271.4-11,2271.9-10.5,2272.7-10.5z M2282.8-10.5c0.8,0,1.3-0.5,1.3-1.3v-11.9c0-0.8-0.5-1.3-1.3-1.3s-1.3,0.5-1.3,1.3v11.9
	C2281.6-11,2282.1-10.5,2282.8-10.5z M2289.6-10.5c0.8,0,1.3-0.5,1.3-1.3v-4.5h5.6c0.7,0,1.3-0.5,1.3-1.2c0-0.7-0.5-1.2-1.3-1.2
	h-5.6v-3.5h6.4c0.7,0,1.3-0.5,1.3-1.2s-0.5-1.2-1.3-1.2h-7.6c-0.8,0-1.3,0.5-1.3,1.3v11.7C2288.3-11,2288.8-10.5,2289.6-10.5z
	 M2300-10.5c0.6,0,1-0.3,1.2-0.8l1.1-2.7h6.8l1.1,2.7c0.2,0.5,0.6,0.8,1.2,0.8c0.7,0,1.2-0.5,1.2-1.2c0-0.2,0-0.5-0.2-0.8l-4.3-10.6
	c-0.5-1.3-1.2-2-2.4-2s-1.9,0.6-2.4,2l-4.4,10.6c-0.1,0.3-0.2,0.6-0.2,0.8C2298.8-11,2299.3-10.5,2300-10.5z M2303.2-16.4l2.5-6.3
	l2.5,6.3H2303.2z M2321.2-10.4c2.3,0,4.2-0.8,5.4-2.2c0.5-0.6,0.8-1.4,0.8-1.9c0-0.7-0.5-1.2-1.2-1.2c-0.4,0-0.8,0.2-1.2,0.7
	c-0.8,1.4-2.1,2.2-3.9,2.2c-2.6,0-4.5-2-4.5-4.8c0-2.8,1.8-4.8,4.5-4.8c1.8,0,3.1,0.8,3.9,2.1c0.4,0.5,0.8,0.7,1.2,0.7
	c0.7,0,1.2-0.6,1.2-1.2c0-0.6-0.4-1.4-0.9-2c-1.3-1.5-3.1-2.2-5.4-2.2c-4.2,0-7.1,3-7.1,7.3C2314.1-13.4,2317-10.4,2321.2-10.4z
	 M2335.4-10.5c0.8,0,1.3-0.5,1.3-1.3v-10.5h3.5c0.7,0,1.3-0.5,1.3-1.2c0-0.7-0.5-1.2-1.3-1.2h-9.5c-0.7,0-1.3,0.5-1.3,1.2
	c0,0.7,0.5,1.2,1.3,1.2h3.5v10.5C2334.2-11,2334.7-10.5,2335.4-10.5z"/>
<path class="st1" d="M2131,220.3h227c10.2,0,18.5,8.3,18.5,18.5v119.9c0,10.2-8.3,18.5-18.5,18.5h-227c-10.2,0-18.5-8.3-18.5-18.5
	V238.8C2112.5,228.6,2120.8,220.3,2131,220.3z"/>
<path class="st2" d="M2358,378.7h-227c-11,0-20-9-20-20V238.8c0-11,9-20,20-20h227c11,0,20,9,20,20v119.9
	C2378,369.7,2369,378.7,2358,378.7z M2131,221.8c-9.4,0-17,7.6-17,17v119.9c0,9.4,7.6,17,17,17h227c9.4,0,17-7.6,17-17V238.8
	c0-9.4-7.6-17-17-17H2131z"/>
<path class="st2" d="M2207.1,291c0.8,0,1.3-0.5,1.3-1.3v-4.1h3.1l3.2,4.8c0.2,0.3,0.6,0.6,1.1,0.6c0.7,0,1.2-0.5,1.2-1.1
	c0-0.3-0.1-0.6-0.3-1l-2.5-3.7c1.6-0.7,2.7-2.1,2.7-4.1c0-2.7-2.1-4.5-4.9-4.5h-4.8c-0.8,0-1.3,0.5-1.3,1.3v11.7
	C2205.8,290.5,2206.3,291,2207.1,291z M2208.3,283.3v-4.1h3.6c1.3,0,2.2,0.8,2.2,2.1s-0.9,2.1-2.2,2.1h-3.6V283.3z M2222,290.8h7.6
	c0.7,0,1.3-0.5,1.3-1.2c0-0.7-0.5-1.2-1.3-1.2h-6.4V285h5.7c0.7,0,1.2-0.5,1.2-1.2c0-0.7-0.5-1.2-1.2-1.2h-5.7v-3.3h6.3
	c0.7,0,1.3-0.5,1.3-1.2c0-0.7-0.5-1.2-1.3-1.2h-7.6c-0.8,0-1.3,0.5-1.3,1.3v11.5C2220.7,290.3,2221.2,290.8,2222,290.8z M2235.9,291
	c0.8,0,1.3-0.5,1.3-1.3v-3.3l2.2-2l4.8,6c0.3,0.4,0.8,0.6,1.2,0.6c0.7,0,1.2-0.5,1.2-1c0-0.4-0.1-0.6-0.5-1.1l-4.8-6.1l4.3-3.9
	c0.5-0.5,0.7-0.8,0.7-1.3s-0.5-1-1.1-1c-0.5,0-0.8,0.2-1.1,0.4l-6.9,6.3v-5.5c0-0.8-0.5-1.3-1.3-1.3c-0.8,0-1.3,0.5-1.3,1.3v11.9
	C2234.6,290.5,2235.1,291,2235.9,291z M2255.7,291.1c4.2,0,7.2-3,7.2-7.3s-3-7.3-7.2-7.3s-7.2,3-7.2,7.3S2251.5,291.1,2255.7,291.1z
	 M2251.1,283.8c0-2.8,1.9-4.8,4.6-4.8s4.6,1.9,4.6,4.8c0,2.8-1.9,4.8-4.6,4.8S2251.1,286.6,2251.1,283.8z M2267.7,291
	c0.8,0,1.3-0.5,1.3-1.3v-4.1h3.1l3.2,4.8c0.2,0.3,0.6,0.6,1.1,0.6c0.7,0,1.2-0.5,1.2-1.1c0-0.3-0.1-0.6-0.3-1l-2.5-3.7
	c1.6-0.7,2.7-2.1,2.7-4.1c0-2.7-2.1-4.5-4.9-4.5h-4.8c-0.8,0-1.3,0.5-1.3,1.3v11.7C2266.5,290.5,2267,291,2267.7,291z M2269,283.3
	v-4.1h3.6c1.3,0,2.2,0.8,2.2,2.1s-0.9,2.1-2.2,2.1h-3.6V283.3z M2137.3,321c0.8,0,1.3-0.5,1.3-1.3v-10.5h3.5c0.7,0,1.3-0.5,1.3-1.2
	c0-0.7-0.5-1.2-1.3-1.2h-9.5c-0.7,0-1.3,0.5-1.3,1.2c0,0.7,0.5,1.2,1.3,1.2h3.5v10.5C2136,320.5,2136.5,321,2137.3,321z M2147.4,321
	c0.8,0,1.3-0.5,1.3-1.3v-4.1h3.1l3.2,4.8c0.2,0.3,0.6,0.6,1.1,0.6c0.7,0,1.2-0.5,1.2-1.1c0-0.3-0.1-0.6-0.3-1l-2.5-3.7
	c1.6-0.7,2.7-2.1,2.7-4.1c0-2.7-2.1-4.5-4.9-4.5h-4.8c-0.8,0-1.3,0.5-1.3,1.3v11.7C2146.2,320.5,2146.7,321,2147.4,321z
	 M2148.7,313.3v-4.1h3.6c1.3,0,2.2,0.8,2.2,2.1c0,1.3-0.9,2.1-2.2,2.1L2148.7,313.3L2148.7,313.3z M2160.5,321c0.6,0,1-0.3,1.2-0.8
	l1.1-2.7h6.8l1.1,2.7c0.2,0.5,0.6,0.8,1.2,0.8c0.6,0,1.2-0.5,1.2-1.2c0-0.2,0-0.5-0.2-0.8l-4.3-10.6c-0.5-1.3-1.2-2-2.4-2
	s-1.9,0.6-2.4,2l-4.3,10.6c-0.1,0.3-0.2,0.6-0.2,0.8C2159.3,320.5,2159.9,321,2160.5,321z M2163.8,315.1l2.5-6.3l2.5,6.3H2163.8z
	 M2177,321c0.8,0,1.3-0.5,1.3-1.3v-8.8l6.2,8.9c0.6,0.8,1.1,1.1,1.7,1.1c0.9,0,1.5-0.6,1.5-1.6v-11.5c0-0.8-0.5-1.3-1.3-1.3
	c-0.7,0-1.3,0.5-1.3,1.3v9l-6.2-9c-0.7-0.9-1.1-1.2-1.7-1.2c-0.9,0-1.5,0.7-1.5,1.6v11.6C2175.8,320.5,2176.3,321,2177,321z
	 M2197.2,321.1c3.2,0,5.3-1.7,5.3-4.4c0-2.6-1.7-3.5-3.7-4l-2.5-0.5c-1.3-0.3-2.1-0.6-2.1-1.7c0-1.1,1-1.7,2.4-1.7
	c1.7,0,2.8,0.7,3.4,1.8c0.4,0.3,0.7,0.6,1.2,0.6c0.7,0,1.1-0.5,1.1-1.2c0-0.8-0.5-1.7-1.4-2.3c-1-0.6-2.3-1.2-4.1-1.2
	c-3.2,0-5.3,1.7-5.3,4.2c0,2.4,1.5,3.5,3.8,4l2.6,0.5c1.1,0.2,1.8,0.7,1.8,1.8c0,1.1-0.9,1.8-2.5,1.8c-2,0-3.1-0.7-4-2.1
	c-0.3-0.3-0.6-0.5-0.9-0.5c-0.7,0-1.2,0.6-1.2,1.2c0,0.8,0.6,1.8,1.4,2.4C2193.7,320.6,2195.1,321.1,2197.2,321.1z M2207.4,321
	c0.8,0,1.3-0.5,1.3-1.3v-3.9h3.4c2.9,0,5.1-1.8,5.1-4.6c0-2.8-2.2-4.6-5.1-4.6h-4.6c-0.8,0-1.3,0.5-1.3,1.3v11.7
	C2206.2,320.5,2206.7,321,2207.4,321z M2208.7,313.5v-4.3h3.5c1.4,0,2.4,0.9,2.4,2.2c0,1.3-0.9,2.2-2.4,2.2h-3.5V313.5z M2218.7,321
	c0.6,0,1-0.3,1.2-0.8l1.1-2.7h6.8l1.1,2.7c0.2,0.5,0.6,0.8,1.2,0.8c0.6,0,1.2-0.5,1.2-1.2c0-0.2,0-0.5-0.2-0.8l-4.3-10.6
	c-0.5-1.3-1.2-2-2.4-2c-1.2,0-1.9,0.6-2.4,2l-4.3,10.6c-0.1,0.3-0.2,0.6-0.2,0.8C2217.4,320.5,2218,321,2218.7,321z M2221.9,315.1
	l2.5-6.3l2.5,6.3H2221.9z M2235.2,321c0.8,0,1.3-0.5,1.3-1.3v-4.1h3.1l3.2,4.8c0.2,0.3,0.6,0.6,1.1,0.6c0.7,0,1.2-0.5,1.2-1.1
	c0-0.3-0.1-0.6-0.3-1l-2.5-3.7c1.7-0.7,2.7-2.1,2.7-4.1c0-2.7-2.1-4.5-4.9-4.5h-4.8c-0.8,0-1.3,0.5-1.3,1.3v11.7
	C2233.9,320.5,2234.4,321,2235.2,321z M2236.4,313.3v-4.1h3.6c1.3,0,2.2,0.8,2.2,2.1c0,1.3-0.9,2.1-2.2,2.1L2236.4,313.3
	L2236.4,313.3z M2250,320.8h7.6c0.7,0,1.3-0.5,1.3-1.2c0-0.7-0.5-1.2-1.3-1.2h-6.4V315h5.7c0.7,0,1.2-0.5,1.2-1.2
	c0-0.7-0.5-1.2-1.2-1.2h-5.7v-3.3h6.3c0.7,0,1.3-0.5,1.3-1.2c0-0.7-0.5-1.2-1.3-1.2h-7.6c-0.8,0-1.3,0.5-1.3,1.3v11.5
	C2248.8,320.3,2249.3,320.8,2250,320.8z M2264,321c0.8,0,1.3-0.5,1.3-1.3v-8.8l6.2,8.9c0.6,0.8,1.1,1.1,1.7,1.1
	c0.9,0,1.5-0.6,1.5-1.6v-11.5c0-0.8-0.5-1.3-1.3-1.3c-0.7,0-1.3,0.5-1.3,1.3v9l-6.2-9c-0.7-0.9-1.1-1.2-1.7-1.2
	c-0.9,0-1.5,0.7-1.5,1.6v11.6C2262.7,320.5,2263.2,321,2264,321z M2285.3,321.1c2.3,0,4.2-0.8,5.4-2.2c0.5-0.6,0.8-1.4,0.8-1.9
	c0-0.7-0.5-1.2-1.2-1.2c-0.4,0-0.8,0.2-1.2,0.7c-0.8,1.4-2.1,2.2-3.9,2.2c-2.6,0-4.5-2-4.5-4.8c0-2.8,1.8-4.8,4.5-4.8
	c1.8,0,3.1,0.8,3.9,2.1c0.4,0.5,0.8,0.7,1.2,0.7c0.7,0,1.2-0.6,1.2-1.2c0-0.6-0.4-1.4-0.9-2c-1.3-1.5-3.1-2.2-5.4-2.2
	c-4.2,0-7.1,3-7.1,7.3C2278.2,318.1,2281.1,321.1,2285.3,321.1z M2293.7,308.3l4.6,6.6v4.8c0,0.8,0.5,1.3,1.3,1.3
	c0.8,0,1.3-0.5,1.3-1.3v-4.8l4.6-6.6c0.1-0.2,0.2-0.4,0.2-0.7c0-0.6-0.5-1.1-1.2-1.1c-0.6,0-0.9,0.4-1.2,0.9l-3.6,5.3l-3.7-5.3
	c-0.3-0.5-0.6-0.9-1.2-0.9c-0.7,0-1.2,0.5-1.2,1.1C2293.5,307.9,2293.6,308.1,2293.7,308.3z M2316,320.8h7.2c0.7,0,1.3-0.5,1.3-1.2
	c0-0.7-0.5-1.2-1.3-1.2h-5.9v-10.6c0-0.8-0.5-1.3-1.3-1.3s-1.3,0.5-1.3,1.3v11.7C2314.7,320.3,2315.2,320.8,2316,320.8z
	 M2333.2,321.1c4.2,0,7.2-3,7.2-7.3c0-4.3-3-7.3-7.2-7.3s-7.2,3-7.2,7.3C2325.9,318.1,2328.9,321.1,2333.2,321.1z M2328.5,313.8
	c0-2.8,1.9-4.8,4.6-4.8c2.7,0,4.6,1.9,4.6,4.8c0,2.8-1.9,4.8-4.6,4.8C2330.5,318.6,2328.5,316.6,2328.5,313.8z M2350.5,321.1
	c3.9,0,6.6-2.4,6.6-6.8c0-1-0.6-1.4-1.3-1.4h-5.4c-0.7,0-1.2,0.4-1.2,1.2c0,0.7,0.6,1.2,1.2,1.2h4.2c-0.1,2.1-1.6,3.3-3.9,3.3
	c-2.9,0-4.7-2-4.7-4.8c0-2.8,1.9-4.9,4.7-4.9c1.8,0,3.1,0.8,3.8,1.8c0.4,0.4,0.8,0.5,1.2,0.5c0.6,0,1.1-0.4,1.1-1.1
	c0-0.8-0.7-1.7-1.5-2.3c-1.1-0.8-2.6-1.3-4.6-1.3c-4.3,0-7.3,3-7.3,7.4C2343.2,318.1,2346.2,321.1,2350.5,321.1z"/>
<path class="st1" d="M2441,538.8h227c10.2,0,18.5,8.3,18.5,18.5v119.9c0,10.2-8.3,18.5-18.5,18.5h-227c-10.2,0-18.5-8.3-18.5-18.5
	V557.3C2422.5,547.1,2430.8,538.8,2441,538.8z"/>
<path class="st2" d="M2668,697.2h-227c-11,0-20-9-20-20V557.3c0-11,9-20,20-20h227c11,0,20,9,20,20v119.9
	C2688,688.2,2679,697.2,2668,697.2z M2441,540.3c-9.4,0-17,7.6-17,17v119.9c0,9.4,7.6,17,17,17h227c9.4,0,17-7.6,17-17V557.3
	c0-9.4-7.6-17-17-17H2441z"/>
<path class="st2" d="M2491.6,624.4c0.8,0,1.3-0.5,1.3-1.3v-10.5h3.5c0.7,0,1.3-0.5,1.3-1.2c0-0.7-0.5-1.2-1.3-1.2h-9.5
	c-0.7,0-1.3,0.5-1.3,1.2c0,0.7,0.5,1.2,1.3,1.2h3.5v10.5C2490.3,623.9,2490.9,624.4,2491.6,624.4z M2501.8,624.4
	c0.8,0,1.3-0.5,1.3-1.3V619h3.1l3.2,4.8c0.2,0.3,0.6,0.6,1.1,0.6c0.7,0,1.2-0.5,1.2-1.1c0-0.3-0.1-0.6-0.3-1l-2.5-3.7
	c1.7-0.7,2.7-2.1,2.7-4.1c0-2.7-2.1-4.5-4.9-4.5h-4.8c-0.8,0-1.3,0.5-1.3,1.3V623C2500.5,623.9,2501,624.4,2501.8,624.4z
	 M2503,616.7v-4.1h3.6c1.3,0,2.2,0.8,2.2,2.1c0,1.3-0.9,2.1-2.2,2.1L2503,616.7L2503,616.7z M2520.8,624.5c3.6,0,5.8-2.3,5.8-5.8
	v-7.5c0-0.8-0.5-1.3-1.3-1.3c-0.7,0-1.2,0.5-1.2,1.3v7.3c0,2.1-1.3,3.5-3.3,3.5s-3.3-1.4-3.3-3.5v-7.3c0-0.8-0.5-1.3-1.2-1.3
	s-1.3,0.5-1.3,1.3v7.5C2515,622.2,2517.3,624.5,2520.8,624.5z M2535.8,624.5c3.2,0,5.3-1.7,5.3-4.4c0-2.6-1.7-3.5-3.7-4l-2.5-0.5
	c-1.3-0.3-2.1-0.6-2.1-1.7c0-1.1,1-1.7,2.4-1.7c1.7,0,2.8,0.7,3.4,1.8c0.4,0.3,0.7,0.6,1.2,0.6c0.7,0,1.1-0.5,1.1-1.2
	c0-0.8-0.5-1.7-1.4-2.3c-1-0.6-2.3-1.2-4.1-1.2c-3.2,0-5.3,1.7-5.3,4.2c0,2.4,1.5,3.5,3.8,4l2.6,0.5c1.1,0.2,1.8,0.7,1.8,1.8
	c0,1.1-0.9,1.8-2.5,1.8c-2,0-3.1-0.7-4-2.1c-0.3-0.3-0.6-0.5-0.9-0.5c-0.7,0-1.2,0.6-1.2,1.2c0,0.8,0.6,1.8,1.4,2.4
	C2532.3,624,2533.7,624.5,2535.8,624.5z M2549.2,624.4c0.8,0,1.3-0.5,1.3-1.3v-10.5h3.5c0.7,0,1.3-0.5,1.3-1.2
	c0-0.7-0.5-1.2-1.3-1.2h-9.5c-0.7,0-1.3,0.5-1.3,1.2c0,0.7,0.5,1.2,1.3,1.2h3.5v10.5C2547.9,623.9,2548.4,624.4,2549.2,624.4z
	 M2565.3,624.4c0.8,0,1.3-0.5,1.3-1.3V619h3.1l3.2,4.8c0.2,0.3,0.6,0.6,1.1,0.6c0.7,0,1.2-0.5,1.2-1.1c0-0.3-0.1-0.6-0.3-1l-2.5-3.7
	c1.6-0.7,2.7-2.1,2.7-4.1c0-2.7-2.1-4.5-4.9-4.5h-4.8c-0.8,0-1.3,0.5-1.3,1.3V623C2564.1,623.9,2564.6,624.4,2565.3,624.4z
	 M2566.6,616.7v-4.1h3.6c1.3,0,2.2,0.8,2.2,2.1c0,1.3-0.9,2.1-2.2,2.1L2566.6,616.7L2566.6,616.7z M2585.2,624.5
	c4.2,0,7.2-3,7.2-7.3c0-4.3-3-7.3-7.2-7.3s-7.2,3-7.2,7.3C2578,621.5,2581,624.5,2585.2,624.5z M2580.6,617.2c0-2.8,1.9-4.8,4.6-4.8
	s4.6,1.9,4.6,4.8c0,2.8-1.9,4.8-4.6,4.8S2580.6,620,2580.6,617.2z M2602.6,624.5c4.2,0,7.2-3,7.2-7.3c0-4.3-3-7.3-7.2-7.3
	c-4.2,0-7.2,3-7.2,7.3C2595.3,621.5,2598.3,624.5,2602.6,624.5z M2597.9,617.2c0-2.8,1.9-4.8,4.6-4.8s4.6,1.9,4.6,4.8
	c0,2.8-1.9,4.8-4.6,4.8C2599.9,622,2597.9,620,2597.9,617.2z M2617.4,624.4c0.8,0,1.3-0.5,1.3-1.3v-10.5h3.5c0.7,0,1.3-0.5,1.3-1.2
	c0-0.7-0.5-1.2-1.3-1.2h-9.5c-0.7,0-1.3,0.5-1.3,1.2c0,0.7,0.5,1.2,1.3,1.2h3.5v10.5C2616.1,623.9,2616.6,624.4,2617.4,624.4z"/>
<path class="st0" d="M1839,220.3h107c43.4,0,78.5,35.1,78.5,78.5c0,43.4-35.1,78.5-78.5,78.5h-107c-43.4,0-78.5-35.1-78.5-78.5
	C1760.5,255.4,1795.6,220.3,1839,220.3z"/>
<path class="st2" d="M1946,378.7h-107c-44.1,0-80-35.9-80-80s35.9-80,80-80h107c44.1,0,80,35.9,80,80S1990.1,378.7,1946,378.7z
	 M1839,221.8c-42.5,0-77,34.5-77,77s34.5,77,77,77h107c42.5,0,77-34.5,77-77s-34.5-77-77-77H1839z"/>
<path class="st2" d="M1831.8,291c0.8,0,1.3-0.5,1.3-1.3v-3.9h3.4c2.9,0,5.1-1.8,5.1-4.6c0-2.8-2.2-4.6-5.1-4.6h-4.6
	c-0.8,0-1.3,0.5-1.3,1.3v11.7C1830.6,290.5,1831.1,291,1831.8,291z M1833.1,283.5v-4.3h3.5c1.4,0,2.4,0.9,2.4,2.2
	c0,1.3-0.9,2.2-2.4,2.2h-3.5V283.5z M1850.2,291.1c3.6,0,5.8-2.3,5.8-5.8v-7.5c0-0.8-0.5-1.3-1.3-1.3c-0.7,0-1.2,0.5-1.2,1.3v7.3
	c0,2.1-1.3,3.5-3.3,3.5s-3.3-1.4-3.3-3.5v-7.3c0-0.8-0.5-1.3-1.2-1.3c-0.8,0-1.3,0.5-1.3,1.3v7.5
	C1844.4,288.8,1846.7,291.1,1850.2,291.1z M1861.3,290.8h5.1c2.9,0,4.8-1.7,4.8-4.2c0-1.4-0.8-2.5-2.2-3c1.3-0.5,2.1-1.6,2.1-2.9
	c0-2.4-1.8-4-4.7-4h-5.1c-0.8,0-1.2,0.5-1.2,1.3v11.5C1860,290.2,1860.5,290.8,1861.3,290.8z M1862.5,288.4v-3.7h3.8
	c1.4,0,2.2,0.7,2.2,1.8c0,1.2-0.8,1.9-2.2,1.9H1862.5z M1862.5,282.6v-3.4h3.7c1.4,0,2.2,0.7,2.2,1.8c0,1-0.8,1.7-2.2,1.7
	L1862.5,282.6L1862.5,282.6z M1876.1,290.8h7.2c0.7,0,1.3-0.5,1.3-1.2c0-0.7-0.5-1.2-1.3-1.2h-5.9v-10.6c0-0.8-0.5-1.3-1.3-1.3
	c-0.8,0-1.3,0.5-1.3,1.3v11.7C1874.8,290.3,1875.4,290.8,1876.1,290.8z M1888.6,291c0.8,0,1.3-0.5,1.3-1.3v-11.9
	c0-0.8-0.5-1.3-1.3-1.3c-0.8,0-1.3,0.5-1.3,1.3v11.9C1887.4,290.5,1887.9,291,1888.6,291z M1899.4,291.1c3.2,0,5.3-1.7,5.3-4.4
	c0-2.6-1.7-3.5-3.7-4l-2.5-0.5c-1.3-0.3-2.1-0.6-2.1-1.7c0-1.1,1-1.7,2.4-1.7c1.7,0,2.8,0.7,3.4,1.8c0.4,0.3,0.7,0.6,1.2,0.6
	c0.7,0,1.1-0.5,1.1-1.2c0-0.8-0.5-1.7-1.4-2.3c-1-0.6-2.3-1.2-4.1-1.2c-3.2,0-5.3,1.7-5.3,4.2c0,2.4,1.5,3.5,3.8,4l2.6,0.5
	c1.1,0.2,1.8,0.7,1.8,1.8c0,1.1-0.9,1.8-2.5,1.8c-2,0-3.1-0.7-4-2.1c-0.3-0.3-0.6-0.5-0.9-0.5c-0.7,0-1.2,0.6-1.2,1.2
	c0,0.8,0.6,1.8,1.4,2.4C1895.9,290.6,1897.3,291.1,1899.4,291.1z M1919,291c0.8,0,1.3-0.5,1.3-1.3v-11.9c0-0.8-0.5-1.3-1.3-1.3
	s-1.3,0.5-1.3,1.3v4.7h-6.8v-4.7c0-0.8-0.5-1.3-1.3-1.3c-0.8,0-1.3,0.5-1.3,1.3v11.9c0,0.8,0.5,1.3,1.3,1.3c0.8,0,1.3-0.5,1.3-1.3
	v-4.8h6.8v4.8C1917.7,290.5,1918.2,291,1919,291z M1925.7,290.8h7.6c0.7,0,1.3-0.5,1.3-1.2c0-0.7-0.5-1.2-1.3-1.2h-6.4V285h5.7
	c0.7,0,1.2-0.5,1.2-1.2c0-0.7-0.5-1.2-1.2-1.2h-5.7v-3.3h6.3c0.7,0,1.3-0.5,1.3-1.2s-0.5-1.2-1.3-1.2h-7.6c-0.8,0-1.3,0.5-1.3,1.3
	v11.5C1924.4,290.3,1924.9,290.8,1925.7,290.8z M1943.6,291.1c3.2,0,5.3-1.7,5.3-4.4c0-2.6-1.7-3.5-3.7-4l-2.5-0.5
	c-1.3-0.3-2-0.6-2-1.7c0-1.1,1-1.7,2.4-1.7c1.7,0,2.8,0.7,3.4,1.8c0.4,0.3,0.7,0.6,1.2,0.6c0.7,0,1.1-0.5,1.1-1.2
	c0-0.8-0.5-1.7-1.4-2.3c-1-0.6-2.3-1.2-4.1-1.2c-3.2,0-5.3,1.7-5.3,4.2c0,2.4,1.5,3.5,3.8,4l2.6,0.5c1.1,0.2,1.8,0.7,1.8,1.8
	c0,1.1-0.9,1.8-2.5,1.8c-2,0-3.1-0.7-4-2.1c-0.3-0.3-0.6-0.5-0.9-0.5c-0.7,0-1.2,0.6-1.2,1.2c0,0.8,0.6,1.8,1.4,2.4
	C1940.1,290.6,1941.5,291.1,1943.6,291.1z M1837.3,321.1c3.2,0,5.3-1.7,5.3-4.4c0-2.6-1.7-3.5-3.7-4l-2.5-0.5
	c-1.3-0.3-2.1-0.6-2.1-1.7s1-1.7,2.4-1.7c1.7,0,2.8,0.7,3.4,1.8c0.4,0.3,0.7,0.6,1.2,0.6c0.7,0,1.1-0.5,1.1-1.2
	c0-0.8-0.5-1.7-1.4-2.3c-1-0.6-2.3-1.2-4.1-1.2c-3.2,0-5.3,1.7-5.3,4.2c0,2.4,1.5,3.5,3.8,4l2.6,0.5c1.1,0.2,1.8,0.7,1.8,1.8
	c0,1.1-0.9,1.8-2.5,1.8c-2,0-3.1-0.7-4-2.1c-0.3-0.3-0.6-0.5-0.9-0.5c-0.7,0-1.2,0.6-1.2,1.2c0,0.8,0.6,1.8,1.4,2.4
	C1833.8,320.6,1835.2,321.1,1837.3,321.1z M1847.5,321c0.8,0,1.3-0.5,1.3-1.3v-11.9c0-0.8-0.5-1.3-1.3-1.3s-1.3,0.5-1.3,1.3v11.9
	C1846.3,320.5,1846.8,321,1847.5,321z M1859.6,321.1c3.9,0,6.6-2.4,6.6-6.8c0-1-0.6-1.4-1.3-1.4h-5.4c-0.7,0-1.2,0.4-1.2,1.2
	c0,0.7,0.6,1.2,1.2,1.2h4.2c-0.1,2.1-1.6,3.3-3.9,3.3c-2.9,0-4.7-2-4.7-4.8c0-2.8,1.9-4.9,4.7-4.9c1.8,0,3.1,0.8,3.8,1.8
	c0.4,0.4,0.8,0.5,1.2,0.5c0.6,0,1.1-0.4,1.1-1.1c0-0.8-0.7-1.7-1.5-2.3c-1.1-0.8-2.6-1.3-4.6-1.3c-4.3,0-7.3,3-7.3,7.4
	C1852.3,318.1,1855.3,321.1,1859.6,321.1z M1871,321c0.8,0,1.3-0.5,1.3-1.3v-8.8l6.2,8.9c0.6,0.8,1.1,1.1,1.7,1.1
	c0.9,0,1.5-0.6,1.5-1.6v-11.5c0-0.8-0.5-1.3-1.3-1.3c-0.7,0-1.3,0.5-1.3,1.3v9l-6.2-9c-0.7-0.9-1.1-1.2-1.7-1.2
	c-0.9,0-1.5,0.7-1.5,1.6v11.6C1869.7,320.5,1870.2,321,1871,321z M1885.5,321c0.6,0,1-0.3,1.2-0.8l1.1-2.7h6.8l1.1,2.7
	c0.2,0.5,0.6,0.8,1.2,0.8s1.2-0.5,1.2-1.2c0-0.2,0-0.5-0.2-0.8l-4.3-10.6c-0.5-1.3-1.2-2-2.4-2c-1.2,0-1.9,0.6-2.4,2l-4.3,10.6
	c-0.1,0.3-0.2,0.6-0.2,0.8C1884.3,320.5,1884.8,321,1885.5,321z M1888.7,315.1l2.5-6.3l2.5,6.3H1888.7z M1904.1,321
	c0.8,0,1.3-0.5,1.3-1.3v-10.5h3.5c0.7,0,1.3-0.5,1.3-1.2c0-0.7-0.5-1.2-1.3-1.2h-9.5c-0.7,0-1.3,0.5-1.3,1.2c0,0.7,0.5,1.2,1.3,1.2
	h3.5v10.5C1902.8,320.5,1903.3,321,1904.1,321z M1918.6,321.1c3.6,0,5.9-2.3,5.9-5.8v-7.5c0-0.8-0.5-1.3-1.3-1.3
	c-0.7,0-1.2,0.5-1.2,1.3v7.3c0,2.1-1.3,3.5-3.3,3.5s-3.3-1.4-3.3-3.5v-7.3c0-0.8-0.5-1.3-1.2-1.3c-0.8,0-1.3,0.5-1.3,1.3v7.5
	C1912.7,318.8,1915,321.1,1918.6,321.1z M1929.6,321c0.8,0,1.3-0.5,1.3-1.3v-4.1h3.1l3.2,4.8c0.2,0.3,0.6,0.6,1.1,0.6
	c0.7,0,1.2-0.5,1.2-1.1c0-0.3-0.1-0.6-0.3-1l-2.5-3.7c1.7-0.7,2.7-2.1,2.7-4.1c0-2.7-2.1-4.5-4.9-4.5h-4.8c-0.8,0-1.3,0.5-1.3,1.3
	v11.7C1928.4,320.5,1928.9,321,1929.6,321z M1930.9,313.3v-4.1h3.6c1.3,0,2.2,0.8,2.2,2.1c0,1.3-0.9,2.1-2.2,2.1L1930.9,313.3
	L1930.9,313.3z M1944.5,320.8h7.6c0.7,0,1.3-0.5,1.3-1.2c0-0.7-0.5-1.2-1.3-1.2h-6.4V315h5.7c0.7,0,1.2-0.5,1.2-1.2
	c0-0.7-0.5-1.2-1.2-1.2h-5.7v-3.3h6.3c0.7,0,1.3-0.5,1.3-1.2c0-0.7-0.5-1.2-1.3-1.2h-7.6c-0.8,0-1.3,0.5-1.3,1.3v11.5
	C1943.3,320.3,1943.8,320.8,1944.5,320.8z"/>
<path class="st0" d="M2499-97.7h107c43.4,0,78.5,35.1,78.5,78.5c0,43.4-35.1,78.5-78.5,78.5h-107c-43.4,0-78.5-35.1-78.5-78.5
	C2420.5-62.6,2455.6-97.7,2499-97.7z"/>
<path class="st2" d="M2606,62.2h-107c-44.1,0-80-35.9-80-80c0-44.1,35.9-80,80-80h107c44.1,0,80,35.9,80,80
	C2686,26.3,2650.1,62.2,2606,62.2z M2499-94.7c-42.5,0-77,34.5-77,77c0,42.5,34.5,77,77,77h107c42.5,0,77-34.5,77-77
	c0-42.5-34.5-77-77-77H2499z"/>
<path class="st2" d="M2456.2-25.6c0.8,0,1.3-0.5,1.3-1.3v-4.5h5.6c0.7,0,1.3-0.5,1.3-1.2c0-0.7-0.5-1.2-1.3-1.2h-5.6v-3.5h6.4
	c0.7,0,1.3-0.5,1.3-1.2c0-0.7-0.5-1.2-1.3-1.2h-7.6c-0.8,0-1.3,0.5-1.3,1.3v11.7C2454.9-26.1,2455.4-25.6,2456.2-25.6z M2469.2-25.6
	c0.8,0,1.3-0.5,1.3-1.3v-11.9c0-0.8-0.5-1.3-1.3-1.3s-1.3,0.5-1.3,1.3v11.9C2468-26.1,2468.5-25.6,2469.2-25.6z M2476-25.6
	c0.8,0,1.3-0.5,1.3-1.3v-8.8l6.2,8.9c0.6,0.8,1.1,1.1,1.7,1.1c0.9,0,1.5-0.6,1.5-1.6v-11.5c0-0.8-0.5-1.3-1.3-1.3
	c-0.7,0-1.3,0.5-1.3,1.3v9l-6.2-9c-0.7-0.9-1.1-1.2-1.7-1.2c-0.9,0-1.5,0.7-1.5,1.6v11.6C2474.7-26.1,2475.2-25.6,2476-25.6z
	 M2492.2-25.8h4.5c4.1,0,6.8-2.9,6.8-7c0-4.1-2.7-7-6.8-7h-4.5c-0.8,0-1.3,0.5-1.3,1.3V-27C2490.9-26.3,2491.4-25.8,2492.2-25.8z
	 M2493.4-28.3v-9.1h3.2c2.5,0,4.2,1.9,4.2,4.6c0,2.7-1.7,4.6-4.2,4.6L2493.4-28.3L2493.4-28.3z M2506.2-24.5c0.7,0,1-0.5,1.3-1.2
	l6.9-13.7c0.1-0.2,0.2-0.5,0.2-0.7c0-0.7-0.5-1.1-1.2-1.1c-0.7,0-1,0.4-1.3,1.2l-6.8,13.7c-0.1,0.2-0.2,0.5-0.2,0.7
	C2505-25,2505.5-24.5,2506.2-24.5z M2518.7-25.8h4.5c4.1,0,6.8-2.9,6.8-7c0-4.1-2.7-7-6.8-7h-4.5c-0.8,0-1.3,0.5-1.3,1.3V-27
	C2517.4-26.3,2517.9-25.8,2518.7-25.8z M2520-28.3v-9.1h3.2c2.5,0,4.2,1.9,4.2,4.6c0,2.7-1.7,4.6-4.2,4.6L2520-28.3L2520-28.3z
	 M2540.2-25.5c4.2,0,7.2-3,7.2-7.3c0-4.3-3-7.3-7.2-7.3s-7.2,3-7.2,7.3C2532.9-28.5,2535.9-25.5,2540.2-25.5z M2535.5-32.8
	c0-2.8,1.9-4.8,4.6-4.8c2.7,0,4.6,1.9,4.6,4.8c0,2.8-1.9,4.8-4.6,4.8C2537.4-28,2535.5-30,2535.5-32.8z M2554.5-25.5
	c1.2,0,2-1,2.4-2.5l2.5-8.8l2.5,8.8c0.4,1.5,1.2,2.5,2.4,2.5s2.1-0.9,2.4-2.4l2.6-10.3c0.1-0.2,0.1-0.4,0.1-0.6
	c0-0.7-0.6-1.3-1.3-1.3c-0.7,0-1.2,0.4-1.3,1l-2.5,10.7l-2.8-9.8c-0.3-1.1-1-1.9-2-1.9s-1.7,0.8-2,1.9l-2.8,9.8l-2.5-10.7
	c-0.1-0.6-0.6-1-1.3-1c-0.7,0-1.3,0.6-1.3,1.3c0,0.1,0,0.3,0.1,0.6l2.6,10.4C2552.5-26.5,2553.3-25.5,2554.5-25.5z M2573.6-25.6
	c0.8,0,1.3-0.5,1.3-1.3v-8.8l6.2,8.9c0.6,0.8,1.1,1.1,1.7,1.1c0.9,0,1.5-0.6,1.5-1.6v-11.5c0-0.8-0.5-1.3-1.3-1.3
	c-0.7,0-1.3,0.5-1.3,1.3v9l-6.2-9c-0.7-0.9-1.1-1.2-1.7-1.2c-0.9,0-1.5,0.7-1.5,1.6v11.6C2572.3-26.1,2572.8-25.6,2573.6-25.6z
	 M2589.8-25.8h7.2c0.7,0,1.3-0.5,1.3-1.2s-0.5-1.2-1.3-1.2h-5.9v-10.6c0-0.8-0.5-1.3-1.3-1.3s-1.3,0.5-1.3,1.3v11.7
	C2588.5-26.3,2589-25.8,2589.8-25.8z M2607-25.5c4.2,0,7.2-3,7.2-7.3c0-4.3-3-7.3-7.2-7.3s-7.2,3-7.2,7.3
	C2599.7-28.5,2602.7-25.5,2607-25.5z M2602.3-32.8c0-2.8,2-4.8,4.6-4.8c2.7,0,4.6,1.9,4.6,4.8c0,2.8-1.9,4.8-4.6,4.8
	C2604.3-28,2602.3-30,2602.3-32.8z M2616.9-25.6c0.6,0,1-0.3,1.2-0.8l1.1-2.7h6.9l1.1,2.7c0.2,0.5,0.6,0.8,1.2,0.8
	c0.6,0,1.2-0.5,1.2-1.2c0-0.2-0.1-0.5-0.2-0.8l-4.3-10.6c-0.6-1.3-1.2-2-2.4-2s-1.9,0.6-2.4,2l-4.3,10.6c-0.1,0.3-0.2,0.6-0.2,0.8
	C2615.7-26.1,2616.2-25.6,2616.9-25.6z M2620.1-31.5l2.5-6.3l2.5,6.3H2620.1z M2633.4-25.8h4.5c4.1,0,6.8-2.9,6.8-7
	c0-4.1-2.7-7-6.8-7h-4.5c-0.8,0-1.3,0.5-1.3,1.3V-27C2632.1-26.3,2632.6-25.8,2633.4-25.8z M2634.7-28.3v-9.1h3.2
	c2.5,0,4.2,1.9,4.2,4.6c0,2.7-1.6,4.6-4.2,4.6L2634.7-28.3L2634.7-28.3z M2494.4,4.4c0.6,0,1.1-0.3,1.2-0.8l1.1-2.7h6.8l1.1,2.7
	c0.2,0.5,0.6,0.8,1.2,0.8c0.6,0,1.2-0.5,1.2-1.2c0-0.2-0.1-0.5-0.2-0.8l-4.3-10.6c-0.5-1.3-1.2-2-2.4-2c-1.2,0-1.9,0.6-2.4,2
	l-4.3,10.6c-0.1,0.3-0.2,0.6-0.2,0.8C2493.2,3.9,2493.8,4.4,2494.4,4.4z M2497.7-1.5l2.5-6.3l2.5,6.3H2497.7z M2510.9,4.4
	c0.8,0,1.3-0.5,1.3-1.3V-1h3.1l3.2,4.8c0.2,0.3,0.6,0.6,1.1,0.6c0.7,0,1.2-0.5,1.2-1.1c0-0.3-0.1-0.6-0.3-1l-2.5-3.7
	c1.6-0.7,2.7-2.1,2.7-4.1c0-2.7-2.1-4.5-4.9-4.5h-4.8c-0.8,0-1.3,0.5-1.3,1.3V3C2509.7,3.9,2510.2,4.4,2510.9,4.4z M2512.2-3.3v-4.1
	h3.6c1.3,0,2.2,0.8,2.2,2.1c0,1.3-0.9,2.1-2.2,2.1L2512.2-3.3L2512.2-3.3z M2528.7,4.4c0.8,0,1.3-0.5,1.3-1.3V-7.4h3.5
	c0.7,0,1.3-0.5,1.3-1.2c0-0.7-0.5-1.2-1.3-1.2h-9.5c-0.7,0-1.3,0.5-1.3,1.2c0,0.7,0.5,1.2,1.3,1.2h3.5V3.1
	C2527.4,3.9,2528,4.4,2528.7,4.4z M2538.9,4.4c0.8,0,1.3-0.5,1.3-1.3V-8.8c0-0.8-0.5-1.3-1.3-1.3c-0.8,0-1.3,0.5-1.3,1.3V3.1
	C2537.6,3.9,2538.1,4.4,2538.9,4.4z M2545.6,4.4c0.8,0,1.3-0.5,1.3-1.3v-4.5h5.6c0.7,0,1.3-0.5,1.3-1.2c0-0.7-0.5-1.2-1.3-1.2h-5.6
	v-3.5h6.4c0.7,0,1.3-0.5,1.3-1.2c0-0.7-0.5-1.2-1.3-1.2h-7.6c-0.8,0-1.3,0.5-1.3,1.3V3.3C2544.3,3.9,2544.8,4.4,2545.6,4.4z
	 M2556,4.4c0.6,0,1-0.3,1.2-0.8l1.1-2.7h6.9l1.1,2.7c0.2,0.5,0.6,0.8,1.2,0.8s1.2-0.5,1.2-1.2c0-0.2,0-0.5-0.2-0.8l-4.3-10.6
	c-0.6-1.3-1.2-2-2.4-2s-1.9,0.6-2.4,2l-4.3,10.6c-0.1,0.3-0.2,0.6-0.2,0.8C2554.8,3.9,2555.3,4.4,2556,4.4z M2559.3-1.5l2.5-6.3
	l2.5,6.3H2559.3z M2577.2,4.5c2.3,0,4.2-0.8,5.4-2.2c0.5-0.6,0.8-1.4,0.8-1.9c0-0.7-0.5-1.2-1.2-1.2c-0.4,0-0.8,0.2-1.2,0.7
	c-0.8,1.4-2.1,2.2-3.9,2.2c-2.7,0-4.5-2-4.5-4.8c0-2.8,1.8-4.8,4.5-4.8c1.8,0,3.1,0.8,3.9,2.1c0.4,0.5,0.8,0.7,1.2,0.7
	c0.7,0,1.2-0.6,1.2-1.2c0-0.6-0.4-1.4-0.9-2c-1.3-1.5-3.1-2.2-5.4-2.2c-4.2,0-7.1,3-7.1,7.3C2570.1,1.5,2573.1,4.5,2577.2,4.5z
	 M2591.5,4.4c0.8,0,1.3-0.5,1.3-1.3V-7.4h3.5c0.7,0,1.3-0.5,1.3-1.2c0-0.7-0.5-1.2-1.3-1.2h-9.5c-0.7,0-1.3,0.5-1.3,1.2
	c0,0.7,0.5,1.2,1.3,1.2h3.5V3.1C2590.2,3.9,2590.7,4.4,2591.5,4.4z M2605.3,4.5c3.2,0,5.3-1.7,5.3-4.4c0-2.6-1.7-3.5-3.7-4l-2.5-0.5
	c-1.3-0.3-2.1-0.6-2.1-1.7c0-1.1,1-1.7,2.4-1.7c1.7,0,2.8,0.7,3.4,1.8c0.4,0.3,0.7,0.6,1.2,0.6c0.7,0,1.1-0.5,1.1-1.2
	c0-0.8-0.5-1.7-1.4-2.3c-1-0.6-2.3-1.2-4.1-1.2c-3.2,0-5.3,1.7-5.3,4.2c0,2.4,1.4,3.5,3.8,4l2.6,0.5c1.1,0.2,1.8,0.7,1.8,1.8
	c0,1.1-0.9,1.8-2.5,1.8c-1.9,0-3.1-0.7-4-2.1c-0.3-0.3-0.6-0.5-0.9-0.5c-0.7,0-1.2,0.6-1.2,1.2c0,0.8,0.6,1.8,1.4,2.4
	C2601.9,4,2603.2,4.5,2605.3,4.5z"/>
<path class="st0" d="M2805,538.8h107c43.4,0,78.5,35.1,78.5,78.5c0,43.4-35.1,78.5-78.5,78.5h-107c-43.4,0-78.5-35.1-78.5-78.5
	C2726.5,573.9,2761.6,538.8,2805,538.8z"/>
<path class="st2" d="M2912,697.2h-107c-44.1,0-80-35.9-80-80c0-44.1,35.9-80,80-80h107c44.1,0,80,35.9,80,80
	C2992,661.3,2956.1,697.2,2912,697.2z M2805,540.3c-42.5,0-77,34.5-77,77c0,42.5,34.5,77,77,77h107c42.5,0,77-34.5,77-77
	s-34.5-77-77-77H2805z"/>
<path class="st2" d="M2794.1,594.6c2.3,0,4.2-0.8,5.4-2.2c0.5-0.6,0.8-1.4,0.8-1.9c0-0.7-0.5-1.2-1.2-1.2c-0.4,0-0.8,0.2-1.2,0.7
	c-0.8,1.4-2.1,2.2-3.9,2.2c-2.6,0-4.5-2-4.5-4.8s1.8-4.8,4.5-4.8c1.8,0,3.1,0.8,3.9,2.1c0.4,0.5,0.8,0.7,1.2,0.7
	c0.7,0,1.2-0.6,1.2-1.2c0-0.6-0.4-1.4-0.9-2c-1.3-1.5-3.1-2.2-5.4-2.2c-4.2,0-7.1,3-7.1,7.3C2787,591.6,2790,594.6,2794.1,594.6z
	 M2814.4,594.5c0.8,0,1.3-0.5,1.3-1.3v-11.9c0-0.8-0.5-1.3-1.3-1.3c-0.8,0-1.3,0.5-1.3,1.3v4.7h-6.8v-4.7c0-0.8-0.5-1.3-1.3-1.3
	s-1.3,0.5-1.3,1.3v11.9c0,0.8,0.5,1.3,1.3,1.3s1.3-0.5,1.3-1.3v-4.8h6.8v4.8C2813.1,594,2813.6,594.5,2814.4,594.5z M2821.1,594.3
	h7.6c0.7,0,1.3-0.5,1.3-1.2c0-0.7-0.5-1.2-1.3-1.2h-6.4v-3.4h5.7c0.7,0,1.2-0.5,1.2-1.2c0-0.7-0.5-1.2-1.2-1.2h-5.7v-3.3h6.3
	c0.7,0,1.3-0.5,1.3-1.2c0-0.7-0.5-1.2-1.3-1.2h-7.6c-0.8,0-1.3,0.5-1.3,1.3v11.5C2819.9,593.8,2820.4,594.3,2821.1,594.3z
	 M2840,594.6c2.3,0,4.2-0.8,5.4-2.2c0.5-0.6,0.8-1.4,0.8-1.9c0-0.7-0.5-1.2-1.2-1.2c-0.4,0-0.8,0.2-1.2,0.7
	c-0.8,1.4-2.1,2.2-3.9,2.2c-2.6,0-4.5-2-4.5-4.8s1.8-4.8,4.5-4.8c1.8,0,3.1,0.8,3.9,2.1c0.4,0.5,0.8,0.7,1.2,0.7
	c0.7,0,1.2-0.6,1.2-1.2c0-0.6-0.4-1.4-0.9-2c-1.3-1.5-3.1-2.2-5.4-2.2c-4.2,0-7.1,3-7.1,7.3C2832.9,591.6,2835.8,594.6,2840,594.6z
	 M2850.9,594.5c0.8,0,1.3-0.5,1.3-1.3v-3.3l2.2-2l4.8,6c0.3,0.4,0.8,0.6,1.2,0.6c0.7,0,1.2-0.5,1.2-1c0-0.4-0.1-0.6-0.5-1.1
	l-4.8-6.1l4.3-3.9c0.5-0.5,0.7-0.8,0.7-1.3s-0.5-1-1.1-1c-0.5,0-0.8,0.2-1.1,0.4l-6.9,6.3v-5.5c0-0.8-0.5-1.3-1.3-1.3
	c-0.8,0-1.3,0.5-1.3,1.3v11.9C2849.7,594,2850.2,594.5,2850.9,594.5z M2875.4,594.5c0.8,0,1.3-0.5,1.3-1.3v-10.5h3.5
	c0.7,0,1.3-0.5,1.3-1.2c0-0.7-0.5-1.2-1.3-1.2h-9.5c-0.7,0-1.3,0.5-1.3,1.2c0,0.7,0.5,1.2,1.3,1.2h3.5v10.5
	C2874.1,594,2874.7,594.5,2875.4,594.5z M2894.9,594.5c0.8,0,1.3-0.5,1.3-1.3v-11.9c0-0.8-0.5-1.3-1.3-1.3c-0.8,0-1.3,0.5-1.3,1.3
	v4.7h-6.8v-4.7c0-0.8-0.5-1.3-1.3-1.3s-1.3,0.5-1.3,1.3v11.9c0,0.8,0.5,1.3,1.3,1.3s1.3-0.5,1.3-1.3v-4.8h6.8v4.8
	C2893.6,594,2894.2,594.5,2894.9,594.5z M2899.9,594.5c0.6,0,1-0.3,1.2-0.8l1.1-2.7h6.8l1.1,2.7c0.2,0.5,0.6,0.8,1.2,0.8
	c0.6,0,1.2-0.5,1.2-1.2c0-0.2,0-0.5-0.2-0.8l-4.3-10.6c-0.5-1.3-1.2-2-2.4-2c-1.2,0-1.9,0.6-2.4,2l-4.3,10.6
	c-0.1,0.3-0.2,0.6-0.2,0.8C2898.7,594,2899.3,594.5,2899.9,594.5z M2903.2,588.6l2.5-6.3l2.5,6.3H2903.2z M2918.5,594.5
	c0.8,0,1.3-0.5,1.3-1.3v-10.5h3.5c0.7,0,1.3-0.5,1.3-1.2c0-0.7-0.5-1.2-1.3-1.2h-9.5c-0.7,0-1.3,0.5-1.3,1.2c0,0.7,0.5,1.2,1.3,1.2
	h3.5v10.5C2917.3,594,2917.8,594.5,2918.5,594.5z M2764.8,624.5c3.2,0,5.3-1.7,5.3-4.4c0-2.6-1.7-3.5-3.7-4l-2.5-0.5
	c-1.3-0.3-2.1-0.6-2.1-1.7c0-1.1,1-1.7,2.4-1.7c1.7,0,2.8,0.7,3.4,1.8c0.4,0.3,0.7,0.6,1.2,0.6c0.7,0,1.1-0.5,1.1-1.2
	c0-0.8-0.5-1.7-1.4-2.3c-1-0.6-2.3-1.2-4.1-1.2c-3.2,0-5.3,1.7-5.3,4.2c0,2.4,1.5,3.5,3.8,4l2.6,0.5c1.1,0.2,1.8,0.7,1.8,1.8
	c0,1.1-0.9,1.8-2.5,1.8c-2,0-3.1-0.7-4-2.1c-0.3-0.3-0.6-0.5-0.9-0.5c-0.7,0-1.2,0.6-1.2,1.2c0,0.8,0.6,1.8,1.4,2.4
	C2761.3,624,2762.7,624.5,2764.8,624.5z M2775,624.4c0.8,0,1.3-0.5,1.3-1.3v-11.9c0-0.8-0.5-1.3-1.3-1.3s-1.3,0.5-1.3,1.3v11.9
	C2773.8,623.9,2774.3,624.4,2775,624.4z M2787.1,624.5c3.9,0,6.6-2.4,6.6-6.8c0-1-0.6-1.4-1.3-1.4h-5.4c-0.7,0-1.2,0.4-1.2,1.2
	c0,0.7,0.6,1.2,1.2,1.2h4.2c-0.1,2.1-1.6,3.3-3.9,3.3c-2.9,0-4.7-2-4.7-4.8c0-2.8,1.9-4.9,4.7-4.9c1.8,0,3.1,0.8,3.8,1.8
	c0.4,0.4,0.8,0.5,1.2,0.5c0.6,0,1.1-0.4,1.1-1.1c0-0.8-0.7-1.7-1.5-2.3c-1.1-0.8-2.6-1.3-4.6-1.3c-4.3,0-7.3,3-7.3,7.4
	C2779.8,621.5,2782.8,624.5,2787.1,624.5z M2798.5,624.4c0.8,0,1.3-0.5,1.3-1.3v-8.8l6.2,8.9c0.6,0.8,1.1,1.1,1.7,1.1
	c0.9,0,1.5-0.6,1.5-1.6v-11.5c0-0.8-0.5-1.3-1.3-1.3c-0.7,0-1.3,0.5-1.3,1.3v9l-6.2-9c-0.7-0.9-1.1-1.2-1.7-1.2
	c-0.9,0-1.5,0.7-1.5,1.6v11.6C2797.2,623.9,2797.7,624.4,2798.5,624.4z M2814.7,624.4c0.8,0,1.3-0.5,1.3-1.3v-11.9
	c0-0.8-0.5-1.3-1.3-1.3s-1.3,0.5-1.3,1.3v11.9C2813.4,623.9,2813.9,624.4,2814.7,624.4z M2821.4,624.4c0.8,0,1.3-0.5,1.3-1.3v-8.8
	l6.2,8.9c0.6,0.8,1.1,1.1,1.7,1.1c0.9,0,1.5-0.6,1.5-1.6v-11.5c0-0.8-0.5-1.3-1.3-1.3c-0.7,0-1.3,0.5-1.3,1.3v9l-6.2-9
	c-0.7-0.9-1.1-1.2-1.7-1.2c-0.9,0-1.5,0.7-1.5,1.6v11.6C2820.1,623.9,2820.6,624.4,2821.4,624.4z M2842.9,624.5
	c3.9,0,6.6-2.4,6.6-6.8c0-1-0.6-1.4-1.3-1.4h-5.4c-0.7,0-1.2,0.4-1.2,1.2c0,0.7,0.6,1.2,1.2,1.2h4.2c-0.1,2.1-1.6,3.3-3.9,3.3
	c-2.9,0-4.7-2-4.7-4.8c0-2.8,1.9-4.9,4.7-4.9c1.8,0,3.1,0.8,3.8,1.8c0.4,0.4,0.8,0.5,1.2,0.5c0.6,0,1.1-0.4,1.1-1.1
	c0-0.8-0.7-1.7-1.5-2.3c-1.1-0.8-2.6-1.3-4.6-1.3c-4.3,0-7.3,3-7.3,7.4C2835.6,621.5,2838.6,624.5,2842.9,624.5z M2860.3,624.4
	c0.8,0,1.3-0.5,1.3-1.3v-3.9h3.4c2.9,0,5.1-1.8,5.1-4.6c0-2.8-2.2-4.6-5.1-4.6h-4.6c-0.8,0-1.3,0.5-1.3,1.3V623
	C2859.1,623.9,2859.6,624.4,2860.3,624.4z M2861.6,616.9v-4.3h3.5c1.4,0,2.4,0.9,2.4,2.2c0,1.3-0.9,2.2-2.4,2.2h-3.5V616.9z
	 M2871.5,624.4c0.6,0,1-0.3,1.2-0.8l1.1-2.7h6.8l1.1,2.7c0.2,0.5,0.6,0.8,1.2,0.8c0.6,0,1.2-0.5,1.2-1.2c0-0.2,0-0.5-0.2-0.8
	l-4.3-10.6c-0.5-1.3-1.2-2-2.4-2s-1.9,0.6-2.4,2l-4.3,10.6c-0.1,0.3-0.2,0.6-0.2,0.8C2870.3,623.9,2870.9,624.4,2871.5,624.4z
	 M2874.8,618.5l2.5-6.3l2.5,6.3H2874.8z M2888,624.4c0.8,0,1.3-0.5,1.3-1.3V619h3.1l3.2,4.8c0.2,0.3,0.6,0.6,1.1,0.6
	c0.7,0,1.2-0.5,1.2-1.1c0-0.3-0.1-0.6-0.3-1l-2.5-3.7c1.7-0.7,2.7-2.1,2.7-4.1c0-2.7-2.1-4.5-4.9-4.5h-4.9c-0.8,0-1.3,0.5-1.3,1.3
	V623C2886.8,623.9,2887.3,624.4,2888,624.4z M2889.3,616.7v-4.1h3.6c1.3,0,2.2,0.8,2.2,2.1c0,1.3-0.9,2.1-2.2,2.1L2889.3,616.7
	L2889.3,616.7z M2905.8,624.4c0.8,0,1.3-0.5,1.3-1.3v-10.5h3.5c0.7,0,1.3-0.5,1.3-1.2c0-0.7-0.5-1.2-1.3-1.2h-9.6
	c-0.7,0-1.3,0.5-1.3,1.2c0,0.7,0.5,1.2,1.3,1.2h3.5v10.5C2904.5,623.9,2905.1,624.4,2905.8,624.4z M2913.7,611.7l4.6,6.6v4.8
	c0,0.8,0.5,1.3,1.3,1.3c0.8,0,1.3-0.5,1.3-1.3v-4.8l4.6-6.6c0.1-0.2,0.2-0.4,0.2-0.7c0-0.6-0.5-1.1-1.2-1.1c-0.6,0-0.9,0.4-1.2,0.9
	l-3.6,5.3l-3.7-5.3c-0.3-0.5-0.6-0.9-1.2-0.9c-0.7,0-1.2,0.5-1.2,1.1C2913.5,611.3,2913.5,611.5,2913.7,611.7z M2935.9,624.4
	c0.8,0,1.3-0.5,1.3-1.3v-11.9c0-0.8-0.5-1.3-1.3-1.3c-0.8,0-1.3,0.5-1.3,1.3v11.9C2934.7,623.9,2935.2,624.4,2935.9,624.4z
	 M2946.6,624.5c3.2,0,5.3-1.7,5.3-4.4c0-2.6-1.7-3.5-3.7-4l-2.5-0.5c-1.3-0.3-2.1-0.6-2.1-1.7c0-1.1,1-1.7,2.4-1.7
	c1.7,0,2.8,0.7,3.4,1.8c0.4,0.3,0.7,0.6,1.2,0.6c0.7,0,1.1-0.5,1.1-1.2c0-0.8-0.5-1.7-1.4-2.3c-1-0.6-2.3-1.2-4.1-1.2
	c-3.2,0-5.3,1.7-5.3,4.2c0,2.4,1.5,3.5,3.8,4l2.6,0.5c1.1,0.2,1.8,0.7,1.8,1.8c0,1.1-0.9,1.8-2.5,1.8c-2,0-3.1-0.7-4-2.1
	c-0.3-0.3-0.6-0.5-0.9-0.5c-0.7,0-1.2,0.6-1.2,1.2c0,0.8,0.6,1.8,1.4,2.4C2943.2,624,2944.5,624.5,2946.6,624.5z M2777.7,654.4
	c0.8,0,1.3-0.5,1.3-1.3v-11.9c0-0.8-0.5-1.3-1.3-1.3s-1.3,0.5-1.3,1.3v11.9C2776.4,653.9,2776.9,654.4,2777.7,654.4z M2784.4,654.4
	c0.8,0,1.3-0.5,1.3-1.3v-8.8l6.2,8.9c0.6,0.8,1.1,1.1,1.7,1.1c0.9,0,1.5-0.6,1.5-1.6v-11.5c0-0.8-0.5-1.3-1.3-1.3
	c-0.7,0-1.3,0.5-1.3,1.3v9l-6.2-9c-0.7-0.9-1.1-1.2-1.7-1.2c-0.9,0-1.5,0.7-1.5,1.6v11.6C2783.2,653.9,2783.7,654.4,2784.4,654.4z
	 M2810.1,654.4c0.8,0,1.3-0.5,1.3-1.3v-10.5h3.5c0.7,0,1.3-0.5,1.3-1.2c0-0.7-0.5-1.2-1.3-1.2h-9.5c-0.7,0-1.3,0.5-1.3,1.2
	c0,0.7,0.5,1.2,1.3,1.2h3.5v10.5C2808.8,653.9,2809.3,654.4,2810.1,654.4z M2820.2,654.4c0.8,0,1.3-0.5,1.3-1.3V649h3.1l3.2,4.8
	c0.2,0.3,0.6,0.6,1.1,0.6c0.7,0,1.2-0.5,1.2-1.1c0-0.3-0.1-0.6-0.3-1l-2.5-3.7c1.6-0.7,2.7-2.1,2.7-4.1c0-2.7-2.1-4.5-4.9-4.5h-4.8
	c-0.8,0-1.3,0.5-1.3,1.3V653C2819,653.9,2819.5,654.4,2820.2,654.4z M2821.5,646.7v-4.1h3.6c1.3,0,2.2,0.8,2.2,2.1
	c0,1.3-0.9,2.1-2.2,2.1h-3.6V646.7z M2839.3,654.5c3.6,0,5.8-2.3,5.8-5.8v-7.5c0-0.8-0.5-1.3-1.3-1.3c-0.7,0-1.2,0.5-1.2,1.3v7.3
	c0,2.1-1.3,3.5-3.3,3.5s-3.3-1.4-3.3-3.5v-7.3c0-0.8-0.5-1.3-1.2-1.3c-0.8,0-1.3,0.5-1.3,1.3v7.5
	C2833.5,652.2,2835.7,654.5,2839.3,654.5z M2854.3,654.5c3.2,0,5.3-1.7,5.3-4.4c0-2.6-1.7-3.5-3.7-4l-2.5-0.5
	c-1.3-0.3-2.1-0.6-2.1-1.7c0-1.1,1-1.7,2.4-1.7c1.7,0,2.8,0.7,3.4,1.8c0.4,0.3,0.7,0.6,1.2,0.6c0.7,0,1.1-0.5,1.1-1.2
	c0-0.8-0.5-1.7-1.4-2.3c-1-0.6-2.3-1.2-4.1-1.2c-3.2,0-5.3,1.7-5.3,4.2c0,2.4,1.5,3.5,3.8,4l2.6,0.5c1.1,0.2,1.8,0.7,1.8,1.8
	c0,1.1-0.9,1.8-2.5,1.8c-2,0-3.1-0.7-4-2.1c-0.3-0.3-0.6-0.5-0.9-0.5c-0.7,0-1.2,0.6-1.2,1.2c0,0.8,0.6,1.8,1.4,2.4
	C2850.8,654,2852.2,654.5,2854.3,654.5z M2867.6,654.4c0.8,0,1.3-0.5,1.3-1.3v-10.5h3.5c0.7,0,1.3-0.5,1.3-1.2
	c0-0.7-0.5-1.2-1.3-1.2h-9.5c-0.7,0-1.3,0.5-1.3,1.2c0,0.7,0.5,1.2,1.3,1.2h3.5v10.5C2866.4,653.9,2866.9,654.4,2867.6,654.4z
	 M2883.8,654.4c0.8,0,1.3-0.5,1.3-1.3V649h3.1l3.2,4.8c0.2,0.3,0.6,0.6,1.1,0.6c0.7,0,1.2-0.5,1.2-1.1c0-0.3-0.1-0.6-0.3-1l-2.5-3.7
	c1.7-0.7,2.7-2.1,2.7-4.1c0-2.7-2.1-4.5-4.9-4.5h-4.8c-0.8,0-1.3,0.5-1.3,1.3V653C2882.6,653.9,2883.1,654.4,2883.8,654.4z
	 M2885.1,646.7v-4.1h3.6c1.3,0,2.2,0.8,2.2,2.1c0,1.3-0.9,2.1-2.2,2.1h-3.6V646.7z M2903.7,654.5c4.2,0,7.2-3,7.2-7.3
	c0-4.3-3-7.3-7.2-7.3s-7.2,3-7.2,7.3C2896.5,651.5,2899.5,654.5,2903.7,654.5z M2899.1,647.2c0-2.8,1.9-4.8,4.6-4.8s4.6,1.9,4.6,4.8
	c0,2.8-1.9,4.8-4.6,4.8S2899.1,650,2899.1,647.2z M2921,654.5c4.2,0,7.2-3,7.2-7.3c0-4.3-3-7.3-7.2-7.3s-7.2,3-7.2,7.3
	C2913.8,651.5,2916.8,654.5,2921,654.5z M2916.4,647.2c0-2.8,1.9-4.8,4.6-4.8s4.6,1.9,4.6,4.8c0,2.8-1.9,4.8-4.6,4.8
	C2918.4,652,2916.4,650,2916.4,647.2z M2935.9,654.4c0.8,0,1.3-0.5,1.3-1.3v-10.5h3.5c0.7,0,1.3-0.5,1.3-1.2c0-0.7-0.5-1.2-1.3-1.2
	h-9.5c-0.7,0-1.3,0.5-1.3,1.2c0,0.7,0.5,1.2,1.3,1.2h3.5v10.5C2934.6,653.9,2935.1,654.4,2935.9,654.4z"/>
<path class="st0" d="M2499,219.8h107c43.4,0,78.5,35.1,78.5,78.5c0,43.4-35.1,78.5-78.5,78.5h-107c-43.4,0-78.5-35.1-78.5-78.5
	C2420.5,254.9,2455.6,219.8,2499,219.8z"/>
<path class="st2" d="M2606,378.2h-107c-44.1,0-80-35.9-80-80c0-44.1,35.9-80,80-80h107c44.1,0,80,35.9,80,80
	C2686,342.3,2650.1,378.2,2606,378.2z M2499,221.3c-42.5,0-77,34.5-77,77c0,42.5,34.5,77,77,77h107c42.5,0,77-34.5,77-77
	s-34.5-77-77-77H2499z"/>
<path class="st2" d="M2519.5,275.6c2.3,0,4.2-0.8,5.4-2.2c0.5-0.6,0.8-1.4,0.8-1.9c0-0.7-0.5-1.2-1.2-1.2c-0.4,0-0.8,0.2-1.2,0.7
	c-0.8,1.4-2.1,2.2-3.9,2.2c-2.6,0-4.5-2-4.5-4.8c0-2.8,1.8-4.8,4.5-4.8c1.8,0,3.1,0.8,3.9,2.1c0.4,0.5,0.8,0.7,1.2,0.7
	c0.7,0,1.2-0.6,1.2-1.2c0-0.6-0.4-1.4-0.9-2c-1.3-1.5-3.1-2.2-5.4-2.2c-4.2,0-7.1,3-7.1,7.3C2512.4,272.6,2515.3,275.6,2519.5,275.6
	z M2539.8,275.5c0.8,0,1.3-0.5,1.3-1.3v-11.9c0-0.8-0.5-1.3-1.3-1.3s-1.3,0.5-1.3,1.3v4.7h-6.8v-4.7c0-0.8-0.5-1.3-1.3-1.3
	c-0.8,0-1.3,0.5-1.3,1.3v11.9c0,0.8,0.5,1.3,1.3,1.3c0.8,0,1.3-0.5,1.3-1.3v-4.8h6.8v4.8C2538.5,275,2539,275.5,2539.8,275.5z
	 M2546.5,275.3h7.6c0.7,0,1.3-0.5,1.3-1.2c0-0.7-0.5-1.2-1.3-1.2h-6.4v-3.4h5.7c0.7,0,1.2-0.5,1.2-1.2c0-0.7-0.5-1.2-1.2-1.2h-5.7
	v-3.3h6.3c0.7,0,1.3-0.5,1.3-1.2c0-0.7-0.5-1.2-1.3-1.2h-7.6c-0.8,0-1.3,0.5-1.3,1.3v11.5C2545.2,274.8,2545.7,275.3,2546.5,275.3z
	 M2565.4,275.6c2.3,0,4.2-0.8,5.4-2.2c0.5-0.6,0.8-1.4,0.8-1.9c0-0.7-0.5-1.2-1.2-1.2c-0.4,0-0.8,0.2-1.2,0.7
	c-0.8,1.4-2.1,2.2-3.9,2.2c-2.6,0-4.5-2-4.5-4.8c0-2.8,1.8-4.8,4.5-4.8c1.8,0,3.1,0.8,3.9,2.1c0.4,0.5,0.8,0.7,1.2,0.7
	c0.7,0,1.2-0.6,1.2-1.2c0-0.6-0.4-1.4-0.9-2c-1.3-1.5-3.1-2.2-5.4-2.2c-4.2,0-7.1,3-7.1,7.3C2558.3,272.6,2561.2,275.6,2565.4,275.6
	z M2576.3,275.5c0.8,0,1.3-0.5,1.3-1.3v-3.3l2.2-2l4.8,6c0.3,0.4,0.8,0.6,1.2,0.6c0.7,0,1.2-0.5,1.2-1c0-0.4-0.1-0.6-0.5-1.1
	l-4.8-6.1l4.3-3.9c0.5-0.5,0.7-0.8,0.7-1.3s-0.5-1-1.1-1c-0.5,0-0.8,0.2-1.1,0.4l-6.9,6.3v-5.5c0-0.8-0.5-1.3-1.3-1.3
	s-1.3,0.5-1.3,1.3v11.9C2575,275,2575.6,275.5,2576.3,275.5z M2490.1,305.5c3.2,0,5.3-1.7,5.3-4.4c0-2.6-1.7-3.5-3.7-4l-2.5-0.5
	c-1.3-0.3-2.1-0.6-2.1-1.7c0-1.1,1-1.7,2.4-1.7c1.7,0,2.8,0.7,3.4,1.8c0.4,0.3,0.7,0.6,1.2,0.6c0.7,0,1.1-0.5,1.1-1.2
	c0-0.8-0.5-1.7-1.4-2.3c-1-0.6-2.3-1.2-4.1-1.2c-3.2,0-5.3,1.7-5.3,4.2c0,2.4,1.5,3.5,3.8,4l2.6,0.5c1.1,0.2,1.8,0.7,1.8,1.8
	c0,1.1-0.9,1.8-2.5,1.8c-2,0-3.1-0.7-4-2.1c-0.3-0.3-0.6-0.5-0.9-0.5c-0.7,0-1.2,0.6-1.2,1.2c0,0.8,0.6,1.8,1.4,2.4
	C2486.7,305,2488.1,305.5,2490.1,305.5z M2500.4,305.4c0.8,0,1.3-0.5,1.3-1.3v-11.9c0-0.8-0.5-1.3-1.3-1.3c-0.8,0-1.3,0.5-1.3,1.3
	v11.9C2499.2,304.9,2499.7,305.4,2500.4,305.4z M2512.5,305.5c3.9,0,6.6-2.4,6.6-6.8c0-1-0.6-1.4-1.3-1.4h-5.4
	c-0.7,0-1.2,0.4-1.2,1.2c0,0.7,0.6,1.2,1.2,1.2h4.2c-0.1,2.1-1.6,3.3-3.9,3.3c-2.9,0-4.7-2-4.7-4.8c0-2.8,1.9-4.9,4.7-4.9
	c1.8,0,3.1,0.8,3.8,1.8c0.4,0.4,0.8,0.5,1.2,0.5c0.6,0,1.1-0.4,1.1-1.1c0-0.8-0.7-1.7-1.5-2.3c-1.1-0.8-2.6-1.3-4.6-1.3
	c-4.3,0-7.3,3-7.3,7.4C2505.2,302.5,2508.1,305.5,2512.5,305.5z M2523.8,305.4c0.8,0,1.3-0.5,1.3-1.3v-8.8l6.2,8.9
	c0.6,0.8,1.1,1.1,1.7,1.1c0.9,0,1.5-0.6,1.5-1.6v-11.5c0-0.8-0.5-1.3-1.3-1.3c-0.7,0-1.3,0.5-1.3,1.3v9l-6.2-9
	c-0.7-0.9-1.1-1.2-1.7-1.2c-0.9,0-1.5,0.7-1.5,1.6v11.6C2522.6,304.9,2523.1,305.4,2523.8,305.4z M2538.4,305.4c0.6,0,1-0.3,1.2-0.8
	l1.1-2.7h6.8l1.1,2.7c0.2,0.5,0.6,0.8,1.2,0.8c0.6,0,1.2-0.5,1.2-1.2c0-0.2,0-0.5-0.2-0.8l-4.3-10.6c-0.5-1.3-1.2-2-2.4-2
	c-1.2,0-1.9,0.6-2.4,2l-4.3,10.6c-0.1,0.3-0.2,0.6-0.2,0.8C2537.1,304.9,2537.7,305.4,2538.4,305.4z M2541.6,299.5l2.5-6.3l2.5,6.3
	H2541.6z M2557,305.4c0.8,0,1.3-0.5,1.3-1.3v-10.5h3.5c0.7,0,1.3-0.5,1.3-1.2c0-0.7-0.5-1.2-1.3-1.2h-9.5c-0.7,0-1.3,0.5-1.3,1.2
	c0,0.7,0.5,1.2,1.3,1.2h3.5v10.5C2555.7,304.9,2556.2,305.4,2557,305.4z M2571.4,305.5c3.6,0,5.8-2.3,5.8-5.8v-7.5
	c0-0.8-0.5-1.3-1.3-1.3c-0.7,0-1.2,0.5-1.2,1.3v7.3c0,2.1-1.3,3.5-3.3,3.5s-3.3-1.4-3.3-3.5v-7.3c0-0.8-0.5-1.3-1.2-1.3
	c-0.7,0-1.3,0.5-1.3,1.3v7.5C2565.6,303.2,2567.9,305.5,2571.4,305.5z M2582.5,305.4c0.8,0,1.3-0.5,1.3-1.3V300h3.1l3.2,4.8
	c0.2,0.3,0.6,0.6,1.1,0.6c0.7,0,1.2-0.5,1.2-1.1c0-0.3-0.1-0.6-0.3-1l-2.5-3.7c1.7-0.7,2.7-2.1,2.7-4.1c0-2.7-2.1-4.5-4.9-4.5h-4.8
	c-0.8,0-1.3,0.5-1.3,1.3V304C2581.3,304.9,2581.8,305.4,2582.5,305.4z M2583.8,297.7v-4.1h3.6c1.3,0,2.2,0.8,2.2,2.1
	c0,1.3-0.9,2.1-2.2,2.1h-3.6V297.7z M2597.4,305.2h7.6c0.7,0,1.3-0.5,1.3-1.2c0-0.7-0.5-1.2-1.3-1.2h-6.4v-3.4h5.7
	c0.7,0,1.2-0.5,1.2-1.2c0-0.7-0.5-1.2-1.2-1.2h-5.7v-3.3h6.3c0.7,0,1.3-0.5,1.3-1.2s-0.5-1.2-1.3-1.2h-7.6c-0.8,0-1.3,0.5-1.3,1.3
	v11.5C2596.1,304.7,2596.7,305.2,2597.4,305.2z M2615.3,305.5c3.2,0,5.3-1.7,5.3-4.4c0-2.6-1.7-3.5-3.7-4l-2.5-0.5
	c-1.3-0.3-2-0.6-2-1.7c0-1.1,1-1.7,2.4-1.7c1.7,0,2.8,0.7,3.4,1.8c0.4,0.3,0.7,0.6,1.2,0.6c0.7,0,1.1-0.5,1.1-1.2
	c0-0.8-0.5-1.7-1.4-2.3c-1-0.6-2.3-1.2-4.1-1.2c-3.2,0-5.3,1.7-5.3,4.2c0,2.4,1.5,3.5,3.8,4l2.6,0.5c1.1,0.2,1.8,0.7,1.8,1.8
	c0,1.1-0.9,1.8-2.5,1.8c-2,0-3.1-0.7-4-2.1c-0.3-0.3-0.6-0.5-0.9-0.5c-0.7,0-1.2,0.6-1.2,1.2c0,0.8,0.6,1.8,1.4,2.4
	C2611.8,305,2613.2,305.5,2615.3,305.5z M2518.4,335.4c0.8,0,1.3-0.5,1.3-1.3v-11.9c0-0.8-0.5-1.3-1.3-1.3c-0.8,0-1.3,0.5-1.3,1.3
	v11.9C2517.2,334.9,2517.7,335.4,2518.4,335.4z M2525.2,335.4c0.8,0,1.3-0.5,1.3-1.3v-8.8l6.2,8.9c0.6,0.8,1.1,1.1,1.7,1.1
	c0.9,0,1.5-0.6,1.5-1.6v-11.5c0-0.8-0.5-1.3-1.3-1.3c-0.7,0-1.3,0.5-1.3,1.3v9l-6.2-9c-0.7-0.9-1.1-1.2-1.7-1.2
	c-0.9,0-1.5,0.7-1.5,1.6v11.6C2523.9,334.9,2524.4,335.4,2525.2,335.4z M2547.4,335.2h7.2c0.7,0,1.3-0.5,1.3-1.2
	c0-0.7-0.5-1.2-1.3-1.2h-5.9v-10.6c0-0.8-0.5-1.3-1.3-1.3c-0.8,0-1.3,0.5-1.3,1.3v11.7C2546.1,334.7,2546.6,335.2,2547.4,335.2z
	 M2564.6,335.5c4.2,0,7.2-3,7.2-7.3s-3-7.3-7.2-7.3c-4.2,0-7.2,3-7.2,7.3C2557.3,332.5,2560.3,335.5,2564.6,335.5z M2559.9,328.2
	c0-2.8,1.9-4.8,4.6-4.8s4.6,1.9,4.6,4.8c0,2.8-1.9,4.8-4.6,4.8C2561.9,333,2559.9,331,2559.9,328.2z M2581.9,335.5
	c3.9,0,6.6-2.4,6.6-6.8c0-1-0.6-1.4-1.3-1.4h-5.4c-0.7,0-1.2,0.4-1.2,1.2c0,0.7,0.6,1.2,1.2,1.2h4.2c-0.1,2.1-1.6,3.3-3.9,3.3
	c-2.9,0-4.7-2-4.7-4.8c0-2.8,1.9-4.9,4.7-4.9c1.8,0,3.1,0.8,3.8,1.8c0.4,0.4,0.8,0.5,1.2,0.5c0.6,0,1.1-0.4,1.1-1.1
	c0-0.8-0.7-1.7-1.5-2.3c-1.1-0.8-2.6-1.3-4.6-1.3c-4.3,0-7.3,3-7.3,7.4C2574.7,332.5,2577.6,335.5,2581.9,335.5z"/>
<path class="st2" d="M981,377.7c-0.6-0.6-1.5-0.6-2.1,0l-9.5,9.5c-0.6,0.6-0.6,1.5,0,2.1c0.6,0.6,1.5,0.6,2.1,0l8.5-8.5l8.5,8.5
	c0.6,0.6,1.5,0.6,2.1,0c0.6-0.6,0.6-1.5,0-2.1L981,377.7z M981.4,381.8v-3h-3v3H981.4z"/>
<path class="st2" d="M1412.4,614.3c-0.6,0.6-0.6,1.5,0,2.1l9.5,9.5c0.6,0.6,1.5,0.6,2.1,0c0.6-0.6,0.6-1.5,0-2.1l-8.5-8.5l8.5-8.5
	c0.6-0.6,0.6-1.5,0-2.1c-0.6-0.6-1.5-0.6-2.1,0L1412.4,614.3z M1416.6,613.9h-3v3h3V613.9z"/>
<path class="st3" d="M2131,538.8h227c10.2,0,18.5,8.3,18.5,18.5v119.9c0,10.2-8.3,18.5-18.5,18.5h-227c-10.2,0-18.5-8.3-18.5-18.5
	V557.3C2112.5,547.1,2120.8,538.8,2131,538.8z"/>
<path class="st2" d="M2358,697.2h-227c-11,0-20-9-20-20V557.3c0-11,9-20,20-20h227c11,0,20,9,20,20v119.9
	C2378,688.2,2369,697.2,2358,697.2z M2131,540.3c-9.4,0-17,7.6-17,17v119.9c0,9.4,7.6,17,17,17h227c9.4,0,17-7.6,17-17V557.3
	c0-9.4-7.6-17-17-17H2131z"/>
<path class="st2" d="M2188.5,624.4c0.7,0,1.3-0.6,1.3-1.3v-8.6l3.3,6.4c0.5,1,0.9,1.4,1.7,1.4s1.1-0.4,1.7-1.4l3.3-6.4v8.6
	c0,0.8,0.5,1.3,1.2,1.3s1.3-0.5,1.3-1.3v-11.5c0-1.1-0.7-1.7-1.6-1.7c-0.8,0-1.3,0.4-1.8,1.3l-4.1,7.8l-4.1-7.8
	c-0.5-0.9-0.9-1.3-1.7-1.3c-0.9,0-1.6,0.6-1.6,1.7v11.5C2187.3,623.9,2187.8,624.4,2188.5,624.4z M2213,624.5c4.2,0,7.2-3,7.2-7.3
	c0-4.3-3-7.3-7.2-7.3s-7.2,3-7.2,7.3C2205.8,621.5,2208.8,624.5,2213,624.5z M2208.4,617.2c0-2.8,1.9-4.8,4.6-4.8s4.6,1.9,4.6,4.8
	c0,2.8-1.9,4.8-4.6,4.8S2208.4,620,2208.4,617.2z M2225,624.4c0.8,0,1.3-0.5,1.3-1.3v-8.8l6.2,8.9c0.6,0.8,1.1,1.1,1.7,1.1
	c0.9,0,1.5-0.6,1.5-1.6v-11.5c0-0.8-0.5-1.3-1.3-1.3c-0.7,0-1.3,0.5-1.3,1.3v9l-6.2-9c-0.7-0.9-1.1-1.2-1.7-1.2
	c-0.9,0-1.5,0.7-1.5,1.6v11.6C2223.8,623.9,2224.3,624.4,2225,624.4z M2241.2,624.4c0.8,0,1.3-0.5,1.3-1.3v-11.9
	c0-0.8-0.5-1.3-1.3-1.3s-1.3,0.5-1.3,1.3v11.9C2240,623.9,2240.5,624.4,2241.2,624.4z M2251.4,624.4c0.8,0,1.3-0.5,1.3-1.3v-10.5
	h3.5c0.7,0,1.3-0.5,1.3-1.2c0-0.7-0.5-1.2-1.3-1.2h-9.5c-0.7,0-1.3,0.5-1.3,1.2c0,0.7,0.5,1.2,1.3,1.2h3.5v10.5
	C2250.1,623.9,2250.6,624.4,2251.4,624.4z M2266.2,624.5c4.2,0,7.2-3,7.2-7.3c0-4.3-3-7.3-7.2-7.3s-7.2,3-7.2,7.3
	C2259,621.5,2262,624.5,2266.2,624.5z M2261.6,617.2c0-2.8,1.9-4.8,4.6-4.8s4.6,1.9,4.6,4.8c0,2.8-1.9,4.8-4.6,4.8
	S2261.6,620,2261.6,617.2z M2278.2,624.4c0.8,0,1.3-0.5,1.3-1.3V619h3.1l3.2,4.8c0.2,0.3,0.6,0.6,1.1,0.6c0.7,0,1.2-0.5,1.2-1.1
	c0-0.3-0.1-0.6-0.3-1l-2.5-3.7c1.7-0.7,2.7-2.1,2.7-4.1c0-2.7-2.1-4.5-4.9-4.5h-4.8c-0.8,0-1.3,0.5-1.3,1.3V623
	C2277,623.9,2277.5,624.4,2278.2,624.4z M2279.5,616.7v-4.1h3.6c1.3,0,2.2,0.8,2.2,2.1c0,1.3-0.9,2.1-2.2,2.1h-3.6V616.7z
	 M2296.9,624.5c3.2,0,5.3-1.7,5.3-4.4c0-2.6-1.7-3.5-3.7-4l-2.5-0.5c-1.3-0.3-2.1-0.6-2.1-1.7s1-1.7,2.4-1.7c1.7,0,2.8,0.7,3.4,1.8
	c0.4,0.3,0.7,0.6,1.2,0.6c0.7,0,1.1-0.5,1.1-1.2c0-0.8-0.5-1.7-1.4-2.3c-1-0.6-2.3-1.2-4.1-1.2c-3.2,0-5.3,1.7-5.3,4.2
	c0,2.4,1.5,3.5,3.8,4l2.6,0.5c1.1,0.2,1.8,0.7,1.8,1.8c0,1.1-0.9,1.8-2.5,1.8c-2,0-3.1-0.7-4-2.1c-0.3-0.3-0.6-0.5-0.9-0.5
	c-0.7,0-1.2,0.6-1.2,1.2c0,0.8,0.6,1.8,1.4,2.4C2293.5,624,2294.9,624.5,2296.9,624.5z"/>
<path class="st0" d="M2247,565.8c15.7,0,28.5-12.8,28.5-28.5s-12.8-28.5-28.5-28.5s-28.5,12.8-28.5,28.5S2231.3,565.8,2247,565.8z"
	/>
<path class="st2" d="M2247,567.2c-16.5,0-30-13.5-30-30s13.5-30,30-30s30,13.5,30,30S2263.5,567.2,2247,567.2z M2247,510.3
	c-14.9,0-27,12.1-27,27c0,14.9,12.1,27,27,27s27-12.1,27-27C2274,522.4,2261.9,510.3,2247,510.3z"/>
<path class="st2" d="M2249.9,549.1c-0.6,0-1-0.4-1-1c0-4.3-3.5-7.8-7.8-7.8c-4.3,0-7.8,3.5-7.8,7.8c0,0.6-0.4,1-1,1
	c-0.6,0-1-0.4-1-1c0-5.4,4.4-9.8,9.8-9.8c5.4,0,9.8,4.4,9.8,9.8C2250.9,548.7,2250.5,549.1,2249.9,549.1z"/>
<path class="st2" d="M2242.9,530c-2.7,0-5.3-1.1-7.2-3c-0.4-0.4-0.4-1,0-1.4c0.4-0.4,1-0.4,1.4,0c2.3,2.4,5.9,3.1,8.9,1.8
	c0.5-0.2,1.1,0,1.3,0.5c0.2,0.5,0,1.1-0.5,1.3C2245.6,529.8,2244.3,530,2242.9,530z"/>
<path class="st2" d="M2241.1,535.4c-3.5,0-6.4-2.9-6.4-6.4c0-3.5,2.9-6.4,6.4-6.4s6.4,2.9,6.4,6.4
	C2247.5,532.6,2244.6,535.4,2241.1,535.4z M2241.1,524.6c-2.4,0-4.4,2-4.4,4.4c0,2.4,2,4.4,4.4,4.4c2.4,0,4.4-2,4.4-4.4
	C2245.5,526.6,2243.5,524.6,2241.1,524.6z"/>
<path class="st2" d="M2252.9,535.4c-1.2,0-2.4-0.3-3.5-1c-0.5-0.3-0.6-0.9-0.3-1.4c0.3-0.5,0.9-0.6,1.4-0.3c1.8,1.2,4.3,0.8,5.7-0.8
	c1.4-1.6,1.4-4.1,0-5.8c-1.4-1.7-3.9-2-5.7-0.8c-0.5,0.3-1.1,0.2-1.4-0.3c-0.3-0.5-0.2-1.1,0.3-1.4c2.7-1.7,6.2-1.2,8.3,1.2
	c2.1,2.4,2.1,6,0,8.4C2256.5,534.7,2254.7,535.4,2252.9,535.4z"/>
<path class="st2" d="M2261.7,549.1c-0.6,0-1-0.4-1-1c0-2.4-1.1-4.7-3-6.1c-1.9-1.5-4.3-2.1-6.6-1.5c-0.5,0.1-1.1-0.2-1.2-0.8
	c-0.1-0.5,0.2-1.1,0.8-1.2c2.9-0.7,6,0,8.3,1.9c2.4,1.9,3.7,4.7,3.7,7.7C2262.7,548.7,2262.3,549.1,2261.7,549.1z"/>
<path class="st2" d="M2254.7,530c-1.9,0-3.7-0.5-5.3-1.5c-0.5-0.3-0.6-0.9-0.3-1.4c0.3-0.5,0.9-0.6,1.4-0.3c2.2,1.4,5,1.6,7.4,0.6
	c0.5-0.2,1.1,0,1.3,0.5c0.2,0.5,0,1.1-0.5,1.3C2257.4,529.8,2256.1,530,2254.7,530z"/>
<path class="st2" d="M2857.5,328.8c0,0.8,0.7,1.5,1.5,1.5s1.5-0.7,1.5-1.5H2857.5z M2685.4-22.8c-0.6,0.6-0.6,1.5,0,2.1l9.6,9.5
	c0.6,0.6,1.5,0.6,2.1,0c0.6-0.6,0.6-1.5,0-2.1l-8.5-8.5l8.5-8.5c0.6-0.6,0.6-1.5,0-2.1c-0.6-0.6-1.5-0.6-2.1,0L2685.4-22.8z
	 M2749-20.2c59.9,0,108.4,48.6,108.4,108.5h3c0-61.6-49.9-111.5-111.4-111.5V-20.2z M2857.5,88.3v240.5h3V88.3H2857.5z M2749-23.2
	h-35.2h-27.2v3h62.5V-23.2z"/>
<path class="st2" d="M980,329.8c0,0.8-0.7,1.5-1.5,1.5c-0.8,0-1.5-0.7-1.5-1.5H980z M1088.4-19.2C1028.6-19.2,980,29.4,980,89.3h-3
	c0-61.6,49.9-111.5,111.4-111.5V-19.2z M980,89.3v240.5h-3V89.3H980z M1088.4-22.2l921.6-0.6v3l-921.6,0.6V-22.2z"/>
<path class="st3" d="M2745,219.8h227c10.2,0,18.5,8.3,18.5,18.5v119.9c0,10.2-8.3,18.5-18.5,18.5h-227c-10.2,0-18.5-8.3-18.5-18.5
	V238.3C2726.5,228.1,2734.8,219.8,2745,219.8z"/>
<path class="st2" d="M2972,378.2h-227c-11,0-20-9-20-20V238.3c0-11,9-20,20-20h227c11,0,20,9,20,20v119.9
	C2992,369.2,2983,378.2,2972,378.2z M2745,221.3c-9.4,0-17,7.6-17,17v119.9c0,9.4,7.6,17,17,17h227c9.4,0,17-7.6,17-17V238.3
	c0-9.4-7.6-17-17-17H2745z"/>
<path class="st2" d="M2799.5,305.2h7.6c0.7,0,1.3-0.5,1.3-1.2c0-0.7-0.5-1.2-1.3-1.2h-6.4v-3.4h5.7c0.7,0,1.2-0.5,1.2-1.2
	c0-0.7-0.5-1.2-1.2-1.2h-5.7v-3.3h6.3c0.7,0,1.3-0.5,1.3-1.2c0-0.7-0.5-1.2-1.3-1.2h-7.6c-0.8,0-1.3,0.5-1.3,1.3v11.5
	C2798.2,304.7,2798.8,305.2,2799.5,305.2z M2813.4,305.4c0.8,0,1.3-0.5,1.3-1.3v-8.8l6.2,8.9c0.6,0.8,1.1,1.1,1.7,1.1
	c0.9,0,1.5-0.6,1.5-1.6v-11.5c0-0.8-0.5-1.3-1.3-1.3c-0.7,0-1.3,0.5-1.3,1.3v9l-6.2-9c-0.7-0.9-1.1-1.2-1.7-1.2
	c-0.9,0-1.5,0.7-1.5,1.6v11.6C2812.2,304.9,2812.7,305.4,2813.4,305.4z M2829.6,305.2h4.5c4.1,0,6.8-2.9,6.8-7c0-4.1-2.7-7-6.8-7
	h-4.5c-0.8,0-1.3,0.5-1.3,1.3V304C2828.3,304.7,2828.9,305.2,2829.6,305.2z M2830.9,302.7v-9.1h3.3c2.5,0,4.2,1.9,4.2,4.6
	c0,2.7-1.7,4.6-4.2,4.6h-3.3V302.7z M2856.1,305.5c3.6,0,5.9-2.3,5.9-5.8v-7.5c0-0.8-0.5-1.3-1.3-1.3c-0.7,0-1.2,0.5-1.2,1.3v7.3
	c0,2.1-1.3,3.5-3.3,3.5s-3.3-1.4-3.3-3.5v-7.3c0-0.8-0.5-1.3-1.2-1.3c-0.8,0-1.3,0.5-1.3,1.3v7.5
	C2850.3,303.2,2852.6,305.5,2856.1,305.5z M2871.1,305.5c3.2,0,5.3-1.7,5.3-4.4c0-2.6-1.7-3.5-3.7-4l-2.5-0.5
	c-1.3-0.3-2.1-0.6-2.1-1.7c0-1.1,1-1.7,2.4-1.7c1.7,0,2.8,0.7,3.4,1.8c0.4,0.3,0.7,0.6,1.2,0.6c0.7,0,1.1-0.5,1.1-1.2
	c0-0.8-0.5-1.7-1.4-2.3c-1-0.6-2.3-1.2-4.1-1.2c-3.2,0-5.3,1.7-5.3,4.2c0,2.4,1.5,3.5,3.8,4l2.6,0.5c1.1,0.2,1.8,0.7,1.8,1.8
	c0,1.1-0.9,1.8-2.5,1.8c-2,0-3.1-0.7-4-2.1c-0.3-0.3-0.6-0.5-0.9-0.5c-0.7,0-1.2,0.6-1.2,1.2c0,0.8,0.6,1.8,1.4,2.4
	C2867.6,305,2869,305.5,2871.1,305.5z M2881.3,305.2h7.6c0.7,0,1.3-0.5,1.3-1.2c0-0.7-0.5-1.2-1.3-1.2h-6.4v-3.4h5.7
	c0.7,0,1.2-0.5,1.2-1.2c0-0.7-0.5-1.2-1.2-1.2h-5.7v-3.3h6.3c0.7,0,1.3-0.5,1.3-1.2c0-0.7-0.5-1.2-1.3-1.2h-7.6
	c-0.8,0-1.3,0.5-1.3,1.3v11.5C2880.1,304.7,2880.6,305.2,2881.3,305.2z M2895.2,305.4c0.8,0,1.3-0.5,1.3-1.3V300h3.1l3.2,4.8
	c0.2,0.3,0.6,0.6,1.1,0.6c0.7,0,1.2-0.5,1.2-1.1c0-0.3-0.1-0.6-0.3-1l-2.5-3.7c1.7-0.7,2.7-2.1,2.7-4.1c0-2.7-2.1-4.5-4.9-4.5h-4.8
	c-0.8,0-1.3,0.5-1.3,1.3V304C2894,304.9,2894.5,305.4,2895.2,305.4z M2896.5,297.7v-4.1h3.6c1.3,0,2.2,0.8,2.2,2.1
	c0,1.3-0.9,2.1-2.2,2.1h-3.6V297.7z M2913.9,305.5c3.2,0,5.3-1.7,5.3-4.4c0-2.6-1.7-3.5-3.7-4l-2.5-0.5c-1.3-0.3-2-0.6-2-1.7
	c0-1.1,1-1.7,2.4-1.7c1.7,0,2.8,0.7,3.4,1.8c0.4,0.3,0.7,0.6,1.2,0.6c0.7,0,1.1-0.5,1.1-1.2c0-0.8-0.5-1.7-1.4-2.3
	c-1-0.6-2.3-1.2-4.1-1.2c-3.2,0-5.3,1.7-5.3,4.2c0,2.4,1.5,3.5,3.8,4l2.6,0.5c1.1,0.2,1.8,0.7,1.8,1.8c0,1.1-0.9,1.8-2.5,1.8
	c-2,0-3.1-0.7-4-2.1c-0.3-0.3-0.6-0.5-0.9-0.5c-0.7,0-1.2,0.6-1.2,1.2c0,0.8,0.6,1.8,1.4,2.4C2910.5,305,2911.9,305.5,2913.9,305.5z
	"/>
<path class="st0" d="M2859,246.8c15.7,0,28.5-12.8,28.5-28.5c0-15.7-12.8-28.5-28.5-28.5s-28.5,12.8-28.5,28.5
	C2830.5,234,2843.3,246.8,2859,246.8z"/>
<path class="st2" d="M2859,248.2c-16.5,0-30-13.5-30-30c0-16.5,13.5-30,30-30s30,13.5,30,30C2889,234.8,2875.5,248.2,2859,248.2z
	 M2859,191.3c-14.9,0-27,12.1-27,27c0,14.9,12.1,27,27,27s27-12.1,27-27C2886,203.4,2873.9,191.3,2859,191.3z"/>
<path class="st2" d="M2861.9,230.1c-0.6,0-1-0.4-1-1c0-4.3-3.5-7.8-7.8-7.8c-4.3,0-7.8,3.5-7.8,7.8c0,0.6-0.4,1-1,1
	c-0.6,0-1-0.4-1-1c0-5.4,4.4-9.8,9.8-9.8c5.4,0,9.8,4.4,9.8,9.8C2862.9,229.7,2862.5,230.1,2861.9,230.1z"/>
<path class="st2" d="M2854.9,211c-2.7,0-5.3-1.1-7.2-3c-0.4-0.4-0.4-1,0-1.4c0.4-0.4,1-0.4,1.4,0c2.3,2.4,5.9,3.1,8.9,1.8
	c0.5-0.2,1.1,0,1.3,0.5c0.2,0.5,0,1.1-0.5,1.3C2857.6,210.8,2856.3,211,2854.9,211z"/>
<path class="st2" d="M2853.1,216.4c-3.5,0-6.4-2.9-6.4-6.4c0-3.5,2.9-6.4,6.4-6.4s6.4,2.9,6.4,6.4
	C2859.5,213.6,2856.6,216.4,2853.1,216.4z M2853.1,205.6c-2.4,0-4.4,2-4.4,4.4c0,2.4,2,4.4,4.4,4.4c2.4,0,4.4-2,4.4-4.4
	C2857.5,207.6,2855.5,205.6,2853.1,205.6z"/>
<path class="st2" d="M2864.9,216.4c-1.2,0-2.4-0.3-3.5-1c-0.5-0.3-0.6-0.9-0.3-1.4c0.3-0.5,0.9-0.6,1.4-0.3c1.8,1.2,4.3,0.8,5.7-0.8
	c1.4-1.6,1.4-4.1,0-5.8c-1.4-1.6-3.9-2-5.7-0.8c-0.5,0.3-1.1,0.2-1.4-0.3c-0.3-0.5-0.2-1.1,0.3-1.4c2.7-1.7,6.2-1.2,8.3,1.2
	c2.1,2.4,2.1,6,0,8.4C2868.5,215.7,2866.7,216.4,2864.9,216.4z"/>
<path class="st2" d="M2873.7,230.1c-0.6,0-1-0.4-1-1c0-2.4-1.1-4.7-3-6.1c-1.9-1.5-4.3-2.1-6.6-1.5c-0.5,0.1-1.1-0.2-1.2-0.8
	c-0.1-0.5,0.2-1.1,0.8-1.2c2.9-0.7,6,0,8.3,1.9c2.3,1.9,3.7,4.7,3.7,7.7C2874.7,229.7,2874.3,230.1,2873.7,230.1z"/>
<path class="st2" d="M2866.7,211c-1.9,0-3.7-0.5-5.3-1.5c-0.5-0.3-0.6-0.9-0.3-1.4c0.3-0.5,0.9-0.6,1.4-0.3c2.2,1.4,5,1.6,7.4,0.6
	c0.5-0.2,1.1,0,1.3,0.5s0,1.1-0.5,1.3C2869.4,210.8,2868.1,211,2866.7,211z"/>
<path class="st0" d="M1226,217.8h107c43.4,0,78.5,35.1,78.5,78.5c0,43.4-35.1,78.5-78.5,78.5h-107c-43.4,0-78.5-35.1-78.5-78.5
	C1147.5,252.9,1182.6,217.8,1226,217.8z"/>
<path class="st2" d="M1333,376.2h-107c-44.1,0-80-35.9-80-80c0-44.1,35.9-80,80-80h107c44.1,0,80,35.9,80,80
	C1413,340.3,1377.1,376.2,1333,376.2z M1226,219.3c-42.5,0-77,34.5-77,77s34.5,77,77,77h107c42.5,0,77-34.5,77-77s-34.5-77-77-77
	H1226z"/>
<path class="st2" d="M1233.5,290.5c0.8,0,1.3-0.5,1.3-1.3v-4h3.1l3.2,4.8c0.2,0.4,0.6,0.6,1.1,0.6c0.7,0,1.2-0.5,1.2-1.1
	c0-0.3-0.1-0.6-0.3-1l-2.5-3.7c1.6-0.7,2.7-2.1,2.7-4.1c0-2.7-2.1-4.5-4.9-4.5h-4.8c-0.8,0-1.3,0.5-1.3,1.3v11.7
	C1232.2,290,1232.7,290.5,1233.5,290.5z M1234.8,282.8v-4.1h3.6c1.3,0,2.2,0.8,2.2,2.1c0,1.3-0.9,2.1-2.2,2.1L1234.8,282.8
	L1234.8,282.8z M1248.4,290.3h7.6c0.7,0,1.3-0.5,1.3-1.2c0-0.7-0.5-1.2-1.3-1.2h-6.4v-3.4h5.7c0.7,0,1.2-0.5,1.2-1.2
	c0-0.7-0.5-1.2-1.2-1.2h-5.7v-3.3h6.3c0.7,0,1.3-0.5,1.3-1.2c0-0.7-0.5-1.2-1.3-1.2h-7.6c-0.8,0-1.3,0.5-1.3,1.3v11.5
	C1247.1,289.8,1247.6,290.3,1248.4,290.3z M1272.8,291.3c0.6,0,1.2-0.5,1.2-1.2c0-0.3-0.1-0.6-0.4-0.9l-0.7-0.8
	c1.2-1.3,1.8-3,1.8-5.1c0-4.3-3-7.3-7.2-7.3s-7.2,3-7.2,7.3c0,4.3,3,7.3,7.2,7.3c1.3,0,2.5-0.3,3.5-0.8l0.8,1
	C1272,291.1,1272.4,291.3,1272.8,291.3z M1262.8,283.3c0-2.8,1.9-4.8,4.6-4.8c2.7,0,4.6,1.9,4.6,4.8c0,1.2-0.4,2.3-1,3.1l-1.7-2
	c-0.3-0.4-0.7-0.5-1.1-0.5c-0.6,0-1.2,0.6-1.2,1.2c0,0.3,0.1,0.6,0.4,0.9l1.6,1.9c-0.5,0.2-1.1,0.3-1.7,0.3
	C1264.7,288.1,1262.8,286.1,1262.8,283.3z M1283.7,290.6c3.6,0,5.9-2.3,5.9-5.8v-7.5c0-0.8-0.5-1.3-1.3-1.3c-0.7,0-1.2,0.5-1.2,1.3
	v7.3c0,2.1-1.3,3.5-3.3,3.5s-3.3-1.4-3.3-3.5v-7.3c0-0.8-0.5-1.3-1.2-1.3c-0.8,0-1.3,0.5-1.3,1.3v7.5
	C1277.8,288.3,1280.1,290.6,1283.7,290.6z M1294.8,290.3h7.6c0.7,0,1.3-0.5,1.3-1.2c0-0.7-0.5-1.2-1.3-1.2h-6.4v-3.4h5.7
	c0.7,0,1.2-0.5,1.2-1.2c0-0.7-0.5-1.2-1.2-1.2h-5.7v-3.3h6.3c0.7,0,1.3-0.5,1.3-1.2c0-0.7-0.5-1.2-1.3-1.2h-7.6
	c-0.8,0-1.3,0.5-1.3,1.3v11.5C1293.5,289.8,1294,290.3,1294.8,290.3z M1312.6,290.6c3.2,0,5.3-1.7,5.3-4.4c0-2.6-1.7-3.5-3.7-4
	l-2.5-0.6c-1.3-0.3-2.1-0.6-2.1-1.7c0-1.1,1-1.6,2.4-1.6c1.7,0,2.8,0.7,3.4,1.8c0.4,0.4,0.7,0.6,1.2,0.6c0.7,0,1.1-0.5,1.1-1.2
	c0-0.8-0.5-1.7-1.4-2.3c-1-0.6-2.3-1.2-4.1-1.2c-3.2,0-5.3,1.7-5.3,4.2c0,2.4,1.5,3.5,3.8,4l2.6,0.5c1.1,0.2,1.8,0.7,1.8,1.8
	s-0.9,1.8-2.5,1.8c-2,0-3.1-0.7-4-2.1c-0.3-0.3-0.6-0.5-0.9-0.5c-0.7,0-1.2,0.5-1.2,1.2c0,0.8,0.6,1.8,1.4,2.4
	C1309.2,290.1,1310.6,290.6,1312.6,290.6z M1326,290.5c0.8,0,1.3-0.5,1.3-1.3v-10.5h3.5c0.7,0,1.3-0.5,1.3-1.2
	c0-0.7-0.5-1.2-1.3-1.2h-9.5c-0.7,0-1.3,0.5-1.3,1.2c0,0.7,0.5,1.2,1.3,1.2h3.5v10.5C1324.8,290,1325.3,290.5,1326,290.5z
	 M1217.3,319.5c2.3,0,4.2-0.8,5.4-2.3c0.5-0.6,0.8-1.4,0.8-1.9c0-0.7-0.5-1.2-1.2-1.2c-0.4,0-0.8,0.2-1.2,0.7
	c-0.8,1.4-2.1,2.2-3.9,2.2c-2.6,0-4.5-2-4.5-4.8c0-2.8,1.8-4.8,4.5-4.8c1.8,0,3.1,0.7,3.9,2.1c0.4,0.5,0.8,0.7,1.2,0.7
	c0.7,0,1.2-0.6,1.2-1.2c0-0.6-0.4-1.4-0.9-2c-1.3-1.5-3.1-2.2-5.4-2.2c-4.2,0-7.1,3-7.1,7.3C1210.2,316.5,1213.1,319.5,1217.3,319.5
	z M1228.2,319.2h7.6c0.7,0,1.3-0.5,1.3-1.2c0-0.7-0.5-1.2-1.3-1.2h-6.4v-3.4h5.7c0.7,0,1.2-0.5,1.2-1.2c0-0.7-0.5-1.2-1.2-1.2h-5.7
	v-3.3h6.3c0.7,0,1.3-0.5,1.3-1.2c0-0.7-0.5-1.2-1.3-1.2h-7.6c-0.8,0-1.3,0.5-1.3,1.3v11.5C1227,318.7,1227.5,319.2,1228.2,319.2z
	 M1242.1,319.4c0.8,0,1.3-0.5,1.3-1.3v-4h3.1l3.2,4.8c0.2,0.4,0.6,0.6,1.1,0.6c0.7,0,1.2-0.5,1.2-1.1c0-0.3-0.1-0.6-0.3-1l-2.5-3.7
	c1.7-0.7,2.7-2.1,2.7-4.1c0-2.7-2.1-4.5-4.9-4.5h-4.8c-0.8,0-1.3,0.5-1.3,1.3v11.7C1240.9,318.9,1241.4,319.4,1242.1,319.4z
	 M1243.4,311.7v-4.1h3.6c1.3,0,2.2,0.8,2.2,2.1c0,1.3-0.9,2.1-2.2,2.1L1243.4,311.7L1243.4,311.7z M1259.9,319.4
	c0.8,0,1.3-0.5,1.3-1.3v-10.5h3.5c0.7,0,1.3-0.5,1.3-1.2c0-0.7-0.5-1.2-1.3-1.2h-9.5c-0.7,0-1.3,0.5-1.3,1.2c0,0.7,0.5,1.2,1.3,1.2
	h3.5v10.5C1258.6,318.9,1259.1,319.4,1259.9,319.4z M1270,319.4c0.8,0,1.3-0.5,1.3-1.3v-11.9c0-0.8-0.5-1.3-1.3-1.3
	s-1.3,0.5-1.3,1.3v11.9C1268.8,318.9,1269.3,319.4,1270,319.4z M1276.8,319.4c0.8,0,1.3-0.5,1.3-1.3v-4.5h5.6c0.7,0,1.3-0.5,1.3-1.2
	c0-0.7-0.5-1.2-1.3-1.2h-5.6v-3.5h6.4c0.7,0,1.3-0.5,1.3-1.2c0-0.7-0.5-1.2-1.3-1.2h-7.6c-0.8,0-1.3,0.5-1.3,1.3v11.7
	C1275.5,318.9,1276,319.4,1276.8,319.4z M1289.8,319.4c0.8,0,1.3-0.5,1.3-1.3v-11.9c0-0.8-0.5-1.3-1.3-1.3c-0.8,0-1.3,0.5-1.3,1.3
	v11.9C1288.6,318.9,1289.1,319.4,1289.8,319.4z M1301.7,319.5c2.3,0,4.2-0.8,5.4-2.3c0.5-0.6,0.8-1.4,0.8-1.9c0-0.7-0.5-1.2-1.2-1.2
	c-0.4,0-0.8,0.2-1.2,0.7c-0.8,1.4-2.1,2.2-3.9,2.2c-2.6,0-4.5-2-4.5-4.8c0-2.8,1.8-4.8,4.5-4.8c1.8,0,3.1,0.7,3.9,2.1
	c0.4,0.5,0.8,0.7,1.2,0.7c0.7,0,1.2-0.6,1.2-1.2c0-0.6-0.4-1.4-0.9-2c-1.3-1.5-3.1-2.2-5.4-2.2c-4.2,0-7.1,3-7.1,7.3
	C1294.6,316.5,1297.5,319.5,1301.7,319.5z M1310.9,319.5c0.6,0,1-0.3,1.2-0.8l1.1-2.7h6.8l1.1,2.7c0.2,0.5,0.6,0.8,1.2,0.8
	c0.6,0,1.2-0.5,1.2-1.2c0-0.2,0-0.5-0.2-0.8l-4.3-10.6c-0.5-1.3-1.2-2-2.4-2c-1.2,0-1.9,0.6-2.4,2l-4.3,10.6
	c-0.1,0.3-0.2,0.6-0.2,0.8C1309.7,318.9,1310.3,319.5,1310.9,319.5z M1314.2,313.5l2.5-6.3l2.5,6.3H1314.2z M1329.5,319.4
	c0.8,0,1.3-0.5,1.3-1.3v-10.5h3.5c0.7,0,1.3-0.5,1.3-1.2c0-0.7-0.5-1.2-1.3-1.2h-9.5c-0.7,0-1.3,0.5-1.3,1.2c0,0.7,0.5,1.2,1.3,1.2
	h3.5v10.5C1328.2,318.9,1328.8,319.4,1329.5,319.4z M1339.7,319.2h7.6c0.7,0,1.3-0.5,1.3-1.2c0-0.7-0.5-1.2-1.3-1.2h-6.4v-3.4h5.7
	c0.7,0,1.2-0.5,1.2-1.2c0-0.7-0.5-1.2-1.2-1.2h-5.7v-3.3h6.3c0.7,0,1.3-0.5,1.3-1.2c0-0.7-0.5-1.2-1.3-1.2h-7.6
	c-0.8,0-1.3,0.5-1.3,1.3v11.5C1338.4,318.7,1338.9,319.2,1339.7,319.2z"/>
<path class="st2" d="M1453.7,297.3c0.7-0.7,0.7-1.6,0-2.3l-10.3-10.3c-0.7-0.7-1.6-0.7-2.3,0c-0.7,0.7-0.7,1.6,0,2.3l9.2,9.2
	l-9.2,9.2c-0.7,0.7-0.7,1.6,0,2.3c0.7,0.7,1.6,0.7,2.3,0L1453.7,297.3z M1412.4,297.8h40.1v-3.3h-40.1V297.8z"/>
<path class="st1" d="M1473.8,217.8h227c10.2,0,18.5,8.3,18.5,18.5v119.9c0,10.2-8.3,18.5-18.5,18.5h-227c-10.2,0-18.5-8.3-18.5-18.5
	V236.3C1455.3,226.1,1463.6,217.8,1473.8,217.8z"/>
<path class="st2" d="M1700.8,376.2h-227c-11,0-20-9-20-20V236.3c0-11,9-20,20-20h227c11,0,20,9,20,20v119.9
	C1720.8,367.2,1711.8,376.2,1700.8,376.2z M1473.8,219.3c-9.4,0-17,7.6-17,17v119.9c0,9.4,7.6,17,17,17h227c9.4,0,17-7.6,17-17
	V236.3c0-9.4-7.6-17-17-17H1473.8z"/>
<path class="st2" d="M1552.2,273.6c2.3,0,4.2-0.8,5.4-2.3c0.5-0.6,0.8-1.4,0.8-1.9c0-0.7-0.5-1.2-1.2-1.2c-0.4,0-0.8,0.2-1.2,0.7
	c-0.8,1.4-2.1,2.2-3.9,2.2c-2.6,0-4.5-2-4.5-4.8c0-2.8,1.8-4.8,4.5-4.8c1.8,0,3.1,0.7,3.9,2.1c0.4,0.5,0.8,0.7,1.2,0.7
	c0.7,0,1.2-0.6,1.2-1.2s-0.4-1.4-0.9-2c-1.3-1.5-3.1-2.2-5.4-2.2c-4.2,0-7.1,3-7.1,7.3C1545.1,270.6,1548,273.6,1552.2,273.6z
	 M1568.3,273.6c4.2,0,7.2-3,7.2-7.3c0-4.3-3-7.3-7.2-7.3c-4.2,0-7.2,3-7.2,7.3C1561.1,270.6,1564.1,273.6,1568.3,273.6z
	 M1563.7,266.3c0-2.8,1.9-4.8,4.6-4.8c2.7,0,4.6,1.9,4.6,4.8c0,2.8-1.9,4.8-4.6,4.8C1565.6,271.1,1563.7,269.1,1563.7,266.3z
	 M1585.4,273.6c3.2,0,5.3-1.7,5.3-4.4c0-2.6-1.7-3.5-3.7-4l-2.5-0.6c-1.3-0.3-2.1-0.6-2.1-1.7c0-1.1,1-1.7,2.4-1.7
	c1.7,0,2.8,0.7,3.4,1.8c0.4,0.4,0.7,0.6,1.2,0.6c0.7,0,1.1-0.5,1.1-1.2c0-0.8-0.5-1.7-1.4-2.3c-1-0.6-2.3-1.2-4.1-1.2
	c-3.2,0-5.3,1.6-5.3,4.2c0,2.4,1.5,3.5,3.8,4l2.6,0.5c1.1,0.2,1.8,0.7,1.8,1.8c0,1.1-0.9,1.8-2.5,1.8c-2,0-3.1-0.7-4-2.1
	c-0.3-0.3-0.6-0.5-0.9-0.5c-0.7,0-1.2,0.5-1.2,1.2c0,0.8,0.6,1.8,1.4,2.4C1581.9,273.1,1583.3,273.6,1585.4,273.6z M1595.7,273.5
	c0.8,0,1.3-0.5,1.3-1.3v-11.9c0-0.8-0.5-1.3-1.3-1.3s-1.3,0.5-1.3,1.3v11.9C1594.4,273,1594.9,273.5,1595.7,273.5z M1607.7,273.6
	c3.9,0,6.6-2.4,6.6-6.8c0-1-0.6-1.4-1.3-1.4h-5.4c-0.7,0-1.2,0.4-1.2,1.2c0,0.7,0.6,1.2,1.2,1.2h4.2c-0.1,2.1-1.6,3.3-3.9,3.3
	c-2.9,0-4.7-2-4.7-4.8c0-2.8,1.9-4.9,4.7-4.9c1.8,0,3.1,0.8,3.8,1.8c0.4,0.4,0.8,0.5,1.2,0.5c0.6,0,1.1-0.4,1.1-1.1
	c0-0.8-0.7-1.7-1.5-2.3c-1.1-0.8-2.6-1.3-4.6-1.3c-4.3,0-7.3,3-7.3,7.4C1600.5,270.6,1603.4,273.6,1607.7,273.6z M1619.1,273.5
	c0.8,0,1.3-0.5,1.3-1.3v-8.8l6.2,8.9c0.6,0.8,1.1,1.1,1.7,1.1c0.9,0,1.5-0.7,1.5-1.6v-11.5c0-0.8-0.5-1.3-1.3-1.3
	c-0.7,0-1.3,0.5-1.3,1.3v9l-6.2-9c-0.7-0.9-1.1-1.2-1.7-1.2c-0.9,0-1.5,0.6-1.5,1.6v11.6C1617.8,273,1618.3,273.5,1619.1,273.5z
	 M1525.1,303.5c2.3,0,4.2-0.8,5.4-2.3c0.5-0.6,0.8-1.4,0.8-1.9c0-0.7-0.5-1.2-1.2-1.2c-0.4,0-0.8,0.2-1.2,0.7
	c-0.8,1.4-2.1,2.2-3.9,2.2c-2.6,0-4.5-2-4.5-4.8c0-2.8,1.8-4.8,4.5-4.8c1.8,0,3.1,0.7,3.9,2.1c0.4,0.5,0.8,0.7,1.2,0.7
	c0.7,0,1.2-0.6,1.2-1.2s-0.4-1.4-0.9-2c-1.3-1.5-3.1-2.2-5.4-2.2c-4.2,0-7.1,3-7.1,7.3C1518,300.5,1520.9,303.5,1525.1,303.5z
	 M1536,303.2h7.6c0.7,0,1.3-0.5,1.3-1.2c0-0.7-0.5-1.2-1.3-1.2h-6.4v-3.4h5.7c0.7,0,1.2-0.5,1.2-1.2c0-0.7-0.5-1.2-1.2-1.2h-5.7
	v-3.3h6.3c0.7,0,1.3-0.5,1.3-1.2c0-0.7-0.5-1.2-1.3-1.2h-7.6c-0.8,0-1.3,0.5-1.3,1.3v11.5C1534.8,302.7,1535.3,303.2,1536,303.2z
	 M1549.9,303.4c0.8,0,1.3-0.5,1.3-1.3v-4h3.1l3.2,4.8c0.2,0.4,0.6,0.6,1.1,0.6c0.7,0,1.2-0.5,1.2-1.1c0-0.3-0.1-0.6-0.3-1l-2.5-3.7
	c1.7-0.7,2.7-2.1,2.7-4.1c0-2.7-2.1-4.5-4.9-4.5h-4.8c-0.8,0-1.3,0.5-1.3,1.3v11.7C1548.7,302.9,1549.2,303.4,1549.9,303.4z
	 M1551.2,295.7v-4.1h3.6c1.3,0,2.2,0.8,2.2,2.1c0,1.3-0.9,2.1-2.2,2.1h-3.6V295.7z M1567.7,303.4c0.8,0,1.3-0.5,1.3-1.3v-10.5h3.5
	c0.7,0,1.3-0.5,1.3-1.2c0-0.7-0.5-1.2-1.3-1.2h-9.5c-0.7,0-1.3,0.5-1.3,1.2c0,0.7,0.5,1.2,1.3,1.2h3.5v10.5
	C1566.4,302.9,1566.9,303.4,1567.7,303.4z M1577.8,303.4c0.8,0,1.3-0.5,1.3-1.3v-11.9c0-0.8-0.5-1.3-1.3-1.3c-0.8,0-1.3,0.5-1.3,1.3
	v11.9C1576.6,302.9,1577.1,303.4,1577.8,303.4z M1584.6,303.4c0.8,0,1.3-0.5,1.3-1.3v-4.5h5.6c0.7,0,1.3-0.5,1.3-1.2
	c0-0.7-0.5-1.2-1.3-1.2h-5.6v-3.5h6.4c0.7,0,1.3-0.5,1.3-1.2c0-0.7-0.5-1.2-1.3-1.2h-7.6c-0.8,0-1.3,0.5-1.3,1.3v11.7
	C1583.3,302.9,1583.8,303.4,1584.6,303.4z M1597.6,303.4c0.8,0,1.3-0.5,1.3-1.3v-11.9c0-0.8-0.5-1.3-1.3-1.3s-1.3,0.5-1.3,1.3v11.9
	C1596.4,302.9,1596.9,303.4,1597.6,303.4z M1609.5,303.5c2.3,0,4.2-0.8,5.4-2.3c0.5-0.6,0.8-1.4,0.8-1.9c0-0.7-0.5-1.2-1.2-1.2
	c-0.4,0-0.8,0.2-1.2,0.7c-0.8,1.4-2.1,2.2-3.9,2.2c-2.6,0-4.5-2-4.5-4.8c0-2.8,1.8-4.8,4.5-4.8c1.8,0,3.1,0.7,3.9,2.1
	c0.4,0.5,0.8,0.7,1.2,0.7c0.7,0,1.2-0.6,1.2-1.2s-0.4-1.4-0.9-2c-1.3-1.5-3.1-2.2-5.4-2.2c-4.2,0-7.1,3-7.1,7.3
	C1602.4,300.5,1605.3,303.5,1609.5,303.5z M1618.7,303.5c0.6,0,1-0.3,1.2-0.8l1.1-2.7h6.8l1.1,2.7c0.2,0.5,0.6,0.8,1.2,0.8
	s1.2-0.5,1.2-1.2c0-0.2,0-0.5-0.2-0.8l-4.3-10.6c-0.5-1.3-1.2-2-2.4-2c-1.2,0-1.9,0.6-2.4,2l-4.3,10.6c-0.1,0.3-0.2,0.6-0.2,0.8
	C1617.5,302.9,1618.1,303.5,1618.7,303.5z M1622,297.5l2.5-6.3l2.5,6.3H1622z M1637.3,303.4c0.8,0,1.3-0.5,1.3-1.3v-10.5h3.5
	c0.7,0,1.3-0.5,1.3-1.2c0-0.7-0.5-1.2-1.3-1.2h-9.5c-0.7,0-1.3,0.5-1.3,1.2c0,0.7,0.5,1.2,1.3,1.2h3.5v10.5
	C1636,302.9,1636.6,303.4,1637.3,303.4z M1647.5,303.2h7.6c0.7,0,1.3-0.5,1.3-1.2c0-0.7-0.5-1.2-1.3-1.2h-6.4v-3.4h5.7
	c0.7,0,1.2-0.5,1.2-1.2c0-0.7-0.5-1.2-1.2-1.2h-5.7v-3.3h6.3c0.7,0,1.3-0.5,1.3-1.2c0-0.7-0.5-1.2-1.3-1.2h-7.6
	c-0.8,0-1.3,0.5-1.3,1.3v11.5C1646.2,302.7,1646.7,303.2,1647.5,303.2z M1525.9,333.5c0.6,0,1-0.3,1.2-0.8l1.1-2.7h6.8l1.1,2.7
	c0.2,0.5,0.6,0.8,1.2,0.8c0.6,0,1.2-0.5,1.2-1.2c0-0.2,0-0.5-0.2-0.8l-4.3-10.6c-0.5-1.3-1.2-2-2.4-2s-1.9,0.6-2.4,2l-4.3,10.6
	c-0.1,0.3-0.2,0.6-0.2,0.8C1524.7,332.9,1525.3,333.5,1525.9,333.5z M1529.2,327.5l2.5-6.3l2.5,6.3H1529.2z M1546.5,333.5
	c3.6,0,5.8-2.3,5.8-5.8v-7.5c0-0.8-0.5-1.3-1.3-1.3c-0.7,0-1.2,0.5-1.2,1.3v7.3c0,2.1-1.3,3.5-3.3,3.5s-3.3-1.4-3.3-3.5v-7.3
	c0-0.8-0.5-1.3-1.2-1.3s-1.3,0.5-1.3,1.3v7.5C1540.7,331.2,1543,333.5,1546.5,333.5z M1561,333.4c0.8,0,1.3-0.5,1.3-1.3v-10.5h3.5
	c0.7,0,1.3-0.5,1.3-1.2c0-0.7-0.5-1.2-1.3-1.2h-9.5c-0.7,0-1.3,0.5-1.3,1.2c0,0.7,0.5,1.2,1.3,1.2h3.5v10.5
	C1559.8,332.9,1560.3,333.4,1561,333.4z M1580.5,333.4c0.8,0,1.3-0.5,1.3-1.3v-11.9c0-0.8-0.5-1.3-1.3-1.3s-1.3,0.5-1.3,1.3v4.7
	h-6.8v-4.7c0-0.8-0.5-1.3-1.3-1.3s-1.3,0.5-1.3,1.3v11.9c0,0.8,0.5,1.3,1.3,1.3s1.3-0.5,1.3-1.3v-4.8h6.8v4.8
	C1579.3,332.9,1579.8,333.4,1580.5,333.4z M1592.6,333.5c4.2,0,7.2-3,7.2-7.3c0-4.3-3-7.3-7.2-7.3s-7.2,3-7.2,7.3
	C1585.3,330.5,1588.3,333.5,1592.6,333.5z M1587.9,326.2c0-2.8,1.9-4.8,4.6-4.8s4.6,1.9,4.6,4.8c0,2.8-1.9,4.8-4.6,4.8
	C1589.9,331,1587.9,329,1587.9,326.2z M1604.6,333.4c0.8,0,1.3-0.5,1.3-1.3v-4h3.1l3.2,4.8c0.2,0.4,0.6,0.6,1.1,0.6
	c0.7,0,1.2-0.5,1.2-1.1c0-0.3-0.1-0.6-0.3-1l-2.5-3.7c1.6-0.7,2.7-2.1,2.7-4.1c0-2.7-2.1-4.5-4.9-4.5h-4.8c-0.8,0-1.3,0.5-1.3,1.3
	v11.7C1603.3,332.9,1603.8,333.4,1604.6,333.4z M1605.9,325.7v-4.1h3.6c1.3,0,2.2,0.8,2.2,2.1c0,1.3-0.9,2.1-2.2,2.1L1605.9,325.7
	L1605.9,325.7z M1619.5,333.4c0.8,0,1.3-0.5,1.3-1.3v-11.9c0-0.8-0.5-1.3-1.3-1.3s-1.3,0.5-1.3,1.3v11.9
	C1618.2,332.9,1618.7,333.4,1619.5,333.4z M1629.6,333.4c0.8,0,1.3-0.5,1.3-1.3v-10.5h3.5c0.7,0,1.3-0.5,1.3-1.2
	c0-0.7-0.5-1.2-1.3-1.2h-9.5c-0.7,0-1.3,0.5-1.3,1.2c0,0.7,0.5,1.2,1.3,1.2h3.5v10.5C1628.4,332.9,1628.9,333.4,1629.6,333.4z
	 M1637.5,320.7l4.6,6.6v4.8c0,0.8,0.5,1.3,1.3,1.3c0.8,0,1.3-0.5,1.3-1.3v-4.8l4.6-6.6c0.1-0.2,0.2-0.4,0.2-0.7
	c0-0.6-0.5-1.1-1.2-1.1c-0.6,0-0.9,0.4-1.2,0.8l-3.6,5.3l-3.7-5.3c-0.3-0.5-0.6-0.8-1.2-0.8c-0.7,0-1.2,0.5-1.2,1.1
	C1637.3,320.3,1637.4,320.5,1637.5,320.7z"/>
<path class="st2" d="M1759,297.3c0.7-0.7,0.7-1.6,0-2.3l-10.3-10.3c-0.7-0.7-1.6-0.7-2.3,0c-0.7,0.7-0.7,1.6,0,2.3l9.2,9.2l-9.2,9.2
	c-0.7,0.7-0.7,1.6,0,2.3c0.7,0.7,1.6,0.7,2.3,0L1759,297.3z M1718.8,297.8h39.1v-3.3h-39.1V297.8z"/>
<path class="st2" d="M2378,298.2c-0.6,0.7-0.6,1.6,0,2.3l10.3,10.3c0.6,0.7,1.6,0.7,2.3,0c0.7-0.7,0.7-1.6,0-2.3l-9.2-9.2l9.2-9.2
	c0.7-0.7,0.7-1.6,0-2.3c-0.6-0.7-1.6-0.7-2.3,0L2378,298.2z M2419.3,297.8h-40.1v3.3h40.1V297.8z"/>
<path class="st2" d="M2377.7,616.2c-0.6,0.7-0.6,1.6,0,2.3l10.3,10.3c0.6,0.7,1.6,0.7,2.3,0c0.7-0.7,0.7-1.6,0-2.3l-9.2-9.2l9.2-9.2
	c0.7-0.7,0.7-1.6,0-2.3c-0.6-0.7-1.6-0.7-2.3,0L2377.7,616.2z M2422,615.8h-43.1v3.3h43.1V615.8z"/>
<path class="st2" d="M2686.4,298.2c-0.7,0.7-0.7,1.6,0,2.3l10.3,10.3c0.6,0.7,1.6,0.7,2.3,0c0.6-0.7,0.6-1.6,0-2.3l-9.2-9.2l9.2-9.2
	c0.6-0.7,0.6-1.6,0-2.3c-0.6-0.7-1.6-0.7-2.3,0L2686.4,298.2z M2726.6,297.8h-39.1v3.3h39.1V297.8z"/>
<path class="st2" d="M2377.7-20.3c-0.6,0.7-0.6,1.6,0,2.3L2388-7.7c0.6,0.7,1.6,0.7,2.3,0c0.7-0.7,0.7-1.6,0-2.3l-9.2-9.2l9.2-9.2
	c0.7-0.7,0.7-1.6,0-2.3c-0.6-0.7-1.6-0.7-2.3,0L2377.7-20.3z M2420-20.8h-41.1v3.3h41.1V-20.8z"/>
<path class="st2" d="M2110.8-17.6c0.6-0.7,0.6-1.6,0-2.3l-10.3-10.3c-0.6-0.7-1.6-0.7-2.3,0c-0.6,0.7-0.6,1.6,0,2.3l9.2,9.2
	l-9.2,9.2c-0.6,0.7-0.6,1.6,0,2.3c0.6,0.7,1.6,0.7,2.3,0L2110.8-17.6z M2023-17.2h86.6v-3.3H2023V-17.2z"/>
<path class="st2" d="M2687.5,616.2c-0.7,0.7-0.7,1.6,0,2.3l10.3,10.3c0.6,0.7,1.6,0.7,2.3,0c0.6-0.7,0.6-1.6,0-2.3l-9.2-9.2l9.2-9.2
	c0.6-0.7,0.6-1.6,0-2.3c-0.6-0.7-1.6-0.7-2.3,0L2687.5,616.2z M2727.8,615.8h-39.1v3.3h39.1V615.8z"/>
<path class="st2" d="M2111.3,299.3c0.6-0.7,0.6-1.6,0-2.3l-10.3-10.3c-0.6-0.7-1.6-0.7-2.3,0c-0.6,0.7-0.6,1.6,0,2.3l9.2,9.2
	l-9.2,9.2c-0.6,0.7-0.6,1.6,0,2.3c0.6,0.7,1.6,0.7,2.3,0L2111.3,299.3z M2025,299.7h85.1v-3.3H2025V299.7z"/>
<path class="st2" d="M2249.1,378.8c-0.7-0.7-1.6-0.7-2.3,0l-10.3,10.3c-0.7,0.7-0.7,1.6,0,2.3c0.7,0.7,1.6,0.7,2.3,0l9.2-9.2
	l9.2,9.2c0.6,0.7,1.6,0.7,2.3,0c0.7-0.7,0.7-1.6,0-2.3L2249.1,378.8z M2249.5,507.3V380h-3.3v127.3H2249.5z"/>
<path class="st2" d="M2853.9,537.6c0.7,0.7,1.6,0.7,2.3,0l10.3-10.3c0.6-0.7,0.6-1.6,0-2.3s-1.6-0.7-2.3,0l-9.2,9.2l-9.2-9.2
	c-0.6-0.7-1.6-0.7-2.3,0s-0.7,1.6,0,2.3L2853.9,537.6z M2853.5,377.3v159.1h3.3V377.3H2853.5z"/>
<path class="st3" d="M864,219.8h227c10.2,0,18.5,8.3,18.5,18.5v119.9c0,10.2-8.3,18.5-18.5,18.5H864c-10.2,0-18.5-8.3-18.5-18.5
	V238.3C845.5,228.1,853.8,219.8,864,219.8z"/>
<path class="st2" d="M1091,378.2H864c-11,0-20-9-20-20V238.3c0-11,9-20,20-20h227c11,0,20,9,20,20v119.9
	C1111,369.2,1102,378.2,1091,378.2z M864,221.3c-9.4,0-17,7.6-17,17v119.9c0,9.4,7.6,17,17,17h227c9.4,0,17-7.6,17-17V238.3
	c0-9.4-7.6-17-17-17H864z"/>
<path class="st2" d="M908.4,305.2h4.5c4.1,0,6.8-2.9,6.8-7c0-4.1-2.7-7-6.8-7h-4.5c-0.8,0-1.3,0.5-1.3,1.3V304
	C907.1,304.7,907.6,305.2,908.4,305.2z M909.7,302.7v-9.1h3.3c2.5,0,4.2,1.9,4.2,4.6c0,2.7-1.7,4.6-4.2,4.6L909.7,302.7L909.7,302.7
	z M924.6,305.2h7.6c0.7,0,1.3-0.5,1.3-1.2c0-0.7-0.5-1.2-1.3-1.2h-6.4v-3.4h5.7c0.7,0,1.2-0.5,1.2-1.2c0-0.7-0.5-1.2-1.2-1.2h-5.7
	v-3.3h6.3c0.7,0,1.3-0.5,1.3-1.2c0-0.7-0.5-1.2-1.3-1.2h-7.6c-0.8,0-1.3,0.5-1.3,1.3v11.5C923.3,304.7,923.8,305.2,924.6,305.2z
	 M942.5,305.5c1.2,0,2-0.7,2.5-2.1l3.9-10.7c0-0.1,0.1-0.4,0.1-0.5c0-0.7-0.5-1.2-1.3-1.2c-0.6,0-1,0.4-1.2,0.9l-4,10.9l-4-10.9
	c-0.2-0.6-0.6-0.9-1.2-0.9c-0.8,0-1.3,0.5-1.3,1.2c0,0.1,0,0.4,0.1,0.5l3.9,10.7C940.5,304.8,941.3,305.5,942.5,305.5z M953.3,305.2
	h7.6c0.7,0,1.3-0.5,1.3-1.2c0-0.7-0.5-1.2-1.3-1.2h-6.4v-3.4h5.7c0.7,0,1.2-0.5,1.2-1.2c0-0.7-0.5-1.2-1.2-1.2h-5.7v-3.3h6.3
	c0.7,0,1.3-0.5,1.3-1.2c0-0.7-0.5-1.2-1.3-1.2h-7.6c-0.8,0-1.3,0.5-1.3,1.3v11.5C952,304.7,952.5,305.2,953.3,305.2z M967.2,305.2
	h7.2c0.7,0,1.3-0.5,1.3-1.2c0-0.7-0.5-1.2-1.3-1.2h-5.9v-10.6c0-0.8-0.5-1.3-1.3-1.3s-1.3,0.5-1.3,1.3v11.7
	C965.9,304.7,966.5,305.2,967.2,305.2z M984.4,305.5c4.2,0,7.2-3,7.2-7.3c0-4.3-3-7.3-7.2-7.3c-4.2,0-7.2,3-7.2,7.3
	C977.2,302.5,980.2,305.5,984.4,305.5z M979.8,298.2c0-2.8,1.9-4.8,4.6-4.8c2.7,0,4.6,1.9,4.6,4.8c0,2.8-1.9,4.8-4.6,4.8
	C981.7,303,979.8,301,979.8,298.2z M996.4,305.4c0.8,0,1.3-0.5,1.3-1.3v-3.9h3.4c2.9,0,5.1-1.8,5.1-4.6c0-2.8-2.2-4.6-5.1-4.6h-4.6
	c-0.8,0-1.3,0.5-1.3,1.3V304C995.2,304.9,995.7,305.4,996.4,305.4z M997.7,297.9v-4.3h3.5c1.4,0,2.4,0.9,2.4,2.2s-0.9,2.2-2.4,2.2
	h-3.5V297.9z M1010.4,305.2h7.6c0.7,0,1.3-0.5,1.3-1.2c0-0.7-0.5-1.2-1.3-1.2h-6.4v-3.4h5.7c0.7,0,1.2-0.5,1.2-1.2
	c0-0.7-0.5-1.2-1.2-1.2h-5.7v-3.3h6.3c0.7,0,1.3-0.5,1.3-1.2c0-0.7-0.5-1.2-1.3-1.2h-7.6c-0.8,0-1.3,0.5-1.3,1.3v11.5
	C1009.2,304.7,1009.7,305.2,1010.4,305.2z M1024.4,305.4c0.8,0,1.3-0.5,1.3-1.3v-4h3.1l3.2,4.8c0.2,0.4,0.6,0.6,1.1,0.6
	c0.7,0,1.2-0.5,1.2-1.1c0-0.3-0.1-0.6-0.3-1l-2.5-3.7c1.7-0.7,2.7-2.1,2.7-4.1c0-2.7-2.1-4.5-4.9-4.5h-4.8c-0.8,0-1.3,0.5-1.3,1.3
	v11.7C1023.1,304.9,1023.6,305.4,1024.4,305.4z M1025.6,297.7v-4.1h3.6c1.3,0,2.2,0.8,2.2,2.1c0,1.3-0.9,2.1-2.2,2.1L1025.6,297.7
	L1025.6,297.7z M1043.1,305.5c3.2,0,5.3-1.7,5.3-4.4c0-2.6-1.7-3.5-3.7-4l-2.5-0.6c-1.3-0.3-2.1-0.6-2.1-1.7c0-1.1,1-1.6,2.4-1.6
	c1.7,0,2.8,0.7,3.4,1.8c0.4,0.4,0.7,0.6,1.2,0.6c0.7,0,1.1-0.5,1.1-1.2c0-0.8-0.5-1.7-1.4-2.3c-1-0.6-2.3-1.2-4.1-1.2
	c-3.2,0-5.3,1.6-5.3,4.2c0,2.4,1.5,3.5,3.8,4l2.6,0.5c1.1,0.2,1.8,0.7,1.8,1.8c0,1.1-0.9,1.8-2.5,1.8c-2,0-3.1-0.7-4-2.1
	c-0.3-0.3-0.6-0.5-0.9-0.5c-0.7,0-1.2,0.5-1.2,1.2c0,0.8,0.6,1.8,1.4,2.4C1039.6,305,1041,305.5,1043.1,305.5z"/>
<path class="st0" d="M978,246.8c15.7,0,28.5-12.8,28.5-28.5c0-15.7-12.8-28.5-28.5-28.5s-28.5,12.8-28.5,28.5
	C949.5,234,962.3,246.8,978,246.8z"/>
<path class="st2" d="M978,248.2c-16.5,0-30-13.5-30-30c0-16.5,13.5-30,30-30s30,13.5,30,30C1008,234.8,994.5,248.2,978,248.2z
	 M978,191.3c-14.9,0-27,12.1-27,27c0,14.9,12.1,27,27,27s27-12.1,27-27C1005,203.4,992.9,191.3,978,191.3z"/>
<path class="st2" d="M980.9,230.1c-0.6,0-1-0.4-1-1c0-4.3-3.5-7.8-7.8-7.8c-4.3,0-7.8,3.5-7.8,7.8c0,0.6-0.4,1-1,1c-0.6,0-1-0.4-1-1
	c0-5.4,4.4-9.8,9.8-9.8c5.4,0,9.8,4.4,9.8,9.8C981.9,229.7,981.5,230.1,980.9,230.1z"/>
<path class="st2" d="M973.9,211c-2.7,0-5.3-1.1-7.2-3c-0.4-0.4-0.4-1,0-1.4c0.4-0.4,1-0.4,1.4,0c2.3,2.4,5.9,3.1,8.9,1.8
	c0.5-0.2,1.1,0,1.3,0.5s0,1.1-0.5,1.3C976.6,210.8,975.3,211,973.9,211z"/>
<path class="st2" d="M972.1,216.4c-3.5,0-6.4-2.9-6.4-6.4c0-3.5,2.9-6.4,6.4-6.4s6.4,2.9,6.4,6.4
	C978.5,213.5,975.6,216.4,972.1,216.4z M972.1,205.6c-2.4,0-4.4,2-4.4,4.4c0,2.4,2,4.4,4.4,4.4c2.4,0,4.4-2,4.4-4.4
	C976.5,207.6,974.5,205.6,972.1,205.6z"/>
<path class="st2" d="M983.9,216.4c-1.2,0-2.4-0.3-3.5-1c-0.5-0.3-0.6-0.9-0.3-1.4c0.3-0.5,0.9-0.6,1.4-0.3c1.8,1.2,4.3,0.9,5.7-0.8
	c1.4-1.6,1.4-4.1,0-5.8c-1.4-1.6-3.9-2-5.7-0.8c-0.5,0.3-1.1,0.2-1.4-0.3c-0.3-0.5-0.2-1.1,0.3-1.4c2.7-1.7,6.2-1.2,8.3,1.2
	c2.1,2.4,2.1,6,0,8.4C987.5,215.7,985.7,216.4,983.9,216.4z"/>
<path class="st2" d="M992.7,230.1c-0.6,0-1-0.4-1-1c0-2.4-1.1-4.6-3-6.1c-1.9-1.5-4.3-2-6.6-1.5c-0.5,0.1-1.1-0.2-1.2-0.8
	c-0.1-0.5,0.2-1.1,0.8-1.2c2.9-0.7,6,0,8.3,1.9c2.4,1.9,3.7,4.7,3.7,7.7C993.7,229.7,993.3,230.1,992.7,230.1z"/>
<path class="st2" d="M985.7,211c-1.9,0-3.7-0.5-5.3-1.5c-0.5-0.3-0.6-0.9-0.3-1.4c0.3-0.5,0.9-0.6,1.4-0.3c1.3,0.8,2.7,1.2,4.2,1.2
	c1.1,0,2.2-0.2,3.2-0.6c0.5-0.2,1.1,0,1.3,0.5s0,1.1-0.5,1.3C988.4,210.8,987.1,211,985.7,211z"/>
<path class="st2" d="M1146.4,297.3c0.7-0.7,0.7-1.6,0-2.3l-10.3-10.3c-0.7-0.7-1.6-0.7-2.3,0c-0.7,0.7-0.7,1.6,0,2.3l9.2,9.2
	l-9.2,9.2c-0.7,0.7-0.7,1.6,0,2.3c0.7,0.7,1.6,0.7,2.3,0L1146.4,297.3z M1110.1,297.8h35.1v-3.3h-35.1V297.8z"/>
<path class="st2" d="M1257.1,181.4c-0.7-0.7-1.6-0.7-2.3,0l-10.3,10.3c-0.7,0.7-0.7,1.6,0,2.3c0.7,0.7,1.6,0.7,2.3,0l9.2-9.2
	l9.2,9.2c0.7,0.7,1.6,0.7,2.3,0c0.7-0.7,0.7-1.6,0-2.3L1257.1,181.4z M1257.5,216.7v-34.1h-3.3v34.1H1257.5z"/>
<path class="st2" d="M1301.9,216.2c0.7,0.7,1.6,0.7,2.3,0l10.3-10.3c0.7-0.7,0.7-1.6,0-2.3c-0.7-0.7-1.6-0.7-2.3,0l-9.2,9.2
	l-9.2-9.2c-0.7-0.7-1.6-0.7-2.3,0c-0.7,0.7-0.7,1.6,0,2.3L1301.9,216.2z M1301.5,180.9V215h3.3v-34.1H1301.5z"/>
<path class="st0" d="M1226.5,22.8h107c43.4,0,78.5,35.1,78.5,78.5c0,43.4-35.1,78.5-78.5,78.5h-107c-43.4,0-78.5-35.1-78.5-78.5
	C1148,57.9,1183.1,22.8,1226.5,22.8z"/>
<path class="st2" d="M1333,181.2h-107c-44.1,0-80-35.9-80-80s35.9-80,80-80h107c44.1,0,80,35.9,80,80S1377.1,181.2,1333,181.2z
	 M1226,24.3c-42.5,0-77,34.5-77,77s34.5,77,77,77h107c42.5,0,77-34.5,77-77s-34.5-77-77-77H1226z"/>
<path class="st2" d="M1191.6,78.6c0.6,0,1-0.3,1.2-0.8l1.1-2.7h6.8l1.1,2.7c0.2,0.5,0.6,0.8,1.2,0.8s1.2-0.5,1.2-1.2
	c0-0.2,0-0.5-0.2-0.8l-4.3-10.6c-0.5-1.3-1.2-2-2.4-2c-1.2,0-1.9,0.6-2.4,2l-4.3,10.6c-0.1,0.3-0.2,0.6-0.2,0.8
	C1190.4,78,1191,78.6,1191.6,78.6z M1194.9,72.6l2.5-6.3l2.5,6.3H1194.9z M1212.2,78.6c3.6,0,5.8-2.3,5.8-5.8v-7.5
	c0-0.8-0.5-1.3-1.3-1.3c-0.7,0-1.2,0.5-1.2,1.3v7.3c0,2.1-1.3,3.5-3.3,3.5s-3.3-1.4-3.3-3.5v-7.3c0-0.8-0.5-1.3-1.2-1.3
	c-0.8,0-1.3,0.5-1.3,1.3v7.5C1206.4,76.3,1208.7,78.6,1212.2,78.6z M1226.7,78.5c0.8,0,1.3-0.5,1.3-1.3V66.7h3.5
	c0.7,0,1.3-0.5,1.3-1.2c0-0.7-0.5-1.2-1.3-1.2h-9.5c-0.7,0-1.3,0.5-1.3,1.2c0,0.7,0.5,1.2,1.3,1.2h3.5v10.5
	C1225.5,78,1226,78.5,1226.7,78.5z M1246.2,78.5c0.8,0,1.3-0.5,1.3-1.3V65.3c0-0.8-0.5-1.3-1.3-1.3c-0.8,0-1.3,0.5-1.3,1.3V70h-6.8
	v-4.7c0-0.8-0.5-1.3-1.3-1.3c-0.8,0-1.3,0.5-1.3,1.3v11.9c0,0.8,0.5,1.3,1.3,1.3c0.8,0,1.3-0.5,1.3-1.3v-4.8h6.8v4.8
	C1245,78,1245.5,78.5,1246.2,78.5z M1252.9,78.3h7.6c0.7,0,1.3-0.5,1.3-1.2c0-0.7-0.5-1.2-1.3-1.2h-6.4v-3.4h5.7
	c0.7,0,1.2-0.5,1.2-1.2c0-0.7-0.5-1.2-1.2-1.2h-5.7v-3.3h6.3c0.7,0,1.3-0.5,1.3-1.2c0-0.7-0.5-1.2-1.3-1.2h-7.6
	c-0.8,0-1.3,0.5-1.3,1.3v11.5C1251.7,77.8,1252.2,78.3,1252.9,78.3z M1266.9,78.5c0.8,0,1.3-0.5,1.3-1.3v-8.8l6.2,8.9
	c0.6,0.8,1.1,1.1,1.7,1.1c0.9,0,1.5-0.7,1.5-1.6V65.3c0-0.8-0.5-1.3-1.3-1.3c-0.7,0-1.3,0.5-1.3,1.3v9l-6.2-9
	c-0.7-0.9-1.1-1.2-1.7-1.2c-0.9,0-1.5,0.6-1.5,1.6v11.6C1265.6,78,1266.1,78.5,1266.9,78.5z M1286.5,78.5c0.8,0,1.3-0.5,1.3-1.3
	V66.7h3.5c0.7,0,1.3-0.5,1.3-1.2c0-0.7-0.5-1.2-1.3-1.2h-9.5c-0.7,0-1.3,0.5-1.3,1.2c0,0.7,0.5,1.2,1.3,1.2h3.5v10.5
	C1285.2,78,1285.7,78.5,1286.5,78.5z M1296.6,78.5c0.8,0,1.3-0.5,1.3-1.3V65.3c0-0.8-0.5-1.3-1.3-1.3c-0.8,0-1.3,0.5-1.3,1.3v11.9
	C1295.4,78,1295.9,78.5,1296.6,78.5z M1308.5,78.6c2.3,0,4.2-0.8,5.4-2.3c0.5-0.6,0.8-1.4,0.8-1.9c0-0.7-0.5-1.2-1.2-1.2
	c-0.4,0-0.8,0.2-1.2,0.7c-0.8,1.4-2.1,2.2-3.9,2.2c-2.6,0-4.5-2-4.5-4.8c0-2.8,1.8-4.8,4.5-4.8c1.8,0,3.1,0.7,3.9,2.1
	c0.4,0.5,0.8,0.7,1.2,0.7c0.7,0,1.2-0.6,1.2-1.2c0-0.6-0.4-1.4-0.9-2c-1.3-1.5-3.1-2.2-5.4-2.2c-4.2,0-7.1,3-7.1,7.3
	C1301.4,75.6,1304.3,78.6,1308.5,78.6z M1317.7,78.6c0.6,0,1-0.3,1.2-0.8l1.1-2.7h6.8l1.1,2.7c0.2,0.5,0.6,0.8,1.2,0.8
	s1.2-0.5,1.2-1.2c0-0.2,0-0.5-0.2-0.8l-4.3-10.6c-0.5-1.3-1.2-2-2.4-2c-1.2,0-1.9,0.6-2.4,2l-4.3,10.6c-0.1,0.3-0.2,0.6-0.2,0.8
	C1316.5,78,1317,78.6,1317.7,78.6z M1321,72.6l2.5-6.3l2.5,6.3H1321z M1336.3,78.5c0.8,0,1.3-0.5,1.3-1.3V66.7h3.5
	c0.7,0,1.3-0.5,1.3-1.2c0-0.7-0.5-1.2-1.3-1.2h-9.5c-0.7,0-1.3,0.5-1.3,1.2c0,0.7,0.5,1.2,1.3,1.2h3.5v10.5
	C1335,78,1335.5,78.5,1336.3,78.5z M1346.4,78.3h7.6c0.7,0,1.3-0.5,1.3-1.2c0-0.7-0.5-1.2-1.3-1.2h-6.4v-3.4h5.7
	c0.7,0,1.2-0.5,1.2-1.2c0-0.7-0.5-1.2-1.2-1.2h-5.7v-3.3h6.3c0.7,0,1.3-0.5,1.3-1.2c0-0.7-0.5-1.2-1.3-1.2h-7.6
	c-0.8,0-1.3,0.5-1.3,1.3v11.5C1345.2,77.8,1345.7,78.3,1346.4,78.3z M1208.2,108.5c1.2,0,2-1,2.4-2.5l2.5-8.8l2.5,8.8
	c0.4,1.5,1.2,2.5,2.4,2.5s2.1-0.9,2.4-2.4l2.6-10.3c0-0.2,0.1-0.4,0.1-0.6c0-0.7-0.6-1.3-1.3-1.3c-0.7,0-1.2,0.4-1.3,1l-2.5,10.7
	l-2.8-9.8c-0.3-1.1-1-1.9-2-1.9s-1.7,0.8-2,1.9l-2.8,9.8l-2.5-10.7c-0.1-0.6-0.6-1-1.3-1c-0.7,0-1.3,0.6-1.3,1.3
	c0,0.1,0,0.3,0.1,0.6l2.6,10.4C1206.2,107.5,1207.1,108.5,1208.2,108.5z M1227.3,108.4c0.8,0,1.3-0.5,1.3-1.3V95.2
	c0-0.8-0.5-1.3-1.3-1.3c-0.8,0-1.3,0.5-1.3,1.3v11.9C1226,107.9,1226.6,108.4,1227.3,108.4z M1237.5,108.4c0.8,0,1.3-0.5,1.3-1.3
	V96.6h3.5c0.7,0,1.3-0.5,1.3-1.2c0-0.7-0.5-1.2-1.3-1.2h-9.5c-0.7,0-1.3,0.5-1.3,1.2c0,0.7,0.5,1.2,1.3,1.2h3.5v10.5
	C1236.2,107.9,1236.7,108.4,1237.5,108.4z M1257,108.4c0.8,0,1.3-0.5,1.3-1.3V95.2c0-0.8-0.5-1.3-1.3-1.3s-1.3,0.5-1.3,1.3v4.7h-6.8
	v-4.7c0-0.8-0.5-1.3-1.3-1.3c-0.8,0-1.3,0.5-1.3,1.3v11.9c0,0.8,0.5,1.3,1.3,1.3c0.8,0,1.3-0.5,1.3-1.3v-4.8h6.8v4.8
	C1255.7,107.9,1256.2,108.4,1257,108.4z M1275,108.5c4.2,0,7.2-3,7.2-7.3c0-4.3-3-7.3-7.2-7.3s-7.2,3-7.2,7.3
	C1267.8,105.5,1270.8,108.5,1275,108.5z M1270.4,101.2c0-2.8,1.9-4.8,4.6-4.8s4.6,1.9,4.6,4.8c0,2.8-1.9,4.8-4.6,4.8
	S1270.4,104,1270.4,101.2z M1287,108.4c0.8,0,1.3-0.5,1.3-1.3v-3.9h3.4c2.9,0,5.1-1.8,5.1-4.6c0-2.8-2.2-4.6-5.1-4.6h-4.6
	c-0.8,0-1.3,0.5-1.3,1.3V107C1285.8,107.9,1286.3,108.4,1287,108.4z M1288.3,100.9v-4.3h3.5c1.4,0,2.4,0.9,2.4,2.2
	c0,1.3-0.9,2.2-2.4,2.2h-3.5V100.9z M1301.1,108.2h7.6c0.7,0,1.3-0.5,1.3-1.2c0-0.7-0.5-1.2-1.3-1.2h-6.4v-3.4h5.7
	c0.7,0,1.2-0.5,1.2-1.2c0-0.7-0.5-1.2-1.2-1.2h-5.7v-3.3h6.3c0.7,0,1.3-0.5,1.3-1.2c0-0.7-0.5-1.2-1.3-1.2h-7.6
	c-0.8,0-1.3,0.5-1.3,1.3v11.5C1299.8,107.7,1300.3,108.2,1301.1,108.2z M1315,108.4c0.8,0,1.3-0.5,1.3-1.3v-8.8l6.2,8.9
	c0.6,0.8,1.1,1.1,1.7,1.1c0.9,0,1.5-0.7,1.5-1.6V95.2c0-0.8-0.5-1.3-1.3-1.3c-0.7,0-1.3,0.5-1.3,1.3v9l-6.2-9
	c-0.7-0.9-1.1-1.2-1.7-1.2c-0.9,0-1.5,0.6-1.5,1.6v11.6C1313.7,107.9,1314.2,108.4,1315,108.4z M1337.2,108.4c0.8,0,1.3-0.5,1.3-1.3
	V95.2c0-0.8-0.5-1.3-1.3-1.3c-0.8,0-1.3,0.5-1.3,1.3v11.9C1335.9,107.9,1336.5,108.4,1337.2,108.4z M1343.9,108.2h4.5
	c4.1,0,6.8-2.9,6.8-7c0-4.1-2.7-7-6.8-7h-4.5c-0.8,0-1.3,0.5-1.3,1.3V107C1342.7,107.7,1343.2,108.2,1343.9,108.2z M1345.2,105.7
	v-9.1h3.3c2.5,0,4.2,1.9,4.2,4.6c0,2.7-1.7,4.6-4.2,4.6h-3.3V105.7z M1233.5,138.5c2.3,0,4.2-0.8,5.4-2.3c0.5-0.6,0.8-1.4,0.8-1.9
	c0-0.7-0.5-1.2-1.2-1.2c-0.4,0-0.8,0.2-1.2,0.7c-0.8,1.4-2.1,2.2-3.9,2.2c-2.6,0-4.5-2-4.5-4.8c0-2.8,1.8-4.8,4.5-4.8
	c1.8,0,3.1,0.7,3.9,2.1c0.4,0.5,0.8,0.7,1.2,0.7c0.7,0,1.2-0.6,1.2-1.2c0-0.6-0.4-1.4-0.9-2c-1.3-1.5-3.1-2.2-5.4-2.2
	c-4.2,0-7.1,3-7.1,7.3C1226.4,135.5,1229.3,138.5,1233.5,138.5z M1249.7,138.5c4.2,0,7.2-3,7.2-7.3c0-4.3-3-7.3-7.2-7.3
	c-4.2,0-7.2,3-7.2,7.3C1242.4,135.5,1245.4,138.5,1249.7,138.5z M1245,131.2c0-2.8,1.9-4.8,4.6-4.8c2.7,0,4.6,1.9,4.6,4.8
	c0,2.8-1.9,4.8-4.6,4.8C1247,136,1245,134,1245,131.2z M1261.7,138.4c0.8,0,1.3-0.5,1.3-1.3v-8.8l6.2,8.9c0.6,0.8,1.1,1.1,1.7,1.1
	c0.9,0,1.5-0.7,1.5-1.6v-11.5c0-0.8-0.5-1.3-1.3-1.3c-0.7,0-1.3,0.5-1.3,1.3v9l-6.2-9c-0.7-0.9-1.1-1.2-1.7-1.2
	c-0.9,0-1.5,0.6-1.5,1.6v11.6C1260.4,137.9,1260.9,138.4,1261.7,138.4z M1277.9,138.4c0.8,0,1.3-0.5,1.3-1.3v-8.8l6.2,8.9
	c0.6,0.8,1.1,1.1,1.7,1.1c0.9,0,1.5-0.7,1.5-1.6v-11.5c0-0.8-0.5-1.3-1.3-1.3c-0.7,0-1.3,0.5-1.3,1.3v9l-6.2-9
	c-0.7-0.9-1.1-1.2-1.7-1.2c-0.9,0-1.5,0.6-1.5,1.6v11.6C1276.6,137.9,1277.1,138.4,1277.9,138.4z M1294.1,138.2h7.6
	c0.7,0,1.3-0.5,1.3-1.2c0-0.7-0.5-1.2-1.3-1.2h-6.4v-3.4h5.7c0.7,0,1.2-0.5,1.2-1.2c0-0.7-0.5-1.2-1.2-1.2h-5.7v-3.3h6.3
	c0.7,0,1.3-0.5,1.3-1.2c0-0.7-0.5-1.2-1.3-1.2h-7.6c-0.8,0-1.3,0.5-1.3,1.3v11.5C1292.8,137.7,1293.3,138.2,1294.1,138.2z
	 M1312.9,138.5c2.3,0,4.2-0.8,5.4-2.3c0.5-0.6,0.8-1.4,0.8-1.9c0-0.7-0.5-1.2-1.2-1.2c-0.4,0-0.8,0.2-1.2,0.7
	c-0.8,1.4-2.1,2.2-3.9,2.2c-2.6,0-4.5-2-4.5-4.8c0-2.8,1.8-4.8,4.5-4.8c1.8,0,3.1,0.7,3.9,2.1c0.4,0.5,0.8,0.7,1.2,0.7
	c0.7,0,1.2-0.6,1.2-1.2c0-0.6-0.4-1.4-0.9-2c-1.3-1.5-3.1-2.2-5.4-2.2c-4.2,0-7.1,3-7.1,7.3C1305.9,135.5,1308.8,138.5,1312.9,138.5
	z M1327.2,138.4c0.8,0,1.3-0.5,1.3-1.3v-10.5h3.5c0.7,0,1.3-0.5,1.3-1.2c0-0.7-0.5-1.2-1.3-1.2h-9.5c-0.7,0-1.3,0.5-1.3,1.2
	c0,0.7,0.5,1.2,1.3,1.2h3.5v10.5C1325.9,137.9,1326.4,138.4,1327.2,138.4z"/>
<path class="st0" d="M1839-96.2h107c43.4,0,78.5,35.1,78.5,78.5c0,43.4-35.1,78.5-78.5,78.5h-107c-43.4,0-78.5-35.1-78.5-78.5
	C1760.5-61.1,1795.6-96.2,1839-96.2z"/>
<path class="st2" d="M1946,62.2h-107c-44.1,0-80-35.9-80-80c0-44.1,35.9-80,80-80h107c44.1,0,80,35.9,80,80
	C2026,26.3,1990.1,62.2,1946,62.2z M1839-94.7c-42.5,0-77,34.5-77,77c0,42.5,34.5,77,77,77h107c42.5,0,77-34.5,77-77
	c0-42.5-34.5-77-77-77H1839z"/>
<path class="st2" d="M1804-22.6c0.8,0,1.3-0.5,1.3-1.3v-3.9h3.4c2.9,0,5.1-1.8,5.1-4.6c0-2.8-2.2-4.6-5.1-4.6h-4.6
	c-0.8,0-1.3,0.5-1.3,1.3V-24C1802.7-23.1,1803.2-22.6,1804-22.6z M1805.2-30.1v-4.3h3.5c1.4,0,2.4,0.9,2.4,2.2c0,1.3-1,2.2-2.4,2.2
	L1805.2-30.1L1805.2-30.1z M1822.3-22.5c3.6,0,5.8-2.3,5.8-5.8v-7.5c0-0.8-0.5-1.3-1.3-1.3c-0.7,0-1.2,0.5-1.2,1.3v7.3
	c0,2.1-1.3,3.5-3.3,3.5s-3.3-1.4-3.3-3.5v-7.3c0-0.8-0.5-1.3-1.2-1.3c-0.8,0-1.3,0.5-1.3,1.3v7.5
	C1816.5-24.8,1818.8-22.5,1822.3-22.5z M1833.4-22.8h5.1c2.9,0,4.8-1.7,4.8-4.2c0-1.4-0.8-2.5-2.2-3c1.3-0.5,2.1-1.6,2.1-2.9
	c0-2.4-1.8-4-4.7-4h-5.1c-0.8,0-1.2,0.5-1.2,1.3v11.5C1832.1-23.4,1832.6-22.8,1833.4-22.8z M1834.7-25.2v-3.7h3.8
	c1.4,0,2.2,0.7,2.2,1.8c0,1.2-0.8,1.9-2.2,1.9H1834.7z M1834.7-31v-3.4h3.7c1.4,0,2.2,0.7,2.2,1.8c0,1-0.8,1.7-2.2,1.7L1834.7-31
	L1834.7-31z M1848.2-22.8h7.2c0.7,0,1.3-0.5,1.3-1.2c0-0.7-0.5-1.2-1.3-1.2h-5.9v-10.6c0-0.8-0.5-1.3-1.3-1.3
	c-0.8,0-1.3,0.5-1.3,1.3v11.7C1846.9-23.3,1847.5-22.8,1848.2-22.8z M1860.8-22.6c0.8,0,1.3-0.5,1.3-1.3v-11.9
	c0-0.8-0.5-1.3-1.3-1.3c-0.8,0-1.3,0.5-1.3,1.3v11.9C1859.5-23.1,1860-22.6,1860.8-22.6z M1871.5-22.5c3.2,0,5.3-1.7,5.3-4.4
	c0-2.6-1.7-3.5-3.7-4l-2.5-0.5c-1.2-0.3-2.1-0.6-2.1-1.7c0-1.1,1-1.7,2.5-1.7c1.7,0,2.8,0.7,3.4,1.8c0.4,0.3,0.7,0.6,1.2,0.6
	c0.7,0,1.1-0.5,1.1-1.2c0-0.8-0.5-1.7-1.4-2.3c-1-0.6-2.3-1.2-4.1-1.2c-3.2,0-5.3,1.7-5.3,4.2c0,2.4,1.4,3.5,3.8,4l2.6,0.5
	c1.1,0.2,1.8,0.7,1.8,1.8c0,1.1-0.9,1.8-2.5,1.8c-1.9,0-3.1-0.7-4-2.1c-0.3-0.3-0.6-0.5-0.9-0.5c-0.7,0-1.2,0.6-1.2,1.2
	c0,0.8,0.6,1.8,1.4,2.4C1868-23,1869.4-22.5,1871.5-22.5z M1891.1-22.6c0.8,0,1.3-0.5,1.3-1.3v-11.9c0-0.8-0.5-1.3-1.3-1.3
	c-0.8,0-1.3,0.5-1.3,1.3v4.7h-6.8v-4.7c0-0.8-0.5-1.3-1.3-1.3c-0.8,0-1.3,0.5-1.3,1.3v11.9c0,0.8,0.5,1.3,1.3,1.3
	c0.8,0,1.3-0.5,1.3-1.3v-4.8h6.8v4.8C1889.8-23.1,1890.3-22.6,1891.1-22.6z M1907.8-22.5c3.2,0,5.3-1.7,5.3-4.4c0-2.6-1.7-3.5-3.7-4
	l-2.5-0.5c-1.3-0.3-2-0.6-2-1.7c0-1.1,1-1.7,2.4-1.7c1.7,0,2.8,0.7,3.5,1.8c0.4,0.3,0.7,0.6,1.2,0.6c0.7,0,1.1-0.5,1.1-1.2
	c0-0.8-0.5-1.7-1.4-2.3c-1-0.6-2.3-1.2-4.1-1.2c-3.2,0-5.3,1.7-5.3,4.2c0,2.4,1.4,3.5,3.8,4l2.6,0.5c1.1,0.2,1.8,0.7,1.8,1.8
	c0,1.1-0.9,1.8-2.5,1.8c-1.9,0-3.1-0.7-4-2.1c-0.3-0.3-0.6-0.5-0.9-0.5c-0.7,0-1.2,0.6-1.2,1.2c0,0.8,0.6,1.8,1.4,2.4
	C1904.4-23,1905.7-22.5,1907.8-22.5z M1918.1-22.6c0.8,0,1.3-0.5,1.3-1.3v-11.9c0-0.8-0.5-1.3-1.3-1.3c-0.8,0-1.3,0.5-1.3,1.3v11.9
	C1916.8-23.1,1917.3-22.6,1918.1-22.6z M1930.1-22.5c3.9,0,6.6-2.4,6.6-6.8c0-1-0.6-1.4-1.3-1.4h-5.4c-0.7,0-1.2,0.4-1.2,1.2
	c0,0.7,0.6,1.2,1.2,1.2h4.2c-0.2,2.1-1.6,3.3-3.9,3.3c-2.9,0-4.7-2-4.7-4.8c0-2.8,1.9-4.9,4.7-4.9c1.8,0,3,0.8,3.8,1.8
	c0.4,0.4,0.8,0.5,1.2,0.5c0.6,0,1.1-0.4,1.1-1.1c0-0.8-0.7-1.7-1.5-2.3c-1.1-0.8-2.6-1.3-4.6-1.3c-4.2,0-7.3,3-7.3,7.4
	C1922.9-25.5,1925.8-22.5,1930.1-22.5z M1941.5-22.6c0.8,0,1.3-0.5,1.3-1.3v-8.8l6.2,8.9c0.6,0.8,1.1,1.1,1.7,1.1
	c0.9,0,1.5-0.6,1.5-1.6v-11.5c0-0.8-0.5-1.3-1.3-1.3c-0.8,0-1.3,0.5-1.3,1.3v9l-6.2-9c-0.7-0.9-1.1-1.2-1.7-1.2
	c-0.9,0-1.5,0.7-1.5,1.6v11.6C1940.2-23.1,1940.8-22.6,1941.5-22.6z M1957.7-22.8h7.6c0.7,0,1.3-0.5,1.3-1.2c0-0.7-0.5-1.2-1.3-1.2
	h-6.4v-3.4h5.7c0.7,0,1.2-0.5,1.2-1.2c0-0.7-0.5-1.2-1.2-1.2h-5.7v-3.3h6.3c0.7,0,1.3-0.5,1.3-1.2c0-0.7-0.5-1.2-1.3-1.2h-7.6
	c-0.8,0-1.3,0.5-1.3,1.3v11.5C1956.4-23.3,1956.9-22.8,1957.7-22.8z M1971.6-22.8h4.5c4.1,0,6.8-2.9,6.8-7c0-4.1-2.7-7-6.8-7h-4.5
	c-0.8,0-1.3,0.5-1.3,1.3V-24C1970.3-23.3,1970.9-22.8,1971.6-22.8z M1972.9-25.3v-9.1h3.2c2.5,0,4.2,1.9,4.2,4.6
	c0,2.7-1.7,4.6-4.2,4.6h-3.2V-25.3z M1841.4,7.4c0.6,0,1-0.3,1.2-0.8l1.1-2.7h6.8l1.1,2.7c0.2,0.5,0.6,0.8,1.2,0.8
	c0.6,0,1.2-0.5,1.2-1.2c0-0.2-0.1-0.5-0.2-0.8l-4.3-10.6c-0.5-1.3-1.2-2-2.4-2c-1.2,0-1.9,0.6-2.4,2l-4.3,10.6
	c-0.1,0.3-0.2,0.6-0.2,0.8C1840.2,6.9,1840.8,7.4,1841.4,7.4z M1844.7,1.5l2.5-6.3l2.5,6.3H1844.7z M1857.9,7.4
	c0.8,0,1.3-0.5,1.3-1.3V2h3.1l3.2,4.8c0.2,0.3,0.6,0.6,1.1,0.6c0.7,0,1.2-0.5,1.2-1.1c0-0.3-0.1-0.6-0.3-1l-2.5-3.7
	c1.6-0.7,2.8-2.1,2.8-4.1c0-2.7-2.1-4.5-4.9-4.5h-4.8c-0.8,0-1.3,0.5-1.3,1.3V6C1856.7,6.9,1857.2,7.4,1857.9,7.4z M1859.2-0.3v-4.1
	h3.6c1.3,0,2.2,0.8,2.2,2.1c0,1.3-0.9,2.1-2.2,2.1L1859.2-0.3L1859.2-0.3z M1875.7,7.4c0.8,0,1.3-0.5,1.3-1.3V-4.4h3.5
	c0.7,0,1.3-0.5,1.3-1.2c0-0.7-0.5-1.2-1.3-1.2h-9.5c-0.7,0-1.3,0.5-1.3,1.2c0,0.7,0.5,1.2,1.3,1.2h3.5V6.1
	C1874.4,6.9,1874.9,7.4,1875.7,7.4z M1885.8,7.4c0.8,0,1.3-0.5,1.3-1.3V-5.8c0-0.8-0.5-1.3-1.3-1.3c-0.8,0-1.3,0.5-1.3,1.3V6.1
	C1884.6,6.9,1885.1,7.4,1885.8,7.4z M1892.6,7.4c0.8,0,1.3-0.5,1.3-1.3V1.6h5.6c0.7,0,1.3-0.5,1.3-1.2c0-0.7-0.5-1.2-1.3-1.2h-5.6
	v-3.5h6.4c0.7,0,1.3-0.5,1.3-1.2c0-0.7-0.5-1.2-1.3-1.2h-7.6c-0.8,0-1.3,0.5-1.3,1.3V6.3C1891.3,6.9,1891.8,7.4,1892.6,7.4z
	 M1903,7.4c0.6,0,1-0.3,1.2-0.8l1.1-2.7h6.8l1.1,2.7c0.2,0.5,0.6,0.8,1.2,0.8c0.7,0,1.2-0.5,1.2-1.2c0-0.2-0.1-0.5-0.2-0.8
	l-4.3-10.6c-0.5-1.3-1.2-2-2.4-2c-1.2,0-1.9,0.6-2.4,2l-4.4,10.6c-0.1,0.3-0.2,0.6-0.2,0.8C1901.8,6.9,1902.3,7.4,1903,7.4z
	 M1906.3,1.5l2.5-6.3l2.5,6.3H1906.3z M1924.2,7.5c2.3,0,4.2-0.8,5.4-2.2c0.5-0.6,0.8-1.4,0.8-1.9c0-0.7-0.5-1.2-1.2-1.2
	c-0.4,0-0.8,0.2-1.2,0.7c-0.8,1.4-2.1,2.2-3.9,2.2c-2.7,0-4.5-2-4.5-4.8c0-2.8,1.8-4.8,4.5-4.8c1.8,0,3.1,0.8,3.9,2.1
	c0.4,0.5,0.8,0.7,1.2,0.7c0.6,0,1.2-0.6,1.2-1.2c0-0.6-0.4-1.4-0.9-2c-1.3-1.5-3.1-2.2-5.4-2.2c-4.2,0-7.1,3-7.1,7.3
	C1917.1,4.5,1920,7.5,1924.2,7.5z M1938.4,7.4c0.8,0,1.3-0.5,1.3-1.3V-4.4h3.5c0.7,0,1.3-0.5,1.3-1.2c0-0.7-0.5-1.2-1.3-1.2h-9.5
	c-0.7,0-1.3,0.5-1.3,1.2c0,0.7,0.5,1.2,1.3,1.2h3.5V6.1C1937.2,6.9,1937.7,7.4,1938.4,7.4z"/>
<path class="st2" d="M1586.7,377.3c0-0.8-0.7-1.5-1.5-1.5c-0.8,0-1.5,0.7-1.5,1.5H1586.7z M1583.7,505.8
	c0,59.9-48.6,108.5-108.4,108.5v3c61.6,0,111.4-49.9,111.4-111.5H1583.7z M1586.7,505.8V377.3h-3v128.5H1586.7z"/>
<rect x="1412" y="614.3" class="st2" width="64" height="3"/>
<path class="st2" d="M978,377.3c0-0.8,0.7-1.5,1.5-1.5c0.8,0,1.5,0.7,1.5,1.5H978z M981,505.8c0,59.9,48.6,108.5,108.4,108.5v3
	c-61.6,0-111.4-49.9-111.4-111.5H981z M978,505.8V377.3h3v128.5H978z"/>
<rect x="1088.7" y="614.3" class="st2" width="64" height="3"/>
<path class="st0" d="M1226,538.8h107c43.4,0,78.5,35.1,78.5,78.5c0,43.4-35.1,78.5-78.5,78.5h-107c-43.4,0-78.5-35.1-78.5-78.5
	C1147.5,573.8,1182.6,538.8,1226,538.8z"/>
<path class="st2" d="M1333,697.2h-107c-44.1,0-80-35.9-80-80s35.9-80,80-80h107c44.1,0,80,35.9,80,80S1377.1,697.2,1333,697.2z
	 M1226,540.3c-42.5,0-77,34.5-77,77s34.5,77,77,77l107,0c42.5,0,77-34.5,77-77s-34.5-77-77-77H1226z"/>
<path class="st2" d="M1227.2,610.4c0.8,0,1.3-0.5,1.3-1.3v-3.9h3.4c2.9,0,5.1-1.8,5.1-4.6c0-2.8-2.2-4.6-5.1-4.6h-4.6
	c-0.8,0-1.3,0.5-1.3,1.3V609C1226,609.9,1226.5,610.4,1227.2,610.4z M1228.5,602.9v-4.3h3.5c1.4,0,2.4,0.9,2.4,2.2
	c0,1.3-0.9,2.2-2.4,2.2h-3.5V602.9z M1241.2,610.4c0.8,0,1.3-0.5,1.3-1.3v-4h3.1l3.2,4.8c0.2,0.4,0.6,0.6,1.1,0.6
	c0.7,0,1.2-0.5,1.2-1.1c0-0.3-0.1-0.6-0.3-1l-2.5-3.7c1.7-0.7,2.7-2.1,2.7-4.1c0-2.7-2.1-4.5-4.9-4.5h-4.8c-0.8,0-1.3,0.5-1.3,1.3
	v11.7C1240,609.9,1240.5,610.4,1241.2,610.4z M1242.5,602.7v-4.1h3.6c1.3,0,2.2,0.8,2.2,2.1c0,1.3-0.9,2.1-2.2,2.1h-3.6V602.7z
	 M1261.1,610.5c4.2,0,7.2-3,7.2-7.3c0-4.3-3-7.3-7.2-7.3c-4.2,0-7.2,3-7.2,7.3C1253.9,607.5,1256.9,610.5,1261.1,610.5z
	 M1256.5,603.2c0-2.8,1.9-4.8,4.6-4.8c2.7,0,4.6,1.9,4.6,4.8c0,2.8-1.9,4.8-4.6,4.8C1258.4,608,1256.5,606,1256.5,603.2z
	 M1276.6,610.5c1.2,0,2-0.7,2.5-2.1l3.9-10.7c0-0.1,0.1-0.4,0.1-0.5c0-0.7-0.5-1.2-1.3-1.2c-0.6,0-1,0.4-1.2,0.9l-4,10.9l-4-10.9
	c-0.2-0.6-0.6-0.9-1.2-0.9c-0.8,0-1.3,0.5-1.3,1.2c0,0.1,0,0.4,0.1,0.5l3.9,10.7C1274.7,609.8,1275.5,610.5,1276.6,610.5z
	 M1287.4,610.4c0.8,0,1.3-0.5,1.3-1.3v-11.9c0-0.8-0.5-1.3-1.3-1.3c-0.8,0-1.3,0.5-1.3,1.3v11.9
	C1286.2,609.9,1286.7,610.4,1287.4,610.4z M1294.2,610.2h4.5c4.1,0,6.8-2.9,6.8-7s-2.7-7-6.8-7h-4.5c-0.8,0-1.3,0.5-1.3,1.3V609
	C1292.9,609.7,1293.4,610.2,1294.2,610.2z M1295.4,607.7v-9.1h3.3c2.5,0,4.2,1.9,4.2,4.6c0,2.7-1.7,4.6-4.2,4.6h-3.3V607.7z
	 M1310.3,610.2h7.6c0.7,0,1.3-0.5,1.3-1.2c0-0.7-0.5-1.2-1.3-1.2h-6.4v-3.4h5.7c0.7,0,1.2-0.5,1.2-1.2c0-0.7-0.5-1.2-1.2-1.2h-5.7
	v-3.3h6.3c0.7,0,1.3-0.5,1.3-1.2c0-0.7-0.5-1.2-1.3-1.2h-7.6c-0.8,0-1.3,0.5-1.3,1.3v11.5C1309.1,609.7,1309.6,610.2,1310.3,610.2z
	 M1328.2,610.5c3.2,0,5.3-1.7,5.3-4.4c0-2.6-1.7-3.5-3.7-4l-2.5-0.6c-1.3-0.3-2.1-0.6-2.1-1.7c0-1.1,1-1.7,2.4-1.7
	c1.7,0,2.8,0.7,3.4,1.8c0.4,0.4,0.7,0.6,1.2,0.6c0.7,0,1.1-0.5,1.1-1.2c0-0.8-0.5-1.7-1.4-2.3c-1-0.6-2.3-1.2-4.1-1.2
	c-3.2,0-5.3,1.6-5.3,4.2c0,2.4,1.5,3.5,3.8,4l2.6,0.5c1.1,0.2,1.8,0.7,1.8,1.8c0,1.1-0.9,1.8-2.5,1.8c-2,0-3.1-0.7-4-2.1
	c-0.3-0.3-0.6-0.5-0.9-0.5c-0.7,0-1.2,0.5-1.2,1.2c0,0.8,0.6,1.8,1.4,2.4C1324.7,610,1326.1,610.5,1328.2,610.5z M1224.3,639.5
	c3.2,0,5.3-1.7,5.3-4.4c0-2.6-1.7-3.5-3.7-4l-2.5-0.6c-1.3-0.3-2.1-0.6-2.1-1.7c0-1.1,1-1.7,2.4-1.7c1.7,0,2.8,0.7,3.4,1.8
	c0.4,0.4,0.7,0.6,1.2,0.6c0.7,0,1.1-0.5,1.1-1.2c0-0.8-0.5-1.7-1.4-2.3c-1-0.6-2.3-1.2-4.1-1.2c-3.2,0-5.3,1.6-5.3,4.2
	c0,2.4,1.5,3.5,3.8,4l2.6,0.5c1.1,0.2,1.8,0.7,1.8,1.8c0,1.1-0.9,1.8-2.5,1.8c-2,0-3.1-0.7-4-2.1c-0.3-0.3-0.6-0.5-0.9-0.5
	c-0.7,0-1.2,0.5-1.2,1.2c0,0.8,0.6,1.8,1.4,2.4C1220.8,639,1222.2,639.5,1224.3,639.5z M1234.5,639.4c0.8,0,1.3-0.5,1.3-1.3v-11.9
	c0-0.8-0.5-1.3-1.3-1.3s-1.3,0.5-1.3,1.3v11.9C1233.3,638.9,1233.8,639.4,1234.5,639.4z M1246.6,639.5c3.9,0,6.6-2.4,6.6-6.8
	c0-1-0.6-1.4-1.3-1.4h-5.4c-0.7,0-1.2,0.4-1.2,1.2c0,0.7,0.6,1.2,1.2,1.2h4.2c-0.1,2.1-1.6,3.3-3.9,3.3c-2.9,0-4.7-2-4.7-4.8
	c0-2.8,1.9-4.9,4.7-4.9c1.8,0,3.1,0.8,3.8,1.8c0.4,0.4,0.8,0.5,1.2,0.5c0.6,0,1.1-0.4,1.1-1.1c0-0.8-0.7-1.7-1.5-2.3
	c-1.1-0.8-2.6-1.3-4.6-1.3c-4.3,0-7.3,3-7.3,7.4C1239.3,636.5,1242.3,639.5,1246.6,639.5z M1258,639.4c0.8,0,1.3-0.5,1.3-1.3v-8.8
	l6.2,8.9c0.6,0.8,1.1,1.1,1.7,1.1c0.9,0,1.5-0.7,1.5-1.6v-11.5c0-0.8-0.5-1.3-1.3-1.3c-0.7,0-1.3,0.5-1.3,1.3v9l-6.2-9
	c-0.7-0.9-1.1-1.2-1.7-1.2c-0.9,0-1.5,0.6-1.5,1.6v11.6C1256.7,638.9,1257.2,639.4,1258,639.4z M1272.5,639.5c0.6,0,1-0.3,1.2-0.8
	l1.1-2.7h6.8l1.1,2.7c0.2,0.5,0.6,0.8,1.2,0.8s1.2-0.5,1.2-1.2c0-0.2,0-0.5-0.2-0.8l-4.3-10.6c-0.5-1.3-1.2-2-2.4-2
	c-1.2,0-1.9,0.6-2.4,2l-4.3,10.6c-0.1,0.3-0.2,0.6-0.2,0.8C1271.3,638.9,1271.8,639.5,1272.5,639.5z M1275.7,633.5l2.5-6.3l2.5,6.3
	H1275.7z M1291.1,639.4c0.8,0,1.3-0.5,1.3-1.3v-10.5h3.5c0.7,0,1.3-0.5,1.3-1.2c0-0.7-0.5-1.2-1.3-1.2h-9.5c-0.7,0-1.3,0.5-1.3,1.2
	c0,0.7,0.5,1.2,1.3,1.2h3.5v10.5C1289.8,638.9,1290.3,639.4,1291.1,639.4z M1305.6,639.5c3.6,0,5.9-2.3,5.9-5.8v-7.5
	c0-0.8-0.5-1.3-1.3-1.3c-0.7,0-1.2,0.5-1.2,1.3v7.3c0,2.1-1.3,3.5-3.3,3.5s-3.3-1.4-3.3-3.5v-7.3c0-0.8-0.5-1.3-1.2-1.3
	c-0.8,0-1.3,0.5-1.3,1.3v7.5C1299.7,637.2,1302,639.5,1305.6,639.5z M1316.6,639.4c0.8,0,1.3-0.5,1.3-1.3v-4h3.1l3.2,4.8
	c0.2,0.4,0.6,0.6,1.1,0.6c0.7,0,1.2-0.5,1.2-1.1c0-0.3-0.1-0.6-0.3-1l-2.5-3.7c1.7-0.7,2.7-2.1,2.7-4.1c0-2.7-2.1-4.5-4.9-4.5h-4.8
	c-0.8,0-1.3,0.5-1.3,1.3v11.7C1315.4,638.9,1315.9,639.4,1316.6,639.4z M1317.9,631.7v-4.2h3.6c1.3,0,2.2,0.8,2.2,2.1
	c0,1.3-0.9,2.1-2.2,2.1H1317.9z M1331.5,639.2h7.6c0.7,0,1.3-0.5,1.3-1.2c0-0.7-0.5-1.2-1.3-1.2h-6.4v-3.4h5.7
	c0.7,0,1.2-0.5,1.2-1.2c0-0.7-0.5-1.2-1.2-1.2h-5.7v-3.4h6.3c0.7,0,1.3-0.5,1.3-1.2c0-0.7-0.5-1.2-1.3-1.2h-7.6
	c-0.8,0-1.3,0.5-1.3,1.3V638C1330.3,638.7,1330.8,639.2,1331.5,639.2z"/>
<polygon class="st4" points="2378,-126.8 2378,378.8 1974,378.8 1974,705.2 2378,705.2 2624,705.2 3028,705.2 3028,-126.8 "/>
</svg>
