<svg width="22" height="22" viewBox="0 0 22 22" fill="none" xmlns="http://www.w3.org/2000/svg">
<path fill-rule="evenodd" clip-rule="evenodd" d="M10.7656 0.134033C4.8176 0.134033 0 4.95163 0 10.8996C0 15.6634 3.08165 19.687 7.36097 21.1135C7.89925 21.2077 8.1011 20.8847 8.1011 20.6021C8.1011 20.3464 8.08765 19.4986 8.08765 18.597C5.38279 19.0949 4.68303 17.9376 4.46772 17.3321C4.3466 17.0225 3.82178 16.0671 3.36425 15.8114C2.98745 15.6096 2.44917 15.1117 3.35079 15.0982C4.19858 15.0847 4.80414 15.8787 5.006 16.2017C5.9749 17.83 7.52245 17.3724 8.14147 17.0898C8.23567 16.3901 8.51827 15.9191 8.82778 15.6499C6.43244 15.3808 3.92944 14.4523 3.92944 10.3344C3.92944 9.16367 4.3466 8.19477 5.03291 7.44117C4.92526 7.17203 4.54846 6.06856 5.14057 4.58829C5.14057 4.58829 6.04218 4.3057 8.1011 5.69177C8.96235 5.44954 9.87743 5.32843 10.7925 5.32843C11.7076 5.32843 12.6226 5.44954 13.4839 5.69177C15.5428 4.29224 16.4444 4.58829 16.4444 4.58829C17.0365 6.06856 16.6597 7.17203 16.5521 7.44117C17.2384 8.19477 17.6556 9.15021 17.6556 10.3344C17.6556 14.4657 15.1391 15.3808 12.7438 15.6499C13.134 15.9864 13.4704 16.6323 13.4704 17.6416C13.4704 19.0815 13.457 20.2388 13.457 20.6021C13.457 20.8847 13.6588 21.2211 14.1971 21.1135C16.3343 20.392 18.1914 19.0185 19.507 17.1862C20.8227 15.354 21.5306 13.1553 21.5312 10.8996C21.5312 4.95163 16.7136 0.134033 10.7656 0.134033Z" fill="#2A1E71"/>
</svg>
