<svg width="160" height="110" viewBox="0 0 160 110" fill="none" xmlns="http://www.w3.org/2000/svg">
<path d="M68.2676 37.7141C72.5422 44.058 79.7445 48.1903 88.0009 48.1903C96.2573 48.1903 103.46 44.058 107.734 37.7141" stroke="black" stroke-width="6" stroke-miterlimit="10"/>
<ellipse cx="113.067" cy="70.1905" rx="2.13333" ry="2.09524" fill="#C4C4C4"/>
<rect x="1.5" y="1.5" width="157" height="107" rx="14.5" fill="white" stroke="#444444" stroke-width="3"/>
<path fill-rule="evenodd" clip-rule="evenodd" d="M31.2324 17.1287L33.9457 19.6551L31.2324 22.1816" fill="#6349FF"/>
<path d="M31.2324 17.1287L33.9457 19.6551L31.2324 22.1816" stroke="white" stroke-width="1.5" stroke-linecap="round" stroke-linejoin="round"/>
<path fill-rule="evenodd" clip-rule="evenodd" d="M24.9007 17.1287L22.1875 19.6551L24.9007 22.1816" fill="#6349FF"/>
<path d="M24.9007 17.1287L22.1875 19.6551L24.9007 22.1816" stroke="white" stroke-width="1.5" stroke-linecap="round" stroke-linejoin="round"/>
<path fill-rule="evenodd" clip-rule="evenodd" d="M28.9703 17.1287L27.1621 22.1816L28.9703 17.1287Z" fill="#6349FF"/>
<path d="M28.9703 17.1287L27.1621 22.1816" stroke="white" stroke-width="1.5" stroke-linecap="round" stroke-linejoin="round"/>
<rect x="16" y="37.7141" width="94.9333" height="13.619" rx="6.80952" fill="#E9E9E9"/>
<rect x="16" y="79.6191" width="49.0667" height="13.619" rx="6.80952" fill="#E9E9E9"/>
<rect x="16" y="16.762" width="125.867" height="13.619" rx="6.80952" fill="#E9E9E9"/>
<rect x="16" y="58.6667" width="106.667" height="13.619" rx="6.80952" fill="#E9E9E9"/>
<path d="M125.582 53.849L125.583 53.8496C126.952 56.1144 130.026 57.087 132.483 56.0564L132.487 56.0548L134.872 55.0317C134.873 55.0316 134.873 55.0314 134.873 55.0313C135.878 54.6058 136.642 54.6982 137.112 55.033C137.579 55.3657 137.905 56.0439 137.805 57.1176L137.562 59.6655L137.562 59.6666C137.317 62.2981 139.237 64.8752 141.82 65.4515L141.82 65.4516L144.363 66.018C144.363 66.018 144.363 66.018 144.363 66.018C145.428 66.2558 145.989 66.7753 146.17 67.3167C146.349 67.8548 146.212 68.5931 145.492 69.4015C145.492 69.4017 145.491 69.402 145.491 69.4022L143.768 71.3177L143.767 71.3194C142.006 73.2955 142.006 76.501 143.767 78.4771L143.768 78.4788L145.491 80.3943C145.491 80.3946 145.492 80.3948 145.492 80.395C146.213 81.2052 146.355 81.9441 146.177 82.4814C146 83.0203 145.441 83.5402 144.364 83.7783L144.363 83.7785L141.82 84.3449L141.82 84.345C139.236 84.9215 137.317 87.5213 137.562 90.1303L137.562 90.1311L137.805 92.6789C137.905 93.7526 137.579 94.4308 137.112 94.7635C136.642 95.0983 135.878 95.1908 134.873 94.7653C134.873 94.7651 134.873 94.765 134.872 94.7648L132.487 93.7417L132.485 93.7409C130.049 92.7088 126.952 93.6824 125.583 95.9469L125.582 95.9475L124.256 98.1474C123.695 99.0752 123.023 99.442 122.44 99.442C121.857 99.442 121.185 99.0752 120.624 98.1474L119.298 95.9475L119.297 95.9469C117.928 93.6821 114.854 92.7095 112.397 93.7402L112.393 93.7417L110.008 94.7648C110.007 94.765 110.007 94.7652 110.006 94.7653C109.002 95.1907 108.238 95.0983 107.768 94.7635C107.301 94.4309 106.975 93.753 107.074 92.6798C107.075 92.6795 107.075 92.6792 107.075 92.6789L107.318 90.1311L107.318 90.1299C107.563 87.4984 105.643 84.9213 103.06 84.345L103.06 84.3449L100.517 83.7785C99.4517 83.5408 98.8909 83.0213 98.7104 82.4798C98.531 81.9418 98.668 81.2036 99.3879 80.3953C99.3882 80.395 99.3884 80.3946 99.3887 80.3943L101.112 78.4789L101.113 78.4771C102.874 76.501 102.874 73.2955 101.113 71.3194L101.112 71.3177L99.3887 69.4022C99.3884 69.4019 99.3882 69.4016 99.3879 69.4013C98.6665 68.5912 98.5254 67.8523 98.7026 67.3152C98.8804 66.7762 99.4389 66.2563 100.516 66.0182L100.517 66.018L103.06 65.4516L103.06 65.4515C105.644 64.875 107.563 62.2752 107.318 59.6662L107.318 59.6655L107.075 57.1176C107.075 57.1173 107.075 57.1171 107.074 57.1168C106.975 56.0436 107.301 55.3656 107.768 55.033C108.238 54.6982 109.002 54.6058 110.007 55.0313C110.007 55.0314 110.007 55.0315 110.008 55.0317L112.393 56.0548L112.395 56.0557C114.831 57.0877 117.928 56.1142 119.297 53.8496L119.298 53.849L120.624 51.6491C120.624 51.649 120.624 51.6488 120.624 51.6487C120.624 51.6486 120.624 51.6486 120.624 51.6486C121.185 50.7211 121.857 50.3545 122.44 50.3545C123.023 50.3545 123.695 50.7212 124.256 51.6488C124.256 51.6489 124.256 51.649 124.256 51.6491L125.582 53.849Z" fill="#6349FF" stroke="#6349FF"/>
<ellipse cx="114.133" cy="73.3333" rx="2.13333" ry="2.09524" fill="white"/>
<ellipse cx="131.2" cy="73.3333" rx="2.13333" ry="2.09524" fill="white"/>
<path d="M121.039 75.305C121.039 73.3884 121.039 71.4719 121.039 69.5554C121.039 68.9506 121.097 68.3543 121.29 67.7751C121.71 66.5485 122.498 65.6797 123.706 65.2623C125.148 64.7597 126.583 64.879 127.958 65.5434C128.31 65.7137 128.621 65.9522 128.864 66.2844C129.183 66.7189 129.116 67.3151 128.721 67.6388C128.478 67.8347 128.076 67.8432 127.774 67.6984C127.321 67.477 126.868 67.2214 126.381 67.0681C125.836 66.8977 125.257 66.9148 124.704 67.0851C123.79 67.3577 123.362 68.0477 123.253 68.9676C123.228 69.2146 123.211 69.4617 123.211 69.7087C123.211 73.5673 123.211 77.4345 123.211 81.2931C123.211 82.0853 123.102 82.8605 122.766 83.5845C122.196 84.794 121.24 85.501 119.973 85.7736C118.891 86.0036 117.818 85.9354 116.778 85.5351C116.258 85.3392 115.771 85.0751 115.419 84.6152C115.142 84.2489 115.125 83.7634 115.377 83.4056C115.578 83.116 115.956 82.9712 116.283 83.099C116.56 83.2097 116.828 83.3545 117.088 83.4993C117.868 83.9337 118.698 84.0019 119.546 83.7719C120.326 83.5589 120.77 82.9797 120.946 82.2046C121.013 81.9064 121.03 81.5828 121.03 81.2761C121.047 79.2914 121.039 77.2982 121.039 75.305Z" fill="white"/>
</svg>
