<svg width="160" height="110" viewBox="0 0 160 110" fill="none" xmlns="http://www.w3.org/2000/svg">
<path d="M68.2676 37.7141C72.5422 44.058 79.7445 48.1903 88.0009 48.1903C96.2573 48.1903 103.46 44.058 107.734 37.7141" stroke="black" stroke-width="6" stroke-miterlimit="10"/>
<ellipse cx="113.067" cy="70.1905" rx="2.13333" ry="2.09524" fill="#C4C4C4"/>
<rect x="1.5" y="1.5" width="157" height="107" rx="14.5" fill="white" stroke="#444444" stroke-width="3"/>
<path d="M26 72C28.2091 72 30 73.7909 30 76L30 90C30 92.2091 28.2091 94 26 94L19 94C16.7909 94 15 92.2091 15 90L15 76C15 73.7909 16.7909 72 19 72L26 72Z" fill="#E9E9E9"/>
<path d="M45 57C47.2091 57 49 58.7909 49 61L49 90C49 92.2091 47.2091 94 45 94L38 94C35.7909 94 34 92.2091 34 90L34 61C34 58.7909 35.7909 57 38 57L45 57Z" fill="#E9E9E9"/>
<path d="M83 57C85.2091 57 87 58.7909 87 61L87 90C87 92.2091 85.2091 94 83 94L76 94C73.7909 94 72 92.2091 72 90L72 61C72 58.7909 73.7909 57 76 57L83 57Z" fill="#E9E9E9"/>
<path d="M103 68C105.209 68 107 69.7909 107 72L107 90C107 92.2091 105.209 94 103 94L96 94C93.7909 94 92 92.2091 92 90L92 72C92 69.7909 93.7909 68 96 68L103 68Z" fill="#E9E9E9"/>
<path d="M123 78C125.209 78 127 79.7909 127 82L127 90C127 92.2091 125.209 94 123 94L116 94C113.791 94 112 92.2091 112 90L112 82C112 79.7909 113.791 78 116 78L123 78Z" fill="#E9E9E9"/>
<path d="M142 68C144.209 68 146 69.7909 146 72L146 90C146 92.2091 144.209 94 142 94L135 94C132.791 94 131 92.2091 131 90L131 72C131 69.7909 132.791 68 135 68L142 68Z" fill="#E9E9E9"/>
<path d="M64 42C66.2091 42 68 43.7909 68 46L68 90C68 92.2091 66.2091 94 64 94L57 94C54.7909 94 53 92.2091 53 90L53 46C53 43.7909 54.7909 42 57 42L64 42Z" fill="#E9E9E9"/>
<path fill-rule="evenodd" clip-rule="evenodd" d="M69.7858 35.9211C71.5825 35.9211 72.7025 33.9727 71.8041 32.4211L63.0191 17.2427C62.1208 15.6911 59.8808 15.6911 58.9825 17.2427L50.1975 32.4211C49.2991 33.9727 50.4191 35.9211 52.2158 35.9211H69.7858ZM61.0008 27.7544C60.3591 27.7544 59.8341 27.2294 59.8341 26.5877V24.2544C59.8341 23.6127 60.3591 23.0877 61.0008 23.0877C61.6425 23.0877 62.1675 23.6127 62.1675 24.2544V26.5877C62.1675 27.2294 61.6425 27.7544 61.0008 27.7544ZM59.8341 30.0877V32.4211H62.1675V30.0877H59.8341Z" fill="#6349FF"/>
</svg>
