<svg width="160" height="110" viewBox="0 0 160 110" fill="none" xmlns="http://www.w3.org/2000/svg">
<rect x="1.5" y="1.5" width="157" height="107" rx="14.5" fill="white" stroke="#444444" stroke-width="3"/>
<path d="M31.3529 49.062L31.3533 49.0625C32.052 50.2183 33.606 50.7072 34.8533 50.1839L34.8533 50.1839L34.8569 50.1823L35.9497 49.7137C35.95 49.7136 35.9503 49.7134 35.9507 49.7133C36.3568 49.5415 36.5998 49.6043 36.7139 49.6856C36.8247 49.7645 36.9591 49.9647 36.9192 50.3949C36.9192 50.3952 36.9192 50.3954 36.9191 50.3956L36.8077 51.5632L36.8076 51.5643C36.6824 52.9098 37.6564 54.2127 38.9705 54.5059L38.9706 54.5059L40.1361 54.7656C40.567 54.8617 40.7237 55.0539 40.7666 55.1824C40.8083 55.3076 40.7999 55.5473 40.5112 55.8718C40.5109 55.8721 40.5106 55.8724 40.5103 55.8727L39.7212 56.75L39.7197 56.7517C38.8209 57.7604 38.8209 59.3849 39.7197 60.3936L39.7212 60.3953L40.5103 61.2726C40.5106 61.2729 40.5109 61.2732 40.5112 61.2735C40.8014 61.5998 40.8109 61.8402 40.7699 61.9645C40.7283 62.0905 40.5739 62.283 40.1371 62.3795L40.1363 62.3797L38.9706 62.6394L38.9705 62.6394C37.6554 62.9329 36.6822 64.2466 36.8077 65.5815L36.8077 65.5822L36.9191 66.7497C36.9192 66.7499 36.9192 66.7502 36.9192 66.7504C36.9591 67.1806 36.8247 67.3808 36.7139 67.4597C36.5998 67.541 36.3567 67.6038 35.9505 67.4319C35.9502 67.4318 35.95 67.4317 35.9497 67.4316L34.857 66.963L34.855 66.9621C33.6166 66.4374 32.0519 66.9272 31.3533 68.0828L31.3529 68.0833L30.7451 69.0916C30.7451 69.0917 30.745 69.0917 30.745 69.0917C30.5193 69.465 30.2869 69.5545 30.1441 69.5545C30.0014 69.5545 29.7689 69.465 29.5432 69.0917C29.5432 69.0917 29.5432 69.0917 29.5432 69.0916L28.9353 68.0833L28.935 68.0828C28.2363 66.927 26.6823 66.4381 25.4349 66.9615L25.4349 66.9614L25.4313 66.963L24.3386 67.4316C24.3383 67.4317 24.338 67.4318 24.3377 67.432C23.9316 67.6038 23.6885 67.541 23.5744 67.4597C23.4636 67.3808 23.3292 67.1806 23.3691 66.7504C23.3691 66.7501 23.3691 66.7499 23.3691 66.7497L23.4805 65.5822L23.4806 65.581C23.6059 64.2356 22.6319 62.9326 21.3178 62.6394L21.3176 62.6394L20.1521 62.3797C20.1521 62.3797 20.1521 62.3797 20.1521 62.3797C20.152 62.3797 20.152 62.3797 20.152 62.3797C19.7212 62.2836 19.5645 62.0914 19.5217 61.9629C19.4799 61.8377 19.4884 61.598 19.7772 61.2734C19.7775 61.2731 19.7777 61.2729 19.7779 61.2726L20.567 60.3953L20.5686 60.3936C21.4673 59.3849 21.4673 57.7604 20.5686 56.7517L20.567 56.75L19.7779 55.8727C19.7777 55.8725 19.7775 55.8722 19.7772 55.8719C19.4868 55.5456 19.4774 55.3052 19.5184 55.1808C19.5599 55.0548 19.7144 54.8623 20.1511 54.7658L20.152 54.7656L21.3176 54.5059L21.3178 54.5059C22.6329 54.2125 23.606 52.8987 23.4806 51.5639L23.4805 51.5632L23.3691 50.3956C23.3691 50.3954 23.3691 50.3952 23.3691 50.3949C23.3292 49.9648 23.4636 49.7645 23.5744 49.6856C23.6885 49.6043 23.9315 49.5415 24.3376 49.7133C24.3379 49.7135 24.3383 49.7136 24.3386 49.7137L25.4313 50.1823L25.4313 50.1823L25.4333 50.1832C26.6717 50.7079 28.2364 50.2181 28.935 49.0625L28.9353 49.062L29.5432 48.0537C29.7689 47.6803 30.0014 47.5908 30.1441 47.5908C30.2869 47.5908 30.5194 47.6803 30.7451 48.0537L31.3529 49.062Z" fill="#2A1E71" stroke="#2A1E71"/>
<path d="M31.3529 76.9712L31.3533 76.9717C32.052 78.1275 33.606 78.6164 34.8533 78.0931L34.8533 78.0931L34.8569 78.0915L35.9497 77.6229C35.95 77.6228 35.9503 77.6226 35.9507 77.6225C36.3568 77.4507 36.5998 77.5135 36.7139 77.5948C36.8247 77.6737 36.9591 77.8739 36.9192 78.3041C36.9192 78.3043 36.9192 78.3046 36.9191 78.3048L36.8077 79.4723L36.8076 79.4735C36.6824 80.819 37.6564 82.1219 38.9705 82.4151L38.9706 82.4151L40.1361 82.6748C40.567 82.7709 40.7237 82.963 40.7666 83.0916C40.8083 83.2168 40.7999 83.4565 40.5112 83.781C40.5109 83.7813 40.5106 83.7816 40.5103 83.7819L39.7212 84.6592L39.7197 84.6609C38.8209 85.6696 38.8209 87.2941 39.7197 88.3028L39.7212 88.3045L40.5103 89.1818C40.5106 89.1821 40.5109 89.1824 40.5112 89.1827C40.8014 89.5089 40.8109 89.7493 40.7699 89.8737C40.7283 89.9997 40.5739 90.1922 40.1371 90.2887L40.1363 90.2889L38.9706 90.5486L38.9705 90.5486C37.6554 90.842 36.6822 92.1558 36.8077 93.4906L36.8077 93.4914L36.9191 94.6589C36.9192 94.6591 36.9192 94.6594 36.9192 94.6596C36.9591 95.0898 36.8247 95.29 36.7139 95.3689C36.5998 95.4502 36.3567 95.513 35.9505 95.3411C35.9502 95.341 35.95 95.3409 35.9497 95.3408L34.857 94.8722L34.855 94.8713C33.6166 94.3466 32.0519 94.8364 31.3533 95.992L31.3529 95.9925L30.7451 97.0008C30.7451 97.0008 30.745 97.0009 30.745 97.0009C30.5193 97.3742 30.2869 97.4637 30.1441 97.4637C30.0014 97.4637 29.7689 97.3742 29.5432 97.0009C29.5432 97.0009 29.5432 97.0008 29.5432 97.0008L28.9353 95.9925L28.935 95.992C28.2363 94.8362 26.6823 94.3473 25.4349 94.8706L25.4349 94.8706L25.4313 94.8722L24.3386 95.3408C24.3383 95.3409 24.338 95.341 24.3377 95.3411C23.9316 95.513 23.6885 95.4502 23.5744 95.3689C23.4636 95.29 23.3292 95.0897 23.3691 94.6595C23.3691 94.6593 23.3691 94.6591 23.3691 94.6589L23.4805 93.4914L23.4806 93.4902C23.6059 92.1447 22.6319 90.8418 21.3178 90.5486L21.3176 90.5486L20.1521 90.2889C20.1521 90.2889 20.1521 90.2889 20.1521 90.2889C20.152 90.2889 20.152 90.2889 20.152 90.2889C19.7212 90.1927 19.5645 90.0006 19.5217 89.8721C19.4799 89.7469 19.4884 89.5072 19.7772 89.1826C19.7775 89.1823 19.7777 89.182 19.7779 89.1818L20.567 88.3045L20.5686 88.3028C21.4673 87.2941 21.4673 85.6696 20.5686 84.6609L20.567 84.6592L19.7779 83.7819C19.7777 83.7817 19.7775 83.7814 19.7772 83.7811C19.4868 83.4548 19.4774 83.2144 19.5184 83.09C19.5599 82.964 19.7144 82.7715 20.1511 82.675L20.152 82.6748L21.3176 82.4151L21.3178 82.4151C22.6329 82.1217 23.606 80.8079 23.4806 79.473L23.4805 79.4723L23.3691 78.3048C23.3691 78.3046 23.3691 78.3044 23.3691 78.3041C23.3292 77.8739 23.4636 77.6737 23.5744 77.5948C23.6885 77.5135 23.9315 77.4507 24.3376 77.6225C24.3379 77.6226 24.3383 77.6228 24.3386 77.6229L25.4313 78.0915L25.4313 78.0915L25.4333 78.0924C26.6717 78.6171 28.2364 78.1273 28.935 76.9717L28.9353 76.9712L29.5432 75.9629C29.7689 75.5895 30.0014 75.5 30.1441 75.5C30.2869 75.5 30.5194 75.5895 30.7451 75.9629L31.3529 76.9712Z" fill="#2A1E71" stroke="#2A1E71"/>
<rect x="52" y="52" width="89" height="13" rx="6.5" fill="#E9E9E9"/>
<rect x="52" y="79.9092" width="89" height="13" rx="6.5" fill="#E9E9E9"/>
<rect x="17" y="18" width="124" height="19" rx="9.5" fill="white" stroke="#AFAFAF" stroke-width="2"/>
<path fill-rule="evenodd" clip-rule="evenodd" d="M30.2702 30.4015C32.3176 29.5314 33.2719 27.1663 32.4018 25.1189C31.5317 23.0715 29.1666 22.1171 27.1192 22.9873C25.0718 23.8574 24.1175 26.2225 24.9876 28.2699C25.8577 30.3172 28.2228 31.2716 30.2702 30.4015Z" stroke="#6349FF" stroke-width="1.5" stroke-linecap="round" stroke-linejoin="round"/>
<path d="M31.543 29.5422L34.667 32.6667" stroke="#6349FF" stroke-width="1.5" stroke-linecap="round" stroke-linejoin="round"/>
</svg>
