<svg width="40" height="40" viewBox="0 0 40 40" fill="none" xmlns="http://www.w3.org/2000/svg">
<rect width="40" height="40" rx="6" fill="#F7EDED"/>
<path fill-rule="evenodd" clip-rule="evenodd" d="M23.75 29C26.6495 29 29 26.6495 29 23.75C29 20.8505 26.6495 18.5 23.75 18.5C20.8505 18.5 18.5 20.8505 18.5 23.75C18.5 26.6495 20.8505 29 23.75 29Z" stroke="#2A1E71" stroke-width="1.5" stroke-linecap="round" stroke-linejoin="round"/>
<path fill-rule="evenodd" clip-rule="evenodd" d="M23.75 29C26.6495 29 29 26.6495 29 23.75C29 20.8505 26.6495 18.5 23.75 18.5C20.8505 18.5 18.5 20.8505 18.5 23.75C18.5 26.6495 20.8505 29 23.75 29Z" stroke="black" stroke-opacity="0.2" stroke-width="1.5" stroke-linecap="round" stroke-linejoin="round"/>
<path d="M31.2499 31.25L27.4619 27.462" stroke="#2A1E71" stroke-width="1.5" stroke-linecap="round" stroke-linejoin="round"/>
<path d="M31.2499 31.25L27.4619 27.462" stroke="black" stroke-opacity="0.2" stroke-width="1.5" stroke-linecap="round" stroke-linejoin="round"/>
<path d="M20 31.25C13.7868 31.25 8.75 26.2132 8.75 20C8.75 13.7868 13.7868 8.75 20 8.75C26.2132 8.75 31.25 13.7868 31.25 20" stroke="#2A1E71" stroke-width="1.5" stroke-linecap="round" stroke-linejoin="round"/>
<path d="M20 31.25C13.7868 31.25 8.75 26.2132 8.75 20C8.75 13.7868 13.7868 8.75 20 8.75C26.2132 8.75 31.25 13.7868 31.25 20" stroke="black" stroke-opacity="0.2" stroke-width="1.5" stroke-linecap="round" stroke-linejoin="round"/>
<path d="M17.289 30.921C15.768 28.689 14.75 24.633 14.75 20C14.75 15.367 15.768 11.312 17.289 9.07898" stroke="#2A1E71" stroke-width="1.5" stroke-linecap="round" stroke-linejoin="round"/>
<path d="M17.289 30.921C15.768 28.689 14.75 24.633 14.75 20C14.75 15.367 15.768 11.312 17.289 9.07898" stroke="black" stroke-opacity="0.2" stroke-width="1.5" stroke-linecap="round" stroke-linejoin="round"/>
<path d="M8.7749 19.25H16.9999" stroke="#2A1E71" stroke-width="1.5" stroke-linecap="round" stroke-linejoin="round"/>
<path d="M8.7749 19.25H16.9999" stroke="black" stroke-opacity="0.2" stroke-width="1.5" stroke-linecap="round" stroke-linejoin="round"/>
<path d="M10.999 13.25H29" stroke="#2A1E71" stroke-width="1.5" stroke-linecap="round" stroke-linejoin="round"/>
<path d="M10.999 13.25H29" stroke="black" stroke-opacity="0.2" stroke-width="1.5" stroke-linecap="round" stroke-linejoin="round"/>
<path d="M10.0481 25.25H15.2141" stroke="#2A1E71" stroke-width="1.5" stroke-linecap="round" stroke-linejoin="round"/>
<path d="M10.0481 25.25H15.2141" stroke="black" stroke-opacity="0.2" stroke-width="1.5" stroke-linecap="round" stroke-linejoin="round"/>
<path d="M22.7109 9.07898C23.8892 11.0382 24.639 13.2249 24.9109 15.495" stroke="#2A1E71" stroke-width="1.5" stroke-linecap="round" stroke-linejoin="round"/>
<path d="M22.7109 9.07898C23.8892 11.0382 24.639 13.2249 24.9109 15.495" stroke="black" stroke-opacity="0.2" stroke-width="1.5" stroke-linecap="round" stroke-linejoin="round"/>
</svg>