<svg width="461" height="204" viewBox="0 0 461 204" fill="none" xmlns="http://www.w3.org/2000/svg">
<path fill-rule="evenodd" clip-rule="evenodd" d="M252.307 112.127C254.796 112.131 257.009 110.542 257.799 108.181C258.589 105.821 257.78 103.219 255.79 101.723C253.8 100.228 251.076 100.174 249.029 101.589C248.161 96.9699 243.848 93.823 239.184 94.4056C234.52 94.9882 231.114 99.0992 231.409 103.79C231.704 108.482 235.598 112.133 240.298 112.127H252.307Z" stroke="white" stroke-width="3" stroke-linecap="round" stroke-linejoin="round"/>
<rect x="382.014" y="79.5" width="77" height="50" rx="6.5" fill="#2A1E71" stroke="white" stroke-width="3"/>
<path d="M403.827 108.205C404.579 108.205 405.017 107.706 405.311 106.804L406.842 102.347L408.366 106.804C408.674 107.733 409.132 108.205 409.843 108.205C410.649 108.205 411.06 107.61 411.299 106.804L413.008 101.458C413.056 101.314 413.076 101.178 413.076 101.075C413.076 100.61 412.714 100.289 412.229 100.289C411.818 100.289 411.511 100.528 411.408 100.932L409.747 106.305L407.997 101.273C407.819 100.74 407.539 100.296 406.835 100.296C406.145 100.296 405.857 100.74 405.68 101.273L403.937 106.284L402.269 100.932C402.166 100.521 401.865 100.289 401.448 100.289C400.963 100.289 400.607 100.61 400.607 101.075C400.607 101.185 400.628 101.314 400.669 101.458L402.385 106.804C402.61 107.59 403.021 108.205 403.827 108.205ZM417.499 108.205C418.251 108.205 418.688 107.706 418.982 106.804L420.514 102.347L422.038 106.804C422.346 107.733 422.804 108.205 423.515 108.205C424.321 108.205 424.731 107.61 424.971 106.804L426.68 101.458C426.728 101.314 426.748 101.178 426.748 101.075C426.748 100.61 426.386 100.289 425.9 100.289C425.49 100.289 425.183 100.528 425.08 100.932L423.419 106.305L421.669 101.273C421.491 100.74 421.211 100.296 420.507 100.296C419.816 100.296 419.529 100.74 419.352 101.273L417.608 106.284L415.94 100.932C415.838 100.521 415.537 100.289 415.12 100.289C414.635 100.289 414.279 100.61 414.279 101.075C414.279 101.185 414.3 101.314 414.341 101.458L416.057 106.804C416.282 107.59 416.692 108.205 417.499 108.205ZM431.171 108.205C431.923 108.205 432.36 107.706 432.654 106.804L434.186 102.347L435.71 106.804C436.018 107.733 436.476 108.205 437.187 108.205C437.993 108.205 438.403 107.61 438.643 106.804L440.352 101.458C440.399 101.314 440.42 101.178 440.42 101.075C440.42 100.61 440.058 100.289 439.572 100.289C439.162 100.289 438.854 100.528 438.752 100.932L437.091 106.305L435.341 101.273C435.163 100.74 434.883 100.296 434.179 100.296C433.488 100.296 433.201 100.74 433.023 101.273L431.28 106.284L429.612 100.932C429.51 100.521 429.209 100.289 428.792 100.289C428.307 100.289 427.951 100.61 427.951 101.075C427.951 101.185 427.972 101.314 428.013 101.458L429.729 106.804C429.954 107.59 430.364 108.205 431.171 108.205Z" fill="white"/>
<path d="M11.3057 19.664V18.256C11.3377 16.464 11.5617 16.048 12.9057 14.8C13.2257 14.512 13.2257 14.512 13.2257 14.512C15.1457 12.528 15.1457 12.528 15.1457 12.528C15.9777 11.472 16.4897 10.32 16.4897 8.688C16.4897 4.912 13.6737 2.768 10.0897 2.768C6.34567 2.768 3.59367 5.008 3.04967 8.72L6.31367 9.04C6.56967 6.928 7.94567 5.456 10.0257 5.456C11.9137 5.456 13.4177 6.896 13.4177 8.848C13.4177 10.768 11.8497 11.984 10.5057 13.296C8.84167 14.896 8.23367 15.376 8.23367 17.712V19.664H11.3057ZM7.62567 24.08C7.62567 25.232 8.58567 26.192 9.73767 26.192C10.8897 26.192 11.8497 25.232 11.8497 24.08C11.8497 22.928 10.8897 21.968 9.73767 21.968C8.58567 21.968 7.62567 22.928 7.62567 24.08Z" fill="white"/>
<path d="M11.3057 79.664V78.256C11.3377 76.464 11.5617 76.048 12.9057 74.8C13.2257 74.512 13.2257 74.512 13.2257 74.512C15.1457 72.528 15.1457 72.528 15.1457 72.528C15.9777 71.472 16.4897 70.32 16.4897 68.688C16.4897 64.912 13.6737 62.768 10.0897 62.768C6.34567 62.768 3.59367 65.008 3.04967 68.72L6.31367 69.04C6.56967 66.928 7.94567 65.456 10.0257 65.456C11.9137 65.456 13.4177 66.896 13.4177 68.848C13.4177 70.768 11.8497 71.984 10.5057 73.296C8.84167 74.896 8.23367 75.376 8.23367 77.712V79.664H11.3057ZM7.62567 84.08C7.62567 85.232 8.58567 86.192 9.73767 86.192C10.8897 86.192 11.8497 85.232 11.8497 84.08C11.8497 82.928 10.8897 81.968 9.73767 81.968C8.58567 81.968 7.62567 82.928 7.62567 84.08Z" fill="white"/>
<path d="M11.3057 196.664V195.256C11.3377 193.464 11.5617 193.048 12.9057 191.8C13.2257 191.512 13.2257 191.512 13.2257 191.512C15.1457 189.528 15.1457 189.528 15.1457 189.528C15.9777 188.472 16.4897 187.32 16.4897 185.688C16.4897 181.912 13.6737 179.768 10.0897 179.768C6.34567 179.768 3.59367 182.008 3.04967 185.72L6.31367 186.04C6.56967 183.928 7.94567 182.456 10.0257 182.456C11.9137 182.456 13.4177 183.896 13.4177 185.848C13.4177 187.768 11.8497 188.984 10.5057 190.296C8.84167 191.896 8.23367 192.376 8.23367 194.712V196.664H11.3057ZM7.62567 201.08C7.62567 202.232 8.58567 203.192 9.73767 203.192C10.8897 203.192 11.8497 202.232 11.8497 201.08C11.8497 199.928 10.8897 198.968 9.73767 198.968C8.58567 198.968 7.62567 199.928 7.62567 201.08Z" fill="white"/>
<line x1="29.5137" y1="135" x2="81.5137" y2="135" stroke="white" stroke-width="4" stroke-linecap="round" stroke-dasharray="0.1 10"/>
<line x1="81.5137" y1="183" x2="81.5137" y2="143" stroke="white" stroke-width="4" stroke-linecap="round" stroke-dasharray="0.1 10"/>
<line x1="29.5137" y1="193" x2="81.5137" y2="193" stroke="white" stroke-width="4" stroke-linecap="round" stroke-dasharray="0.1 10"/>
<line x1="29.5137" y1="18" x2="81.5137" y2="18" stroke="white" stroke-width="4" stroke-linecap="round" stroke-dasharray="0.1 10"/>
<line x1="81.5137" y1="66" x2="81.5137" y2="26" stroke="white" stroke-width="4" stroke-linecap="round" stroke-dasharray="0.1 10"/>
<line x1="29.5137" y1="76" x2="81.5137" y2="76" stroke="white" stroke-width="4" stroke-linecap="round" stroke-dasharray="0.1 10"/>
<line x1="92.5137" y1="46" x2="144.514" y2="46" stroke="white" stroke-width="4" stroke-linecap="round" stroke-dasharray="0.1 10"/>
<line x1="144.514" y1="154" x2="144.514" y2="54" stroke="white" stroke-width="4" stroke-linecap="round" stroke-dasharray="0.1 10"/>
<line x1="215.514" y1="104" x2="154.514" y2="104" stroke="white" stroke-width="4" stroke-linecap="round" stroke-dasharray="0.1 10"/>
<line x1="370.514" y1="105" x2="273.514" y2="105" stroke="white" stroke-width="4" stroke-linecap="round" stroke-dasharray="0.1 10"/>
<line x1="92.5137" y1="163" x2="144.514" y2="163" stroke="white" stroke-width="4" stroke-linecap="round" stroke-dasharray="0.1 10"/>
<circle cx="9.7322" cy="131.712" r="9.71218" fill="white"/>
<rect x="0.0200195" y="131.712" width="19.4244" height="12.7646" fill="white"/>
<rect y="144.477" width="4.62338" height="4.62338" transform="rotate(-45 0 144.477)" fill="white"/>
<rect x="6.47266" y="144.477" width="4.62338" height="4.62338" transform="rotate(-45 6.47266 144.477)" fill="white"/>
<rect x="12.9448" y="144.477" width="4.62338" height="4.62338" transform="rotate(-45 12.9448 144.477)" fill="white"/>
<circle cx="8.1461" cy="132.319" r="2.71544" fill="#2A1E71"/>
<circle cx="15.2062" cy="132.319" r="2.71544" fill="#2A1E71"/>
</svg>
