<?xml version="1.0" encoding="utf-8"?>
<!-- Generator: Adobe Illustrator 19.1.0, SVG Export Plug-In . SVG Version: 6.00 Build 0)  -->
<svg version="1.1" id="Layer_1" xmlns="http://www.w3.org/2000/svg" xmlns:xlink="http://www.w3.org/1999/xlink" x="0px" y="0px"
	 viewBox="-67 195.3 461 205" style="enable-background:new -67 195.3 461 205;" xml:space="preserve">
<style type="text/css">
	.st0{fill:#FFFFFF;}
</style>
<g>
	<path class="st0" d="M188.4,291.6c-1.9-1.5-4.5-1.9-6.7-1.1c-1.7-4.3-6.2-7.1-11-6.5c-5.5,0.7-9.4,5.5-9.1,11
		c0.4,5.4,4.9,9.7,10.4,9.7h12c3.1,0,5.9-2,6.9-5C191.9,296.8,190.9,293.5,188.4,291.6z M188.1,298.8c-0.6,1.7-2.3,2.9-4.1,2.9h-12
		c-3.9,0-7.2-3-7.4-6.9c-0.2-3.9,2.6-7.3,6.5-7.8c0.3-0.1,0.6-0.1,0.9-0.1c3.5,0,6.6,2.5,7.3,6.1c0.1,0.5,0.5,1,0.9,1.1
		c0.4,0.1,1,0.1,1.4-0.2c1.5-1,3.5-1,5,0.1S188.7,297,188.1,298.8z"/>
	<path class="st0" d="M379.2,269.1h-64c-4.4,0-8,3.6-8,8v37c0,4.4,3.6,8,8,8h64c4.4,0,8-3.6,8-8v-37
		C387.2,272.7,383.6,269.1,379.2,269.1z M384.2,314.1c0,2.8-2.2,5-5,5h-64c-2.8,0-5-2.2-5-5v-37c0-2.8,2.2-5,5-5h64c2.8,0,5,2.2,5,5
		V314.1z"/>
	<path class="st0" d="M366.4,291.4c-0.4,0-0.7,0.2-0.8,0.6l-1.7,5.4l-1.8-5c-0.2-0.5-0.5-1-1.2-1s-1,0.4-1.2,1l-1.7,5l-1.7-5.4
		c-0.1-0.4-0.4-0.6-0.8-0.6c-0.5,0-0.8,0.3-0.8,0.8c0,0.1,0,0.2,0.1,0.4l1.7,5.3c0.2,0.8,0.6,1.4,1.4,1.4s1.2-0.5,1.5-1.4l1.5-4.5
		l1.5,4.5c0.3,0.9,0.8,1.4,1.5,1.4c0.8,0,1.2-0.6,1.5-1.4l1.7-5.3c0-0.1,0.1-0.3,0.1-0.4C367.2,291.7,366.8,291.4,366.4,291.4z"/>
	<path class="st0" d="M339,291.4c-0.4,0-0.7,0.2-0.8,0.6l-1.7,5.4l-1.8-5c-0.2-0.5-0.5-1-1.2-1s-1,0.4-1.2,1l-1.7,5l-1.7-5.4
		c-0.1-0.4-0.4-0.6-0.8-0.6c-0.5,0-0.8,0.3-0.8,0.8c0,0.1,0,0.2,0.1,0.4l1.7,5.3c0.2,0.8,0.6,1.4,1.4,1.4s1.2-0.5,1.5-1.4l1.5-4.5
		l1.5,4.5c0.3,0.9,0.8,1.4,1.5,1.4c0.8,0,1.2-0.6,1.5-1.4l1.7-5.3c0-0.1,0.1-0.3,0.1-0.4C339.8,291.7,339.4,291.4,339,291.4z"/>
	<path class="st0" d="M352.7,291.4c-0.4,0-0.7,0.2-0.8,0.6l-1.7,5.4l-1.8-5c-0.2-0.5-0.5-1-1.2-1s-1,0.4-1.2,1l-1.7,5l-1.7-5.4
		c-0.1-0.4-0.4-0.6-0.8-0.6c-0.5,0-0.8,0.3-0.8,0.8c0,0.1,0,0.2,0.1,0.4l1.7,5.3c0.2,0.8,0.6,1.4,1.4,1.4s1.2-0.5,1.5-1.4l1.5-4.5
		l1.5,4.5c0.3,0.9,0.8,1.4,1.5,1.4c0.8,0,1.2-0.6,1.5-1.4l1.7-5.3c0-0.1,0.1-0.3,0.1-0.4C353.5,291.7,353.1,291.4,352.7,291.4z"/>
	<path class="st0" d="M-57.6,203.3c0.9,0,1.6-0.5,1.9-1.4c0.6-1.9,2-3.3,4-3.3s3.5,1.2,3.5,2.9c0,1.5-1.1,2.3-2.7,3.5
		c-2.1,1.7-2.8,3.3-2.8,5c-0.1,1.1,0.6,1.7,1.6,1.7c0.9,0,1.7-0.4,1.9-1.4c0.2-1.4,1.4-2.5,3.1-3.9c1.8-1.5,2.8-3,2.8-5.3
		c0-3.3-2.9-5.8-7.1-5.8c-3.1,0-5.4,1.2-6.8,3.1c-0.5,0.7-1.1,2.1-1.1,3C-59.3,202.4-58.7,203.3-57.6,203.3z"/>
	<path class="st0" d="M-52.1,213.1c-1.4,0-2.6,1.2-2.6,2.7c0,1.6,1.1,2.7,2.6,2.7s2.6-1.1,2.6-2.7
		C-49.5,214.3-50.6,213.1-52.1,213.1z"/>
	<path class="st0" d="M-52.1,273.1c-1.4,0-2.6,1.2-2.6,2.7c0,1.6,1.1,2.7,2.6,2.7s2.6-1.1,2.6-2.7
		C-49.5,274.3-50.6,273.1-52.1,273.1z"/>
	<path class="st0" d="M-57.6,263.3c0.9,0,1.6-0.5,1.9-1.4c0.6-1.9,2-3.3,4-3.3s3.5,1.2,3.5,2.9c0,1.5-1.1,2.3-2.7,3.5
		c-2.1,1.7-2.8,3.3-2.8,5c-0.1,1.1,0.6,1.7,1.6,1.7c0.9,0,1.7-0.4,1.9-1.4c0.2-1.4,1.4-2.5,3.1-3.9c1.8-1.5,2.8-3,2.8-5.3
		c0-3.3-2.9-5.8-7.1-5.8c-3.1,0-5.4,1.2-6.8,3.1c-0.5,0.7-1.1,2.1-1.1,3C-59.3,262.4-58.7,263.3-57.6,263.3z"/>
	<path class="st0" d="M-52.1,390.1c-1.4,0-2.6,1.2-2.6,2.7c0,1.6,1.1,2.7,2.6,2.7s2.6-1.1,2.6-2.7
		C-49.5,391.3-50.6,390.1-52.1,390.1z"/>
	<path class="st0" d="M-51.4,372.3c-3.1,0-5.4,1.2-6.8,3.1c-0.5,0.7-1.1,2.1-1.1,3c0,1,0.6,1.9,1.7,1.9c0.9,0,1.6-0.5,1.9-1.4
		c0.6-1.9,2-3.3,4-3.3s3.5,1.2,3.5,2.9c0,1.5-1.1,2.3-2.7,3.5c-2.1,1.7-2.8,3.3-2.8,5c-0.1,1.1,0.6,1.7,1.6,1.7
		c0.9,0,1.7-0.4,1.9-1.4c0.2-1.4,1.4-2.5,3.1-3.9c1.8-1.5,2.8-3,2.8-5.3C-44.3,374.8-47.2,372.3-51.4,372.3z"/>
	<path class="st0" d="M20.3,206.1L20.3,206.1c-1.2,0-2.1,0.9-2.1,2c0,1.1,0.9,2,2,2h0.1c1.1,0,2-0.9,2-2
		C22.3,207,21.4,206.1,20.3,206.1z"/>
	<path class="st0" d="M-10.9,206.1H-11c-1.1,0-2,0.9-2,2c0,1.1,0.9,2,2,2h0.1c1.1,0,2-0.9,2-2C-8.9,207-9.8,206.1-10.9,206.1z"/>
	<path class="st0" d="M-21.3,206.1L-21.3,206.1c-1.2,0-2.1,0.9-2.1,2c0,1.1,0.9,2,2,2h0.1c1.1,0,2-0.9,2-2
		C-19.3,207-20.2,206.1-21.3,206.1z"/>
	<path class="st0" d="M-31.7,206.1h-0.1c-1.1,0-2,0.9-2,2c0,1.1,0.9,2,2,2h0.1c1.1,0,2-0.9,2-2C-29.7,207-30.6,206.1-31.7,206.1z"/>
	<path class="st0" d="M9.9,206.1H9.8c-1.1,0-2,0.9-2,2c0,1.1,0.9,2,2,2h0.1c1.1,0,2-0.9,2-2C11.9,207,11,206.1,9.9,206.1z"/>
	<path class="st0" d="M-0.5,206.1L-0.5,206.1c-1.2,0-2.1,0.9-2.1,2c0,1.1,0.9,2,2,2h0.1c1.1,0,2-0.9,2-2
		C1.5,207,0.6,206.1-0.5,206.1z"/>
	<path class="st0" d="M20.2,248.1c1.1,0,2-0.9,2-2V246c0-1.1-0.9-2-2-2s-2,0.9-2,2v0.1C18.2,247.2,19.1,248.1,20.2,248.1z"/>
	<path class="st0" d="M20.2,258.1c1.1,0,2-0.9,2-2c0-1.1-0.9-2-2-2s-2,0.9-2,2C18.2,257.2,19.1,258.1,20.2,258.1z"/>
	<path class="st0" d="M20.2,219.1c1.1,0,2-0.9,2-2c0-1.1-0.9-2-2-2s-2,0.9-2,2C18.2,218.2,19.1,219.1,20.2,219.1z"/>
	<path class="st0" d="M20.2,238.1c1.1,0,2-0.9,2-2V236c0-1.1-0.9-2-2-2s-2,0.9-2,2v0.1C18.2,237.2,19.1,238.1,20.2,238.1z"/>
	<path class="st0" d="M20.2,228.1c1.1,0,2-0.9,2-2V226c0-1.1-0.9-2-2-2s-2,0.9-2,2v0.1C18.2,227.2,19.1,228.1,20.2,228.1z"/>
	<path class="st0" d="M9.9,264.1H9.8c-1.1,0-2,0.9-2,2c0,1.1,0.9,2,2,2h0.1c1.1,0,2-0.9,2-2C11.9,265,11,264.1,9.9,264.1z"/>
	<path class="st0" d="M20.3,264.1L20.3,264.1c-1.2,0-2.1,0.9-2.1,2c0,1.1,0.9,2,2,2h0.1c1.1,0,2-0.9,2-2
		C22.3,265,21.4,264.1,20.3,264.1z"/>
	<path class="st0" d="M-31.7,264.1h-0.1c-1.1,0-2,0.9-2,2c0,1.1,0.9,2,2,2h0.1c1.1,0,2-0.9,2-2C-29.7,265-30.6,264.1-31.7,264.1z"/>
	<path class="st0" d="M-21.3,264.1L-21.3,264.1c-1.2,0-2.1,0.9-2.1,2c0,1.1,0.9,2,2,2h0.1c1.1,0,2-0.9,2-2
		C-19.3,265-20.2,264.1-21.3,264.1z"/>
	<path class="st0" d="M-10.9,264.1H-11c-1.1,0-2,0.9-2,2c0,1.1,0.9,2,2,2h0.1c1.1,0,2-0.9,2-2C-8.9,265-9.8,264.1-10.9,264.1z"/>
	<path class="st0" d="M-0.5,264.1L-0.5,264.1c-1.2,0-2.1,0.9-2.1,2c0,1.1,0.9,2,2,2h0.1c1.1,0,2-0.9,2-2
		C1.5,265,0.6,264.1-0.5,264.1z"/>
	<path class="st0" d="M40.7,234.1L40.7,234.1c-1.2,0-2.1,0.9-2.1,2c0,1.1,0.9,2,2,2h0.1c1.1,0,2-0.9,2-2
		C42.7,235,41.8,234.1,40.7,234.1z"/>
	<path class="st0" d="M30.3,234.1L30.3,234.1c-1.2,0-2.1,0.9-2.1,2c0,1.1,0.9,2,2,2h0.1c1.1,0,2-0.9,2-2
		C32.3,235,31.4,234.1,30.3,234.1z"/>
	<path class="st0" d="M61.5,234.1L61.5,234.1c-1.2,0-2.1,0.9-2.1,2c0,1.1,0.9,2,2,2h0.1c1.1,0,2-0.9,2-2
		C63.5,235,62.6,234.1,61.5,234.1z"/>
	<path class="st0" d="M81.3,234.1L81.3,234.1c-1.2,0-2.1,0.9-2.1,2c0,1.1,0.9,2,2,2h0.1c1.1,0,2-0.9,2-2
		C83.3,235,82.4,234.1,81.3,234.1z"/>
	<path class="st0" d="M71.9,234.1h-0.1c-1.1,0-2,0.9-2,2c0,1.1,0.9,2,2,2h0.1c1.1,0,2-0.9,2-2C73.9,235,73,234.1,71.9,234.1z"/>
	<path class="st0" d="M51.1,234.1H51c-1.1,0-2,0.9-2,2c0,1.1,0.9,2,2,2h0.1c1.1,0,2-0.9,2-2C53.1,235,52.2,234.1,51.1,234.1z"/>
	<path class="st0" d="M-10.9,323.6H-11c-1.1,0-2,0.9-2,2c0,1.1,0.9,2,2,2h0.1c1.1,0,2-0.9,2-2C-8.9,324.5-9.8,323.6-10.9,323.6z"/>
	<path class="st0" d="M9.9,323.6H9.8c-1.1,0-2,0.9-2,2c0,1.1,0.9,2,2,2h0.1c1.1,0,2-0.9,2-2C11.9,324.5,11,323.6,9.9,323.6z"/>
	<path class="st0" d="M-21.3,323.6L-21.3,323.6c-1.2,0-2.1,0.9-2.1,2c0,1.1,0.9,2,2,2h0.1c1.1,0,2-0.9,2-2
		C-19.3,324.5-20.2,323.6-21.3,323.6z"/>
	<path class="st0" d="M-0.5,323.6L-0.5,323.6c-1.2,0-2.1,0.9-2.1,2c0,1.1,0.9,2,2,2h0.1c1.1,0,2-0.9,2-2
		C1.5,324.5,0.6,323.6-0.5,323.6z"/>
	<path class="st0" d="M-31.7,323.6h-0.1c-1.1,0-2,0.9-2,2c0,1.1,0.9,2,2,2h0.1c1.1,0,2-0.9,2-2C-29.7,324.5-30.6,323.6-31.7,323.6z"
		/>
	<path class="st0" d="M20.3,323.6L20.3,323.6c-1.2,0-2.1,0.9-2.1,2c0,1.1,0.9,2,2,2h0.1c1.1,0,2-0.9,2-2
		C22.3,324.5,21.4,323.6,20.3,323.6z"/>
	<path class="st0" d="M20.2,375.6c1.1,0,2-0.9,2-2c0-1.1-0.9-2-2-2s-2,0.9-2,2C18.2,374.7,19.1,375.6,20.2,375.6z"/>
	<path class="st0" d="M20.2,336.7c1.1,0,2-0.9,2-2c0-1.1-0.9-2-2-2s-2,0.9-2,2C18.2,335.8,19.1,336.7,20.2,336.7z"/>
	<path class="st0" d="M20.2,345.7c1.1,0,2-0.9,2-2v-0.1c0-1.1-0.9-2-2-2s-2,0.9-2,2v0.1C18.2,344.8,19.1,345.7,20.2,345.7z"/>
	<path class="st0" d="M20.2,355.7c1.1,0,2-0.9,2-2v-0.1c0-1.1-0.9-2-2-2s-2,0.9-2,2v0.1C18.2,354.8,19.1,355.7,20.2,355.7z"/>
	<path class="st0" d="M20.2,365.7c1.1,0,2-0.9,2-2v-0.1c0-1.1-0.9-2-2-2s-2,0.9-2,2v0.1C18.2,364.8,19.1,365.7,20.2,365.7z"/>
	<path class="st0" d="M-10.9,381.6H-11c-1.1,0-2,0.9-2,2c0,1.1,0.9,2,2,2h0.1c1.1,0,2-0.9,2-2C-8.9,382.5-9.8,381.6-10.9,381.6z"/>
	<path class="st0" d="M-31.7,381.6h-0.1c-1.1,0-2,0.9-2,2c0,1.1,0.9,2,2,2h0.1c1.1,0,2-0.9,2-2C-29.7,382.5-30.6,381.6-31.7,381.6z"
		/>
	<path class="st0" d="M-21.3,381.6L-21.3,381.6c-1.2,0-2.1,0.9-2.1,2c0,1.1,0.9,2,2,2h0.1c1.1,0,2-0.9,2-2
		C-19.3,382.5-20.2,381.6-21.3,381.6z"/>
	<path class="st0" d="M20.3,381.6L20.3,381.6c-1.2,0-2.1,0.9-2.1,2c0,1.1,0.9,2,2,2h0.1c1.1,0,2-0.9,2-2
		C22.3,382.5,21.4,381.6,20.3,381.6z"/>
	<path class="st0" d="M-0.5,381.6L-0.5,381.6c-1.2,0-2.1,0.9-2.1,2c0,1.1,0.9,2,2,2h0.1c1.1,0,2-0.9,2-2
		C1.5,382.5,0.6,381.6-0.5,381.6z"/>
	<path class="st0" d="M9.9,381.6H9.8c-1.1,0-2,0.9-2,2c0,1.1,0.9,2,2,2h0.1c1.1,0,2-0.9,2-2C11.9,382.5,11,381.6,9.9,381.6z"/>
	<path class="st0" d="M81.3,351.6L81.3,351.6c-1.2,0-2.1,0.9-2.1,2c0,1.1,0.9,2,2,2h0.1c1.1,0,2-0.9,2-2
		C83.3,352.5,82.4,351.6,81.3,351.6z"/>
	<path class="st0" d="M40.7,351.6L40.7,351.6c-1.2,0-2.1,0.9-2.1,2c0,1.1,0.9,2,2,2h0.1c1.1,0,2-0.9,2-2
		C42.7,352.5,41.8,351.6,40.7,351.6z"/>
	<path class="st0" d="M61.5,351.6L61.5,351.6c-1.2,0-2.1,0.9-2.1,2c0,1.1,0.9,2,2,2h0.1c1.1,0,2-0.9,2-2
		C63.5,352.5,62.6,351.6,61.5,351.6z"/>
	<path class="st0" d="M71.9,351.6h-0.1c-1.1,0-2,0.9-2,2c0,1.1,0.9,2,2,2h0.1c1.1,0,2-0.9,2-2C73.9,352.5,73,351.6,71.9,351.6z"/>
	<path class="st0" d="M30.3,351.6L30.3,351.6c-1.2,0-2.1,0.9-2.1,2c0,1.1,0.9,2,2,2h0.1c1.1,0,2-0.9,2-2
		C32.3,352.5,31.4,351.6,30.3,351.6z"/>
	<path class="st0" d="M51.1,351.6H51c-1.1,0-2,0.9-2,2c0,1.1,0.9,2,2,2h0.1c1.1,0,2-0.9,2-2C53.1,352.5,52.2,351.6,51.1,351.6z"/>
	<path class="st0" d="M81.2,337.1c1.1,0,2-0.9,2-2V335c0-1.1-0.9-2-2-2s-2,0.9-2,2v0.1C79.2,336.2,80.1,337.1,81.2,337.1z"/>
	<path class="st0" d="M81.2,347.1c1.1,0,2-0.9,2-2c0-1.1-0.9-2-2-2s-2,0.9-2,2C79.2,346.2,80.1,347.1,81.2,347.1z"/>
	<path class="st0" d="M81.2,327.1c1.1,0,2-0.9,2-2V325c0-1.1-0.9-2-2-2s-2,0.9-2,2v0.1C79.2,326.2,80.1,327.1,81.2,327.1z"/>
	<path class="st0" d="M81.2,257.1c1.1,0,2-0.9,2-2V255c0-1.1-0.9-2-2-2s-2,0.9-2,2v0.1C79.2,256.2,80.1,257.1,81.2,257.1z"/>
	<path class="st0" d="M81.2,277.1c1.1,0,2-0.9,2-2V275c0-1.1-0.9-2-2-2s-2,0.9-2,2v0.1C79.2,276.2,80.1,277.1,81.2,277.1z"/>
	<path class="st0" d="M81.2,267.1c1.1,0,2-0.9,2-2V265c0-1.1-0.9-2-2-2s-2,0.9-2,2v0.1C79.2,266.2,80.1,267.1,81.2,267.1z"/>
	<path class="st0" d="M81.2,247.1c1.1,0,2-0.9,2-2c0-1.1-0.9-2-2-2s-2,0.9-2,2C79.2,246.2,80.1,247.1,81.2,247.1z"/>
	<path class="st0" d="M81.2,307.1c1.1,0,2-0.9,2-2V305c0-1.1-0.9-2-2-2s-2,0.9-2,2v0.1C79.2,306.2,80.1,307.1,81.2,307.1z"/>
	<path class="st0" d="M81.2,317.1c1.1,0,2-0.9,2-2V315c0-1.1-0.9-2-2-2s-2,0.9-2,2v0.1C79.2,316.2,80.1,317.1,81.2,317.1z"/>
	<path class="st0" d="M81.2,287.1c1.1,0,2-0.9,2-2V285c0-1.1-0.9-2-2-2s-2,0.9-2,2v0.1C79.2,286.2,80.1,287.1,81.2,287.1z"/>
	<path class="st0" d="M81.2,297.1c1.1,0,2-0.9,2-2V295c0-1.1-0.9-2-2-2s-2,0.9-2,2v0.1C79.2,296.2,80.1,297.1,81.2,297.1z"/>
	<path class="st0" d="M142.1,293.1H142c-1.1,0-2,0.9-2,2c0,1.1,0.9,2,2,2h0.1c1.1,0,2-0.9,2-2C144.1,294,143.2,293.1,142.1,293.1z"
		/>
	<path class="st0" d="M111.6,293.1h-0.1c-1.1,0-2,0.9-2,2c0,1.1,0.9,2,2,2h0.1c1.1,0,2-0.9,2-2C113.6,294,112.7,293.1,111.6,293.1z"
		/>
	<path class="st0" d="M152.2,293.1L152.2,293.1c-1.2,0-2.1,0.9-2.1,2c0,1.1,0.9,2,2,2h0.1c1.1,0,2-0.9,2-2
		C154.2,294,153.3,293.1,152.2,293.1z"/>
	<path class="st0" d="M131.9,293.1h-0.1c-1.1,0-2,0.9-2,2c0,1.1,0.9,2,2,2h0.1c1.1,0,2-0.9,2-2C133.9,294,133,293.1,131.9,293.1z"/>
	<path class="st0" d="M121.8,293.1L121.8,293.1c-1.2,0-2.1,0.9-2.1,2c0,1.1,0.9,2,2,2h0.1c1.1,0,2-0.9,2-2
		C123.8,294,122.9,293.1,121.8,293.1z"/>
	<path class="st0" d="M101.4,293.1h-0.1c-1.1,0-2,0.9-2,2c0,1.1,0.9,2,2,2h0.1c1.1,0,2-0.9,2-2C103.4,294,102.5,293.1,101.4,293.1z"
		/>
	<path class="st0" d="M91.3,293.1c-1.1,0-2,0.9-2,2c0,1.1,0.9,2,2,2c1.1,0,2-0.9,2-2C93.3,294,92.4,293.1,91.3,293.1z"/>
	<path class="st0" d="M249.8,294.1h-0.1c-1.1,0-2,0.9-2,2c0,1.1,0.9,2,2,2h0.1c1.1,0,2-0.9,2-2C251.8,295,250.9,294.1,249.8,294.1z"
		/>
	<path class="st0" d="M278.9,294.1L278.9,294.1c-1.2,0-2.1,0.9-2.1,2c0,1.1,0.9,2,2,2h0.1c1.1,0,2-0.9,2-2
		C280.9,295,280,294.1,278.9,294.1z"/>
	<path class="st0" d="M269.2,294.1L269.2,294.1c-1.2,0-2.1,0.9-2.1,2c0,1.1,0.9,2,2,2h0.1c1.1,0,2-0.9,2-2
		C271.2,295,270.3,294.1,269.2,294.1z"/>
	<path class="st0" d="M298.2,294.1c-1.1,0-2,0.9-2,2c0,1.1,0.9,2,2,2c1.1,0,2-0.9,2-2C300.2,295,299.3,294.1,298.2,294.1z"/>
	<path class="st0" d="M230.4,294.1h-0.1c-1.1,0-2,0.9-2,2c0,1.1,0.9,2,2,2h0.1c1.1,0,2-0.9,2-2C232.4,295,231.5,294.1,230.4,294.1z"
		/>
	<path class="st0" d="M240.1,294.1H240c-1.1,0-2,0.9-2,2c0,1.1,0.9,2,2,2h0.1c1.1,0,2-0.9,2-2C242.1,295,241.2,294.1,240.1,294.1z"
		/>
	<path class="st0" d="M259.5,294.1L259.5,294.1c-1.2,0-2.1,0.9-2.1,2c0,1.1,0.9,2,2,2h0.1c1.1,0,2-0.9,2-2
		C261.5,295,260.6,294.1,259.5,294.1z"/>
	<path class="st0" d="M288.6,294.1h-0.1c-1.1,0-2,0.9-2,2c0,1.1,0.9,2,2,2h0.1c1.1,0,2-0.9,2-2C290.6,295,289.7,294.1,288.6,294.1z"
		/>
	<path class="st0" d="M220.7,294.1L220.7,294.1c-1.2,0-2.1,0.9-2.1,2c0,1.1,0.9,2,2,2h0.1c1.1,0,2-0.9,2-2
		C222.7,295,221.8,294.1,220.7,294.1z"/>
	<path class="st0" d="M211,294.1L211,294.1c-1.2,0-2.1,0.9-2.1,2c0,1.1,0.9,2,2,2h0.1c1.1,0,2-0.9,2-2
		C213,295,212.1,294.1,211,294.1z"/>
	<path class="st0" d="M201.3,294.1c-1.1,0-2,0.9-2,2c0,1.1,0.9,2,2,2c1.1,0,2-0.9,2-2C203.3,295,202.4,294.1,201.3,294.1z"/>
</g>
<g>
	<path class="st0" d="M-52.5,313.1c-5.4,0-9.7,4.3-9.7,9.7v12.7l3.3,3.3l3.2-3.2l3.2,3.2l3.2-3.2l3.2,3.2l3.3-3.2v-12.8
		C-42.8,317.4-47.1,313.1-52.5,313.1z M-54.2,326.1c-1.5,0-2.7-1.2-2.7-2.7c0-1.5,1.2-2.7,2.7-2.7c1.5,0,2.7,1.2,2.7,2.7
		C-51.5,324.9-52.7,326.1-54.2,326.1z M-47.1,326.1c-1.5,0-2.7-1.2-2.7-2.7c0-1.5,1.2-2.7,2.7-2.7s2.7,1.2,2.7,2.7
		C-44.4,324.9-45.6,326.1-47.1,326.1z"/>
</g>
</svg>
