<svg width="160" height="110" viewBox="0 0 160 110" fill="none" xmlns="http://www.w3.org/2000/svg">
<path d="M68.2668 37.7141C72.5414 44.058 79.7438 48.1903 88.0002 48.1903C96.2566 48.1903 103.459 44.058 107.734 37.7141" stroke="black" stroke-width="6" stroke-miterlimit="10"/>
<ellipse cx="113.067" cy="70.1905" rx="2.13333" ry="2.09524" fill="#C4C4C4"/>
<rect x="1.5" y="1.5" width="157" height="107" rx="14.5" fill="white" stroke="#444444" stroke-width="3"/>
<path fill-rule="evenodd" clip-rule="evenodd" d="M31.231 17.1287L33.9442 19.6551L31.231 22.1816" fill="#6349FF"/>
<path d="M31.231 17.1287L33.9442 19.6551L31.231 22.1816" stroke="white" stroke-width="1.5" stroke-linecap="round" stroke-linejoin="round"/>
<path fill-rule="evenodd" clip-rule="evenodd" d="M24.9 17.1287L22.1868 19.6551L24.9 22.1816" fill="#6349FF"/>
<path d="M24.9 17.1287L22.1868 19.6551L24.9 22.1816" stroke="white" stroke-width="1.5" stroke-linecap="round" stroke-linejoin="round"/>
<path fill-rule="evenodd" clip-rule="evenodd" d="M28.9693 17.1287L27.1611 22.1816Z" fill="#6349FF"/>
<path d="M28.9693 17.1287L27.1611 22.1816" stroke="white" stroke-width="1.5" stroke-linecap="round" stroke-linejoin="round"/>
<rect x="16" y="37.7141" width="94.9333" height="13.619" rx="6.80952" fill="#E9E9E9"/>
<rect x="16" y="79.6191" width="49.0667" height="13.619" rx="6.80952" fill="#E9E9E9"/>
<rect x="16" y="16.762" width="125.867" height="13.619" rx="6.80952" fill="#E9E9E9"/>
<rect x="16" y="58.6667" width="106.667" height="13.619" rx="6.80952" fill="#E9E9E9"/>
<path d="M125.583 53.8496L125.583 53.849L124.257 51.6491C124.257 51.649 124.257 51.6488 124.257 51.6487C123.696 50.7212 123.023 50.3545 122.441 50.3545C121.858 50.3545 121.186 50.7212 120.625 51.6487C120.625 51.6488 120.625 51.649 120.625 51.6491L119.298 53.849L119.298 53.8496C117.929 56.1142 114.832 57.0877 112.396 56.0557L112.394 56.0548L110.008 55.0317C110.008 55.0315 110.008 55.0314 110.007 55.0313C109.002 54.6058 108.239 54.6982 107.768 55.033C107.301 55.3656 106.975 56.0436 107.075 57.1168C107.075 57.1171 107.075 57.1173 107.075 57.1176L107.318 59.6655L107.318 59.6662C107.564 62.2752 105.645 64.875 103.06 65.4515L103.06 65.4516L100.518 66.018L100.517 66.0182C99.4396 66.2563 98.8811 66.7762 98.7033 67.3152C98.5262 67.8523 98.6672 68.5912 99.3886 69.4013C99.3889 69.4016 99.3892 69.4019 99.3894 69.4022L101.112 71.3177L101.114 71.3194C102.875 73.2955 102.875 76.501 101.114 78.4771L101.112 78.4789L99.3894 80.3943C99.3892 80.3946 99.3889 80.3949 99.3886 80.3953C98.6687 81.2036 98.5317 81.9418 98.7111 82.4798C98.8916 83.0212 99.4524 83.5408 100.518 83.7785C100.518 83.7785 100.518 83.7785 100.518 83.7785L103.06 84.3449L103.06 84.345C105.644 84.9213 107.563 87.4984 107.318 90.1299L107.318 90.1311L107.075 92.679C107.075 92.6792 107.075 92.6794 107.075 92.6796C106.975 93.7529 107.301 94.4309 107.768 94.7635C108.239 95.0983 109.002 95.1907 110.007 94.7653C110.007 94.7652 110.008 94.765 110.008 94.7648L112.394 93.7417L112.398 93.7402C114.854 92.7095 117.929 93.6821 119.298 95.9469L119.298 95.9475L120.625 98.1474L125.583 53.8496ZM125.583 53.8496C126.953 56.1144 130.027 57.087 132.484 56.0564L132.487 56.0548M125.583 53.8496L132.487 56.0548M132.487 56.0548L134.873 55.0317C134.874 55.0315 134.874 55.0314 134.874 55.0312C135.879 54.6058 136.643 54.6982 137.113 55.033C137.58 55.3657 137.906 56.0439 137.806 57.1176L137.563 59.6655L137.563 59.6666M132.487 56.0548L137.563 59.6666M137.563 59.6666C137.318 62.2981 139.238 64.8752 141.821 65.4515L141.821 65.4516M137.563 59.6666L141.821 65.4516M141.821 65.4516L144.364 66.018C144.364 66.018 144.364 66.018 144.364 66.018C145.429 66.2558 145.99 66.7753 146.17 67.3167C146.35 67.8547 146.213 68.5928 145.493 69.4011C145.493 69.4015 145.492 69.4018 145.492 69.4022L143.769 71.3177L143.767 71.3194M141.821 65.4516L143.767 71.3194M143.767 71.3194C142.007 73.2955 142.007 76.501 143.767 78.4771L143.769 78.4788M143.767 71.3194L143.769 78.4788M143.769 78.4788L145.492 80.3943C145.492 80.3947 145.493 80.3951 145.493 80.3954C146.214 81.2054 146.355 81.9442 146.178 82.4814C146 83.0203 145.442 83.5402 144.364 83.7783L144.364 83.7785M143.769 78.4788L144.364 83.7785M144.364 83.7785L141.821 84.3449L141.821 84.345M144.364 83.7785L141.821 84.345M141.821 84.345C139.237 84.9215 137.318 87.5213 137.563 90.1303L137.563 90.1311M141.821 84.345L137.563 90.1311M137.563 90.1311L137.806 92.679C137.906 93.7526 137.58 94.4308 137.113 94.7635C136.643 95.0983 135.879 95.1907 134.874 94.7654C134.874 94.7652 134.874 94.765 134.873 94.7648L132.487 93.7417L132.485 93.7409M137.563 90.1311L132.485 93.7409M132.485 93.7409C130.05 92.7088 126.953 93.6824 125.583 95.9469L125.583 95.9475M132.485 93.7409L125.583 95.9475M125.583 95.9475L124.257 98.1474L125.583 95.9475ZM122.441 99.442C123.023 99.442 123.696 99.0754 124.257 98.1479L122.441 99.442ZM122.441 99.442C121.858 99.442 121.186 99.0754 120.625 98.1479L122.441 99.442ZM141.929 64.9691L141.929 64.9694L141.929 64.9691Z" fill="#6349FF" stroke="#6349FF"/>
<ellipse cx="114.133" cy="73.3333" rx="2.13333" ry="2.09524" fill="white"/>
<ellipse cx="131.2" cy="73.3333" rx="2.13333" ry="2.09524" fill="white"/>
<path d="M121.039 75.305C121.039 73.3884 121.039 71.4719 121.039 69.5554C121.039 68.9506 121.098 68.3543 121.291 67.7751C121.71 66.5485 122.499 65.6797 123.707 65.2623C125.149 64.7597 126.583 64.879 127.959 65.5434C128.311 65.7137 128.622 65.9522 128.865 66.2844C129.184 66.7189 129.116 67.3151 128.722 67.6388C128.479 67.8347 128.076 67.8432 127.774 67.6984C127.322 67.477 126.869 67.2214 126.382 67.0681C125.837 66.8977 125.258 66.9148 124.705 67.0851C123.79 67.3577 123.363 68.0477 123.254 68.9676C123.228 69.2146 123.212 69.4617 123.212 69.7087C123.212 73.5673 123.212 77.4345 123.212 81.2931C123.212 82.0853 123.103 82.8605 122.767 83.5845C122.197 84.794 121.241 85.501 119.974 85.7736C118.892 86.0036 117.819 85.9354 116.778 85.5351C116.258 85.3392 115.772 85.0751 115.42 84.6152C115.143 84.2489 115.126 83.7634 115.378 83.4056C115.579 83.116 115.956 82.9712 116.284 83.099C116.56 83.2097 116.829 83.3545 117.089 83.4993C117.869 83.9337 118.699 84.0019 119.546 83.7719C120.326 83.5589 120.771 82.9797 120.947 82.2046C121.014 81.9064 121.031 81.5828 121.031 81.2761C121.048 79.2914 121.039 77.2982 121.039 75.305Z" fill="white"/>
</svg>
