<svg width="601" height="591" viewBox="0 0 601 591" fill="none" xmlns="http://www.w3.org/2000/svg">
<line x1="85" y1="115" x2="85" y2="314" stroke="#6349FF" stroke-width="4" stroke-linecap="round" stroke-dasharray="0.1 10"/>
<line x1="285" y1="115" x2="285" y2="314" stroke="#6349FF" stroke-width="4" stroke-linecap="round" stroke-dasharray="0.1 10"/>
<line x1="485" y1="115" x2="485" y2="314" stroke="#6349FF" stroke-width="4" stroke-linecap="round" stroke-dasharray="0.1 10"/>
<line x1="404" y1="275.828" x2="365.828" y2="314" stroke="#6349FF" stroke-width="4" stroke-linecap="round" stroke-dasharray="0.1 10"/>
<line x1="204" y1="275.828" x2="165.828" y2="314" stroke="#6349FF" stroke-width="4" stroke-linecap="round" stroke-dasharray="0.1 10"/>
<rect x="1.5" y="1.5" width="563" height="117" rx="17.5" fill="#FFC398" stroke="#2A1E71" stroke-width="3"/>
<path d="M111.117 66H114.742C118.039 66 120.211 63.6953 120.211 60.375C120.211 57.0625 118.039 54.75 114.742 54.75H111.117C110.516 54.75 110.109 55.1719 110.109 55.7812V64.9688C110.109 65.5703 110.516 66 111.117 66ZM112.133 64.0234V56.7188H114.734C116.758 56.7188 118.078 58.25 118.078 60.375C118.078 62.5156 116.758 64.0234 114.734 64.0234H112.133ZM124.039 66H130.156C130.742 66 131.172 65.5859 131.172 65C131.172 64.4141 130.742 64.0078 130.156 64.0078H125.055V61.25H129.594C130.141 61.25 130.562 60.8672 130.562 60.3125C130.562 59.7656 130.148 59.3672 129.594 59.3672H125.055V56.7422H130.125C130.711 56.7422 131.141 56.3281 131.141 55.7422C131.141 55.1562 130.711 54.75 130.125 54.75H124.039C123.438 54.75 123.031 55.1719 123.031 55.7812V64.9609C123.031 65.5703 123.438 66 124.039 66ZM138.414 66.2188C139.344 66.2188 139.992 65.6719 140.398 64.5078L143.547 55.9141C143.586 55.8125 143.625 55.6328 143.625 55.5156C143.625 54.9766 143.188 54.5703 142.578 54.5703C142.102 54.5703 141.766 54.8516 141.602 55.3125L138.414 64.0703L135.219 55.3125C135.062 54.8516 134.719 54.5703 134.242 54.5703C133.641 54.5703 133.203 54.9766 133.203 55.5156C133.203 55.6328 133.242 55.8125 133.273 55.9141L136.422 64.5078C136.828 65.6641 137.477 66.2188 138.414 66.2188ZM147.039 66H153.156C153.742 66 154.172 65.5859 154.172 65C154.172 64.4141 153.742 64.0078 153.156 64.0078H148.055V61.25H152.594C153.141 61.25 153.562 60.8672 153.562 60.3125C153.562 59.7656 153.148 59.3672 152.594 59.3672H148.055V56.7422H153.125C153.711 56.7422 154.141 56.3281 154.141 55.7422C154.141 55.1562 153.711 54.75 153.125 54.75H147.039C146.438 54.75 146.031 55.1719 146.031 55.7812V64.9609C146.031 65.5703 146.438 66 147.039 66ZM158.164 66H163.906C164.492 66 164.922 65.5859 164.922 65C164.922 64.4141 164.492 64.0078 163.906 64.0078H159.18V55.6016C159.18 54.9922 158.773 54.5703 158.164 54.5703C157.562 54.5703 157.156 54.9922 157.156 55.6016V64.9688C157.156 65.5703 157.562 66 158.164 66ZM171.922 66.2344C175.32 66.2344 177.719 63.8125 177.719 60.375C177.719 56.9297 175.32 54.5156 171.922 54.5156C168.523 54.5156 166.125 56.9297 166.125 60.375C166.125 63.8125 168.523 66.2344 171.922 66.2344ZM168.211 60.375C168.211 58.1016 169.766 56.5469 171.922 56.5469C174.086 56.5469 175.633 58.1016 175.633 60.375C175.633 62.6406 174.086 64.2031 171.922 64.2031C169.766 64.2031 168.211 62.6406 168.211 60.375ZM181.539 66.1797C182.148 66.1797 182.555 65.75 182.555 65.1406V62.0469H185.258C187.562 62.0469 189.312 60.6328 189.312 58.3984C189.312 56.1875 187.562 54.75 185.258 54.75H181.539C180.938 54.75 180.531 55.1719 180.531 55.7812V65.1406C180.531 65.75 180.938 66.1797 181.539 66.1797ZM182.555 60.125V56.6719H185.32C186.445 56.6719 187.203 57.3594 187.203 58.3984C187.203 59.4375 186.445 60.125 185.32 60.125H182.555ZM193.117 66H199.234C199.82 66 200.25 65.5859 200.25 65C200.25 64.4141 199.82 64.0078 199.234 64.0078H194.133V61.25H198.672C199.219 61.25 199.641 60.8672 199.641 60.3125C199.641 59.7656 199.227 59.3672 198.672 59.3672H194.133V56.7422H199.203C199.789 56.7422 200.219 56.3281 200.219 55.7422C200.219 55.1562 199.789 54.75 199.203 54.75H193.117C192.516 54.75 192.109 55.1719 192.109 55.7812V64.9609C192.109 65.5703 192.516 66 193.117 66ZM204.242 66.1797C204.852 66.1797 205.258 65.75 205.258 65.1406V61.9062H207.703L210.273 65.7109C210.469 65.9922 210.758 66.1719 211.125 66.1719C211.648 66.1719 212.109 65.7656 212.109 65.2969C212.109 65.0703 212.047 64.8203 211.836 64.5234L209.828 61.5859C211.148 61.0469 212.023 59.875 212.023 58.3281C212.023 56.2031 210.336 54.75 208.109 54.75H204.242C203.641 54.75 203.234 55.1719 203.234 55.7812V65.1406C203.234 65.75 203.641 66.1797 204.242 66.1797ZM205.258 59.9844V56.6719H208.133C209.195 56.6719 209.922 57.3281 209.922 58.3281C209.922 59.3359 209.195 59.9844 208.133 59.9844H205.258ZM219.203 66.2344C221.766 66.2344 223.461 64.8906 223.461 62.7188C223.461 60.6094 222.094 59.9141 220.5 59.5547L218.531 59.1094C217.523 58.8906 216.891 58.6406 216.891 57.7344C216.891 56.8828 217.68 56.4141 218.844 56.4141C220.203 56.4141 221.062 57 221.602 57.8281C221.898 58.1094 222.188 58.2891 222.562 58.2891C223.117 58.2891 223.445 57.8594 223.445 57.3047C223.445 56.6719 223.031 55.9297 222.305 55.4688C221.539 54.9688 220.445 54.5156 219.008 54.5156C216.445 54.5156 214.766 55.8359 214.766 57.8984C214.766 59.8125 215.93 60.6719 217.828 61.0625L219.883 61.4844C220.734 61.6641 221.359 62.0312 221.359 62.8906C221.359 63.7891 220.609 64.3203 219.328 64.3203C217.766 64.3203 216.875 63.7578 216.125 62.6797C215.914 62.4297 215.656 62.2969 215.383 62.2969C214.836 62.2969 214.43 62.7344 214.43 63.2891C214.43 63.9531 214.883 64.7031 215.555 65.2031C216.438 65.8438 217.539 66.2344 219.203 66.2344ZM225.922 67.9766C227.023 67.9766 228.125 66.8125 228.125 65.3047C228.125 64.2734 227.594 63.5703 226.711 63.5703C225.922 63.5703 225.352 64.1172 225.352 64.8828C225.352 65.5859 225.852 66.0703 226.586 66.1016C226.484 66.5156 226.25 66.7031 225.758 66.8906C225.477 67.0078 225.273 67.1562 225.273 67.4688C225.273 67.7734 225.484 67.9766 225.922 67.9766ZM236.531 66.1797C237.109 66.1797 237.539 65.7188 237.539 65.1172V58.25L240.195 63.3672C240.625 64.1797 240.914 64.5156 241.516 64.5156C242.117 64.5156 242.398 64.1797 242.836 63.3672L245.5 58.25V65.1172C245.5 65.7188 245.922 66.1797 246.5 66.1797C247.078 66.1797 247.508 65.7344 247.508 65.1172V55.9453C247.508 55.0625 246.969 54.5703 246.234 54.5703C245.562 54.5703 245.227 54.8828 244.828 55.6172L241.516 61.8984L238.203 55.6172C237.82 54.9062 237.492 54.5703 236.805 54.5703C236.07 54.5703 235.531 55.0625 235.531 55.9453V65.1172C235.531 65.7344 235.961 66.1797 236.531 66.1797ZM250.477 66.2031C250.984 66.2031 251.312 65.9688 251.477 65.5547L252.328 63.3906H257.805L258.656 65.5547C258.812 65.9688 259.148 66.2031 259.656 66.2031C260.172 66.2031 260.625 65.7734 260.625 65.25C260.625 65.0859 260.586 64.8438 260.477 64.5859L257 56.1016C256.562 55.0234 256.047 54.5156 255.062 54.5156C254.078 54.5156 253.562 55.0234 253.125 56.1016L249.648 64.5859C249.547 64.8438 249.508 65.0859 249.508 65.25C249.508 65.7734 249.953 66.2031 250.477 66.2031ZM253.086 61.4688L255.07 56.4453L257.047 61.4688H253.086ZM263.617 66.1797C264.227 66.1797 264.633 65.75 264.633 65.1406V55.6016C264.633 54.9922 264.227 54.5703 263.617 54.5703C263.016 54.5703 262.609 54.9922 262.609 55.6016V65.1406C262.609 65.75 263.016 66.1797 263.617 66.1797ZM269.008 66.1719C269.609 66.1719 270.016 65.75 270.016 65.1484V58.1016L275 65.2578C275.477 65.9219 275.859 66.1719 276.383 66.1719C277.086 66.1719 277.586 65.6484 277.586 64.8594V55.6016C277.586 55 277.172 54.5781 276.57 54.5781C275.977 54.5781 275.562 55 275.562 55.6016V62.7656L270.617 55.5547C270.086 54.8047 269.758 54.5781 269.227 54.5781C268.484 54.5781 268 55.0938 268 55.8828V65.1484C268 65.75 268.398 66.1719 269.008 66.1719ZM284.695 66.1797C285.305 66.1797 285.711 65.75 285.711 65.1406V56.7422H288.508C289.086 56.7422 289.516 56.3281 289.516 55.7422C289.516 55.1562 289.086 54.75 288.508 54.75H280.891C280.312 54.75 279.883 55.1562 279.883 55.7422C279.883 56.3281 280.312 56.7422 280.891 56.7422H283.688V65.1406C283.688 65.75 284.102 66.1797 284.695 66.1797ZM290.414 66.2031C290.922 66.2031 291.25 65.9688 291.414 65.5547L292.266 63.3906H297.742L298.594 65.5547C298.75 65.9688 299.086 66.2031 299.594 66.2031C300.109 66.2031 300.562 65.7734 300.562 65.25C300.562 65.0859 300.523 64.8438 300.414 64.5859L296.938 56.1016C296.5 55.0234 295.984 54.5156 295 54.5156C294.016 54.5156 293.5 55.0234 293.062 56.1016L289.586 64.5859C289.484 64.8438 289.445 65.0859 289.445 65.25C289.445 65.7734 289.891 66.2031 290.414 66.2031ZM293.023 61.4688L295.008 56.4453L296.984 61.4688H293.023ZM303.555 66.1797C304.164 66.1797 304.57 65.75 304.57 65.1406V55.6016C304.57 54.9922 304.164 54.5703 303.555 54.5703C302.953 54.5703 302.547 54.9922 302.547 55.6016V65.1406C302.547 65.75 302.953 66.1797 303.555 66.1797ZM308.945 66.1719C309.547 66.1719 309.953 65.75 309.953 65.1484V58.1016L314.938 65.2578C315.414 65.9219 315.797 66.1719 316.32 66.1719C317.023 66.1719 317.523 65.6484 317.523 64.8594V55.6016C317.523 55 317.109 54.5781 316.508 54.5781C315.914 54.5781 315.5 55 315.5 55.6016V62.7656L310.555 55.5547C310.023 54.8047 309.695 54.5781 309.164 54.5781C308.422 54.5781 307.938 55.0938 307.938 55.8828V65.1484C307.938 65.75 308.336 66.1719 308.945 66.1719ZM321.898 66H328.016C328.602 66 329.031 65.5859 329.031 65C329.031 64.4141 328.602 64.0078 328.016 64.0078H322.914V61.25H327.453C328 61.25 328.422 60.8672 328.422 60.3125C328.422 59.7656 328.008 59.3672 327.453 59.3672H322.914V56.7422H327.984C328.57 56.7422 329 56.3281 329 55.7422C329 55.1562 328.57 54.75 327.984 54.75H321.898C321.297 54.75 320.891 55.1719 320.891 55.7812V64.9609C320.891 65.5703 321.297 66 321.898 66ZM333.023 66.1797C333.633 66.1797 334.039 65.75 334.039 65.1406V61.9062H336.484L339.055 65.7109C339.25 65.9922 339.539 66.1719 339.906 66.1719C340.43 66.1719 340.891 65.7656 340.891 65.2969C340.891 65.0703 340.828 64.8203 340.617 64.5234L338.609 61.5859C339.93 61.0469 340.805 59.875 340.805 58.3281C340.805 56.2031 339.117 54.75 336.891 54.75H333.023C332.422 54.75 332.016 55.1719 332.016 55.7812V65.1406C332.016 65.75 332.422 66.1797 333.023 66.1797ZM334.039 59.9844V56.6719H336.914C337.977 56.6719 338.703 57.3281 338.703 58.3281C338.703 59.3359 337.977 59.9844 336.914 59.9844H334.039ZM347.984 66.2344C350.547 66.2344 352.242 64.8906 352.242 62.7188C352.242 60.6094 350.875 59.9141 349.281 59.5547L347.312 59.1094C346.305 58.8906 345.672 58.6406 345.672 57.7344C345.672 56.8828 346.461 56.4141 347.625 56.4141C348.984 56.4141 349.844 57 350.383 57.8281C350.68 58.1094 350.969 58.2891 351.344 58.2891C351.898 58.2891 352.227 57.8594 352.227 57.3047C352.227 56.6719 351.812 55.9297 351.086 55.4688C350.32 54.9688 349.227 54.5156 347.789 54.5156C345.227 54.5156 343.547 55.8359 343.547 57.8984C343.547 59.8125 344.711 60.6719 346.609 61.0625L348.664 61.4844C349.516 61.6641 350.141 62.0312 350.141 62.8906C350.141 63.7891 349.391 64.3203 348.109 64.3203C346.547 64.3203 345.656 63.7578 344.906 62.6797C344.695 62.4297 344.438 62.2969 344.164 62.2969C343.617 62.2969 343.211 62.7344 343.211 63.2891C343.211 63.9531 343.664 64.7031 344.336 65.2031C345.219 65.8438 346.32 66.2344 347.984 66.2344ZM354.703 67.9766C355.805 67.9766 356.906 66.8125 356.906 65.3047C356.906 64.2734 356.375 63.5703 355.492 63.5703C354.703 63.5703 354.133 64.1172 354.133 64.8828C354.133 65.5859 354.633 66.0703 355.367 66.1016C355.266 66.5156 355.031 66.7031 354.539 66.8906C354.258 67.0078 354.055 67.1562 354.055 67.4688C354.055 67.7734 354.266 67.9766 354.703 67.9766ZM365.312 66.1797C365.891 66.1797 366.32 65.7188 366.32 65.1172V58.25L368.977 63.3672C369.406 64.1797 369.695 64.5156 370.297 64.5156C370.898 64.5156 371.18 64.1797 371.617 63.3672L374.281 58.25V65.1172C374.281 65.7188 374.703 66.1797 375.281 66.1797C375.859 66.1797 376.289 65.7344 376.289 65.1172V55.9453C376.289 55.0625 375.75 54.5703 375.016 54.5703C374.344 54.5703 374.008 54.8828 373.609 55.6172L370.297 61.8984L366.984 55.6172C366.602 54.9062 366.273 54.5703 365.586 54.5703C364.852 54.5703 364.312 55.0625 364.312 55.9453V65.1172C364.312 65.7344 364.742 66.1797 365.312 66.1797ZM384.906 66.2344C388.305 66.2344 390.703 63.8125 390.703 60.375C390.703 56.9297 388.305 54.5156 384.906 54.5156C381.508 54.5156 379.109 56.9297 379.109 60.375C379.109 63.8125 381.508 66.2344 384.906 66.2344ZM381.195 60.375C381.195 58.1016 382.75 56.5469 384.906 56.5469C387.07 56.5469 388.617 58.1016 388.617 60.375C388.617 62.6406 387.07 64.2031 384.906 64.2031C382.75 64.2031 381.195 62.6406 381.195 60.375ZM394.523 66.1719C395.125 66.1719 395.531 65.75 395.531 65.1484V58.1016L400.516 65.2578C400.992 65.9219 401.375 66.1719 401.898 66.1719C402.602 66.1719 403.102 65.6484 403.102 64.8594V55.6016C403.102 55 402.688 54.5781 402.086 54.5781C401.492 54.5781 401.078 55 401.078 55.6016V62.7656L396.133 55.5547C395.602 54.8047 395.273 54.5781 394.742 54.5781C394 54.5781 393.516 55.0938 393.516 55.8828V65.1484C393.516 65.75 393.914 66.1719 394.523 66.1719ZM407.477 66.1797C408.086 66.1797 408.492 65.75 408.492 65.1406V55.6016C408.492 54.9922 408.086 54.5703 407.477 54.5703C406.875 54.5703 406.469 54.9922 406.469 55.6016V65.1406C406.469 65.75 406.875 66.1797 407.477 66.1797ZM415.602 66.1797C416.211 66.1797 416.617 65.75 416.617 65.1406V56.7422H419.414C419.992 56.7422 420.422 56.3281 420.422 55.7422C420.422 55.1562 419.992 54.75 419.414 54.75H411.797C411.219 54.75 410.789 55.1562 410.789 55.7422C410.789 56.3281 411.219 56.7422 411.797 56.7422H414.594V65.1406C414.594 65.75 415.008 66.1797 415.602 66.1797ZM427.469 66.2344C430.867 66.2344 433.266 63.8125 433.266 60.375C433.266 56.9297 430.867 54.5156 427.469 54.5156C424.07 54.5156 421.672 56.9297 421.672 60.375C421.672 63.8125 424.07 66.2344 427.469 66.2344ZM423.758 60.375C423.758 58.1016 425.312 56.5469 427.469 56.5469C429.633 56.5469 431.18 58.1016 431.18 60.375C431.18 62.6406 429.633 64.2031 427.469 64.2031C425.312 64.2031 423.758 62.6406 423.758 60.375ZM437.086 66.1797C437.695 66.1797 438.102 65.75 438.102 65.1406V61.9062H440.547L443.117 65.7109C443.312 65.9922 443.602 66.1719 443.969 66.1719C444.492 66.1719 444.953 65.7656 444.953 65.2969C444.953 65.0703 444.891 64.8203 444.68 64.5234L442.672 61.5859C443.992 61.0469 444.867 59.875 444.867 58.3281C444.867 56.2031 443.18 54.75 440.953 54.75H437.086C436.484 54.75 436.078 55.1719 436.078 55.7812V65.1406C436.078 65.75 436.484 66.1797 437.086 66.1797ZM438.102 59.9844V56.6719H440.977C442.039 56.6719 442.766 57.3281 442.766 58.3281C442.766 59.3359 442.039 59.9844 440.977 59.9844H438.102ZM452.047 66.2344C454.609 66.2344 456.305 64.8906 456.305 62.7188C456.305 60.6094 454.938 59.9141 453.344 59.5547L451.375 59.1094C450.367 58.8906 449.734 58.6406 449.734 57.7344C449.734 56.8828 450.523 56.4141 451.688 56.4141C453.047 56.4141 453.906 57 454.445 57.8281C454.742 58.1094 455.031 58.2891 455.406 58.2891C455.961 58.2891 456.289 57.8594 456.289 57.3047C456.289 56.6719 455.875 55.9297 455.148 55.4688C454.383 54.9688 453.289 54.5156 451.852 54.5156C449.289 54.5156 447.609 55.8359 447.609 57.8984C447.609 59.8125 448.773 60.6719 450.672 61.0625L452.727 61.4844C453.578 61.6641 454.203 62.0312 454.203 62.8906C454.203 63.7891 453.453 64.3203 452.172 64.3203C450.609 64.3203 449.719 63.7578 448.969 62.6797C448.758 62.4297 448.5 62.2969 448.227 62.2969C447.68 62.2969 447.273 62.7344 447.273 63.2891C447.273 63.9531 447.727 64.7031 448.398 65.2031C449.281 65.8438 450.383 66.2344 452.047 66.2344Z" fill="black"/>
<rect x="200.5" y="315.5" width="163" height="117" rx="17.5" fill="#DDEFF1" stroke="#444444" stroke-width="3"/>
<path d="M235.43 358.234C237.992 358.234 239.688 356.891 239.688 354.719C239.688 352.609 238.32 351.914 236.727 351.555L234.758 351.109C233.75 350.891 233.117 350.641 233.117 349.734C233.117 348.883 233.906 348.414 235.07 348.414C236.43 348.414 237.289 349 237.828 349.828C238.125 350.109 238.414 350.289 238.789 350.289C239.344 350.289 239.672 349.859 239.672 349.305C239.672 348.672 239.258 347.93 238.531 347.469C237.766 346.969 236.672 346.516 235.234 346.516C232.672 346.516 230.992 347.836 230.992 349.898C230.992 351.812 232.156 352.672 234.055 353.062L236.109 353.484C236.961 353.664 237.586 354.031 237.586 354.891C237.586 355.789 236.836 356.32 235.555 356.32C233.992 356.32 233.102 355.758 232.352 354.68C232.141 354.43 231.883 354.297 231.609 354.297C231.062 354.297 230.656 354.734 230.656 355.289C230.656 355.953 231.109 356.703 231.781 357.203C232.664 357.844 233.766 358.234 235.43 358.234ZM243.594 358.18C244.203 358.18 244.609 357.75 244.609 357.141V347.602C244.609 346.992 244.203 346.57 243.594 346.57C242.992 346.57 242.586 346.992 242.586 347.602V357.141C242.586 357.75 242.992 358.18 243.594 358.18ZM253.242 358.234C256.383 358.234 258.523 356.289 258.523 352.812C258.523 352.047 258.055 351.703 257.461 351.703H253.125C252.586 351.703 252.141 352.047 252.141 352.664C252.141 353.203 252.586 353.609 253.125 353.609H256.453C256.336 355.281 255.164 356.242 253.297 356.242C251.016 356.242 249.516 354.633 249.516 352.383C249.516 350.117 251.039 348.5 253.242 348.5C254.719 348.5 255.688 349.102 256.305 349.938C256.641 350.242 256.914 350.359 257.273 350.359C257.742 350.359 258.188 350.047 258.188 349.461C258.188 348.828 257.664 348.086 256.961 347.586C256.086 346.969 254.867 346.516 253.305 346.516C249.898 346.516 247.43 348.938 247.43 352.398C247.43 355.844 249.781 358.234 253.242 358.234ZM262.391 358.172C262.992 358.172 263.398 357.75 263.398 357.148V350.102L268.383 357.258C268.859 357.922 269.242 358.172 269.766 358.172C270.469 358.172 270.969 357.648 270.969 356.859V347.602C270.969 347 270.555 346.578 269.953 346.578C269.359 346.578 268.945 347 268.945 347.602V354.766L264 347.555C263.469 346.805 263.141 346.578 262.609 346.578C261.867 346.578 261.383 347.094 261.383 347.883V357.148C261.383 357.75 261.781 358.172 262.391 358.172ZM273.938 358.203C274.445 358.203 274.773 357.969 274.938 357.555L275.789 355.391H281.266L282.117 357.555C282.273 357.969 282.609 358.203 283.117 358.203C283.633 358.203 284.086 357.773 284.086 357.25C284.086 357.086 284.047 356.844 283.938 356.586L280.461 348.102C280.023 347.023 279.508 346.516 278.523 346.516C277.539 346.516 277.023 347.023 276.586 348.102L273.109 356.586C273.008 356.844 272.969 357.086 272.969 357.25C272.969 357.773 273.414 358.203 273.938 358.203ZM276.547 353.469L278.531 348.445L280.508 353.469H276.547ZM288.812 358.18C289.422 358.18 289.828 357.75 289.828 357.141V348.742H292.625C293.203 348.742 293.633 348.328 293.633 347.742C293.633 347.156 293.203 346.75 292.625 346.75H285.008C284.43 346.75 284 347.156 284 347.742C284 348.328 284.43 348.742 285.008 348.742H287.805V357.141C287.805 357.75 288.219 358.18 288.812 358.18ZM300.406 358.234C303.258 358.234 305.086 356.375 305.086 353.617V347.602C305.086 347 304.664 346.57 304.062 346.57C303.469 346.57 303.062 347 303.062 347.602V353.414C303.062 355.078 302.047 356.203 300.406 356.203C298.781 356.203 297.758 355.078 297.758 353.414V347.602C297.758 347 297.359 346.57 296.758 346.57C296.156 346.57 295.734 347 295.734 347.602V353.617C295.734 356.375 297.562 358.234 300.406 358.234ZM309.266 358.18C309.875 358.18 310.281 357.75 310.281 357.141V353.906H312.727L315.297 357.711C315.492 357.992 315.781 358.172 316.148 358.172C316.672 358.172 317.133 357.766 317.133 357.297C317.133 357.07 317.07 356.82 316.859 356.523L314.852 353.586C316.172 353.047 317.047 351.875 317.047 350.328C317.047 348.203 315.359 346.75 313.133 346.75H309.266C308.664 346.75 308.258 347.172 308.258 347.781V357.141C308.258 357.75 308.664 358.18 309.266 358.18ZM310.281 351.984V348.672H313.156C314.219 348.672 314.945 349.328 314.945 350.328C314.945 351.336 314.219 351.984 313.156 351.984H310.281ZM321.172 358H327.289C327.875 358 328.305 357.586 328.305 357C328.305 356.414 327.875 356.008 327.289 356.008H322.188V353.25H326.727C327.273 353.25 327.695 352.867 327.695 352.312C327.695 351.766 327.281 351.367 326.727 351.367H322.188V348.742H327.258C327.844 348.742 328.273 348.328 328.273 347.742C328.273 347.156 327.844 346.75 327.258 346.75H321.172C320.57 346.75 320.164 347.172 320.164 347.781V356.961C320.164 357.57 320.57 358 321.172 358ZM216.891 380.18C217.5 380.18 217.906 379.75 217.906 379.141V370.742H220.703C221.281 370.742 221.711 370.328 221.711 369.742C221.711 369.156 221.281 368.75 220.703 368.75H213.086C212.508 368.75 212.078 369.156 212.078 369.742C212.078 370.328 212.508 370.742 213.086 370.742H215.883V379.141C215.883 379.75 216.297 380.18 216.891 380.18ZM225.016 380.18C225.625 380.18 226.031 379.75 226.031 379.141V375.906H228.477L231.047 379.711C231.242 379.992 231.531 380.172 231.898 380.172C232.422 380.172 232.883 379.766 232.883 379.297C232.883 379.07 232.82 378.82 232.609 378.523L230.602 375.586C231.922 375.047 232.797 373.875 232.797 372.328C232.797 370.203 231.109 368.75 228.883 368.75H225.016C224.414 368.75 224.008 369.172 224.008 369.781V379.141C224.008 379.75 224.414 380.18 225.016 380.18ZM226.031 373.984V370.672H228.906C229.969 370.672 230.695 371.328 230.695 372.328C230.695 373.336 229.969 373.984 228.906 373.984H226.031ZM235.5 380.203C236.008 380.203 236.336 379.969 236.5 379.555L237.352 377.391H242.828L243.68 379.555C243.836 379.969 244.172 380.203 244.68 380.203C245.195 380.203 245.648 379.773 245.648 379.25C245.648 379.086 245.609 378.844 245.5 378.586L242.023 370.102C241.586 369.023 241.07 368.516 240.086 368.516C239.102 368.516 238.586 369.023 238.148 370.102L234.672 378.586C234.57 378.844 234.531 379.086 234.531 379.25C234.531 379.773 234.977 380.203 235.5 380.203ZM238.109 375.469L240.094 370.445L242.07 375.469H238.109ZM248.641 380.172C249.242 380.172 249.648 379.75 249.648 379.148V372.102L254.633 379.258C255.109 379.922 255.492 380.172 256.016 380.172C256.719 380.172 257.219 379.648 257.219 378.859V369.602C257.219 369 256.805 368.578 256.203 368.578C255.609 368.578 255.195 369 255.195 369.602V376.766L250.25 369.555C249.719 368.805 249.391 368.578 248.859 368.578C248.117 368.578 247.633 369.094 247.633 369.883V379.148C247.633 379.75 248.031 380.172 248.641 380.172ZM264.773 380.234C267.336 380.234 269.031 378.891 269.031 376.719C269.031 374.609 267.664 373.914 266.07 373.555L264.102 373.109C263.094 372.891 262.461 372.641 262.461 371.734C262.461 370.883 263.25 370.414 264.414 370.414C265.773 370.414 266.633 371 267.172 371.828C267.469 372.109 267.758 372.289 268.133 372.289C268.688 372.289 269.016 371.859 269.016 371.305C269.016 370.672 268.602 369.93 267.875 369.469C267.109 368.969 266.016 368.516 264.578 368.516C262.016 368.516 260.336 369.836 260.336 371.898C260.336 373.812 261.5 374.672 263.398 375.062L265.453 375.484C266.305 375.664 266.93 376.031 266.93 376.891C266.93 377.789 266.18 378.32 264.898 378.32C263.336 378.32 262.445 377.758 261.695 376.68C261.484 376.43 261.227 376.297 260.953 376.297C260.406 376.297 260 376.734 260 377.289C260 377.953 260.453 378.703 261.125 379.203C262.008 379.844 263.109 380.234 264.773 380.234ZM272.938 380.18C273.547 380.18 273.953 379.75 273.953 379.141V376.047H276.656C278.961 376.047 280.711 374.633 280.711 372.398C280.711 370.188 278.961 368.75 276.656 368.75H272.938C272.336 368.75 271.93 369.172 271.93 369.781V379.141C271.93 379.75 272.336 380.18 272.938 380.18ZM273.953 374.125V370.672H276.719C277.844 370.672 278.602 371.359 278.602 372.398C278.602 373.438 277.844 374.125 276.719 374.125H273.953ZM282.266 380.203C282.773 380.203 283.102 379.969 283.266 379.555L284.117 377.391H289.594L290.445 379.555C290.602 379.969 290.938 380.203 291.445 380.203C291.961 380.203 292.414 379.773 292.414 379.25C292.414 379.086 292.375 378.844 292.266 378.586L288.789 370.102C288.352 369.023 287.836 368.516 286.852 368.516C285.867 368.516 285.352 369.023 284.914 370.102L281.438 378.586C281.336 378.844 281.297 379.086 281.297 379.25C281.297 379.773 281.742 380.203 282.266 380.203ZM284.875 375.469L286.859 370.445L288.836 375.469H284.875ZM295.406 380.18C296.016 380.18 296.422 379.75 296.422 379.141V375.906H298.867L301.438 379.711C301.633 379.992 301.922 380.172 302.289 380.172C302.812 380.172 303.273 379.766 303.273 379.297C303.273 379.07 303.211 378.82 303 378.523L300.992 375.586C302.312 375.047 303.188 373.875 303.188 372.328C303.188 370.203 301.5 368.75 299.273 368.75H295.406C294.805 368.75 294.398 369.172 294.398 369.781V379.141C294.398 379.75 294.805 380.18 295.406 380.18ZM296.422 373.984V370.672H299.297C300.359 370.672 301.086 371.328 301.086 372.328C301.086 373.336 300.359 373.984 299.297 373.984H296.422ZM307.312 380H313.43C314.016 380 314.445 379.586 314.445 379C314.445 378.414 314.016 378.008 313.43 378.008H308.328V375.25H312.867C313.414 375.25 313.836 374.867 313.836 374.312C313.836 373.766 313.422 373.367 312.867 373.367H308.328V370.742H313.398C313.984 370.742 314.414 370.328 314.414 369.742C314.414 369.156 313.984 368.75 313.398 368.75H307.312C306.711 368.75 306.305 369.172 306.305 369.781V378.961C306.305 379.57 306.711 380 307.312 380ZM318.438 380.172C319.039 380.172 319.445 379.75 319.445 379.148V372.102L324.43 379.258C324.906 379.922 325.289 380.172 325.812 380.172C326.516 380.172 327.016 379.648 327.016 378.859V369.602C327.016 369 326.602 368.578 326 368.578C325.406 368.578 324.992 369 324.992 369.602V376.766L320.047 369.555C319.516 368.805 319.188 368.578 318.656 368.578C317.914 368.578 317.43 369.094 317.43 369.883V379.148C317.43 379.75 317.828 380.172 318.438 380.172ZM335.5 380.234C337.367 380.234 338.828 379.617 339.852 378.43C340.234 377.984 340.516 377.344 340.516 376.914C340.516 376.367 340.094 375.93 339.57 375.93C339.242 375.93 338.922 376.078 338.617 376.477C337.953 377.594 336.953 378.203 335.516 378.203C333.398 378.203 331.922 376.617 331.922 374.383C331.922 372.133 333.398 370.547 335.516 370.547C336.953 370.547 337.961 371.141 338.617 372.266C338.914 372.672 339.242 372.82 339.57 372.82C340.094 372.82 340.516 372.375 340.516 371.828C340.516 371.367 340.219 370.727 339.812 370.258C338.797 369.086 337.344 368.516 335.5 368.516C332.164 368.516 329.836 370.922 329.836 374.383C329.836 377.836 332.164 380.234 335.5 380.234ZM342.258 370.016L345.953 375.297V379.141C345.953 379.75 346.359 380.18 346.961 380.18C347.57 380.18 347.977 379.75 347.977 379.141V375.289L351.672 370.016C351.781 369.859 351.844 369.68 351.844 369.469C351.844 368.977 351.438 368.57 350.883 368.57C350.391 368.57 350.141 368.883 349.883 369.25L346.969 373.453L344.047 369.25C343.789 368.883 343.531 368.57 343.047 368.57C342.484 368.57 342.078 368.977 342.078 369.469C342.078 369.68 342.148 369.859 342.258 370.016ZM266.32 402H272.062C272.648 402 273.078 401.586 273.078 401C273.078 400.414 272.648 400.008 272.062 400.008H267.336V391.602C267.336 390.992 266.93 390.57 266.32 390.57C265.719 390.57 265.312 390.992 265.312 391.602V400.969C265.312 401.57 265.719 402 266.32 402ZM280.078 402.234C283.477 402.234 285.875 399.812 285.875 396.375C285.875 392.93 283.477 390.516 280.078 390.516C276.68 390.516 274.281 392.93 274.281 396.375C274.281 399.812 276.68 402.234 280.078 402.234ZM276.367 396.375C276.367 394.102 277.922 392.547 280.078 392.547C282.242 392.547 283.789 394.102 283.789 396.375C283.789 398.641 282.242 400.203 280.078 400.203C277.922 400.203 276.367 398.641 276.367 396.375ZM293.953 402.234C297.094 402.234 299.234 400.289 299.234 396.812C299.234 396.047 298.766 395.703 298.172 395.703H293.836C293.297 395.703 292.852 396.047 292.852 396.664C292.852 397.203 293.297 397.609 293.836 397.609H297.164C297.047 399.281 295.875 400.242 294.008 400.242C291.727 400.242 290.227 398.633 290.227 396.383C290.227 394.117 291.75 392.5 293.953 392.5C295.43 392.5 296.398 393.102 297.016 393.938C297.352 394.242 297.625 394.359 297.984 394.359C298.453 394.359 298.898 394.047 298.898 393.461C298.898 392.828 298.375 392.086 297.672 391.586C296.797 390.969 295.578 390.516 294.016 390.516C290.609 390.516 288.141 392.938 288.141 396.398C288.141 399.844 290.492 402.234 293.953 402.234Z" fill="black"/>
<rect x="401.5" y="315.5" width="163" height="117" rx="17.5" fill="#DDEFF1" stroke="#444444" stroke-width="3"/>
<path d="M466.203 358.18C466.805 358.18 467.219 357.75 467.219 357.141V354.531L469 352.906L472.812 357.711C473.055 358.023 473.438 358.18 473.75 358.18C474.273 358.18 474.734 357.797 474.734 357.336C474.734 357.047 474.625 356.836 474.305 356.43L470.445 351.586L473.891 348.438C474.297 348.07 474.422 347.789 474.422 347.422C474.422 347 474.008 346.609 473.562 346.609C473.188 346.609 472.945 346.742 472.703 346.961L467.219 352.008V347.602C467.219 346.992 466.805 346.57 466.203 346.57C465.602 346.57 465.188 346.992 465.188 347.602V357.141C465.188 357.75 465.602 358.18 466.203 358.18ZM478.211 358H484.328C484.914 358 485.344 357.586 485.344 357C485.344 356.414 484.914 356.008 484.328 356.008H479.227V353.25H483.766C484.312 353.25 484.734 352.867 484.734 352.312C484.734 351.766 484.32 351.367 483.766 351.367H479.227V348.742H484.297C484.883 348.742 485.312 348.328 485.312 347.742C485.312 347.156 484.883 346.75 484.297 346.75H478.211C477.609 346.75 477.203 347.172 477.203 347.781V356.961C477.203 357.57 477.609 358 478.211 358ZM487.391 348.016L491.086 353.297V357.141C491.086 357.75 491.492 358.18 492.094 358.18C492.703 358.18 493.109 357.75 493.109 357.141V353.289L496.805 348.016C496.914 347.859 496.977 347.68 496.977 347.469C496.977 346.977 496.57 346.57 496.016 346.57C495.523 346.57 495.273 346.883 495.016 347.25L492.102 351.453L489.18 347.25C488.922 346.883 488.664 346.57 488.18 346.57C487.617 346.57 487.211 346.977 487.211 347.469C487.211 347.68 487.281 347.859 487.391 348.016ZM417.891 380.18C418.5 380.18 418.906 379.75 418.906 379.141V370.742H421.703C422.281 370.742 422.711 370.328 422.711 369.742C422.711 369.156 422.281 368.75 421.703 368.75H414.086C413.508 368.75 413.078 369.156 413.078 369.742C413.078 370.328 413.508 370.742 414.086 370.742H416.883V379.141C416.883 379.75 417.297 380.18 417.891 380.18ZM426.016 380.18C426.625 380.18 427.031 379.75 427.031 379.141V375.906H429.477L432.047 379.711C432.242 379.992 432.531 380.172 432.898 380.172C433.422 380.172 433.883 379.766 433.883 379.297C433.883 379.07 433.82 378.82 433.609 378.523L431.602 375.586C432.922 375.047 433.797 373.875 433.797 372.328C433.797 370.203 432.109 368.75 429.883 368.75H426.016C425.414 368.75 425.008 369.172 425.008 369.781V379.141C425.008 379.75 425.414 380.18 426.016 380.18ZM427.031 373.984V370.672H429.906C430.969 370.672 431.695 371.328 431.695 372.328C431.695 373.336 430.969 373.984 429.906 373.984H427.031ZM436.5 380.203C437.008 380.203 437.336 379.969 437.5 379.555L438.352 377.391H443.828L444.68 379.555C444.836 379.969 445.172 380.203 445.68 380.203C446.195 380.203 446.648 379.773 446.648 379.25C446.648 379.086 446.609 378.844 446.5 378.586L443.023 370.102C442.586 369.023 442.07 368.516 441.086 368.516C440.102 368.516 439.586 369.023 439.148 370.102L435.672 378.586C435.57 378.844 435.531 379.086 435.531 379.25C435.531 379.773 435.977 380.203 436.5 380.203ZM439.109 375.469L441.094 370.445L443.07 375.469H439.109ZM449.641 380.172C450.242 380.172 450.648 379.75 450.648 379.148V372.102L455.633 379.258C456.109 379.922 456.492 380.172 457.016 380.172C457.719 380.172 458.219 379.648 458.219 378.859V369.602C458.219 369 457.805 368.578 457.203 368.578C456.609 368.578 456.195 369 456.195 369.602V376.766L451.25 369.555C450.719 368.805 450.391 368.578 449.859 368.578C449.117 368.578 448.633 369.094 448.633 369.883V379.148C448.633 379.75 449.031 380.172 449.641 380.172ZM465.773 380.234C468.336 380.234 470.031 378.891 470.031 376.719C470.031 374.609 468.664 373.914 467.07 373.555L465.102 373.109C464.094 372.891 463.461 372.641 463.461 371.734C463.461 370.883 464.25 370.414 465.414 370.414C466.773 370.414 467.633 371 468.172 371.828C468.469 372.109 468.758 372.289 469.133 372.289C469.688 372.289 470.016 371.859 470.016 371.305C470.016 370.672 469.602 369.93 468.875 369.469C468.109 368.969 467.016 368.516 465.578 368.516C463.016 368.516 461.336 369.836 461.336 371.898C461.336 373.812 462.5 374.672 464.398 375.062L466.453 375.484C467.305 375.664 467.93 376.031 467.93 376.891C467.93 377.789 467.18 378.32 465.898 378.32C464.336 378.32 463.445 377.758 462.695 376.68C462.484 376.43 462.227 376.297 461.953 376.297C461.406 376.297 461 376.734 461 377.289C461 377.953 461.453 378.703 462.125 379.203C463.008 379.844 464.109 380.234 465.773 380.234ZM473.938 380.18C474.547 380.18 474.953 379.75 474.953 379.141V376.047H477.656C479.961 376.047 481.711 374.633 481.711 372.398C481.711 370.188 479.961 368.75 477.656 368.75H473.938C473.336 368.75 472.93 369.172 472.93 369.781V379.141C472.93 379.75 473.336 380.18 473.938 380.18ZM474.953 374.125V370.672H477.719C478.844 370.672 479.602 371.359 479.602 372.398C479.602 373.438 478.844 374.125 477.719 374.125H474.953ZM483.266 380.203C483.773 380.203 484.102 379.969 484.266 379.555L485.117 377.391H490.594L491.445 379.555C491.602 379.969 491.938 380.203 492.445 380.203C492.961 380.203 493.414 379.773 493.414 379.25C493.414 379.086 493.375 378.844 493.266 378.586L489.789 370.102C489.352 369.023 488.836 368.516 487.852 368.516C486.867 368.516 486.352 369.023 485.914 370.102L482.438 378.586C482.336 378.844 482.297 379.086 482.297 379.25C482.297 379.773 482.742 380.203 483.266 380.203ZM485.875 375.469L487.859 370.445L489.836 375.469H485.875ZM496.406 380.18C497.016 380.18 497.422 379.75 497.422 379.141V375.906H499.867L502.438 379.711C502.633 379.992 502.922 380.172 503.289 380.172C503.812 380.172 504.273 379.766 504.273 379.297C504.273 379.07 504.211 378.82 504 378.523L501.992 375.586C503.312 375.047 504.188 373.875 504.188 372.328C504.188 370.203 502.5 368.75 500.273 368.75H496.406C495.805 368.75 495.398 369.172 495.398 369.781V379.141C495.398 379.75 495.805 380.18 496.406 380.18ZM497.422 373.984V370.672H500.297C501.359 370.672 502.086 371.328 502.086 372.328C502.086 373.336 501.359 373.984 500.297 373.984H497.422ZM508.312 380H514.43C515.016 380 515.445 379.586 515.445 379C515.445 378.414 515.016 378.008 514.43 378.008H509.328V375.25H513.867C514.414 375.25 514.836 374.867 514.836 374.312C514.836 373.766 514.422 373.367 513.867 373.367H509.328V370.742H514.398C514.984 370.742 515.414 370.328 515.414 369.742C515.414 369.156 514.984 368.75 514.398 368.75H508.312C507.711 368.75 507.305 369.172 507.305 369.781V378.961C507.305 379.57 507.711 380 508.312 380ZM519.438 380.172C520.039 380.172 520.445 379.75 520.445 379.148V372.102L525.43 379.258C525.906 379.922 526.289 380.172 526.812 380.172C527.516 380.172 528.016 379.648 528.016 378.859V369.602C528.016 369 527.602 368.578 527 368.578C526.406 368.578 525.992 369 525.992 369.602V376.766L521.047 369.555C520.516 368.805 520.188 368.578 519.656 368.578C518.914 368.578 518.43 369.094 518.43 369.883V379.148C518.43 379.75 518.828 380.172 519.438 380.172ZM536.5 380.234C538.367 380.234 539.828 379.617 540.852 378.43C541.234 377.984 541.516 377.344 541.516 376.914C541.516 376.367 541.094 375.93 540.57 375.93C540.242 375.93 539.922 376.078 539.617 376.477C538.953 377.594 537.953 378.203 536.516 378.203C534.398 378.203 532.922 376.617 532.922 374.383C532.922 372.133 534.398 370.547 536.516 370.547C537.953 370.547 538.961 371.141 539.617 372.266C539.914 372.672 540.242 372.82 540.57 372.82C541.094 372.82 541.516 372.375 541.516 371.828C541.516 371.367 541.219 370.727 540.812 370.258C539.797 369.086 538.344 368.516 536.5 368.516C533.164 368.516 530.836 370.922 530.836 374.383C530.836 377.836 533.164 380.234 536.5 380.234ZM543.258 370.016L546.953 375.297V379.141C546.953 379.75 547.359 380.18 547.961 380.18C548.57 380.18 548.977 379.75 548.977 379.141V375.289L552.672 370.016C552.781 369.859 552.844 369.68 552.844 369.469C552.844 368.977 552.438 368.57 551.883 368.57C551.391 368.57 551.141 368.883 550.883 369.25L547.969 373.453L545.047 369.25C544.789 368.883 544.531 368.57 544.047 368.57C543.484 368.57 543.078 368.977 543.078 369.469C543.078 369.68 543.148 369.859 543.258 370.016ZM467.32 402H473.062C473.648 402 474.078 401.586 474.078 401C474.078 400.414 473.648 400.008 473.062 400.008H468.336V391.602C468.336 390.992 467.93 390.57 467.32 390.57C466.719 390.57 466.312 390.992 466.312 391.602V400.969C466.312 401.57 466.719 402 467.32 402ZM481.078 402.234C484.477 402.234 486.875 399.812 486.875 396.375C486.875 392.93 484.477 390.516 481.078 390.516C477.68 390.516 475.281 392.93 475.281 396.375C475.281 399.812 477.68 402.234 481.078 402.234ZM477.367 396.375C477.367 394.102 478.922 392.547 481.078 392.547C483.242 392.547 484.789 394.102 484.789 396.375C484.789 398.641 483.242 400.203 481.078 400.203C478.922 400.203 477.367 398.641 477.367 396.375ZM494.953 402.234C498.094 402.234 500.234 400.289 500.234 396.812C500.234 396.047 499.766 395.703 499.172 395.703H494.836C494.297 395.703 493.852 396.047 493.852 396.664C493.852 397.203 494.297 397.609 494.836 397.609H498.164C498.047 399.281 496.875 400.242 495.008 400.242C492.727 400.242 491.227 398.633 491.227 396.383C491.227 394.117 492.75 392.5 494.953 392.5C496.43 392.5 497.398 393.102 498.016 393.938C498.352 394.242 498.625 394.359 498.984 394.359C499.453 394.359 499.898 394.047 499.898 393.461C499.898 392.828 499.375 392.086 498.672 391.586C497.797 390.969 496.578 390.516 495.016 390.516C491.609 390.516 489.141 392.938 489.141 396.398C489.141 399.844 491.492 402.234 494.953 402.234Z" fill="black"/>
<rect x="1.5" y="315.5" width="163" height="117" rx="17.5" fill="#DDEFF1" stroke="#444444" stroke-width="3"/>
<path d="M22.2266 358.234C24.0938 358.234 25.5547 357.617 26.5781 356.43C26.9609 355.984 27.2422 355.344 27.2422 354.914C27.2422 354.367 26.8203 353.93 26.2969 353.93C25.9688 353.93 25.6484 354.078 25.3438 354.477C24.6797 355.594 23.6797 356.203 22.2422 356.203C20.125 356.203 18.6484 354.617 18.6484 352.383C18.6484 350.133 20.125 348.547 22.2422 348.547C23.6797 348.547 24.6875 349.141 25.3438 350.266C25.6406 350.672 25.9688 350.82 26.2969 350.82C26.8203 350.82 27.2422 350.375 27.2422 349.828C27.2422 349.367 26.9453 348.727 26.5391 348.258C25.5234 347.086 24.0703 346.516 22.2266 346.516C18.8906 346.516 16.5625 348.922 16.5625 352.383C16.5625 355.836 18.8906 358.234 22.2266 358.234ZM35.1406 358.234C38.5391 358.234 40.9375 355.812 40.9375 352.375C40.9375 348.93 38.5391 346.516 35.1406 346.516C31.7422 346.516 29.3438 348.93 29.3438 352.375C29.3438 355.812 31.7422 358.234 35.1406 358.234ZM31.4297 352.375C31.4297 350.102 32.9844 348.547 35.1406 348.547C37.3047 348.547 38.8516 350.102 38.8516 352.375C38.8516 354.641 37.3047 356.203 35.1406 356.203C32.9844 356.203 31.4297 354.641 31.4297 352.375ZM44.7578 358H48.3828C51.6797 358 53.8516 355.695 53.8516 352.375C53.8516 349.062 51.6797 346.75 48.3828 346.75H44.7578C44.1562 346.75 43.75 347.172 43.75 347.781V356.969C43.75 357.57 44.1562 358 44.7578 358ZM45.7734 356.023V348.719H48.375C50.3984 348.719 51.7188 350.25 51.7188 352.375C51.7188 354.516 50.3984 356.023 48.375 356.023H45.7734ZM57.6797 358H63.7969C64.3828 358 64.8125 357.586 64.8125 357C64.8125 356.414 64.3828 356.008 63.7969 356.008H58.6953V353.25H63.2344C63.7812 353.25 64.2031 352.867 64.2031 352.312C64.2031 351.766 63.7891 351.367 63.2344 351.367H58.6953V348.742H63.7656C64.3516 348.742 64.7812 348.328 64.7812 347.742C64.7812 347.156 64.3516 346.75 63.7656 346.75H57.6797C57.0781 346.75 56.6719 347.172 56.6719 347.781V356.961C56.6719 357.57 57.0781 358 57.6797 358ZM76.8125 358.234C79.375 358.234 81.0703 356.891 81.0703 354.719C81.0703 352.609 79.7031 351.914 78.1094 351.555L76.1406 351.109C75.1328 350.891 74.5 350.641 74.5 349.734C74.5 348.883 75.2891 348.414 76.4531 348.414C77.8125 348.414 78.6719 349 79.2109 349.828C79.5078 350.109 79.7969 350.289 80.1719 350.289C80.7266 350.289 81.0547 349.859 81.0547 349.305C81.0547 348.672 80.6406 347.93 79.9141 347.469C79.1484 346.969 78.0547 346.516 76.6172 346.516C74.0547 346.516 72.375 347.836 72.375 349.898C72.375 351.812 73.5391 352.672 75.4375 353.062L77.4922 353.484C78.3438 353.664 78.9688 354.031 78.9688 354.891C78.9688 355.789 78.2188 356.32 76.9375 356.32C75.375 356.32 74.4844 355.758 73.7344 354.68C73.5234 354.43 73.2656 354.297 72.9922 354.297C72.4453 354.297 72.0391 354.734 72.0391 355.289C72.0391 355.953 72.4922 356.703 73.1641 357.203C74.0469 357.844 75.1484 358.234 76.8125 358.234ZM84.9766 358.18C85.5859 358.18 85.9922 357.75 85.9922 357.141V347.602C85.9922 346.992 85.5859 346.57 84.9766 346.57C84.375 346.57 83.9688 346.992 83.9688 347.602V357.141C83.9688 357.75 84.375 358.18 84.9766 358.18ZM94.625 358.234C97.7656 358.234 99.9062 356.289 99.9062 352.812C99.9062 352.047 99.4375 351.703 98.8438 351.703H94.5078C93.9688 351.703 93.5234 352.047 93.5234 352.664C93.5234 353.203 93.9688 353.609 94.5078 353.609H97.8359C97.7188 355.281 96.5469 356.242 94.6797 356.242C92.3984 356.242 90.8984 354.633 90.8984 352.383C90.8984 350.117 92.4219 348.5 94.625 348.5C96.1016 348.5 97.0703 349.102 97.6875 349.938C98.0234 350.242 98.2969 350.359 98.6562 350.359C99.125 350.359 99.5703 350.047 99.5703 349.461C99.5703 348.828 99.0469 348.086 98.3438 347.586C97.4688 346.969 96.25 346.516 94.6875 346.516C91.2812 346.516 88.8125 348.938 88.8125 352.398C88.8125 355.844 91.1641 358.234 94.625 358.234ZM103.773 358.172C104.375 358.172 104.781 357.75 104.781 357.148V350.102L109.766 357.258C110.242 357.922 110.625 358.172 111.148 358.172C111.852 358.172 112.352 357.648 112.352 356.859V347.602C112.352 347 111.938 346.578 111.336 346.578C110.742 346.578 110.328 347 110.328 347.602V354.766L105.383 347.555C104.852 346.805 104.523 346.578 103.992 346.578C103.25 346.578 102.766 347.094 102.766 347.883V357.148C102.766 357.75 103.164 358.172 103.773 358.172ZM116.727 358.18C117.336 358.18 117.742 357.75 117.742 357.141V347.602C117.742 346.992 117.336 346.57 116.727 346.57C116.125 346.57 115.719 346.992 115.719 347.602V357.141C115.719 357.75 116.125 358.18 116.727 358.18ZM122.117 358.172C122.719 358.172 123.125 357.75 123.125 357.148V350.102L128.109 357.258C128.586 357.922 128.969 358.172 129.492 358.172C130.195 358.172 130.695 357.648 130.695 356.859V347.602C130.695 347 130.281 346.578 129.68 346.578C129.086 346.578 128.672 347 128.672 347.602V354.766L123.727 347.555C123.195 346.805 122.867 346.578 122.336 346.578C121.594 346.578 121.109 347.094 121.109 347.883V357.148C121.109 357.75 121.508 358.172 122.117 358.172ZM139.328 358.234C142.469 358.234 144.609 356.289 144.609 352.812C144.609 352.047 144.141 351.703 143.547 351.703H139.211C138.672 351.703 138.227 352.047 138.227 352.664C138.227 353.203 138.672 353.609 139.211 353.609H142.539C142.422 355.281 141.25 356.242 139.383 356.242C137.102 356.242 135.602 354.633 135.602 352.383C135.602 350.117 137.125 348.5 139.328 348.5C140.805 348.5 141.773 349.102 142.391 349.938C142.727 350.242 143 350.359 143.359 350.359C143.828 350.359 144.273 350.047 144.273 349.461C144.273 348.828 143.75 348.086 143.047 347.586C142.172 346.969 140.953 346.516 139.391 346.516C135.984 346.516 133.516 348.938 133.516 352.398C133.516 355.844 135.867 358.234 139.328 358.234ZM30.8203 380.234C32.6875 380.234 34.1484 379.617 35.1719 378.43C35.5547 377.984 35.8359 377.344 35.8359 376.914C35.8359 376.367 35.4141 375.93 34.8906 375.93C34.5625 375.93 34.2422 376.078 33.9375 376.477C33.2734 377.594 32.2734 378.203 30.8359 378.203C28.7188 378.203 27.2422 376.617 27.2422 374.383C27.2422 372.133 28.7188 370.547 30.8359 370.547C32.2734 370.547 33.2812 371.141 33.9375 372.266C34.2344 372.672 34.5625 372.82 34.8906 372.82C35.4141 372.82 35.8359 372.375 35.8359 371.828C35.8359 371.367 35.5391 370.727 35.1328 370.258C34.1172 369.086 32.6641 368.516 30.8203 368.516C27.4844 368.516 25.1562 370.922 25.1562 374.383C25.1562 377.836 27.4844 380.234 30.8203 380.234ZM39.5547 380H45.6719C46.2578 380 46.6875 379.586 46.6875 379C46.6875 378.414 46.2578 378.008 45.6719 378.008H40.5703V375.25H45.1094C45.6562 375.25 46.0781 374.867 46.0781 374.312C46.0781 373.766 45.6641 373.367 45.1094 373.367H40.5703V370.742H45.6406C46.2266 370.742 46.6562 370.328 46.6562 369.742C46.6562 369.156 46.2266 368.75 45.6406 368.75H39.5547C38.9531 368.75 38.5469 369.172 38.5469 369.781V378.961C38.5469 379.57 38.9531 380 39.5547 380ZM50.6797 380.18C51.2891 380.18 51.6953 379.75 51.6953 379.141V375.906H54.1406L56.7109 379.711C56.9062 379.992 57.1953 380.172 57.5625 380.172C58.0859 380.172 58.5469 379.766 58.5469 379.297C58.5469 379.07 58.4844 378.82 58.2734 378.523L56.2656 375.586C57.5859 375.047 58.4609 373.875 58.4609 372.328C58.4609 370.203 56.7734 368.75 54.5469 368.75H50.6797C50.0781 368.75 49.6719 369.172 49.6719 369.781V379.141C49.6719 379.75 50.0781 380.18 50.6797 380.18ZM51.6953 373.984V370.672H54.5703C55.6328 370.672 56.3594 371.328 56.3594 372.328C56.3594 373.336 55.6328 373.984 54.5703 373.984H51.6953ZM64.8828 380.18C65.4922 380.18 65.8984 379.75 65.8984 379.141V370.742H68.6953C69.2734 370.742 69.7031 370.328 69.7031 369.742C69.7031 369.156 69.2734 368.75 68.6953 368.75H61.0781C60.5 368.75 60.0703 369.156 60.0703 369.742C60.0703 370.328 60.5 370.742 61.0781 370.742H63.875V379.141C63.875 379.75 64.2891 380.18 64.8828 380.18ZM73.0078 380.18C73.6172 380.18 74.0234 379.75 74.0234 379.141V369.602C74.0234 368.992 73.6172 368.57 73.0078 368.57C72.4062 368.57 72 368.992 72 369.602V379.141C72 379.75 72.4062 380.18 73.0078 380.18ZM78.3984 380.18C79.0078 380.18 79.4141 379.75 79.4141 379.141V375.555H83.8906C84.4766 375.555 84.9062 375.148 84.9062 374.562C84.9062 373.977 84.4766 373.562 83.8906 373.562H79.4141V370.742H84.5078C85.0938 370.742 85.5234 370.328 85.5234 369.742C85.5234 369.156 85.0938 368.75 84.5078 368.75H78.3984C77.7969 368.75 77.3906 369.172 77.3906 369.781V379.141C77.3906 379.75 77.7969 380.18 78.3984 380.18ZM88.8516 380.18C89.4609 380.18 89.8672 379.75 89.8672 379.141V369.602C89.8672 368.992 89.4609 368.57 88.8516 368.57C88.25 368.57 87.8438 368.992 87.8438 369.602V379.141C87.8438 379.75 88.25 380.18 88.8516 380.18ZM98.3516 380.234C100.219 380.234 101.68 379.617 102.703 378.43C103.086 377.984 103.367 377.344 103.367 376.914C103.367 376.367 102.945 375.93 102.422 375.93C102.094 375.93 101.773 376.078 101.469 376.477C100.805 377.594 99.8047 378.203 98.3672 378.203C96.25 378.203 94.7734 376.617 94.7734 374.383C94.7734 372.133 96.25 370.547 98.3672 370.547C99.8047 370.547 100.812 371.141 101.469 372.266C101.766 372.672 102.094 372.82 102.422 372.82C102.945 372.82 103.367 372.375 103.367 371.828C103.367 371.367 103.07 370.727 102.664 370.258C101.648 369.086 100.195 368.516 98.3516 368.516C95.0156 368.516 92.6875 370.922 92.6875 374.383C92.6875 377.836 95.0156 380.234 98.3516 380.234ZM105.711 380.203C106.219 380.203 106.547 379.969 106.711 379.555L107.562 377.391H113.039L113.891 379.555C114.047 379.969 114.383 380.203 114.891 380.203C115.406 380.203 115.859 379.773 115.859 379.25C115.859 379.086 115.82 378.844 115.711 378.586L112.234 370.102C111.797 369.023 111.281 368.516 110.297 368.516C109.312 368.516 108.797 369.023 108.359 370.102L104.883 378.586C104.781 378.844 104.742 379.086 104.742 379.25C104.742 379.773 105.188 380.203 105.711 380.203ZM108.32 375.469L110.305 370.445L112.281 375.469H108.32ZM120.586 380.18C121.195 380.18 121.602 379.75 121.602 379.141V370.742H124.398C124.977 370.742 125.406 370.328 125.406 369.742C125.406 369.156 124.977 368.75 124.398 368.75H116.781C116.203 368.75 115.773 369.156 115.773 369.742C115.773 370.328 116.203 370.742 116.781 370.742H119.578V379.141C119.578 379.75 119.992 380.18 120.586 380.18ZM128.711 380H134.828C135.414 380 135.844 379.586 135.844 379C135.844 378.414 135.414 378.008 134.828 378.008H129.727V375.25H134.266C134.812 375.25 135.234 374.867 135.234 374.312C135.234 373.766 134.82 373.367 134.266 373.367H129.727V370.742H134.797C135.383 370.742 135.812 370.328 135.812 369.742C135.812 369.156 135.383 368.75 134.797 368.75H128.711C128.109 368.75 127.703 369.172 127.703 369.781V378.961C127.703 379.57 128.109 380 128.711 380ZM33.8359 402.203C34.3438 402.203 34.6719 401.969 34.8359 401.555L35.6875 399.391H41.1641L42.0156 401.555C42.1719 401.969 42.5078 402.203 43.0156 402.203C43.5312 402.203 43.9844 401.773 43.9844 401.25C43.9844 401.086 43.9453 400.844 43.8359 400.586L40.3594 392.102C39.9219 391.023 39.4062 390.516 38.4219 390.516C37.4375 390.516 36.9219 391.023 36.4844 392.102L33.0078 400.586C32.9062 400.844 32.8672 401.086 32.8672 401.25C32.8672 401.773 33.3125 402.203 33.8359 402.203ZM36.4453 397.469L38.4297 392.445L40.4062 397.469H36.4453ZM50.4609 402.234C53.3125 402.234 55.1406 400.375 55.1406 397.617V391.602C55.1406 391 54.7188 390.57 54.1172 390.57C53.5234 390.57 53.1172 391 53.1172 391.602V397.414C53.1172 399.078 52.1016 400.203 50.4609 400.203C48.8359 400.203 47.8125 399.078 47.8125 397.414V391.602C47.8125 391 47.4141 390.57 46.8125 390.57C46.2109 390.57 45.7891 391 45.7891 391.602V397.617C45.7891 400.375 47.6172 402.234 50.4609 402.234ZM62.0547 402.18C62.6641 402.18 63.0703 401.75 63.0703 401.141V392.742H65.8672C66.4453 392.742 66.875 392.328 66.875 391.742C66.875 391.156 66.4453 390.75 65.8672 390.75H58.25C57.6719 390.75 57.2422 391.156 57.2422 391.742C57.2422 392.328 57.6719 392.742 58.25 392.742H61.0469V401.141C61.0469 401.75 61.4609 402.18 62.0547 402.18ZM77.6641 402.18C78.2656 402.18 78.6719 401.75 78.6719 401.141V391.602C78.6719 390.992 78.2656 390.57 77.6641 390.57C77.0625 390.57 76.6562 390.992 76.6562 391.602V395.367H71.1953V391.602C71.1953 390.992 70.7891 390.57 70.1797 390.57C69.5781 390.57 69.1719 390.992 69.1719 391.602V401.141C69.1719 401.75 69.5781 402.18 70.1797 402.18C70.7891 402.18 71.1953 401.75 71.1953 401.141V397.289H76.6562V401.141C76.6562 401.75 77.0625 402.18 77.6641 402.18ZM87.2812 402.234C90.6797 402.234 93.0781 399.812 93.0781 396.375C93.0781 392.93 90.6797 390.516 87.2812 390.516C83.8828 390.516 81.4844 392.93 81.4844 396.375C81.4844 399.812 83.8828 402.234 87.2812 402.234ZM83.5703 396.375C83.5703 394.102 85.125 392.547 87.2812 392.547C89.4453 392.547 90.9922 394.102 90.9922 396.375C90.9922 398.641 89.4453 400.203 87.2812 400.203C85.125 400.203 83.5703 398.641 83.5703 396.375ZM96.8984 402.18C97.5078 402.18 97.9141 401.75 97.9141 401.141V397.906H100.359L102.93 401.711C103.125 401.992 103.414 402.172 103.781 402.172C104.305 402.172 104.766 401.766 104.766 401.297C104.766 401.07 104.703 400.82 104.492 400.523L102.484 397.586C103.805 397.047 104.68 395.875 104.68 394.328C104.68 392.203 102.992 390.75 100.766 390.75H96.8984C96.2969 390.75 95.8906 391.172 95.8906 391.781V401.141C95.8906 401.75 96.2969 402.18 96.8984 402.18ZM97.9141 395.984V392.672H100.789C101.852 392.672 102.578 393.328 102.578 394.328C102.578 395.336 101.852 395.984 100.789 395.984H97.9141ZM108.805 402.18C109.414 402.18 109.82 401.75 109.82 401.141V391.602C109.82 390.992 109.414 390.57 108.805 390.57C108.203 390.57 107.797 390.992 107.797 391.602V401.141C107.797 401.75 108.203 402.18 108.805 402.18ZM116.93 402.18C117.539 402.18 117.945 401.75 117.945 401.141V392.742H120.742C121.32 392.742 121.75 392.328 121.75 391.742C121.75 391.156 121.32 390.75 120.742 390.75H113.125C112.547 390.75 112.117 391.156 112.117 391.742C112.117 392.328 112.547 392.742 113.125 392.742H115.922V401.141C115.922 401.75 116.336 402.18 116.93 402.18ZM123.234 392.016L126.93 397.297V401.141C126.93 401.75 127.336 402.18 127.938 402.18C128.547 402.18 128.953 401.75 128.953 401.141V397.289L132.648 392.016C132.758 391.859 132.82 391.68 132.82 391.469C132.82 390.977 132.414 390.57 131.859 390.57C131.367 390.57 131.117 390.883 130.859 391.25L127.945 395.453L125.023 391.25C124.766 390.883 124.508 390.57 124.023 390.57C123.461 390.57 123.055 390.977 123.055 391.469C123.055 391.68 123.125 391.859 123.234 392.016Z" fill="black"/>
<rect x="1.5" y="472.5" width="563" height="117" rx="17.5" fill="#FFEAD7" stroke="#444444" stroke-width="3"/>
<path d="M232.594 526.18C233.203 526.18 233.609 525.75 233.609 525.141V516.742H236.406C236.984 516.742 237.414 516.328 237.414 515.742C237.414 515.156 236.984 514.75 236.406 514.75H228.789C228.211 514.75 227.781 515.156 227.781 515.742C227.781 516.328 228.211 516.742 228.789 516.742H231.586V525.141C231.586 525.75 232 526.18 232.594 526.18ZM240.719 526.18C241.328 526.18 241.734 525.75 241.734 525.141V521.906H244.18L246.75 525.711C246.945 525.992 247.234 526.172 247.602 526.172C248.125 526.172 248.586 525.766 248.586 525.297C248.586 525.07 248.523 524.82 248.312 524.523L246.305 521.586C247.625 521.047 248.5 519.875 248.5 518.328C248.5 516.203 246.812 514.75 244.586 514.75H240.719C240.117 514.75 239.711 515.172 239.711 515.781V525.141C239.711 525.75 240.117 526.18 240.719 526.18ZM241.734 519.984V516.672H244.609C245.672 516.672 246.398 517.328 246.398 518.328C246.398 519.336 245.672 519.984 244.609 519.984H241.734ZM256.016 526.234C258.867 526.234 260.695 524.375 260.695 521.617V515.602C260.695 515 260.273 514.57 259.672 514.57C259.078 514.57 258.672 515 258.672 515.602V521.414C258.672 523.078 257.656 524.203 256.016 524.203C254.391 524.203 253.367 523.078 253.367 521.414V515.602C253.367 515 252.969 514.57 252.367 514.57C251.766 514.57 251.344 515 251.344 515.602V521.617C251.344 524.375 253.172 526.234 256.016 526.234ZM267.977 526.234C270.539 526.234 272.234 524.891 272.234 522.719C272.234 520.609 270.867 519.914 269.273 519.555L267.305 519.109C266.297 518.891 265.664 518.641 265.664 517.734C265.664 516.883 266.453 516.414 267.617 516.414C268.977 516.414 269.836 517 270.375 517.828C270.672 518.109 270.961 518.289 271.336 518.289C271.891 518.289 272.219 517.859 272.219 517.305C272.219 516.672 271.805 515.93 271.078 515.469C270.312 514.969 269.219 514.516 267.781 514.516C265.219 514.516 263.539 515.836 263.539 517.898C263.539 519.812 264.703 520.672 266.602 521.062L268.656 521.484C269.508 521.664 270.133 522.031 270.133 522.891C270.133 523.789 269.383 524.32 268.102 524.32C266.539 524.32 265.648 523.758 264.898 522.68C264.688 522.43 264.43 522.297 264.156 522.297C263.609 522.297 263.203 522.734 263.203 523.289C263.203 523.953 263.656 524.703 264.328 525.203C265.211 525.844 266.312 526.234 267.977 526.234ZM278.812 526.18C279.422 526.18 279.828 525.75 279.828 525.141V516.742H282.625C283.203 516.742 283.633 516.328 283.633 515.742C283.633 515.156 283.203 514.75 282.625 514.75H275.008C274.43 514.75 274 515.156 274 515.742C274 516.328 274.43 516.742 275.008 516.742H277.805V525.141C277.805 525.75 278.219 526.18 278.812 526.18ZM291.766 526.18C292.375 526.18 292.781 525.75 292.781 525.141V521.906H295.227L297.797 525.711C297.992 525.992 298.281 526.172 298.648 526.172C299.172 526.172 299.633 525.766 299.633 525.297C299.633 525.07 299.57 524.82 299.359 524.523L297.352 521.586C298.672 521.047 299.547 519.875 299.547 518.328C299.547 516.203 297.859 514.75 295.633 514.75H291.766C291.164 514.75 290.758 515.172 290.758 515.781V525.141C290.758 525.75 291.164 526.18 291.766 526.18ZM292.781 519.984V516.672H295.656C296.719 516.672 297.445 517.328 297.445 518.328C297.445 519.336 296.719 519.984 295.656 519.984H292.781ZM307.68 526.234C311.078 526.234 313.477 523.812 313.477 520.375C313.477 516.93 311.078 514.516 307.68 514.516C304.281 514.516 301.883 516.93 301.883 520.375C301.883 523.812 304.281 526.234 307.68 526.234ZM303.969 520.375C303.969 518.102 305.523 516.547 307.68 516.547C309.844 516.547 311.391 518.102 311.391 520.375C311.391 522.641 309.844 524.203 307.68 524.203C305.523 524.203 303.969 522.641 303.969 520.375ZM321.539 526.234C324.938 526.234 327.336 523.812 327.336 520.375C327.336 516.93 324.938 514.516 321.539 514.516C318.141 514.516 315.742 516.93 315.742 520.375C315.742 523.812 318.141 526.234 321.539 526.234ZM317.828 520.375C317.828 518.102 319.383 516.547 321.539 516.547C323.703 516.547 325.25 518.102 325.25 520.375C325.25 522.641 323.703 524.203 321.539 524.203C319.383 524.203 317.828 522.641 317.828 520.375ZM333.391 526.18C334 526.18 334.406 525.75 334.406 525.141V516.742H337.203C337.781 516.742 338.211 516.328 338.211 515.742C338.211 515.156 337.781 514.75 337.203 514.75H329.586C329.008 514.75 328.578 515.156 328.578 515.742C328.578 516.328 329.008 516.742 329.586 516.742H332.383V525.141C332.383 525.75 332.797 526.18 333.391 526.18ZM246.601 543.616C246.601 542.315 246.788 541.061 247.161 539.856C247.545 538.64 248.142 537.547 248.953 536.576H250.281C249.534 537.579 248.969 538.683 248.585 539.888C248.212 541.093 248.025 542.331 248.025 543.6C248.025 544.837 248.212 546.053 248.585 547.248C248.969 548.432 249.529 549.525 250.265 550.528H248.953C248.142 549.589 247.545 548.528 247.161 547.344C246.788 546.149 246.601 544.907 246.601 543.616ZM253.445 548.18C254.055 548.18 254.461 547.75 254.461 547.141V544.047H257.164C259.469 544.047 261.219 542.633 261.219 540.398C261.219 538.188 259.469 536.75 257.164 536.75H253.445C252.844 536.75 252.438 537.172 252.438 537.781V547.141C252.438 547.75 252.844 548.18 253.445 548.18ZM254.461 542.125V538.672H257.227C258.352 538.672 259.109 539.359 259.109 540.398C259.109 541.438 258.352 542.125 257.227 542.125H254.461ZM269.062 548.234C272.461 548.234 274.859 545.812 274.859 542.375C274.859 538.93 272.461 536.516 269.062 536.516C265.664 536.516 263.266 538.93 263.266 542.375C263.266 545.812 265.664 548.234 269.062 548.234ZM265.352 542.375C265.352 540.102 266.906 538.547 269.062 538.547C271.227 538.547 272.773 540.102 272.773 542.375C272.773 544.641 271.227 546.203 269.062 546.203C266.906 546.203 265.352 544.641 265.352 542.375ZM278.68 548H284.422C285.008 548 285.438 547.586 285.438 547C285.438 546.414 285.008 546.008 284.422 546.008H279.695V537.602C279.695 536.992 279.289 536.57 278.68 536.57C278.078 536.57 277.672 536.992 277.672 537.602V546.969C277.672 547.57 278.078 548 278.68 548ZM288.711 548.18C289.32 548.18 289.727 547.75 289.727 547.141V537.602C289.727 536.992 289.32 536.57 288.711 536.57C288.109 536.57 287.703 536.992 287.703 537.602V547.141C287.703 547.75 288.109 548.18 288.711 548.18ZM298.211 548.234C300.078 548.234 301.539 547.617 302.562 546.43C302.945 545.984 303.227 545.344 303.227 544.914C303.227 544.367 302.805 543.93 302.281 543.93C301.953 543.93 301.633 544.078 301.328 544.477C300.664 545.594 299.664 546.203 298.227 546.203C296.109 546.203 294.633 544.617 294.633 542.383C294.633 540.133 296.109 538.547 298.227 538.547C299.664 538.547 300.672 539.141 301.328 540.266C301.625 540.672 301.953 540.82 302.281 540.82C302.805 540.82 303.227 540.375 303.227 539.828C303.227 539.367 302.93 538.727 302.523 538.258C301.508 537.086 300.055 536.516 298.211 536.516C294.875 536.516 292.547 538.922 292.547 542.383C292.547 545.836 294.875 548.234 298.211 548.234ZM304.969 538.016L308.664 543.297V547.141C308.664 547.75 309.07 548.18 309.672 548.18C310.281 548.18 310.688 547.75 310.688 547.141V543.289L314.383 538.016C314.492 537.859 314.555 537.68 314.555 537.469C314.555 536.977 314.148 536.57 313.594 536.57C313.102 536.57 312.852 536.883 312.594 537.25L309.68 541.453L306.758 537.25C306.5 536.883 306.242 536.57 305.758 536.57C305.195 536.57 304.789 536.977 304.789 537.469C304.789 537.68 304.859 537.859 304.969 538.016ZM319.402 543.616C319.402 544.907 319.21 546.149 318.826 547.344C318.453 548.528 317.861 549.589 317.05 550.528H315.738C316.474 549.525 317.029 548.432 317.402 547.248C317.786 546.053 317.978 544.837 317.978 543.6C317.978 542.331 317.786 541.093 317.402 539.888C317.029 538.683 316.469 537.579 315.722 536.576H317.05C317.861 537.547 318.453 538.64 318.826 539.856C319.21 541.061 319.402 542.315 319.402 543.616Z" fill="black"/>
<rect x="4.5" y="161.5" width="157" height="111" rx="14.5" fill="white" stroke="#6349FF" stroke-width="3" stroke-linejoin="round"/>
<path d="M46.0703 201.234C48.6328 201.234 50.3281 199.891 50.3281 197.719C50.3281 195.609 48.9609 194.914 47.3672 194.555L45.3984 194.109C44.3906 193.891 43.7578 193.641 43.7578 192.734C43.7578 191.883 44.5469 191.414 45.7109 191.414C47.0703 191.414 47.9297 192 48.4688 192.828C48.7656 193.109 49.0547 193.289 49.4297 193.289C49.9844 193.289 50.3125 192.859 50.3125 192.305C50.3125 191.672 49.8984 190.93 49.1719 190.469C48.4062 189.969 47.3125 189.516 45.875 189.516C43.3125 189.516 41.6328 190.836 41.6328 192.898C41.6328 194.812 42.7969 195.672 44.6953 196.062L46.75 196.484C47.6016 196.664 48.2266 197.031 48.2266 197.891C48.2266 198.789 47.4766 199.32 46.1953 199.32C44.6328 199.32 43.7422 198.758 42.9922 197.68C42.7812 197.43 42.5234 197.297 42.25 197.297C41.7031 197.297 41.2969 197.734 41.2969 198.289C41.2969 198.953 41.75 199.703 42.4219 200.203C43.3047 200.844 44.4062 201.234 46.0703 201.234ZM54.2344 201.18C54.8438 201.18 55.25 200.75 55.25 200.141V190.602C55.25 189.992 54.8438 189.57 54.2344 189.57C53.6328 189.57 53.2266 189.992 53.2266 190.602V200.141C53.2266 200.75 53.6328 201.18 54.2344 201.18ZM63.8828 201.234C67.0234 201.234 69.1641 199.289 69.1641 195.812C69.1641 195.047 68.6953 194.703 68.1016 194.703H63.7656C63.2266 194.703 62.7812 195.047 62.7812 195.664C62.7812 196.203 63.2266 196.609 63.7656 196.609H67.0938C66.9766 198.281 65.8047 199.242 63.9375 199.242C61.6562 199.242 60.1562 197.633 60.1562 195.383C60.1562 193.117 61.6797 191.5 63.8828 191.5C65.3594 191.5 66.3281 192.102 66.9453 192.938C67.2812 193.242 67.5547 193.359 67.9141 193.359C68.3828 193.359 68.8281 193.047 68.8281 192.461C68.8281 191.828 68.3047 191.086 67.6016 190.586C66.7266 189.969 65.5078 189.516 63.9453 189.516C60.5391 189.516 58.0703 191.938 58.0703 195.398C58.0703 198.844 60.4219 201.234 63.8828 201.234ZM73.0312 201.172C73.6328 201.172 74.0391 200.75 74.0391 200.148V193.102L79.0234 200.258C79.5 200.922 79.8828 201.172 80.4062 201.172C81.1094 201.172 81.6094 200.648 81.6094 199.859V190.602C81.6094 190 81.1953 189.578 80.5938 189.578C80 189.578 79.5859 190 79.5859 190.602V197.766L74.6406 190.555C74.1094 189.805 73.7812 189.578 73.25 189.578C72.5078 189.578 72.0234 190.094 72.0234 190.883V200.148C72.0234 200.75 72.4219 201.172 73.0312 201.172ZM89.4688 201.203C89.9766 201.203 90.3047 200.969 90.4688 200.555L91.3203 198.391H96.7969L97.6484 200.555C97.8047 200.969 98.1406 201.203 98.6484 201.203C99.1641 201.203 99.6172 200.773 99.6172 200.25C99.6172 200.086 99.5781 199.844 99.4688 199.586L95.9922 191.102C95.5547 190.023 95.0391 189.516 94.0547 189.516C93.0703 189.516 92.5547 190.023 92.1172 191.102L88.6406 199.586C88.5391 199.844 88.5 200.086 88.5 200.25C88.5 200.773 88.9453 201.203 89.4688 201.203ZM92.0781 196.469L94.0625 191.445L96.0391 196.469H92.0781ZM102.609 201.172C103.211 201.172 103.617 200.75 103.617 200.148V193.102L108.602 200.258C109.078 200.922 109.461 201.172 109.984 201.172C110.688 201.172 111.188 200.648 111.188 199.859V190.602C111.188 190 110.773 189.578 110.172 189.578C109.578 189.578 109.164 190 109.164 190.602V197.766L104.219 190.555C103.688 189.805 103.359 189.578 102.828 189.578C102.086 189.578 101.602 190.094 101.602 190.883V200.148C101.602 200.75 102 201.172 102.609 201.172ZM115.562 201H119.188C122.484 201 124.656 198.695 124.656 195.375C124.656 192.062 122.484 189.75 119.188 189.75H115.562C114.961 189.75 114.555 190.172 114.555 190.781V199.969C114.555 200.57 114.961 201 115.562 201ZM116.578 199.023V191.719H119.18C121.203 191.719 122.523 193.25 122.523 195.375C122.523 197.516 121.203 199.023 119.18 199.023H116.578ZM48.0234 223.18C48.6328 223.18 49.0391 222.75 49.0391 222.141V219.047H51.7422C54.0469 219.047 55.7969 217.633 55.7969 215.398C55.7969 213.188 54.0469 211.75 51.7422 211.75H48.0234C47.4219 211.75 47.0156 212.172 47.0156 212.781V222.141C47.0156 222.75 47.4219 223.18 48.0234 223.18ZM49.0391 217.125V213.672H51.8047C52.9297 213.672 53.6875 214.359 53.6875 215.398C53.6875 216.438 52.9297 217.125 51.8047 217.125H49.0391ZM63.0703 223.234C65.9219 223.234 67.75 221.375 67.75 218.617V212.602C67.75 212 67.3281 211.57 66.7266 211.57C66.1328 211.57 65.7266 212 65.7266 212.602V218.414C65.7266 220.078 64.7109 221.203 63.0703 221.203C61.4453 221.203 60.4219 220.078 60.4219 218.414V212.602C60.4219 212 60.0234 211.57 59.4219 211.57C58.8203 211.57 58.3984 212 58.3984 212.602V218.617C58.3984 221.375 60.2266 223.234 63.0703 223.234ZM71.9141 223H71.9297H76.0078C78.3359 223 79.8203 221.664 79.8203 219.672C79.8203 218.539 79.1797 217.656 78.0859 217.273C79.1484 216.875 79.7344 216.023 79.7344 214.938C79.7344 212.984 78.2734 211.75 75.9688 211.75H71.9141C71.3125 211.758 70.9219 212.188 70.9219 212.781V221.969C70.9219 222.562 71.3125 222.992 71.9141 223ZM72.9375 221.055V218.094H75.9375C77.0703 218.094 77.7031 218.648 77.7031 219.555C77.7031 220.508 77.0469 221.055 75.9375 221.055H72.9375ZM72.9375 216.422V213.695H75.8828C76.9844 213.695 77.6172 214.219 77.6172 215.094C77.6172 215.914 77 216.422 75.8828 216.422H72.9375ZM83.7266 223H89.4688C90.0547 223 90.4844 222.586 90.4844 222C90.4844 221.414 90.0547 221.008 89.4688 221.008H84.7422V212.602C84.7422 211.992 84.3359 211.57 83.7266 211.57C83.125 211.57 82.7188 211.992 82.7188 212.602V221.969C82.7188 222.57 83.125 223 83.7266 223ZM93.7578 223.18C94.3672 223.18 94.7734 222.75 94.7734 222.141V212.602C94.7734 211.992 94.3672 211.57 93.7578 211.57C93.1562 211.57 92.75 211.992 92.75 212.602V222.141C92.75 222.75 93.1562 223.18 93.7578 223.18ZM102.328 223.234C104.891 223.234 106.586 221.891 106.586 219.719C106.586 217.609 105.219 216.914 103.625 216.555L101.656 216.109C100.648 215.891 100.016 215.641 100.016 214.734C100.016 213.883 100.805 213.414 101.969 213.414C103.328 213.414 104.188 214 104.727 214.828C105.023 215.109 105.312 215.289 105.688 215.289C106.242 215.289 106.57 214.859 106.57 214.305C106.57 213.672 106.156 212.93 105.43 212.469C104.664 211.969 103.57 211.516 102.133 211.516C99.5703 211.516 97.8906 212.836 97.8906 214.898C97.8906 216.812 99.0547 217.672 100.953 218.062L103.008 218.484C103.859 218.664 104.484 219.031 104.484 219.891C104.484 220.789 103.734 221.32 102.453 221.32C100.891 221.32 100 220.758 99.25 219.68C99.0391 219.43 98.7812 219.297 98.5078 219.297C97.9609 219.297 97.5547 219.734 97.5547 220.289C97.5547 220.953 98.0078 221.703 98.6797 222.203C99.5625 222.844 100.664 223.234 102.328 223.234ZM117.977 223.18C118.578 223.18 118.984 222.75 118.984 222.141V212.602C118.984 211.992 118.578 211.57 117.977 211.57C117.375 211.57 116.969 211.992 116.969 212.602V216.367H111.508V212.602C111.508 211.992 111.102 211.57 110.492 211.57C109.891 211.57 109.484 211.992 109.484 212.602V222.141C109.484 222.75 109.891 223.18 110.492 223.18C111.102 223.18 111.508 222.75 111.508 222.141V218.289H116.969V222.141C116.969 222.75 117.375 223.18 117.977 223.18ZM36.5859 245.203C37.0938 245.203 37.4219 244.969 37.5859 244.555L38.4375 242.391H43.9141L44.7656 244.555C44.9219 244.969 45.2578 245.203 45.7656 245.203C46.2812 245.203 46.7344 244.773 46.7344 244.25C46.7344 244.086 46.6953 243.844 46.5859 243.586L43.1094 235.102C42.6719 234.023 42.1562 233.516 41.1719 233.516C40.1875 233.516 39.6719 234.023 39.2344 235.102L35.7578 243.586C35.6562 243.844 35.6172 244.086 35.6172 244.25C35.6172 244.773 36.0625 245.203 36.5859 245.203ZM39.1953 240.469L41.1797 235.445L43.1562 240.469H39.1953ZM49.7266 245.18C50.3359 245.18 50.7422 244.75 50.7422 244.141V240.906H53.1875L55.7578 244.711C55.9531 244.992 56.2422 245.172 56.6094 245.172C57.1328 245.172 57.5938 244.766 57.5938 244.297C57.5938 244.07 57.5312 243.82 57.3203 243.523L55.3125 240.586C56.6328 240.047 57.5078 238.875 57.5078 237.328C57.5078 235.203 55.8203 233.75 53.5938 233.75H49.7266C49.125 233.75 48.7188 234.172 48.7188 234.781V244.141C48.7188 244.75 49.125 245.18 49.7266 245.18ZM50.7422 238.984V235.672H53.6172C54.6797 235.672 55.4062 236.328 55.4062 237.328C55.4062 238.336 54.6797 238.984 53.6172 238.984H50.7422ZM63.9297 245.18C64.5391 245.18 64.9453 244.75 64.9453 244.141V235.742H67.7422C68.3203 235.742 68.75 235.328 68.75 234.742C68.75 234.156 68.3203 233.75 67.7422 233.75H60.125C59.5469 233.75 59.1172 234.156 59.1172 234.742C59.1172 235.328 59.5469 235.742 60.125 235.742H62.9219V244.141C62.9219 244.75 63.3359 245.18 63.9297 245.18ZM72.0547 245.18C72.6641 245.18 73.0703 244.75 73.0703 244.141V234.602C73.0703 233.992 72.6641 233.57 72.0547 233.57C71.4531 233.57 71.0469 233.992 71.0469 234.602V244.141C71.0469 244.75 71.4531 245.18 72.0547 245.18ZM77.4453 245.18C78.0547 245.18 78.4609 244.75 78.4609 244.141V240.555H82.9375C83.5234 240.555 83.9531 240.148 83.9531 239.562C83.9531 238.977 83.5234 238.562 82.9375 238.562H78.4609V235.742H83.5547C84.1406 235.742 84.5703 235.328 84.5703 234.742C84.5703 234.156 84.1406 233.75 83.5547 233.75H77.4453C76.8438 233.75 76.4375 234.172 76.4375 234.781V244.141C76.4375 244.75 76.8438 245.18 77.4453 245.18ZM85.7734 245.203C86.2812 245.203 86.6094 244.969 86.7734 244.555L87.625 242.391H93.1016L93.9531 244.555C94.1094 244.969 94.4453 245.203 94.9531 245.203C95.4688 245.203 95.9219 244.773 95.9219 244.25C95.9219 244.086 95.8828 243.844 95.7734 243.586L92.2969 235.102C91.8594 234.023 91.3438 233.516 90.3594 233.516C89.375 233.516 88.8594 234.023 88.4219 235.102L84.9453 243.586C84.8438 243.844 84.8047 244.086 84.8047 244.25C84.8047 244.773 85.25 245.203 85.7734 245.203ZM88.3828 240.469L90.3672 235.445L92.3438 240.469H88.3828ZM102.742 245.234C104.609 245.234 106.07 244.617 107.094 243.43C107.477 242.984 107.758 242.344 107.758 241.914C107.758 241.367 107.336 240.93 106.812 240.93C106.484 240.93 106.164 241.078 105.859 241.477C105.195 242.594 104.195 243.203 102.758 243.203C100.641 243.203 99.1641 241.617 99.1641 239.383C99.1641 237.133 100.641 235.547 102.758 235.547C104.195 235.547 105.203 236.141 105.859 237.266C106.156 237.672 106.484 237.82 106.812 237.82C107.336 237.82 107.758 237.375 107.758 236.828C107.758 236.367 107.461 235.727 107.055 235.258C106.039 234.086 104.586 233.516 102.742 233.516C99.4062 233.516 97.0781 235.922 97.0781 239.383C97.0781 242.836 99.4062 245.234 102.742 245.234ZM114.133 245.18C114.742 245.18 115.148 244.75 115.148 244.141V235.742H117.945C118.523 235.742 118.953 235.328 118.953 234.742C118.953 234.156 118.523 233.75 117.945 233.75H110.328C109.75 233.75 109.32 234.156 109.32 234.742C109.32 235.328 109.75 235.742 110.328 235.742H113.125V244.141C113.125 244.75 113.539 245.18 114.133 245.18ZM125.234 245.234C127.797 245.234 129.492 243.891 129.492 241.719C129.492 239.609 128.125 238.914 126.531 238.555L124.562 238.109C123.555 237.891 122.922 237.641 122.922 236.734C122.922 235.883 123.711 235.414 124.875 235.414C126.234 235.414 127.094 236 127.633 236.828C127.93 237.109 128.219 237.289 128.594 237.289C129.148 237.289 129.477 236.859 129.477 236.305C129.477 235.672 129.062 234.93 128.336 234.469C127.57 233.969 126.477 233.516 125.039 233.516C122.477 233.516 120.797 234.836 120.797 236.898C120.797 238.812 121.961 239.672 123.859 240.062L125.914 240.484C126.766 240.664 127.391 241.031 127.391 241.891C127.391 242.789 126.641 243.32 125.359 243.32C123.797 243.32 122.906 242.758 122.156 241.68C121.945 241.43 121.688 241.297 121.414 241.297C120.867 241.297 120.461 241.734 120.461 242.289C120.461 242.953 120.914 243.703 121.586 244.203C122.469 244.844 123.57 245.234 125.234 245.234Z" fill="black"/>
<rect x="203.5" y="161.5" width="157" height="111" rx="14.5" fill="white" stroke="#6349FF" stroke-width="3" stroke-linejoin="round"/>
<path d="M247.023 212.18C247.633 212.18 248.039 211.75 248.039 211.141V208.047H250.742C253.047 208.047 254.797 206.633 254.797 204.398C254.797 202.188 253.047 200.75 250.742 200.75H247.023C246.422 200.75 246.016 201.172 246.016 201.781V211.141C246.016 211.75 246.422 212.18 247.023 212.18ZM248.039 206.125V202.672H250.805C251.93 202.672 252.688 203.359 252.688 204.398C252.688 205.438 251.93 206.125 250.805 206.125H248.039ZM262.07 212.234C264.922 212.234 266.75 210.375 266.75 207.617V201.602C266.75 201 266.328 200.57 265.727 200.57C265.133 200.57 264.727 201 264.727 201.602V207.414C264.727 209.078 263.711 210.203 262.07 210.203C260.445 210.203 259.422 209.078 259.422 207.414V201.602C259.422 201 259.023 200.57 258.422 200.57C257.82 200.57 257.398 201 257.398 201.602V207.617C257.398 210.375 259.227 212.234 262.07 212.234ZM270.914 212H270.93H275.008C277.336 212 278.82 210.664 278.82 208.672C278.82 207.539 278.18 206.656 277.086 206.273C278.148 205.875 278.734 205.023 278.734 203.938C278.734 201.984 277.273 200.75 274.969 200.75H270.914C270.312 200.758 269.922 201.188 269.922 201.781V210.969C269.922 211.562 270.312 211.992 270.914 212ZM271.938 210.055V207.094H274.938C276.07 207.094 276.703 207.648 276.703 208.555C276.703 209.508 276.047 210.055 274.938 210.055H271.938ZM271.938 205.422V202.695H274.883C275.984 202.695 276.617 203.219 276.617 204.094C276.617 204.914 276 205.422 274.883 205.422H271.938ZM282.727 212H288.469C289.055 212 289.484 211.586 289.484 211C289.484 210.414 289.055 210.008 288.469 210.008H283.742V201.602C283.742 200.992 283.336 200.57 282.727 200.57C282.125 200.57 281.719 200.992 281.719 201.602V210.969C281.719 211.57 282.125 212 282.727 212ZM292.758 212.18C293.367 212.18 293.773 211.75 293.773 211.141V201.602C293.773 200.992 293.367 200.57 292.758 200.57C292.156 200.57 291.75 200.992 291.75 201.602V211.141C291.75 211.75 292.156 212.18 292.758 212.18ZM301.328 212.234C303.891 212.234 305.586 210.891 305.586 208.719C305.586 206.609 304.219 205.914 302.625 205.555L300.656 205.109C299.648 204.891 299.016 204.641 299.016 203.734C299.016 202.883 299.805 202.414 300.969 202.414C302.328 202.414 303.188 203 303.727 203.828C304.023 204.109 304.312 204.289 304.688 204.289C305.242 204.289 305.57 203.859 305.57 203.305C305.57 202.672 305.156 201.93 304.43 201.469C303.664 200.969 302.57 200.516 301.133 200.516C298.57 200.516 296.891 201.836 296.891 203.898C296.891 205.812 298.055 206.672 299.953 207.062L302.008 207.484C302.859 207.664 303.484 208.031 303.484 208.891C303.484 209.789 302.734 210.32 301.453 210.32C299.891 210.32 299 209.758 298.25 208.68C298.039 208.43 297.781 208.297 297.508 208.297C296.961 208.297 296.555 208.734 296.555 209.289C296.555 209.953 297.008 210.703 297.68 211.203C298.562 211.844 299.664 212.234 301.328 212.234ZM316.977 212.18C317.578 212.18 317.984 211.75 317.984 211.141V201.602C317.984 200.992 317.578 200.57 316.977 200.57C316.375 200.57 315.969 200.992 315.969 201.602V205.367H310.508V201.602C310.508 200.992 310.102 200.57 309.492 200.57C308.891 200.57 308.484 200.992 308.484 201.602V211.141C308.484 211.75 308.891 212.18 309.492 212.18C310.102 212.18 310.508 211.75 310.508 211.141V207.289H315.969V211.141C315.969 211.75 316.375 212.18 316.977 212.18ZM232.148 234.234C234.711 234.234 236.406 232.891 236.406 230.719C236.406 228.609 235.039 227.914 233.445 227.555L231.477 227.109C230.469 226.891 229.836 226.641 229.836 225.734C229.836 224.883 230.625 224.414 231.789 224.414C233.148 224.414 234.008 225 234.547 225.828C234.844 226.109 235.133 226.289 235.508 226.289C236.062 226.289 236.391 225.859 236.391 225.305C236.391 224.672 235.977 223.93 235.25 223.469C234.484 222.969 233.391 222.516 231.953 222.516C229.391 222.516 227.711 223.836 227.711 225.898C227.711 227.812 228.875 228.672 230.773 229.062L232.828 229.484C233.68 229.664 234.305 230.031 234.305 230.891C234.305 231.789 233.555 232.32 232.273 232.32C230.711 232.32 229.82 231.758 229.07 230.68C228.859 230.43 228.602 230.297 228.328 230.297C227.781 230.297 227.375 230.734 227.375 231.289C227.375 231.953 227.828 232.703 228.5 233.203C229.383 233.844 230.484 234.234 232.148 234.234ZM240.312 234.18C240.922 234.18 241.328 233.75 241.328 233.141V223.602C241.328 222.992 240.922 222.57 240.312 222.57C239.711 222.57 239.305 222.992 239.305 223.602V233.141C239.305 233.75 239.711 234.18 240.312 234.18ZM249.961 234.234C253.102 234.234 255.242 232.289 255.242 228.812C255.242 228.047 254.773 227.703 254.18 227.703H249.844C249.305 227.703 248.859 228.047 248.859 228.664C248.859 229.203 249.305 229.609 249.844 229.609H253.172C253.055 231.281 251.883 232.242 250.016 232.242C247.734 232.242 246.234 230.633 246.234 228.383C246.234 226.117 247.758 224.5 249.961 224.5C251.438 224.5 252.406 225.102 253.023 225.938C253.359 226.242 253.633 226.359 253.992 226.359C254.461 226.359 254.906 226.047 254.906 225.461C254.906 224.828 254.383 224.086 253.68 223.586C252.805 222.969 251.586 222.516 250.023 222.516C246.617 222.516 244.148 224.938 244.148 228.398C244.148 231.844 246.5 234.234 249.961 234.234ZM259.109 234.172C259.711 234.172 260.117 233.75 260.117 233.148V226.102L265.102 233.258C265.578 233.922 265.961 234.172 266.484 234.172C267.188 234.172 267.688 233.648 267.688 232.859V223.602C267.688 223 267.273 222.578 266.672 222.578C266.078 222.578 265.664 223 265.664 223.602V230.766L260.719 223.555C260.188 222.805 259.859 222.578 259.328 222.578C258.586 222.578 258.102 223.094 258.102 223.883V233.148C258.102 233.75 258.5 234.172 259.109 234.172ZM270.656 234.203C271.164 234.203 271.492 233.969 271.656 233.555L272.508 231.391H277.984L278.836 233.555C278.992 233.969 279.328 234.203 279.836 234.203C280.352 234.203 280.805 233.773 280.805 233.25C280.805 233.086 280.766 232.844 280.656 232.586L277.18 224.102C276.742 223.023 276.227 222.516 275.242 222.516C274.258 222.516 273.742 223.023 273.305 224.102L269.828 232.586C269.727 232.844 269.688 233.086 269.688 233.25C269.688 233.773 270.133 234.203 270.656 234.203ZM273.266 229.469L275.25 224.445L277.227 229.469H273.266ZM285.531 234.18C286.141 234.18 286.547 233.75 286.547 233.141V224.742H289.344C289.922 224.742 290.352 224.328 290.352 223.742C290.352 223.156 289.922 222.75 289.344 222.75H281.727C281.148 222.75 280.719 223.156 280.719 223.742C280.719 224.328 281.148 224.742 281.727 224.742H284.523V233.141C284.523 233.75 284.938 234.18 285.531 234.18ZM297.125 234.234C299.977 234.234 301.805 232.375 301.805 229.617V223.602C301.805 223 301.383 222.57 300.781 222.57C300.188 222.57 299.781 223 299.781 223.602V229.414C299.781 231.078 298.766 232.203 297.125 232.203C295.5 232.203 294.477 231.078 294.477 229.414V223.602C294.477 223 294.078 222.57 293.477 222.57C292.875 222.57 292.453 223 292.453 223.602V229.617C292.453 232.375 294.281 234.234 297.125 234.234ZM305.984 234.18C306.594 234.18 307 233.75 307 233.141V229.906H309.445L312.016 233.711C312.211 233.992 312.5 234.172 312.867 234.172C313.391 234.172 313.852 233.766 313.852 233.297C313.852 233.07 313.789 232.82 313.578 232.523L311.57 229.586C312.891 229.047 313.766 227.875 313.766 226.328C313.766 224.203 312.078 222.75 309.852 222.75H305.984C305.383 222.75 304.977 223.172 304.977 223.781V233.141C304.977 233.75 305.383 234.18 305.984 234.18ZM307 227.984V224.672H309.875C310.938 224.672 311.664 225.328 311.664 226.328C311.664 227.336 310.938 227.984 309.875 227.984H307ZM317.891 234H324.008C324.594 234 325.023 233.586 325.023 233C325.023 232.414 324.594 232.008 324.008 232.008H318.906V229.25H323.445C323.992 229.25 324.414 228.867 324.414 228.312C324.414 227.766 324 227.367 323.445 227.367H318.906V224.742H323.977C324.562 224.742 324.992 224.328 324.992 223.742C324.992 223.156 324.562 222.75 323.977 222.75H317.891C317.289 222.75 316.883 223.172 316.883 223.781V232.961C316.883 233.57 317.289 234 317.891 234ZM332.195 234.234C334.758 234.234 336.453 232.891 336.453 230.719C336.453 228.609 335.086 227.914 333.492 227.555L331.523 227.109C330.516 226.891 329.883 226.641 329.883 225.734C329.883 224.883 330.672 224.414 331.836 224.414C333.195 224.414 334.055 225 334.594 225.828C334.891 226.109 335.18 226.289 335.555 226.289C336.109 226.289 336.438 225.859 336.438 225.305C336.438 224.672 336.023 223.93 335.297 223.469C334.531 222.969 333.438 222.516 332 222.516C329.438 222.516 327.758 223.836 327.758 225.898C327.758 227.812 328.922 228.672 330.82 229.062L332.875 229.484C333.727 229.664 334.352 230.031 334.352 230.891C334.352 231.789 333.602 232.32 332.32 232.32C330.758 232.32 329.867 231.758 329.117 230.68C328.906 230.43 328.648 230.297 328.375 230.297C327.828 230.297 327.422 230.734 327.422 231.289C327.422 231.953 327.875 232.703 328.547 233.203C329.43 233.844 330.531 234.234 332.195 234.234Z" fill="black"/>
<rect x="404.5" y="161.5" width="157" height="111" rx="14.5" fill="white" stroke="#6349FF" stroke-width="3" stroke-linejoin="round"/>
<path d="M443.844 212.18C444.422 212.18 444.852 211.719 444.852 211.117V204.25L447.508 209.367C447.938 210.18 448.227 210.516 448.828 210.516C449.43 210.516 449.711 210.18 450.148 209.367L452.812 204.25V211.117C452.812 211.719 453.234 212.18 453.812 212.18C454.391 212.18 454.82 211.734 454.82 211.117V201.945C454.82 201.062 454.281 200.57 453.547 200.57C452.875 200.57 452.539 200.883 452.141 201.617L448.828 207.898L445.516 201.617C445.133 200.906 444.805 200.57 444.117 200.57C443.383 200.57 442.844 201.062 442.844 201.945V211.117C442.844 211.734 443.273 212.18 443.844 212.18ZM463.438 212.234C466.836 212.234 469.234 209.812 469.234 206.375C469.234 202.93 466.836 200.516 463.438 200.516C460.039 200.516 457.641 202.93 457.641 206.375C457.641 209.812 460.039 212.234 463.438 212.234ZM459.727 206.375C459.727 204.102 461.281 202.547 463.438 202.547C465.602 202.547 467.148 204.102 467.148 206.375C467.148 208.641 465.602 210.203 463.438 210.203C461.281 210.203 459.727 208.641 459.727 206.375ZM473.055 212.172C473.656 212.172 474.062 211.75 474.062 211.148V204.102L479.047 211.258C479.523 211.922 479.906 212.172 480.43 212.172C481.133 212.172 481.633 211.648 481.633 210.859V201.602C481.633 201 481.219 200.578 480.617 200.578C480.023 200.578 479.609 201 479.609 201.602V208.766L474.664 201.555C474.133 200.805 473.805 200.578 473.273 200.578C472.531 200.578 472.047 201.094 472.047 201.883V211.148C472.047 211.75 472.445 212.172 473.055 212.172ZM486.008 212.18C486.617 212.18 487.023 211.75 487.023 211.141V201.602C487.023 200.992 486.617 200.57 486.008 200.57C485.406 200.57 485 200.992 485 201.602V211.141C485 211.75 485.406 212.18 486.008 212.18ZM494.133 212.18C494.742 212.18 495.148 211.75 495.148 211.141V202.742H497.945C498.523 202.742 498.953 202.328 498.953 201.742C498.953 201.156 498.523 200.75 497.945 200.75H490.328C489.75 200.75 489.32 201.156 489.32 201.742C489.32 202.328 489.75 202.742 490.328 202.742H493.125V211.141C493.125 211.75 493.539 212.18 494.133 212.18ZM506 212.234C509.398 212.234 511.797 209.812 511.797 206.375C511.797 202.93 509.398 200.516 506 200.516C502.602 200.516 500.203 202.93 500.203 206.375C500.203 209.812 502.602 212.234 506 212.234ZM502.289 206.375C502.289 204.102 503.844 202.547 506 202.547C508.164 202.547 509.711 204.102 509.711 206.375C509.711 208.641 508.164 210.203 506 210.203C503.844 210.203 502.289 208.641 502.289 206.375ZM515.617 212.18C516.227 212.18 516.633 211.75 516.633 211.141V207.906H519.078L521.648 211.711C521.844 211.992 522.133 212.172 522.5 212.172C523.023 212.172 523.484 211.766 523.484 211.297C523.484 211.07 523.422 210.82 523.211 210.523L521.203 207.586C522.523 207.047 523.398 205.875 523.398 204.328C523.398 202.203 521.711 200.75 519.484 200.75H515.617C515.016 200.75 514.609 201.172 514.609 201.781V211.141C514.609 211.75 515.016 212.18 515.617 212.18ZM516.633 205.984V202.672H519.508C520.57 202.672 521.297 203.328 521.297 204.328C521.297 205.336 520.57 205.984 519.508 205.984H516.633ZM461.641 234H467.383C467.969 234 468.398 233.586 468.398 233C468.398 232.414 467.969 232.008 467.383 232.008H462.656V223.602C462.656 222.992 462.25 222.57 461.641 222.57C461.039 222.57 460.633 222.992 460.633 223.602V232.969C460.633 233.57 461.039 234 461.641 234ZM475.398 234.234C478.797 234.234 481.195 231.812 481.195 228.375C481.195 224.93 478.797 222.516 475.398 222.516C472 222.516 469.602 224.93 469.602 228.375C469.602 231.812 472 234.234 475.398 234.234ZM471.688 228.375C471.688 226.102 473.242 224.547 475.398 224.547C477.562 224.547 479.109 226.102 479.109 228.375C479.109 230.641 477.562 232.203 475.398 232.203C473.242 232.203 471.688 230.641 471.688 228.375ZM489.273 234.234C492.414 234.234 494.555 232.289 494.555 228.812C494.555 228.047 494.086 227.703 493.492 227.703H489.156C488.617 227.703 488.172 228.047 488.172 228.664C488.172 229.203 488.617 229.609 489.156 229.609H492.484C492.367 231.281 491.195 232.242 489.328 232.242C487.047 232.242 485.547 230.633 485.547 228.383C485.547 226.117 487.07 224.5 489.273 224.5C490.75 224.5 491.719 225.102 492.336 225.938C492.672 226.242 492.945 226.359 493.305 226.359C493.773 226.359 494.219 226.047 494.219 225.461C494.219 224.828 493.695 224.086 492.992 223.586C492.117 222.969 490.898 222.516 489.336 222.516C485.93 222.516 483.461 224.938 483.461 228.398C483.461 231.844 485.812 234.234 489.273 234.234ZM501.523 234.234C504.086 234.234 505.781 232.891 505.781 230.719C505.781 228.609 504.414 227.914 502.82 227.555L500.852 227.109C499.844 226.891 499.211 226.641 499.211 225.734C499.211 224.883 500 224.414 501.164 224.414C502.523 224.414 503.383 225 503.922 225.828C504.219 226.109 504.508 226.289 504.883 226.289C505.438 226.289 505.766 225.859 505.766 225.305C505.766 224.672 505.352 223.93 504.625 223.469C503.859 222.969 502.766 222.516 501.328 222.516C498.766 222.516 497.086 223.836 497.086 225.898C497.086 227.812 498.25 228.672 500.148 229.062L502.203 229.484C503.055 229.664 503.68 230.031 503.68 230.891C503.68 231.789 502.93 232.32 501.648 232.32C500.086 232.32 499.195 231.758 498.445 230.68C498.234 230.43 497.977 230.297 497.703 230.297C497.156 230.297 496.75 230.734 496.75 231.289C496.75 231.953 497.203 232.703 497.875 233.203C498.758 233.844 499.859 234.234 501.523 234.234Z" fill="black"/>
</svg>
