<svg width="40" height="40" viewBox="0 0 40 40" fill="none" xmlns="http://www.w3.org/2000/svg">
<rect width="40" height="40" rx="6" fill="#FFEAD7"/>
<path d="M14.2025 22.6375C14.2025 23.795 13.2575 24.7388 12.1012 24.7388C10.945 24.7388 10 23.795 10 22.6388C10 21.4825 10.945 20.5375 12.1 20.5375H14.2025V22.6375ZM15.26 22.6375C15.26 21.4825 16.205 20.5375 17.3612 20.5375C18.5175 20.5375 19.4625 21.4825 19.4625 22.6375V27.9C19.4625 29.055 18.5175 30 17.3625 30C16.8056 29.999 16.2718 29.7775 15.8778 29.384C15.4838 28.9904 15.2617 28.4569 15.26 27.9V22.6375ZM17.3625 14.2025C16.205 14.2025 15.26 13.2575 15.26 12.1012C15.26 10.945 16.205 10 17.3625 10C18.52 10 19.4625 10.945 19.4625 12.1V14.2025H17.3625ZM17.3625 15.26C18.5175 15.26 19.4625 16.205 19.4625 17.3612C19.4625 18.5175 18.5175 19.4625 17.3625 19.4625H12.1C10.9462 19.4625 10 18.5175 10 17.3625C10 16.205 10.945 15.26 12.1 15.26H17.3625ZM25.7987 17.3625C25.7987 16.205 26.7425 15.26 27.8988 15.26C29.055 15.26 30 16.205 30 17.3612C30 18.5175 29.055 19.4625 27.9 19.4625H25.7987V17.3625ZM24.7388 17.3625C24.7388 18.5175 23.795 19.4625 22.6388 19.4625C22.0821 19.4612 21.5486 19.2395 21.1548 18.846C20.7611 18.4525 20.5392 17.9192 20.5375 17.3625V12.1C20.5375 10.9462 21.4825 10 22.6375 10C23.795 10 24.7388 10.945 24.7388 12.1V17.3625ZM22.6375 25.7975C23.795 25.7975 24.74 26.7425 24.74 27.8988C24.74 29.055 23.795 30 22.6375 30C21.48 30 20.5363 29.055 20.5363 27.9V25.7975H22.6363H22.6375ZM22.6375 24.7388C21.4825 24.7388 20.5375 23.795 20.5375 22.6388C20.5375 21.4825 21.4825 20.5375 22.6375 20.5375H27.9C29.055 20.5375 30 21.4825 30 22.6375C30 23.795 29.055 24.7388 27.9 24.7388H22.6375Z" fill="#793030"/>
</svg>
