<svg width="40" height="40" viewBox="0 0 40 40" fill="none" xmlns="http://www.w3.org/2000/svg">
<rect width="40" height="40" rx="6" fill="#FFEAD7"/>
<path d="M16.992 14C13.5213 14 10 17.4748 10 21.8972C10 24.9346 11.672 27 14.484 27C17.0427 27 18.74 25.3477 18.74 23.0393C18.74 20.8766 17.22 19.6131 15.016 19.4673C15.3707 18.4224 16.08 17.9364 17.4987 17.3776C18.5373 16.9645 19.0947 16.4785 19.0947 15.5794C19.0947 14.6561 18.4107 14 16.992 14ZM19.9053 21.8972C19.9053 24.9346 21.5773 27 24.3893 27C26.948 27 28.6453 25.3477 28.6453 23.0393C28.6453 20.8766 27.1253 19.6131 24.9213 19.4673C25.276 18.4224 25.9853 17.9364 27.404 17.3776C28.4427 16.9645 29 16.4785 29 15.5794C29 14.6561 28.316 14 26.8973 14C23.4267 14 19.9053 17.4748 19.9053 21.8972Z" fill="#793030"/>
</svg>
