<?xml version="1.0" encoding="utf-8"?>
<!-- Generator: Adobe Illustrator 19.1.0, SVG Export Plug-In . SVG Version: 6.00 Build 0)  -->
<svg version="1.1" id="Layer_1" xmlns="http://www.w3.org/2000/svg" xmlns:xlink="http://www.w3.org/1999/xlink" x="0px" y="0px"
	 viewBox="-15.9 -13.8 569.8 622.1" style="enable-background:new -15.9 -13.8 569.8 622.1;" xml:space="preserve">
<style type="text/css">
	.st0{fill:#6349FF;}
	.st1{fill:#FFC398;}
	.st2{fill:#444444;}
	.st3{fill:#DDEFF1;}
	.st4{fill:#FFEAD7;}
	.st5{fill:#FFFFFF;}
</style>
<g>
	<path class="st0" d="M71,324.3c-1.1,0-2-0.9-2-2s0.9-2,2-2s2,0.8,2,2v0.1C73,323.4,72.1,324.3,71,324.3z M71,314.2
		c-1.1,0-2-0.9-2-2v-0.1c0-1.1,0.9-2,2-2s2,0.9,2,2v0.1C73,313.3,72.1,314.2,71,314.2z M71,304.1c-1.1,0-2-0.9-2-2c0-1.1,0.9-2,2-2
		s2,0.8,2,2v0.1C73,303.2,72.1,304.1,71,304.1z M71,294c-1.1,0-2-0.9-2-2v-0.1c0-1.1,0.9-2,2-2s2,0.9,2,2v0.1
		C73,293.1,72.1,294,71,294z M71,283.9c-1.1,0-2-0.9-2-2v-0.1c0-1.1,0.9-2,2-2s2,0.9,2,2v0.1C73,283,72.1,283.9,71,283.9z M71,273.8
		c-1.1,0-2-0.9-2-2v-0.1c0-1.1,0.9-2,2-2s2,0.9,2,2v0.1C73,272.9,72.1,273.8,71,273.8z M71,263.7c-1.1,0-2-0.9-2-2v-0.1
		c0-1.1,0.9-2,2-2s2,0.9,2,2v0.1C73,262.8,72.1,263.7,71,263.7z M71,253.6c-1.1,0-2-0.9-2-2c0-1.1,0.9-2,2-2s2,0.8,2,2v0.1
		C73,252.7,72.1,253.6,71,253.6z M71,243.5c-1.1,0-2-0.9-2-2v-0.1c0-1.1,0.9-2,2-2s2,0.9,2,2v0.1C73,242.6,72.1,243.5,71,243.5z
		 M71,233.4c-1.1,0-2-0.9-2-2v-0.1c0-1.1,0.9-2,2-2s2,0.9,2,2v0.1C73,232.5,72.1,233.4,71,233.4z M71,223.3c-1.1,0-2-0.9-2-2v-0.1
		c0-1.1,0.9-2,2-2s2,0.9,2,2v0.1C73,222.4,72.1,223.3,71,223.3z M71,213.2c-1.1,0-2-0.9-2-2v-0.1c0-1.1,0.9-2,2-2s2,0.9,2,2v0.1
		C73,212.3,72.1,213.2,71,213.2z M71,203.1c-1.1,0-2-0.9-2-2c0-1.1,0.9-2,2-2s2,0.8,2,2v0.1C73,202.2,72.1,203.1,71,203.1z M71,193
		c-1.1,0-2-0.9-2-2v-0.1c0-1.1,0.9-2,2-2s2,0.9,2,2v0.1C73,192.1,72.1,193,71,193z M71,182.9c-1.1,0-2-0.9-2-2v-0.1c0-1.1,0.9-2,2-2
		s2,0.9,2,2v0.1C73,182,72.1,182.9,71,182.9z M71,172.8c-1.1,0-2-0.9-2-2v-0.1c0-1.1,0.9-2,2-2s2,0.9,2,2v0.1
		C73,171.9,72.1,172.8,71,172.8z M71,162.7c-1.1,0-2-0.9-2-2v-0.1c0-1.1,0.9-2,2-2s2,0.9,2,2v0.1C73,161.8,72.1,162.7,71,162.7z
		 M71,152.6c-1.1,0-2-0.9-2-2c0-1.1,0.9-2,2-2s2,0.8,2,2v0.1C73,151.7,72.1,152.6,71,152.6z M71,142.5c-1.1,0-2-0.9-2-2v-0.1
		c0-1.1,0.9-2,2-2s2,0.9,2,2v0.1C73,141.6,72.1,142.5,71,142.5z M71,132.4c-1.1,0-2-0.9-2-2v-0.1c0-1.1,0.9-2,2-2s2,0.9,2,2v0.1
		C73,131.5,72.1,132.4,71,132.4z"/>
</g>
<g>
	<path class="st0" d="M271,324.3c-1.1,0-2-0.9-2-2s0.9-2,2-2s2,0.8,2,2v0.1C273,323.4,272.1,324.3,271,324.3z M271,314.2
		c-1.1,0-2-0.9-2-2v-0.1c0-1.1,0.9-2,2-2s2,0.9,2,2v0.1C273,313.3,272.1,314.2,271,314.2z M271,304.1c-1.1,0-2-0.9-2-2
		c0-1.1,0.9-2,2-2s2,0.8,2,2v0.1C273,303.2,272.1,304.1,271,304.1z M271,294c-1.1,0-2-0.9-2-2v-0.1c0-1.1,0.9-2,2-2s2,0.9,2,2v0.1
		C273,293.1,272.1,294,271,294z M271,283.9c-1.1,0-2-0.9-2-2v-0.1c0-1.1,0.9-2,2-2s2,0.9,2,2v0.1C273,283,272.1,283.9,271,283.9z
		 M271,273.8c-1.1,0-2-0.9-2-2v-0.1c0-1.1,0.9-2,2-2s2,0.9,2,2v0.1C273,272.9,272.1,273.8,271,273.8z M271,263.7c-1.1,0-2-0.9-2-2
		v-0.1c0-1.1,0.9-2,2-2s2,0.9,2,2v0.1C273,262.8,272.1,263.7,271,263.7z M271,253.6c-1.1,0-2-0.9-2-2c0-1.1,0.9-2,2-2s2,0.8,2,2v0.1
		C273,252.7,272.1,253.6,271,253.6z M271,243.5c-1.1,0-2-0.9-2-2v-0.1c0-1.1,0.9-2,2-2s2,0.9,2,2v0.1
		C273,242.6,272.1,243.5,271,243.5z M271,233.4c-1.1,0-2-0.9-2-2v-0.1c0-1.1,0.9-2,2-2s2,0.9,2,2v0.1
		C273,232.5,272.1,233.4,271,233.4z M271,223.3c-1.1,0-2-0.9-2-2v-0.1c0-1.1,0.9-2,2-2s2,0.9,2,2v0.1
		C273,222.4,272.1,223.3,271,223.3z M271,213.2c-1.1,0-2-0.9-2-2v-0.1c0-1.1,0.9-2,2-2s2,0.9,2,2v0.1
		C273,212.3,272.1,213.2,271,213.2z M271,203.1c-1.1,0-2-0.9-2-2c0-1.1,0.9-2,2-2s2,0.8,2,2v0.1C273,202.2,272.1,203.1,271,203.1z
		 M271,193c-1.1,0-2-0.9-2-2v-0.1c0-1.1,0.9-2,2-2s2,0.9,2,2v0.1C273,192.1,272.1,193,271,193z M271,182.9c-1.1,0-2-0.9-2-2v-0.1
		c0-1.1,0.9-2,2-2s2,0.9,2,2v0.1C273,182,272.1,182.9,271,182.9z M271,172.8c-1.1,0-2-0.9-2-2v-0.1c0-1.1,0.9-2,2-2s2,0.9,2,2v0.1
		C273,171.9,272.1,172.8,271,172.8z M271,162.7c-1.1,0-2-0.9-2-2v-0.1c0-1.1,0.9-2,2-2s2,0.9,2,2v0.1
		C273,161.8,272.1,162.7,271,162.7z M271,152.6c-1.1,0-2-0.9-2-2c0-1.1,0.9-2,2-2s2,0.8,2,2v0.1C273,151.7,272.1,152.6,271,152.6z
		 M271,142.5c-1.1,0-2-0.9-2-2v-0.1c0-1.1,0.9-2,2-2s2,0.9,2,2v0.1C273,141.6,272.1,142.5,271,142.5z M271,132.4c-1.1,0-2-0.9-2-2
		v-0.1c0-1.1,0.9-2,2-2s2,0.9,2,2v0.1C273,131.5,272.1,132.4,271,132.4z"/>
</g>
<g>
	<path class="st0" d="M471,324.3c-1.1,0-2-0.9-2-2s0.9-2,2-2s2,0.8,2,2v0.1C473,323.4,472.1,324.3,471,324.3z M471,314.2
		c-1.1,0-2-0.9-2-2v-0.1c0-1.1,0.9-2,2-2s2,0.9,2,2v0.1C473,313.3,472.1,314.2,471,314.2z M471,304.1c-1.1,0-2-0.9-2-2
		c0-1.1,0.9-2,2-2s2,0.8,2,2v0.1C473,303.2,472.1,304.1,471,304.1z M471,294c-1.1,0-2-0.9-2-2v-0.1c0-1.1,0.9-2,2-2s2,0.9,2,2v0.1
		C473,293.1,472.1,294,471,294z M471,283.9c-1.1,0-2-0.9-2-2v-0.1c0-1.1,0.9-2,2-2s2,0.9,2,2v0.1C473,283,472.1,283.9,471,283.9z
		 M471,273.8c-1.1,0-2-0.9-2-2v-0.1c0-1.1,0.9-2,2-2s2,0.9,2,2v0.1C473,272.9,472.1,273.8,471,273.8z M471,263.7c-1.1,0-2-0.9-2-2
		v-0.1c0-1.1,0.9-2,2-2s2,0.9,2,2v0.1C473,262.8,472.1,263.7,471,263.7z M471,253.6c-1.1,0-2-0.9-2-2c0-1.1,0.9-2,2-2s2,0.8,2,2v0.1
		C473,252.7,472.1,253.6,471,253.6z M471,243.5c-1.1,0-2-0.9-2-2v-0.1c0-1.1,0.9-2,2-2s2,0.9,2,2v0.1
		C473,242.6,472.1,243.5,471,243.5z M471,233.4c-1.1,0-2-0.9-2-2v-0.1c0-1.1,0.9-2,2-2s2,0.9,2,2v0.1
		C473,232.5,472.1,233.4,471,233.4z M471,223.3c-1.1,0-2-0.9-2-2v-0.1c0-1.1,0.9-2,2-2s2,0.9,2,2v0.1
		C473,222.4,472.1,223.3,471,223.3z M471,213.2c-1.1,0-2-0.9-2-2v-0.1c0-1.1,0.9-2,2-2s2,0.9,2,2v0.1
		C473,212.3,472.1,213.2,471,213.2z M471,203.1c-1.1,0-2-0.9-2-2c0-1.1,0.9-2,2-2s2,0.8,2,2v0.1C473,202.2,472.1,203.1,471,203.1z
		 M471,193c-1.1,0-2-0.9-2-2v-0.1c0-1.1,0.9-2,2-2s2,0.9,2,2v0.1C473,192.1,472.1,193,471,193z M471,182.9c-1.1,0-2-0.9-2-2v-0.1
		c0-1.1,0.9-2,2-2s2,0.9,2,2v0.1C473,182,472.1,182.9,471,182.9z M471,172.8c-1.1,0-2-0.9-2-2v-0.1c0-1.1,0.9-2,2-2s2,0.9,2,2v0.1
		C473,171.9,472.1,172.8,471,172.8z M471,162.7c-1.1,0-2-0.9-2-2v-0.1c0-1.1,0.9-2,2-2s2,0.9,2,2v0.1
		C473,161.8,472.1,162.7,471,162.7z M471,152.6c-1.1,0-2-0.9-2-2c0-1.1,0.9-2,2-2s2,0.8,2,2v0.1C473,151.7,472.1,152.6,471,152.6z
		 M471,142.5c-1.1,0-2-0.9-2-2v-0.1c0-1.1,0.9-2,2-2s2,0.9,2,2v0.1C473,141.6,472.1,142.5,471,142.5z M471,132.4c-1.1,0-2-0.9-2-2
		v-0.1c0-1.1,0.9-2,2-2s2,0.9,2,2v0.1C473,131.5,472.1,132.4,471,132.4z"/>
</g>
<g>
	<path class="st0" d="M351.8,331.3c-0.5,0-1-0.2-1.4-0.6c-0.8-0.8-0.8-2,0-2.8c0.8-0.8,2.1-0.8,2.8,0c0.8,0.8,0.8,2,0,2.8l0,0
		C352.9,331.1,352.3,331.3,351.8,331.3z M358.9,324.2c-0.5,0-1-0.2-1.4-0.6c-0.8-0.8-0.8-2,0-2.8l0.1-0.1c0.8-0.8,2-0.8,2.8,0
		c0.8,0.8,0.8,2,0,2.8l-0.1,0.1C360,324,359.4,324.2,358.9,324.2z M366.1,317c-0.5,0-1-0.2-1.4-0.6c-0.8-0.8-0.8-2,0-2.8
		c0.8-0.8,2.1-0.8,2.9,0c0.8,0.8,0.8,2,0,2.8l-0.1,0.1C367.1,316.9,366.6,317,366.1,317z M373.2,309.9c-0.5,0-1-0.2-1.4-0.6
		c-0.8-0.8-0.8-2,0-2.8c0.8-0.8,2.1-0.8,2.9,0c0.8,0.8,0.8,2,0,2.8l-0.1,0.1C374.2,309.7,373.7,309.9,373.2,309.9z M380.4,302.8
		c-0.5,0-1-0.2-1.4-0.6c-0.8-0.8-0.8-2,0-2.8c0.8-0.8,2.1-0.8,2.9,0c0.8,0.8,0.8,2,0,2.8l-0.1,0.1
		C381.4,302.6,380.9,302.8,380.4,302.8z M387.5,295.6c-0.5,0-1-0.2-1.4-0.6c-0.8-0.8-0.8-2,0-2.8c0.8-0.8,2.1-0.8,2.9,0
		c0.8,0.8,0.8,2,0,2.8l-0.1,0.1C388.5,295.4,388,295.6,387.5,295.6z M394.6,288.5c-0.5,0-1-0.2-1.4-0.6c-0.8-0.8-0.8-2,0-2.8
		l0.1-0.1c0.8-0.8,2-0.8,2.8,0c0.8,0.8,0.8,2,0,2.8l-0.1,0.1C395.7,288.3,395.2,288.5,394.6,288.5z M401.8,281.3
		c-0.5,0-1-0.2-1.4-0.6c-0.8-0.8-0.8-2,0-2.8l0.1-0.1c0.8-0.8,2-0.8,2.8,0c0.8,0.8,0.8,2,0,2.8l-0.1,0.1
		C402.8,281.1,402.3,281.3,401.8,281.3z M408.9,274.2c-0.5,0-1-0.2-1.4-0.6c-0.8-0.8-0.8-2,0-2.8c0.8-0.8,2.1-0.8,2.9,0
		c0.8,0.8,0.8,2,0,2.8l-0.1,0.1C410,274,409.4,274.2,408.9,274.2z"/>
</g>
<g>
	<path class="st0" d="M156.1,327c-0.5,0-1-0.2-1.4-0.6c-0.8-0.8-0.8-2,0-2.8c0.8-0.8,2.1-0.8,2.9,0c0.8,0.8,0.8,2,0,2.8l-0.1,0.1
		C157.1,326.9,156.6,327,156.1,327z M163.2,319.9c-0.5,0-1-0.2-1.4-0.6c-0.8-0.8-0.8-2,0-2.8c0.8-0.8,2.1-0.8,2.9,0
		c0.8,0.8,0.8,2,0,2.8l-0.1,0.1C164.2,319.7,163.7,319.9,163.2,319.9z M170.4,312.8c-0.5,0-1-0.2-1.4-0.6c-0.8-0.8-0.8-2,0-2.8
		c0.8-0.8,2.1-0.8,2.9,0c0.8,0.8,0.8,2,0,2.8l-0.1,0.1C171.4,312.6,170.9,312.8,170.4,312.8z M177.5,305.6c-0.5,0-1-0.2-1.4-0.6
		c-0.8-0.8-0.8-2,0-2.8c0.8-0.8,2.1-0.8,2.9,0c0.8,0.8,0.8,2,0,2.8l-0.1,0.1C178.5,305.4,178,305.6,177.5,305.6z M184.6,298.5
		c-0.5,0-1-0.2-1.4-0.6c-0.8-0.8-0.8-2,0-2.8l0.1-0.1c0.8-0.8,2-0.8,2.8,0c0.8,0.8,0.8,2,0,2.8l-0.1,0.1
		C185.7,298.3,185.2,298.5,184.6,298.5z M191.8,291.3c-0.5,0-1-0.2-1.4-0.6c-0.8-0.8-0.8-2,0-2.8l0.1-0.1c0.8-0.8,2-0.8,2.8,0
		c0.8,0.8,0.8,2,0,2.8l-0.1,0.1C192.8,291.1,192.3,291.3,191.8,291.3z M198.9,284.2c-0.5,0-1-0.2-1.4-0.6c-0.8-0.8-0.8-2,0-2.8
		l0.1-0.1c0.8-0.8,2-0.8,2.8,0c0.8,0.8,0.8,2,0,2.8l-0.1,0.1C200,284,199.4,284.2,198.9,284.2z"/>
</g>
<g>
	<path class="st1" d="M5,16.8h528c9.7,0,17.5,7.8,17.5,17.5v82c0,9.7-7.8,17.5-17.5,17.5H5c-9.7,0-17.5-7.8-17.5-17.5v-82
		C-12.5,24.6-4.7,16.8,5,16.8z"/>
	<path class="st2" d="M533,135.3H5c-10.5,0-19-8.5-19-19v-82c0-10.5,8.5-19,19-19h528c10.5,0,19,8.5,19,19v82
		C552,126.8,543.5,135.3,533,135.3z M5,18.3c-8.8,0-16,7.2-16,16v82c0,8.8,7.2,16,16,16h528c8.8,0,16-7.2,16-16v-82
		c0-8.8-7.2-16-16-16H5z"/>
</g>
<g>
	<path class="st2" d="M97.2,81.3h3.6c3.3,0,5.5-2.3,5.5-5.6c0-3.3-2.2-5.6-5.5-5.6h-3.6c-0.6,0-1,0.4-1,1v9.2
		C96.2,80.9,96.6,81.3,97.2,81.3z M98.2,79.3V72h2.6c2,0,3.3,1.5,3.3,3.7c0,2.1-1.3,3.6-3.3,3.6C100.8,79.3,98.2,79.3,98.2,79.3z
		 M110.1,81.3h6.1c0.6,0,1-0.4,1-1s-0.4-1-1-1h-5.1v-2.8h4.5c0.5,0,1-0.4,1-0.9s-0.4-0.9-1-0.9h-4.5v-2.6h5.1c0.6,0,1-0.4,1-1
		s-0.4-1-1-1h-6.1c-0.6,0-1,0.4-1,1v9.2C109.1,80.9,109.5,81.3,110.1,81.3z M124.5,81.5c0.9,0,1.6-0.5,2-1.7l3.1-8.6
		c0-0.1,0.1-0.3,0.1-0.4c0-0.5-0.4-0.9-1-0.9c-0.5,0-0.8,0.3-1,0.7l-3.2,8.8l-3.2-8.8c-0.2-0.5-0.5-0.7-1-0.7c-0.6,0-1,0.4-1,0.9
		c0,0.1,0,0.3,0.1,0.4l3.1,8.6C122.9,81,123.6,81.5,124.5,81.5z M133.1,81.3h6.1c0.6,0,1-0.4,1-1s-0.4-1-1-1h-5.1v-2.8h4.5
		c0.5,0,1-0.4,1-0.9s-0.4-0.9-1-0.9h-4.5v-2.6h5.1c0.6,0,1-0.4,1-1s-0.4-1-1-1h-6.1c-0.6,0-1,0.4-1,1v9.2
		C132.1,80.9,132.5,81.3,133.1,81.3z M144.2,81.3h5.7c0.6,0,1-0.4,1-1s-0.4-1-1-1h-4.7v-8.4c0-0.6-0.4-1-1-1s-1,0.4-1,1v9.4
		C143.2,80.9,143.6,81.3,144.2,81.3z M158,81.5c3.4,0,5.8-2.4,5.8-5.9c0-3.4-2.4-5.9-5.8-5.9s-5.8,2.4-5.8,5.9
		C152.2,79.1,154.6,81.5,158,81.5z M154.3,75.7c0-2.3,1.6-3.8,3.7-3.8c2.2,0,3.7,1.6,3.7,3.8c0,2.3-1.5,3.8-3.7,3.8
		C155.9,79.5,154.3,77.9,154.3,75.7z M167.6,81.5c0.6,0,1-0.4,1-1v-3.1h2.7c2.3,0,4.1-1.4,4.1-3.6s-1.8-3.6-4.1-3.6h-3.7
		c-0.6,0-1,0.4-1,1v9.4C166.6,81.1,167,81.5,167.6,81.5z M168.6,75.4v-3.5h2.8c1.1,0,1.9,0.7,1.9,1.7s-0.8,1.7-1.9,1.7h-2.8V75.4z
		 M178.8,81.3h6.1c0.6,0,1-0.4,1-1s-0.4-1-1-1h-5.1v-2.8h4.5c0.5,0,1-0.4,1-0.9s-0.4-0.9-1-0.9h-4.5v-2.6h5.1c0.6,0,1-0.4,1-1
		s-0.4-1-1-1h-6.1c-0.6,0-1,0.4-1,1v9.2C177.8,80.9,178.2,81.3,178.8,81.3z M190,81.5c0.6,0,1-0.4,1-1v-3.2h2.4l2.6,3.8
		c0.2,0.3,0.5,0.5,0.9,0.5c0.5,0,1-0.4,1-0.9c0-0.2-0.1-0.5-0.3-0.8l-2-2.9c1.3-0.5,2.2-1.7,2.2-3.3c0-2.1-1.7-3.6-3.9-3.6H190
		c-0.6,0-1,0.4-1,1v9.4C189,81.1,189.4,81.5,190,81.5z M191,75.3V72h2.9c1.1,0,1.8,0.7,1.8,1.7s-0.7,1.7-1.8,1.7L191,75.3L191,75.3z
		 M204.9,81.5c2.6,0,4.3-1.3,4.3-3.5c0-2.1-1.4-2.8-3-3.2l-2-0.4c-1-0.2-1.6-0.5-1.6-1.4s0.8-1.3,2-1.3c1.4,0,2.2,0.6,2.8,1.4
		c0.3,0.3,0.6,0.5,1,0.5c0.6,0,0.9-0.4,0.9-1s-0.4-1.4-1.1-1.8c-0.8-0.5-1.9-1-3.3-1c-2.6,0-4.2,1.3-4.2,3.4c0,1.9,1.2,2.8,3.1,3.2
		l2.1,0.4c0.9,0.2,1.5,0.5,1.5,1.4s-0.8,1.4-2,1.4c-1.6,0-2.5-0.6-3.2-1.6c-0.2-0.2-0.5-0.4-0.7-0.4c-0.5,0-1,0.4-1,1
		c0,0.7,0.5,1.4,1.1,1.9C202.2,81.1,203.3,81.5,204.9,81.5z M211.6,83.3c1.1,0,2.2-1.2,2.2-2.7c0-1-0.5-1.7-1.4-1.7
		c-0.8,0-1.4,0.5-1.4,1.3c0,0.7,0.5,1.2,1.2,1.2c-0.1,0.4-0.3,0.6-0.8,0.8c-0.3,0.1-0.5,0.3-0.5,0.6C211,83.1,211.2,83.3,211.6,83.3
		z M222.3,81.5c0.6,0,1-0.5,1-1.1v-6.9l2.7,5.1c0.4,0.8,0.7,1.1,1.3,1.1c0.6,0,0.9-0.3,1.3-1.1l2.7-5.1v6.9c0,0.6,0.4,1.1,1,1.1
		s1-0.4,1-1.1v-9.2c0-0.9-0.5-1.4-1.3-1.4c-0.7,0-1,0.3-1.4,1l-3.3,6.3l-3.3-6.3c-0.4-0.7-0.7-1-1.4-1c-0.7,0-1.3,0.5-1.3,1.4v9.2
		C221.3,81,221.7,81.5,222.3,81.5z M236.3,81.5c0.5,0,0.8-0.2,1-0.6l0.9-2.2h5.5l0.9,2.2c0.2,0.4,0.5,0.6,1,0.6s1-0.4,1-1
		c0-0.2,0-0.4-0.1-0.7l-3.5-8.5c-0.4-1.1-1-1.6-1.9-1.6c-1,0-1.5,0.5-1.9,1.6l-3.5,8.5c-0.1,0.3-0.1,0.5-0.1,0.7
		C235.3,81.1,235.7,81.5,236.3,81.5z M238.9,76.8l2-5l2,5H238.9z M249.5,81.5c0.6,0,1-0.4,1-1V71c0-0.6-0.4-1-1-1s-1,0.4-1,1v9.5
		C248.5,81.1,248.9,81.5,249.5,81.5z M254.9,81.5c0.6,0,1-0.4,1-1v-7l5,7.2c0.5,0.7,0.9,0.9,1.4,0.9c0.7,0,1.2-0.5,1.2-1.3V71
		c0-0.6-0.4-1-1-1s-1,0.4-1,1v7.2l-4.9-7.2c-0.5-0.8-0.9-1-1.4-1c-0.7,0-1.2,0.5-1.2,1.3v9.3C253.9,81.1,254.2,81.5,254.9,81.5z
		 M270.5,81.5c0.6,0,1-0.4,1-1v-8.4h2.8c0.6,0,1-0.4,1-1s-0.4-1-1-1h-7.6c-0.6,0-1,0.4-1,1s0.4,1,1,1h2.8v8.4
		C269.5,81.1,270,81.5,270.5,81.5z M276.3,81.5c0.5,0,0.8-0.2,1-0.6l0.9-2.2h5.5l0.9,2.2c0.2,0.4,0.5,0.6,1,0.6s1-0.4,1-1
		c0-0.2,0-0.4-0.1-0.7l-3.5-8.5c-0.4-1.1-1-1.6-1.9-1.6c-1,0-1.5,0.5-1.9,1.6l-3.5,8.5c-0.1,0.3-0.1,0.5-0.1,0.7
		C275.3,81.1,275.7,81.5,276.3,81.5z M278.9,76.8l2-5l2,5H278.9z M289.5,81.5c0.6,0,1-0.4,1-1V71c0-0.6-0.4-1-1-1s-1,0.4-1,1v9.5
		C288.5,81.1,288.9,81.5,289.5,81.5z M294.9,81.5c0.6,0,1-0.4,1-1v-7l5,7.2c0.5,0.7,0.9,0.9,1.4,0.9c0.7,0,1.2-0.5,1.2-1.3V71
		c0-0.6-0.4-1-1-1s-1,0.4-1,1v7.2l-4.9-7.2c-0.5-0.8-0.9-1-1.4-1c-0.7,0-1.2,0.5-1.2,1.3v9.3C293.9,81.1,294.2,81.5,294.9,81.5z
		 M307.8,81.3h6.1c0.6,0,1-0.4,1-1s-0.4-1-1-1h-5.1v-2.8h4.5c0.5,0,1-0.4,1-0.9s-0.4-0.9-1-0.9h-4.5v-2.6h5.1c0.6,0,1-0.4,1-1
		s-0.4-1-1-1h-6.1c-0.6,0-1,0.4-1,1v9.2C306.8,80.9,307.2,81.3,307.8,81.3z M318.9,81.5c0.6,0,1-0.4,1-1v-3.2h2.4l2.6,3.8
		c0.2,0.3,0.5,0.5,0.9,0.5c0.5,0,1-0.4,1-0.9c0-0.2-0.1-0.5-0.3-0.8l-2-2.9c1.3-0.5,2.2-1.7,2.2-3.3c0-2.1-1.7-3.6-3.9-3.6h-3.9
		c-0.6,0-1,0.4-1,1v9.4C317.9,81.1,318.3,81.5,318.9,81.5z M320,75.3V72h2.9c1.1,0,1.8,0.7,1.8,1.7s-0.7,1.7-1.8,1.7L320,75.3
		L320,75.3z M333.9,81.5c2.6,0,4.3-1.3,4.3-3.5c0-2.1-1.4-2.8-3-3.2l-2-0.4c-1-0.2-1.6-0.5-1.6-1.4s0.8-1.3,2-1.3
		c1.4,0,2.2,0.6,2.8,1.4c0.3,0.3,0.6,0.5,1,0.5c0.6,0,0.9-0.4,0.9-1s-0.4-1.4-1.1-1.8c-0.8-0.5-1.9-1-3.3-1c-2.6,0-4.2,1.3-4.2,3.4
		c0,1.9,1.2,2.8,3.1,3.2l2.1,0.4c0.9,0.2,1.5,0.5,1.5,1.4s-0.8,1.4-2,1.4c-1.6,0-2.5-0.6-3.2-1.6c-0.2-0.2-0.5-0.4-0.7-0.4
		c-0.5,0-1,0.4-1,1c0,0.7,0.5,1.4,1.1,1.9C331.1,81.1,332.2,81.5,333.9,81.5z M340.6,83.3c1.1,0,2.2-1.2,2.2-2.7
		c0-1-0.5-1.7-1.4-1.7c-0.8,0-1.4,0.5-1.4,1.3c0,0.7,0.5,1.2,1.2,1.2c-0.1,0.4-0.3,0.6-0.8,0.8c-0.3,0.1-0.5,0.3-0.5,0.6
		C340,83.1,340.2,83.3,340.6,83.3z M351.2,81.5c0.6,0,1-0.5,1-1.1v-6.9l2.7,5.1c0.4,0.8,0.7,1.1,1.3,1.1s0.9-0.3,1.3-1.1l2.7-5.1
		v6.9c0,0.6,0.4,1.1,1,1.1s1-0.4,1-1.1v-9.2c0-0.9-0.5-1.4-1.3-1.4c-0.7,0-1,0.3-1.4,1l-3.3,6.3l-3.3-6.3c-0.4-0.7-0.7-1-1.4-1
		s-1.3,0.5-1.3,1.4v9.2C350.2,81,350.7,81.5,351.2,81.5z M370.8,81.5c3.4,0,5.8-2.4,5.8-5.9c0-3.4-2.4-5.9-5.8-5.9
		c-3.4,0-5.8,2.4-5.8,5.9C365,79.1,367.4,81.5,370.8,81.5z M367.1,75.7c0-2.3,1.6-3.8,3.7-3.8c2.2,0,3.7,1.6,3.7,3.8
		c0,2.3-1.5,3.8-3.7,3.8C368.7,79.5,367.1,77.9,367.1,75.7z M380.4,81.5c0.6,0,1-0.4,1-1v-7l5,7.2c0.5,0.7,0.9,0.9,1.4,0.9
		c0.7,0,1.2-0.5,1.2-1.3V71c0-0.6-0.4-1-1-1s-1,0.4-1,1v7.2l-4.9-7.2c-0.5-0.8-0.9-1-1.4-1c-0.7,0-1.2,0.5-1.2,1.3v9.3
		C379.4,81.1,379.8,81.5,380.4,81.5z M393.4,81.5c0.6,0,1-0.4,1-1V71c0-0.6-0.4-1-1-1s-1,0.4-1,1v9.5
		C392.4,81.1,392.8,81.5,393.4,81.5z M401.5,81.5c0.6,0,1-0.4,1-1v-8.4h2.8c0.6,0,1-0.4,1-1s-0.4-1-1-1h-7.6c-0.6,0-1,0.4-1,1
		s0.4,1,1,1h2.8v8.4C400.5,81.1,400.9,81.5,401.5,81.5z M413.4,81.5c3.4,0,5.8-2.4,5.8-5.9c0-3.4-2.4-5.9-5.8-5.9
		c-3.4,0-5.8,2.4-5.8,5.9C407.6,79.1,410,81.5,413.4,81.5z M409.7,75.7c0-2.3,1.6-3.8,3.7-3.8c2.2,0,3.7,1.6,3.7,3.8
		c0,2.3-1.5,3.8-3.7,3.8C411.2,79.5,409.7,77.9,409.7,75.7z M423,81.5c0.6,0,1-0.4,1-1v-3.2h2.4l2.6,3.8c0.2,0.3,0.5,0.5,0.9,0.5
		c0.5,0,1-0.4,1-0.9c0-0.2-0.1-0.5-0.3-0.8l-2-2.9c1.3-0.5,2.2-1.7,2.2-3.3c0-2.1-1.7-3.6-3.9-3.6H423c-0.6,0-1,0.4-1,1v9.4
		C422,81.1,422.4,81.5,423,81.5z M424,75.3V72h2.9c1.1,0,1.8,0.7,1.8,1.7s-0.7,1.7-1.8,1.7L424,75.3L424,75.3z M438,81.5
		c2.6,0,4.3-1.3,4.3-3.5c0-2.1-1.4-2.8-3-3.2l-2-0.4c-1-0.2-1.6-0.5-1.6-1.4s0.8-1.3,2-1.3c1.4,0,2.2,0.6,2.8,1.4
		c0.3,0.3,0.6,0.5,1,0.5c0.6,0,0.9-0.4,0.9-1s-0.4-1.4-1.1-1.8c-0.8-0.5-1.9-1-3.3-1c-2.6,0-4.2,1.3-4.2,3.4c0,1.9,1.2,2.8,3.1,3.2
		l2.1,0.4c0.9,0.2,1.5,0.5,1.5,1.4s-0.8,1.4-2,1.4c-1.6,0-2.5-0.6-3.2-1.6c-0.2-0.2-0.5-0.4-0.7-0.4c-0.5,0-1,0.4-1,1
		c0,0.7,0.5,1.4,1.1,1.9C435.2,81.1,436.3,81.5,438,81.5z"/>
</g>
<g>
	<path class="st3" d="M204,330.8h128c9.7,0,17.5,7.8,17.5,17.5v82c0,9.7-7.8,17.5-17.5,17.5H204c-9.7,0-17.5-7.8-17.5-17.5v-82
		C186.5,338.6,194.3,330.8,204,330.8z"/>
	<path class="st2" d="M332,449.3H204c-10.5,0-19-8.5-19-19v-82c0-10.5,8.5-19,19-19h128c10.5,0,19,8.5,19,19v82
		C351,440.8,342.5,449.3,332,449.3z M204,332.3c-8.8,0-16,7.2-16,16v82c0,8.8,7.2,16,16,16h128c8.8,0,16-7.2,16-16v-82
		c0-8.8-7.2-16-16-16H204z"/>
</g>
<g>
	<path class="st2" d="M223.8,371.5c2.6,0,4.3-1.3,4.3-3.5c0-2.1-1.4-2.8-3-3.2l-2-0.4c-1-0.2-1.6-0.5-1.6-1.4s0.8-1.3,2-1.3
		c1.4,0,2.2,0.6,2.8,1.4c0.3,0.3,0.6,0.5,1,0.5c0.6,0,0.9-0.4,0.9-1s-0.4-1.4-1.1-1.8c-0.8-0.5-1.9-1-3.3-1c-2.6,0-4.2,1.3-4.2,3.4
		c0,1.9,1.2,2.8,3.1,3.2l2.1,0.4c0.9,0.2,1.5,0.5,1.5,1.4s-0.8,1.4-2,1.4c-1.6,0-2.5-0.6-3.2-1.6c-0.2-0.2-0.5-0.4-0.7-0.4
		c-0.5,0-1,0.4-1,1c0,0.7,0.5,1.4,1.1,1.9C221,371.1,222.1,371.5,223.8,371.5z M232,371.5c0.6,0,1-0.4,1-1V361c0-0.6-0.4-1-1-1
		s-1,0.4-1,1v9.5C231,371.1,231.4,371.5,232,371.5z M241.7,371.5c3.1,0,5.3-1.9,5.3-5.4c0-0.8-0.5-1.1-1.1-1.1h-4.3
		c-0.5,0-1,0.3-1,1c0,0.5,0.4,0.9,1,0.9h3.3c-0.1,1.7-1.3,2.6-3.2,2.6c-2.3,0-3.8-1.6-3.8-3.9s1.5-3.9,3.7-3.9
		c1.5,0,2.4,0.6,3.1,1.4c0.3,0.3,0.6,0.4,1,0.4c0.5,0,0.9-0.3,0.9-0.9s-0.5-1.4-1.2-1.9c-0.9-0.6-2.1-1.1-3.7-1.1
		c-3.4,0-5.9,2.4-5.9,5.9C235.9,369.1,238.2,371.5,241.7,371.5z M250.8,371.5c0.6,0,1-0.4,1-1v-7l5,7.2c0.5,0.7,0.9,0.9,1.4,0.9
		c0.7,0,1.2-0.5,1.2-1.3V361c0-0.6-0.4-1-1-1s-1,0.4-1,1v7.2l-4.9-7.2c-0.5-0.8-0.9-1-1.4-1c-0.7,0-1.2,0.5-1.2,1.3v9.3
		C249.8,371.1,250.2,371.5,250.8,371.5z M262.4,371.5c0.5,0,0.8-0.2,1-0.6l0.9-2.2h5.5l0.9,2.2c0.2,0.4,0.5,0.6,1,0.6s1-0.4,1-1
		c0-0.2,0-0.4-0.1-0.7l-3.5-8.5c-0.4-1.1-1-1.6-1.9-1.6c-1,0-1.5,0.5-1.9,1.6l-3.5,8.5c-0.1,0.3-0.1,0.5-0.1,0.7
		C261.4,371.1,261.9,371.5,262.4,371.5z M265,366.8l2-5l2,5H265z M277.3,371.5c0.6,0,1-0.4,1-1v-8.4h2.8c0.6,0,1-0.4,1-1s-0.4-1-1-1
		h-7.6c-0.6,0-1,0.4-1,1s0.4,1,1,1h2.8v8.4C276.2,371.1,276.7,371.5,277.3,371.5z M288.9,371.5c2.9,0,4.7-1.9,4.7-4.6v-6
		c0-0.6-0.4-1-1-1s-1,0.4-1,1v5.8c0,1.7-1,2.8-2.7,2.8c-1.6,0-2.6-1.1-2.6-2.8v-5.8c0-0.6-0.4-1-1-1s-1,0.4-1,1v6
		C284.2,369.7,286,371.5,288.9,371.5z M297.7,371.5c0.6,0,1-0.4,1-1v-3.2h2.4l2.6,3.8c0.2,0.3,0.5,0.5,0.9,0.5c0.5,0,1-0.4,1-0.9
		c0-0.2-0.1-0.5-0.3-0.8l-2-2.9c1.3-0.5,2.2-1.7,2.2-3.3c0-2.1-1.7-3.6-3.9-3.6h-3.9c-0.6,0-1,0.4-1,1v9.4
		C296.7,371.1,297.1,371.5,297.7,371.5z M298.7,365.3V362h2.9c1.1,0,1.8,0.7,1.8,1.7s-0.7,1.7-1.8,1.7L298.7,365.3L298.7,365.3z
		 M309.6,371.3h6.1c0.6,0,1-0.4,1-1s-0.4-1-1-1h-5.1v-2.8h4.5c0.5,0,1-0.4,1-0.9s-0.4-0.9-1-0.9h-4.5v-2.6h5.1c0.6,0,1-0.4,1-1
		s-0.4-1-1-1h-6.1c-0.6,0-1,0.4-1,1v9.2C308.6,370.9,309,371.3,309.6,371.3z M203,395.5c0.6,0,1-0.4,1-1v-8.4h2.8c0.6,0,1-0.4,1-1
		s-0.4-1-1-1h-7.6c-0.6,0-1,0.4-1,1s0.4,1,1,1h2.8v8.4C202,395.1,202.4,395.5,203,395.5z M211.1,395.5c0.6,0,1-0.4,1-1v-3.2h2.4
		l2.6,3.8c0.2,0.3,0.5,0.5,0.9,0.5c0.5,0,1-0.4,1-0.9c0-0.2-0.1-0.5-0.3-0.8l-2-2.9c1.3-0.5,2.2-1.7,2.2-3.3c0-2.1-1.7-3.6-3.9-3.6
		h-3.9c-0.6,0-1,0.4-1,1v9.4C210.1,395.1,210.5,395.5,211.1,395.5z M212.1,389.3V386h2.9c1.1,0,1.8,0.7,1.8,1.7s-0.7,1.7-1.8,1.7
		L212.1,389.3L212.1,389.3z M221.6,395.5c0.5,0,0.8-0.2,1-0.6l0.9-2.2h5.5l0.9,2.2c0.2,0.4,0.5,0.6,1,0.6s1-0.4,1-1
		c0-0.2,0-0.4-0.1-0.7l-3.5-8.5c-0.4-1.1-1-1.6-1.9-1.6c-1,0-1.5,0.5-1.9,1.6l-3.5,8.5c-0.1,0.3-0.1,0.5-0.1,0.7
		C220.6,395.1,221.1,395.5,221.6,395.5z M224.2,390.8l2-5l2,5H224.2z M234.8,395.5c0.6,0,1-0.4,1-1v-7l5,7.2
		c0.5,0.7,0.9,0.9,1.4,0.9c0.7,0,1.2-0.5,1.2-1.3V385c0-0.6-0.4-1-1-1s-1,0.4-1,1v7.2l-4.9-7.2c-0.5-0.8-0.9-1-1.4-1
		c-0.7,0-1.2,0.5-1.2,1.3v9.3C233.8,395.1,234.2,395.5,234.8,395.5z M250.9,395.5c2.6,0,4.3-1.3,4.3-3.5c0-2.1-1.4-2.8-3-3.2l-2-0.4
		c-1-0.2-1.6-0.5-1.6-1.4s0.8-1.3,2-1.3c1.4,0,2.2,0.6,2.8,1.4c0.3,0.3,0.6,0.5,1,0.5c0.6,0,0.9-0.4,0.9-1s-0.4-1.4-1.1-1.8
		c-0.8-0.5-1.9-1-3.3-1c-2.6,0-4.2,1.3-4.2,3.4c0,1.9,1.2,2.8,3.1,3.2l2.1,0.4c0.9,0.2,1.5,0.5,1.5,1.4s-0.8,1.4-2,1.4
		c-1.6,0-2.5-0.6-3.2-1.6c-0.2-0.2-0.5-0.4-0.7-0.4c-0.5,0-1,0.4-1,1c0,0.7,0.5,1.4,1.1,1.9C248.2,395.1,249.3,395.5,250.9,395.5z
		 M259.1,395.5c0.6,0,1-0.4,1-1v-3.2h2.7c2.3,0,4.1-1.4,4.1-3.6s-1.8-3.6-4.1-3.6h-3.7c-0.6,0-1,0.4-1,1v9.4
		C258.1,395.1,258.5,395.5,259.1,395.5z M260.2,389.4v-3.5h2.8c1.1,0,1.9,0.7,1.9,1.7s-0.8,1.7-1.9,1.7h-2.8V389.4z M268.1,395.5
		c0.5,0,0.8-0.2,1-0.6l0.9-2.2h5.5l0.9,2.2c0.2,0.4,0.5,0.6,1,0.6s1-0.4,1-1c0-0.2,0-0.4-0.1-0.7l-3.5-8.5c-0.4-1.1-1-1.6-1.9-1.6
		c-1,0-1.5,0.5-1.9,1.6l-3.5,8.5c-0.1,0.3-0.1,0.5-0.1,0.7C267.1,395.1,267.6,395.5,268.1,395.5z M270.7,390.8l2-5l2,5H270.7z
		 M281.3,395.5c0.6,0,1-0.4,1-1v-3.2h2.4l2.6,3.8c0.2,0.3,0.5,0.5,0.9,0.5c0.5,0,1-0.4,1-0.9c0-0.2-0.1-0.5-0.3-0.8l-2-2.9
		c1.3-0.5,2.2-1.7,2.2-3.3c0-2.1-1.7-3.6-3.9-3.6h-3.9c-0.6,0-1,0.4-1,1v9.4C280.3,395.1,280.7,395.5,281.3,395.5z M282.3,389.3V386
		h2.9c1.1,0,1.8,0.7,1.8,1.7s-0.7,1.7-1.8,1.7L282.3,389.3L282.3,389.3z M293.2,395.3h6.1c0.6,0,1-0.4,1-1s-0.4-1-1-1h-5.1v-2.8h4.5
		c0.5,0,1-0.4,1-0.9s-0.4-0.9-1-0.9h-4.5v-2.6h5.1c0.6,0,1-0.4,1-1s-0.4-1-1-1h-6.1c-0.6,0-1,0.4-1,1v9.2
		C292.2,394.9,292.6,395.3,293.2,395.3z M304.3,395.5c0.6,0,1-0.4,1-1v-7l5,7.2c0.5,0.7,0.9,0.9,1.4,0.9c0.7,0,1.2-0.5,1.2-1.3V385
		c0-0.6-0.4-1-1-1s-1,0.4-1,1v7.2L306,385c-0.5-0.8-0.9-1-1.4-1c-0.7,0-1.2,0.5-1.2,1.3v9.3C303.3,395.1,303.7,395.5,304.3,395.5z
		 M321.4,395.5c1.9,0,3.3-0.6,4.4-1.8c0.4-0.4,0.7-1.1,0.7-1.5c0-0.5-0.4-1-0.9-1c-0.3,0-0.6,0.1-1,0.5c-0.7,1.1-1.7,1.7-3.1,1.7
		c-2.1,0-3.6-1.6-3.6-3.8c0-2.2,1.5-3.8,3.6-3.8c1.4,0,2.4,0.6,3.1,1.7c0.3,0.4,0.6,0.6,1,0.6c0.5,0,0.9-0.4,0.9-1
		c0-0.5-0.3-1.1-0.7-1.6c-1-1.2-2.5-1.7-4.3-1.7c-3.3,0-5.7,2.4-5.7,5.9C315.7,393.1,318.1,395.5,321.4,395.5z M328.2,385.3l3.7,5.3
		v3.8c0,0.6,0.4,1,1,1s1-0.4,1-1v-3.9l3.7-5.3c0.1-0.2,0.2-0.3,0.2-0.5c0-0.5-0.4-0.9-1-0.9c-0.5,0-0.7,0.3-1,0.7l-2.9,4.2l-2.9-4.2
		c-0.3-0.4-0.5-0.7-1-0.7c-0.6,0-1,0.4-1,0.9C328,385,328.1,385.2,328.2,385.3z M252.3,419.3h5.7c0.6,0,1-0.4,1-1s-0.4-1-1-1h-4.7
		v-8.4c0-0.6-0.4-1-1-1s-1,0.4-1,1v9.4C251.3,418.9,251.7,419.3,252.3,419.3z M266.1,419.5c3.4,0,5.8-2.4,5.8-5.9
		c0-3.4-2.4-5.9-5.8-5.9s-5.8,2.4-5.8,5.9C260.3,417.1,262.7,419.5,266.1,419.5z M262.4,413.7c0-2.3,1.6-3.8,3.7-3.8
		c2.2,0,3.7,1.6,3.7,3.8c0,2.3-1.5,3.8-3.7,3.8S262.4,415.9,262.4,413.7z M280,419.5c3.1,0,5.3-1.9,5.3-5.4c0-0.8-0.5-1.1-1.1-1.1
		h-4.3c-0.5,0-1,0.3-1,1c0,0.5,0.4,0.9,1,0.9h3.3c-0.1,1.7-1.3,2.6-3.2,2.6c-2.3,0-3.8-1.6-3.8-3.9s1.5-3.9,3.7-3.9
		c1.5,0,2.4,0.6,3.1,1.4c0.3,0.3,0.6,0.4,1,0.4c0.5,0,0.9-0.3,0.9-0.9s-0.5-1.4-1.2-1.9c-0.9-0.6-2.1-1.1-3.7-1.1
		c-3.4,0-5.9,2.4-5.9,5.9C274.1,417.1,276.5,419.5,280,419.5z"/>
</g>
<g>
	<path class="st3" d="M405,330.8h128c9.7,0,17.5,7.8,17.5,17.5v82c0,9.7-7.8,17.5-17.5,17.5H405c-9.7,0-17.5-7.8-17.5-17.5v-82
		C387.5,338.6,395.3,330.8,405,330.8z"/>
	<path class="st2" d="M533,449.3H405c-10.5,0-19-8.5-19-19v-82c0-10.5,8.5-19,19-19h128c10.5,0,19,8.5,19,19v82
		C552,440.8,543.5,449.3,533,449.3z M405,332.3c-8.8,0-16,7.2-16,16v82c0,8.8,7.2,16,16,16h128c8.8,0,16-7.2,16-16v-82
		c0-8.8-7.2-16-16-16H405z"/>
</g>
<g>
	<path class="st2" d="M454.6,371.5c0.6,0,1-0.4,1-1v-2.6l1.8-1.6l3.8,4.8c0.2,0.3,0.6,0.5,0.9,0.5c0.5,0,1-0.4,1-0.8
		c0-0.3-0.1-0.5-0.4-0.9l-3.9-4.8l3.4-3.1c0.4-0.4,0.5-0.6,0.5-1s-0.4-0.8-0.9-0.8c-0.4,0-0.6,0.1-0.9,0.4l-5.5,5v-4.4
		c0-0.6-0.4-1-1-1s-1,0.4-1,1v9.5C453.6,371.1,454,371.5,454.6,371.5z M466.6,371.3h6.1c0.6,0,1-0.4,1-1s-0.4-1-1-1h-5.1v-2.8h4.5
		c0.5,0,1-0.4,1-0.9s-0.4-0.9-1-0.9h-4.5v-2.6h5.1c0.6,0,1-0.4,1-1s-0.4-1-1-1h-6.1c-0.6,0-1,0.4-1,1v9.2
		C465.6,370.9,466,371.3,466.6,371.3z M475.8,361.3l3.7,5.3v3.8c0,0.6,0.4,1,1,1s1-0.4,1-1v-3.9l3.7-5.3c0.1-0.2,0.2-0.3,0.2-0.5
		c0-0.5-0.4-0.9-1-0.9c-0.5,0-0.7,0.3-1,0.7l-2.9,4.2l-2.9-4.2c-0.3-0.4-0.5-0.7-1-0.7c-0.6,0-1,0.4-1,0.9
		C475.6,361,475.7,361.2,475.8,361.3z M404,395.5c0.6,0,1-0.4,1-1v-8.4h2.8c0.6,0,1-0.4,1-1s-0.4-1-1-1h-7.6c-0.6,0-1,0.4-1,1
		s0.4,1,1,1h2.8v8.4C403,395.1,403.4,395.5,404,395.5z M412.1,395.5c0.6,0,1-0.4,1-1v-3.2h2.4l2.6,3.8c0.2,0.3,0.5,0.5,0.9,0.5
		c0.5,0,1-0.4,1-0.9c0-0.2-0.1-0.5-0.3-0.8l-2-2.9c1.3-0.5,2.2-1.7,2.2-3.3c0-2.1-1.7-3.6-3.9-3.6h-3.9c-0.6,0-1,0.4-1,1v9.4
		C411.1,395.1,411.5,395.5,412.1,395.5z M413.1,389.3V386h2.9c1.1,0,1.8,0.7,1.8,1.7s-0.7,1.7-1.8,1.7L413.1,389.3L413.1,389.3z
		 M422.6,395.5c0.5,0,0.8-0.2,1-0.6l0.9-2.2h5.5l0.9,2.2c0.2,0.4,0.5,0.6,1,0.6s1-0.4,1-1c0-0.2,0-0.4-0.1-0.7l-3.5-8.5
		c-0.4-1.1-1-1.6-1.9-1.6c-1,0-1.5,0.5-1.9,1.6l-3.5,8.5c-0.1,0.3-0.1,0.5-0.1,0.7C421.6,395.1,422.1,395.5,422.6,395.5z
		 M425.2,390.8l2-5l2,5H425.2z M435.8,395.5c0.6,0,1-0.4,1-1v-7l5,7.2c0.5,0.7,0.9,0.9,1.4,0.9c0.7,0,1.2-0.5,1.2-1.3V385
		c0-0.6-0.4-1-1-1s-1,0.4-1,1v7.2l-4.9-7.2c-0.5-0.8-0.9-1-1.4-1c-0.7,0-1.2,0.5-1.2,1.3v9.3C434.8,395.1,435.2,395.5,435.8,395.5z
		 M451.9,395.5c2.6,0,4.3-1.3,4.3-3.5c0-2.1-1.4-2.8-3-3.2l-2-0.4c-1-0.2-1.6-0.5-1.6-1.4s0.8-1.3,2-1.3c1.4,0,2.2,0.6,2.8,1.4
		c0.3,0.3,0.6,0.5,1,0.5c0.6,0,0.9-0.4,0.9-1s-0.4-1.4-1.1-1.8c-0.8-0.5-1.9-1-3.3-1c-2.6,0-4.2,1.3-4.2,3.4c0,1.9,1.2,2.8,3.1,3.2
		l2.1,0.4c0.9,0.2,1.5,0.5,1.5,1.4s-0.8,1.4-2,1.4c-1.6,0-2.5-0.6-3.2-1.6c-0.2-0.2-0.5-0.4-0.7-0.4c-0.5,0-1,0.4-1,1
		c0,0.7,0.5,1.4,1.1,1.9C449.2,395.1,450.3,395.5,451.9,395.5z M460.1,395.5c0.6,0,1-0.4,1-1v-3.2h2.7c2.3,0,4.1-1.4,4.1-3.6
		s-1.8-3.6-4.1-3.6h-3.7c-0.6,0-1,0.4-1,1v9.4C459.1,395.1,459.5,395.5,460.1,395.5z M461.2,389.4v-3.5h2.8c1.1,0,1.9,0.7,1.9,1.7
		s-0.8,1.7-1.9,1.7h-2.8V389.4z M469.1,395.5c0.5,0,0.8-0.2,1-0.6l0.9-2.2h5.5l0.9,2.2c0.2,0.4,0.5,0.6,1,0.6s1-0.4,1-1
		c0-0.2,0-0.4-0.1-0.7l-3.5-8.5c-0.4-1.1-1-1.6-1.9-1.6c-1,0-1.5,0.5-1.9,1.6l-3.5,8.5c-0.1,0.3-0.1,0.5-0.1,0.7
		C468.1,395.1,468.6,395.5,469.1,395.5z M471.7,390.8l2-5l2,5H471.7z M482.3,395.5c0.6,0,1-0.4,1-1v-3.2h2.4l2.6,3.8
		c0.2,0.3,0.5,0.5,0.9,0.5c0.5,0,1-0.4,1-0.9c0-0.2-0.1-0.5-0.3-0.8l-2-2.9c1.3-0.5,2.2-1.7,2.2-3.3c0-2.1-1.7-3.6-3.9-3.6h-3.9
		c-0.6,0-1,0.4-1,1v9.4C481.3,395.1,481.7,395.5,482.3,395.5z M483.3,389.3V386h2.9c1.1,0,1.8,0.7,1.8,1.7s-0.7,1.7-1.8,1.7
		L483.3,389.3L483.3,389.3z M494.2,395.3h6.1c0.6,0,1-0.4,1-1s-0.4-1-1-1h-5.1v-2.8h4.5c0.5,0,1-0.4,1-0.9s-0.4-0.9-1-0.9h-4.5v-2.6
		h5.1c0.6,0,1-0.4,1-1s-0.4-1-1-1h-6.1c-0.6,0-1,0.4-1,1v9.2C493.2,394.9,493.6,395.3,494.2,395.3z M505.3,395.5c0.6,0,1-0.4,1-1v-7
		l5,7.2c0.5,0.7,0.9,0.9,1.4,0.9c0.7,0,1.2-0.5,1.2-1.3V385c0-0.6-0.4-1-1-1s-1,0.4-1,1v7.2L507,385c-0.5-0.8-0.9-1-1.4-1
		c-0.7,0-1.2,0.5-1.2,1.3v9.3C504.3,395.1,504.7,395.5,505.3,395.5z M522.4,395.5c1.9,0,3.3-0.6,4.4-1.8c0.4-0.4,0.7-1.1,0.7-1.5
		c0-0.5-0.4-1-0.9-1c-0.3,0-0.6,0.1-1,0.5c-0.7,1.1-1.7,1.7-3.1,1.7c-2.1,0-3.6-1.6-3.6-3.8c0-2.2,1.5-3.8,3.6-3.8
		c1.4,0,2.4,0.6,3.1,1.7c0.3,0.4,0.6,0.6,1,0.6c0.5,0,0.9-0.4,0.9-1c0-0.5-0.3-1.1-0.7-1.6c-1-1.2-2.5-1.7-4.3-1.7
		c-3.3,0-5.7,2.4-5.7,5.9C516.7,393.1,519.1,395.5,522.4,395.5z M529.2,385.3l3.7,5.3v3.8c0,0.6,0.4,1,1,1s1-0.4,1-1v-3.9l3.7-5.3
		c0.1-0.2,0.2-0.3,0.2-0.5c0-0.5-0.4-0.9-1-0.9c-0.5,0-0.7,0.3-1,0.7l-2.9,4.2l-2.9-4.2c-0.3-0.4-0.5-0.7-1-0.7c-0.6,0-1,0.4-1,0.9
		C529,385,529.1,385.2,529.2,385.3z M453.3,419.3h5.7c0.6,0,1-0.4,1-1s-0.4-1-1-1h-4.7v-8.4c0-0.6-0.4-1-1-1s-1,0.4-1,1v9.4
		C452.3,418.9,452.7,419.3,453.3,419.3z M467.1,419.5c3.4,0,5.8-2.4,5.8-5.9c0-3.4-2.4-5.9-5.8-5.9c-3.4,0-5.8,2.4-5.8,5.9
		S463.7,419.5,467.1,419.5z M463.4,413.7c0-2.3,1.6-3.8,3.7-3.8c2.2,0,3.7,1.6,3.7,3.8c0,2.3-1.5,3.8-3.7,3.8
		S463.4,415.9,463.4,413.7z M481,419.5c3.1,0,5.3-1.9,5.3-5.4c0-0.8-0.5-1.1-1.1-1.1h-4.3c-0.5,0-1,0.3-1,1c0,0.5,0.4,0.9,1,0.9h3.3
		c-0.1,1.7-1.3,2.6-3.2,2.6c-2.3,0-3.8-1.6-3.8-3.9s1.5-3.9,3.7-3.9c1.5,0,2.4,0.6,3.1,1.4c0.3,0.3,0.6,0.4,1,0.4
		c0.5,0,0.9-0.3,0.9-0.9s-0.5-1.4-1.2-1.9c-0.9-0.6-2.1-1.1-3.7-1.1c-3.4,0-5.9,2.4-5.9,5.9C475.1,417.1,477.5,419.5,481,419.5z"/>
</g>
<g>
	<path class="st3" d="M5,330.8h128c9.7,0,17.5,7.8,17.5,17.5v82c0,9.7-7.8,17.5-17.5,17.5H5c-9.7,0-17.5-7.8-17.5-17.5v-82
		C-12.5,338.6-4.7,330.8,5,330.8z"/>
	<path class="st2" d="M133,449.3H5c-10.5,0-19-8.5-19-19v-82c0-10.5,8.5-19,19-19h128c10.5,0,19,8.5,19,19v82
		C152,440.8,143.5,449.3,133,449.3z M5,332.3c-8.8,0-16,7.2-16,16v82c0,8.8,7.2,16,16,16h128c8.8,0,16-7.2,16-16v-82
		c0-8.8-7.2-16-16-16H5z"/>
</g>
<path class="st2" d="M40.1,371.5c1.9,0,3.3-0.6,4.4-1.8c0.4-0.4,0.7-1.1,0.7-1.5c0-0.5-0.4-1-0.9-1c-0.3,0-0.6,0.1-1,0.5
	c-0.7,1.1-1.7,1.7-3.1,1.7c-2.1,0-3.6-1.6-3.6-3.8c0-2.2,1.5-3.8,3.6-3.8c1.4,0,2.4,0.6,3.1,1.7c0.3,0.4,0.6,0.6,1,0.6
	c0.5,0,0.9-0.4,0.9-1c0-0.5-0.3-1.1-0.7-1.6c-1-1.2-2.5-1.7-4.3-1.7c-3.3,0-5.7,2.4-5.7,5.9C34.4,369.1,36.8,371.5,40.1,371.5z
	 M53,371.5c3.4,0,5.8-2.4,5.8-5.9c0-3.4-2.4-5.9-5.8-5.9c-3.4,0-5.8,2.4-5.8,5.9C47.2,369.1,49.6,371.5,53,371.5z M49.3,365.7
	c0-2.3,1.6-3.8,3.7-3.8c2.2,0,3.7,1.6,3.7,3.8c0,2.3-1.5,3.8-3.7,3.8S49.3,367.9,49.3,365.7z M66.1,371.5c2.6,0,4.3-1.3,4.3-3.5
	c0-2.1-1.4-2.8-3-3.2l-2-0.4c-1-0.2-1.6-0.5-1.6-1.4s0.8-1.3,2-1.3c1.4,0,2.2,0.6,2.8,1.4c0.3,0.3,0.6,0.5,1,0.5
	c0.6,0,0.9-0.4,0.9-1s-0.4-1.4-1.1-1.8c-0.8-0.5-1.9-1-3.3-1c-2.6,0-4.2,1.3-4.2,3.4c0,1.9,1.2,2.8,3.1,3.2l2.1,0.4
	c0.9,0.2,1.5,0.5,1.5,1.4s-0.8,1.4-2,1.4c-1.6,0-2.5-0.6-3.2-1.6c-0.2-0.2-0.5-0.4-0.7-0.4c-0.5,0-1,0.4-1,1c0,0.7,0.5,1.4,1.1,1.9
	C63.3,371.1,64.4,371.5,66.1,371.5z M74.3,371.5c0.6,0,1-0.4,1-1V361c0-0.6-0.4-1-1-1s-1,0.4-1,1v9.5
	C73.3,371.1,73.7,371.5,74.3,371.5z M83.9,371.5c3.1,0,5.3-1.9,5.3-5.4c0-0.8-0.5-1.1-1.1-1.1h-4.3c-0.5,0-1,0.3-1,1
	c0,0.5,0.4,0.9,1,0.9h3.3c-0.1,1.7-1.3,2.6-3.2,2.6c-2.3,0-3.8-1.6-3.8-3.9s1.5-3.9,3.7-3.9c1.5,0,2.4,0.6,3.1,1.4
	c0.3,0.3,0.6,0.4,1,0.4c0.5,0,0.9-0.3,0.9-0.9s-0.5-1.4-1.2-1.9c-0.9-0.6-2.1-1.1-3.7-1.1c-3.4,0-5.9,2.4-5.9,5.9
	C78.1,369.1,80.5,371.5,83.9,371.5z M93,371.5c0.6,0,1-0.4,1-1v-7l5,7.2c0.5,0.7,0.9,0.9,1.4,0.9c0.7,0,1.2-0.5,1.2-1.3V361
	c0-0.6-0.4-1-1-1s-1,0.4-1,1v7.2l-4.9-7.2c-0.5-0.8-0.9-1-1.4-1c-0.7,0-1.2,0.5-1.2,1.3v9.3C92,371.1,92.4,371.5,93,371.5z
	 M16.8,395.5c1.9,0,3.3-0.6,4.4-1.8c0.4-0.4,0.7-1.1,0.7-1.5c0-0.5-0.4-1-0.9-1c-0.3,0-0.6,0.1-1,0.5c-0.7,1.1-1.7,1.7-3.1,1.7
	c-2.1,0-3.6-1.6-3.6-3.8c0-2.2,1.5-3.8,3.6-3.8c1.4,0,2.4,0.6,3.1,1.7c0.3,0.4,0.6,0.6,1,0.6c0.5,0,0.9-0.4,0.9-1
	c0-0.5-0.3-1.1-0.7-1.6c-1-1.2-2.5-1.7-4.3-1.7c-3.3,0-5.7,2.4-5.7,5.9C11.2,393.1,13.5,395.5,16.8,395.5z M25.6,395.3h6.1
	c0.6,0,1-0.4,1-1s-0.4-1-1-1h-5.1v-2.8h4.5c0.5,0,1-0.4,1-0.9s-0.4-0.9-1-0.9h-4.5v-2.6h5.1c0.6,0,1-0.4,1-1s-0.4-1-1-1h-6.1
	c-0.6,0-1,0.4-1,1v9.2C24.5,394.9,25,395.3,25.6,395.3z M36.7,395.5c0.6,0,1-0.4,1-1v-3.2h2.4l2.6,3.8c0.2,0.3,0.5,0.5,0.9,0.5
	c0.5,0,1-0.4,1-0.9c0-0.2-0.1-0.5-0.3-0.8l-2-2.9c1.3-0.5,2.2-1.7,2.2-3.3c0-2.1-1.7-3.6-3.9-3.6h-3.9c-0.6,0-1,0.4-1,1v9.4
	C35.7,395.1,36.1,395.5,36.7,395.5z M37.7,389.3V386h2.9c1.1,0,1.8,0.7,1.8,1.7s-0.7,1.7-1.8,1.7L37.7,389.3L37.7,389.3z
	 M50.9,395.5c0.6,0,1-0.4,1-1v-8.4h2.8c0.6,0,1-0.4,1-1s-0.4-1-1-1h-7.6c-0.6,0-1,0.4-1,1s0.4,1,1,1h2.8v8.4
	C49.9,395.1,50.3,395.5,50.9,395.5z M59,395.5c0.6,0,1-0.4,1-1V385c0-0.6-0.4-1-1-1s-1,0.4-1,1v9.5C58,395.1,58.4,395.5,59,395.5z
	 M64.4,395.5c0.6,0,1-0.4,1-1v-3.6h4.5c0.6,0,1-0.4,1-1s-0.4-1-1-1h-4.5v-2.8h5.1c0.6,0,1-0.4,1-1s-0.4-1-1-1h-6.1c-0.6,0-1,0.4-1,1
	v9.4C63.4,395.1,63.8,395.5,64.4,395.5z M74.9,395.5c0.6,0,1-0.4,1-1V385c0-0.6-0.4-1-1-1s-1,0.4-1,1v9.5
	C73.8,395.1,74.2,395.5,74.9,395.5z M84.4,395.5c1.9,0,3.3-0.6,4.4-1.8c0.4-0.4,0.7-1.1,0.7-1.5c0-0.5-0.4-1-0.9-1
	c-0.3,0-0.6,0.1-1,0.5c-0.7,1.1-1.7,1.7-3.1,1.7c-2.1,0-3.6-1.6-3.6-3.8c0-2.2,1.5-3.8,3.6-3.8c1.4,0,2.4,0.6,3.1,1.7
	c0.3,0.4,0.6,0.6,1,0.6c0.5,0,0.9-0.4,0.9-1c0-0.5-0.3-1.1-0.7-1.6c-1-1.2-2.5-1.7-4.3-1.7c-3.3,0-5.7,2.4-5.7,5.9
	C78.7,393.1,81,395.5,84.4,395.5z M91.7,395.5c0.5,0,0.8-0.2,1-0.6l0.9-2.2h5.5l0.9,2.2c0.2,0.4,0.5,0.6,1,0.6s1-0.4,1-1
	c0-0.2,0-0.4-0.1-0.7l-3.5-8.5c-0.4-1.1-1-1.6-1.9-1.6c-1,0-1.5,0.5-1.9,1.6l-3.5,8.5c-0.1,0.3-0.1,0.5-0.1,0.7
	C90.7,395.1,91.2,395.5,91.7,395.5z M94.3,390.8l2-5l2,5H94.3z M106.6,395.5c0.6,0,1-0.4,1-1v-8.4h2.8c0.6,0,1-0.4,1-1s-0.4-1-1-1
	h-7.6c-0.6,0-1,0.4-1,1s0.4,1,1,1h2.8v8.4C105.6,395.1,106,395.5,106.6,395.5z M114.7,395.3h6.1c0.6,0,1-0.4,1-1s-0.4-1-1-1h-5.1
	v-2.8h4.5c0.5,0,1-0.4,1-0.9s-0.4-0.9-1-0.9h-4.5v-2.6h5.1c0.6,0,1-0.4,1-1s-0.4-1-1-1h-6.1c-0.6,0-1,0.4-1,1v9.2
	C113.7,394.9,114.1,395.3,114.7,395.3z M19.9,419.5c0.5,0,0.8-0.2,1-0.6l0.9-2.2h5.5l0.9,2.2c0.2,0.4,0.5,0.6,1,0.6s1-0.4,1-1
	c0-0.2,0-0.4-0.1-0.7l-3.5-8.5c-0.4-1.1-1-1.6-1.9-1.6c-1,0-1.5,0.5-1.9,1.6l-3.5,8.5c-0.1,0.3-0.1,0.5-0.1,0.7
	C18.9,419.1,19.4,419.5,19.9,419.5z M22.5,414.8l2-5l2,5H22.5z M36.4,419.5c2.9,0,4.7-1.9,4.7-4.6v-6c0-0.6-0.4-1-1-1s-1,0.4-1,1
	v5.8c0,1.7-1,2.8-2.7,2.8c-1.6,0-2.6-1.1-2.6-2.8v-5.8c0-0.6-0.4-1-1-1s-1,0.4-1,1v6C31.7,417.7,33.5,419.5,36.4,419.5z M48,419.5
	c0.6,0,1-0.4,1-1v-8.4h2.8c0.6,0,1-0.4,1-1s-0.4-1-1-1h-7.6c-0.6,0-1,0.4-1,1s0.4,1,1,1H47v8.4C47,419.1,47.4,419.5,48,419.5z
	 M63.6,419.5c0.6,0,1-0.4,1-1V409c0-0.6-0.4-1-1-1s-1,0.4-1,1v3.8h-5.5V409c0-0.6-0.4-1-1-1s-1,0.4-1,1v9.5c0,0.6,0.4,1,1,1
	s1-0.4,1-1v-3.9h5.5v3.9C62.6,419.1,63,419.5,63.6,419.5z M73.2,419.5c3.4,0,5.8-2.4,5.8-5.9c0-3.4-2.4-5.9-5.8-5.9
	c-3.4,0-5.8,2.4-5.8,5.9S69.8,419.5,73.2,419.5z M69.5,413.7c0-2.3,1.6-3.8,3.7-3.8c2.2,0,3.7,1.6,3.7,3.8c0,2.3-1.5,3.8-3.7,3.8
	C71.1,417.5,69.5,415.9,69.5,413.7z M82.8,419.5c0.6,0,1-0.4,1-1v-3.2h2.4l2.6,3.8c0.2,0.3,0.5,0.5,0.9,0.5c0.5,0,1-0.4,1-0.9
	c0-0.2-0.1-0.5-0.3-0.8l-2-2.9c1.3-0.5,2.2-1.7,2.2-3.3c0-2.1-1.7-3.6-3.9-3.6h-3.9c-0.6,0-1,0.4-1,1v9.4
	C81.8,419.1,82.2,419.5,82.8,419.5z M83.8,413.3V410h2.9c1.1,0,1.8,0.7,1.8,1.7s-0.7,1.7-1.8,1.7L83.8,413.3L83.8,413.3z
	 M94.7,419.5c0.6,0,1-0.4,1-1V409c0-0.6-0.4-1-1-1s-1,0.4-1,1v9.5C93.7,419.1,94.1,419.5,94.7,419.5z M102.9,419.5c0.6,0,1-0.4,1-1
	v-8.4h2.8c0.6,0,1-0.4,1-1s-0.4-1-1-1h-7.6c-0.6,0-1,0.4-1,1s0.4,1,1,1h2.8v8.4C101.9,419.1,102.3,419.5,102.9,419.5z M109.2,409.3
	l3.7,5.3v3.8c0,0.6,0.4,1,1,1s1-0.4,1-1v-3.9l3.7-5.3c0.1-0.2,0.2-0.3,0.2-0.5c0-0.5-0.4-0.9-1-0.9c-0.5,0-0.7,0.3-1,0.7l-2.9,4.2
	l-2.9-4.2c-0.3-0.4-0.5-0.7-1-0.7c-0.6,0-1,0.4-1,0.9C109,409,109.1,409.2,109.2,409.3z"/>
<g>
	<path class="st4" d="M5,487.8h528c9.7,0,17.5,7.8,17.5,17.5v82c0,9.7-7.8,17.5-17.5,17.5H5c-9.7,0-17.5-7.8-17.5-17.5v-82
		C-12.5,495.6-4.7,487.8,5,487.8z"/>
	<path class="st2" d="M533,606.3H5c-10.5,0-19-8.5-19-19v-82c0-10.5,8.5-19,19-19h528c10.5,0,19,8.5,19,19v82
		C552,597.8,543.5,606.3,533,606.3z M5,489.3c-8.8,0-16,7.2-16,16v82c0,8.8,7.2,16,16,16h528c8.8,0,16-7.2,16-16v-82
		c0-8.8-7.2-16-16-16H5z"/>
</g>
<g>
	<path class="st2" d="M218.7,552.5c-0.3,0-0.5-0.1-0.7-0.3c-0.2-0.2-0.3-0.4-0.3-0.8V543h-2.8c-0.3,0-0.5-0.1-0.7-0.3
		s-0.3-0.4-0.3-0.7c0-0.3,0.1-0.5,0.3-0.7c0.2-0.2,0.4-0.3,0.7-0.3h7.6c0.3,0,0.5,0.1,0.7,0.3c0.2,0.2,0.3,0.4,0.3,0.7
		s-0.1,0.5-0.3,0.7c-0.2,0.2-0.4,0.3-0.7,0.3h-2.8v8.4c0,0.3-0.1,0.6-0.3,0.8C219.2,552.4,219,552.5,218.7,552.5z M226.8,552.5
		c-0.3,0-0.5-0.1-0.7-0.3c-0.2-0.2-0.3-0.4-0.3-0.8V542c0-0.3,0.1-0.6,0.3-0.7c0.2-0.2,0.4-0.3,0.7-0.3h3.9c0.7,0,1.4,0.2,2,0.5
		s1.1,0.7,1.4,1.3c0.3,0.5,0.5,1.2,0.5,1.9c0,0.8-0.2,1.4-0.6,2c-0.4,0.6-0.9,1-1.6,1.3l2,2.9c0.2,0.3,0.3,0.5,0.3,0.8
		c0,0.2,0,0.3-0.1,0.4c-0.1,0.1-0.2,0.2-0.4,0.3c-0.2,0.1-0.3,0.1-0.5,0.1s-0.3,0-0.5-0.1c-0.1-0.1-0.3-0.2-0.4-0.3l-2.6-3.8h-2.4
		v3.2c0,0.3-0.1,0.6-0.3,0.8C227.4,552.4,227.1,552.5,226.8,552.5z M230.7,546.3c0.4,0,0.7-0.1,0.9-0.2c0.3-0.1,0.5-0.3,0.6-0.6
		c0.1-0.3,0.2-0.5,0.2-0.9c0-0.3-0.1-0.6-0.2-0.9s-0.4-0.4-0.6-0.6c-0.3-0.1-0.6-0.2-0.9-0.2h-2.9v3.3h2.9V546.3z M242.1,552.5
		c-0.9,0-1.8-0.2-2.5-0.6c-0.7-0.4-1.2-0.9-1.6-1.6s-0.6-1.5-0.6-2.4v-6c0-0.3,0.1-0.5,0.3-0.7c0.2-0.2,0.4-0.3,0.7-0.3
		c0.3,0,0.5,0.1,0.7,0.3c0.2,0.2,0.3,0.4,0.3,0.7v5.8c0,0.6,0.1,1,0.3,1.5c0.2,0.4,0.5,0.8,0.9,1s0.9,0.3,1.4,0.3s1-0.1,1.4-0.3
		s0.7-0.6,0.9-1c0.2-0.4,0.3-0.9,0.3-1.5v-5.8c0-0.3,0.1-0.5,0.3-0.7c0.2-0.2,0.4-0.3,0.7-0.3c0.3,0,0.5,0.1,0.7,0.3
		c0.2,0.2,0.3,0.4,0.3,0.7v6c0,0.9-0.2,1.7-0.6,2.4s-0.9,1.2-1.6,1.6C243.8,552.3,243,552.5,242.1,552.5z M254,552.5
		c-0.8,0-1.5-0.1-2.1-0.3c-0.6-0.2-1.1-0.4-1.6-0.8c-0.3-0.2-0.6-0.5-0.8-0.9c-0.2-0.3-0.3-0.7-0.3-1s0.1-0.5,0.3-0.7
		c0.2-0.2,0.4-0.3,0.7-0.3c0.3,0,0.5,0.1,0.7,0.4c0.4,0.6,0.8,1,1.3,1.2c0.5,0.3,1.1,0.4,1.9,0.4c0.6,0,1.1-0.1,1.5-0.4
		s0.5-0.6,0.5-1.1c0-0.4-0.1-0.7-0.4-0.9c-0.3-0.2-0.6-0.4-1.1-0.5l-2.1-0.4c-1-0.2-1.8-0.6-2.3-1c-0.5-0.5-0.8-1.2-0.8-2.1
		c0-0.7,0.2-1.3,0.5-1.8s0.8-0.9,1.5-1.2c0.7-0.3,1.4-0.4,2.2-0.4c1.2,0,2.3,0.3,3.3,1c0.4,0.2,0.6,0.5,0.8,0.8
		c0.2,0.3,0.3,0.7,0.3,1s-0.1,0.5-0.2,0.7c-0.2,0.2-0.4,0.3-0.6,0.3s-0.3,0-0.5-0.1c-0.2-0.1-0.3-0.2-0.5-0.3
		c-0.6-0.9-1.5-1.4-2.8-1.4c-0.6,0-1.1,0.1-1.4,0.4c-0.4,0.2-0.5,0.6-0.5,1c0,0.3,0.1,0.5,0.2,0.7s0.3,0.3,0.5,0.4
		c0.2,0.1,0.5,0.2,0.9,0.3l2,0.4c0.6,0.1,1.1,0.3,1.5,0.5s0.8,0.6,1,1c0.3,0.4,0.4,1,0.4,1.6c0,0.7-0.2,1.3-0.5,1.9
		c-0.3,0.5-0.8,0.9-1.5,1.2C255.6,552.4,254.9,552.5,254,552.5z M264.7,552.5c-0.3,0-0.5-0.1-0.7-0.3c-0.2-0.2-0.3-0.4-0.3-0.8V543
		h-2.8c-0.3,0-0.5-0.1-0.7-0.3s-0.3-0.4-0.3-0.7c0-0.3,0.1-0.5,0.3-0.7c0.2-0.2,0.4-0.3,0.7-0.3h7.6c0.3,0,0.5,0.1,0.7,0.3
		c0.2,0.2,0.3,0.4,0.3,0.7s-0.1,0.5-0.3,0.7c-0.2,0.2-0.4,0.3-0.7,0.3h-2.8v8.4c0,0.3-0.1,0.6-0.3,0.8
		C265.3,552.4,265,552.5,264.7,552.5z M277.7,552.5c-0.3,0-0.5-0.1-0.7-0.3c-0.2-0.2-0.3-0.4-0.3-0.8V542c0-0.3,0.1-0.6,0.3-0.7
		c0.2-0.2,0.4-0.3,0.7-0.3h3.9c0.7,0,1.4,0.2,2,0.5s1.1,0.7,1.4,1.3c0.3,0.5,0.5,1.2,0.5,1.9c0,0.8-0.2,1.4-0.6,2
		c-0.4,0.6-0.9,1-1.6,1.3l2,2.9c0.2,0.3,0.3,0.5,0.3,0.8c0,0.2,0,0.3-0.1,0.4c-0.1,0.1-0.2,0.2-0.4,0.3c-0.2,0.1-0.3,0.1-0.5,0.1
		s-0.3,0-0.5-0.1c-0.1-0.1-0.3-0.2-0.4-0.3l-2.6-3.8h-2.4v3.2c0,0.3-0.1,0.6-0.3,0.8C278.2,552.4,278,552.5,277.7,552.5z
		 M281.6,546.3c0.4,0,0.7-0.1,0.9-0.2c0.3-0.1,0.5-0.3,0.6-0.6c0.1-0.3,0.2-0.5,0.2-0.9c0-0.3-0.1-0.6-0.2-0.9s-0.4-0.4-0.6-0.6
		c-0.3-0.1-0.6-0.2-0.9-0.2h-2.9v3.3h2.9V546.3z M293.6,552.5c-1.1,0-2.1-0.2-3-0.7s-1.6-1.2-2.1-2.1c-0.5-0.9-0.7-1.9-0.7-3
		c0-1.1,0.2-2.1,0.7-3c0.5-0.9,1.2-1.6,2.1-2.1s1.9-0.8,3-0.8s2.1,0.2,3,0.8c0.9,0.5,1.6,1.2,2.1,2.1c0.5,0.9,0.7,1.9,0.7,3
		c0,1.1-0.2,2.1-0.7,3c-0.5,0.9-1.2,1.6-2.1,2.1S294.7,552.5,293.6,552.5z M289.9,546.7c0,0.7,0.2,1.4,0.5,2c0.3,0.6,0.8,1,1.3,1.4
		c0.6,0.3,1.2,0.5,1.9,0.5c0.7,0,1.4-0.2,1.9-0.5c0.6-0.3,1-0.8,1.3-1.4c0.3-0.6,0.5-1.2,0.5-2s-0.2-1.4-0.5-2
		c-0.3-0.6-0.8-1-1.3-1.4c-0.6-0.3-1.2-0.5-1.9-0.5c-0.7,0-1.4,0.2-1.9,0.5c-0.6,0.3-1,0.8-1.3,1.4
		C290,545.3,289.9,545.9,289.9,546.7z M307.5,552.5c-1.1,0-2.1-0.2-3-0.7s-1.6-1.2-2.1-2.1c-0.5-0.9-0.7-1.9-0.7-3
		c0-1.1,0.2-2.1,0.7-3c0.5-0.9,1.2-1.6,2.1-2.1s1.9-0.8,3-0.8s2.1,0.2,3,0.8c0.9,0.5,1.6,1.2,2.1,2.1c0.5,0.9,0.7,1.9,0.7,3
		c0,1.1-0.2,2.1-0.7,3c-0.5,0.9-1.2,1.6-2.1,2.1S308.6,552.5,307.5,552.5z M303.7,546.7c0,0.7,0.2,1.4,0.5,2c0.3,0.6,0.8,1,1.3,1.4
		c0.6,0.3,1.2,0.5,1.9,0.5c0.7,0,1.4-0.2,1.9-0.5c0.6-0.3,1-0.8,1.3-1.4c0.3-0.6,0.5-1.2,0.5-2s-0.2-1.4-0.5-2
		c-0.3-0.6-0.8-1-1.3-1.4c-0.6-0.3-1.2-0.5-1.9-0.5c-0.7,0-1.4,0.2-1.9,0.5c-0.6,0.3-1,0.8-1.3,1.4
		C303.9,545.3,303.7,545.9,303.7,546.7z M319.3,552.5c-0.3,0-0.5-0.1-0.7-0.3c-0.2-0.2-0.3-0.4-0.3-0.8V543h-2.8
		c-0.3,0-0.5-0.1-0.7-0.3s-0.3-0.4-0.3-0.7c0-0.3,0.1-0.5,0.3-0.7c0.2-0.2,0.4-0.3,0.7-0.3h7.6c0.3,0,0.5,0.1,0.7,0.3
		c0.2,0.2,0.3,0.4,0.3,0.7s-0.1,0.5-0.3,0.7c-0.2,0.2-0.4,0.3-0.7,0.3h-2.8v8.4c0,0.3-0.1,0.6-0.3,0.8
		C319.9,552.4,319.6,552.5,319.3,552.5z"/>
</g>
<g>
	<path class="st5" d="M46,176.8h46c30.7,0,55.5,24.8,55.5,55.5l0,0c0,30.7-24.8,55.5-55.5,55.5H46c-30.7,0-55.5-24.8-55.5-55.5l0,0
		C-9.5,201.6,15.3,176.8,46,176.8z"/>
	<path class="st0" d="M92,289.3H46c-31.4,0-57-25.6-57-57s25.6-57,57-57h46c31.4,0,57,25.6,57,57S123.4,289.3,92,289.3z M46,178.3
		c-29.8,0-54,24.2-54,54s24.2,54,54,54h46c29.8,0,54-24.2,54-54s-24.2-54-54-54H46z"/>
</g>
<g>
	<path class="st2" d="M32,214.5c2.6,0,4.3-1.3,4.3-3.5c0-2.1-1.4-2.8-3-3.2l-2-0.4c-1-0.2-1.6-0.5-1.6-1.4c0-0.9,0.8-1.3,2-1.3
		c1.4,0,2.2,0.6,2.8,1.4c0.3,0.3,0.6,0.5,1,0.5c0.6,0,0.9-0.4,0.9-1c0-0.6-0.4-1.4-1.1-1.8c-0.8-0.5-1.9-1-3.3-1
		c-2.6,0-4.2,1.3-4.2,3.4c0,1.9,1.2,2.8,3.1,3.2l2.1,0.4c0.9,0.2,1.5,0.5,1.5,1.4c0,0.9-0.8,1.4-2,1.4c-1.6,0-2.5-0.6-3.2-1.6
		c-0.2-0.2-0.5-0.4-0.7-0.4c-0.5,0-1,0.4-1,1c0,0.7,0.5,1.4,1.1,1.9C29.3,214.1,30.4,214.5,32,214.5z M40.2,214.5c0.6,0,1-0.4,1-1
		v-9.6c0-0.6-0.4-1-1-1s-1,0.4-1,1v9.5C39.2,214.1,39.6,214.5,40.2,214.5z M49.9,214.5c3.1,0,5.3-1.9,5.3-5.4c0-0.8-0.5-1.1-1.1-1.1
		h-4.3c-0.5,0-1,0.3-1,1c0,0.5,0.4,0.9,1,0.9h3.3c-0.1,1.7-1.3,2.6-3.2,2.6c-2.3,0-3.8-1.6-3.8-3.9s1.5-3.9,3.7-3.9
		c1.5,0,2.4,0.6,3.1,1.4c0.3,0.3,0.6,0.4,1,0.4c0.5,0,0.9-0.3,0.9-0.9c0-0.6-0.5-1.4-1.2-1.9c-0.9-0.6-2.1-1.1-3.7-1.1
		c-3.4,0-5.9,2.4-5.9,5.9C44.1,212.1,46.4,214.5,49.9,214.5z M59,214.5c0.6,0,1-0.4,1-1v-7l5,7.2c0.5,0.7,0.9,0.9,1.4,0.9
		c0.7,0,1.2-0.5,1.2-1.3v-9.4c0-0.6-0.4-1-1-1s-1,0.4-1,1v7.2l-4.9-7.2c-0.5-0.8-0.9-1-1.4-1c-0.7,0-1.2,0.5-1.2,1.3v9.3
		C58,214.1,58.4,214.5,59,214.5z M75.4,214.5c0.5,0,0.8-0.2,1-0.6l0.9-2.2h5.5l0.9,2.2c0.2,0.4,0.5,0.6,1,0.6s1-0.4,1-1
		c0-0.2,0-0.4-0.1-0.7l-3.6-8.4c-0.4-1.1-1-1.6-1.9-1.6c-1,0-1.5,0.5-1.9,1.6l-3.5,8.5c-0.1,0.3-0.1,0.5-0.1,0.7
		C74.5,214.1,74.9,214.5,75.4,214.5z M78,209.8l2-5l2,5H78z M88.6,214.5c0.6,0,1-0.4,1-1v-7l5,7.2c0.5,0.7,0.9,0.9,1.4,0.9
		c0.7,0,1.2-0.5,1.2-1.3v-9.4c0-0.6-0.4-1-1-1s-1,0.4-1,1v7.2l-4.9-7.2c-0.5-0.8-0.9-1-1.4-1c-0.7,0-1.2,0.5-1.2,1.3v9.3
		C87.6,214.1,88,214.5,88.6,214.5z M101.6,214.3h3.6c3.3,0,5.5-2.3,5.5-5.6c0-3.3-2.2-5.6-5.5-5.6h-3.6c-0.6,0-1,0.4-1,1v9.2
		C100.6,213.9,101,214.3,101.6,214.3z M102.6,212.3V205h2.6c2,0,3.3,1.5,3.3,3.7c0,2.1-1.3,3.6-3.3,3.6H102.6z M34.1,238.5
		c0.6,0,1-0.4,1-1v-3.2h2.7c2.3,0,4.1-1.4,4.1-3.6s-1.8-3.6-4.1-3.6h-3.7c-0.6,0-1,0.4-1,1v9.4C33.1,238.1,33.5,238.5,34.1,238.5z
		 M35.2,232.4v-3.5H38c1.1,0,1.9,0.7,1.9,1.7s-0.8,1.7-1.9,1.7L35.2,232.4L35.2,232.4z M48.8,238.5c2.9,0,4.7-1.9,4.7-4.6v-6
		c0-0.6-0.4-1-1-1s-1,0.4-1,1v5.8c0,1.7-1,2.8-2.7,2.8c-1.6,0-2.6-1.1-2.6-2.8v-5.8c0-0.6-0.4-1-1-1s-1,0.4-1,1v6
		C44.2,236.7,46,238.5,48.8,238.5z M57.7,238.3L57.7,238.3h4.1c2.3,0,3.8-1.3,3.8-3.3c0-1.1-0.6-2-1.7-2.4c1.1-0.4,1.6-1.2,1.6-2.3
		c0-2-1.5-3.2-3.8-3.2h-4.1c-0.6,0-1,0.4-1,1v9.2C56.7,237.9,57.1,238.3,57.7,238.3z M58.7,236.4v-3h3c1.1,0,1.8,0.6,1.8,1.5
		c0,1-0.7,1.5-1.8,1.5H58.7z M58.7,231.7V229h2.9c1.1,0,1.7,0.5,1.7,1.4c0,0.8-0.6,1.3-1.7,1.3H58.7z M69.6,238.3h5.7
		c0.6,0,1-0.4,1-1c0-0.6-0.4-1-1-1h-4.7v-8.4c0-0.6-0.4-1-1-1s-1,0.4-1,1v9.4C68.5,237.9,69,238.3,69.6,238.3z M79.6,238.5
		c0.6,0,1-0.4,1-1V228c0-0.6-0.4-1-1-1s-1,0.4-1,1v9.5C78.6,238.1,79,238.5,79.6,238.5z M88.2,238.5c2.6,0,4.3-1.3,4.3-3.5
		c0-2.1-1.4-2.8-3-3.2l-2-0.4c-1-0.2-1.6-0.5-1.6-1.4s0.8-1.3,2-1.3c1.4,0,2.2,0.6,2.8,1.4c0.3,0.3,0.6,0.5,1,0.5
		c0.6,0,0.9-0.4,0.9-1c0-0.6-0.4-1.4-1.1-1.8c-0.8-0.5-1.9-1-3.3-1c-2.6,0-4.2,1.3-4.2,3.4c0,1.9,1.2,2.8,3.1,3.2l2.1,0.4
		c0.9,0.2,1.5,0.5,1.5,1.4c0,0.9-0.8,1.4-2,1.4c-1.6,0-2.5-0.6-3.2-1.6c-0.2-0.2-0.5-0.4-0.7-0.4c-0.5,0-1,0.4-1,1
		c0,0.7,0.5,1.4,1.1,1.9C85.4,238.1,86.5,238.5,88.2,238.5z M103.9,238.5c0.6,0,1-0.4,1-1V228c0-0.6-0.4-1-1-1s-1,0.4-1,1v3.8h-5.5
		V228c0-0.6-0.4-1-1-1s-1,0.4-1,1v9.5c0,0.6,0.4,1,1,1s1-0.4,1-1v-3.9h5.5v3.9C102.8,238.1,103.2,238.5,103.9,238.5z M22.6,262.5
		c0.5,0,0.8-0.2,1-0.6l0.9-2.2H30l0.9,2.2c0.2,0.4,0.5,0.6,1,0.6s1-0.4,1-1c0-0.2,0-0.4-0.1-0.7l-3.5-8.5c-0.4-1.1-1-1.6-1.9-1.6
		c-1,0-1.5,0.5-1.9,1.6l-3.5,8.5c-0.1,0.3-0.1,0.5-0.1,0.7C21.6,262.1,22,262.5,22.6,262.5z M25.2,257.8l2-5l2,5H25.2z M35.8,262.5
		c0.6,0,1-0.4,1-1v-3.2h2.4l2.6,3.8c0.2,0.3,0.5,0.5,0.9,0.5c0.5,0,1-0.4,1-0.9c0-0.2-0.1-0.5-0.3-0.8l-2-2.9
		c1.3-0.5,2.2-1.7,2.2-3.3c0-2.1-1.7-3.6-3.9-3.6h-3.9c-0.6,0-1,0.4-1,1v9.4C34.8,262.1,35.2,262.5,35.8,262.5z M36.8,256.3V253h2.9
		c1.1,0,1.8,0.7,1.8,1.7s-0.7,1.7-1.8,1.7h-2.9V256.3z M50,262.5c0.6,0,1-0.4,1-1v-8.4h2.8c0.6,0,1-0.4,1-1c0-0.6-0.4-1-1-1h-7.6
		c-0.6,0-1,0.4-1,1c0,0.6,0.4,1,1,1H49v8.4C49,262.1,49.4,262.5,50,262.5z M58.1,262.5c0.6,0,1-0.4,1-1V252c0-0.6-0.4-1-1-1
		s-1,0.4-1,1v9.5C57.1,262.1,57.5,262.5,58.1,262.5z M63.5,262.5c0.6,0,1-0.4,1-1v-3.6H69c0.6,0,1-0.4,1-1c0-0.6-0.4-1-1-1h-4.5
		v-2.8h5.1c0.6,0,1-0.4,1-1c0-0.6-0.4-1-1-1h-6.1c-0.6,0-1,0.4-1,1v9.4C62.5,262.1,62.9,262.5,63.5,262.5z M71.8,262.5
		c0.5,0,0.8-0.2,1-0.6l0.9-2.2h5.5l0.9,2.2c0.2,0.4,0.5,0.6,1,0.6s1-0.4,1-1c0-0.2,0-0.4-0.1-0.7l-3.5-8.5c-0.4-1.1-1-1.6-1.9-1.6
		s-1.5,0.5-1.9,1.6l-3.5,8.5c-0.1,0.3-0.1,0.5-0.1,0.7C70.8,262.1,71.3,262.5,71.8,262.5z M74.4,257.8l2-5l2,5H74.4z M88.8,262.5
		c1.9,0,3.3-0.6,4.4-1.8c0.4-0.4,0.7-1.1,0.7-1.5c0-0.5-0.4-1-0.9-1c-0.3,0-0.6,0.1-1,0.5c-0.7,1.1-1.7,1.7-3.1,1.7
		c-2.1,0-3.6-1.6-3.6-3.8c0-2.2,1.5-3.8,3.6-3.8c1.4,0,2.4,0.6,3.1,1.7c0.3,0.4,0.6,0.6,1,0.6c0.5,0,0.9-0.4,0.9-1
		c0-0.5-0.3-1.1-0.7-1.6c-1-1.2-2.5-1.7-4.3-1.7c-3.3,0-5.7,2.4-5.7,5.9C83.1,260.1,85.4,262.5,88.8,262.5z M100.2,262.5
		c0.6,0,1-0.4,1-1v-8.4h2.8c0.6,0,1-0.4,1-1c0-0.6-0.4-1-1-1h-7.6c-0.6,0-1,0.4-1,1c0,0.6,0.4,1,1,1h2.8v8.4
		C99.2,262.1,99.6,262.5,100.2,262.5z M111.3,262.5c2.6,0,4.3-1.3,4.3-3.5c0-2.1-1.4-2.8-3-3.2l-2-0.4c-1-0.2-1.6-0.5-1.6-1.4
		c0-0.9,0.8-1.3,2-1.3c1.4,0,2.2,0.6,2.8,1.4c0.3,0.3,0.6,0.5,1,0.5c0.6,0,0.9-0.4,0.9-1c0-0.6-0.4-1.4-1.1-1.8
		c-0.8-0.5-1.9-1-3.3-1c-2.6,0-4.2,1.3-4.2,3.4c0,1.9,1.2,2.8,3.1,3.2l2.1,0.4c0.9,0.2,1.5,0.5,1.5,1.4s-0.8,1.4-2,1.4
		c-1.6,0-2.5-0.6-3.2-1.6c-0.2-0.2-0.5-0.4-0.7-0.4c-0.5,0-1,0.4-1,1c0,0.7,0.5,1.4,1.1,1.9C108.5,262.1,109.6,262.5,111.3,262.5z"
		/>
</g>
<g>
	<path class="st5" d="M245,176.8h46c30.7,0,55.5,24.8,55.5,55.5l0,0c0,30.7-24.8,55.5-55.5,55.5h-46c-30.7,0-55.5-24.8-55.5-55.5
		l0,0C189.5,201.6,214.3,176.8,245,176.8z"/>
	<path class="st0" d="M291,289.3h-46c-31.4,0-57-25.6-57-57s25.6-57,57-57h46c31.4,0,57,25.6,57,57S322.4,289.3,291,289.3z
		 M245,178.3c-29.8,0-54,24.2-54,54s24.2,54,54,54h46c29.8,0,54-24.2,54-54s-24.2-54-54-54H245z"/>
</g>
<g>
	<path class="st2" d="M233.1,226.5c0.6,0,1-0.4,1-1v-3.2h2.7c2.3,0,4.1-1.4,4.1-3.6c0-2.2-1.8-3.6-4.1-3.6h-3.7c-0.6,0-1,0.4-1,1
		v9.4C232.1,226.1,232.5,226.5,233.1,226.5z M234.2,220.4v-3.5h2.8c1.1,0,1.9,0.7,1.9,1.7s-0.8,1.7-1.9,1.7h-2.8V220.4z
		 M247.8,226.5c2.9,0,4.7-1.9,4.7-4.6v-6c0-0.6-0.4-1-1-1s-1,0.4-1,1v5.8c0,1.7-1,2.8-2.7,2.8c-1.6,0-2.6-1.1-2.6-2.8v-5.8
		c0-0.6-0.4-1-1-1s-1,0.4-1,1v6C243.2,224.7,245,226.5,247.8,226.5z M256.7,226.3L256.7,226.3h4.1c2.3,0,3.8-1.3,3.8-3.3
		c0-1.1-0.6-2-1.7-2.4c1.1-0.4,1.6-1.2,1.6-2.3c0-2-1.5-3.2-3.8-3.2h-4.1c-0.6,0-1,0.4-1,1v9.2C255.7,225.9,256.1,226.3,256.7,226.3
		z M257.7,224.4v-3h3c1.1,0,1.8,0.6,1.8,1.5c0,1-0.7,1.5-1.8,1.5H257.7z M257.7,219.7V217h2.9c1.1,0,1.7,0.5,1.7,1.4
		c0,0.8-0.6,1.3-1.7,1.3C260.6,219.7,257.7,219.7,257.7,219.7z M268.6,226.3h5.7c0.6,0,1-0.4,1-1s-0.4-1-1-1h-4.7v-8.4
		c0-0.6-0.4-1-1-1s-1,0.4-1,1v9.4C267.5,225.9,268,226.3,268.6,226.3z M278.6,226.5c0.6,0,1-0.4,1-1V216c0-0.6-0.4-1-1-1s-1,0.4-1,1
		v9.5C277.6,226.1,278,226.5,278.6,226.5z M287.2,226.5c2.6,0,4.3-1.3,4.3-3.5c0-2.1-1.4-2.8-3-3.2l-2-0.4c-1-0.2-1.6-0.5-1.6-1.4
		c0-0.9,0.8-1.3,2-1.3c1.4,0,2.2,0.6,2.8,1.4c0.3,0.3,0.6,0.5,1,0.5c0.6,0,0.9-0.4,0.9-1c0-0.6-0.4-1.4-1.1-1.8
		c-0.8-0.5-1.9-1-3.3-1c-2.6,0-4.2,1.3-4.2,3.4c0,1.9,1.2,2.8,3.1,3.2l2.1,0.4c0.9,0.2,1.5,0.5,1.5,1.4c0,0.9-0.8,1.4-2,1.4
		c-1.6,0-2.5-0.6-3.2-1.6c-0.2-0.2-0.5-0.4-0.7-0.4c-0.5,0-1,0.4-1,1c0,0.7,0.5,1.4,1.1,1.9C284.4,226.1,285.5,226.5,287.2,226.5z
		 M302.9,226.5c0.6,0,1-0.4,1-1V216c0-0.6-0.4-1-1-1s-1,0.4-1,1v3.8h-5.5V216c0-0.6-0.4-1-1-1s-1,0.4-1,1v9.5c0,0.6,0.4,1,1,1
		s1-0.4,1-1v-3.9h5.5v3.9C301.8,226.1,302.2,226.5,302.9,226.5z M218.1,250.5c2.6,0,4.3-1.3,4.3-3.5c0-2.1-1.4-2.8-3-3.2l-2-0.4
		c-1-0.2-1.6-0.5-1.6-1.4c0-0.9,0.8-1.3,2-1.3c1.4,0,2.2,0.6,2.8,1.4c0.3,0.3,0.6,0.5,1,0.5c0.6,0,0.9-0.4,0.9-1
		c0-0.6-0.4-1.4-1.1-1.8c-0.8-0.5-1.9-1-3.3-1c-2.6,0-4.2,1.3-4.2,3.4c0,1.9,1.2,2.8,3.1,3.2l2.1,0.4c0.9,0.2,1.5,0.5,1.5,1.4
		c0,0.9-0.8,1.4-2,1.4c-1.6,0-2.5-0.6-3.2-1.6c-0.2-0.2-0.5-0.4-0.7-0.4c-0.5,0-1,0.4-1,1c0,0.7,0.5,1.4,1.1,1.9
		C215.4,250.1,216.5,250.5,218.1,250.5z M226.3,250.5c0.6,0,1-0.4,1-1V240c0-0.6-0.4-1-1-1s-1,0.4-1,1v9.5
		C225.3,250.1,225.7,250.5,226.3,250.5z M236,250.5c3.1,0,5.3-1.9,5.3-5.4c0-0.8-0.5-1.1-1.1-1.1h-4.3c-0.5,0-1,0.3-1,1
		c0,0.5,0.4,0.9,1,0.9h3.3c-0.1,1.7-1.3,2.6-3.2,2.6c-2.3,0-3.8-1.6-3.8-3.9s1.5-3.9,3.7-3.9c1.5,0,2.4,0.6,3.1,1.4
		c0.3,0.3,0.6,0.4,1,0.4c0.5,0,0.9-0.3,0.9-0.9c0-0.6-0.5-1.4-1.2-1.9c-0.9-0.6-2.1-1.1-3.7-1.1c-3.4,0-5.9,2.4-5.9,5.9
		C230.2,248.1,232.5,250.5,236,250.5z M245.1,250.5c0.6,0,1-0.4,1-1v-7l5,7.2c0.5,0.7,0.9,0.9,1.4,0.9c0.7,0,1.2-0.5,1.2-1.3V240
		c0-0.6-0.4-1-1-1s-1,0.4-1,1v7.2l-4.9-7.2c-0.5-0.8-0.9-1-1.4-1c-0.7,0-1.2,0.5-1.2,1.3v9.3C244.1,250.1,244.5,250.5,245.1,250.5z
		 M256.7,250.5c0.5,0,0.8-0.2,1-0.6l0.9-2.2h5.5l0.9,2.2c0.2,0.4,0.5,0.6,1,0.6s1-0.4,1-1c0-0.2,0-0.4-0.1-0.7l-3.5-8.5
		c-0.4-1.1-1-1.6-1.9-1.6c-1,0-1.5,0.5-1.9,1.6l-3.5,8.5c-0.1,0.3-0.1,0.5-0.1,0.7C255.7,250.1,256.2,250.5,256.7,250.5z
		 M259.3,245.8l2-5l2,5H259.3z M271.6,250.5c0.6,0,1-0.4,1-1v-8.4h2.8c0.6,0,1-0.4,1-1c0-0.6-0.4-1-1-1h-7.6c-0.6,0-1,0.4-1,1
		c0,0.6,0.4,1,1,1h2.8v8.4C270.6,250.1,271,250.5,271.6,250.5z M283.2,250.5c2.9,0,4.7-1.9,4.7-4.6v-6c0-0.6-0.4-1-1-1s-1,0.4-1,1
		v5.8c0,1.7-1,2.8-2.7,2.8c-1.6,0-2.6-1.1-2.6-2.8v-5.8c0-0.6-0.4-1-1-1s-1,0.4-1,1v6C278.5,248.7,280.3,250.5,283.2,250.5z
		 M292,250.5c0.6,0,1-0.4,1-1v-3.2h2.4l2.6,3.8c0.2,0.3,0.5,0.5,0.9,0.5c0.5,0,1-0.4,1-0.9c0-0.2-0.1-0.5-0.3-0.8l-2-2.9
		c1.3-0.5,2.2-1.7,2.2-3.3c0-2.1-1.7-3.6-3.9-3.6H292c-0.6,0-1,0.4-1,1v9.4C291,250.1,291.4,250.5,292,250.5z M293,244.3V241h2.9
		c1.1,0,1.8,0.7,1.8,1.7s-0.7,1.7-1.8,1.7H293V244.3z M303.9,250.3h6.1c0.6,0,1-0.4,1-1c0-0.6-0.4-1-1-1h-5.1v-2.8h4.5
		c0.5,0,1-0.4,1-0.9s-0.4-0.9-1-0.9h-4.5v-2.6h5.1c0.6,0,1-0.4,1-1c0-0.6-0.4-1-1-1h-6.1c-0.6,0-1,0.4-1,1v9.2
		C302.9,249.9,303.3,250.3,303.9,250.3z M318.2,250.5c2.6,0,4.3-1.3,4.3-3.5c0-2.1-1.4-2.8-3-3.2l-2-0.4c-1-0.2-1.6-0.5-1.6-1.4
		c0-0.9,0.8-1.3,2-1.3c1.4,0,2.2,0.6,2.8,1.4c0.3,0.3,0.6,0.5,1,0.5c0.6,0,0.9-0.4,0.9-1c0-0.6-0.4-1.4-1.1-1.8
		c-0.8-0.5-1.9-1-3.3-1c-2.6,0-4.2,1.3-4.2,3.4c0,1.9,1.2,2.8,3.1,3.2l2.1,0.4c0.9,0.2,1.5,0.5,1.5,1.4c0,0.9-0.8,1.4-2,1.4
		c-1.6,0-2.5-0.6-3.2-1.6c-0.2-0.2-0.5-0.4-0.7-0.4c-0.5,0-1,0.4-1,1c0,0.7,0.5,1.4,1.1,1.9C315.5,250.1,316.6,250.5,318.2,250.5z"
		/>
</g>
<g>
	<path class="st5" d="M446,176.8h46c30.7,0,55.5,24.8,55.5,55.5l0,0c0,30.7-24.8,55.5-55.5,55.5h-46c-30.7,0-55.5-24.8-55.5-55.5
		l0,0C390.5,201.6,415.3,176.8,446,176.8z"/>
	<path class="st0" d="M492,289.3h-46c-31.4,0-57-25.6-57-57s25.6-57,57-57h46c31.4,0,57,25.6,57,57S523.4,289.3,492,289.3z
		 M446,178.3c-29.8,0-54,24.2-54,54s24.2,54,54,54h46c29.8,0,54-24.2,54-54s-24.2-54-54-54H446z"/>
</g>
<g>
	<path class="st2" d="M429.8,226.5c0.6,0,1-0.5,1-1.1v-6.9l2.7,5.1c0.4,0.8,0.7,1.1,1.3,1.1s0.9-0.3,1.3-1.1l2.7-5.1v6.9
		c0,0.6,0.4,1.1,1,1.1s1-0.4,1-1.1v-9.2c0-0.9-0.5-1.4-1.3-1.4c-0.7,0-1,0.3-1.4,1l-3.3,6.3l-3.3-6.3c-0.4-0.7-0.7-1-1.4-1
		s-1.3,0.5-1.3,1.4v9.2C428.8,226,429.3,226.5,429.8,226.5z M449.4,226.5c3.4,0,5.8-2.4,5.8-5.9c0-3.4-2.4-5.9-5.8-5.9
		c-3.4,0-5.8,2.4-5.8,5.9C443.6,224.1,446,226.5,449.4,226.5z M445.7,220.7c0-2.3,1.6-3.8,3.7-3.8c2.2,0,3.7,1.6,3.7,3.8
		c0,2.3-1.5,3.8-3.7,3.8C447.3,224.5,445.7,222.9,445.7,220.7z M459.1,226.5c0.6,0,1-0.4,1-1v-7l5,7.2c0.5,0.7,0.9,0.9,1.4,0.9
		c0.7,0,1.2-0.5,1.2-1.3V216c0-0.6-0.4-1-1-1s-1,0.4-1,1v7.2l-4.9-7.2c-0.5-0.8-0.9-1-1.4-1c-0.7,0-1.2,0.5-1.2,1.3v9.3
		C458,226.1,458.4,226.5,459.1,226.5z M472,226.5c0.6,0,1-0.4,1-1V216c0-0.6-0.4-1-1-1s-1,0.4-1,1v9.5
		C471,226.1,471.4,226.5,472,226.5z M480.1,226.5c0.6,0,1-0.4,1-1v-8.4h2.8c0.6,0,1-0.4,1-1c0-0.6-0.4-1-1-1h-7.6c-0.6,0-1,0.4-1,1
		c0,0.6,0.4,1,1,1h2.8v8.4C479.1,226.1,479.5,226.5,480.1,226.5z M492,226.5c3.4,0,5.8-2.4,5.8-5.9c0-3.4-2.4-5.9-5.8-5.9
		s-5.8,2.4-5.8,5.9S488.6,226.5,492,226.5z M488.3,220.7c0-2.3,1.6-3.8,3.7-3.8c2.2,0,3.7,1.6,3.7,3.8c0,2.3-1.5,3.8-3.7,3.8
		S488.3,222.9,488.3,220.7z M501.6,226.5c0.6,0,1-0.4,1-1v-3.2h2.4l2.6,3.8c0.2,0.3,0.5,0.5,0.9,0.5c0.5,0,1-0.4,1-0.9
		c0-0.2-0.1-0.5-0.3-0.8l-2-2.9c1.3-0.5,2.2-1.7,2.2-3.3c0-2.1-1.7-3.6-3.9-3.6h-3.9c-0.6,0-1,0.4-1,1v9.4
		C500.6,226.1,501,226.5,501.6,226.5z M502.6,220.3V217h2.9c1.1,0,1.8,0.7,1.8,1.7s-0.7,1.7-1.8,1.7h-2.9V220.3z M447.6,250.3h5.7
		c0.6,0,1-0.4,1-1c0-0.6-0.4-1-1-1h-4.7v-8.4c0-0.6-0.4-1-1-1s-1,0.4-1,1v9.4C446.6,249.9,447,250.3,447.6,250.3z M461.4,250.5
		c3.4,0,5.8-2.4,5.8-5.9c0-3.4-2.4-5.9-5.8-5.9c-3.4,0-5.8,2.4-5.8,5.9C455.6,248.1,458,250.5,461.4,250.5z M457.7,244.7
		c0-2.3,1.6-3.8,3.7-3.8c2.2,0,3.7,1.6,3.7,3.8c0,2.3-1.5,3.8-3.7,3.8S457.7,246.9,457.7,244.7z M475.3,250.5c3.1,0,5.3-1.9,5.3-5.4
		c0-0.8-0.5-1.1-1.1-1.1h-4.3c-0.5,0-1,0.3-1,1c0,0.5,0.4,0.9,1,0.9h3.3c-0.1,1.7-1.3,2.6-3.2,2.6c-2.3,0-3.8-1.6-3.8-3.9
		s1.5-3.9,3.7-3.9c1.5,0,2.4,0.6,3.1,1.4c0.3,0.3,0.6,0.4,1,0.4c0.5,0,0.9-0.3,0.9-0.9c0-0.6-0.5-1.4-1.2-1.9
		c-0.9-0.6-2.1-1.1-3.7-1.1c-3.4,0-5.9,2.4-5.9,5.9C469.5,248.1,471.8,250.5,475.3,250.5z M487.5,250.5c2.6,0,4.3-1.3,4.3-3.5
		c0-2.1-1.4-2.8-3-3.2l-2-0.4c-1-0.2-1.6-0.5-1.6-1.4c0-0.9,0.8-1.3,2-1.3c1.4,0,2.2,0.6,2.8,1.4c0.3,0.3,0.6,0.5,1,0.5
		c0.6,0,0.9-0.4,0.9-1c0-0.6-0.4-1.4-1.1-1.8c-0.8-0.5-1.9-1-3.3-1c-2.6,0-4.2,1.3-4.2,3.4c0,1.9,1.2,2.8,3.1,3.2l2.1,0.4
		c0.9,0.2,1.5,0.5,1.5,1.4c0,0.9-0.8,1.4-2,1.4c-1.6,0-2.5-0.6-3.2-1.6c-0.2-0.2-0.5-0.4-0.7-0.4c-0.5,0-1,0.4-1,1
		c0,0.7,0.5,1.4,1.1,1.9C484.8,250.1,485.9,250.5,487.5,250.5z"/>
</g>
<g>
	<circle class="st5" cx="280.5" cy="15.8" r="26"/>
	<path class="st2" d="M280.5,43.3C265.3,43.3,253,31,253,15.8s12.3-27.5,27.5-27.5S308,0.6,308,15.8S295.7,43.3,280.5,43.3z
		 M280.5-8.7C267-8.7,256,2.3,256,15.8s11,24.5,24.5,24.5s24.5-11,24.5-24.5S294-8.7,280.5-8.7z"/>
</g>
<g>
	<path class="st2" d="M283.2,26.7c-0.6,0-1-0.4-1-1c0-3.9-3.2-7.1-7.1-7.1s-7.1,3.2-7.1,7.1c0,0.6-0.4,1-1,1s-1-0.4-1-1
		c0-5,4.1-9.1,9.1-9.1s9.1,4.1,9.1,9.1C284.2,26.3,283.8,26.7,283.2,26.7z"/>
</g>
<g>
	<path class="st2" d="M276.8,9.2c-2.5,0-4.9-1-6.7-2.8c-0.4-0.4-0.4-1,0-1.4s1-0.4,1.4,0c2.1,2.1,5.3,2.8,8.1,1.6
		c0.5-0.2,1.1,0,1.3,0.5c0.2,0.5,0,1.1-0.5,1.3C279.2,9,278,9.2,276.8,9.2z"/>
</g>
<g>
	<path class="st2" d="M275.1,14.2c-3.3,0-6-2.7-6-6s2.7-6,6-6s6,2.7,6,6S278.4,14.2,275.1,14.2z M275.1,4.3c-2.2,0-4,1.8-4,4
		s1.8,4,4,4s4-1.8,4-4S277.3,4.3,275.1,4.3z"/>
</g>
<g>
	<path class="st2" d="M285.9,14.2c-1.1,0-2.2-0.3-3.2-1c-0.5-0.3-0.6-0.9-0.3-1.4c0.3-0.5,0.9-0.6,1.4-0.3c1.6,1.1,3.9,0.8,5.1-0.7
		c1.3-1.5,1.3-3.7,0-5.2s-3.5-1.8-5.1-0.7c-0.5,0.3-1.1,0.2-1.4-0.3s-0.2-1.1,0.3-1.4c2.5-1.6,5.8-1.1,7.7,1.1
		c1.9,2.2,1.9,5.6,0,7.8C289.2,13.5,287.6,14.2,285.9,14.2z"/>
</g>
<g>
	<path class="st2" d="M294,26.7c-0.6,0-1-0.4-1-1c0-2.2-1-4.2-2.7-5.6c-1.7-1.4-3.9-1.9-6-1.4c-0.5,0.1-1.1-0.2-1.2-0.8
		s0.2-1.1,0.8-1.2c2.7-0.6,5.5,0,7.7,1.8c2.2,1.7,3.4,4.3,3.4,7.1C295,26.3,294.6,26.7,294,26.7L294,26.7z"/>
</g>
<g>
	<path class="st2" d="M287.5,9.2c-1.7,0-3.4-0.5-4.9-1.4c-0.5-0.3-0.6-0.9-0.3-1.4c0.3-0.5,0.9-0.6,1.4-0.3c1.1,0.7,2.5,1.1,3.8,1.1
		l0,0c1,0,1.9-0.2,2.9-0.6c0.5-0.2,1.1,0,1.3,0.5c0.2,0.5,0,1.1-0.5,1.3C290,9,288.8,9.2,287.5,9.2C287.6,9.2,287.5,9.2,287.5,9.2z"
		/>
</g>
</svg>
