<?xml version="1.0" encoding="utf-8"?>
<!-- Generator: Adobe Illustrator 19.1.0, SVG Export Plug-In . SVG Version: 6.00 Build 0)  -->
<svg version="1.1" xmlns="http://www.w3.org/2000/svg" xmlns:xlink="http://www.w3.org/1999/xlink" x="0px" y="0px"
	 viewBox="530 -909 1360 2018" style="enable-background:new 530 -909 1360 2018;" xml:space="preserve">
<style type="text/css">
	.st0{fill:#FFFFFF;}
	.st1{fill:#444444;}
	.st2{fill:#FFC398;}
	.st3{fill:#DDEFF1;}
	.st4{opacity:0.8;fill:#FFFFFF;}
	.st5{display:none;}
	.st6{display:inline;opacity:0.85;fill:#FFFFFF;}
</style>
<g id="MAIN">
	<g>
		<path class="st0" d="M530-909h1360v2018H530V-909z"/>
	</g>
	<g>
		<path class="st1" d="M1139,526.7l-9.5-9.5c-0.6-0.6-0.6-1.5,0-2.1l9.5-9.6c0.6-0.6,1.5-0.6,2.1,0c0.6,0.6,0.6,1.5,0,2.1l-7.6,7.6
			v1.8l7.6,7.6c0.6,0.6,0.6,1.5,0,2.1C1140.5,527.2,1139.6,527.2,1139,526.7z"/>
	</g>
	<g>
		<path class="st2" d="M1097,907.5h227c10.2,0,18.5,8.3,18.5,18.5v120c0,10.2-8.3,18.5-18.5,18.5h-227c-10.2,0-18.5-8.3-18.5-18.5
			V926C1078.5,915.8,1086.8,907.5,1097,907.5z"/>
		<path class="st1" d="M1324,1066h-227c-11,0-20-9-20-20V926c0-11,9-20,20-20h227c11,0,20,9,20,20v120
			C1344,1057,1335,1066,1324,1066z M1097,909c-9.4,0-17,7.6-17,17v120c0,9.4,7.6,17,17,17h227c9.4,0,17-7.6,17-17V926
			c0-9.4-7.6-17-17-17H1097z"/>
	</g>
	<g>
		<path class="st1" d="M1151.5,993h7.6c0.7,0,1.3-0.5,1.3-1.2s-0.5-1.2-1.3-1.2h-6.4v-3.4h5.7c0.7,0,1.2-0.5,1.2-1.2
			c0-0.7-0.5-1.2-1.2-1.2h-5.7v-3.3h6.3c0.7,0,1.3-0.5,1.3-1.2c0-0.7-0.5-1.2-1.3-1.2h-7.6c-0.8,0-1.3,0.5-1.3,1.3v11.5
			C1150.2,992.5,1150.8,993,1151.5,993z M1165.4,993.2c0.8,0,1.3-0.5,1.3-1.3v-8.8l6.2,8.9c0.6,0.8,1.1,1.1,1.7,1.1
			c0.9,0,1.5-0.6,1.5-1.6V980c0-0.8-0.5-1.3-1.3-1.3c-0.7,0-1.3,0.5-1.3,1.3v9l-6.2-9c-0.7-0.9-1.1-1.2-1.7-1.2
			c-0.9,0-1.5,0.7-1.5,1.6v11.6C1164.2,992.7,1164.7,993.2,1165.4,993.2z M1181.6,993h4.5c4.1,0,6.8-2.9,6.8-7c0-4.1-2.7-7-6.8-7
			h-4.5c-0.8,0-1.3,0.5-1.3,1.3v11.5C1180.3,992.5,1180.9,993,1181.6,993z M1182.9,990.5v-9.1h3.3c2.5,0,4.2,1.9,4.2,4.6
			c0,2.7-1.7,4.6-4.2,4.6H1182.9z M1208.1,993.3c3.6,0,5.9-2.3,5.9-5.8V980c0-0.8-0.5-1.3-1.3-1.3c-0.7,0-1.2,0.5-1.2,1.3v7.3
			c0,2.1-1.3,3.5-3.3,3.5c-2,0-3.3-1.4-3.3-3.5V980c0-0.8-0.5-1.3-1.2-1.3c-0.8,0-1.3,0.5-1.3,1.3v7.5
			C1202.3,991,1204.6,993.3,1208.1,993.3z M1223.1,993.3c3.2,0,5.3-1.7,5.3-4.4c0-2.6-1.7-3.5-3.7-4l-2.5-0.5
			c-1.3-0.3-2.1-0.6-2.1-1.7c0-1.1,1-1.7,2.4-1.7c1.7,0,2.8,0.7,3.4,1.8c0.4,0.3,0.7,0.6,1.2,0.6c0.7,0,1.1-0.5,1.1-1.2
			c0-0.8-0.5-1.7-1.4-2.3c-1-0.6-2.3-1.2-4.1-1.2c-3.2,0-5.3,1.7-5.3,4.2c0,2.4,1.5,3.5,3.8,4l2.6,0.5c1.1,0.2,1.8,0.7,1.8,1.8
			c0,1.1-0.9,1.8-2.5,1.8c-2,0-3.1-0.7-4-2.1c-0.3-0.3-0.6-0.5-0.9-0.5c-0.7,0-1.2,0.6-1.2,1.2c0,0.8,0.6,1.8,1.4,2.4
			C1219.6,992.8,1221,993.3,1223.1,993.3z M1233.3,993h7.6c0.7,0,1.3-0.5,1.3-1.2s-0.5-1.2-1.3-1.2h-6.4v-3.4h5.7
			c0.7,0,1.2-0.5,1.2-1.2c0-0.7-0.5-1.2-1.2-1.2h-5.7v-3.3h6.3c0.7,0,1.3-0.5,1.3-1.2c0-0.7-0.5-1.2-1.3-1.2h-7.6
			c-0.8,0-1.3,0.5-1.3,1.3v11.5C1232.1,992.5,1232.6,993,1233.3,993z M1247.2,993.2c0.8,0,1.3-0.5,1.3-1.3v-4.1h3.1l3.2,4.8
			c0.2,0.3,0.6,0.6,1.1,0.6c0.7,0,1.2-0.5,1.2-1.1c0-0.3-0.1-0.6-0.3-1l-2.5-3.7c1.7-0.7,2.7-2.1,2.7-4.1c0-2.7-2.1-4.5-4.9-4.5
			h-4.8c-0.8,0-1.3,0.5-1.3,1.3v11.7C1246,992.7,1246.5,993.2,1247.2,993.2z M1248.5,985.5v-4.1h3.6c1.3,0,2.2,0.8,2.2,2.1
			c0,1.3-0.9,2.1-2.2,2.1H1248.5z M1265.9,993.3c3.2,0,5.3-1.7,5.3-4.4c0-2.6-1.7-3.5-3.7-4l-2.5-0.5c-1.3-0.3-2-0.6-2-1.7
			c0-1.1,1-1.7,2.4-1.7c1.7,0,2.8,0.7,3.4,1.8c0.4,0.3,0.7,0.6,1.2,0.6c0.7,0,1.1-0.5,1.1-1.2c0-0.8-0.5-1.7-1.4-2.3
			c-1-0.6-2.3-1.2-4.1-1.2c-3.2,0-5.3,1.7-5.3,4.2c0,2.4,1.5,3.5,3.8,4l2.6,0.5c1.1,0.2,1.8,0.7,1.8,1.8c0,1.1-0.9,1.8-2.5,1.8
			c-2,0-3.1-0.7-4-2.1c-0.3-0.3-0.6-0.5-0.9-0.5c-0.7,0-1.2,0.6-1.2,1.2c0,0.8,0.6,1.8,1.4,2.4
			C1262.5,992.8,1263.9,993.3,1265.9,993.3z"/>
	</g>
	<g>
		<path class="st2" d="M602,199.5h227c10.2,0,18.5,8.3,18.5,18.5v120c0,10.2-8.3,18.5-18.5,18.5H602c-10.2,0-18.5-8.3-18.5-18.5V218
			C583.5,207.8,591.8,199.5,602,199.5z"/>
		<path class="st1" d="M829,358H602c-11,0-20-9-20-20V218c0-11,9-20,20-20h227c11,0,20,9,20,20v120C849,349,840,358,829,358z
			 M602,201c-9.4,0-17,7.6-17,17v120c0,9.4,7.6,17,17,17h227c9.4,0,17-7.6,17-17V218c0-9.4-7.6-17-17-17H602z"/>
	</g>
	<g>
		<path class="st1" d="M659.5,285.2c0.7,0,1.3-0.6,1.3-1.3v-8.6l3.3,6.4c0.5,1,0.9,1.4,1.7,1.4c0.8,0,1.1-0.4,1.7-1.4l3.3-6.4v8.6
			c0,0.8,0.5,1.3,1.2,1.3c0.7,0,1.3-0.5,1.3-1.3v-11.5c0-1.1-0.7-1.7-1.6-1.7c-0.8,0-1.3,0.4-1.8,1.3l-4.1,7.8l-4.1-7.8
			c-0.5-0.9-0.9-1.3-1.7-1.3c-0.9,0-1.6,0.6-1.6,1.7v11.5C658.3,284.7,658.8,285.2,659.5,285.2z M684,285.3c4.2,0,7.2-3,7.2-7.3
			c0-4.3-3-7.3-7.2-7.3c-4.2,0-7.2,3-7.2,7.3C676.8,282.3,679.8,285.3,684,285.3z M679.4,278c0-2.8,1.9-4.8,4.6-4.8
			c2.7,0,4.6,1.9,4.6,4.8c0,2.8-1.9,4.8-4.6,4.8C681.3,282.8,679.4,280.8,679.4,278z M696,285.2c0.8,0,1.3-0.5,1.3-1.3v-8.8l6.2,8.9
			c0.6,0.8,1.1,1.1,1.7,1.1c0.9,0,1.5-0.6,1.5-1.6V272c0-0.8-0.5-1.3-1.3-1.3c-0.7,0-1.3,0.5-1.3,1.3v9l-6.2-9
			c-0.7-0.9-1.1-1.2-1.7-1.2c-0.9,0-1.5,0.7-1.5,1.6v11.6C694.8,284.7,695.3,285.2,696,285.2z M712.2,285.2c0.8,0,1.3-0.5,1.3-1.3
			V272c0-0.8-0.5-1.3-1.3-1.3c-0.8,0-1.3,0.5-1.3,1.3v11.9C711,284.7,711.5,285.2,712.2,285.2z M722.4,285.2c0.8,0,1.3-0.5,1.3-1.3
			v-10.5h3.5c0.7,0,1.3-0.5,1.3-1.2c0-0.7-0.5-1.2-1.3-1.2h-9.5c-0.7,0-1.3,0.5-1.3,1.2c0,0.7,0.5,1.2,1.3,1.2h3.5v10.5
			C721.1,284.7,721.6,285.2,722.4,285.2z M737.2,285.3c4.2,0,7.2-3,7.2-7.3c0-4.3-3-7.3-7.2-7.3c-4.2,0-7.2,3-7.2,7.3
			C730,282.3,733,285.3,737.2,285.3z M732.6,278c0-2.8,1.9-4.8,4.6-4.8c2.7,0,4.6,1.9,4.6,4.8c0,2.8-1.9,4.8-4.6,4.8
			C734.5,282.8,732.6,280.8,732.6,278z M749.2,285.2c0.8,0,1.3-0.5,1.3-1.3v-4.1h3.1l3.2,4.8c0.2,0.3,0.6,0.6,1.1,0.6
			c0.7,0,1.2-0.5,1.2-1.1c0-0.3-0.1-0.6-0.3-1l-2.5-3.7c1.7-0.7,2.7-2.1,2.7-4.1c0-2.7-2.1-4.5-4.9-4.5h-4.8c-0.8,0-1.3,0.5-1.3,1.3
			v11.7C748,284.7,748.5,285.2,749.2,285.2z M750.5,277.5v-4.1h3.6c1.3,0,2.2,0.8,2.2,2.1c0,1.3-0.9,2.1-2.2,2.1H750.5z
			 M767.9,285.3c3.2,0,5.3-1.7,5.3-4.4c0-2.6-1.7-3.5-3.7-4l-2.5-0.5c-1.3-0.3-2.1-0.6-2.1-1.7c0-1.1,1-1.7,2.4-1.7
			c1.7,0,2.8,0.7,3.4,1.8c0.4,0.3,0.7,0.6,1.2,0.6c0.7,0,1.1-0.5,1.1-1.2c0-0.8-0.5-1.7-1.4-2.3c-1-0.6-2.3-1.2-4.1-1.2
			c-3.2,0-5.3,1.7-5.3,4.2c0,2.4,1.5,3.5,3.8,4l2.6,0.5c1.1,0.2,1.8,0.7,1.8,1.8c0,1.1-0.9,1.8-2.5,1.8c-2,0-3.1-0.7-4-2.1
			c-0.3-0.3-0.6-0.5-0.9-0.5c-0.7,0-1.2,0.6-1.2,1.2c0,0.8,0.6,1.8,1.4,2.4C764.5,284.8,765.9,285.3,767.9,285.3z"/>
	</g>
	<g>
		<path class="st3" d="M1097-279.5h227c10.2,0,18.5,8.3,18.5,18.5v120c0,10.2-8.3,18.5-18.5,18.5h-227c-10.2,0-18.5-8.3-18.5-18.5
			v-120C1078.5-271.2,1086.8-279.5,1097-279.5z"/>
		<path class="st1" d="M1324-121h-227c-11,0-20-9-20-20v-120c0-11,9-20,20-20h227c11,0,20,9,20,20v120C1344-130,1335-121,1324-121z
			 M1097-278c-9.4,0-17,7.6-17,17v120c0,9.4,7.6,17,17,17h227c9.4,0,17-7.6,17-17v-120c0-9.4-7.6-17-17-17H1097z"/>
	</g>
	<g>
		<path class="st1" d="M1157.4-223.7c2.3,0,4.2-0.8,5.4-2.3c0.5-0.6,0.8-1.4,0.8-1.9c0-0.7-0.5-1.2-1.2-1.2c-0.4,0-0.8,0.2-1.2,0.7
			c-0.8,1.4-2.1,2.2-3.9,2.2c-2.6,0-4.5-2-4.5-4.8c0-2.8,1.8-4.8,4.5-4.8c1.8,0,3.1,0.7,3.9,2.1c0.4,0.5,0.8,0.7,1.2,0.7
			c0.7,0,1.2-0.6,1.2-1.2c0-0.6-0.4-1.4-0.9-2c-1.3-1.5-3.1-2.2-5.4-2.2c-4.2,0-7.1,3-7.1,7.3
			C1150.3-226.7,1153.2-223.7,1157.4-223.7z M1173.5-223.7c4.2,0,7.2-3,7.2-7.3c0-4.3-3-7.3-7.2-7.3c-4.2,0-7.2,3-7.2,7.3
			C1166.3-226.7,1169.3-223.7,1173.5-223.7z M1168.9-231c0-2.8,1.9-4.8,4.6-4.8c2.7,0,4.6,1.9,4.6,4.8c0,2.8-1.9,4.8-4.6,4.8
			C1170.8-226.2,1168.9-228.2,1168.9-231z M1185.5-224h4.5c4.1,0,6.8-2.9,6.8-7c0-4.1-2.7-7-6.8-7h-4.5c-0.8,0-1.3,0.5-1.3,1.3v11.5
			C1184.3-224.5,1184.8-224,1185.5-224z M1186.8-226.5v-9.1h3.3c2.5,0,4.2,1.9,4.2,4.6c0,2.7-1.6,4.6-4.2,4.6H1186.8z M1201.7-224
			h7.6c0.7,0,1.3-0.5,1.3-1.2s-0.5-1.2-1.3-1.2h-6.4v-3.4h5.7c0.7,0,1.2-0.5,1.2-1.2c0-0.7-0.5-1.2-1.2-1.2h-5.7v-3.3h6.3
			c0.7,0,1.3-0.5,1.3-1.2c0-0.7-0.5-1.2-1.3-1.2h-7.6c-0.8,0-1.3,0.5-1.3,1.3v11.5C1200.4-224.5,1200.9-224,1201.7-224z
			 M1225.6-223.7c3.2,0,5.3-1.7,5.3-4.4c0-2.6-1.7-3.5-3.7-4l-2.5-0.6c-1.3-0.3-2.1-0.6-2.1-1.7c0-1.1,1-1.7,2.4-1.7
			c1.7,0,2.8,0.7,3.4,1.8c0.4,0.4,0.7,0.6,1.2,0.6c0.7,0,1.1-0.5,1.1-1.2c0-0.8-0.5-1.7-1.4-2.3c-1-0.6-2.3-1.2-4.1-1.2
			c-3.2,0-5.3,1.6-5.3,4.2c0,2.4,1.5,3.5,3.8,4l2.6,0.5c1.1,0.2,1.8,0.7,1.8,1.8c0,1.1-0.9,1.8-2.5,1.8c-2,0-3.1-0.7-4-2.1
			c-0.3-0.3-0.6-0.5-0.9-0.5c-0.7,0-1.2,0.5-1.2,1.2c0,0.8,0.6,1.8,1.4,2.4C1222.1-224.2,1223.5-223.7,1225.6-223.7z M1235.9-223.8
			c0.8,0,1.3-0.5,1.3-1.3V-237c0-0.8-0.5-1.3-1.3-1.3c-0.8,0-1.3,0.5-1.3,1.3v11.9C1234.6-224.3,1235.1-223.8,1235.9-223.8z
			 M1247.9-223.7c3.9,0,6.6-2.4,6.6-6.8c0-1-0.6-1.4-1.3-1.4h-5.4c-0.7,0-1.2,0.4-1.2,1.2c0,0.7,0.6,1.2,1.2,1.2h4.2
			c-0.1,2.1-1.6,3.3-3.9,3.3c-2.9,0-4.7-2-4.7-4.8c0-2.8,1.9-4.9,4.7-4.9c1.8,0,3.1,0.8,3.8,1.8c0.4,0.4,0.8,0.5,1.2,0.5
			c0.6,0,1.1-0.4,1.1-1.1c0-0.8-0.7-1.7-1.5-2.3c-1.1-0.8-2.6-1.3-4.6-1.3c-4.3,0-7.3,3-7.3,7.4
			C1240.7-226.7,1243.6-223.7,1247.9-223.7z M1259.3-223.8c0.8,0,1.3-0.5,1.3-1.3v-8.8l6.2,8.9c0.6,0.8,1.1,1.1,1.7,1.1
			c0.9,0,1.5-0.7,1.5-1.6V-237c0-0.8-0.5-1.3-1.3-1.3c-0.7,0-1.3,0.5-1.3,1.3v9l-6.2-9c-0.7-0.9-1.1-1.2-1.7-1.2
			c-0.9,0-1.5,0.6-1.5,1.6v11.6C1258-224.3,1258.5-223.8,1259.3-223.8z M1148.3-193.7c2.3,0,4.2-0.8,5.4-2.3
			c0.5-0.6,0.8-1.4,0.8-1.9c0-0.7-0.5-1.2-1.2-1.2c-0.4,0-0.8,0.2-1.2,0.7c-0.8,1.4-2.1,2.2-3.9,2.2c-2.6,0-4.5-2-4.5-4.8
			c0-2.8,1.8-4.8,4.5-4.8c1.8,0,3.1,0.7,3.9,2.1c0.4,0.5,0.8,0.7,1.2,0.7c0.7,0,1.2-0.6,1.2-1.2c0-0.6-0.4-1.4-0.9-2
			c-1.3-1.5-3.1-2.2-5.4-2.2c-4.2,0-7.1,3-7.1,7.3C1141.2-196.7,1144.1-193.7,1148.3-193.7z M1159.2-194h7.6c0.7,0,1.3-0.5,1.3-1.2
			s-0.5-1.2-1.3-1.2h-6.4v-3.4h5.7c0.7,0,1.2-0.5,1.2-1.2c0-0.7-0.5-1.2-1.2-1.2h-5.7v-3.3h6.3c0.7,0,1.3-0.5,1.3-1.2
			c0-0.7-0.5-1.2-1.3-1.2h-7.6c-0.8,0-1.3,0.5-1.3,1.3v11.5C1158-194.5,1158.5-194,1159.2-194z M1173.1-193.8c0.8,0,1.3-0.5,1.3-1.3
			v-4h3.1l3.2,4.8c0.2,0.4,0.6,0.6,1.1,0.6c0.7,0,1.2-0.5,1.2-1.1c0-0.3-0.1-0.6-0.3-1l-2.5-3.7c1.7-0.7,2.7-2.1,2.7-4.1
			c0-2.7-2.1-4.5-4.9-4.5h-4.8c-0.8,0-1.3,0.5-1.3,1.3v11.7C1171.9-194.3,1172.4-193.8,1173.1-193.8z M1174.4-201.5v-4.1h3.6
			c1.3,0,2.2,0.8,2.2,2.1c0,1.3-0.9,2.1-2.2,2.1H1174.4z M1190.9-193.8c0.8,0,1.3-0.5,1.3-1.3v-10.5h3.5c0.7,0,1.3-0.5,1.3-1.2
			c0-0.7-0.5-1.2-1.3-1.2h-9.5c-0.7,0-1.3,0.5-1.3,1.2c0,0.7,0.5,1.2,1.3,1.2h3.5v10.5C1189.6-194.3,1190.1-193.8,1190.9-193.8z
			 M1201-193.8c0.8,0,1.3-0.5,1.3-1.3V-207c0-0.8-0.5-1.3-1.3-1.3c-0.8,0-1.3,0.5-1.3,1.3v11.9
			C1199.8-194.3,1200.3-193.8,1201-193.8z M1207.8-193.8c0.8,0,1.3-0.5,1.3-1.3v-4.5h5.6c0.7,0,1.3-0.5,1.3-1.2
			c0-0.7-0.5-1.2-1.3-1.2h-5.6v-3.5h6.4c0.7,0,1.3-0.5,1.3-1.2c0-0.7-0.5-1.2-1.3-1.2h-7.6c-0.8,0-1.3,0.5-1.3,1.3v11.7
			C1206.5-194.3,1207-193.8,1207.8-193.8z M1220.8-193.8c0.8,0,1.3-0.5,1.3-1.3V-207c0-0.8-0.5-1.3-1.3-1.3c-0.8,0-1.3,0.5-1.3,1.3
			v11.9C1219.6-194.3,1220.1-193.8,1220.8-193.8z M1232.7-193.7c2.3,0,4.2-0.8,5.4-2.3c0.5-0.6,0.8-1.4,0.8-1.9
			c0-0.7-0.5-1.2-1.2-1.2c-0.4,0-0.8,0.2-1.2,0.7c-0.8,1.4-2.1,2.2-3.9,2.2c-2.6,0-4.5-2-4.5-4.8c0-2.8,1.8-4.8,4.5-4.8
			c1.8,0,3.1,0.7,3.9,2.1c0.4,0.5,0.8,0.7,1.2,0.7c0.7,0,1.2-0.6,1.2-1.2c0-0.6-0.4-1.4-0.9-2c-1.3-1.5-3.1-2.2-5.4-2.2
			c-4.2,0-7.1,3-7.1,7.3C1225.6-196.7,1228.5-193.7,1232.7-193.7z M1241.9-193.7c0.6,0,1-0.3,1.2-0.8l1.1-2.7h6.8l1.1,2.7
			c0.2,0.5,0.6,0.8,1.2,0.8c0.6,0,1.2-0.5,1.2-1.2c0-0.2,0-0.5-0.2-0.8l-4.3-10.6c-0.5-1.3-1.2-2-2.4-2c-1.2,0-1.9,0.6-2.4,2
			l-4.3,10.6c-0.1,0.3-0.2,0.6-0.2,0.8C1240.7-194.3,1241.3-193.7,1241.9-193.7z M1245.2-199.7l2.5-6.3l2.5,6.3H1245.2z
			 M1260.5-193.8c0.8,0,1.3-0.5,1.3-1.3v-10.5h3.5c0.7,0,1.3-0.5,1.3-1.2c0-0.7-0.5-1.2-1.3-1.2h-9.5c-0.7,0-1.3,0.5-1.3,1.2
			c0,0.7,0.5,1.2,1.3,1.2h3.5v10.5C1259.2-194.3,1259.8-193.8,1260.5-193.8z M1270.7-194h7.6c0.7,0,1.3-0.5,1.3-1.2
			s-0.5-1.2-1.3-1.2h-6.4v-3.4h5.7c0.7,0,1.2-0.5,1.2-1.2c0-0.7-0.5-1.2-1.2-1.2h-5.7v-3.3h6.3c0.7,0,1.3-0.5,1.3-1.2
			c0-0.7-0.5-1.2-1.3-1.2h-7.6c-0.8,0-1.3,0.5-1.3,1.3v11.5C1269.4-194.5,1269.9-194,1270.7-194z M1149.1-163.7c0.6,0,1-0.3,1.2-0.8
			l1.1-2.7h6.8l1.1,2.7c0.2,0.5,0.6,0.8,1.2,0.8c0.6,0,1.2-0.5,1.2-1.2c0-0.2,0-0.5-0.2-0.8l-4.3-10.6c-0.5-1.3-1.2-2-2.4-2
			c-1.2,0-1.9,0.6-2.4,2l-4.3,10.6c-0.1,0.3-0.2,0.6-0.2,0.8C1147.9-164.3,1148.5-163.7,1149.1-163.7z M1152.4-169.7l2.5-6.3
			l2.5,6.3H1152.4z M1169.7-163.7c3.6,0,5.8-2.3,5.8-5.8v-7.5c0-0.8-0.5-1.3-1.3-1.3c-0.7,0-1.2,0.5-1.2,1.3v7.3
			c0,2.1-1.3,3.5-3.3,3.5c-2,0-3.3-1.4-3.3-3.5v-7.3c0-0.8-0.5-1.3-1.2-1.3s-1.3,0.5-1.3,1.3v7.5
			C1163.9-166,1166.2-163.7,1169.7-163.7z M1184.2-163.8c0.8,0,1.3-0.5,1.3-1.3v-10.5h3.5c0.7,0,1.3-0.5,1.3-1.2
			c0-0.7-0.5-1.2-1.3-1.2h-9.5c-0.7,0-1.3,0.5-1.3,1.2c0,0.7,0.5,1.2,1.3,1.2h3.5v10.5C1183-164.3,1183.5-163.8,1184.2-163.8z
			 M1203.7-163.8c0.8,0,1.3-0.5,1.3-1.3V-177c0-0.8-0.5-1.3-1.3-1.3c-0.8,0-1.3,0.5-1.3,1.3v4.7h-6.8v-4.7c0-0.8-0.5-1.3-1.3-1.3
			c-0.8,0-1.3,0.5-1.3,1.3v11.9c0,0.8,0.5,1.3,1.3,1.3c0.8,0,1.3-0.5,1.3-1.3v-4.8h6.8v4.8C1202.5-164.3,1203-163.8,1203.7-163.8z
			 M1215.8-163.7c4.2,0,7.2-3,7.2-7.3c0-4.3-3-7.3-7.2-7.3c-4.2,0-7.2,3-7.2,7.3C1208.5-166.7,1211.5-163.7,1215.8-163.7z
			 M1211.1-171c0-2.8,1.9-4.8,4.6-4.8c2.7,0,4.6,1.9,4.6,4.8c0,2.8-1.9,4.8-4.6,4.8C1213.1-166.2,1211.1-168.2,1211.1-171z
			 M1227.8-163.8c0.8,0,1.3-0.5,1.3-1.3v-4h3.1l3.2,4.8c0.2,0.4,0.6,0.6,1.1,0.6c0.7,0,1.2-0.5,1.2-1.1c0-0.3-0.1-0.6-0.3-1
			l-2.5-3.7c1.6-0.7,2.7-2.1,2.7-4.1c0-2.7-2.1-4.5-4.9-4.5h-4.8c-0.8,0-1.3,0.5-1.3,1.3v11.7C1226.5-164.3,1227-163.8,1227.8-163.8
			z M1229.1-171.5v-4.1h3.6c1.3,0,2.2,0.8,2.2,2.1c0,1.3-0.9,2.1-2.2,2.1H1229.1z M1242.7-163.8c0.8,0,1.3-0.5,1.3-1.3V-177
			c0-0.8-0.5-1.3-1.3-1.3c-0.8,0-1.3,0.5-1.3,1.3v11.9C1241.4-164.3,1241.9-163.8,1242.7-163.8z M1252.8-163.8
			c0.8,0,1.3-0.5,1.3-1.3v-10.5h3.5c0.7,0,1.3-0.5,1.3-1.2c0-0.7-0.5-1.2-1.3-1.2h-9.5c-0.7,0-1.3,0.5-1.3,1.2
			c0,0.7,0.5,1.2,1.3,1.2h3.5v10.5C1251.6-164.3,1252.1-163.8,1252.8-163.8z M1260.7-176.5l4.6,6.6v4.8c0,0.8,0.5,1.3,1.3,1.3
			c0.8,0,1.3-0.5,1.3-1.3v-4.8l4.6-6.6c0.1-0.2,0.2-0.4,0.2-0.7c0-0.6-0.5-1.1-1.2-1.1c-0.6,0-0.9,0.4-1.2,0.8l-3.6,5.3l-3.7-5.3
			c-0.3-0.5-0.6-0.8-1.2-0.8c-0.7,0-1.2,0.5-1.2,1.1C1260.5-176.9,1260.6-176.7,1260.7-176.5z"/>
	</g>
	<g>
		<path class="st3" d="M1579,435.5h227c10.2,0,18.5,8.3,18.5,18.5v120c0,10.2-8.3,18.5-18.5,18.5h-227c-10.2,0-18.5-8.3-18.5-18.5
			V454C1560.5,443.8,1568.8,435.5,1579,435.5z"/>
		<path class="st1" d="M1806,594h-227c-11,0-20-9-20-20V454c0-11,9-20,20-20h227c11,0,20,9,20,20v120C1826,585,1817,594,1806,594z
			 M1579,437c-9.4,0-17,7.6-17,17v120c0,9.4,7.6,17,17,17h227c9.4,0,17-7.6,17-17V454c0-9.4-7.6-17-17-17H1579z"/>
	</g>
	<g>
		<path class="st1" d="M1602.1,521.3c3.2,0,5.3-1.7,5.3-4.4c0-2.6-1.7-3.5-3.7-4l-2.5-0.5c-1.3-0.3-2.1-0.6-2.1-1.7
			c0-1.1,1-1.7,2.4-1.7c1.7,0,2.8,0.7,3.4,1.8c0.4,0.3,0.7,0.6,1.2,0.6c0.7,0,1.1-0.5,1.1-1.2c0-0.8-0.5-1.7-1.4-2.3
			c-1-0.6-2.3-1.2-4.1-1.2c-3.2,0-5.3,1.7-5.3,4.2c0,2.4,1.5,3.5,3.8,4l2.6,0.5c1.1,0.2,1.8,0.7,1.8,1.8c0,1.1-0.9,1.8-2.5,1.8
			c-2,0-3.1-0.7-4-2.1c-0.3-0.3-0.6-0.5-0.9-0.5c-0.7,0-1.2,0.6-1.2,1.2c0,0.8,0.6,1.8,1.4,2.4
			C1598.7,520.8,1600,521.3,1602.1,521.3z M1612.4,521.2c0.8,0,1.3-0.5,1.3-1.3V508c0-0.8-0.5-1.3-1.3-1.3c-0.8,0-1.3,0.5-1.3,1.3
			v11.9C1611.1,520.7,1611.6,521.2,1612.4,521.2z M1624.4,521.3c3.9,0,6.6-2.4,6.6-6.8c0-1-0.6-1.4-1.3-1.4h-5.4
			c-0.7,0-1.2,0.4-1.2,1.2c0,0.7,0.5,1.2,1.2,1.2h4.2c-0.1,2.1-1.6,3.3-3.9,3.3c-2.8,0-4.7-2-4.7-4.8c0-2.8,1.9-4.9,4.7-4.9
			c1.8,0,3.1,0.8,3.8,1.8c0.4,0.4,0.8,0.5,1.2,0.5c0.6,0,1.2-0.4,1.2-1.1c0-0.8-0.7-1.7-1.5-2.3c-1.1-0.8-2.6-1.3-4.6-1.3
			c-4.3,0-7.3,3-7.3,7.4C1617.2,518.3,1620.1,521.3,1624.4,521.3z M1635.8,521.2c0.8,0,1.3-0.5,1.3-1.3v-8.8l6.2,8.9
			c0.6,0.8,1.1,1.1,1.7,1.1c0.9,0,1.5-0.6,1.5-1.6V508c0-0.8-0.5-1.3-1.3-1.3c-0.7,0-1.3,0.5-1.3,1.3v9l-6.2-9
			c-0.7-0.9-1.1-1.2-1.7-1.2c-0.9,0-1.5,0.7-1.5,1.6v11.6C1634.6,520.7,1635.1,521.2,1635.8,521.2z M1652,521h7.7
			c0.7,0,1.3-0.5,1.3-1.2s-0.5-1.2-1.3-1.2h-6.4v-3.4h5.7c0.7,0,1.2-0.5,1.2-1.2c0-0.7-0.5-1.2-1.2-1.2h-5.7v-3.3h6.3
			c0.7,0,1.3-0.5,1.3-1.2c0-0.7-0.5-1.2-1.3-1.2h-7.6c-0.8,0-1.3,0.5-1.3,1.3v11.5C1650.7,520.5,1651.2,521,1652,521z M1665.9,521
			h4.5c4.1,0,6.8-2.9,6.8-7c0-4.1-2.7-7-6.8-7h-4.5c-0.8,0-1.3,0.5-1.3,1.3v11.5C1664.7,520.5,1665.2,521,1665.9,521z M1667.2,518.5
			v-9.1h3.2c2.5,0,4.2,1.9,4.2,4.6c0,2.7-1.7,4.6-4.2,4.6H1667.2z M1686.4,521.2c0.6,0,1-0.3,1.2-0.8l1.1-2.7h6.8l1.1,2.7
			c0.2,0.5,0.6,0.8,1.2,0.8c0.7,0,1.2-0.5,1.2-1.2c0-0.2,0-0.5-0.2-0.8l-4.4-10.6c-0.5-1.3-1.2-2-2.4-2s-1.9,0.6-2.4,2l-4.3,10.6
			c-0.1,0.3-0.2,0.6-0.2,0.8C1685.2,520.7,1685.8,521.2,1686.4,521.2z M1689.7,515.3l2.5-6.3l2.5,6.3H1689.7z M1702.9,521.2
			c0.8,0,1.3-0.5,1.3-1.3v-4.1h3.1l3.2,4.8c0.2,0.3,0.6,0.6,1.1,0.6c0.7,0,1.2-0.5,1.2-1.1c0-0.3-0.1-0.6-0.3-1l-2.5-3.7
			c1.7-0.7,2.8-2.1,2.8-4.1c0-2.7-2.1-4.5-4.9-4.5h-4.8c-0.8,0-1.3,0.5-1.3,1.3v11.7C1701.7,520.7,1702.2,521.2,1702.9,521.2z
			 M1704.2,513.5v-4.1h3.6c1.3,0,2.2,0.8,2.2,2.1c0,1.3-0.9,2.1-2.2,2.1H1704.2z M1720.7,521.2c0.8,0,1.3-0.5,1.3-1.3v-10.5h3.5
			c0.7,0,1.3-0.5,1.3-1.2c0-0.7-0.5-1.2-1.3-1.2h-9.5c-0.7,0-1.3,0.5-1.3,1.2c0,0.7,0.5,1.2,1.3,1.2h3.5v10.5
			C1719.4,520.7,1719.9,521.2,1720.7,521.2z M1730.8,521.2c0.8,0,1.3-0.5,1.3-1.3V508c0-0.8-0.5-1.3-1.3-1.3c-0.8,0-1.3,0.5-1.3,1.3
			v11.9C1729.6,520.7,1730.1,521.2,1730.8,521.2z M1737.6,521.2c0.8,0,1.3-0.5,1.3-1.3v-4.5h5.6c0.7,0,1.3-0.5,1.3-1.2
			c0-0.7-0.5-1.2-1.3-1.2h-5.6v-3.5h6.4c0.7,0,1.3-0.5,1.3-1.2c0-0.7-0.5-1.2-1.3-1.2h-7.6c-0.8,0-1.3,0.5-1.3,1.3v11.7
			C1736.3,520.7,1736.8,521.2,1737.6,521.2z M1748,521.2c0.6,0,1-0.3,1.2-0.8l1.1-2.7h6.8l1.1,2.7c0.2,0.5,0.6,0.8,1.2,0.8
			c0.7,0,1.2-0.5,1.2-1.2c0-0.2,0-0.5-0.2-0.8l-4.3-10.6c-0.5-1.3-1.2-2-2.4-2s-1.9,0.6-2.4,2l-4.4,10.6c-0.1,0.3-0.2,0.6-0.2,0.8
			C1746.8,520.7,1747.3,521.2,1748,521.2z M1751.2,515.3l2.5-6.3l2.5,6.3H1751.2z M1769.2,521.3c2.3,0,4.2-0.8,5.4-2.2
			c0.5-0.6,0.8-1.4,0.8-1.9c0-0.7-0.5-1.2-1.2-1.2c-0.4,0-0.8,0.2-1.2,0.7c-0.8,1.4-2.1,2.2-3.9,2.2c-2.6,0-4.5-2-4.5-4.8
			c0-2.8,1.8-4.8,4.5-4.8c1.8,0,3.1,0.8,3.9,2.1c0.4,0.5,0.8,0.7,1.2,0.7c0.7,0,1.2-0.6,1.2-1.2c0-0.6-0.4-1.4-0.9-2
			c-1.3-1.5-3.1-2.2-5.4-2.2c-4.2,0-7.1,3-7.1,7.3C1762.1,518.3,1765,521.3,1769.2,521.3z M1783.4,521.2c0.8,0,1.3-0.5,1.3-1.3
			v-10.5h3.5c0.7,0,1.3-0.5,1.3-1.2c0-0.7-0.5-1.2-1.3-1.2h-9.5c-0.7,0-1.3,0.5-1.3,1.2c0,0.7,0.5,1.2,1.3,1.2h3.5v10.5
			C1782.2,520.7,1782.7,521.2,1783.4,521.2z"/>
	</g>
	<g>
		<path class="st3" d="M1097,435.5h227c10.2,0,18.5,8.3,18.5,18.5v120c0,10.2-8.3,18.5-18.5,18.5h-227c-10.2,0-18.5-8.3-18.5-18.5
			V454C1078.5,443.8,1086.8,435.5,1097,435.5z"/>
		<path class="st1" d="M1324,594h-227c-11,0-20-9-20-20V454c0-11,9-20,20-20h227c11,0,20,9,20,20v120C1344,585,1335,594,1324,594z
			 M1097,437c-9.4,0-17,7.6-17,17v120c0,9.4,7.6,17,17,17h227c9.4,0,17-7.6,17-17V454c0-9.4-7.6-17-17-17H1097z"/>
	</g>
	<g>
		<path class="st1" d="M1173.1,506.2c0.8,0,1.3-0.5,1.3-1.3v-4.1h3.1l3.2,4.8c0.2,0.3,0.6,0.6,1.1,0.6c0.7,0,1.2-0.5,1.2-1.1
			c0-0.3-0.1-0.6-0.3-1l-2.5-3.7c1.6-0.7,2.7-2.1,2.7-4.1c0-2.7-2.1-4.5-4.9-4.5h-4.8c-0.8,0-1.3,0.5-1.3,1.3v11.7
			C1171.8,505.7,1172.3,506.2,1173.1,506.2z M1174.3,498.5v-4.1h3.6c1.3,0,2.2,0.8,2.2,2.1c0,1.3-0.9,2.1-2.2,2.1H1174.3z M1188,506
			h7.6c0.7,0,1.3-0.5,1.3-1.2s-0.5-1.2-1.3-1.2h-6.4v-3.4h5.7c0.7,0,1.2-0.5,1.2-1.2c0-0.7-0.5-1.2-1.2-1.2h-5.7v-3.3h6.3
			c0.7,0,1.3-0.5,1.3-1.2c0-0.7-0.5-1.2-1.3-1.2h-7.6c-0.8,0-1.3,0.5-1.3,1.3v11.5C1186.7,505.5,1187.2,506,1188,506z M1201.9,506.2
			c0.8,0,1.3-0.5,1.3-1.3v-3.3l2.2-2l4.8,6c0.3,0.4,0.8,0.6,1.2,0.6c0.7,0,1.2-0.5,1.2-1c0-0.4-0.1-0.6-0.5-1.1l-4.8-6.1l4.3-3.9
			c0.5-0.5,0.7-0.8,0.7-1.3c0-0.5-0.5-1-1.1-1c-0.5,0-0.8,0.2-1.1,0.4l-6.9,6.3V493c0-0.8-0.5-1.3-1.3-1.3c-0.8,0-1.3,0.5-1.3,1.3
			v11.9C1200.6,505.7,1201.1,506.2,1201.9,506.2z M1221.7,506.3c4.2,0,7.2-3,7.2-7.3c0-4.3-3-7.3-7.2-7.3c-4.2,0-7.2,3-7.2,7.3
			C1214.5,503.3,1217.5,506.3,1221.7,506.3z M1217.1,499c0-2.8,1.9-4.8,4.6-4.8c2.7,0,4.6,1.9,4.6,4.8c0,2.8-1.9,4.8-4.6,4.8
			C1219,503.8,1217.1,501.8,1217.1,499z M1233.7,506.2c0.8,0,1.3-0.5,1.3-1.3v-4.1h3.1l3.2,4.8c0.2,0.3,0.6,0.6,1.1,0.6
			c0.7,0,1.2-0.5,1.2-1.1c0-0.3-0.1-0.6-0.3-1l-2.5-3.7c1.6-0.7,2.7-2.1,2.7-4.1c0-2.7-2.1-4.5-4.9-4.5h-4.8c-0.8,0-1.3,0.5-1.3,1.3
			v11.7C1232.5,505.7,1233,506.2,1233.7,506.2z M1235,498.5v-4.1h3.6c1.3,0,2.2,0.8,2.2,2.1c0,1.3-0.9,2.1-2.2,2.1H1235z
			 M1103.3,536.2c0.8,0,1.3-0.5,1.3-1.3v-10.5h3.5c0.7,0,1.3-0.5,1.3-1.2c0-0.7-0.5-1.2-1.3-1.2h-9.5c-0.7,0-1.3,0.5-1.3,1.2
			c0,0.7,0.5,1.2,1.3,1.2h3.5v10.5C1102,535.7,1102.5,536.2,1103.3,536.2z M1113.4,536.2c0.8,0,1.3-0.5,1.3-1.3v-4.1h3.1l3.2,4.8
			c0.2,0.3,0.6,0.6,1.1,0.6c0.7,0,1.2-0.5,1.2-1.1c0-0.3-0.1-0.6-0.3-1l-2.5-3.7c1.6-0.7,2.7-2.1,2.7-4.1c0-2.7-2.1-4.5-4.9-4.5
			h-4.8c-0.8,0-1.3,0.5-1.3,1.3v11.7C1112.2,535.7,1112.7,536.2,1113.4,536.2z M1114.7,528.5v-4.1h3.6c1.3,0,2.2,0.8,2.2,2.1
			c0,1.3-0.9,2.1-2.2,2.1H1114.7z M1126.5,536.2c0.6,0,1-0.3,1.2-0.8l1.1-2.7h6.8l1.1,2.7c0.2,0.5,0.6,0.8,1.2,0.8
			c0.6,0,1.2-0.5,1.2-1.2c0-0.2,0-0.5-0.2-0.8l-4.3-10.6c-0.5-1.3-1.2-2-2.4-2c-1.2,0-1.9,0.6-2.4,2l-4.3,10.6
			c-0.1,0.3-0.2,0.6-0.2,0.8C1125.3,535.7,1125.9,536.2,1126.5,536.2z M1129.8,530.3l2.5-6.3l2.5,6.3H1129.8z M1143,536.2
			c0.8,0,1.3-0.5,1.3-1.3v-8.8l6.2,8.9c0.6,0.8,1.1,1.1,1.7,1.1c0.9,0,1.5-0.6,1.5-1.6V523c0-0.8-0.5-1.3-1.3-1.3
			c-0.7,0-1.3,0.5-1.3,1.3v9l-6.2-9c-0.7-0.9-1.1-1.2-1.7-1.2c-0.9,0-1.5,0.7-1.5,1.6v11.6C1141.8,535.7,1142.3,536.2,1143,536.2z
			 M1163.2,536.3c3.2,0,5.3-1.7,5.3-4.4c0-2.6-1.7-3.5-3.7-4l-2.5-0.5c-1.3-0.3-2.1-0.6-2.1-1.7c0-1.1,1-1.7,2.4-1.7
			c1.7,0,2.8,0.7,3.4,1.8c0.4,0.3,0.7,0.6,1.2,0.6c0.7,0,1.1-0.5,1.1-1.2c0-0.8-0.5-1.7-1.4-2.3c-1-0.6-2.3-1.2-4.1-1.2
			c-3.2,0-5.3,1.7-5.3,4.2c0,2.4,1.5,3.5,3.8,4l2.6,0.5c1.1,0.2,1.8,0.7,1.8,1.8c0,1.1-0.9,1.8-2.5,1.8c-2,0-3.1-0.7-4-2.1
			c-0.3-0.3-0.6-0.5-0.9-0.5c-0.7,0-1.2,0.6-1.2,1.2c0,0.8,0.6,1.8,1.4,2.4C1159.7,535.8,1161.1,536.3,1163.2,536.3z M1173.4,536.2
			c0.8,0,1.3-0.5,1.3-1.3v-3.9h3.4c2.9,0,5.1-1.8,5.1-4.6c0-2.8-2.2-4.6-5.1-4.6h-4.6c-0.8,0-1.3,0.5-1.3,1.3v11.7
			C1172.2,535.7,1172.7,536.2,1173.4,536.2z M1174.7,528.7v-4.3h3.5c1.4,0,2.4,0.9,2.4,2.2s-0.9,2.2-2.4,2.2H1174.7z M1184.7,536.2
			c0.6,0,1-0.3,1.2-0.8l1.1-2.7h6.8l1.1,2.7c0.2,0.5,0.6,0.8,1.2,0.8c0.6,0,1.2-0.5,1.2-1.2c0-0.2,0-0.5-0.2-0.8l-4.3-10.6
			c-0.5-1.3-1.2-2-2.4-2c-1.2,0-1.9,0.6-2.4,2l-4.3,10.6c-0.1,0.3-0.2,0.6-0.2,0.8C1183.4,535.7,1184,536.2,1184.7,536.2z
			 M1187.9,530.3l2.5-6.3l2.5,6.3H1187.9z M1201.2,536.2c0.8,0,1.3-0.5,1.3-1.3v-4.1h3.1l3.2,4.8c0.2,0.3,0.6,0.6,1.1,0.6
			c0.7,0,1.2-0.5,1.2-1.1c0-0.3-0.1-0.6-0.3-1l-2.5-3.7c1.7-0.7,2.7-2.1,2.7-4.1c0-2.7-2.1-4.5-4.9-4.5h-4.8c-0.8,0-1.3,0.5-1.3,1.3
			v11.7C1199.9,535.7,1200.4,536.2,1201.2,536.2z M1202.4,528.5v-4.1h3.6c1.3,0,2.2,0.8,2.2,2.1c0,1.3-0.9,2.1-2.2,2.1H1202.4z
			 M1216,536h7.6c0.7,0,1.3-0.5,1.3-1.2s-0.5-1.2-1.3-1.2h-6.4v-3.4h5.7c0.7,0,1.2-0.5,1.2-1.2c0-0.7-0.5-1.2-1.2-1.2h-5.7v-3.3h6.3
			c0.7,0,1.3-0.5,1.3-1.2c0-0.7-0.5-1.2-1.3-1.2h-7.6c-0.8,0-1.3,0.5-1.3,1.3v11.5C1214.8,535.5,1215.3,536,1216,536z M1230,536.2
			c0.8,0,1.3-0.5,1.3-1.3v-8.8l6.2,8.9c0.6,0.8,1.1,1.1,1.7,1.1c0.9,0,1.5-0.6,1.5-1.6V523c0-0.8-0.5-1.3-1.3-1.3
			c-0.7,0-1.3,0.5-1.3,1.3v9l-6.2-9c-0.7-0.9-1.1-1.2-1.7-1.2c-0.9,0-1.5,0.7-1.5,1.6v11.6C1228.7,535.7,1229.2,536.2,1230,536.2z
			 M1251.3,536.3c2.3,0,4.2-0.8,5.4-2.2c0.5-0.6,0.8-1.4,0.8-1.9c0-0.7-0.5-1.2-1.2-1.2c-0.4,0-0.8,0.2-1.2,0.7
			c-0.8,1.4-2.1,2.2-3.9,2.2c-2.6,0-4.5-2-4.5-4.8c0-2.8,1.8-4.8,4.5-4.8c1.8,0,3.1,0.8,3.9,2.1c0.4,0.5,0.8,0.7,1.2,0.7
			c0.7,0,1.2-0.6,1.2-1.2c0-0.6-0.4-1.4-0.9-2c-1.3-1.5-3.1-2.2-5.4-2.2c-4.2,0-7.1,3-7.1,7.3
			C1244.2,533.3,1247.1,536.3,1251.3,536.3z M1259.7,523.5l4.6,6.6v4.8c0,0.8,0.5,1.3,1.3,1.3c0.8,0,1.3-0.5,1.3-1.3v-4.8l4.6-6.6
			c0.1-0.2,0.2-0.4,0.2-0.7c0-0.6-0.5-1.1-1.2-1.1c-0.6,0-0.9,0.4-1.2,0.9l-3.6,5.3l-3.7-5.3c-0.3-0.5-0.6-0.9-1.2-0.9
			c-0.7,0-1.2,0.5-1.2,1.1C1259.5,523.1,1259.6,523.3,1259.7,523.5z M1282,536h7.2c0.7,0,1.3-0.5,1.3-1.2s-0.5-1.2-1.3-1.2h-5.9V523
			c0-0.8-0.5-1.3-1.3-1.3c-0.8,0-1.3,0.5-1.3,1.3v11.7C1280.7,535.5,1281.2,536,1282,536z M1299.2,536.3c4.2,0,7.2-3,7.2-7.3
			c0-4.3-3-7.3-7.2-7.3s-7.2,3-7.2,7.3C1291.9,533.3,1294.9,536.3,1299.2,536.3z M1294.5,529c0-2.8,1.9-4.8,4.6-4.8
			c2.7,0,4.6,1.9,4.6,4.8c0,2.8-1.9,4.8-4.6,4.8C1296.5,533.8,1294.5,531.8,1294.5,529z M1316.5,536.3c3.9,0,6.6-2.4,6.6-6.8
			c0-1-0.6-1.4-1.3-1.4h-5.4c-0.7,0-1.2,0.4-1.2,1.2c0,0.7,0.6,1.2,1.2,1.2h4.2c-0.1,2.1-1.6,3.3-3.9,3.3c-2.9,0-4.7-2-4.7-4.8
			c0-2.8,1.9-4.9,4.7-4.9c1.8,0,3.1,0.8,3.8,1.8c0.4,0.4,0.8,0.5,1.2,0.5c0.6,0,1.1-0.4,1.1-1.1c0-0.8-0.7-1.7-1.5-2.3
			c-1.1-0.8-2.6-1.3-4.6-1.3c-4.3,0-7.3,3-7.3,7.4C1309.2,533.3,1312.2,536.3,1316.5,536.3z"/>
	</g>
	<g>
		<path class="st3" d="M602,435.5h227c10.2,0,18.5,8.3,18.5,18.5v120c0,10.2-8.3,18.5-18.5,18.5H602c-10.2,0-18.5-8.3-18.5-18.5V454
			C583.5,443.8,591.8,435.5,602,435.5z"/>
		<path class="st1" d="M829,594H602c-11,0-20-9-20-20V454c0-11,9-20,20-20h227c11,0,20,9,20,20v120C849,585,840,594,829,594z
			 M602,437c-9.4,0-17,7.6-17,17v120c0,9.4,7.6,17,17,17h227c9.4,0,17-7.6,17-17V454c0-9.4-7.6-17-17-17H602z"/>
	</g>
	<g>
		<path class="st1" d="M652.6,521.2c0.8,0,1.3-0.5,1.3-1.3v-10.5h3.5c0.7,0,1.3-0.5,1.3-1.2c0-0.7-0.5-1.2-1.3-1.2h-9.5
			c-0.7,0-1.3,0.5-1.3,1.2c0,0.7,0.5,1.2,1.3,1.2h3.5v10.5C651.3,520.7,651.9,521.2,652.6,521.2z M662.8,521.2
			c0.8,0,1.3-0.5,1.3-1.3v-4.1h3.1l3.2,4.8c0.2,0.3,0.6,0.6,1.1,0.6c0.7,0,1.2-0.5,1.2-1.1c0-0.3-0.1-0.6-0.3-1l-2.5-3.7
			c1.7-0.7,2.7-2.1,2.7-4.1c0-2.7-2.1-4.5-4.9-4.5h-4.8c-0.8,0-1.3,0.5-1.3,1.3v11.7C661.5,520.7,662,521.2,662.8,521.2z M664,513.5
			v-4.1h3.6c1.3,0,2.2,0.8,2.2,2.1c0,1.3-0.9,2.1-2.2,2.1H664z M681.8,521.3c3.6,0,5.8-2.3,5.8-5.8V508c0-0.8-0.5-1.3-1.3-1.3
			c-0.7,0-1.2,0.5-1.2,1.3v7.3c0,2.1-1.3,3.5-3.3,3.5c-2,0-3.3-1.4-3.3-3.5V508c0-0.8-0.5-1.3-1.2-1.3s-1.3,0.5-1.3,1.3v7.5
			C676,519,678.3,521.3,681.8,521.3z M696.8,521.3c3.2,0,5.3-1.7,5.3-4.4c0-2.6-1.7-3.5-3.7-4l-2.5-0.5c-1.3-0.3-2.1-0.6-2.1-1.7
			c0-1.1,1-1.7,2.4-1.7c1.7,0,2.8,0.7,3.4,1.8c0.4,0.3,0.7,0.6,1.2,0.6c0.7,0,1.1-0.5,1.1-1.2c0-0.8-0.5-1.7-1.4-2.3
			c-1-0.6-2.3-1.2-4.1-1.2c-3.2,0-5.3,1.7-5.3,4.2c0,2.4,1.5,3.5,3.8,4l2.6,0.5c1.1,0.2,1.8,0.7,1.8,1.8c0,1.1-0.9,1.8-2.5,1.8
			c-2,0-3.1-0.7-4-2.1c-0.3-0.3-0.6-0.5-0.9-0.5c-0.7,0-1.2,0.6-1.2,1.2c0,0.8,0.6,1.8,1.4,2.4C693.3,520.8,694.7,521.3,696.8,521.3
			z M710.2,521.2c0.8,0,1.3-0.5,1.3-1.3v-10.5h3.5c0.7,0,1.3-0.5,1.3-1.2c0-0.7-0.5-1.2-1.3-1.2h-9.5c-0.7,0-1.3,0.5-1.3,1.2
			c0,0.7,0.5,1.2,1.3,1.2h3.5v10.5C708.9,520.7,709.4,521.2,710.2,521.2z M726.3,521.2c0.8,0,1.3-0.5,1.3-1.3v-4.1h3.1l3.2,4.8
			c0.2,0.3,0.6,0.6,1.1,0.6c0.7,0,1.2-0.5,1.2-1.1c0-0.3-0.1-0.6-0.3-1l-2.5-3.7c1.6-0.7,2.7-2.1,2.7-4.1c0-2.7-2.1-4.5-4.9-4.5
			h-4.8c-0.8,0-1.3,0.5-1.3,1.3v11.7C725.1,520.7,725.6,521.2,726.3,521.2z M727.6,513.5v-4.1h3.6c1.3,0,2.2,0.8,2.2,2.1
			c0,1.3-0.9,2.1-2.2,2.1H727.6z M746.2,521.3c4.2,0,7.2-3,7.2-7.3c0-4.3-3-7.3-7.2-7.3s-7.2,3-7.2,7.3
			C739,518.3,742,521.3,746.2,521.3z M741.6,514c0-2.8,1.9-4.8,4.6-4.8c2.7,0,4.6,1.9,4.6,4.8c0,2.8-1.9,4.8-4.6,4.8
			C743.5,518.8,741.6,516.8,741.6,514z M763.6,521.3c4.2,0,7.2-3,7.2-7.3c0-4.3-3-7.3-7.2-7.3s-7.2,3-7.2,7.3
			C756.3,518.3,759.3,521.3,763.6,521.3z M758.9,514c0-2.8,1.9-4.8,4.6-4.8c2.7,0,4.6,1.9,4.6,4.8c0,2.8-1.9,4.8-4.6,4.8
			C760.9,518.8,758.9,516.8,758.9,514z M778.4,521.2c0.8,0,1.3-0.5,1.3-1.3v-10.5h3.5c0.7,0,1.3-0.5,1.3-1.2c0-0.7-0.5-1.2-1.3-1.2
			h-9.5c-0.7,0-1.3,0.5-1.3,1.2c0,0.7,0.5,1.2,1.3,1.2h3.5v10.5C777.1,520.7,777.6,521.2,778.4,521.2z"/>
	</g>
	<g>
		<path class="st0" d="M1157-671.5h107c43.4,0,78.5,35.1,78.5,78.5l0,0c0,43.4-35.1,78.5-78.5,78.5h-107
			c-43.4,0-78.5-35.1-78.5-78.5l0,0C1078.5-636.4,1113.6-671.5,1157-671.5z"/>
		<path class="st1" d="M1264-513h-107c-44.1,0-80-35.9-80-80s35.9-80,80-80h107c44.1,0,80,35.9,80,80S1308.1-513,1264-513z
			 M1157-670c-42.5,0-77,34.5-77,77s34.5,77,77,77h107c42.5,0,77-34.5,77-77s-34.5-77-77-77H1157z"/>
	</g>
	<g>
		<path class="st1" d="M1159.5-615.8c0.8,0,1.3-0.5,1.3-1.3v-4h3.1l3.2,4.8c0.2,0.4,0.6,0.6,1.1,0.6c0.7,0,1.2-0.5,1.2-1.1
			c0-0.3-0.1-0.6-0.3-1l-2.5-3.7c1.6-0.7,2.7-2.1,2.7-4.1c0-2.7-2.1-4.5-4.9-4.5h-4.8c-0.8,0-1.3,0.5-1.3,1.3v11.7
			C1158.2-616.3,1158.7-615.8,1159.5-615.8z M1160.8-623.5v-4.1h3.6c1.3,0,2.2,0.8,2.2,2.1c0,1.3-0.9,2.1-2.2,2.1H1160.8z
			 M1174.4-616h7.6c0.7,0,1.3-0.5,1.3-1.2s-0.5-1.2-1.3-1.2h-6.4v-3.4h5.7c0.7,0,1.2-0.5,1.2-1.2c0-0.7-0.5-1.2-1.2-1.2h-5.7v-3.3
			h6.3c0.7,0,1.3-0.5,1.3-1.2c0-0.7-0.5-1.2-1.3-1.2h-7.6c-0.8,0-1.3,0.5-1.3,1.3v11.5C1173.1-616.5,1173.6-616,1174.4-616z
			 M1198.8-615c0.6,0,1.2-0.5,1.2-1.2c0-0.3-0.1-0.6-0.4-0.9l-0.7-0.8c1.2-1.3,1.8-3,1.8-5.1c0-4.3-3-7.3-7.2-7.3
			c-4.2,0-7.2,3-7.2,7.3c0,4.3,3,7.3,7.2,7.3c1.3,0,2.5-0.3,3.5-0.8l0.8,1C1198-615.2,1198.4-615,1198.8-615z M1188.8-623
			c0-2.8,1.9-4.8,4.6-4.8c2.7,0,4.6,1.9,4.6,4.8c0,1.2-0.4,2.3-1,3.1l-1.7-2c-0.3-0.4-0.7-0.5-1.1-0.5c-0.6,0-1.2,0.6-1.2,1.2
			c0,0.3,0.1,0.6,0.4,0.9l1.6,1.9c-0.5,0.2-1.1,0.3-1.7,0.3C1190.7-618.2,1188.8-620.2,1188.8-623z M1209.7-615.7
			c3.6,0,5.9-2.3,5.9-5.8v-7.5c0-0.8-0.5-1.3-1.3-1.3c-0.7,0-1.2,0.5-1.2,1.3v7.3c0,2.1-1.3,3.5-3.3,3.5c-2,0-3.3-1.4-3.3-3.5v-7.3
			c0-0.8-0.5-1.3-1.2-1.3c-0.8,0-1.3,0.5-1.3,1.3v7.5C1203.8-618,1206.1-615.7,1209.7-615.7z M1220.8-616h7.6c0.7,0,1.3-0.5,1.3-1.2
			s-0.5-1.2-1.3-1.2h-6.4v-3.4h5.7c0.7,0,1.2-0.5,1.2-1.2c0-0.7-0.5-1.2-1.2-1.2h-5.7v-3.3h6.3c0.7,0,1.3-0.5,1.3-1.2
			c0-0.7-0.5-1.2-1.3-1.2h-7.6c-0.8,0-1.3,0.5-1.3,1.3v11.5C1219.5-616.5,1220-616,1220.8-616z M1238.6-615.7c3.2,0,5.3-1.7,5.3-4.4
			c0-2.6-1.7-3.5-3.7-4l-2.5-0.6c-1.3-0.3-2.1-0.6-2.1-1.7c0-1.1,1-1.6,2.4-1.6c1.7,0,2.8,0.7,3.4,1.8c0.4,0.4,0.7,0.6,1.2,0.6
			c0.7,0,1.1-0.5,1.1-1.2c0-0.8-0.5-1.7-1.4-2.3c-1-0.6-2.3-1.2-4.1-1.2c-3.2,0-5.3,1.7-5.3,4.2c0,2.4,1.5,3.5,3.8,4l2.6,0.5
			c1.1,0.2,1.8,0.7,1.8,1.8c0,1.1-0.9,1.8-2.5,1.8c-2,0-3.1-0.7-4-2.1c-0.3-0.3-0.6-0.5-0.9-0.5c-0.7,0-1.2,0.5-1.2,1.2
			c0,0.8,0.6,1.8,1.4,2.4C1235.2-616.2,1236.6-615.7,1238.6-615.7z M1252-615.8c0.8,0,1.3-0.5,1.3-1.3v-10.5h3.5
			c0.7,0,1.3-0.5,1.3-1.2c0-0.7-0.5-1.2-1.3-1.2h-9.5c-0.7,0-1.3,0.5-1.3,1.2c0,0.7,0.5,1.2,1.3,1.2h3.5v10.5
			C1250.8-616.3,1251.3-615.8,1252-615.8z M1154.3-585.7c2.3,0,4.2-0.8,5.4-2.3c0.5-0.6,0.8-1.4,0.8-1.9c0-0.7-0.5-1.2-1.2-1.2
			c-0.4,0-0.8,0.2-1.2,0.7c-0.8,1.4-2.1,2.2-3.9,2.2c-2.6,0-4.5-2-4.5-4.8c0-2.8,1.8-4.8,4.5-4.8c1.8,0,3.1,0.7,3.9,2.1
			c0.4,0.5,0.8,0.7,1.2,0.7c0.7,0,1.2-0.6,1.2-1.2c0-0.6-0.4-1.4-0.9-2c-1.3-1.5-3.1-2.2-5.4-2.2c-4.2,0-7.1,3-7.1,7.3
			C1147.3-588.7,1150.2-585.7,1154.3-585.7z M1170.5-585.7c4.2,0,7.2-3,7.2-7.3c0-4.3-3-7.3-7.2-7.3s-7.2,3-7.2,7.3
			C1163.2-588.7,1166.2-585.7,1170.5-585.7z M1165.9-593c0-2.8,1.9-4.8,4.6-4.8c2.7,0,4.6,1.9,4.6,4.8c0,2.8-1.9,4.8-4.6,4.8
			C1167.8-588.2,1165.9-590.2,1165.9-593z M1182.5-586h4.5c4.1,0,6.8-2.9,6.8-7c0-4.1-2.7-7-6.8-7h-4.5c-0.8,0-1.3,0.5-1.3,1.3v11.5
			C1181.3-586.5,1181.8-586,1182.5-586z M1183.8-588.5v-9.1h3.3c2.5,0,4.2,1.9,4.2,4.6c0,2.7-1.7,4.6-4.2,4.6H1183.8z M1198.7-586
			h7.6c0.7,0,1.3-0.5,1.3-1.2s-0.5-1.2-1.3-1.2h-6.4v-3.4h5.7c0.7,0,1.2-0.5,1.2-1.2c0-0.7-0.5-1.2-1.2-1.2h-5.7v-3.3h6.3
			c0.7,0,1.3-0.5,1.3-1.2c0-0.7-0.5-1.2-1.3-1.2h-7.6c-0.8,0-1.3,0.5-1.3,1.3v11.5C1197.4-586.5,1197.9-586,1198.7-586z
			 M1222.6-585.7c3.2,0,5.3-1.7,5.3-4.4c0-2.6-1.7-3.5-3.7-4l-2.5-0.6c-1.3-0.3-2.1-0.6-2.1-1.7c0-1.1,1-1.6,2.4-1.6
			c1.7,0,2.8,0.7,3.4,1.8c0.4,0.4,0.7,0.6,1.2,0.6c0.7,0,1.1-0.5,1.1-1.2c0-0.8-0.5-1.7-1.4-2.3c-1-0.6-2.3-1.2-4.1-1.2
			c-3.2,0-5.3,1.7-5.3,4.2c0,2.4,1.5,3.5,3.8,4l2.6,0.5c1.1,0.2,1.8,0.7,1.8,1.8c0,1.1-0.9,1.8-2.5,1.8c-2,0-3.1-0.7-4-2.1
			c-0.3-0.3-0.6-0.5-0.9-0.5c-0.7,0-1.2,0.5-1.2,1.2c0,0.8,0.6,1.8,1.4,2.4C1219.1-586.2,1220.5-585.7,1222.6-585.7z M1232.8-585.8
			c0.8,0,1.3-0.5,1.3-1.3V-599c0-0.8-0.5-1.3-1.3-1.3c-0.8,0-1.3,0.5-1.3,1.3v11.9C1231.6-586.3,1232.1-585.8,1232.8-585.8z
			 M1244.9-585.7c3.9,0,6.6-2.4,6.6-6.8c0-1-0.6-1.4-1.3-1.4h-5.4c-0.7,0-1.2,0.4-1.2,1.2c0,0.7,0.6,1.2,1.2,1.2h4.2
			c-0.1,2.1-1.6,3.3-3.9,3.3c-2.9,0-4.7-2-4.7-4.8c0-2.8,1.9-4.9,4.7-4.9c1.8,0,3.1,0.8,3.8,1.8c0.4,0.4,0.8,0.5,1.2,0.5
			c0.6,0,1.1-0.4,1.1-1.1c0-0.8-0.7-1.7-1.5-2.3c-1.1-0.8-2.6-1.3-4.6-1.3c-4.3,0-7.3,3-7.3,7.4
			C1237.6-588.7,1240.6-585.7,1244.9-585.7z M1256.3-585.8c0.8,0,1.3-0.5,1.3-1.3v-8.8l6.2,8.9c0.6,0.8,1.1,1.1,1.7,1.1
			c0.9,0,1.5-0.7,1.5-1.6V-599c0-0.8-0.5-1.3-1.3-1.3c-0.7,0-1.3,0.5-1.3,1.3v9l-6.2-9c-0.7-0.9-1.1-1.2-1.7-1.2
			c-0.9,0-1.5,0.6-1.5,1.6v11.6C1255-586.3,1255.5-585.8,1256.3-585.8z M1148.3-555.7c2.3,0,4.2-0.8,5.4-2.3
			c0.5-0.6,0.8-1.4,0.8-1.9c0-0.7-0.5-1.2-1.2-1.2c-0.4,0-0.8,0.2-1.2,0.7c-0.8,1.4-2.1,2.2-3.9,2.2c-2.6,0-4.5-2-4.5-4.8
			c0-2.8,1.8-4.8,4.5-4.8c1.8,0,3.1,0.7,3.9,2.1c0.4,0.5,0.8,0.7,1.2,0.7c0.7,0,1.2-0.6,1.2-1.2c0-0.6-0.4-1.4-0.9-2
			c-1.3-1.5-3.1-2.2-5.4-2.2c-4.2,0-7.1,3-7.1,7.3C1141.2-558.7,1144.1-555.7,1148.3-555.7z M1159.2-556h7.6c0.7,0,1.3-0.5,1.3-1.2
			s-0.5-1.2-1.3-1.2h-6.4v-3.4h5.7c0.7,0,1.2-0.5,1.2-1.2c0-0.7-0.5-1.2-1.2-1.2h-5.7v-3.3h6.3c0.7,0,1.3-0.5,1.3-1.2
			c0-0.7-0.5-1.2-1.3-1.2h-7.6c-0.8,0-1.3,0.5-1.3,1.3v11.5C1158-556.5,1158.5-556,1159.2-556z M1173.1-555.8c0.8,0,1.3-0.5,1.3-1.3
			v-4h3.1l3.2,4.8c0.2,0.4,0.6,0.6,1.1,0.6c0.7,0,1.2-0.5,1.2-1.1c0-0.3-0.1-0.6-0.3-1l-2.5-3.7c1.7-0.7,2.7-2.1,2.7-4.1
			c0-2.7-2.1-4.5-4.9-4.5h-4.8c-0.8,0-1.3,0.5-1.3,1.3v11.7C1171.9-556.3,1172.4-555.8,1173.1-555.8z M1174.4-563.5v-4.1h3.6
			c1.3,0,2.2,0.8,2.2,2.1c0,1.3-0.9,2.1-2.2,2.1H1174.4z M1190.9-555.8c0.8,0,1.3-0.5,1.3-1.3v-10.5h3.5c0.7,0,1.3-0.5,1.3-1.2
			c0-0.7-0.5-1.2-1.3-1.2h-9.5c-0.7,0-1.3,0.5-1.3,1.2c0,0.7,0.5,1.2,1.3,1.2h3.5v10.5C1189.6-556.3,1190.1-555.8,1190.9-555.8z
			 M1201-555.8c0.8,0,1.3-0.5,1.3-1.3V-569c0-0.8-0.5-1.3-1.3-1.3c-0.8,0-1.3,0.5-1.3,1.3v11.9
			C1199.8-556.3,1200.3-555.8,1201-555.8z M1207.8-555.8c0.8,0,1.3-0.5,1.3-1.3v-4.5h5.6c0.7,0,1.3-0.5,1.3-1.2
			c0-0.7-0.5-1.2-1.3-1.2h-5.6v-3.5h6.4c0.7,0,1.3-0.5,1.3-1.2c0-0.7-0.5-1.2-1.3-1.2h-7.6c-0.8,0-1.3,0.5-1.3,1.3v11.7
			C1206.5-556.3,1207-555.8,1207.8-555.8z M1220.8-555.8c0.8,0,1.3-0.5,1.3-1.3V-569c0-0.8-0.5-1.3-1.3-1.3c-0.8,0-1.3,0.5-1.3,1.3
			v11.9C1219.6-556.3,1220.1-555.8,1220.8-555.8z M1232.7-555.7c2.3,0,4.2-0.8,5.4-2.3c0.5-0.6,0.8-1.4,0.8-1.9
			c0-0.7-0.5-1.2-1.2-1.2c-0.4,0-0.8,0.2-1.2,0.7c-0.8,1.4-2.1,2.2-3.9,2.2c-2.6,0-4.5-2-4.5-4.8c0-2.8,1.8-4.8,4.5-4.8
			c1.8,0,3.1,0.7,3.9,2.1c0.4,0.5,0.8,0.7,1.2,0.7c0.7,0,1.2-0.6,1.2-1.2c0-0.6-0.4-1.4-0.9-2c-1.3-1.5-3.1-2.2-5.4-2.2
			c-4.2,0-7.1,3-7.1,7.3C1225.6-558.7,1228.5-555.7,1232.7-555.7z M1241.9-555.7c0.6,0,1-0.3,1.2-0.8l1.1-2.7h6.8l1.1,2.7
			c0.2,0.5,0.6,0.8,1.2,0.8c0.6,0,1.2-0.5,1.2-1.2c0-0.2,0-0.5-0.2-0.8l-4.3-10.6c-0.5-1.3-1.2-2-2.4-2c-1.2,0-1.9,0.6-2.4,2
			l-4.3,10.6c-0.1,0.3-0.2,0.6-0.2,0.8C1240.7-556.3,1241.3-555.7,1241.9-555.7z M1245.2-561.7l2.5-6.3l2.5,6.3H1245.2z
			 M1260.5-555.8c0.8,0,1.3-0.5,1.3-1.3v-10.5h3.5c0.7,0,1.3-0.5,1.3-1.2c0-0.7-0.5-1.2-1.3-1.2h-9.5c-0.7,0-1.3,0.5-1.3,1.2
			c0,0.7,0.5,1.2,1.3,1.2h3.5v10.5C1259.2-556.3,1259.8-555.8,1260.5-555.8z M1270.7-556h7.6c0.7,0,1.3-0.5,1.3-1.2
			s-0.5-1.2-1.3-1.2h-6.4v-3.4h5.7c0.7,0,1.2-0.5,1.2-1.2c0-0.7-0.5-1.2-1.2-1.2h-5.7v-3.3h6.3c0.7,0,1.3-0.5,1.3-1.2
			c0-0.7-0.5-1.2-1.3-1.2h-7.6c-0.8,0-1.3,0.5-1.3,1.3v11.5C1269.4-556.5,1269.9-556,1270.7-556z"/>
	</g>
	<g>
		<path class="st0" d="M1157-475.5h107c43.4,0,78.5,35.1,78.5,78.5l0,0c0,43.4-35.1,78.5-78.5,78.5h-107
			c-43.4,0-78.5-35.1-78.5-78.5l0,0C1078.5-440.4,1113.6-475.5,1157-475.5z"/>
		<path class="st1" d="M1264-317h-107c-44.1,0-80-35.9-80-80s35.9-80,80-80h107c44.1,0,80,35.9,80,80S1308.1-317,1264-317z
			 M1157-474c-42.5,0-77,34.5-77,77s34.5,77,77,77h107c42.5,0,77-34.5,77-77s-34.5-77-77-77H1157z"/>
	</g>
	<g>
		<path class="st1" d="M1122.6-419.7c0.6,0,1-0.3,1.2-0.8l1.1-2.7h6.8l1.1,2.7c0.2,0.5,0.6,0.8,1.2,0.8c0.6,0,1.2-0.5,1.2-1.2
			c0-0.2,0-0.5-0.2-0.8l-4.3-10.6c-0.5-1.3-1.2-2-2.4-2c-1.2,0-1.9,0.6-2.4,2l-4.3,10.6c-0.1,0.3-0.2,0.6-0.2,0.8
			C1121.4-420.3,1122-419.7,1122.6-419.7z M1125.9-425.7l2.5-6.3l2.5,6.3H1125.9z M1143.2-419.7c3.6,0,5.8-2.3,5.8-5.8v-7.5
			c0-0.8-0.5-1.3-1.3-1.3c-0.7,0-1.2,0.5-1.2,1.3v7.3c0,2.1-1.3,3.5-3.3,3.5c-2,0-3.3-1.4-3.3-3.5v-7.3c0-0.8-0.5-1.3-1.2-1.3
			c-0.8,0-1.3,0.5-1.3,1.3v7.5C1137.4-422,1139.7-419.7,1143.2-419.7z M1157.7-419.8c0.8,0,1.3-0.5,1.3-1.3v-10.5h3.5
			c0.7,0,1.3-0.5,1.3-1.2c0-0.7-0.5-1.2-1.3-1.2h-9.5c-0.7,0-1.3,0.5-1.3,1.2c0,0.7,0.5,1.2,1.3,1.2h3.5v10.5
			C1156.5-420.3,1157-419.8,1157.7-419.8z M1177.2-419.8c0.8,0,1.3-0.5,1.3-1.3V-433c0-0.8-0.5-1.3-1.3-1.3c-0.8,0-1.3,0.5-1.3,1.3
			v4.7h-6.8v-4.7c0-0.8-0.5-1.3-1.3-1.3c-0.8,0-1.3,0.5-1.3,1.3v11.9c0,0.8,0.5,1.3,1.3,1.3c0.8,0,1.3-0.5,1.3-1.3v-4.8h6.8v4.8
			C1176-420.3,1176.5-419.8,1177.2-419.8z M1183.9-420h7.6c0.7,0,1.3-0.5,1.3-1.2s-0.5-1.2-1.3-1.2h-6.4v-3.4h5.7
			c0.7,0,1.2-0.5,1.2-1.2c0-0.7-0.5-1.2-1.2-1.2h-5.7v-3.3h6.3c0.7,0,1.3-0.5,1.3-1.2c0-0.7-0.5-1.2-1.3-1.2h-7.6
			c-0.8,0-1.3,0.5-1.3,1.3v11.5C1182.7-420.5,1183.2-420,1183.9-420z M1197.9-419.8c0.8,0,1.3-0.5,1.3-1.3v-8.8l6.2,8.9
			c0.6,0.8,1.1,1.1,1.7,1.1c0.9,0,1.5-0.7,1.5-1.6V-433c0-0.8-0.5-1.3-1.3-1.3c-0.7,0-1.3,0.5-1.3,1.3v9l-6.2-9
			c-0.7-0.9-1.1-1.2-1.7-1.2c-0.9,0-1.5,0.6-1.5,1.6v11.6C1196.6-420.3,1197.1-419.8,1197.9-419.8z M1217.5-419.8
			c0.8,0,1.3-0.5,1.3-1.3v-10.5h3.5c0.7,0,1.3-0.5,1.3-1.2c0-0.7-0.5-1.2-1.3-1.2h-9.5c-0.7,0-1.3,0.5-1.3,1.2
			c0,0.7,0.5,1.2,1.3,1.2h3.5v10.5C1216.2-420.3,1216.7-419.8,1217.5-419.8z M1227.6-419.8c0.8,0,1.3-0.5,1.3-1.3V-433
			c0-0.8-0.5-1.3-1.3-1.3c-0.8,0-1.3,0.5-1.3,1.3v11.9C1226.4-420.3,1226.9-419.8,1227.6-419.8z M1239.5-419.7
			c2.3,0,4.2-0.8,5.4-2.3c0.5-0.6,0.8-1.4,0.8-1.9c0-0.7-0.5-1.2-1.2-1.2c-0.4,0-0.8,0.2-1.2,0.7c-0.8,1.4-2.1,2.2-3.9,2.2
			c-2.6,0-4.5-2-4.5-4.8c0-2.8,1.8-4.8,4.5-4.8c1.8,0,3.1,0.7,3.9,2.1c0.4,0.5,0.8,0.7,1.2,0.7c0.7,0,1.2-0.6,1.2-1.2
			c0-0.6-0.4-1.4-0.9-2c-1.3-1.5-3.1-2.2-5.4-2.2c-4.2,0-7.1,3-7.1,7.3C1232.4-422.7,1235.3-419.7,1239.5-419.7z M1248.7-419.7
			c0.6,0,1-0.3,1.2-0.8l1.1-2.7h6.8l1.1,2.7c0.2,0.5,0.6,0.8,1.2,0.8c0.6,0,1.2-0.5,1.2-1.2c0-0.2,0-0.5-0.2-0.8l-4.3-10.6
			c-0.5-1.3-1.2-2-2.4-2c-1.2,0-1.9,0.6-2.4,2l-4.3,10.6c-0.1,0.3-0.2,0.6-0.2,0.8C1247.5-420.3,1248-419.7,1248.7-419.7z
			 M1252-425.7l2.5-6.3l2.5,6.3H1252z M1267.3-419.8c0.8,0,1.3-0.5,1.3-1.3v-10.5h3.5c0.7,0,1.3-0.5,1.3-1.2c0-0.7-0.5-1.2-1.3-1.2
			h-9.5c-0.7,0-1.3,0.5-1.3,1.2c0,0.7,0.5,1.2,1.3,1.2h3.5v10.5C1266-420.3,1266.5-419.8,1267.3-419.8z M1277.4-420h7.6
			c0.7,0,1.3-0.5,1.3-1.2s-0.5-1.2-1.3-1.2h-6.4v-3.4h5.7c0.7,0,1.2-0.5,1.2-1.2c0-0.7-0.5-1.2-1.2-1.2h-5.7v-3.3h6.3
			c0.7,0,1.3-0.5,1.3-1.2c0-0.7-0.5-1.2-1.3-1.2h-7.6c-0.8,0-1.3,0.5-1.3,1.3v11.5C1276.2-420.5,1276.7-420,1277.4-420z
			 M1139.2-389.7c1.2,0,2-1,2.4-2.5l2.5-8.8l2.5,8.8c0.4,1.5,1.2,2.5,2.4,2.5c1.2,0,2.1-0.9,2.4-2.4l2.6-10.3c0-0.2,0.1-0.4,0.1-0.6
			c0-0.7-0.6-1.3-1.3-1.3c-0.7,0-1.2,0.4-1.3,1l-2.5,10.7l-2.8-9.8c-0.3-1.1-1-1.9-2-1.9c-1,0-1.7,0.8-2,1.9l-2.8,9.8l-2.5-10.7
			c-0.1-0.6-0.6-1-1.3-1c-0.7,0-1.3,0.6-1.3,1.3c0,0.1,0,0.3,0.1,0.6l2.6,10.4C1137.2-390.7,1138.1-389.7,1139.2-389.7z
			 M1158.3-389.8c0.8,0,1.3-0.5,1.3-1.3V-403c0-0.8-0.5-1.3-1.3-1.3c-0.8,0-1.3,0.5-1.3,1.3v11.9
			C1157-390.3,1157.6-389.8,1158.3-389.8z M1168.5-389.8c0.8,0,1.3-0.5,1.3-1.3v-10.5h3.5c0.7,0,1.3-0.5,1.3-1.2
			c0-0.7-0.5-1.2-1.3-1.2h-9.5c-0.7,0-1.3,0.5-1.3,1.2c0,0.7,0.5,1.2,1.3,1.2h3.5v10.5C1167.2-390.3,1167.7-389.8,1168.5-389.8z
			 M1188-389.8c0.8,0,1.3-0.5,1.3-1.3V-403c0-0.8-0.5-1.3-1.3-1.3c-0.8,0-1.3,0.5-1.3,1.3v4.7h-6.8v-4.7c0-0.8-0.5-1.3-1.3-1.3
			c-0.8,0-1.3,0.5-1.3,1.3v11.9c0,0.8,0.5,1.3,1.3,1.3c0.8,0,1.3-0.5,1.3-1.3v-4.8h6.8v4.8C1186.7-390.3,1187.2-389.8,1188-389.8z
			 M1206-389.7c4.2,0,7.2-3,7.2-7.3c0-4.3-3-7.3-7.2-7.3c-4.2,0-7.2,3-7.2,7.3C1198.8-392.7,1201.8-389.7,1206-389.7z M1201.4-397
			c0-2.8,1.9-4.8,4.6-4.8c2.7,0,4.6,1.9,4.6,4.8c0,2.8-1.9,4.8-4.6,4.8C1203.3-392.2,1201.4-394.2,1201.4-397z M1218-389.8
			c0.8,0,1.3-0.5,1.3-1.3v-3.9h3.4c2.9,0,5.1-1.8,5.1-4.6c0-2.8-2.2-4.6-5.1-4.6h-4.6c-0.8,0-1.3,0.5-1.3,1.3v11.7
			C1216.8-390.3,1217.3-389.8,1218-389.8z M1219.3-397.3v-4.3h3.5c1.4,0,2.4,0.9,2.4,2.2c0,1.3-0.9,2.2-2.4,2.2H1219.3z M1232.1-390
			h7.6c0.7,0,1.3-0.5,1.3-1.2s-0.5-1.2-1.3-1.2h-6.4v-3.4h5.7c0.7,0,1.2-0.5,1.2-1.2c0-0.7-0.5-1.2-1.2-1.2h-5.7v-3.3h6.3
			c0.7,0,1.3-0.5,1.3-1.2c0-0.7-0.5-1.2-1.3-1.2h-7.6c-0.8,0-1.3,0.5-1.3,1.3v11.5C1230.8-390.5,1231.3-390,1232.1-390z M1246-389.8
			c0.8,0,1.3-0.5,1.3-1.3v-8.8l6.2,8.9c0.6,0.8,1.1,1.1,1.7,1.1c0.9,0,1.5-0.7,1.5-1.6V-403c0-0.8-0.5-1.3-1.3-1.3
			c-0.7,0-1.3,0.5-1.3,1.3v9l-6.2-9c-0.7-0.9-1.1-1.2-1.7-1.2c-0.9,0-1.5,0.6-1.5,1.6v11.6C1244.7-390.3,1245.2-389.8,1246-389.8z
			 M1268.2-389.8c0.8,0,1.3-0.5,1.3-1.3V-403c0-0.8-0.5-1.3-1.3-1.3c-0.8,0-1.3,0.5-1.3,1.3v11.9
			C1266.9-390.3,1267.5-389.8,1268.2-389.8z M1274.9-390h4.5c4.1,0,6.8-2.9,6.8-7c0-4.1-2.7-7-6.8-7h-4.5c-0.8,0-1.3,0.5-1.3,1.3
			v11.5C1273.7-390.5,1274.2-390,1274.9-390z M1276.2-392.5v-9.1h3.3c2.5,0,4.2,1.9,4.2,4.6c0,2.7-1.7,4.6-4.2,4.6H1276.2z
			 M1164.5-359.7c2.3,0,4.2-0.8,5.4-2.3c0.5-0.6,0.8-1.4,0.8-1.9c0-0.7-0.5-1.2-1.2-1.2c-0.4,0-0.8,0.2-1.2,0.7
			c-0.8,1.4-2.1,2.2-3.9,2.2c-2.6,0-4.5-2-4.5-4.8c0-2.8,1.8-4.8,4.5-4.8c1.8,0,3.1,0.7,3.9,2.1c0.4,0.5,0.8,0.7,1.2,0.7
			c0.7,0,1.2-0.6,1.2-1.2c0-0.6-0.4-1.4-0.9-2c-1.3-1.5-3.1-2.2-5.4-2.2c-4.2,0-7.1,3-7.1,7.3
			C1157.4-362.7,1160.3-359.7,1164.5-359.7z M1180.7-359.7c4.2,0,7.2-3,7.2-7.3c0-4.3-3-7.3-7.2-7.3s-7.2,3-7.2,7.3
			C1173.4-362.7,1176.4-359.7,1180.7-359.7z M1176-367c0-2.8,1.9-4.8,4.6-4.8c2.7,0,4.6,1.9,4.6,4.8c0,2.8-1.9,4.8-4.6,4.8
			C1178-362.2,1176-364.2,1176-367z M1192.7-359.8c0.8,0,1.3-0.5,1.3-1.3v-8.8l6.2,8.9c0.6,0.8,1.1,1.1,1.7,1.1
			c0.9,0,1.5-0.7,1.5-1.6V-373c0-0.8-0.5-1.3-1.3-1.3c-0.7,0-1.3,0.5-1.3,1.3v9l-6.2-9c-0.7-0.9-1.1-1.2-1.7-1.2
			c-0.9,0-1.5,0.6-1.5,1.6v11.6C1191.4-360.3,1191.9-359.8,1192.7-359.8z M1208.9-359.8c0.8,0,1.3-0.5,1.3-1.3v-8.8l6.2,8.9
			c0.6,0.8,1.1,1.1,1.7,1.1c0.9,0,1.5-0.7,1.5-1.6V-373c0-0.8-0.5-1.3-1.3-1.3c-0.7,0-1.3,0.5-1.3,1.3v9l-6.2-9
			c-0.7-0.9-1.1-1.2-1.7-1.2c-0.9,0-1.5,0.6-1.5,1.6v11.6C1207.6-360.3,1208.1-359.8,1208.9-359.8z M1225.1-360h7.6
			c0.7,0,1.3-0.5,1.3-1.2s-0.5-1.2-1.3-1.2h-6.4v-3.4h5.7c0.7,0,1.2-0.5,1.2-1.2c0-0.7-0.5-1.2-1.2-1.2h-5.7v-3.3h6.3
			c0.7,0,1.3-0.5,1.3-1.2c0-0.7-0.5-1.2-1.3-1.2h-7.6c-0.8,0-1.3,0.5-1.3,1.3v11.5C1223.8-360.5,1224.3-360,1225.1-360z
			 M1243.9-359.7c2.3,0,4.2-0.8,5.4-2.3c0.5-0.6,0.8-1.4,0.8-1.9c0-0.7-0.5-1.2-1.2-1.2c-0.4,0-0.8,0.2-1.2,0.7
			c-0.8,1.4-2.1,2.2-3.9,2.2c-2.6,0-4.5-2-4.5-4.8c0-2.8,1.8-4.8,4.5-4.8c1.8,0,3.1,0.7,3.9,2.1c0.4,0.5,0.8,0.7,1.2,0.7
			c0.7,0,1.2-0.6,1.2-1.2c0-0.6-0.4-1.4-0.9-2c-1.3-1.5-3.1-2.2-5.4-2.2c-4.2,0-7.1,3-7.1,7.3
			C1236.9-362.7,1239.8-359.7,1243.9-359.7z M1258.2-359.8c0.8,0,1.3-0.5,1.3-1.3v-10.5h3.5c0.7,0,1.3-0.5,1.3-1.2
			c0-0.7-0.5-1.2-1.3-1.2h-9.5c-0.7,0-1.3,0.5-1.3,1.2c0,0.7,0.5,1.2,1.3,1.2h3.5v10.5C1256.9-360.3,1257.4-359.8,1258.2-359.8z"/>
	</g>
	<g>
		<path class="st0" d="M1157-81.5h107c43.4,0,78.5,35.1,78.5,78.5l0,0c0,43.4-35.1,78.5-78.5,78.5h-107c-43.4,0-78.5-35.1-78.5-78.5
			l0,0C1078.5-46.4,1113.6-81.5,1157-81.5z"/>
		<path class="st1" d="M1264,77h-107c-44.1,0-80-35.9-80-80s35.9-80,80-80h107c44.1,0,80,35.9,80,80S1308.1,77,1264,77z M1157-80
			c-42.5,0-77,34.5-77,77s34.5,77,77,77h107c42.5,0,77-34.5,77-77s-34.5-77-77-77H1157z"/>
	</g>
	<g>
		<path class="st1" d="M1155.2-10.8c0.8,0,1.3-0.5,1.3-1.3v-3.9h3.4c2.9,0,5.1-1.8,5.1-4.6c0-2.8-2.2-4.6-5.1-4.6h-4.6
			c-0.8,0-1.3,0.5-1.3,1.3v11.7C1154-11.3,1154.5-10.8,1155.2-10.8z M1156.5-18.3v-4.3h3.5c1.4,0,2.4,0.9,2.4,2.2s-0.9,2.2-2.4,2.2
			H1156.5z M1169.2-10.8c0.8,0,1.3-0.5,1.3-1.3v-4h3.1l3.2,4.8c0.2,0.4,0.6,0.6,1.1,0.6c0.7,0,1.2-0.5,1.2-1.1c0-0.3-0.1-0.6-0.3-1
			l-2.5-3.7c1.7-0.7,2.7-2.1,2.7-4.1c0-2.7-2.1-4.5-4.9-4.5h-4.8c-0.8,0-1.3,0.5-1.3,1.3v11.7C1168-11.3,1168.5-10.8,1169.2-10.8z
			 M1170.5-18.5v-4.1h3.6c1.3,0,2.2,0.8,2.2,2.1c0,1.3-0.9,2.1-2.2,2.1H1170.5z M1189.1-10.7c4.2,0,7.2-3,7.2-7.3
			c0-4.3-3-7.3-7.2-7.3c-4.2,0-7.2,3-7.2,7.3C1181.9-13.7,1184.9-10.7,1189.1-10.7z M1184.5-18c0-2.8,1.9-4.8,4.6-4.8
			c2.7,0,4.6,1.9,4.6,4.8c0,2.8-1.9,4.8-4.6,4.8C1186.4-13.2,1184.5-15.2,1184.5-18z M1204.6-10.7c1.2,0,2-0.7,2.5-2.1l3.9-10.7
			c0-0.1,0.1-0.4,0.1-0.5c0-0.7-0.5-1.2-1.3-1.2c-0.6,0-1,0.4-1.2,0.9l-4,10.9l-4-10.9c-0.2-0.6-0.6-0.9-1.2-0.9
			c-0.8,0-1.3,0.5-1.3,1.2c0,0.1,0,0.4,0.1,0.5l3.9,10.7C1202.7-11.4,1203.5-10.7,1204.6-10.7z M1215.4-10.8c0.8,0,1.3-0.5,1.3-1.3
			V-24c0-0.8-0.5-1.3-1.3-1.3c-0.8,0-1.3,0.5-1.3,1.3v11.9C1214.2-11.3,1214.7-10.8,1215.4-10.8z M1222.2-11h4.5
			c4.1,0,6.8-2.9,6.8-7c0-4.1-2.7-7-6.8-7h-4.5c-0.8,0-1.3,0.5-1.3,1.3v11.5C1220.9-11.5,1221.4-11,1222.2-11z M1223.4-13.5v-9.1
			h3.3c2.5,0,4.2,1.9,4.2,4.6c0,2.7-1.7,4.6-4.2,4.6H1223.4z M1238.3-11h7.6c0.7,0,1.3-0.5,1.3-1.2s-0.5-1.2-1.3-1.2h-6.4v-3.4h5.7
			c0.7,0,1.2-0.5,1.2-1.2c0-0.7-0.5-1.2-1.2-1.2h-5.7v-3.3h6.3c0.7,0,1.3-0.5,1.3-1.2c0-0.7-0.5-1.2-1.3-1.2h-7.6
			c-0.8,0-1.3,0.5-1.3,1.3v11.5C1237.1-11.5,1237.6-11,1238.3-11z M1256.2-10.7c3.2,0,5.3-1.7,5.3-4.4c0-2.6-1.7-3.5-3.7-4l-2.5-0.6
			c-1.3-0.3-2.1-0.6-2.1-1.7c0-1.1,1-1.7,2.4-1.7c1.7,0,2.8,0.7,3.4,1.8c0.4,0.4,0.7,0.6,1.2,0.6c0.7,0,1.1-0.5,1.1-1.2
			c0-0.8-0.5-1.7-1.4-2.3c-1-0.6-2.3-1.2-4.1-1.2c-3.2,0-5.3,1.6-5.3,4.2c0,2.4,1.5,3.5,3.8,4l2.6,0.5c1.1,0.2,1.8,0.7,1.8,1.8
			c0,1.1-0.9,1.8-2.5,1.8c-2,0-3.1-0.7-4-2.1c-0.3-0.3-0.6-0.5-0.9-0.5c-0.7,0-1.2,0.5-1.2,1.2c0,0.8,0.6,1.8,1.4,2.4
			C1252.7-11.2,1254.1-10.7,1256.2-10.7z M1155.3,19.3c3.2,0,5.3-1.7,5.3-4.4c0-2.6-1.7-3.5-3.7-4l-2.5-0.6
			c-1.3-0.3-2.1-0.6-2.1-1.7c0-1.1,1-1.7,2.4-1.7c1.7,0,2.8,0.7,3.4,1.8c0.4,0.4,0.7,0.6,1.2,0.6c0.7,0,1.1-0.5,1.1-1.2
			c0-0.8-0.5-1.7-1.4-2.3c-1-0.6-2.3-1.2-4.1-1.2c-3.2,0-5.3,1.6-5.3,4.2c0,2.4,1.5,3.5,3.8,4l2.6,0.5c1.1,0.2,1.8,0.7,1.8,1.8
			c0,1.1-0.9,1.8-2.5,1.8c-2,0-3.1-0.7-4-2.1c-0.3-0.3-0.6-0.5-0.9-0.5c-0.7,0-1.2,0.5-1.2,1.2c0,0.8,0.6,1.8,1.4,2.4
			C1151.8,18.8,1153.2,19.3,1155.3,19.3z M1165.5,19.2c0.8,0,1.3-0.5,1.3-1.3V6c0-0.8-0.5-1.3-1.3-1.3c-0.8,0-1.3,0.5-1.3,1.3v11.9
			C1164.3,18.7,1164.8,19.2,1165.5,19.2z M1177.6,19.3c3.9,0,6.6-2.4,6.6-6.8c0-1-0.6-1.4-1.3-1.4h-5.4c-0.7,0-1.2,0.4-1.2,1.2
			c0,0.7,0.6,1.2,1.2,1.2h4.2c-0.1,2.1-1.6,3.3-3.9,3.3c-2.9,0-4.7-2-4.7-4.8c0-2.8,1.9-4.9,4.7-4.9c1.8,0,3.1,0.8,3.8,1.8
			c0.4,0.4,0.8,0.5,1.2,0.5c0.6,0,1.1-0.4,1.1-1.1c0-0.8-0.7-1.7-1.5-2.3c-1.1-0.8-2.6-1.3-4.6-1.3c-4.3,0-7.3,3-7.3,7.4
			C1170.3,16.3,1173.3,19.3,1177.6,19.3z M1189,19.2c0.8,0,1.3-0.5,1.3-1.3V9.1l6.2,8.9c0.6,0.8,1.1,1.1,1.7,1.1
			c0.9,0,1.5-0.7,1.5-1.6V6c0-0.8-0.5-1.3-1.3-1.3c-0.7,0-1.3,0.5-1.3,1.3v9l-6.2-9c-0.7-0.9-1.1-1.2-1.7-1.2
			c-0.9,0-1.5,0.6-1.5,1.6v11.6C1187.7,18.7,1188.2,19.2,1189,19.2z M1203.5,19.3c0.6,0,1-0.3,1.2-0.8l1.1-2.7h6.8l1.1,2.7
			c0.2,0.5,0.6,0.8,1.2,0.8c0.6,0,1.2-0.5,1.2-1.2c0-0.2,0-0.5-0.2-0.8l-4.3-10.6c-0.5-1.3-1.2-2-2.4-2c-1.2,0-1.9,0.6-2.4,2
			l-4.3,10.6c-0.1,0.3-0.2,0.6-0.2,0.8C1202.3,18.7,1202.8,19.3,1203.5,19.3z M1206.7,13.3l2.5-6.3l2.5,6.3H1206.7z M1222.1,19.2
			c0.8,0,1.3-0.5,1.3-1.3V7.4h3.5c0.7,0,1.3-0.5,1.3-1.2c0-0.7-0.5-1.2-1.3-1.2h-9.5c-0.7,0-1.3,0.5-1.3,1.2c0,0.7,0.5,1.2,1.3,1.2
			h3.5v10.5C1220.8,18.7,1221.3,19.2,1222.1,19.2z M1236.6,19.3c3.6,0,5.9-2.3,5.9-5.8V6c0-0.8-0.5-1.3-1.3-1.3
			c-0.7,0-1.2,0.5-1.2,1.3v7.3c0,2.1-1.3,3.5-3.3,3.5c-2,0-3.3-1.4-3.3-3.5V6c0-0.8-0.5-1.3-1.2-1.3c-0.8,0-1.3,0.5-1.3,1.3v7.5
			C1230.7,17,1233,19.3,1236.6,19.3z M1247.6,19.2c0.8,0,1.3-0.5,1.3-1.3v-4h3.1l3.2,4.8c0.2,0.4,0.6,0.6,1.1,0.6
			c0.7,0,1.2-0.5,1.2-1.1c0-0.3-0.1-0.6-0.3-1l-2.5-3.7c1.7-0.7,2.7-2.1,2.7-4.1c0-2.7-2.1-4.5-4.9-4.5h-4.8c-0.8,0-1.3,0.5-1.3,1.3
			v11.7C1246.4,18.7,1246.9,19.2,1247.6,19.2z M1248.9,11.5V7.3h3.6c1.3,0,2.2,0.8,2.2,2.1c0,1.3-0.9,2.1-2.2,2.1H1248.9z
			 M1262.5,19h7.6c0.7,0,1.3-0.5,1.3-1.2s-0.5-1.2-1.3-1.2h-6.4v-3.4h5.7c0.7,0,1.2-0.5,1.2-1.2c0-0.7-0.5-1.2-1.2-1.2h-5.7V7.4h6.3
			c0.7,0,1.3-0.5,1.3-1.2c0-0.7-0.5-1.2-1.3-1.2h-7.6c-0.8,0-1.3,0.5-1.3,1.3v11.5C1261.3,18.5,1261.8,19,1262.5,19z"/>
	</g>
	<g>
		<path class="st0" d="M1157,199.5h107c43.4,0,78.5,35.1,78.5,78.5l0,0c0,43.4-35.1,78.5-78.5,78.5h-107
			c-43.4,0-78.5-35.1-78.5-78.5l0,0C1078.5,234.6,1113.6,199.5,1157,199.5z"/>
		<path class="st1" d="M1264,358h-107c-44.1,0-80-35.9-80-80s35.9-80,80-80h107c44.1,0,80,35.9,80,80S1308.1,358,1264,358z
			 M1157,201c-42.5,0-77,34.5-77,77s34.5,77,77,77h107c42.5,0,77-34.5,77-77s-34.5-77-77-77H1157z"/>
	</g>
	<g>
		<path class="st1" d="M1149.8,270.2c0.8,0,1.3-0.5,1.3-1.3v-3.9h3.4c2.9,0,5.1-1.8,5.1-4.6c0-2.8-2.2-4.6-5.1-4.6h-4.6
			c-0.8,0-1.3,0.5-1.3,1.3v11.7C1148.6,269.7,1149.1,270.2,1149.8,270.2z M1151.1,262.7v-4.3h3.5c1.4,0,2.4,0.9,2.4,2.2
			s-0.9,2.2-2.4,2.2H1151.1z M1168.2,270.3c3.6,0,5.8-2.3,5.8-5.8V257c0-0.8-0.5-1.3-1.3-1.3c-0.7,0-1.2,0.5-1.2,1.3v7.3
			c0,2.1-1.3,3.5-3.3,3.5c-2,0-3.3-1.4-3.3-3.5V257c0-0.8-0.5-1.3-1.2-1.3c-0.8,0-1.3,0.5-1.3,1.3v7.5
			C1162.4,268,1164.7,270.3,1168.2,270.3z M1179.3,270L1179.3,270h5.1c2.9,0,4.8-1.7,4.8-4.2c0-1.4-0.8-2.5-2.2-3
			c1.3-0.5,2.1-1.6,2.1-2.9c0-2.4-1.8-4-4.7-4h-5.1c-0.8,0-1.2,0.5-1.2,1.3v11.5C1178,269.4,1178.5,270,1179.3,270z M1180.5,267.6
			v-3.7h3.8c1.4,0,2.2,0.7,2.2,1.8c0,1.2-0.8,1.9-2.2,1.9H1180.5z M1180.5,261.8v-3.4h3.7c1.4,0,2.2,0.7,2.2,1.8
			c0,1-0.8,1.7-2.2,1.7H1180.5z M1194.1,270h7.2c0.7,0,1.3-0.5,1.3-1.2s-0.5-1.2-1.3-1.2h-5.9V257c0-0.8-0.5-1.3-1.3-1.3
			c-0.8,0-1.3,0.5-1.3,1.3v11.7C1192.8,269.5,1193.4,270,1194.1,270z M1206.6,270.2c0.8,0,1.3-0.5,1.3-1.3V257
			c0-0.8-0.5-1.3-1.3-1.3c-0.8,0-1.3,0.5-1.3,1.3v11.9C1205.4,269.7,1205.9,270.2,1206.6,270.2z M1217.4,270.3
			c3.2,0,5.3-1.7,5.3-4.4c0-2.6-1.7-3.5-3.7-4l-2.5-0.5c-1.3-0.3-2.1-0.6-2.1-1.7c0-1.1,1-1.7,2.4-1.7c1.7,0,2.8,0.7,3.4,1.8
			c0.4,0.3,0.7,0.6,1.2,0.6c0.7,0,1.1-0.5,1.1-1.2c0-0.8-0.5-1.7-1.4-2.3c-1-0.6-2.3-1.2-4.1-1.2c-3.2,0-5.3,1.7-5.3,4.2
			c0,2.4,1.5,3.5,3.8,4l2.6,0.5c1.1,0.2,1.8,0.7,1.8,1.8c0,1.1-0.9,1.8-2.5,1.8c-2,0-3.1-0.7-4-2.1c-0.3-0.3-0.6-0.5-0.9-0.5
			c-0.7,0-1.2,0.6-1.2,1.2c0,0.8,0.6,1.8,1.4,2.4C1213.9,269.8,1215.3,270.3,1217.4,270.3z M1237,270.2c0.8,0,1.3-0.5,1.3-1.3V257
			c0-0.8-0.5-1.3-1.3-1.3c-0.8,0-1.3,0.5-1.3,1.3v4.7h-6.8V257c0-0.8-0.5-1.3-1.3-1.3c-0.8,0-1.3,0.5-1.3,1.3v11.9
			c0,0.8,0.5,1.3,1.3,1.3c0.8,0,1.3-0.5,1.3-1.3v-4.8h6.8v4.8C1235.7,269.7,1236.2,270.2,1237,270.2z M1243.7,270h7.6
			c0.7,0,1.3-0.5,1.3-1.2s-0.5-1.2-1.3-1.2h-6.4v-3.4h5.7c0.7,0,1.2-0.5,1.2-1.2c0-0.7-0.5-1.2-1.2-1.2h-5.7v-3.3h6.3
			c0.7,0,1.3-0.5,1.3-1.2c0-0.7-0.5-1.2-1.3-1.2h-7.6c-0.8,0-1.3,0.5-1.3,1.3v11.5C1242.4,269.5,1242.9,270,1243.7,270z
			 M1261.6,270.3c3.2,0,5.3-1.7,5.3-4.4c0-2.6-1.7-3.5-3.7-4l-2.5-0.5c-1.3-0.3-2-0.6-2-1.7c0-1.1,1-1.7,2.4-1.7
			c1.7,0,2.8,0.7,3.4,1.8c0.4,0.3,0.7,0.6,1.2,0.6c0.7,0,1.1-0.5,1.1-1.2c0-0.8-0.5-1.7-1.4-2.3c-1-0.6-2.3-1.2-4.1-1.2
			c-3.2,0-5.3,1.7-5.3,4.2c0,2.4,1.5,3.5,3.8,4l2.6,0.5c1.1,0.2,1.8,0.7,1.8,1.8c0,1.1-0.9,1.8-2.5,1.8c-2,0-3.1-0.7-4-2.1
			c-0.3-0.3-0.6-0.5-0.9-0.5c-0.7,0-1.2,0.6-1.2,1.2c0,0.8,0.6,1.8,1.4,2.4C1258.1,269.8,1259.5,270.3,1261.6,270.3z M1155.3,300.3
			c3.2,0,5.3-1.7,5.3-4.4c0-2.6-1.7-3.5-3.7-4l-2.5-0.5c-1.3-0.3-2.1-0.6-2.1-1.7c0-1.1,1-1.7,2.4-1.7c1.7,0,2.8,0.7,3.4,1.8
			c0.4,0.3,0.7,0.6,1.2,0.6c0.7,0,1.1-0.5,1.1-1.2c0-0.8-0.5-1.7-1.4-2.3c-1-0.6-2.3-1.2-4.1-1.2c-3.2,0-5.3,1.7-5.3,4.2
			c0,2.4,1.5,3.5,3.8,4l2.6,0.5c1.1,0.2,1.8,0.7,1.8,1.8c0,1.1-0.9,1.8-2.5,1.8c-2,0-3.1-0.7-4-2.1c-0.3-0.3-0.6-0.5-0.9-0.5
			c-0.7,0-1.2,0.6-1.2,1.2c0,0.8,0.6,1.8,1.4,2.4C1151.8,299.8,1153.2,300.3,1155.3,300.3z M1165.5,300.2c0.8,0,1.3-0.5,1.3-1.3V287
			c0-0.8-0.5-1.3-1.3-1.3c-0.8,0-1.3,0.5-1.3,1.3v11.9C1164.3,299.7,1164.8,300.2,1165.5,300.2z M1177.6,300.3
			c3.9,0,6.6-2.4,6.6-6.8c0-1-0.6-1.4-1.3-1.4h-5.4c-0.7,0-1.2,0.4-1.2,1.2c0,0.7,0.6,1.2,1.2,1.2h4.2c-0.1,2.1-1.6,3.3-3.9,3.3
			c-2.9,0-4.7-2-4.7-4.8c0-2.8,1.9-4.9,4.7-4.9c1.8,0,3.1,0.8,3.8,1.8c0.4,0.4,0.8,0.5,1.2,0.5c0.6,0,1.1-0.4,1.1-1.1
			c0-0.8-0.7-1.7-1.5-2.3c-1.1-0.8-2.6-1.3-4.6-1.3c-4.3,0-7.3,3-7.3,7.4C1170.3,297.3,1173.3,300.3,1177.6,300.3z M1189,300.2
			c0.8,0,1.3-0.5,1.3-1.3v-8.8l6.2,8.9c0.6,0.8,1.1,1.1,1.7,1.1c0.9,0,1.5-0.6,1.5-1.6V287c0-0.8-0.5-1.3-1.3-1.3
			c-0.7,0-1.3,0.5-1.3,1.3v9l-6.2-9c-0.7-0.9-1.1-1.2-1.7-1.2c-0.9,0-1.5,0.7-1.5,1.6v11.6C1187.7,299.7,1188.2,300.2,1189,300.2z
			 M1203.5,300.2c0.6,0,1-0.3,1.2-0.8l1.1-2.7h6.8l1.1,2.7c0.2,0.5,0.6,0.8,1.2,0.8c0.6,0,1.2-0.5,1.2-1.2c0-0.2,0-0.5-0.2-0.8
			l-4.3-10.6c-0.5-1.3-1.2-2-2.4-2c-1.2,0-1.9,0.6-2.4,2l-4.3,10.6c-0.1,0.3-0.2,0.6-0.2,0.8
			C1202.3,299.7,1202.8,300.2,1203.5,300.2z M1206.7,294.3l2.5-6.3l2.5,6.3H1206.7z M1222.1,300.2c0.8,0,1.3-0.5,1.3-1.3v-10.5h3.5
			c0.7,0,1.3-0.5,1.3-1.2c0-0.7-0.5-1.2-1.3-1.2h-9.5c-0.7,0-1.3,0.5-1.3,1.2c0,0.7,0.5,1.2,1.3,1.2h3.5v10.5
			C1220.8,299.7,1221.3,300.2,1222.1,300.2z M1236.6,300.3c3.6,0,5.9-2.3,5.9-5.8V287c0-0.8-0.5-1.3-1.3-1.3c-0.7,0-1.2,0.5-1.2,1.3
			v7.3c0,2.1-1.3,3.5-3.3,3.5c-2,0-3.3-1.4-3.3-3.5V287c0-0.8-0.5-1.3-1.2-1.3c-0.8,0-1.3,0.5-1.3,1.3v7.5
			C1230.7,298,1233,300.3,1236.6,300.3z M1247.6,300.2c0.8,0,1.3-0.5,1.3-1.3v-4.1h3.1l3.2,4.8c0.2,0.3,0.6,0.6,1.1,0.6
			c0.7,0,1.2-0.5,1.2-1.1c0-0.3-0.1-0.6-0.3-1l-2.5-3.7c1.7-0.7,2.7-2.1,2.7-4.1c0-2.7-2.1-4.5-4.9-4.5h-4.8c-0.8,0-1.3,0.5-1.3,1.3
			v11.7C1246.4,299.7,1246.9,300.2,1247.6,300.2z M1248.9,292.5v-4.1h3.6c1.3,0,2.2,0.8,2.2,2.1c0,1.3-0.9,2.1-2.2,2.1H1248.9z
			 M1262.5,300h7.6c0.7,0,1.3-0.5,1.3-1.2s-0.5-1.2-1.3-1.2h-6.4v-3.4h5.7c0.7,0,1.2-0.5,1.2-1.2c0-0.7-0.5-1.2-1.2-1.2h-5.7v-3.3
			h6.3c0.7,0,1.3-0.5,1.3-1.2c0-0.7-0.5-1.2-1.3-1.2h-7.6c-0.8,0-1.3,0.5-1.3,1.3v11.5C1261.3,299.5,1261.8,300,1262.5,300z"/>
	</g>
	<g>
		<path class="st0" d="M1639,671.5h107c43.4,0,78.5,35.1,78.5,78.5l0,0c0,43.4-35.1,78.5-78.5,78.5h-107
			c-43.4,0-78.5-35.1-78.5-78.5l0,0C1560.5,706.6,1595.6,671.5,1639,671.5z"/>
		<path class="st1" d="M1746,830h-107c-44.1,0-80-35.9-80-80s35.9-80,80-80h107c44.1,0,80,35.9,80,80S1790.1,830,1746,830z
			 M1639,673c-42.5,0-77,34.5-77,77s34.5,77,77,77h107c42.5,0,77-34.5,77-77s-34.5-77-77-77H1639z"/>
	</g>
	<g>
		<path class="st1" d="M1596.2,742.2c0.8,0,1.3-0.5,1.3-1.3v-4.5h5.6c0.7,0,1.3-0.5,1.3-1.2c0-0.7-0.5-1.2-1.3-1.2h-5.6v-3.5h6.4
			c0.7,0,1.3-0.5,1.3-1.2c0-0.7-0.5-1.2-1.3-1.2h-7.6c-0.8,0-1.3,0.5-1.3,1.3v11.7C1594.9,741.7,1595.4,742.2,1596.2,742.2z
			 M1609.2,742.2c0.8,0,1.3-0.5,1.3-1.3V729c0-0.8-0.5-1.3-1.3-1.3c-0.8,0-1.3,0.5-1.3,1.3v11.9
			C1608,741.7,1608.5,742.2,1609.2,742.2z M1616,742.2c0.8,0,1.3-0.5,1.3-1.3v-8.8l6.2,8.9c0.6,0.8,1.1,1.1,1.7,1.1
			c0.9,0,1.5-0.6,1.5-1.6V729c0-0.8-0.5-1.3-1.3-1.3c-0.7,0-1.3,0.5-1.3,1.3v9l-6.2-9c-0.7-0.9-1.1-1.2-1.7-1.2
			c-0.9,0-1.5,0.7-1.5,1.6v11.6C1614.7,741.7,1615.2,742.2,1616,742.2z M1632.2,742h4.5c4.1,0,6.8-2.9,6.8-7c0-4.1-2.7-7-6.8-7h-4.5
			c-0.8,0-1.3,0.5-1.3,1.3v11.5C1630.9,741.5,1631.4,742,1632.2,742z M1633.4,739.5v-9.1h3.2c2.5,0,4.2,1.9,4.2,4.6
			c0,2.7-1.7,4.6-4.2,4.6H1633.4z M1646.2,743.3c0.7,0,1-0.5,1.3-1.2l6.9-13.7c0.1-0.2,0.2-0.5,0.2-0.7c0-0.7-0.5-1.1-1.2-1.1
			c-0.7,0-1,0.4-1.3,1.2l-6.8,13.7c-0.1,0.2-0.2,0.5-0.2,0.7C1645,742.8,1645.5,743.3,1646.2,743.3z M1658.7,742h4.5
			c4.1,0,6.8-2.9,6.8-7c0-4.1-2.7-7-6.8-7h-4.5c-0.8,0-1.3,0.5-1.3,1.3v11.5C1657.4,741.5,1657.9,742,1658.7,742z M1660,739.5v-9.1
			h3.2c2.5,0,4.2,1.9,4.2,4.6c0,2.7-1.7,4.6-4.2,4.6H1660z M1680.2,742.3c4.2,0,7.2-3,7.2-7.3c0-4.3-3-7.3-7.2-7.3
			c-4.2,0-7.2,3-7.2,7.3C1672.9,739.3,1675.9,742.3,1680.2,742.3z M1675.5,735c0-2.8,1.9-4.8,4.6-4.8c2.7,0,4.6,1.9,4.6,4.8
			c0,2.8-1.9,4.8-4.6,4.8C1677.4,739.8,1675.5,737.8,1675.5,735z M1694.5,742.3c1.2,0,2-1,2.4-2.5l2.5-8.8l2.5,8.8
			c0.4,1.5,1.2,2.5,2.4,2.5c1.2,0,2.1-0.9,2.4-2.4l2.6-10.3c0.1-0.2,0.1-0.4,0.1-0.6c0-0.7-0.6-1.3-1.3-1.3c-0.7,0-1.2,0.4-1.3,1
			l-2.5,10.7l-2.8-9.8c-0.3-1.1-1-1.9-2-1.9s-1.7,0.8-2,1.9l-2.8,9.8l-2.5-10.7c-0.1-0.6-0.6-1-1.3-1c-0.7,0-1.3,0.6-1.3,1.3
			c0,0.1,0,0.3,0.1,0.6l2.6,10.4C1692.5,741.3,1693.3,742.3,1694.5,742.3z M1713.6,742.2c0.8,0,1.3-0.5,1.3-1.3v-8.8l6.2,8.9
			c0.6,0.8,1.1,1.1,1.7,1.1c0.9,0,1.5-0.6,1.5-1.6V729c0-0.8-0.5-1.3-1.3-1.3c-0.7,0-1.3,0.5-1.3,1.3v9l-6.2-9
			c-0.7-0.9-1.1-1.2-1.7-1.2c-0.9,0-1.5,0.7-1.5,1.6v11.6C1712.3,741.7,1712.8,742.2,1713.6,742.2z M1729.8,742h7.2
			c0.7,0,1.3-0.5,1.3-1.2s-0.5-1.2-1.3-1.2h-5.9V729c0-0.8-0.5-1.3-1.3-1.3s-1.3,0.5-1.3,1.3v11.7C1728.5,741.5,1729,742,1729.8,742
			z M1747,742.3c4.2,0,7.2-3,7.2-7.3c0-4.3-3-7.3-7.2-7.3s-7.2,3-7.2,7.3C1739.7,739.3,1742.7,742.3,1747,742.3z M1742.3,735
			c0-2.8,2-4.8,4.6-4.8c2.7,0,4.6,1.9,4.6,4.8c0,2.8-1.9,4.8-4.6,4.8C1744.3,739.8,1742.3,737.8,1742.3,735z M1756.9,742.2
			c0.6,0,1-0.3,1.2-0.8l1.1-2.7h6.9l1.1,2.7c0.2,0.5,0.6,0.8,1.2,0.8s1.2-0.5,1.2-1.2c0-0.2-0.1-0.5-0.2-0.8l-4.3-10.6
			c-0.6-1.3-1.2-2-2.4-2s-1.9,0.6-2.4,2l-4.3,10.6c-0.1,0.3-0.2,0.6-0.2,0.8C1755.7,741.7,1756.2,742.2,1756.9,742.2z M1760.1,736.3
			l2.5-6.3l2.5,6.3H1760.1z M1773.4,742h4.5c4.1,0,6.8-2.9,6.8-7c0-4.1-2.7-7-6.8-7h-4.5c-0.8,0-1.3,0.5-1.3,1.3v11.5
			C1772.1,741.5,1772.6,742,1773.4,742z M1774.7,739.5v-9.1h3.2c2.5,0,4.2,1.9,4.2,4.6c0,2.7-1.6,4.6-4.2,4.6H1774.7z M1634.4,772.2
			c0.6,0,1.1-0.3,1.2-0.8l1.1-2.7h6.8l1.1,2.7c0.2,0.5,0.6,0.8,1.2,0.8s1.2-0.5,1.2-1.2c0-0.2-0.1-0.5-0.2-0.8l-4.3-10.6
			c-0.5-1.3-1.2-2-2.4-2c-1.2,0-1.9,0.6-2.4,2l-4.3,10.6c-0.1,0.3-0.2,0.6-0.2,0.8C1633.2,771.7,1633.8,772.2,1634.4,772.2z
			 M1637.7,766.3l2.5-6.3l2.5,6.3H1637.7z M1650.9,772.2c0.8,0,1.3-0.5,1.3-1.3v-4.1h3.1l3.2,4.8c0.2,0.3,0.6,0.6,1.1,0.6
			c0.7,0,1.2-0.5,1.2-1.1c0-0.3-0.1-0.6-0.3-1l-2.5-3.7c1.6-0.7,2.7-2.1,2.7-4.1c0-2.7-2.1-4.5-4.9-4.5h-4.8c-0.8,0-1.3,0.5-1.3,1.3
			v11.7C1649.7,771.7,1650.2,772.2,1650.9,772.2z M1652.2,764.5v-4.1h3.6c1.3,0,2.2,0.8,2.2,2.1c0,1.3-0.9,2.1-2.2,2.1H1652.2z
			 M1668.7,772.2c0.8,0,1.3-0.5,1.3-1.3v-10.5h3.5c0.7,0,1.3-0.5,1.3-1.2c0-0.7-0.5-1.2-1.3-1.2h-9.5c-0.7,0-1.3,0.5-1.3,1.2
			c0,0.7,0.5,1.2,1.3,1.2h3.5v10.5C1667.4,771.7,1668,772.2,1668.7,772.2z M1678.9,772.2c0.8,0,1.3-0.5,1.3-1.3V759
			c0-0.8-0.5-1.3-1.3-1.3c-0.8,0-1.3,0.5-1.3,1.3v11.9C1677.6,771.7,1678.1,772.2,1678.9,772.2z M1685.6,772.2
			c0.8,0,1.3-0.5,1.3-1.3v-4.5h5.6c0.7,0,1.3-0.5,1.3-1.2c0-0.7-0.5-1.2-1.3-1.2h-5.6v-3.5h6.4c0.7,0,1.3-0.5,1.3-1.2
			c0-0.7-0.5-1.2-1.3-1.2h-7.6c-0.8,0-1.3,0.5-1.3,1.3v11.7C1684.3,771.7,1684.8,772.2,1685.6,772.2z M1696,772.2
			c0.6,0,1-0.3,1.2-0.8l1.1-2.7h6.9l1.1,2.7c0.2,0.5,0.6,0.8,1.2,0.8c0.6,0,1.2-0.5,1.2-1.2c0-0.2,0-0.5-0.2-0.8l-4.3-10.6
			c-0.6-1.3-1.2-2-2.4-2s-1.9,0.6-2.4,2l-4.3,10.6c-0.1,0.3-0.2,0.6-0.2,0.8C1694.8,771.7,1695.3,772.2,1696,772.2z M1699.3,766.3
			l2.5-6.3l2.5,6.3H1699.3z M1717.2,772.3c2.3,0,4.2-0.8,5.4-2.2c0.5-0.6,0.8-1.4,0.8-1.9c0-0.7-0.5-1.2-1.2-1.2
			c-0.4,0-0.8,0.2-1.2,0.7c-0.8,1.4-2.1,2.2-3.9,2.2c-2.7,0-4.5-2-4.5-4.8c0-2.8,1.8-4.8,4.5-4.8c1.8,0,3.1,0.8,3.9,2.1
			c0.4,0.5,0.8,0.7,1.2,0.7c0.7,0,1.2-0.6,1.2-1.2c0-0.6-0.4-1.4-0.9-2c-1.3-1.5-3.1-2.2-5.4-2.2c-4.2,0-7.1,3-7.1,7.3
			C1710.1,769.3,1713.1,772.3,1717.2,772.3z M1731.5,772.2c0.8,0,1.3-0.5,1.3-1.3v-10.5h3.5c0.7,0,1.3-0.5,1.3-1.2
			c0-0.7-0.5-1.2-1.3-1.2h-9.5c-0.7,0-1.3,0.5-1.3,1.2c0,0.7,0.5,1.2,1.3,1.2h3.5v10.5C1730.2,771.7,1730.7,772.2,1731.5,772.2z
			 M1745.3,772.3c3.2,0,5.3-1.7,5.3-4.4c0-2.6-1.7-3.5-3.7-4l-2.5-0.5c-1.3-0.3-2.1-0.6-2.1-1.7c0-1.1,1-1.7,2.4-1.7
			c1.7,0,2.8,0.7,3.4,1.8c0.4,0.3,0.7,0.6,1.2,0.6c0.7,0,1.1-0.5,1.1-1.2c0-0.8-0.5-1.7-1.4-2.3c-1-0.6-2.3-1.2-4.1-1.2
			c-3.2,0-5.3,1.7-5.3,4.2c0,2.4,1.4,3.5,3.8,4l2.6,0.5c1.1,0.2,1.8,0.7,1.8,1.8c0,1.1-0.9,1.8-2.5,1.8c-1.9,0-3.1-0.7-4-2.1
			c-0.3-0.3-0.6-0.5-0.9-0.5c-0.7,0-1.2,0.6-1.2,1.2c0,0.8,0.6,1.8,1.4,2.4C1741.9,771.8,1743.2,772.3,1745.3,772.3z"/>
	</g>
	<g>
		<path class="st0" d="M662,671.5h107c43.4,0,78.5,35.1,78.5,78.5l0,0c0,43.4-35.1,78.5-78.5,78.5H662c-43.4,0-78.5-35.1-78.5-78.5
			l0,0C583.5,706.6,618.6,671.5,662,671.5z"/>
		<path class="st1" d="M769,830H662c-44.1,0-80-35.9-80-80s35.9-80,80-80h107c44.1,0,80,35.9,80,80S813.1,830,769,830z M662,673
			c-42.5,0-77,34.5-77,77s34.5,77,77,77h107c42.5,0,77-34.5,77-77s-34.5-77-77-77H662z"/>
	</g>
	<g>
		<path class="st1" d="M651.1,727.3c2.3,0,4.2-0.8,5.4-2.2c0.5-0.6,0.8-1.4,0.8-1.9c0-0.7-0.5-1.2-1.2-1.2c-0.4,0-0.8,0.2-1.2,0.7
			c-0.8,1.4-2.1,2.2-3.9,2.2c-2.6,0-4.5-2-4.5-4.8c0-2.8,1.8-4.8,4.5-4.8c1.8,0,3.1,0.8,3.9,2.1c0.4,0.5,0.8,0.7,1.2,0.7
			c0.7,0,1.2-0.6,1.2-1.2c0-0.6-0.4-1.4-0.9-2c-1.3-1.5-3.1-2.2-5.4-2.2c-4.2,0-7.1,3-7.1,7.3C644,724.3,647,727.3,651.1,727.3z
			 M671.4,727.2c0.8,0,1.3-0.5,1.3-1.3V714c0-0.8-0.5-1.3-1.3-1.3s-1.3,0.5-1.3,1.3v4.7h-6.8V714c0-0.8-0.5-1.3-1.3-1.3
			c-0.8,0-1.3,0.5-1.3,1.3v11.9c0,0.8,0.5,1.3,1.3,1.3c0.8,0,1.3-0.5,1.3-1.3v-4.8h6.8v4.8C670.1,726.7,670.6,727.2,671.4,727.2z
			 M678.1,727h7.6c0.7,0,1.3-0.5,1.3-1.2s-0.5-1.2-1.3-1.2h-6.4v-3.4h5.7c0.7,0,1.2-0.5,1.2-1.2c0-0.7-0.5-1.2-1.2-1.2h-5.7v-3.3
			h6.3c0.7,0,1.3-0.5,1.3-1.2c0-0.7-0.5-1.2-1.3-1.2h-7.6c-0.8,0-1.3,0.5-1.3,1.3v11.5C676.9,726.5,677.4,727,678.1,727z M697,727.3
			c2.3,0,4.2-0.8,5.4-2.2c0.5-0.6,0.8-1.4,0.8-1.9c0-0.7-0.5-1.2-1.2-1.2c-0.4,0-0.8,0.2-1.2,0.7c-0.8,1.4-2.1,2.2-3.9,2.2
			c-2.6,0-4.5-2-4.5-4.8c0-2.8,1.8-4.8,4.5-4.8c1.8,0,3.1,0.8,3.9,2.1c0.4,0.5,0.8,0.7,1.2,0.7c0.7,0,1.2-0.6,1.2-1.2
			c0-0.6-0.4-1.4-0.9-2c-1.3-1.5-3.1-2.2-5.4-2.2c-4.2,0-7.1,3-7.1,7.3C689.9,724.3,692.8,727.3,697,727.3z M707.9,727.2
			c0.8,0,1.3-0.5,1.3-1.3v-3.3l2.2-2l4.8,6c0.3,0.4,0.8,0.6,1.2,0.6c0.7,0,1.2-0.5,1.2-1c0-0.4-0.1-0.6-0.5-1.1l-4.8-6.1l4.3-3.9
			c0.5-0.5,0.7-0.8,0.7-1.3c0-0.5-0.5-1-1.1-1c-0.5,0-0.8,0.2-1.1,0.4l-6.9,6.3V714c0-0.8-0.5-1.3-1.3-1.3s-1.3,0.5-1.3,1.3v11.9
			C706.7,726.7,707.2,727.2,707.9,727.2z M732.4,727.2c0.8,0,1.3-0.5,1.3-1.3v-10.5h3.5c0.7,0,1.3-0.5,1.3-1.2
			c0-0.7-0.5-1.2-1.3-1.2h-9.5c-0.7,0-1.3,0.5-1.3,1.2c0,0.7,0.5,1.2,1.3,1.2h3.5v10.5C731.1,726.7,731.7,727.2,732.4,727.2z
			 M751.9,727.2c0.8,0,1.3-0.5,1.3-1.3V714c0-0.8-0.5-1.3-1.3-1.3s-1.3,0.5-1.3,1.3v4.7h-6.8V714c0-0.8-0.5-1.3-1.3-1.3
			c-0.8,0-1.3,0.5-1.3,1.3v11.9c0,0.8,0.5,1.3,1.3,1.3c0.8,0,1.3-0.5,1.3-1.3v-4.8h6.8v4.8C750.6,726.7,751.2,727.2,751.9,727.2z
			 M756.9,727.2c0.6,0,1-0.3,1.2-0.8l1.1-2.7h6.8l1.1,2.7c0.2,0.5,0.6,0.8,1.2,0.8c0.6,0,1.2-0.5,1.2-1.2c0-0.2,0-0.5-0.2-0.8
			l-4.3-10.6c-0.5-1.3-1.2-2-2.4-2c-1.2,0-1.9,0.6-2.4,2l-4.3,10.6c-0.1,0.3-0.2,0.6-0.2,0.8C755.7,726.7,756.3,727.2,756.9,727.2z
			 M760.2,721.3l2.5-6.3l2.5,6.3H760.2z M775.5,727.2c0.8,0,1.3-0.5,1.3-1.3v-10.5h3.5c0.7,0,1.3-0.5,1.3-1.2c0-0.7-0.5-1.2-1.3-1.2
			h-9.5c-0.7,0-1.3,0.5-1.3,1.2c0,0.7,0.5,1.2,1.3,1.2h3.5v10.5C774.3,726.7,774.8,727.2,775.5,727.2z M621.8,757.3
			c3.2,0,5.3-1.7,5.3-4.4c0-2.6-1.7-3.5-3.7-4l-2.5-0.5c-1.3-0.3-2.1-0.6-2.1-1.7c0-1.1,1-1.7,2.4-1.7c1.7,0,2.8,0.7,3.4,1.8
			c0.4,0.3,0.7,0.6,1.2,0.6c0.7,0,1.1-0.5,1.1-1.2c0-0.8-0.5-1.7-1.4-2.3c-1-0.6-2.3-1.2-4.1-1.2c-3.2,0-5.3,1.7-5.3,4.2
			c0,2.4,1.5,3.5,3.8,4l2.6,0.5c1.1,0.2,1.8,0.7,1.8,1.8c0,1.1-0.9,1.8-2.5,1.8c-2,0-3.1-0.7-4-2.1c-0.3-0.3-0.6-0.5-0.9-0.5
			c-0.7,0-1.2,0.6-1.2,1.2c0,0.8,0.6,1.8,1.4,2.4C618.3,756.8,619.7,757.3,621.8,757.3z M632,757.2c0.8,0,1.3-0.5,1.3-1.3V744
			c0-0.8-0.5-1.3-1.3-1.3c-0.8,0-1.3,0.5-1.3,1.3v11.9C630.8,756.7,631.3,757.2,632,757.2z M644.1,757.3c3.9,0,6.6-2.4,6.6-6.8
			c0-1-0.6-1.4-1.3-1.4h-5.4c-0.7,0-1.2,0.4-1.2,1.2c0,0.7,0.6,1.2,1.2,1.2h4.2c-0.1,2.1-1.6,3.3-3.9,3.3c-2.9,0-4.7-2-4.7-4.8
			c0-2.8,1.9-4.9,4.7-4.9c1.8,0,3.1,0.8,3.8,1.8c0.4,0.4,0.8,0.5,1.2,0.5c0.6,0,1.1-0.4,1.1-1.1c0-0.8-0.7-1.7-1.5-2.3
			c-1.1-0.8-2.6-1.3-4.6-1.3c-4.3,0-7.3,3-7.3,7.4C636.8,754.3,639.8,757.3,644.1,757.3z M655.5,757.2c0.8,0,1.3-0.5,1.3-1.3v-8.8
			l6.2,8.9c0.6,0.8,1.1,1.1,1.7,1.1c0.9,0,1.5-0.6,1.5-1.6V744c0-0.8-0.5-1.3-1.3-1.3c-0.7,0-1.3,0.5-1.3,1.3v9l-6.2-9
			c-0.7-0.9-1.1-1.2-1.7-1.2c-0.9,0-1.5,0.7-1.5,1.6v11.6C654.2,756.7,654.7,757.2,655.5,757.2z M671.7,757.2c0.8,0,1.3-0.5,1.3-1.3
			V744c0-0.8-0.5-1.3-1.3-1.3c-0.8,0-1.3,0.5-1.3,1.3v11.9C670.4,756.7,670.9,757.2,671.7,757.2z M678.4,757.2
			c0.8,0,1.3-0.5,1.3-1.3v-8.8l6.2,8.9c0.6,0.8,1.1,1.1,1.7,1.1c0.9,0,1.5-0.6,1.5-1.6V744c0-0.8-0.5-1.3-1.3-1.3
			c-0.7,0-1.3,0.5-1.3,1.3v9l-6.2-9c-0.7-0.9-1.1-1.2-1.7-1.2c-0.9,0-1.5,0.7-1.5,1.6v11.6C677.1,756.7,677.6,757.2,678.4,757.2z
			 M699.9,757.3c3.9,0,6.6-2.4,6.6-6.8c0-1-0.6-1.4-1.3-1.4h-5.4c-0.7,0-1.2,0.4-1.2,1.2c0,0.7,0.6,1.2,1.2,1.2h4.2
			c-0.1,2.1-1.6,3.3-3.9,3.3c-2.9,0-4.7-2-4.7-4.8c0-2.8,1.9-4.9,4.7-4.9c1.8,0,3.1,0.8,3.8,1.8c0.4,0.4,0.8,0.5,1.2,0.5
			c0.6,0,1.1-0.4,1.1-1.1c0-0.8-0.7-1.7-1.5-2.3c-1.1-0.8-2.6-1.3-4.6-1.3c-4.3,0-7.3,3-7.3,7.4
			C692.6,754.3,695.6,757.3,699.9,757.3z M717.3,757.2c0.8,0,1.3-0.5,1.3-1.3v-3.9h3.4c2.9,0,5.1-1.8,5.1-4.6c0-2.8-2.2-4.6-5.1-4.6
			h-4.6c-0.8,0-1.3,0.5-1.3,1.3v11.7C716.1,756.7,716.6,757.2,717.3,757.2z M718.6,749.7v-4.3h3.5c1.4,0,2.4,0.9,2.4,2.2
			s-0.9,2.2-2.4,2.2H718.6z M728.5,757.2c0.6,0,1-0.3,1.2-0.8l1.1-2.7h6.8l1.1,2.7c0.2,0.5,0.6,0.8,1.2,0.8c0.6,0,1.2-0.5,1.2-1.2
			c0-0.2,0-0.5-0.2-0.8l-4.3-10.6c-0.5-1.3-1.2-2-2.4-2c-1.2,0-1.9,0.6-2.4,2l-4.3,10.6c-0.1,0.3-0.2,0.6-0.2,0.8
			C727.3,756.7,727.9,757.2,728.5,757.2z M731.8,751.3l2.5-6.3l2.5,6.3H731.8z M745,757.2c0.8,0,1.3-0.5,1.3-1.3v-4.1h3.1l3.2,4.8
			c0.2,0.3,0.6,0.6,1.1,0.6c0.7,0,1.2-0.5,1.2-1.1c0-0.3-0.1-0.6-0.3-1l-2.5-3.7c1.7-0.7,2.7-2.1,2.7-4.1c0-2.7-2.1-4.5-4.9-4.5H745
			c-0.8,0-1.3,0.5-1.3,1.3v11.7C743.8,756.7,744.3,757.2,745,757.2z M746.3,749.5v-4.1h3.6c1.3,0,2.2,0.8,2.2,2.1
			c0,1.3-0.9,2.1-2.2,2.1H746.3z M762.8,757.2c0.8,0,1.3-0.5,1.3-1.3v-10.5h3.5c0.7,0,1.3-0.5,1.3-1.2c0-0.7-0.5-1.2-1.3-1.2H758
			c-0.7,0-1.3,0.5-1.3,1.2c0,0.7,0.5,1.2,1.3,1.2h3.5v10.5C761.5,756.7,762.1,757.2,762.8,757.2z M770.7,744.5l4.6,6.6v4.8
			c0,0.8,0.5,1.3,1.3,1.3c0.8,0,1.3-0.5,1.3-1.3v-4.8l4.6-6.6c0.1-0.2,0.2-0.4,0.2-0.7c0-0.6-0.5-1.1-1.2-1.1
			c-0.6,0-0.9,0.4-1.2,0.9l-3.6,5.3l-3.7-5.3c-0.3-0.5-0.6-0.9-1.2-0.9c-0.7,0-1.2,0.5-1.2,1.1C770.5,744.1,770.5,744.3,770.7,744.5
			z M792.9,757.2c0.8,0,1.3-0.5,1.3-1.3V744c0-0.8-0.5-1.3-1.3-1.3c-0.8,0-1.3,0.5-1.3,1.3v11.9
			C791.7,756.7,792.2,757.2,792.9,757.2z M803.6,757.3c3.2,0,5.3-1.7,5.3-4.4c0-2.6-1.7-3.5-3.7-4l-2.5-0.5
			c-1.3-0.3-2.1-0.6-2.1-1.7c0-1.1,1-1.7,2.4-1.7c1.7,0,2.8,0.7,3.4,1.8c0.4,0.3,0.7,0.6,1.2,0.6c0.7,0,1.1-0.5,1.1-1.2
			c0-0.8-0.5-1.7-1.4-2.3c-1-0.6-2.3-1.2-4.1-1.2c-3.2,0-5.3,1.7-5.3,4.2c0,2.4,1.5,3.5,3.8,4l2.6,0.5c1.1,0.2,1.8,0.7,1.8,1.8
			c0,1.1-0.9,1.8-2.5,1.8c-2,0-3.1-0.7-4-2.1c-0.3-0.3-0.6-0.5-0.9-0.5c-0.7,0-1.2,0.6-1.2,1.2c0,0.8,0.6,1.8,1.4,2.4
			C800.2,756.8,801.5,757.3,803.6,757.3z M634.7,787.2c0.8,0,1.3-0.5,1.3-1.3V774c0-0.8-0.5-1.3-1.3-1.3c-0.8,0-1.3,0.5-1.3,1.3
			v11.9C633.4,786.7,633.9,787.2,634.7,787.2z M641.4,787.2c0.8,0,1.3-0.5,1.3-1.3v-8.8l6.2,8.9c0.6,0.8,1.1,1.1,1.7,1.1
			c0.9,0,1.5-0.6,1.5-1.6V774c0-0.8-0.5-1.3-1.3-1.3c-0.7,0-1.3,0.5-1.3,1.3v9l-6.2-9c-0.7-0.9-1.1-1.2-1.7-1.2
			c-0.9,0-1.5,0.7-1.5,1.6v11.6C640.2,786.7,640.7,787.2,641.4,787.2z M667.1,787.2c0.8,0,1.3-0.5,1.3-1.3v-10.5h3.5
			c0.7,0,1.3-0.5,1.3-1.2c0-0.7-0.5-1.2-1.3-1.2h-9.5c-0.7,0-1.3,0.5-1.3,1.2c0,0.7,0.5,1.2,1.3,1.2h3.5v10.5
			C665.8,786.7,666.3,787.2,667.1,787.2z M677.2,787.2c0.8,0,1.3-0.5,1.3-1.3v-4.1h3.1l3.2,4.8c0.2,0.3,0.6,0.6,1.1,0.6
			c0.7,0,1.2-0.5,1.2-1.1c0-0.3-0.1-0.6-0.3-1l-2.5-3.7c1.6-0.7,2.7-2.1,2.7-4.1c0-2.7-2.1-4.5-4.9-4.5h-4.8c-0.8,0-1.3,0.5-1.3,1.3
			v11.7C676,786.7,676.5,787.2,677.2,787.2z M678.5,779.5v-4.1h3.6c1.3,0,2.2,0.8,2.2,2.1c0,1.3-0.9,2.1-2.2,2.1H678.5z
			 M696.3,787.3c3.6,0,5.8-2.3,5.8-5.8V774c0-0.8-0.5-1.3-1.3-1.3c-0.7,0-1.2,0.5-1.2,1.3v7.3c0,2.1-1.3,3.5-3.3,3.5
			c-2,0-3.3-1.4-3.3-3.5V774c0-0.8-0.5-1.3-1.2-1.3c-0.8,0-1.3,0.5-1.3,1.3v7.5C690.5,785,692.7,787.3,696.3,787.3z M711.3,787.3
			c3.2,0,5.3-1.7,5.3-4.4c0-2.6-1.7-3.5-3.7-4l-2.5-0.5c-1.3-0.3-2.1-0.6-2.1-1.7c0-1.1,1-1.7,2.4-1.7c1.7,0,2.8,0.7,3.4,1.8
			c0.4,0.3,0.7,0.6,1.2,0.6c0.7,0,1.1-0.5,1.1-1.2c0-0.8-0.5-1.7-1.4-2.3c-1-0.6-2.3-1.2-4.1-1.2c-3.2,0-5.3,1.7-5.3,4.2
			c0,2.4,1.5,3.5,3.8,4l2.6,0.5c1.1,0.2,1.8,0.7,1.8,1.8c0,1.1-0.9,1.8-2.5,1.8c-2,0-3.1-0.7-4-2.1c-0.3-0.3-0.6-0.5-0.9-0.5
			c-0.7,0-1.2,0.6-1.2,1.2c0,0.8,0.6,1.8,1.4,2.4C707.8,786.8,709.2,787.3,711.3,787.3z M724.6,787.2c0.8,0,1.3-0.5,1.3-1.3v-10.5
			h3.5c0.7,0,1.3-0.5,1.3-1.2c0-0.7-0.5-1.2-1.3-1.2h-9.5c-0.7,0-1.3,0.5-1.3,1.2c0,0.7,0.5,1.2,1.3,1.2h3.5v10.5
			C723.4,786.7,723.9,787.2,724.6,787.2z M740.8,787.2c0.8,0,1.3-0.5,1.3-1.3v-4.1h3.1l3.2,4.8c0.2,0.3,0.6,0.6,1.1,0.6
			c0.7,0,1.2-0.5,1.2-1.1c0-0.3-0.1-0.6-0.3-1l-2.5-3.7c1.7-0.7,2.7-2.1,2.7-4.1c0-2.7-2.1-4.5-4.9-4.5h-4.8c-0.8,0-1.3,0.5-1.3,1.3
			v11.7C739.6,786.7,740.1,787.2,740.8,787.2z M742.1,779.5v-4.1h3.6c1.3,0,2.2,0.8,2.2,2.1c0,1.3-0.9,2.1-2.2,2.1H742.1z
			 M760.7,787.3c4.2,0,7.2-3,7.2-7.3c0-4.3-3-7.3-7.2-7.3c-4.2,0-7.2,3-7.2,7.3C753.5,784.3,756.5,787.3,760.7,787.3z M756.1,780
			c0-2.8,1.9-4.8,4.6-4.8c2.7,0,4.6,1.9,4.6,4.8c0,2.8-1.9,4.8-4.6,4.8C758,784.8,756.1,782.8,756.1,780z M778,787.3
			c4.2,0,7.2-3,7.2-7.3c0-4.3-3-7.3-7.2-7.3s-7.2,3-7.2,7.3C770.8,784.3,773.8,787.3,778,787.3z M773.4,780c0-2.8,1.9-4.8,4.6-4.8
			c2.7,0,4.6,1.9,4.6,4.8c0,2.8-1.9,4.8-4.6,4.8C775.4,784.8,773.4,782.8,773.4,780z M792.9,787.2c0.8,0,1.3-0.5,1.3-1.3v-10.5h3.5
			c0.7,0,1.3-0.5,1.3-1.2c0-0.7-0.5-1.2-1.3-1.2h-9.5c-0.7,0-1.3,0.5-1.3,1.2c0,0.7,0.5,1.2,1.3,1.2h3.5v10.5
			C791.6,786.7,792.1,787.2,792.9,787.2z"/>
	</g>
	<g>
		<path class="st0" d="M1157,671.5h107c43.4,0,78.5,35.1,78.5,78.5l0,0c0,43.4-35.1,78.5-78.5,78.5h-107
			c-43.4,0-78.5-35.1-78.5-78.5l0,0C1078.5,706.6,1113.6,671.5,1157,671.5z"/>
		<path class="st1" d="M1264,830h-107c-44.1,0-80-35.9-80-80s35.9-80,80-80h107c44.1,0,80,35.9,80,80S1308.1,830,1264,830z
			 M1157,673c-42.5,0-77,34.5-77,77s34.5,77,77,77h107c42.5,0,77-34.5,77-77s-34.5-77-77-77H1157z"/>
	</g>
	<g>
		<path class="st1" d="M1177.5,727.3c2.3,0,4.2-0.8,5.4-2.2c0.5-0.6,0.8-1.4,0.8-1.9c0-0.7-0.5-1.2-1.2-1.2c-0.4,0-0.8,0.2-1.2,0.7
			c-0.8,1.4-2.1,2.2-3.9,2.2c-2.6,0-4.5-2-4.5-4.8c0-2.8,1.8-4.8,4.5-4.8c1.8,0,3.1,0.8,3.9,2.1c0.4,0.5,0.8,0.7,1.2,0.7
			c0.7,0,1.2-0.6,1.2-1.2c0-0.6-0.4-1.4-0.9-2c-1.3-1.5-3.1-2.2-5.4-2.2c-4.2,0-7.1,3-7.1,7.3
			C1170.4,724.3,1173.3,727.3,1177.5,727.3z M1197.8,727.2c0.8,0,1.3-0.5,1.3-1.3V714c0-0.8-0.5-1.3-1.3-1.3c-0.8,0-1.3,0.5-1.3,1.3
			v4.7h-6.8V714c0-0.8-0.5-1.3-1.3-1.3c-0.8,0-1.3,0.5-1.3,1.3v11.9c0,0.8,0.5,1.3,1.3,1.3c0.8,0,1.3-0.5,1.3-1.3v-4.8h6.8v4.8
			C1196.5,726.7,1197,727.2,1197.8,727.2z M1204.5,727h7.6c0.7,0,1.3-0.5,1.3-1.2s-0.5-1.2-1.3-1.2h-6.4v-3.4h5.7
			c0.7,0,1.2-0.5,1.2-1.2c0-0.7-0.5-1.2-1.2-1.2h-5.7v-3.3h6.3c0.7,0,1.3-0.5,1.3-1.2c0-0.7-0.5-1.2-1.3-1.2h-7.6
			c-0.8,0-1.3,0.5-1.3,1.3v11.5C1203.2,726.5,1203.7,727,1204.5,727z M1223.4,727.3c2.3,0,4.2-0.8,5.4-2.2c0.5-0.6,0.8-1.4,0.8-1.9
			c0-0.7-0.5-1.2-1.2-1.2c-0.4,0-0.8,0.2-1.2,0.7c-0.8,1.4-2.1,2.2-3.9,2.2c-2.6,0-4.5-2-4.5-4.8c0-2.8,1.8-4.8,4.5-4.8
			c1.8,0,3.1,0.8,3.9,2.1c0.4,0.5,0.8,0.7,1.2,0.7c0.7,0,1.2-0.6,1.2-1.2c0-0.6-0.4-1.4-0.9-2c-1.3-1.5-3.1-2.2-5.4-2.2
			c-4.2,0-7.1,3-7.1,7.3C1216.3,724.3,1219.2,727.3,1223.4,727.3z M1234.3,727.2c0.8,0,1.3-0.5,1.3-1.3v-3.3l2.2-2l4.8,6
			c0.3,0.4,0.8,0.6,1.2,0.6c0.7,0,1.2-0.5,1.2-1c0-0.4-0.1-0.6-0.5-1.1l-4.8-6.1l4.3-3.9c0.5-0.5,0.7-0.8,0.7-1.3c0-0.5-0.5-1-1.1-1
			c-0.5,0-0.8,0.2-1.1,0.4l-6.9,6.3V714c0-0.8-0.5-1.3-1.3-1.3c-0.8,0-1.3,0.5-1.3,1.3v11.9C1233,726.7,1233.6,727.2,1234.3,727.2z
			 M1148.1,757.3c3.2,0,5.3-1.7,5.3-4.4c0-2.6-1.7-3.5-3.7-4l-2.5-0.5c-1.3-0.3-2.1-0.6-2.1-1.7c0-1.1,1-1.7,2.4-1.7
			c1.7,0,2.8,0.7,3.4,1.8c0.4,0.3,0.7,0.6,1.2,0.6c0.7,0,1.1-0.5,1.1-1.2c0-0.8-0.5-1.7-1.4-2.3c-1-0.6-2.3-1.2-4.1-1.2
			c-3.2,0-5.3,1.7-5.3,4.2c0,2.4,1.5,3.5,3.8,4l2.6,0.5c1.1,0.2,1.8,0.7,1.8,1.8c0,1.1-0.9,1.8-2.5,1.8c-2,0-3.1-0.7-4-2.1
			c-0.3-0.3-0.6-0.5-0.9-0.5c-0.7,0-1.2,0.6-1.2,1.2c0,0.8,0.6,1.8,1.4,2.4C1144.7,756.8,1146.1,757.3,1148.1,757.3z M1158.4,757.2
			c0.8,0,1.3-0.5,1.3-1.3V744c0-0.8-0.5-1.3-1.3-1.3c-0.8,0-1.3,0.5-1.3,1.3v11.9C1157.2,756.7,1157.7,757.2,1158.4,757.2z
			 M1170.5,757.3c3.9,0,6.6-2.4,6.6-6.8c0-1-0.6-1.4-1.3-1.4h-5.4c-0.7,0-1.2,0.4-1.2,1.2c0,0.7,0.6,1.2,1.2,1.2h4.2
			c-0.1,2.1-1.6,3.3-3.9,3.3c-2.9,0-4.7-2-4.7-4.8c0-2.8,1.9-4.9,4.7-4.9c1.8,0,3.1,0.8,3.8,1.8c0.4,0.4,0.8,0.5,1.2,0.5
			c0.6,0,1.1-0.4,1.1-1.1c0-0.8-0.7-1.7-1.5-2.3c-1.1-0.8-2.6-1.3-4.6-1.3c-4.3,0-7.3,3-7.3,7.4
			C1163.2,754.3,1166.1,757.3,1170.5,757.3z M1181.8,757.2c0.8,0,1.3-0.5,1.3-1.3v-8.8l6.2,8.9c0.6,0.8,1.1,1.1,1.7,1.1
			c0.9,0,1.5-0.6,1.5-1.6V744c0-0.8-0.5-1.3-1.3-1.3c-0.7,0-1.3,0.5-1.3,1.3v9l-6.2-9c-0.7-0.9-1.1-1.2-1.7-1.2
			c-0.9,0-1.5,0.7-1.5,1.6v11.6C1180.6,756.7,1181.1,757.2,1181.8,757.2z M1196.4,757.2c0.6,0,1-0.3,1.2-0.8l1.1-2.7h6.8l1.1,2.7
			c0.2,0.5,0.6,0.8,1.2,0.8c0.6,0,1.2-0.5,1.2-1.2c0-0.2,0-0.5-0.2-0.8l-4.3-10.6c-0.5-1.3-1.2-2-2.4-2c-1.2,0-1.9,0.6-2.4,2
			l-4.3,10.6c-0.1,0.3-0.2,0.6-0.2,0.8C1195.1,756.7,1195.7,757.2,1196.4,757.2z M1199.6,751.3l2.5-6.3l2.5,6.3H1199.6z M1215,757.2
			c0.8,0,1.3-0.5,1.3-1.3v-10.5h3.5c0.7,0,1.3-0.5,1.3-1.2c0-0.7-0.5-1.2-1.3-1.2h-9.5c-0.7,0-1.3,0.5-1.3,1.2
			c0,0.7,0.5,1.2,1.3,1.2h3.5v10.5C1213.7,756.7,1214.2,757.2,1215,757.2z M1229.4,757.3c3.6,0,5.8-2.3,5.8-5.8V744
			c0-0.8-0.5-1.3-1.3-1.3c-0.7,0-1.2,0.5-1.2,1.3v7.3c0,2.1-1.3,3.5-3.3,3.5c-2,0-3.3-1.4-3.3-3.5V744c0-0.8-0.5-1.3-1.2-1.3
			s-1.3,0.5-1.3,1.3v7.5C1223.6,755,1225.9,757.3,1229.4,757.3z M1240.5,757.2c0.8,0,1.3-0.5,1.3-1.3v-4.1h3.1l3.2,4.8
			c0.2,0.3,0.6,0.6,1.1,0.6c0.7,0,1.2-0.5,1.2-1.1c0-0.3-0.1-0.6-0.3-1l-2.5-3.7c1.7-0.7,2.7-2.1,2.7-4.1c0-2.7-2.1-4.5-4.9-4.5
			h-4.8c-0.8,0-1.3,0.5-1.3,1.3v11.7C1239.3,756.7,1239.8,757.2,1240.5,757.2z M1241.8,749.5v-4.1h3.6c1.3,0,2.2,0.8,2.2,2.1
			c0,1.3-0.9,2.1-2.2,2.1H1241.8z M1255.4,757h7.6c0.7,0,1.3-0.5,1.3-1.2s-0.5-1.2-1.3-1.2h-6.4v-3.4h5.7c0.7,0,1.2-0.5,1.2-1.2
			c0-0.7-0.5-1.2-1.2-1.2h-5.7v-3.3h6.3c0.7,0,1.3-0.5,1.3-1.2c0-0.7-0.5-1.2-1.3-1.2h-7.6c-0.8,0-1.3,0.5-1.3,1.3v11.5
			C1254.1,756.5,1254.7,757,1255.4,757z M1273.3,757.3c3.2,0,5.3-1.7,5.3-4.4c0-2.6-1.7-3.5-3.7-4l-2.5-0.5c-1.3-0.3-2-0.6-2-1.7
			c0-1.1,1-1.7,2.4-1.7c1.7,0,2.8,0.7,3.4,1.8c0.4,0.3,0.7,0.6,1.2,0.6c0.7,0,1.1-0.5,1.1-1.2c0-0.8-0.5-1.7-1.4-2.3
			c-1-0.6-2.3-1.2-4.1-1.2c-3.2,0-5.3,1.7-5.3,4.2c0,2.4,1.5,3.5,3.8,4l2.6,0.5c1.1,0.2,1.8,0.7,1.8,1.8c0,1.1-0.9,1.8-2.5,1.8
			c-2,0-3.1-0.7-4-2.1c-0.3-0.3-0.6-0.5-0.9-0.5c-0.7,0-1.2,0.6-1.2,1.2c0,0.8,0.6,1.8,1.4,2.4
			C1269.8,756.8,1271.2,757.3,1273.3,757.3z M1176.4,787.2c0.8,0,1.3-0.5,1.3-1.3V774c0-0.8-0.5-1.3-1.3-1.3c-0.8,0-1.3,0.5-1.3,1.3
			v11.9C1175.2,786.7,1175.7,787.2,1176.4,787.2z M1183.2,787.2c0.8,0,1.3-0.5,1.3-1.3v-8.8l6.2,8.9c0.6,0.8,1.1,1.1,1.7,1.1
			c0.9,0,1.5-0.6,1.5-1.6V774c0-0.8-0.5-1.3-1.3-1.3c-0.7,0-1.3,0.5-1.3,1.3v9l-6.2-9c-0.7-0.9-1.1-1.2-1.7-1.2
			c-0.9,0-1.5,0.7-1.5,1.6v11.6C1181.9,786.7,1182.4,787.2,1183.2,787.2z M1205.4,787h7.2c0.7,0,1.3-0.5,1.3-1.2s-0.5-1.2-1.3-1.2
			h-5.9V774c0-0.8-0.5-1.3-1.3-1.3c-0.8,0-1.3,0.5-1.3,1.3v11.7C1204.1,786.5,1204.6,787,1205.4,787z M1222.6,787.3
			c4.2,0,7.2-3,7.2-7.3c0-4.3-3-7.3-7.2-7.3c-4.2,0-7.2,3-7.2,7.3C1215.3,784.3,1218.3,787.3,1222.6,787.3z M1217.9,780
			c0-2.8,1.9-4.8,4.6-4.8c2.7,0,4.6,1.9,4.6,4.8c0,2.8-1.9,4.8-4.6,4.8C1219.9,784.8,1217.9,782.8,1217.9,780z M1239.9,787.3
			c3.9,0,6.6-2.4,6.6-6.8c0-1-0.6-1.4-1.3-1.4h-5.4c-0.7,0-1.2,0.4-1.2,1.2c0,0.7,0.6,1.2,1.2,1.2h4.2c-0.1,2.1-1.6,3.3-3.9,3.3
			c-2.9,0-4.7-2-4.7-4.8c0-2.8,1.9-4.9,4.7-4.9c1.8,0,3.1,0.8,3.8,1.8c0.4,0.4,0.8,0.5,1.2,0.5c0.6,0,1.1-0.4,1.1-1.1
			c0-0.8-0.7-1.7-1.5-2.3c-1.1-0.8-2.6-1.3-4.6-1.3c-4.3,0-7.3,3-7.3,7.4C1232.7,784.3,1235.6,787.3,1239.9,787.3z"/>
	</g>
	<g>
		<path class="st0" d="M1639,199.5h107c43.4,0,78.5,35.1,78.5,78.5l0,0c0,43.4-35.1,78.5-78.5,78.5h-107
			c-43.4,0-78.5-35.1-78.5-78.5l0,0C1560.5,234.6,1595.6,199.5,1639,199.5z"/>
		<path class="st1" d="M1746,358h-107c-44.1,0-80-35.9-80-80s35.9-80,80-80h107c44.1,0,80,35.9,80,80S1790.1,358,1746,358z
			 M1639,201c-42.5,0-77,34.5-77,77s34.5,77,77,77h107c42.5,0,77-34.5,77-77s-34.5-77-77-77H1639z"/>
	</g>
	<g>
		<path class="st1" d="M1604,270.2c0.8,0,1.3-0.5,1.3-1.3v-3.9h3.4c2.9,0,5.1-1.8,5.1-4.6c0-2.8-2.2-4.6-5.1-4.6h-4.6
			c-0.8,0-1.3,0.5-1.3,1.3v11.7C1602.7,269.7,1603.2,270.2,1604,270.2z M1605.2,262.7v-4.3h3.5c1.4,0,2.4,0.9,2.4,2.2
			s-1,2.2-2.4,2.2H1605.2z M1622.3,270.3c3.6,0,5.8-2.3,5.8-5.8V257c0-0.8-0.5-1.3-1.3-1.3c-0.7,0-1.2,0.5-1.2,1.3v7.3
			c0,2.1-1.3,3.5-3.3,3.5c-2,0-3.3-1.4-3.3-3.5V257c0-0.8-0.5-1.3-1.2-1.3c-0.8,0-1.3,0.5-1.3,1.3v7.5
			C1616.5,268,1618.8,270.3,1622.3,270.3z M1633.4,270L1633.4,270h5.1c2.9,0,4.8-1.7,4.8-4.2c0-1.4-0.8-2.5-2.2-3
			c1.3-0.5,2.1-1.6,2.1-2.9c0-2.4-1.8-4-4.7-4h-5.1c-0.8,0-1.2,0.5-1.2,1.3v11.5C1632.1,269.4,1632.6,270,1633.4,270z M1634.7,267.6
			v-3.7h3.8c1.4,0,2.2,0.7,2.2,1.8c0,1.2-0.8,1.9-2.2,1.9H1634.7z M1634.7,261.8v-3.4h3.7c1.4,0,2.2,0.7,2.2,1.8
			c0,1-0.8,1.7-2.2,1.7H1634.7z M1648.2,270h7.2c0.7,0,1.3-0.5,1.3-1.2s-0.5-1.2-1.3-1.2h-5.9V257c0-0.8-0.5-1.3-1.3-1.3
			c-0.8,0-1.3,0.5-1.3,1.3v11.7C1646.9,269.5,1647.5,270,1648.2,270z M1660.8,270.2c0.8,0,1.3-0.5,1.3-1.3V257
			c0-0.8-0.5-1.3-1.3-1.3c-0.8,0-1.3,0.5-1.3,1.3v11.9C1659.5,269.7,1660,270.2,1660.8,270.2z M1671.5,270.3c3.2,0,5.3-1.7,5.3-4.4
			c0-2.6-1.7-3.5-3.7-4l-2.5-0.5c-1.2-0.3-2.1-0.6-2.1-1.7c0-1.1,1-1.7,2.5-1.7c1.7,0,2.8,0.7,3.4,1.8c0.4,0.3,0.7,0.6,1.2,0.6
			c0.7,0,1.1-0.5,1.1-1.2c0-0.8-0.5-1.7-1.4-2.3c-1-0.6-2.3-1.2-4.1-1.2c-3.2,0-5.3,1.7-5.3,4.2c0,2.4,1.4,3.5,3.8,4l2.6,0.5
			c1.1,0.2,1.8,0.7,1.8,1.8c0,1.1-0.9,1.8-2.5,1.8c-1.9,0-3.1-0.7-4-2.1c-0.3-0.3-0.6-0.5-0.9-0.5c-0.7,0-1.2,0.6-1.2,1.2
			c0,0.8,0.6,1.8,1.4,2.4C1668,269.8,1669.4,270.3,1671.5,270.3z M1691.1,270.2c0.8,0,1.3-0.5,1.3-1.3V257c0-0.8-0.5-1.3-1.3-1.3
			c-0.8,0-1.3,0.5-1.3,1.3v4.7h-6.8V257c0-0.8-0.5-1.3-1.3-1.3c-0.8,0-1.3,0.5-1.3,1.3v11.9c0,0.8,0.5,1.3,1.3,1.3
			c0.8,0,1.3-0.5,1.3-1.3v-4.8h6.8v4.8C1689.8,269.7,1690.3,270.2,1691.1,270.2z M1707.8,270.3c3.2,0,5.3-1.7,5.3-4.4
			c0-2.6-1.7-3.5-3.7-4l-2.5-0.5c-1.3-0.3-2-0.6-2-1.7c0-1.1,1-1.7,2.4-1.7c1.7,0,2.8,0.7,3.5,1.8c0.4,0.3,0.7,0.6,1.2,0.6
			c0.7,0,1.1-0.5,1.1-1.2c0-0.8-0.5-1.7-1.4-2.3c-1-0.6-2.3-1.2-4.1-1.2c-3.2,0-5.3,1.7-5.3,4.2c0,2.4,1.4,3.5,3.8,4l2.6,0.5
			c1.1,0.2,1.8,0.7,1.8,1.8c0,1.1-0.9,1.8-2.5,1.8c-1.9,0-3.1-0.7-4-2.1c-0.3-0.3-0.6-0.5-0.9-0.5c-0.7,0-1.2,0.6-1.2,1.2
			c0,0.8,0.6,1.8,1.4,2.4C1704.4,269.8,1705.7,270.3,1707.8,270.3z M1718.1,270.2c0.8,0,1.3-0.5,1.3-1.3V257c0-0.8-0.5-1.3-1.3-1.3
			s-1.3,0.5-1.3,1.3v11.9C1716.8,269.7,1717.3,270.2,1718.1,270.2z M1730.1,270.3c3.9,0,6.6-2.4,6.6-6.8c0-1-0.6-1.4-1.3-1.4h-5.4
			c-0.7,0-1.2,0.4-1.2,1.2c0,0.7,0.6,1.2,1.2,1.2h4.2c-0.2,2.1-1.6,3.3-3.9,3.3c-2.9,0-4.7-2-4.7-4.8c0-2.8,1.9-4.9,4.7-4.9
			c1.8,0,3,0.8,3.8,1.8c0.4,0.4,0.8,0.5,1.2,0.5c0.6,0,1.1-0.4,1.1-1.1c0-0.8-0.7-1.7-1.5-2.3c-1.1-0.8-2.6-1.3-4.6-1.3
			c-4.2,0-7.3,3-7.3,7.4C1722.9,267.3,1725.8,270.3,1730.1,270.3z M1741.5,270.2c0.8,0,1.3-0.5,1.3-1.3v-8.8l6.2,8.9
			c0.6,0.8,1.1,1.1,1.7,1.1c0.9,0,1.5-0.6,1.5-1.6V257c0-0.8-0.5-1.3-1.3-1.3s-1.3,0.5-1.3,1.3v9l-6.2-9c-0.7-0.9-1.1-1.2-1.7-1.2
			c-0.9,0-1.5,0.7-1.5,1.6v11.6C1740.2,269.7,1740.8,270.2,1741.5,270.2z M1757.7,270h7.6c0.7,0,1.3-0.5,1.3-1.2s-0.5-1.2-1.3-1.2
			h-6.4v-3.4h5.7c0.7,0,1.2-0.5,1.2-1.2c0-0.7-0.5-1.2-1.2-1.2h-5.7v-3.3h6.3c0.7,0,1.3-0.5,1.3-1.2c0-0.7-0.5-1.2-1.3-1.2h-7.6
			c-0.8,0-1.3,0.5-1.3,1.3v11.5C1756.4,269.5,1756.9,270,1757.7,270z M1771.6,270h4.5c4.1,0,6.8-2.9,6.8-7c0-4.1-2.7-7-6.8-7h-4.5
			c-0.8,0-1.3,0.5-1.3,1.3v11.5C1770.3,269.5,1770.9,270,1771.6,270z M1772.9,267.5v-9.1h3.2c2.5,0,4.2,1.9,4.2,4.6
			c0,2.7-1.7,4.6-4.2,4.6H1772.9z M1641.4,300.2c0.6,0,1-0.3,1.2-0.8l1.1-2.7h6.8l1.1,2.7c0.2,0.5,0.6,0.8,1.2,0.8
			c0.6,0,1.2-0.5,1.2-1.2c0-0.2-0.1-0.5-0.2-0.8l-4.3-10.6c-0.5-1.3-1.2-2-2.4-2c-1.2,0-1.9,0.6-2.4,2l-4.3,10.6
			c-0.1,0.3-0.2,0.6-0.2,0.8C1640.2,299.7,1640.8,300.2,1641.4,300.2z M1644.7,294.3l2.5-6.3l2.5,6.3H1644.7z M1657.9,300.2
			c0.8,0,1.3-0.5,1.3-1.3v-4.1h3.1l3.2,4.8c0.2,0.3,0.6,0.6,1.1,0.6c0.7,0,1.2-0.5,1.2-1.1c0-0.3-0.1-0.6-0.3-1l-2.5-3.7
			c1.6-0.7,2.8-2.1,2.8-4.1c0-2.7-2.1-4.5-4.9-4.5h-4.8c-0.8,0-1.3,0.5-1.3,1.3v11.7C1656.7,299.7,1657.2,300.2,1657.9,300.2z
			 M1659.2,292.5v-4.1h3.6c1.3,0,2.2,0.8,2.2,2.1c0,1.3-0.9,2.1-2.2,2.1H1659.2z M1675.7,300.2c0.8,0,1.3-0.5,1.3-1.3v-10.5h3.5
			c0.7,0,1.3-0.5,1.3-1.2c0-0.7-0.5-1.2-1.3-1.2h-9.5c-0.7,0-1.3,0.5-1.3,1.2c0,0.7,0.5,1.2,1.3,1.2h3.5v10.5
			C1674.4,299.7,1674.9,300.2,1675.7,300.2z M1685.8,300.2c0.8,0,1.3-0.5,1.3-1.3V287c0-0.8-0.5-1.3-1.3-1.3c-0.8,0-1.3,0.5-1.3,1.3
			v11.9C1684.6,299.7,1685.1,300.2,1685.8,300.2z M1692.6,300.2c0.8,0,1.3-0.5,1.3-1.3v-4.5h5.6c0.7,0,1.3-0.5,1.3-1.2
			c0-0.7-0.5-1.2-1.3-1.2h-5.6v-3.5h6.4c0.7,0,1.3-0.5,1.3-1.2c0-0.7-0.5-1.2-1.3-1.2h-7.6c-0.8,0-1.3,0.5-1.3,1.3v11.7
			C1691.3,299.7,1691.8,300.2,1692.6,300.2z M1703,300.2c0.6,0,1-0.3,1.2-0.8l1.1-2.7h6.8l1.1,2.7c0.2,0.5,0.6,0.8,1.2,0.8
			c0.7,0,1.2-0.5,1.2-1.2c0-0.2-0.1-0.5-0.2-0.8l-4.3-10.6c-0.5-1.3-1.2-2-2.4-2s-1.9,0.6-2.4,2l-4.4,10.6c-0.1,0.3-0.2,0.6-0.2,0.8
			C1701.8,299.7,1702.3,300.2,1703,300.2z M1706.3,294.3l2.5-6.3l2.5,6.3H1706.3z M1724.2,300.3c2.3,0,4.2-0.8,5.4-2.2
			c0.5-0.6,0.8-1.4,0.8-1.9c0-0.7-0.5-1.2-1.2-1.2c-0.4,0-0.8,0.2-1.2,0.7c-0.8,1.4-2.1,2.2-3.9,2.2c-2.7,0-4.5-2-4.5-4.8
			c0-2.8,1.8-4.8,4.5-4.8c1.8,0,3.1,0.8,3.9,2.1c0.4,0.5,0.8,0.7,1.2,0.7c0.6,0,1.2-0.6,1.2-1.2c0-0.6-0.4-1.4-0.9-2
			c-1.3-1.5-3.1-2.2-5.4-2.2c-4.2,0-7.1,3-7.1,7.3C1717.1,297.3,1720,300.3,1724.2,300.3z M1738.4,300.2c0.8,0,1.3-0.5,1.3-1.3
			v-10.5h3.5c0.7,0,1.3-0.5,1.3-1.2c0-0.7-0.5-1.2-1.3-1.2h-9.5c-0.7,0-1.3,0.5-1.3,1.2c0,0.7,0.5,1.2,1.3,1.2h3.5v10.5
			C1737.2,299.7,1737.7,300.2,1738.4,300.2z"/>
	</g>
	<g>
		<path class="st1" d="M965.5-685c0-59.9,48.6-108.5,108.5-108.5v-3c-61.6,0-111.5,49.9-111.5,111.5H965.5z"/>
	</g>
	<g>
		<path class="st1" d="M848.5,279.5c60,0,111,48.6,111,108.5h3c0-61.6-52.5-111.5-114-111.5V279.5z"/>
	</g>
	<g>
		<path class="st1" d="M1079.1,514.1c0.6-0.6,0.6-1.5,0-2.1l-9.5-9.5c-0.6-0.6-1.5-0.6-2.1,0c-0.6,0.6-0.6,1.5,0,2.1l8.5,8.5
			l-8.5,8.5c-0.6,0.6-0.6,1.5,0,2.1c0.6,0.6,1.5,0.6,2.1,0L1079.1,514.1z M962.5,387.5c0-0.8-0.7-1.5-1.5-1.5s-1.5,0.7-1.5,1.5
			H962.5z M1078,511.5c-35.4,0-64.3-11.2-84.3-29.8c-20-18.6-31.2-44.7-31.2-74.7h-3c0,30.8,11.5,57.7,32.2,76.9
			c20.6,19.2,50.3,30.6,86.3,30.6V511.5z M962.5,407v-19.5h-3V407H962.5z"/>
	</g>
	<g>
		<path class="st1" d="M1584.5,993v-1.5l0,0V993z M1344,991.5c-0.8,0-1.5,0.7-1.5,1.5s0.7,1.5,1.5,1.5V991.5z M1695.6,827.4
			c-0.6-0.6-1.5-0.6-2.1,0l-9.5,9.6c-0.6,0.6-0.6,1.5,0,2.1c0.6,0.6,1.5,0.6,2.1,0l8.5-8.5l8.5,8.5c0.6,0.6,1.5,0.6,2.1,0
			c0.6-0.6,0.6-1.5,0-2.1L1695.6,827.4z M1693,883c0,59.9-48.6,108.5-108.5,108.5v3c61.6,0,111.5-49.9,111.5-111.5H1693z
			 M1584.5,991.5H1344v3h240.5V991.5z M1696,883v-54.5h-3V883H1696z"/>
	</g>
	<g>
		<path class="st1" d="M964-109h1.5l0,0H964z M965.5-686c0-0.8-0.7-1.5-1.5-1.5s-1.5,0.7-1.5,1.5H965.5z M1078.5,2.5
			c0.8,0,1.5-0.7,1.5-1.5s-0.7-1.5-1.5-1.5V2.5z M1074-0.5c-59.9,0-108.5-48.6-108.5-108.5h-3c0,61.6,49.9,111.5,111.5,111.5V-0.5z
			 M965.5-109v-577h-3v577H965.5z M1074,2.5h4.5v-3h-4.5V2.5z"/>
	</g>
	<g>
		<path class="st1" d="M965.5-685c0-59.9,48.6-108.5,108.5-108.5v-3c-61.6,0-111.5,49.9-111.5,111.5H965.5z"/>
	</g>
	<g>
		<path class="st1" d="M964-109h1.5l0,0H964z M965.5-686c0-0.8-0.7-1.5-1.5-1.5s-1.5,0.7-1.5,1.5H965.5z M1078.5,2.5
			c0.8,0,1.5-0.7,1.5-1.5s-0.7-1.5-1.5-1.5V2.5z M1074-0.5c-59.9,0-108.5-48.6-108.5-108.5h-3c0,61.6,49.9,111.5,111.5,111.5V-0.5z
			 M965.5-109v-577h-3v577H965.5z M1074,2.5h4.5v-3h-4.5V2.5z"/>
	</g>
	<g>
		<path class="st1" d="M1583.5-793v-1.5l0,0V-793z M1693.5-683h1.5H1693.5z M1692.4,199.1c0.6,0.6,1.5,0.6,2.1,0l9.5-9.6
			c0.6-0.6,0.6-1.5,0-2.1c-0.6-0.6-1.5-0.6-2.1,0l-8.5,8.5l-8.5-8.5c-0.6-0.6-1.5-0.6-2.1,0c-0.6,0.6-0.6,1.5,0,2.1L1692.4,199.1z
			 M1343-794.5c-0.8,0-1.5,0.7-1.5,1.5s0.7,1.5,1.5,1.5V-794.5z M1583.5-791.5c59.9,0,108.5,48.6,108.5,108.5h3
			c0-61.6-49.9-111.5-111.5-111.5V-791.5z M1692-683v881h3v-881H1692z M1583.5-794.5H1343v3h240.5V-794.5z"/>
	</g>
	<g>
		<path class="st1" d="M1209.9-671.9c0.6,0.6,1.5,0.6,2.1,0l9.5-9.5c0.6-0.6,0.6-1.5,0-2.1c-0.6-0.6-1.5-0.6-2.1,0l-8.5,8.5
			l-8.5-8.5c-0.6-0.6-1.5-0.6-2.1,0c-0.6,0.6-0.6,1.5,0,2.1L1209.9-671.9z M1209.5-709v36h3v-36H1209.5z"/>
	</g>
	<g>
		<path class="st1" d="M1209.9-475.9c0.6,0.6,1.5,0.6,2.1,0l9.5-9.5c0.6-0.6,0.6-1.5,0-2.1c-0.6-0.6-1.5-0.6-2.1,0l-8.5,8.5
			l-8.5-8.5c-0.6-0.6-1.5-0.6-2.1,0c-0.6,0.6-0.6,1.5,0,2.1L1209.9-475.9z M1209.5-513v36h3v-36H1209.5z"/>
	</g>
	<g>
		<path class="st1" d="M1209.9-279.9c0.6,0.6,1.5,0.6,2.1,0l9.5-9.5c0.6-0.6,0.6-1.5,0-2.1c-0.6-0.6-1.5-0.6-2.1,0l-8.5,8.5
			l-8.5-8.5c-0.6-0.6-1.5-0.6-2.1,0c-0.6,0.6-0.6,1.5,0,2.1L1209.9-279.9z M1209.5-317v36h3v-36H1209.5z"/>
	</g>
	<g>
		<path class="st1" d="M1209.9-83.9c0.6,0.6,1.5,0.6,2.1,0l9.5-9.5c0.6-0.6,0.6-1.5,0-2.1c-0.6-0.6-1.5-0.6-2.1,0l-8.5,8.5l-8.5-8.5
			c-0.6-0.6-1.5-0.6-2.1,0c-0.6,0.6-0.6,1.5,0,2.1L1209.9-83.9z M1209.5-121v36h3v-36H1209.5z"/>
	</g>
	<g>
		<path class="st1" d="M1209.9,435.1c0.6,0.6,1.5,0.6,2.1,0l9.5-9.6c0.6-0.6,0.6-1.5,0-2.1c-0.6-0.6-1.5-0.6-2.1,0l-8.5,8.5
			l-8.5-8.5c-0.6-0.6-1.5-0.6-2.1,0c-0.6,0.6-0.6,1.5,0,2.1L1209.9,435.1z M1209.5,358v76h3v-76H1209.5z"/>
	</g>
	<g>
		<path class="st1" d="M1212.1,592.9c-0.6-0.6-1.5-0.6-2.1,0l-9.5,9.6c-0.6,0.6-0.6,1.5,0,2.1c0.6,0.6,1.5,0.6,2.1,0l8.5-8.5
			l8.5,8.5c0.6,0.6,1.5,0.6,2.1,0c0.6-0.6,0.6-1.5,0-2.1L1212.1,592.9z M1212.5,670v-76h-3v76H1212.5z"/>
	</g>
	<g>
		<path class="st1" d="M1212.1,828.9c-0.6-0.6-1.5-0.6-2.1,0l-9.5,9.6c-0.6,0.6-0.6,1.5,0,2.1c0.6,0.6,1.5,0.6,2.1,0l8.5-8.5
			l8.5,8.5c0.6,0.6,1.5,0.6,2.1,0c0.6-0.6,0.6-1.5,0-2.1L1212.1,828.9z M1212.5,906v-76h-3v76H1212.5z"/>
	</g>
	<g>
		<path class="st1" d="M1692.9,435.1c0.6,0.6,1.5,0.6,2.1,0l9.5-9.6c0.6-0.6,0.6-1.5,0-2.1c-0.6-0.6-1.5-0.6-2.1,0l-8.5,8.5
			l-8.5-8.5c-0.6-0.6-1.5-0.6-2.1,0c-0.6,0.6-0.6,1.5,0,2.1L1692.9,435.1z M1692.5,358v76h3v-76H1692.5z"/>
	</g>
	<g>
		<path class="st1" d="M1695.1,592.9c-0.6-0.6-1.5-0.6-2.1,0l-9.5,9.6c-0.6,0.6-0.6,1.5,0,2.1c0.6,0.6,1.5,0.6,2.1,0l8.5-8.5
			l8.5,8.5c0.6,0.6,1.5,0.6,2.1,0c0.6-0.6,0.6-1.5,0-2.1L1695.1,592.9z M1695.5,670v-76h-3v76H1695.5z"/>
	</g>
	<g>
		<path class="st1" d="M1209.9,199.1c0.6,0.6,1.5,0.6,2.1,0l9.5-9.6c0.6-0.6,0.6-1.5,0-2.1c-0.6-0.6-1.5-0.6-2.1,0l-8.5,8.5
			l-8.5-8.5c-0.6-0.6-1.5-0.6-2.1,0c-0.6,0.6-0.6,1.5,0,2.1L1209.9,199.1z M1209.5,77v121h3V77H1209.5z"/>
	</g>
	<g>
		<path class="st1" d="M716.1,591.9c-0.6-0.6-1.5-0.6-2.1,0l-9.5,9.6c-0.6,0.6-0.6,1.5,0,2.1c0.6,0.6,1.5,0.6,2.1,0l8.5-8.5l8.5,8.5
			c0.6,0.6,1.5,0.6,2.1,0c0.6-0.6,0.6-1.5,0-2.1L716.1,591.9z M716.5,672v-79h-3v79H716.5z"/>
	</g>
	<g>
		<path class="st1" d="M847.9,748.9c-0.6,0.6-0.6,1.5,0,2.1l9.5,9.5c0.6,0.6,1.5,0.6,2.1,0c0.6-0.6,0.6-1.5,0-2.1l-8.5-8.5l8.5-8.5
			c0.6-0.6,0.6-1.5,0-2.1c-0.6-0.6-1.5-0.6-2.1,0L847.9,748.9z M1079,748.5H849v3h230V748.5z"/>
	</g>
	<g>
		<path class="st1" d="M1078.1-793.9c0.6-0.6,0.6-1.5,0-2.1l-9.5-9.5c-0.6-0.6-1.5-0.6-2.1,0c-0.6,0.6-0.6,1.5,0,2.1l8.5,8.5
			l-8.5,8.5c-0.6,0.6-0.6,1.5,0,2.1c0.6,0.6,1.5,0.6,2.1,0L1078.1-793.9z M1074-793.5h3v-3h-3V-793.5z"/>
	</g>
	<g>
		<path class="st2" d="M1097-867.5h227c10.2,0,18.5,8.3,18.5,18.5v120c0,10.2-8.3,18.5-18.5,18.5h-227c-10.2,0-18.5-8.3-18.5-18.5
			v-120C1078.5-859.2,1086.8-867.5,1097-867.5z"/>
		<path class="st1" d="M1324-709h-227c-11,0-20-9-20-20v-120c0-11,9-20,20-20h227c11,0,20,9,20,20v120C1344-718,1335-709,1324-709z
			 M1097-866c-9.4,0-17,7.6-17,17v120c0,9.4,7.6,17,17,17h227c9.4,0,17-7.6,17-17v-120c0-9.4-7.6-17-17-17H1097z"/>
	</g>
	<g>
		<path class="st1" d="M1141.4-782h4.5c4.1,0,6.8-2.9,6.8-7c0-4.1-2.7-7-6.8-7h-4.5c-0.8,0-1.3,0.5-1.3,1.3v11.5
			C1140.1-782.5,1140.6-782,1141.4-782z M1142.7-784.5v-9.1h3.3c2.5,0,4.2,1.9,4.2,4.6c0,2.7-1.7,4.6-4.2,4.6H1142.7z M1157.6-782
			h7.6c0.7,0,1.3-0.5,1.3-1.2s-0.5-1.2-1.3-1.2h-6.4v-3.4h5.7c0.7,0,1.2-0.5,1.2-1.2c0-0.7-0.5-1.2-1.2-1.2h-5.7v-3.3h6.3
			c0.7,0,1.3-0.5,1.3-1.2c0-0.7-0.5-1.2-1.3-1.2h-7.6c-0.8,0-1.3,0.5-1.3,1.3v11.5C1156.3-782.5,1156.8-782,1157.6-782z
			 M1175.5-781.7c1.2,0,2-0.7,2.5-2.1l3.9-10.7c0-0.1,0.1-0.4,0.1-0.5c0-0.7-0.5-1.2-1.3-1.2c-0.6,0-1,0.4-1.2,0.9l-4,10.9l-4-10.9
			c-0.2-0.6-0.6-0.9-1.2-0.9c-0.8,0-1.3,0.5-1.3,1.2c0,0.1,0,0.4,0.1,0.5l3.9,10.7C1173.5-782.4,1174.3-781.7,1175.5-781.7z
			 M1186.3-782h7.6c0.7,0,1.3-0.5,1.3-1.2s-0.5-1.2-1.3-1.2h-6.4v-3.4h5.7c0.7,0,1.2-0.5,1.2-1.2c0-0.7-0.5-1.2-1.2-1.2h-5.7v-3.3
			h6.3c0.7,0,1.3-0.5,1.3-1.2c0-0.7-0.5-1.2-1.3-1.2h-7.6c-0.8,0-1.3,0.5-1.3,1.3v11.5C1185-782.5,1185.5-782,1186.3-782z
			 M1200.2-782h7.2c0.7,0,1.3-0.5,1.3-1.2s-0.5-1.2-1.3-1.2h-5.9V-795c0-0.8-0.5-1.3-1.3-1.3c-0.8,0-1.3,0.5-1.3,1.3v11.7
			C1198.9-782.5,1199.5-782,1200.2-782z M1217.4-781.7c4.2,0,7.2-3,7.2-7.3c0-4.3-3-7.3-7.2-7.3c-4.2,0-7.2,3-7.2,7.3
			C1210.2-784.7,1213.2-781.7,1217.4-781.7z M1212.8-789c0-2.8,1.9-4.8,4.6-4.8c2.7,0,4.6,1.9,4.6,4.8c0,2.8-1.9,4.8-4.6,4.8
			C1214.7-784.2,1212.8-786.2,1212.8-789z M1229.4-781.8c0.8,0,1.3-0.5,1.3-1.3v-3.9h3.4c2.9,0,5.1-1.8,5.1-4.6
			c0-2.8-2.2-4.6-5.1-4.6h-4.6c-0.8,0-1.3,0.5-1.3,1.3v11.7C1228.2-782.3,1228.7-781.8,1229.4-781.8z M1230.7-789.3v-4.3h3.5
			c1.4,0,2.4,0.9,2.4,2.2s-0.9,2.2-2.4,2.2H1230.7z M1243.4-782h7.6c0.7,0,1.3-0.5,1.3-1.2s-0.5-1.2-1.3-1.2h-6.4v-3.4h5.7
			c0.7,0,1.2-0.5,1.2-1.2c0-0.7-0.5-1.2-1.2-1.2h-5.7v-3.3h6.3c0.7,0,1.3-0.5,1.3-1.2c0-0.7-0.5-1.2-1.3-1.2h-7.6
			c-0.8,0-1.3,0.5-1.3,1.3v11.5C1242.2-782.5,1242.7-782,1243.4-782z M1257.4-781.8c0.8,0,1.3-0.5,1.3-1.3v-4h3.1l3.2,4.8
			c0.2,0.4,0.6,0.6,1.1,0.6c0.7,0,1.2-0.5,1.2-1.1c0-0.3-0.1-0.6-0.3-1l-2.5-3.7c1.7-0.7,2.7-2.1,2.7-4.1c0-2.7-2.1-4.5-4.9-4.5
			h-4.8c-0.8,0-1.3,0.5-1.3,1.3v11.7C1256.1-782.3,1256.6-781.8,1257.4-781.8z M1258.6-789.5v-4.1h3.6c1.3,0,2.2,0.8,2.2,2.1
			c0,1.3-0.9,2.1-2.2,2.1H1258.6z M1276.1-781.7c3.2,0,5.3-1.7,5.3-4.4c0-2.6-1.7-3.5-3.7-4l-2.5-0.6c-1.3-0.3-2.1-0.6-2.1-1.7
			c0-1.1,1-1.6,2.4-1.6c1.7,0,2.8,0.7,3.4,1.8c0.4,0.4,0.7,0.6,1.2,0.6c0.7,0,1.1-0.5,1.1-1.2c0-0.8-0.5-1.7-1.4-2.3
			c-1-0.6-2.3-1.2-4.1-1.2c-3.2,0-5.3,1.6-5.3,4.2c0,2.4,1.5,3.5,3.8,4l2.6,0.5c1.1,0.2,1.8,0.7,1.8,1.8c0,1.1-0.9,1.8-2.5,1.8
			c-2,0-3.1-0.7-4-2.1c-0.3-0.3-0.6-0.5-0.9-0.5c-0.7,0-1.2,0.5-1.2,1.2c0,0.8,0.6,1.8,1.4,2.4
			C1272.6-782.2,1274-781.7,1276.1-781.7z"/>
	</g>
	<g>
		<circle class="st0" cx="718" cy="198" r="28.5"/>
		<path class="st1" d="M718,228c-16.5,0-30-13.5-30-30s13.5-30,30-30s30,13.5,30,30S734.5,228,718,228z M718,171
			c-14.9,0-27,12.1-27,27s12.1,27,27,27s27-12.1,27-27S732.9,171,718,171z"/>
	</g>
	<g>
		<path class="st1" d="M720.9,209.8c-0.6,0-1-0.4-1-1c0-4.3-3.5-7.8-7.8-7.8s-7.8,3.5-7.8,7.8c0,0.6-0.4,1-1,1s-1-0.4-1-1
			c0-5.4,4.4-9.8,9.8-9.8s9.8,4.4,9.8,9.8C721.9,209.4,721.5,209.8,720.9,209.8z"/>
	</g>
	<g>
		<path class="st1" d="M713.9,190.7c-2.7,0-5.3-1.1-7.2-3c-0.4-0.4-0.4-1,0-1.4c0.4-0.4,1-0.4,1.4,0c2.3,2.4,5.9,3.1,8.9,1.8
			c0.5-0.2,1.1,0,1.3,0.5c0.2,0.5,0,1.1-0.5,1.3C716.6,190.5,715.3,190.7,713.9,190.7z"/>
	</g>
	<g>
		<path class="st1" d="M712.1,196.1c-3.5,0-6.4-2.9-6.4-6.4c0-3.5,2.9-6.4,6.4-6.4s6.4,2.9,6.4,6.4
			C718.5,193.3,715.6,196.1,712.1,196.1z M712.1,185.3c-2.4,0-4.4,2-4.4,4.4c0,2.4,2,4.4,4.4,4.4s4.4-2,4.4-4.4
			C716.5,187.3,714.5,185.3,712.1,185.3z"/>
	</g>
	<g>
		<path class="st1" d="M723.9,196.1c-1.2,0-2.4-0.3-3.5-1c-0.5-0.3-0.6-0.9-0.3-1.4c0.3-0.5,0.9-0.6,1.4-0.3
			c1.8,1.2,4.3,0.8,5.7-0.8c1.4-1.6,1.4-4.1,0-5.8c-1.4-1.7-3.9-2-5.7-0.8c-0.5,0.3-1.1,0.2-1.4-0.3c-0.3-0.5-0.2-1.1,0.3-1.4
			c2.7-1.7,6.2-1.2,8.3,1.2c2.1,2.4,2.1,6,0,8.4C727.5,195.4,725.7,196.1,723.9,196.1z"/>
	</g>
	<g>
		<path class="st1" d="M732.7,209.8c-0.6,0-1-0.4-1-1c0-2.4-1.1-4.7-3-6.1c-1.9-1.5-4.3-2.1-6.6-1.5c-0.5,0.1-1.1-0.2-1.2-0.8
			c-0.1-0.5,0.2-1.1,0.8-1.2c2.9-0.7,6,0,8.3,1.9c2.4,1.9,3.7,4.7,3.7,7.7C733.7,209.4,733.3,209.8,732.7,209.8
			C732.7,209.8,732.7,209.8,732.7,209.8z"/>
	</g>
	<g>
		<path class="st1" d="M725.7,190.7c-1.9,0-3.7-0.5-5.3-1.5c-0.5-0.3-0.6-0.9-0.3-1.4c0.3-0.5,0.9-0.6,1.4-0.3
			c2.2,1.4,5,1.6,7.4,0.6c0.5-0.2,1.1,0,1.3,0.5c0.2,0.5,0,1.1-0.5,1.3C728.4,190.5,727.1,190.7,725.7,190.7z"/>
	</g>
	<g>
		<circle class="st0" cx="1211" cy="906" r="28.5"/>
		<path class="st1" d="M1211,936c-16.5,0-30-13.5-30-30s13.5-30,30-30s30,13.5,30,30S1227.5,936,1211,936z M1211,879
			c-14.9,0-27,12.1-27,27s12.1,27,27,27s27-12.1,27-27S1225.9,879,1211,879z"/>
	</g>
	<g>
		<path class="st1" d="M1213.9,917.8c-0.6,0-1-0.4-1-1c0-4.3-3.5-7.8-7.8-7.8c-4.3,0-7.8,3.5-7.8,7.8c0,0.6-0.4,1-1,1s-1-0.4-1-1
			c0-5.4,4.4-9.8,9.8-9.8s9.8,4.4,9.8,9.8C1214.9,917.4,1214.5,917.8,1213.9,917.8z"/>
	</g>
	<g>
		<path class="st1" d="M1206.9,898.7c-2.7,0-5.3-1.1-7.2-3c-0.4-0.4-0.4-1,0-1.4c0.4-0.4,1-0.4,1.4,0c2.3,2.4,5.9,3.1,8.9,1.8
			c0.5-0.2,1.1,0,1.3,0.5s0,1.1-0.5,1.3C1209.6,898.5,1208.3,898.7,1206.9,898.7z"/>
	</g>
	<g>
		<path class="st1" d="M1205.1,904.1c-3.5,0-6.4-2.9-6.4-6.4c0-3.5,2.9-6.4,6.4-6.4s6.4,2.9,6.4,6.4
			C1211.5,901.3,1208.6,904.1,1205.1,904.1z M1205.1,893.3c-2.4,0-4.4,2-4.4,4.4c0,2.4,2,4.4,4.4,4.4s4.4-2,4.4-4.4
			C1209.5,895.3,1207.5,893.3,1205.1,893.3z"/>
	</g>
	<g>
		<path class="st1" d="M1216.9,904.1c-1.2,0-2.4-0.3-3.5-1c-0.5-0.3-0.6-0.9-0.3-1.4s0.9-0.6,1.4-0.3c1.8,1.2,4.3,0.8,5.7-0.8
			c1.4-1.6,1.4-4.1,0-5.8c-1.4-1.6-3.9-2-5.7-0.8c-0.5,0.3-1.1,0.2-1.4-0.3c-0.3-0.5-0.2-1.1,0.3-1.4c2.7-1.7,6.2-1.2,8.3,1.2
			c2.1,2.4,2.1,6,0,8.4C1220.5,903.4,1218.7,904.1,1216.9,904.1z"/>
	</g>
	<g>
		<path class="st1" d="M1225.7,917.8c-0.6,0-1-0.4-1-1c0-2.4-1.1-4.7-3-6.1c-1.9-1.5-4.3-2.1-6.6-1.5c-0.5,0.1-1.1-0.2-1.2-0.8
			c-0.1-0.5,0.2-1.1,0.8-1.2c2.9-0.7,6,0,8.3,1.9c2.3,1.9,3.7,4.7,3.7,7.7C1226.7,917.4,1226.3,917.8,1225.7,917.8L1225.7,917.8z"/>
	</g>
	<g>
		<path class="st1" d="M1218.7,898.7c-1.9,0-3.7-0.5-5.3-1.5c-0.5-0.3-0.6-0.9-0.3-1.4s0.9-0.6,1.4-0.3c2.2,1.4,5,1.6,7.4,0.6
			c0.5-0.2,1.1,0,1.3,0.5c0.2,0.5,0,1.1-0.5,1.3C1221.4,898.5,1220.1,898.7,1218.7,898.7z"/>
	</g>
	<g>
		<circle class="st0" cx="1211" cy="-869" r="28.5"/>
		<path class="st1" d="M1211-839c-16.5,0-30-13.5-30-30s13.5-30,30-30s30,13.5,30,30S1227.5-839,1211-839z M1211-896
			c-14.9,0-27,12.1-27,27s12.1,27,27,27s27-12.1,27-27S1225.9-896,1211-896z"/>
	</g>
	<g>
		<path class="st1" d="M1213.9-857.2c-0.6,0-1-0.4-1-1c0-4.3-3.5-7.8-7.8-7.8c-4.3,0-7.8,3.5-7.8,7.8c0,0.6-0.4,1-1,1s-1-0.4-1-1
			c0-5.4,4.4-9.8,9.8-9.8s9.8,4.4,9.8,9.8C1214.9-857.6,1214.5-857.2,1213.9-857.2z"/>
	</g>
	<g>
		<path class="st1" d="M1206.9-876.3c-2.7,0-5.3-1.1-7.2-3c-0.4-0.4-0.4-1,0-1.4c0.4-0.4,1-0.4,1.4,0c2.3,2.4,5.9,3.1,8.9,1.8
			c0.5-0.2,1.1,0,1.3,0.5c0.2,0.5,0,1.1-0.5,1.3C1209.6-876.5,1208.3-876.3,1206.9-876.3z"/>
	</g>
	<g>
		<path class="st1" d="M1205.1-870.9c-3.5,0-6.4-2.9-6.4-6.4s2.9-6.4,6.4-6.4s6.4,2.9,6.4,6.4S1208.6-870.9,1205.1-870.9z
			 M1205.1-881.7c-2.4,0-4.4,2-4.4,4.4s2,4.4,4.4,4.4s4.4-2,4.4-4.4S1207.5-881.7,1205.1-881.7z"/>
	</g>
	<g>
		<path class="st1" d="M1216.9-870.9c-1.2,0-2.4-0.3-3.5-1c-0.5-0.3-0.6-0.9-0.3-1.4c0.3-0.5,0.9-0.6,1.4-0.3
			c1.8,1.2,4.3,0.9,5.7-0.8c1.4-1.6,1.4-4.1,0-5.8c-1.4-1.6-3.9-2-5.7-0.8c-0.5,0.3-1.1,0.2-1.4-0.3c-0.3-0.5-0.2-1.1,0.3-1.4
			c2.7-1.7,6.2-1.2,8.3,1.2c2.1,2.4,2.1,6,0,8.4C1220.5-871.6,1218.7-870.9,1216.9-870.9z"/>
	</g>
	<g>
		<path class="st1" d="M1225.7-857.2c-0.6,0-1-0.4-1-1c0-2.4-1.1-4.6-3-6.1c-1.9-1.5-4.3-2-6.6-1.5c-0.5,0.1-1.1-0.2-1.2-0.8
			c-0.1-0.5,0.2-1.1,0.8-1.2c2.9-0.7,6,0,8.3,1.9c2.4,1.9,3.7,4.7,3.7,7.7C1226.7-857.6,1226.3-857.2,1225.7-857.2L1225.7-857.2z"/>
	</g>
	<g>
		<path class="st1" d="M1218.7-876.3c-1.9,0-3.7-0.5-5.3-1.5c-0.5-0.3-0.6-0.9-0.3-1.4c0.3-0.5,0.9-0.6,1.4-0.3
			c1.3,0.8,2.7,1.2,4.2,1.2c0,0,0,0,0,0c1.1,0,2.2-0.2,3.2-0.6c0.5-0.2,1.1,0,1.3,0.5c0.2,0.5,0,1.1-0.5,1.3
			C1221.4-876.5,1220.1-876.3,1218.7-876.3C1218.7-876.3,1218.7-876.3,1218.7-876.3z"/>
	</g>
</g>
<g id="MONITORS">
	<polygon class="st4" points="568,-898.8 568,146 1016,146 1016,366 1016,428 1016,434 1398,434 1398,594.1 950,594.1 950,504 
		900,504 900,428 568,428 568,1095.4 1866.9,1095.4 1866.9,-898.8 	"/>
</g>
<g id="Developers" class="st5">
	<polygon class="st6" points="1077.1,594.1 1077.1,125 543.2,125 543.2,594.1 543.2,626.5 543.2,1097.6 1875.5,1097.6 1875.5,594.1 
			"/>
</g>
</svg>
