<svg fill="none" height="618" viewBox="0 0 566 618" width="566" xmlns="http://www.w3.org/2000/svg"><path d="m85 142v199" stroke="#6349ff" stroke-dasharray=".1 10" stroke-linecap="round" stroke-width="4"/><path d="m285 142v199" stroke="#6349ff" stroke-dasharray=".1 10" stroke-linecap="round" stroke-width="4"/><path d="m485 142v199" stroke="#6349ff" stroke-dasharray=".1 10" stroke-linecap="round" stroke-width="4"/><path d="m423 283.828-57.172 57.172" stroke="#6349ff" stroke-dasharray=".1 10" stroke-linecap="round" stroke-width="4"/><path d="m213 293.828-47.172 47.172" stroke="#6349ff" stroke-dasharray=".1 10" stroke-linecap="round" stroke-width="4"/><rect fill="#ffc398" height="117" rx="17.5" stroke="#444" stroke-width="3" width="563" x="1.5" y="28.5"/><path d="m111.203 93c-.297 0-.539-.0964-.726-.2891-.188-.1927-.282-.4401-.282-.7421v-9.1876c0-.3072.091-.5546.274-.7421.187-.1927.432-.2891.734-.2891h3.625c1.083 0 2.039.237 2.867.7109.828.474 1.469 1.1381 1.922 1.9922.453.8542.68 1.8281.68 2.9219 0 1.099-.227 2.0755-.68 2.9297-.453.8489-1.094 1.5104-1.922 1.9844-.828.4739-1.784.7109-2.867.7109zm3.617-1.9766c.667 0 1.253-.1536 1.758-.4609.505-.3125.896-.7448 1.172-1.2969s.414-1.1823.414-1.8906c0-.7031-.138-1.3307-.414-1.8828-.276-.5573-.669-.9922-1.18-1.3047-.505-.3125-1.088-.4687-1.75-.4687h-2.601v7.3046zm9.305 1.9766c-.302 0-.547-.0964-.734-.2891-.183-.1927-.274-.4427-.274-.75v-9.1797c0-.3072.091-.5546.274-.7421.187-.1927.432-.2891.734-.2891h6.086c.297 0 .539.0938.727.2812.192.1823.289.4193.289.711s-.097.5312-.289.7187c-.193.1875-.435.2813-.727.2813h-5.07v2.625h4.539c.276 0 .505.0911.687.2734.188.1771.281.4011.281.6719 0 .276-.093.5026-.281.6797-.182.1719-.411.2578-.687.2578h-4.539v2.7578h5.101c.297 0 .539.0938.727.2813.192.1823.289.4192.289.7109s-.097.5312-.289.7188c-.193.1874-.435.2812-.727.2812zm14.375.2188c-.469 0-.867-.1407-1.195-.4219-.328-.2813-.594-.711-.797-1.2891l-3.149-8.5937c-.047-.1511-.07-.2839-.07-.3985 0-.2708.096-.4948.289-.6718.198-.1823.448-.2735.75-.2735.234 0 .435.0651.602.1953.172.1302.297.3125.375.5469l3.195 8.7578 3.188-8.7578c.083-.2344.208-.4167.374-.5469.167-.1302.368-.1953.602-.1953.302 0 .552.0912.75.2735.198.177.297.401.297.6718 0 .0573-.008.125-.023.2032-.016.0781-.034.1432-.055.1953l-3.149 8.5937c-.203.5781-.468 1.0078-.796 1.2891-.323.2812-.719.4219-1.188.4219zm8.625-.2188c-.302 0-.547-.0964-.734-.2891-.183-.1927-.274-.4427-.274-.75v-9.1797c0-.3072.091-.5546.274-.7421.187-.1927.432-.2891.734-.2891h6.086c.297 0 .539.0938.727.2812.192.1823.289.4193.289.711s-.097.5312-.289.7187c-.193.1875-.435.2813-.727.2813h-5.07v2.625h4.539c.276 0 .505.0911.687.2734.188.1771.281.4011.281.6719 0 .276-.093.5026-.281.6797-.182.1719-.411.2578-.687.2578h-4.539v2.7578h5.101c.297 0 .539.0938.727.2813.192.1823.289.4192.289.7109s-.097.5312-.289.7188c-.193.1874-.435.2812-.727.2812zm11.125 0c-.297 0-.539-.0964-.727-.2891-.187-.1927-.281-.4401-.281-.7421v-9.3672c0-.3073.091-.5547.274-.7422.187-.1927.432-.2891.734-.2891s.547.0964.734.2891c.188.1875.282.4349.282.7422v8.4062h4.726c.297 0 .539.0938.727.2813.192.1823.289.4192.289.7109s-.097.5312-.289.7188c-.193.1874-.435.2812-.727.2812zm13.758.2344c-1.12 0-2.12-.2474-3-.7422-.88-.5-1.568-1.1953-2.063-2.086-.489-.8906-.734-1.901-.734-3.0312 0-1.1354.245-2.1458.734-3.0312.495-.8907 1.183-1.5834 2.063-2.0782.88-.5 1.88-.75 3-.75s2.12.25 3 .75c.88.4948 1.565 1.1875 2.054 2.0782.495.8854.743 1.8958.743 3.0312 0 1.1302-.248 2.1406-.743 3.0312-.489.8907-1.174 1.586-2.054 2.086-.88.4948-1.88.7422-3 .7422zm-3.711-5.8594c0 .7448.159 1.4089.476 1.9922.318.5781.758 1.0286 1.321 1.3516.562.3229 1.2.4843 1.914.4843.713 0 1.351-.1614 1.914-.4843.562-.323 1.002-.7735 1.32-1.3516.318-.5833.477-1.2474.477-1.9922s-.159-1.4062-.477-1.9844c-.318-.5833-.758-1.0364-1.32-1.3594-.563-.3229-1.201-.4843-1.914-.4843-.714 0-1.352.1614-1.914.4843-.563.323-1.003.7761-1.321 1.3594-.317.5782-.476 1.2396-.476 1.9844zm13.328 5.8047c-.302 0-.547-.0964-.734-.2891-.183-.1927-.274-.4427-.274-.75v-9.3594c0-.3072.091-.5546.274-.7421.187-.1927.432-.2891.734-.2891h3.719c.765 0 1.455.151 2.07.4531.62.3021 1.104.7292 1.453 1.2813.354.5521.531 1.1901.531 1.914 0 .7292-.177 1.3698-.531 1.9219-.349.5521-.833.9792-1.453 1.2813-.615.2968-1.305.4453-2.07.4453h-2.703v3.0937c0 .3073-.094.5573-.282.75-.187.1927-.432.2891-.734.2891zm3.781-6.0547c.37 0 .698-.0703.985-.2109.286-.1459.507-.349.664-.6094.156-.2604.234-.5625.234-.9063 0-.3437-.078-.6458-.234-.9062-.157-.2604-.378-.461-.664-.6016-.287-.1458-.615-.2187-.985-.2187h-2.765v3.4531zm7.438 5.875c-.302 0-.547-.0964-.735-.2891-.182-.1927-.273-.4427-.273-.75v-9.1797c0-.3072.091-.5546.273-.7421.188-.1927.433-.2891.735-.2891h6.086c.297 0 .539.0938.726.2812.193.1823.289.4193.289.711s-.096.5312-.289.7187c-.192.1875-.435.2813-.726.2813h-5.071v2.625h4.539c.276 0 .506.0911.688.2734.187.1771.281.4011.281.6719 0 .276-.094.5026-.281.6797-.182.1719-.412.2578-.688.2578h-4.539v2.7578h5.102c.297 0 .539.0938.727.2813.192.1823.289.4192.289.7109s-.097.5312-.289.7188c-.193.1874-.435.2812-.727.2812zm11.125.1797c-.302 0-.547-.0964-.735-.2891-.182-.1927-.273-.4427-.273-.75v-9.3594c0-.3072.091-.5546.273-.7421.188-.1927.433-.2891.735-.2891h3.867c.74 0 1.406.151 2 .4531s1.06.724 1.398 1.2657c.344.5416.516 1.1614.516 1.8593 0 .7604-.198 1.4245-.594 1.9922-.39.5677-.924.9896-1.601 1.2656l2.007 2.9375c.183.2552.274.5131.274.7735 0 .151-.047.2942-.141.4297-.088.1354-.208.2422-.359.3203-.151.0833-.313.125-.484.125-.178 0-.339-.0417-.485-.125-.146-.0781-.268-.1901-.367-.336l-2.57-3.8047h-2.446v3.2344c0 .3073-.093.5573-.281.75-.187.1927-.432.2891-.734.2891zm3.89-6.1953c.355 0 .664-.0677.93-.2032.271-.1354.482-.3281.633-.5781s.226-.5416.226-.875c0-.3281-.075-.6172-.226-.8672s-.362-.4427-.633-.5781c-.271-.1406-.581-.2109-.93-.2109h-2.875v3.3125zm11.071 6.25c-.797 0-1.49-.086-2.078-.2578-.584-.1771-1.107-.4349-1.571-.7735-.338-.25-.612-.5495-.82-.8984-.203-.349-.305-.6875-.305-1.0156 0-.2813.091-.5157.274-.7032.182-.1927.409-.289.679-.289.282 0 .529.1276.743.3828.39.5625.833.9765 1.328 1.2422.494.2656 1.119.3984 1.875.3984.64 0 1.138-.125 1.492-.375.359-.2552.539-.6068.539-1.0547 0-.401-.13-.7109-.391-.9297-.255-.2187-.617-.3776-1.086-.4765l-2.054-.4219c-1.006-.2083-1.769-.5573-2.289-1.0469-.516-.4948-.774-1.2005-.774-2.1172 0-.6823.175-1.2786.524-1.789s.843-.9037 1.484-1.1797c.641-.2761 1.385-.4141 2.234-.4141 1.224 0 2.323.3177 3.297.9532.354.2239.633.5052.836.8437.203.3333.305.6641.305.9922 0 .2864-.081.5234-.242.7109-.157.1823-.37.2735-.641.2735-.177 0-.341-.0391-.492-.1172s-.307-.1927-.469-.3438c-.614-.9427-1.534-1.414-2.758-1.414-.593 0-1.067.1171-1.422.3515-.354.2292-.531.5521-.531.9688 0 .2916.063.526.188.7031.13.1719.31.3073.539.4063.229.0937.534.1822.914.2656l1.969.4453c.599.1354 1.112.3177 1.539.5469.427.2291.77.5573 1.031.9843.26.4219.391.9662.391 1.6329 0 .7135-.178 1.3359-.532 1.8671-.349.5313-.846.9401-1.492 1.2266-.641.2813-1.385.4219-2.234.4219zm6.718 1.7422c-.213 0-.375-.0469-.484-.1407-.109-.0885-.164-.2109-.164-.3671 0-.1459.042-.2631.125-.3516.083-.0833.203-.1589.359-.2266.256-.0989.446-.2057.571-.3203.125-.1094.211-.2656.257-.4687-.369-.0157-.669-.1355-.898-.3594-.224-.224-.336-.5104-.336-.8594 0-.25.057-.4739.172-.6719.12-.2031.281-.3593.484-.4687.209-.1146.443-.1719.704-.1719.437 0 .781.1589 1.031.4766.255.3177.383.737.383 1.2578 0 .4844-.107.9323-.321 1.3437-.208.4115-.484.7344-.828.9688-.338.2396-.69.3594-1.055.3594zm10.61-1.7969c-.287 0-.526-.099-.719-.2969-.187-.2031-.281-.4583-.281-.7656v-9.1719c0-.4323.117-.7682.351-1.0078.24-.2448.547-.3672.922-.3672.328 0 .591.0807.789.2422.203.1615.407.4297.61.8047l3.312 6.2812 3.313-6.2812c.208-.3802.414-.6484.617-.8047.203-.1615.466-.2422.789-.2422.375 0 .68.1224.914.3672.24.2396.359.5755.359 1.0078v9.1719c0 .3073-.096.5625-.289.7656-.187.1979-.427.2969-.718.2969-.287 0-.526-.1016-.719-.3047-.188-.2031-.281-.4557-.281-.7578v-6.8672l-2.665 5.1172c-.156.2917-.296.5182-.421.6797-.12.1562-.25.2734-.391.3515-.141.0782-.31.1172-.508.1172-.286 0-.521-.0833-.703-.25-.182-.1718-.388-.4713-.617-.8984l-2.656-5.1172v6.8672c0 .3021-.097.5547-.289.7578-.193.2031-.433.3047-.719.3047zm14.008.0234c-.172 0-.334-.0442-.485-.1328-.146-.0833-.263-.1979-.351-.3437-.089-.1459-.133-.3047-.133-.4766 0-.2031.047-.4245.141-.6641l3.476-8.4843c.224-.5573.482-.961.774-1.211.296-.25.684-.375 1.164-.375.479 0 .864.125 1.156.375.297.25.557.6537.781 1.211l3.477 8.4843c.099.2344.148.4558.148.6641 0 .1719-.044.3307-.133.4766-.088.1458-.208.2604-.359.3437-.146.0886-.305.1328-.477.1328-.25 0-.461-.0573-.633-.1719-.166-.1093-.289-.2682-.367-.4765l-.851-2.1641h-5.477l-.851 2.1641c-.172.4323-.506.6484-1 .6484zm6.57-4.7343-1.977-5.0235-1.984 5.0235zm6.633 4.7109c-.302 0-.547-.0964-.735-.2891-.182-.1927-.273-.4427-.273-.75v-9.539c0-.3073.091-.5547.273-.7422.188-.1927.433-.2891.735-.2891s.547.0964.734.2891c.188.1875.281.4349.281.7422v9.539c0 .3073-.093.5573-.281.75-.187.1927-.432.2891-.734.2891zm5.39-.0078c-.302 0-.547-.0938-.734-.2813-.182-.1927-.273-.4401-.273-.7422v-9.2656c0-.3958.112-.7109.336-.9453.223-.2396.52-.3594.89-.3594.266 0 .498.0703.695.211.198.1354.43.3906.696.7656l4.945 7.2109v-7.164c0-.3021.094-.5469.281-.7344.188-.1927.43-.2891.727-.2891.302 0 .547.0964.734.2891.188.1875.282.4323.282.7344v9.2578c0 .3906-.112.7083-.336.9531-.224.2396-.513.3594-.868.3594-.26 0-.497-.0677-.711-.2031-.208-.1407-.432-.3777-.671-.711l-4.985-7.1562v7.0468c0 .3021-.094.5495-.281.7422-.182.1875-.425.2813-.727.2813zm15.688.0078c-.297 0-.539-.0964-.727-.2891-.187-.1927-.281-.4427-.281-.75v-8.3984h-2.797c-.291 0-.534-.0938-.726-.2813-.188-.1875-.282-.427-.282-.7187s.094-.5287.282-.711c.192-.1874.435-.2812.726-.2812h7.617c.292 0 .532.0938.719.2812.193.1823.289.4193.289.711s-.096.5312-.289.7187c-.187.1875-.427.2813-.719.2813h-2.797v8.3984c0 .3073-.093.5573-.281.75-.187.1927-.432.2891-.734.2891zm5.719.0234c-.172 0-.334-.0442-.485-.1328-.146-.0833-.263-.1979-.351-.3437-.089-.1459-.133-.3047-.133-.4766 0-.2031.047-.4245.141-.6641l3.476-8.4843c.224-.5573.482-.961.774-1.211.296-.25.684-.375 1.164-.375.479 0 .864.125 1.156.375.297.25.557.6537.781 1.211l3.477 8.4843c.099.2344.148.4558.148.6641 0 .1719-.044.3307-.133.4766-.088.1458-.208.2604-.359.3437-.146.0886-.305.1328-.477.1328-.25 0-.461-.0573-.633-.1719-.166-.1093-.289-.2682-.367-.4765l-.851-2.1641h-5.477l-.851 2.1641c-.172.4323-.506.6484-1 .6484zm6.57-4.7343-1.977-5.0235-1.984 5.0235zm6.633 4.7109c-.302 0-.547-.0964-.735-.2891-.182-.1927-.273-.4427-.273-.75v-9.539c0-.3073.091-.5547.273-.7422.188-.1927.433-.2891.735-.2891s.547.0964.734.2891c.188.1875.281.4349.281.7422v9.539c0 .3073-.093.5573-.281.75-.187.1927-.432.2891-.734.2891zm5.39-.0078c-.302 0-.547-.0938-.734-.2813-.182-.1927-.273-.4401-.273-.7422v-9.2656c0-.3958.112-.7109.336-.9453.223-.2396.52-.3594.89-.3594.266 0 .498.0703.695.211.198.1354.43.3906.696.7656l4.945 7.2109v-7.164c0-.3021.094-.5469.281-.7344.188-.1927.43-.2891.727-.2891.302 0 .547.0964.734.2891.188.1875.282.4323.282.7344v9.2578c0 .3906-.112.7083-.336.9531-.224.2396-.513.3594-.868.3594-.26 0-.497-.0677-.711-.2031-.208-.1407-.432-.3777-.671-.711l-4.985-7.1562v7.0468c0 .3021-.094.5495-.281.7422-.182.1875-.425.2813-.727.2813zm12.953-.1719c-.302 0-.546-.0964-.734-.2891-.182-.1927-.273-.4427-.273-.75v-9.1797c0-.3072.091-.5546.273-.7421.188-.1927.432-.2891.734-.2891h6.086c.297 0 .54.0938.727.2812.193.1823.289.4193.289.711s-.096.5312-.289.7187-.435.2813-.727.2813h-5.07v2.625h4.539c.276 0 .505.0911.688.2734.187.1771.281.4011.281.6719 0 .276-.094.5026-.281.6797-.183.1719-.412.2578-.688.2578h-4.539v2.7578h5.102c.297 0 .539.0938.726.2813.193.1823.289.4192.289.7109s-.096.5312-.289.7188c-.192.1874-.435.2812-.726.2812zm11.126.1797c-.303 0-.547-.0964-.735-.2891-.182-.1927-.273-.4427-.273-.75v-9.3594c0-.3072.091-.5546.273-.7421.188-.1927.432-.2891.735-.2891h3.867c.739 0 1.406.151 2 .4531.593.3021 1.06.724 1.398 1.2657.344.5416.516 1.1614.516 1.8593 0 .7604-.198 1.4245-.594 1.9922-.391.5677-.924.9896-1.602 1.2656l2.008 2.9375c.183.2552.274.5131.274.7735 0 .151-.047.2942-.141.4297-.088.1354-.208.2422-.359.3203-.151.0833-.313.125-.485.125-.177 0-.338-.0417-.484-.125-.146-.0781-.268-.1901-.367-.336l-2.571-3.8047h-2.445v3.2344c0 .3073-.094.5573-.281.75-.188.1927-.432.2891-.734.2891zm3.89-6.1953c.354 0 .664-.0677.93-.2032.271-.1354.482-.3281.633-.5781s.226-.5416.226-.875c0-.3281-.075-.6172-.226-.8672s-.362-.4427-.633-.5781c-.271-.1406-.581-.2109-.93-.2109h-2.875v3.3125zm11.07 6.25c-.796 0-1.489-.086-2.078-.2578-.583-.1771-1.106-.4349-1.57-.7735-.339-.25-.612-.5495-.82-.8984-.203-.349-.305-.6875-.305-1.0156 0-.2813.091-.5157.273-.7032.183-.1927.409-.289.68-.289.281 0 .529.1276.742.3828.391.5625.834.9765 1.328 1.2422.495.2656 1.12.3984 1.875.3984.641 0 1.138-.125 1.493-.375.359-.2552.539-.6068.539-1.0547 0-.401-.131-.7109-.391-.9297-.255-.2187-.617-.3776-1.086-.4765l-2.055-.4219c-1.005-.2083-1.768-.5573-2.289-1.0469-.515-.4948-.773-1.2005-.773-2.1172 0-.6823.174-1.2786.523-1.789s.844-.9037 1.485-1.1797c.64-.2761 1.385-.4141 2.234-.4141 1.224 0 2.323.3177 3.297.9532.354.2239.633.5052.836.8437.203.3333.305.6641.305.9922 0 .2864-.081.5234-.243.7109-.156.1823-.369.2735-.64.2735-.177 0-.341-.0391-.492-.1172s-.308-.1927-.469-.3438c-.615-.9427-1.534-1.414-2.758-1.414-.594 0-1.068.1171-1.422.3515-.354.2292-.531.5521-.531.9688 0 .2916.062.526.187.7031.131.1719.31.3073.539.4063.23.0937.534.1822.915.2656l1.968.4453c.599.1354 1.112.3177 1.539.5469.427.2291.771.5573 1.032.9843.26.4219.39.9662.39 1.6329 0 .7135-.177 1.3359-.531 1.8671-.349.5313-.846.9401-1.492 1.2266-.641.2813-1.386.4219-2.235.4219zm6.719 1.7422c-.213 0-.375-.0469-.484-.1407-.11-.0885-.164-.2109-.164-.3671 0-.1459.041-.2631.125-.3516.083-.0833.203-.1589.359-.2266.255-.0989.445-.2057.57-.3203.125-.1094.211-.2656.258-.4687-.37-.0157-.669-.1355-.898-.3594-.224-.224-.336-.5104-.336-.8594 0-.25.057-.4739.172-.6719.12-.2031.281-.3593.484-.4687.208-.1146.443-.1719.703-.1719.438 0 .782.1589 1.032.4766.255.3177.382.737.382 1.2578 0 .4844-.106.9323-.32 1.3437-.208.4115-.484.7344-.828.9688-.339.2396-.69.3594-1.055.3594zm10.61-1.7969c-.287 0-.526-.099-.719-.2969-.188-.2031-.281-.4583-.281-.7656v-9.1719c0-.4323.117-.7682.351-1.0078.24-.2448.547-.3672.922-.3672.328 0 .591.0807.789.2422.203.1615.406.4297.609.8047l3.313 6.2812 3.312-6.2812c.209-.3802.415-.6484.618-.8047.203-.1615.466-.2422.789-.2422.375 0 .679.1224.914.3672.239.2396.359.5755.359 1.0078v9.1719c0 .3073-.096.5625-.289.7656-.187.1979-.427.2969-.719.2969-.286 0-.526-.1016-.718-.3047-.188-.2031-.282-.4557-.282-.7578v-6.8672l-2.664 5.1172c-.156.2917-.297.5182-.422.6797-.119.1562-.25.2734-.39.3515-.141.0782-.31.1172-.508.1172-.287 0-.521-.0833-.703-.25-.182-.1718-.388-.4713-.617-.8984l-2.657-5.1172v6.8672c0 .3021-.096.5547-.289.7578-.192.2031-.432.3047-.718.3047zm19.593.0547c-1.119 0-2.119-.2474-3-.7422-.88-.5-1.567-1.1953-2.062-2.086-.49-.8906-.735-1.901-.735-3.0312 0-1.1354.245-2.1458.735-3.0312.495-.8907 1.182-1.5834 2.062-2.0782.881-.5 1.881-.75 3-.75 1.12 0 2.12.25 3 .75.881.4948 1.565 1.1875 2.055 2.0782.495.8854.742 1.8958.742 3.0312 0 1.1302-.247 2.1406-.742 3.0312-.49.8907-1.174 1.586-2.055 2.086-.88.4948-1.88.7422-3 .7422zm-3.711-5.8594c0 .7448.159 1.4089.477 1.9922.318.5781.758 1.0286 1.32 1.3516.563.3229 1.201.4843 1.914.4843.714 0 1.352-.1614 1.914-.4843.563-.323 1.003-.7735 1.321-1.3516.317-.5833.476-1.2474.476-1.9922s-.159-1.4062-.476-1.9844c-.318-.5833-.758-1.0364-1.321-1.3594-.562-.3229-1.2-.4843-1.914-.4843-.713 0-1.351.1614-1.914.4843-.562.323-1.002.7761-1.32 1.3594-.318.5782-.477 1.2396-.477 1.9844zm13.329 5.7969c-.303 0-.547-.0938-.735-.2813-.182-.1927-.273-.4401-.273-.7422v-9.2656c0-.3958.112-.7109.336-.9453.224-.2396.52-.3594.89-.3594.266 0 .498.0703.696.211.197.1354.429.3906.695.7656l4.945 7.2109v-7.164c0-.3021.094-.5469.281-.7344.188-.1927.43-.2891.727-.2891.302 0 .547.0964.734.2891.188.1875.282.4323.282.7344v9.2578c0 .3906-.112.7083-.336.9531-.224.2396-.513.3594-.868.3594-.26 0-.497-.0677-.71-.2031-.209-.1407-.433-.3777-.672-.711l-4.985-7.1562v7.0468c0 .3021-.093.5495-.281.7422-.182.1875-.424.2813-.726.2813zm12.953.0078c-.302 0-.547-.0964-.735-.2891-.182-.1927-.273-.4427-.273-.75v-9.539c0-.3073.091-.5547.273-.7422.188-.1927.433-.2891.735-.2891s.547.0964.734.2891c.187.1875.281.4349.281.7422v9.539c0 .3073-.094.5573-.281.75s-.432.2891-.734.2891zm8.125 0c-.297 0-.539-.0964-.727-.2891-.187-.1927-.281-.4427-.281-.75v-8.3984h-2.797c-.292 0-.534-.0938-.727-.2813-.187-.1875-.281-.427-.281-.7187s.094-.5287.281-.711c.193-.1874.435-.2812.727-.2812h7.617c.292 0 .531.0938.719.2812.193.1823.289.4193.289.711s-.096.5312-.289.7187c-.188.1875-.427.2813-.719.2813h-2.797v8.3984c0 .3073-.093.5573-.281.75s-.432.2891-.734.2891zm11.867.0547c-1.12 0-2.12-.2474-3-.7422-.88-.5-1.568-1.1953-2.063-2.086-.489-.8906-.734-1.901-.734-3.0312 0-1.1354.245-2.1458.734-3.0312.495-.8907 1.183-1.5834 2.063-2.0782.88-.5 1.88-.75 3-.75s2.12.25 3 .75c.88.4948 1.565 1.1875 2.055 2.0782.494.8854.742 1.8958.742 3.0312 0 1.1302-.248 2.1406-.742 3.0312-.49.8907-1.175 1.586-2.055 2.086-.88.4948-1.88.7422-3 .7422zm-3.711-5.8594c0 .7448.159 1.4089.476 1.9922.318.5781.758 1.0286 1.321 1.3516.562.3229 1.2.4843 1.914.4843.713 0 1.351-.1614 1.914-.4843.562-.323 1.002-.7735 1.32-1.3516.318-.5833.477-1.2474.477-1.9922s-.159-1.4062-.477-1.9844c-.318-.5833-.758-1.0364-1.32-1.3594-.563-.3229-1.201-.4843-1.914-.4843-.714 0-1.352.1614-1.914.4843-.563.323-1.003.7761-1.321 1.3594-.317.5782-.476 1.2396-.476 1.9844zm13.328 5.8047c-.302 0-.547-.0964-.734-.2891-.183-.1927-.274-.4427-.274-.75v-9.3594c0-.3072.091-.5546.274-.7421.187-.1927.432-.2891.734-.2891h3.867c.74 0 1.406.151 2 .4531s1.06.724 1.399 1.2657c.343.5416.515 1.1614.515 1.8593 0 .7604-.198 1.4245-.593 1.9922-.391.5677-.925.9896-1.602 1.2656l2.008 2.9375c.182.2552.273.5131.273.7735 0 .151-.047.2942-.14.4297-.089.1354-.209.2422-.36.3203-.151.0833-.312.125-.484.125-.177 0-.339-.0417-.485-.125-.145-.0781-.268-.1901-.367-.336l-2.57-3.8047h-2.445v3.2344c0 .3073-.094.5573-.282.75-.187.1927-.432.2891-.734.2891zm3.891-6.1953c.354 0 .664-.0677.929-.2032.271-.1354.482-.3281.633-.5781s.227-.5416.227-.875c0-.3281-.076-.6172-.227-.8672s-.362-.4427-.633-.5781c-.271-.1406-.58-.2109-.929-.2109h-2.875v3.3125zm11.07 6.25c-.797 0-1.49-.086-2.078-.2578-.584-.1771-1.107-.4349-1.571-.7735-.338-.25-.611-.5495-.82-.8984-.203-.349-.304-.6875-.304-1.0156 0-.2813.091-.5157.273-.7032.182-.1927.409-.289.68-.289.281 0 .528.1276.742.3828.39.5625.833.9765 1.328 1.2422.495.2656 1.12.3984 1.875.3984.641 0 1.138-.125 1.492-.375.36-.2552.539-.6068.539-1.0547 0-.401-.13-.7109-.39-.9297-.256-.2187-.618-.3776-1.086-.4765l-2.055-.4219c-1.005-.2083-1.768-.5573-2.289-1.0469-.516-.4948-.774-1.2005-.774-2.1172 0-.6823.175-1.2786.524-1.789s.844-.9037 1.484-1.1797c.641-.2761 1.386-.4141 2.235-.4141 1.224 0 2.323.3177 3.296.9532.355.2239.633.5052.836.8437.204.3333.305.6641.305.9922 0 .2864-.081.5234-.242.7109-.156.1823-.37.2735-.641.2735-.177 0-.341-.0391-.492-.1172s-.307-.1927-.469-.3438c-.614-.9427-1.533-1.414-2.757-1.414-.594 0-1.068.1171-1.422.3515-.354.2292-.532.5521-.532.9688 0 .2916.063.526.188.7031.13.1719.31.3073.539.4063.229.0937.534.1822.914.2656l1.969.4453c.599.1354 1.112.3177 1.539.5469.427.2291.771.5573 1.031.9843.261.4219.391.9662.391 1.6329 0 .7135-.177 1.3359-.531 1.8671-.349.5313-.847.9401-1.493 1.2266-.64.2813-1.385.4219-2.234.4219z" fill="#444"/><rect fill="#ddeff1" height="117" rx="17.5" stroke="#444" stroke-width="3" width="163" x="200.5" y="342.5"/><path d="m237.812 383.234c-.796 0-1.489-.086-2.078-.257-.583-.178-1.106-.435-1.57-.774-.338-.25-.612-.549-.82-.898-.203-.349-.305-.688-.305-1.016 0-.281.091-.516.273-.703.183-.193.409-.289.68-.289.281 0 .529.127.742.383.391.562.834.976 1.328 1.242.495.266 1.12.398 1.876.398.64 0 1.138-.125 1.492-.375.359-.255.539-.606.539-1.054 0-.401-.13-.711-.391-.93-.255-.219-.617-.378-1.086-.477l-2.054-.422c-1.006-.208-1.769-.557-2.29-1.046-.515-.495-.773-1.201-.773-2.118 0-.682.174-1.278.523-1.789.349-.51.844-.903 1.485-1.179.64-.276 1.385-.414 2.234-.414 1.224 0 2.323.317 3.297.953.354.224.633.505.836.843.203.334.305.665.305.993 0 .286-.081.523-.243.711-.156.182-.369.273-.64.273-.177 0-.341-.039-.492-.117s-.308-.193-.469-.344c-.615-.943-1.534-1.414-2.758-1.414-.594 0-1.068.117-1.422.352-.354.229-.531.552-.531.968 0 .292.062.526.188.704.13.171.309.307.539.406.229.094.533.182.914.265l1.968.446c.599.135 1.112.317 1.539.547.428.229.771.557 1.032.984.26.422.39.966.39 1.633 0 .713-.177 1.336-.531 1.867-.349.531-.846.94-1.492 1.226-.641.282-1.386.422-2.235.422zm8.211-.054c-.302 0-.546-.097-.734-.289-.182-.193-.273-.443-.273-.75v-9.539c0-.308.091-.555.273-.743.188-.192.432-.289.734-.289.303 0 .547.097.735.289.187.188.281.435.281.743v9.539c0 .307-.094.557-.281.75-.188.192-.432.289-.735.289zm9.649.054c-1.141 0-2.151-.244-3.031-.734-.881-.495-1.565-1.185-2.055-2.07-.484-.886-.727-1.896-.727-3.032 0-1.135.253-2.148.758-3.039.505-.895 1.203-1.593 2.094-2.093s1.898-.75 3.023-.75c.745 0 1.422.096 2.032.289.614.192 1.156.453 1.625.781.359.255.653.555.882.898.23.344.344.67.344.977 0 .281-.091.503-.273.664-.177.156-.391.234-.641.234-.182 0-.349-.031-.5-.093-.146-.068-.302-.177-.469-.328-.328-.448-.744-.8-1.25-1.055-.505-.255-1.109-.383-1.812-.383-.724 0-1.37.167-1.938.5-.562.328-1.002.786-1.32 1.375-.312.589-.469 1.258-.469 2.008 0 .745.157 1.411.469 2 .318.583.76 1.039 1.328 1.367.573.328 1.235.492 1.985.492.937 0 1.682-.229 2.234-.687.557-.464.865-1.112.922-1.946h-3.328c-.271 0-.503-.091-.696-.273-.192-.182-.289-.406-.289-.672 0-.297.094-.531.282-.703.187-.172.421-.258.703-.258h4.336c.312 0 .567.094.765.281.198.188.297.464.297.828 0 1.136-.221 2.112-.664 2.93-.437.813-1.055 1.432-1.851 1.86-.792.421-1.714.632-2.766.632zm9.101-.062c-.302 0-.546-.094-.734-.281-.182-.193-.273-.44-.273-.743v-9.265c0-.396.112-.711.336-.945.224-.24.52-.36.89-.36.266 0 .498.07.696.211.197.135.429.391.695.766l4.945 7.211v-7.164c0-.303.094-.547.281-.735.188-.193.43-.289.727-.289.302 0 .547.096.734.289.188.188.282.432.282.735v9.257c0 .391-.112.709-.336.953-.224.24-.513.36-.868.36-.26 0-.497-.068-.71-.203-.209-.141-.433-.378-.672-.711l-4.985-7.156v7.046c0 .303-.093.55-.281.743-.182.187-.424.281-.727.281zm11.61.031c-.172 0-.334-.044-.485-.133-.145-.083-.263-.198-.351-.343-.089-.146-.133-.305-.133-.477 0-.203.047-.424.141-.664l3.476-8.484c.224-.558.482-.961.774-1.211.297-.25.685-.375 1.164-.375s.864.125 1.156.375c.297.25.557.653.781 1.211l3.477 8.484c.099.234.148.456.148.664 0 .172-.044.331-.133.477-.088.145-.208.26-.359.343-.146.089-.305.133-.477.133-.25 0-.46-.057-.632-.172-.167-.109-.289-.268-.368-.476l-.851-2.164h-5.477l-.851 2.164c-.172.432-.505.648-1 .648zm6.57-4.734-1.976-5.024-1.985 5.024zm8.305 4.711c-.297 0-.539-.097-.727-.289-.187-.193-.281-.443-.281-.75v-8.399h-2.797c-.292 0-.534-.094-.726-.281-.188-.188-.282-.427-.282-.719 0-.291.094-.528.282-.711.192-.187.434-.281.726-.281h7.617c.292 0 .532.094.719.281.193.183.289.42.289.711 0 .292-.096.531-.289.719-.187.187-.427.281-.719.281h-2.797v8.399c0 .307-.093.557-.281.75-.187.192-.432.289-.734.289zm11.594.054c-.938 0-1.761-.192-2.469-.578-.703-.385-1.248-.927-1.633-1.625-.38-.698-.57-1.502-.57-2.414v-6.015c0-.303.093-.55.281-.743.193-.192.44-.289.742-.289.297 0 .537.097.719.289.187.193.281.44.281.743v5.812c0 .552.107 1.039.32 1.461.219.422.526.75.922.984.401.23.87.344 1.407.344.541 0 1.01-.114 1.406-.344.401-.234.708-.562.922-.984.218-.422.328-.909.328-1.461v-5.812c0-.303.091-.55.273-.743.188-.192.43-.289.727-.289.302 0 .547.097.734.289.193.193.289.44.289.743v6.015c0 .912-.192 1.716-.578 2.414-.38.698-.924 1.24-1.633 1.625-.708.386-1.531.578-2.468.578zm8.859-.054c-.302 0-.547-.097-.734-.289-.183-.193-.274-.443-.274-.75v-9.36c0-.307.091-.554.274-.742.187-.193.432-.289.734-.289h3.867c.74 0 1.406.151 2 .453s1.06.724 1.399 1.266c.343.541.515 1.161.515 1.859 0 .761-.198 1.425-.594 1.992-.39.568-.924.99-1.601 1.266l2.008 2.937c.182.256.273.513.273.774 0 .151-.047.294-.14.43-.089.135-.209.242-.36.32-.151.083-.312.125-.484.125-.177 0-.339-.042-.485-.125-.145-.078-.268-.19-.367-.336l-2.57-3.805h-2.445v3.235c0 .307-.094.557-.282.75-.187.192-.432.289-.734.289zm3.891-6.196c.354 0 .664-.067.929-.203.271-.135.482-.328.633-.578s.227-.542.227-.875c0-.328-.076-.617-.227-.867s-.362-.443-.633-.578c-.271-.141-.58-.211-.929-.211h-2.875v3.312zm8.015 6.016c-.302 0-.547-.096-.734-.289-.182-.193-.274-.443-.274-.75v-9.18c0-.307.092-.554.274-.742.187-.193.432-.289.734-.289h6.086c.297 0 .539.094.727.281.192.183.289.42.289.711 0 .292-.097.531-.289.719-.193.187-.435.281-.727.281h-5.07v2.625h4.539c.276 0 .505.091.687.274.188.177.282.401.282.671 0 .277-.094.503-.282.68-.182.172-.411.258-.687.258h-4.539v2.758h5.101c.297 0 .539.094.727.281.193.182.289.419.289.711s-.096.531-.289.719c-.193.187-.435.281-.727.281zm-106.633 24.18c-.296 0-.539-.097-.726-.289-.188-.193-.281-.443-.281-.75v-8.399h-2.797c-.292 0-.534-.094-.727-.281-.187-.188-.281-.427-.281-.719 0-.291.094-.528.281-.711.193-.187.435-.281.727-.281h7.617c.292 0 .531.094.719.281.192.183.289.42.289.711 0 .292-.097.531-.289.719-.188.187-.427.281-.719.281h-2.797v8.399c0 .307-.094.557-.281.75-.188.192-.433.289-.735.289zm8.125 0c-.302 0-.547-.097-.734-.289-.182-.193-.273-.443-.273-.75v-9.36c0-.307.091-.554.273-.742.187-.193.432-.289.734-.289h3.868c.739 0 1.406.151 2 .453.593.302 1.059.724 1.398 1.266.344.541.516 1.161.516 1.859 0 .761-.198 1.425-.594 1.992-.391.568-.925.99-1.602 1.266l2.008 2.937c.182.256.274.513.274.774 0 .151-.047.294-.141.43-.089.135-.208.242-.359.32-.151.083-.313.125-.485.125-.177 0-.338-.042-.484-.125-.146-.078-.268-.19-.367-.336l-2.571-3.805h-2.445v3.235c0 .307-.094.557-.281.75-.188.192-.433.289-.735.289zm3.891-6.196c.354 0 .664-.067.93-.203.271-.135.481-.328.632-.578.152-.25.227-.542.227-.875 0-.328-.075-.617-.227-.867-.151-.25-.361-.443-.632-.578-.271-.141-.581-.211-.93-.211h-2.875v3.312zm6.594 6.219c-.172 0-.334-.044-.485-.133-.145-.083-.263-.198-.351-.343-.089-.146-.133-.305-.133-.477 0-.203.047-.424.141-.664l3.476-8.484c.224-.558.482-.961.774-1.211.296-.25.685-.375 1.164-.375s.864.125 1.156.375c.297.25.557.653.781 1.211l3.477 8.484c.099.234.148.456.148.664 0 .172-.044.331-.133.477-.088.145-.208.26-.359.343-.146.089-.305.133-.477.133-.25 0-.461-.057-.632-.172-.167-.109-.289-.268-.368-.476l-.851-2.164h-5.477l-.851 2.164c-.172.432-.505.648-1 .648zm6.57-4.734-1.976-5.024-1.985 5.024zm6.633 4.703c-.302 0-.547-.094-.735-.281-.182-.193-.273-.44-.273-.743v-9.265c0-.396.112-.711.336-.945.224-.24.521-.36.891-.36.265 0 .497.07.695.211.198.135.43.391.695.766l4.946 7.211v-7.164c0-.303.093-.547.281-.735.187-.193.429-.289.726-.289.302 0 .547.096.735.289.187.188.281.432.281.735v9.257c0 .391-.112.709-.336.953-.224.24-.513.36-.867.36-.261 0-.498-.068-.711-.203-.208-.141-.432-.378-.672-.711l-4.984-7.156v7.046c0 .303-.094.55-.282.743-.182.187-.424.281-.726.281zm16.133.062c-.797 0-1.49-.086-2.078-.257-.584-.178-1.107-.435-1.571-.774-.338-.25-.612-.549-.82-.898-.203-.349-.305-.688-.305-1.016 0-.281.091-.516.274-.703.182-.193.409-.289.679-.289.282 0 .529.127.743.383.39.562.833.976 1.328 1.242.494.266 1.119.398 1.875.398.64 0 1.138-.125 1.492-.375.359-.255.539-.606.539-1.054 0-.401-.13-.711-.391-.93-.255-.219-.617-.378-1.086-.477l-2.054-.422c-1.006-.208-1.769-.557-2.289-1.046-.516-.495-.774-1.201-.774-2.118 0-.682.175-1.278.524-1.789.349-.51.843-.903 1.484-1.179s1.385-.414 2.234-.414c1.224 0 2.323.317 3.297.953.354.224.633.505.836.843.203.334.305.665.305.993 0 .286-.081.523-.242.711-.157.182-.37.273-.641.273-.177 0-.341-.039-.492-.117s-.307-.193-.469-.344c-.614-.943-1.534-1.414-2.758-1.414-.593 0-1.067.117-1.422.352-.354.229-.531.552-.531.968 0 .292.063.526.188.704.13.171.31.307.539.406.229.094.534.182.914.265l1.969.446c.599.135 1.112.317 1.539.547.427.229.77.557 1.031.984.26.422.391.966.391 1.633 0 .713-.178 1.336-.532 1.867-.349.531-.846.94-1.492 1.226-.641.282-1.385.422-2.234.422zm8.211-.054c-.302 0-.547-.097-.735-.289-.182-.193-.273-.443-.273-.75v-9.36c0-.307.091-.554.273-.742.188-.193.433-.289.735-.289h3.718c.766 0 1.456.151 2.071.453.619.302 1.104.729 1.453 1.281.354.552.531 1.19.531 1.914 0 .73-.177 1.37-.531 1.922-.349.552-.834.979-1.453 1.282-.615.296-1.305.445-2.071.445h-2.703v3.094c0 .307-.094.557-.281.75-.187.192-.432.289-.734.289zm3.781-6.055c.37 0 .698-.07.984-.211.287-.146.508-.349.664-.609.157-.261.235-.563.235-.907 0-.343-.078-.645-.235-.906-.156-.26-.377-.461-.664-.601-.286-.146-.614-.219-.984-.219h-2.766v3.453zm5.187 6.078c-.171 0-.333-.044-.484-.133-.146-.083-.263-.198-.352-.343-.088-.146-.132-.305-.132-.477 0-.203.047-.424.14-.664l3.477-8.484c.224-.558.482-.961.773-1.211.297-.25.685-.375 1.164-.375s.865.125 1.157.375c.296.25.557.653.781 1.211l3.476 8.484c.099.234.149.456.149.664 0 .172-.044.331-.133.477-.089.145-.208.26-.359.343-.146.089-.305.133-.477.133-.25 0-.461-.057-.633-.172-.166-.109-.289-.268-.367-.476l-.851-2.164h-5.477l-.852 2.164c-.171.432-.505.648-1 .648zm6.571-4.734-1.977-5.024-1.984 5.024zm6.632 4.711c-.302 0-.546-.097-.734-.289-.182-.193-.273-.443-.273-.75v-9.36c0-.307.091-.554.273-.742.188-.193.432-.289.734-.289h3.868c.739 0 1.406.151 2 .453.593.302 1.06.724 1.398 1.266.344.541.516 1.161.516 1.859 0 .761-.198 1.425-.594 1.992-.391.568-.924.99-1.602 1.266l2.008 2.937c.183.256.274.513.274.774 0 .151-.047.294-.141.43-.088.135-.208.242-.359.32-.151.083-.313.125-.485.125-.177 0-.338-.042-.484-.125-.146-.078-.268-.19-.367-.336l-2.571-3.805h-2.445v3.235c0 .307-.094.557-.281.75-.188.192-.432.289-.735.289zm3.891-6.196c.354 0 .664-.067.93-.203.271-.135.482-.328.633-.578s.226-.542.226-.875c0-.328-.075-.617-.226-.867s-.362-.443-.633-.578c-.271-.141-.581-.211-.93-.211h-2.875v3.312zm8.016 6.016c-.302 0-.547-.096-.735-.289-.182-.193-.273-.443-.273-.75v-9.18c0-.307.091-.554.273-.742.188-.193.433-.289.735-.289h6.086c.297 0 .539.094.726.281.193.183.289.42.289.711 0 .292-.096.531-.289.719-.192.187-.435.281-.726.281h-5.071v2.625h4.539c.276 0 .506.091.688.274.187.177.281.401.281.671 0 .277-.094.503-.281.68-.182.172-.412.258-.688.258h-4.539v2.758h5.102c.297 0 .539.094.726.281.193.182.29.419.29.711s-.097.531-.29.719c-.192.187-.434.281-.726.281zm11.125.172c-.302 0-.547-.094-.735-.281-.182-.193-.273-.44-.273-.743v-9.265c0-.396.112-.711.336-.945.224-.24.521-.36.89-.36.266 0 .498.07.696.211.198.135.43.391.695.766l4.945 7.211v-7.164c0-.303.094-.547.282-.735.187-.193.429-.289.726-.289.302 0 .547.096.735.289.187.188.281.432.281.735v9.257c0 .391-.112.709-.336.953-.224.24-.513.36-.867.36-.261 0-.498-.068-.711-.203-.209-.141-.432-.378-.672-.711l-4.984-7.156v7.046c0 .303-.094.55-.282.743-.182.187-.424.281-.726.281zm17.062.062c-1.099 0-2.078-.247-2.937-.742-.86-.495-1.529-1.185-2.008-2.07-.479-.891-.719-1.904-.719-3.039 0-1.141.24-2.156.719-3.047s1.148-1.583 2.008-2.078c.859-.495 1.838-.742 2.937-.742 1.87 0 3.308.58 4.313 1.742.203.239.37.505.5.797.135.286.203.544.203.773 0 .276-.094.511-.281.703-.183.193-.404.289-.664.289-.365 0-.683-.185-.954-.554-.666-1.146-1.7-1.719-3.101-1.719-.698 0-1.32.164-1.867.492-.542.323-.966.776-1.274 1.359-.302.584-.453 1.245-.453 1.985 0 .734.151 1.393.453 1.976.308.579.732 1.032 1.274 1.36.547.323 1.169.484 1.867.484 1.385 0 2.419-.575 3.101-1.726.282-.365.599-.547.954-.547.26 0 .481.096.664.289.187.192.281.424.281.695 0 .214-.063.464-.188.75-.125.287-.283.542-.476.766-.516.593-1.138 1.044-1.867 1.351-.724.302-1.552.453-2.485.453zm6.758-10.218c-.12-.172-.18-.355-.18-.547 0-.25.092-.461.274-.633.187-.177.419-.266.695-.266.219 0 .401.058.547.172.146.115.297.284.453.508l2.922 4.203 2.914-4.203c.162-.224.313-.393.453-.508.141-.114.323-.172.547-.172.276 0 .505.089.688.266.182.172.273.383.273.633 0 .203-.057.385-.172.547l-3.695 5.273v3.852c0 .307-.094.557-.281.75-.188.192-.433.289-.735.289s-.547-.097-.734-.289c-.182-.193-.274-.443-.274-.75v-3.844zm-75.844 33.984c-.297 0-.539-.096-.726-.289-.188-.193-.282-.44-.282-.742v-9.367c0-.308.092-.555.274-.743.187-.192.432-.289.734-.289s.547.097.735.289c.187.188.281.435.281.743v8.406h4.726c.297 0 .54.094.727.281.193.182.289.419.289.711s-.096.531-.289.719c-.193.187-.435.281-.727.281zm13.758.234c-1.12 0-2.12-.247-3-.742-.88-.5-1.568-1.195-2.062-2.086-.49-.89-.735-1.901-.735-3.031 0-1.135.245-2.146.735-3.031.494-.891 1.182-1.584 2.062-2.078.88-.5 1.88-.75 3-.75s2.12.25 3 .75c.88.494 1.565 1.187 2.055 2.078.495.885.742 1.896.742 3.031 0 1.13-.247 2.141-.742 3.031-.49.891-1.175 1.586-2.055 2.086-.88.495-1.88.742-3 .742zm-3.711-5.859c0 .745.159 1.409.477 1.992.317.578.758 1.029 1.32 1.352.563.323 1.201.484 1.914.484.714 0 1.352-.161 1.914-.484.563-.323 1.003-.774 1.32-1.352.318-.583.477-1.247.477-1.992s-.159-1.406-.477-1.984c-.317-.584-.757-1.037-1.32-1.36-.562-.323-1.2-.484-1.914-.484-.713 0-1.351.161-1.914.484-.562.323-1.003.776-1.32 1.36-.318.578-.477 1.239-.477 1.984zm17.586 5.859c-1.141 0-2.151-.244-3.031-.734-.88-.495-1.565-1.185-2.055-2.07-.484-.886-.726-1.896-.726-3.032 0-1.135.252-2.148.757-3.039.506-.895 1.204-1.593 2.094-2.093.891-.5 1.899-.75 3.024-.75.744 0 1.422.096 2.031.289.614.192 1.156.453 1.625.781.359.255.654.555.883.898.229.344.343.67.343.977 0 .281-.091.503-.273.664-.177.156-.391.234-.641.234-.182 0-.349-.031-.5-.093-.145-.068-.302-.177-.468-.328-.328-.448-.745-.8-1.25-1.055-.506-.255-1.11-.383-1.813-.383-.724 0-1.37.167-1.937.5-.563.328-1.003.786-1.321 1.375-.312.589-.468 1.258-.468 2.008 0 .745.156 1.411.468 2 .318.583.761 1.039 1.328 1.367.573.328 1.235.492 1.985.492.937 0 1.682-.229 2.234-.687.557-.464.865-1.112.922-1.946h-3.328c-.271 0-.503-.091-.695-.273-.193-.182-.289-.406-.289-.672 0-.297.093-.531.281-.703.187-.172.422-.258.703-.258h4.336c.312 0 .568.094.766.281.197.188.296.464.296.828 0 1.136-.221 2.112-.664 2.93-.437.813-1.054 1.432-1.851 1.86-.792.421-1.714.632-2.766.632z" fill="#444"/><rect fill="#ddeff1" height="117" rx="17.5" stroke="#444" stroke-width="3" width="163" x="401.5" y="342.5"/><path d="m468.617 383.18c-.302 0-.547-.097-.734-.289-.188-.193-.281-.443-.281-.75v-9.539c0-.308.093-.555.281-.743.187-.192.432-.289.734-.289s.547.097.735.289c.187.188.281.435.281.743v4.406l5.484-5.047c.13-.12.261-.208.391-.266.135-.057.291-.086.469-.086.145 0 .283.039.414.118.135.072.242.174.32.304.083.125.125.255.125.391 0 .187-.039.359-.117.516-.078.156-.216.322-.414.5l-3.446 3.148 3.86 4.844c.161.208.273.377.336.508.062.124.093.257.093.398 0 .151-.046.292-.14.422-.089.13-.209.232-.36.304-.151.079-.312.118-.484.118-.167 0-.336-.042-.508-.125-.172-.078-.315-.193-.429-.344l-3.813-4.805-1.781 1.625v2.61c0 .307-.094.557-.281.75-.188.192-.433.289-.735.289zm12.008-.18c-.302 0-.547-.096-.734-.289-.183-.193-.274-.443-.274-.75v-9.18c0-.307.091-.554.274-.742.187-.193.432-.289.734-.289h6.086c.297 0 .539.094.727.281.192.183.289.42.289.711 0 .292-.097.531-.289.719-.193.187-.435.281-.727.281h-5.07v2.625h4.539c.276 0 .505.091.687.274.188.177.281.401.281.671 0 .277-.093.503-.281.68-.182.172-.411.258-.687.258h-4.539v2.758h5.101c.297 0 .539.094.727.281.192.182.289.419.289.711s-.097.531-.289.719c-.193.187-.435.281-.727.281zm9.18-9.984c-.12-.172-.18-.355-.18-.547 0-.25.091-.461.273-.633.188-.177.42-.266.696-.266.218 0 .401.058.547.172.145.115.297.284.453.508l2.922 4.203 2.914-4.203c.161-.224.312-.393.453-.508.14-.114.323-.172.547-.172.276 0 .505.089.687.266.182.172.274.383.274.633 0 .203-.058.385-.172.547l-3.696 5.273v3.852c0 .307-.093.557-.281.75-.187.192-.432.289-.734.289s-.547-.097-.735-.289c-.182-.193-.273-.443-.273-.75v-3.844zm-71.821 34.164c-.296 0-.539-.097-.726-.289-.188-.193-.281-.443-.281-.75v-8.399h-2.797c-.292 0-.534-.094-.727-.281-.187-.188-.281-.427-.281-.719 0-.291.094-.528.281-.711.193-.187.435-.281.727-.281h7.617c.292 0 .531.094.719.281.192.183.289.42.289.711 0 .292-.097.531-.289.719-.188.187-.427.281-.719.281h-2.797v8.399c0 .307-.094.557-.281.75-.188.192-.433.289-.735.289zm8.125 0c-.302 0-.547-.097-.734-.289-.182-.193-.273-.443-.273-.75v-9.36c0-.307.091-.554.273-.742.187-.193.432-.289.734-.289h3.868c.739 0 1.406.151 2 .453.593.302 1.059.724 1.398 1.266.344.541.516 1.161.516 1.859 0 .761-.198 1.425-.594 1.992-.391.568-.925.99-1.602 1.266l2.008 2.937c.182.256.274.513.274.774 0 .151-.047.294-.141.43-.089.135-.208.242-.359.32-.151.083-.313.125-.485.125-.177 0-.338-.042-.484-.125-.146-.078-.268-.19-.367-.336l-2.571-3.805h-2.445v3.235c0 .307-.094.557-.281.75-.188.192-.433.289-.735.289zm3.891-6.196c.354 0 .664-.067.93-.203.271-.135.481-.328.632-.578.152-.25.227-.542.227-.875 0-.328-.075-.617-.227-.867-.151-.25-.361-.443-.632-.578-.271-.141-.581-.211-.93-.211h-2.875v3.312zm6.594 6.219c-.172 0-.334-.044-.485-.133-.145-.083-.263-.198-.351-.343-.089-.146-.133-.305-.133-.477 0-.203.047-.424.141-.664l3.476-8.484c.224-.558.482-.961.774-1.211.296-.25.685-.375 1.164-.375s.864.125 1.156.375c.297.25.557.653.781 1.211l3.477 8.484c.099.234.148.456.148.664 0 .172-.044.331-.133.477-.088.145-.208.26-.359.343-.146.089-.305.133-.477.133-.25 0-.461-.057-.632-.172-.167-.109-.289-.268-.368-.476l-.851-2.164h-5.477l-.851 2.164c-.172.432-.505.648-1 .648zm6.57-4.734-1.976-5.024-1.985 5.024zm6.633 4.703c-.302 0-.547-.094-.735-.281-.182-.193-.273-.44-.273-.743v-9.265c0-.396.112-.711.336-.945.224-.24.521-.36.891-.36.265 0 .497.07.695.211.198.135.43.391.695.766l4.946 7.211v-7.164c0-.303.093-.547.281-.735.187-.193.429-.289.726-.289.302 0 .547.096.735.289.187.188.281.432.281.735v9.257c0 .391-.112.709-.336.953-.224.24-.513.36-.867.36-.261 0-.498-.068-.711-.203-.208-.141-.432-.378-.672-.711l-4.984-7.156v7.046c0 .303-.094.55-.282.743-.182.187-.424.281-.726.281zm16.133.062c-.797 0-1.49-.086-2.078-.257-.584-.178-1.107-.435-1.571-.774-.338-.25-.612-.549-.82-.898-.203-.349-.305-.688-.305-1.016 0-.281.091-.516.274-.703.182-.193.409-.289.679-.289.282 0 .529.127.743.383.39.562.833.976 1.328 1.242.494.266 1.119.398 1.875.398.64 0 1.138-.125 1.492-.375.359-.255.539-.606.539-1.054 0-.401-.13-.711-.391-.93-.255-.219-.617-.378-1.086-.477l-2.054-.422c-1.006-.208-1.769-.557-2.289-1.046-.516-.495-.774-1.201-.774-2.118 0-.682.175-1.278.524-1.789.349-.51.843-.903 1.484-1.179s1.385-.414 2.234-.414c1.224 0 2.323.317 3.297.953.354.224.633.505.836.843.203.334.305.665.305.993 0 .286-.081.523-.242.711-.157.182-.37.273-.641.273-.177 0-.341-.039-.492-.117s-.307-.193-.469-.344c-.614-.943-1.534-1.414-2.758-1.414-.593 0-1.067.117-1.422.352-.354.229-.531.552-.531.968 0 .292.063.526.188.704.13.171.31.307.539.406.229.094.534.182.914.265l1.969.446c.599.135 1.112.317 1.539.547.427.229.77.557 1.031.984.26.422.391.966.391 1.633 0 .713-.178 1.336-.532 1.867-.349.531-.846.94-1.492 1.226-.641.282-1.385.422-2.234.422zm8.211-.054c-.302 0-.547-.097-.735-.289-.182-.193-.273-.443-.273-.75v-9.36c0-.307.091-.554.273-.742.188-.193.433-.289.735-.289h3.718c.766 0 1.456.151 2.071.453.619.302 1.104.729 1.453 1.281.354.552.531 1.19.531 1.914 0 .73-.177 1.37-.531 1.922-.349.552-.834.979-1.453 1.282-.615.296-1.305.445-2.071.445h-2.703v3.094c0 .307-.094.557-.281.75-.187.192-.432.289-.734.289zm3.781-6.055c.37 0 .698-.07.984-.211.287-.146.508-.349.664-.609.157-.261.235-.563.235-.907 0-.343-.078-.645-.235-.906-.156-.26-.377-.461-.664-.601-.286-.146-.614-.219-.984-.219h-2.766v3.453zm5.187 6.078c-.171 0-.333-.044-.484-.133-.146-.083-.263-.198-.352-.343-.088-.146-.132-.305-.132-.477 0-.203.047-.424.14-.664l3.477-8.484c.224-.558.482-.961.773-1.211.297-.25.685-.375 1.164-.375s.865.125 1.157.375c.296.25.557.653.781 1.211l3.476 8.484c.099.234.149.456.149.664 0 .172-.044.331-.133.477-.089.145-.208.26-.359.343-.146.089-.305.133-.477.133-.25 0-.461-.057-.633-.172-.166-.109-.289-.268-.367-.476l-.851-2.164h-5.477l-.852 2.164c-.171.432-.505.648-1 .648zm6.571-4.734-1.977-5.024-1.984 5.024zm6.632 4.711c-.302 0-.546-.097-.734-.289-.182-.193-.273-.443-.273-.75v-9.36c0-.307.091-.554.273-.742.188-.193.432-.289.734-.289h3.868c.739 0 1.406.151 2 .453.593.302 1.06.724 1.398 1.266.344.541.516 1.161.516 1.859 0 .761-.198 1.425-.594 1.992-.391.568-.924.99-1.602 1.266l2.008 2.937c.183.256.274.513.274.774 0 .151-.047.294-.141.43-.088.135-.208.242-.359.32-.151.083-.313.125-.485.125-.177 0-.338-.042-.484-.125-.146-.078-.268-.19-.367-.336l-2.571-3.805h-2.445v3.235c0 .307-.094.557-.281.75-.188.192-.432.289-.735.289zm3.891-6.196c.354 0 .664-.067.93-.203.271-.135.482-.328.633-.578s.226-.542.226-.875c0-.328-.075-.617-.226-.867s-.362-.443-.633-.578c-.271-.141-.581-.211-.93-.211h-2.875v3.312zm8.016 6.016c-.302 0-.547-.096-.735-.289-.182-.193-.273-.443-.273-.75v-9.18c0-.307.091-.554.273-.742.188-.193.433-.289.735-.289h6.086c.297 0 .539.094.726.281.193.183.289.42.289.711 0 .292-.096.531-.289.719-.192.187-.435.281-.726.281h-5.071v2.625h4.539c.276 0 .506.091.688.274.187.177.281.401.281.671 0 .277-.094.503-.281.68-.182.172-.412.258-.688.258h-4.539v2.758h5.102c.297 0 .539.094.726.281.193.182.29.419.29.711s-.097.531-.29.719c-.192.187-.434.281-.726.281zm11.125.172c-.302 0-.547-.094-.735-.281-.182-.193-.273-.44-.273-.743v-9.265c0-.396.112-.711.336-.945.224-.24.521-.36.89-.36.266 0 .498.07.696.211.198.135.43.391.695.766l4.945 7.211v-7.164c0-.303.094-.547.282-.735.187-.193.429-.289.726-.289.302 0 .547.096.735.289.187.188.281.432.281.735v9.257c0 .391-.112.709-.336.953-.224.24-.513.36-.867.36-.261 0-.498-.068-.711-.203-.209-.141-.432-.378-.672-.711l-4.984-7.156v7.046c0 .303-.094.55-.282.743-.182.187-.424.281-.726.281zm17.062.062c-1.099 0-2.078-.247-2.937-.742-.86-.495-1.529-1.185-2.008-2.07-.479-.891-.719-1.904-.719-3.039 0-1.141.24-2.156.719-3.047s1.148-1.583 2.008-2.078c.859-.495 1.838-.742 2.937-.742 1.87 0 3.308.58 4.313 1.742.203.239.37.505.5.797.135.286.203.544.203.773 0 .276-.094.511-.281.703-.183.193-.404.289-.664.289-.365 0-.683-.185-.954-.554-.666-1.146-1.7-1.719-3.101-1.719-.698 0-1.32.164-1.867.492-.542.323-.966.776-1.274 1.359-.302.584-.453 1.245-.453 1.985 0 .734.151 1.393.453 1.976.308.579.732 1.032 1.274 1.36.547.323 1.169.484 1.867.484 1.385 0 2.419-.575 3.101-1.726.282-.365.599-.547.954-.547.26 0 .481.096.664.289.187.192.281.424.281.695 0 .214-.063.464-.188.75-.125.287-.283.542-.476.766-.516.593-1.138 1.044-1.867 1.351-.724.302-1.552.453-2.485.453zm6.758-10.218c-.12-.172-.18-.355-.18-.547 0-.25.092-.461.274-.633.187-.177.419-.266.695-.266.219 0 .401.058.547.172.146.115.297.284.453.508l2.922 4.203 2.914-4.203c.162-.224.313-.393.453-.508.141-.114.323-.172.547-.172.276 0 .505.089.688.266.182.172.273.383.273.633 0 .203-.057.385-.172.547l-3.695 5.273v3.852c0 .307-.094.557-.281.75-.188.192-.433.289-.735.289s-.547-.097-.734-.289c-.182-.193-.274-.443-.274-.75v-3.844zm-75.844 33.984c-.297 0-.539-.096-.726-.289-.188-.193-.282-.44-.282-.742v-9.367c0-.308.092-.555.274-.743.187-.192.432-.289.734-.289s.547.097.735.289c.187.188.281.435.281.743v8.406h4.726c.297 0 .54.094.727.281.193.182.289.419.289.711s-.096.531-.289.719c-.193.187-.435.281-.727.281zm13.758.234c-1.12 0-2.12-.247-3-.742-.88-.5-1.568-1.195-2.062-2.086-.49-.89-.735-1.901-.735-3.031 0-1.135.245-2.146.735-3.031.494-.891 1.182-1.584 2.062-2.078.88-.5 1.88-.75 3-.75s2.12.25 3 .75c.88.494 1.565 1.187 2.055 2.078.495.885.742 1.896.742 3.031 0 1.13-.247 2.141-.742 3.031-.49.891-1.175 1.586-2.055 2.086-.88.495-1.88.742-3 .742zm-3.711-5.859c0 .745.159 1.409.477 1.992.317.578.758 1.029 1.32 1.352.563.323 1.201.484 1.914.484.714 0 1.352-.161 1.914-.484.563-.323 1.003-.774 1.32-1.352.318-.583.477-1.247.477-1.992s-.159-1.406-.477-1.984c-.317-.584-.757-1.037-1.32-1.36-.562-.323-1.2-.484-1.914-.484-.713 0-1.351.161-1.914.484-.562.323-1.003.776-1.32 1.36-.318.578-.477 1.239-.477 1.984zm17.586 5.859c-1.141 0-2.151-.244-3.031-.734-.88-.495-1.565-1.185-2.055-2.07-.484-.886-.726-1.896-.726-3.032 0-1.135.252-2.148.757-3.039.506-.895 1.204-1.593 2.094-2.093.891-.5 1.899-.75 3.024-.75.744 0 1.422.096 2.031.289.614.192 1.156.453 1.625.781.359.255.654.555.883.898.229.344.343.67.343.977 0 .281-.091.503-.273.664-.177.156-.391.234-.641.234-.182 0-.349-.031-.5-.093-.145-.068-.302-.177-.468-.328-.328-.448-.745-.8-1.25-1.055-.506-.255-1.11-.383-1.813-.383-.724 0-1.37.167-1.937.5-.563.328-1.003.786-1.321 1.375-.312.589-.468 1.258-.468 2.008 0 .745.156 1.411.468 2 .318.583.761 1.039 1.328 1.367.573.328 1.235.492 1.985.492.937 0 1.682-.229 2.234-.687.557-.464.865-1.112.922-1.946h-3.328c-.271 0-.503-.091-.695-.273-.193-.182-.289-.406-.289-.672 0-.297.093-.531.281-.703.187-.172.422-.258.703-.258h4.336c.312 0 .568.094.766.281.197.188.296.464.296.828 0 1.136-.221 2.112-.664 2.93-.437.813-1.054 1.432-1.851 1.86-.792.421-1.714.632-2.766.632z" fill="#444"/><rect fill="#ddeff1" height="117" rx="17.5" stroke="#444" stroke-width="3" width="163" x="1.5" y="342.5"/><path d="m53.4922 383.18c-.3021 0-.5469-.097-.7344-.289-.1823-.193-.2734-.443-.2734-.75v-9.36c0-.307.0911-.554.2734-.742.1875-.193.4323-.289.7344-.289h6.1094c.2968 0 .539.094.7265.281.1927.183.2891.42.2891.711 0 .292-.0964.531-.2891.719-.1927.187-.4349.281-.7265.281h-5.0938v2.82h4.4766c.2916 0 .5338.094.7265.282.1927.187.2891.427.2891.718 0 .292-.0964.532-.2891.719-.1875.183-.4297.274-.7265.274h-4.4766v3.586c0 .307-.0937.557-.2812.75-.1875.192-.4323.289-.7344.289zm13.9219.054c-.9375 0-1.7605-.192-2.4688-.578-.7031-.385-1.2474-.927-1.6328-1.625-.3802-.698-.5703-1.502-.5703-2.414v-6.015c0-.303.0937-.55.2812-.743.1927-.192.4401-.289.7422-.289.2969 0 .5365.097.7188.289.1875.193.2812.44.2812.743v5.812c0 .552.1068 1.039.3203 1.461.2188.422.5261.75.9219.984.4011.23.8698.344 1.4063.344.5416 0 1.0104-.114 1.4062-.344.4011-.234.7083-.562.9219-.984.2187-.422.3281-.909.3281-1.461v-5.812c0-.303.0912-.55.2735-.743.1874-.192.4296-.289.7265-.289.3021 0 .5469.097.7344.289.1927.193.2891.44.2891.743v6.015c0 .912-.1928 1.716-.5782 2.414-.3802.698-.9245 1.24-1.6328 1.625-.7083.386-1.5312.578-2.4687.578zm8.8593-.234c-.2968 0-.539-.096-.7265-.289s-.2813-.44-.2813-.742v-9.367c0-.308.0912-.555.2735-.743.1875-.192.4323-.289.7343-.289.3021 0 .5469.097.7344.289.1875.188.2813.435.2813.743v8.406h4.7265c.2969 0 .5391.094.7266.281.1927.182.289.419.289.711s-.0963.531-.289.719c-.1927.187-.4349.281-.7266.281zm13.625.234c-1.0989 0-2.0781-.247-2.9375-.742-.8593-.495-1.5286-1.185-2.0078-2.07-.4791-.891-.7187-1.904-.7187-3.039 0-1.141.2396-2.156.7187-3.047.4792-.891 1.1485-1.583 2.0078-2.078.8594-.495 1.8386-.742 2.9375-.742 1.8698 0 3.3073.58 4.3125 1.742.2032.239.3698.505.5.797.1355.286.2032.544.2032.773 0 .276-.0938.511-.2813.703-.1823.193-.4036.289-.664.289-.3646 0-.6823-.185-.9532-.554-.6666-1.146-1.7005-1.719-3.1015-1.719-.698 0-1.3203.164-1.8672.492-.5417.323-.9662.776-1.2735 1.359-.302.584-.4531 1.245-.4531 1.985 0 .734.1511 1.393.4531 1.976.3073.579.7318 1.032 1.2735 1.36.5469.323 1.1692.484 1.8672.484 1.3854 0 2.4192-.575 3.1015-1.726.2813-.365.599-.547.9532-.547.2604 0 .4817.096.664.289.1875.192.2813.424.2813.695 0 .214-.0625.464-.1875.75-.125.287-.2839.542-.4766.766-.5156.593-1.138 1.044-1.8672 1.351-.7239.302-1.5521.453-2.4844.453zm8.7344-.054c-.3021 0-.5469-.097-.7344-.289-.1823-.193-.2734-.443-.2734-.75v-9.539c0-.308.0911-.555.2734-.743.1875-.192.4323-.289.7344-.289s.5469.097.7344.289c.1875.188.2812.435.2812.743v9.539c0 .307-.0937.557-.2812.75-.1875.192-.4323.289-.7344.289zm9.6332.054c-1.12 0-2.12-.247-3-.742-.881-.5-1.568-1.195-2.063-2.086-.489-.89-.734-1.901-.734-3.031 0-1.135.245-2.146.734-3.031.495-.891 1.182-1.584 2.063-2.078.88-.5 1.88-.75 3-.75 1.119 0 2.119.25 3 .75.88.494 1.565 1.187 2.054 2.078.495.885.742 1.896.742 3.031 0 1.13-.247 2.141-.742 3.031-.489.891-1.174 1.586-2.054 2.086-.881.495-1.881.742-3 .742zm-3.711-5.859c0 .745.159 1.409.476 1.992.318.578.758 1.029 1.321 1.352.562.323 1.2.484 1.914.484.713 0 1.351-.161 1.914-.484.562-.323 1.002-.774 1.32-1.352.318-.583.477-1.247.477-1.992s-.159-1.406-.477-1.984c-.318-.584-.758-1.037-1.32-1.36-.563-.323-1.201-.484-1.914-.484-.714 0-1.352.161-1.914.484-.563.323-1.003.776-1.321 1.36-.317.578-.476 1.239-.476 1.984zm-73.7347 29.859c-1.0989 0-2.0781-.247-2.9375-.742s-1.5286-1.185-2.0078-2.07c-.4792-.891-.7188-1.904-.7188-3.039 0-1.141.2396-2.156.7188-3.047s1.1484-1.583 2.0078-2.078 1.8386-.742 2.9375-.742c1.8698 0 3.3073.58 4.3125 1.742.2031.239.3698.505.5.797.1354.286.2031.544.2031.773 0 .276-.0937.511-.2812.703-.1823.193-.4037.289-.6641.289-.3646 0-.6823-.185-.9531-.554-.6667-1.146-1.7005-1.719-3.1016-1.719-.6979 0-1.3203.164-1.8671.492-.5417.323-.9662.776-1.2735 1.359-.3021.584-.4531 1.245-.4531 1.985 0 .734.151 1.393.4531 1.976.3073.579.7318 1.032 1.2735 1.36.5468.323 1.1692.484 1.8671.484 1.3855 0 2.4193-.575 3.1016-1.726.2813-.365.599-.547.9531-.547.2604 0 .4818.096.6641.289.1875.192.2812.424.2812.695 0 .214-.0625.464-.1875.75-.125.287-.2838.542-.4765.766-.5157.593-1.138 1.044-1.8672 1.351-.724.302-1.5521.453-2.4844.453zm8.7344-.234c-.3021 0-.5469-.096-.7344-.289-.1823-.193-.2734-.443-.2734-.75v-9.18c0-.307.0911-.554.2734-.742.1875-.193.4323-.289.7344-.289h6.0859c.2969 0 .5391.094.7266.281.1927.183.289.42.289.711 0 .292-.0963.531-.289.719-.1927.187-.4349.281-.7266.281h-5.0703v2.625h4.5391c.276 0 .5052.091.6875.274.1875.177.2812.401.2812.671 0 .277-.0937.503-.2812.68-.1823.172-.4115.258-.6875.258h-4.5391v2.758h5.1016c.2969 0 .539.094.7265.281.1927.182.2891.419.2891.711s-.0964.531-.2891.719c-.1927.187-.4349.281-.7265.281zm11.125.18c-.3021 0-.5469-.097-.7344-.289-.1823-.193-.2734-.443-.2734-.75v-9.36c0-.307.0911-.554.2734-.742.1875-.193.4323-.289.7344-.289h3.8672c.7396 0 1.4062.151 2 .453.5937.302 1.0599.724 1.3984 1.266.3438.541.5156 1.161.5156 1.859 0 .761-.1979 1.425-.5937 1.992-.3906.568-.9245.99-1.6016 1.266l2.0078 2.937c.1823.256.2735.513.2735.774 0 .151-.0469.294-.1407.43-.0885.135-.2083.242-.3593.32-.1511.083-.3125.125-.4844.125-.1771 0-.3385-.042-.4844-.125-.1458-.078-.2682-.19-.3672-.336l-2.5703-3.805h-2.4453v3.235c0 .307-.0937.557-.2812.75-.1875.192-.4323.289-.7344.289zm3.8906-6.196c.3542 0 .6641-.067.9297-.203.2708-.135.4818-.328.6328-.578.1511-.25.2266-.542.2266-.875 0-.328-.0755-.617-.2266-.867-.151-.25-.362-.443-.6328-.578-.2708-.141-.5807-.211-.9297-.211h-2.875v3.312zm10.3125 6.196c-.2969 0-.539-.097-.7266-.289-.1874-.193-.2812-.443-.2812-.75v-8.399h-2.7969c-.2916 0-.5338-.094-.7265-.281-.1875-.188-.2813-.427-.2813-.719 0-.291.0938-.528.2813-.711.1927-.187.4349-.281.7265-.281h7.6172c.2917 0 .5313.094.7188.281.1927.183.289.42.289.711 0 .292-.0963.531-.289.719-.1875.187-.4271.281-.7188.281h-2.7969v8.399c0 .307-.0937.557-.2812.75-.1875.192-.4323.289-.7344.289zm8.125 0c-.3021 0-.5469-.097-.7344-.289-.1823-.193-.2734-.443-.2734-.75v-9.539c0-.308.0911-.555.2734-.743.1875-.192.4323-.289.7344-.289s.5469.097.7344.289c.1875.188.2812.435.2812.743v9.539c0 .307-.0937.557-.2812.75-.1875.192-.4323.289-.7344.289zm5.3906 0c-.302 0-.5468-.097-.7343-.289-.1823-.193-.2735-.443-.2735-.75v-9.36c0-.307.0912-.554.2735-.742.1875-.193.4323-.289.7343-.289h6.1094c.2969 0 .5391.094.7266.281.1927.183.289.42.289.711 0 .292-.0963.531-.289.719-.1927.187-.4349.281-.7266.281h-5.0937v2.82h4.4765c.2917 0 .5339.094.7266.282.1927.187.289.427.289.718 0 .292-.0963.532-.289.719-.1875.183-.4297.274-.7266.274h-4.4765v3.586c0 .307-.0938.557-.2813.75-.1875.192-.4323.289-.7344.289zm10.4532 0c-.3021 0-.5469-.097-.7344-.289-.1823-.193-.2734-.443-.2734-.75v-9.539c0-.308.0911-.555.2734-.743.1875-.192.4323-.289.7344-.289.302 0 .5468.097.7343.289.1875.188.2813.435.2813.743v9.539c0 .307-.0938.557-.2813.75-.1875.192-.4323.289-.7343.289zm9.5.054c-1.099 0-2.0782-.247-2.9375-.742-.8594-.495-1.5287-1.185-2.0079-2.07-.4791-.891-.7187-1.904-.7187-3.039 0-1.141.2396-2.156.7187-3.047.4792-.891 1.1485-1.583 2.0079-2.078.8593-.495 1.8385-.742 2.9375-.742 1.8694 0 3.3074.58 4.3124 1.742.203.239.37.505.5.797.135.286.203.544.203.773 0 .276-.094.511-.281.703-.182.193-.404.289-.664.289-.365 0-.682-.185-.953-.554-.667-1.146-1.7008-1.719-3.1018-1.719-.6979 0-1.3203.164-1.8672.492-.5417.323-.9661.776-1.2734 1.359-.3021.584-.4532 1.245-.4532 1.985 0 .734.1511 1.393.4532 1.976.3073.579.7317 1.032 1.2734 1.36.5469.323 1.1693.484 1.8672.484 1.3854 0 2.4188-.575 3.1018-1.726.281-.365.599-.547.953-.547.26 0 .482.096.664.289.187.192.281.424.281.695 0 .214-.062.464-.187.75-.125.287-.284.542-.477.766-.515.593-1.138 1.044-1.867 1.351-.724.302-1.5521.453-2.4844.453zm7.3594-.031c-.172 0-.333-.044-.484-.133-.146-.083-.263-.198-.352-.343-.089-.146-.133-.305-.133-.477 0-.203.047-.424.141-.664l3.476-8.484c.224-.558.482-.961.774-1.211.297-.25.685-.375 1.164-.375s.864.125 1.156.375c.297.25.557.653.781 1.211l3.477 8.484c.099.234.148.456.148.664 0 .172-.044.331-.132.477-.089.145-.209.26-.36.343-.146.089-.305.133-.476.133-.25 0-.461-.057-.633-.172-.167-.109-.289-.268-.367-.476l-.852-2.164h-5.477l-.851 2.164c-.172.432-.505.648-1 .648zm6.57-4.734-1.976-5.024-1.985 5.024zm8.305 4.711c-.297 0-.539-.097-.727-.289-.187-.193-.281-.443-.281-.75v-8.399h-2.797c-.291 0-.534-.094-.726-.281-.188-.188-.282-.427-.282-.719 0-.291.094-.528.282-.711.192-.187.435-.281.726-.281h7.617c.292 0 .532.094.719.281.193.183.289.42.289.711 0 .292-.096.531-.289.719-.187.187-.427.281-.719.281h-2.796v8.399c0 .307-.094.557-.282.75-.187.192-.432.289-.734.289zm8.125-.18c-.302 0-.547-.096-.734-.289-.183-.193-.274-.443-.274-.75v-9.18c0-.307.091-.554.274-.742.187-.193.432-.289.734-.289h6.086c.297 0 .539.094.726.281.193.183.289.42.289.711 0 .292-.096.531-.289.719-.192.187-.434.281-.726.281h-5.07v2.625h4.539c.276 0 .505.091.687.274.188.177.281.401.281.671 0 .277-.093.503-.281.68-.182.172-.411.258-.687.258h-4.539v2.758h5.101c.297 0 .539.094.727.281.192.182.289.419.289.711s-.097.531-.289.719c-.193.187-.435.281-.727.281zm-94.8048 24.203c-.1718 0-.3333-.044-.4843-.133-.1459-.083-.263-.198-.3516-.343-.0885-.146-.1328-.305-.1328-.477 0-.203.0469-.424.1406-.664l3.4766-8.484c.2239-.558.4818-.961.7734-1.211.2969-.25.6849-.375 1.1641-.375s.8646.125 1.1562.375c.2969.25.5573.653.7813 1.211l3.4765 8.484c.099.234.1485.456.1485.664 0 .172-.0443.331-.1328.477-.0886.145-.2084.26-.3594.343-.1458.089-.3047.133-.4766.133-.25 0-.4609-.057-.6328-.172-.1666-.109-.289-.268-.3672-.476l-.8515-2.164h-5.4766l-.8516 2.164c-.1718.432-.5052.648-1 .648zm6.5704-4.734-1.9766-5.024-1.9844 5.024zm9.914 4.765c-.9375 0-1.7604-.192-2.4687-.578-.7031-.385-1.2474-.927-1.6328-1.625-.3802-.698-.5703-1.502-.5703-2.414v-6.015c0-.303.0937-.55.2812-.743.1927-.192.4401-.289.7422-.289.2969 0 .5364.097.7187.289.1875.193.2813.44.2813.743v5.812c0 .552.1068 1.039.3203 1.461.2187.422.526.75.9219.984.401.23.8698.344 1.4062.344.5417 0 1.0104-.114 1.4063-.344.401-.234.7083-.562.9219-.984.2187-.422.3281-.909.3281-1.461v-5.812c0-.303.0911-.55.2734-.743.1875-.192.4297-.289.7266-.289.3021 0 .5469.097.7343.289.1928.193.2891.44.2891.743v6.015c0 .912-.1927 1.716-.5781 2.414-.3802.698-.9245 1.24-1.6328 1.625-.7084.386-1.5313.578-2.4688.578zm11.5938-.054c-.2969 0-.5391-.097-.7266-.289-.1875-.193-.2812-.443-.2812-.75v-8.399h-2.7969c-.2917 0-.5339-.094-.7266-.281-.1875-.188-.2812-.427-.2812-.719 0-.291.0937-.528.2812-.711.1927-.187.4349-.281.7266-.281h7.6172c.2916 0 .5312.094.7187.281.1927.183.2891.42.2891.711 0 .292-.0964.531-.2891.719-.1875.187-.4271.281-.7187.281h-2.7969v8.399c0 .307-.0938.557-.2812.75-.1876.192-.4323.289-.7344.289zm15.6094 0c-.3021 0-.5469-.097-.7344-.289-.1823-.193-.2735-.443-.2735-.75v-3.852h-5.4609v3.852c0 .307-.0938.557-.2812.75-.1876.192-.4323.289-.7344.289s-.5469-.097-.7344-.289c-.1823-.193-.2734-.443-.2734-.75v-9.539c0-.308.0911-.555.2734-.743.1875-.192.4323-.289.7344-.289s.5468.097.7344.289c.1874.188.2812.435.2812.743v3.765h5.4609v-3.765c0-.308.0912-.555.2735-.743.1875-.192.4323-.289.7344-.289.302 0 .5442.097.7265.289.1875.188.2813.435.2813.743v9.539c0 .307-.0938.557-.2813.75-.1823.192-.4245.289-.7265.289zm9.6171.054c-1.1198 0-2.1198-.247-3-.742-.8802-.5-1.5677-1.195-2.0625-2.086-.4895-.89-.7343-1.901-.7343-3.031 0-1.135.2448-2.146.7343-3.031.4948-.891 1.1823-1.584 2.0625-2.078.8802-.5 1.8802-.75 3-.75s2.1198.25 3 .75c.8802.494 1.5651 1.187 2.0547 2.078.4948.885.7422 1.896.7422 3.031 0 1.13-.2474 2.141-.7422 3.031-.4896.891-1.1745 1.586-2.0547 2.086-.8802.495-1.8802.742-3 .742zm-3.7109-5.859c0 .745.1589 1.409.4766 1.992.3177.578.7578 1.029 1.3203 1.352s1.2005.484 1.914.484c.7136 0 1.3516-.161 1.9141-.484s1.0026-.774 1.3203-1.352c.3177-.583.4766-1.247.4766-1.992s-.1589-1.406-.4766-1.984c-.3177-.584-.7578-1.037-1.3203-1.36s-1.2005-.484-1.9141-.484c-.7135 0-1.3515.161-1.914.484s-1.0026.776-1.3203 1.36c-.3177.578-.4766 1.239-.4766 1.984zm13.3281 5.805c-.3021 0-.5469-.097-.7343-.289-.1823-.193-.2735-.443-.2735-.75v-9.36c0-.307.0912-.554.2735-.742.1874-.193.4322-.289.7343-.289h3.8669c.74 0 1.407.151 2 .453.594.302 1.06.724 1.399 1.266.344.541.515 1.161.515 1.859 0 .761-.198 1.425-.593 1.992-.391.568-.925.99-1.602 1.266l2.008 2.937c.182.256.273.513.273.774 0 .151-.047.294-.14.43-.089.135-.209.242-.36.32-.151.083-.312.125-.484.125-.177 0-.339-.042-.484-.125-.146-.078-.269-.19-.368-.336l-2.57-3.805h-2.4452v3.235c0 .307-.0938.557-.2813.75-.1875.192-.4323.289-.7344.289zm3.8909-6.196c.354 0 .664-.067.929-.203.271-.135.482-.328.633-.578s.227-.542.227-.875c0-.328-.076-.617-.227-.867s-.362-.443-.633-.578c-.27-.141-.58-.211-.929-.211h-2.8752v3.312zm8.015 6.196c-.302 0-.546-.097-.734-.289-.182-.193-.273-.443-.273-.75v-9.539c0-.308.091-.555.273-.743.188-.192.432-.289.734-.289s.547.097.735.289c.187.188.281.435.281.743v9.539c0 .307-.094.557-.281.75-.188.192-.433.289-.735.289zm8.125 0c-.297 0-.539-.097-.726-.289-.188-.193-.281-.443-.281-.75v-8.399h-2.797c-.292 0-.534-.094-.727-.281-.187-.188-.281-.427-.281-.719 0-.291.094-.528.281-.711.193-.187.435-.281.727-.281h7.617c.292 0 .531.094.719.281.192.183.289.42.289.711 0 .292-.097.531-.289.719-.188.187-.427.281-.719.281h-2.797v8.399c0 .307-.094.557-.281.75-.188.192-.433.289-.735.289zm6.305-10.164c-.12-.172-.18-.355-.18-.547 0-.25.092-.461.274-.633.187-.177.419-.266.695-.266.219 0 .401.058.547.172.146.115.297.284.453.508l2.922 4.203 2.914-4.203c.162-.224.313-.393.453-.508.141-.114.323-.172.547-.172.276 0 .505.089.688.266.182.172.273.383.273.633 0 .203-.057.385-.172.547l-3.695 5.273v3.852c0 .307-.094.557-.281.75-.188.192-.433.289-.735.289s-.547-.097-.734-.289c-.182-.193-.274-.443-.274-.75v-3.844z" fill="#444"/><rect fill="#ffead7" height="117" rx="17.5" stroke="#444" stroke-width="3" width="563" x="1.5" y="499.5"/><path d="m232.68 564.18c-.297 0-.539-.097-.727-.289-.187-.193-.281-.443-.281-.75v-8.399h-2.797c-.292 0-.534-.094-.727-.281-.187-.188-.281-.427-.281-.719 0-.291.094-.528.281-.711.193-.187.435-.281.727-.281h7.617c.292 0 .531.094.719.281.193.183.289.42.289.711 0 .292-.096.531-.289.719-.188.187-.427.281-.719.281h-2.797v8.399c0 .307-.093.557-.281.75-.187.192-.432.289-.734.289zm8.125 0c-.302 0-.547-.097-.735-.289-.182-.193-.273-.443-.273-.75v-9.36c0-.307.091-.554.273-.742.188-.193.433-.289.735-.289h3.867c.739 0 1.406.151 2 .453s1.06.724 1.398 1.266c.344.541.516 1.161.516 1.859 0 .761-.198 1.425-.594 1.992-.39.568-.924.99-1.601 1.266l2.007 2.937c.183.256.274.513.274.774 0 .151-.047.294-.141.43-.088.135-.208.242-.359.32-.151.083-.313.125-.484.125-.178 0-.339-.042-.485-.125-.146-.078-.268-.19-.367-.336l-2.57-3.805h-2.446v3.235c0 .307-.093.557-.281.75-.187.192-.432.289-.734.289zm3.89-6.196c.354 0 .664-.067.93-.203.271-.135.482-.328.633-.578s.226-.542.226-.875c0-.328-.075-.617-.226-.867s-.362-.443-.633-.578c-.271-.141-.581-.211-.93-.211h-2.875v3.312zm11.36 6.25c-.938 0-1.761-.192-2.469-.578-.703-.385-1.247-.927-1.633-1.625-.38-.698-.57-1.502-.57-2.414v-6.015c0-.303.094-.55.281-.743.193-.192.44-.289.742-.289.297 0 .537.097.719.289.187.193.281.44.281.743v5.812c0 .552.107 1.039.321 1.461.218.422.526.75.921.984.401.23.87.344 1.407.344.541 0 1.01-.114 1.406-.344.401-.234.708-.562.922-.984.219-.422.328-.909.328-1.461v-5.812c0-.303.091-.55.273-.743.188-.192.43-.289.727-.289.302 0 .547.097.734.289.193.193.289.44.289.743v6.015c0 .912-.192 1.716-.578 2.414-.38.698-.924 1.24-1.633 1.625-.708.386-1.531.578-2.468.578zm11.961 0c-.797 0-1.49-.086-2.078-.257-.584-.178-1.107-.435-1.571-.774-.338-.25-.612-.549-.82-.898-.203-.349-.305-.688-.305-1.016 0-.281.091-.516.274-.703.182-.193.408-.289.679-.289.282 0 .529.127.743.383.39.562.833.976 1.328 1.242.494.266 1.119.398 1.875.398.64 0 1.138-.125 1.492-.375.359-.255.539-.606.539-1.054 0-.401-.13-.711-.391-.93-.255-.219-.617-.378-1.086-.477l-2.054-.422c-1.006-.208-1.769-.557-2.289-1.046-.516-.495-.774-1.201-.774-2.118 0-.682.175-1.278.524-1.789.349-.51.843-.903 1.484-1.179s1.385-.414 2.234-.414c1.224 0 2.323.317 3.297.953.354.224.633.505.836.843.203.334.305.665.305.993 0 .286-.081.523-.242.711-.157.182-.37.273-.641.273-.177 0-.341-.039-.492-.117s-.307-.193-.469-.344c-.615-.943-1.534-1.414-2.758-1.414-.594 0-1.067.117-1.422.352-.354.229-.531.552-.531.968 0 .292.063.526.188.704.13.171.31.307.539.406.229.094.534.182.914.265l1.968.446c.599.135 1.112.317 1.54.547.427.229.77.557 1.031.984.26.422.39.966.39 1.633 0 .713-.177 1.336-.531 1.867-.349.531-.846.94-1.492 1.226-.641.282-1.385.422-2.234.422zm10.711-.054c-.297 0-.539-.097-.727-.289-.188-.193-.281-.443-.281-.75v-8.399h-2.797c-.292 0-.534-.094-.727-.281-.187-.188-.281-.427-.281-.719 0-.291.094-.528.281-.711.193-.187.435-.281.727-.281h7.617c.292 0 .531.094.719.281.193.183.289.42.289.711 0 .292-.096.531-.289.719-.188.187-.427.281-.719.281h-2.797v8.399c0 .307-.094.557-.281.75-.188.192-.432.289-.734.289zm12.953 0c-.302 0-.547-.097-.735-.289-.182-.193-.273-.443-.273-.75v-9.36c0-.307.091-.554.273-.742.188-.193.433-.289.735-.289h3.867c.739 0 1.406.151 2 .453s1.06.724 1.398 1.266c.344.541.516 1.161.516 1.859 0 .761-.198 1.425-.594 1.992-.39.568-.924.99-1.601 1.266l2.007 2.937c.183.256.274.513.274.774 0 .151-.047.294-.141.43-.088.135-.208.242-.359.32-.151.083-.313.125-.485.125-.177 0-.338-.042-.484-.125-.146-.078-.268-.19-.367-.336l-2.57-3.805h-2.446v3.235c0 .307-.093.557-.281.75-.187.192-.432.289-.734.289zm3.89-6.196c.354 0 .664-.067.93-.203.271-.135.482-.328.633-.578s.226-.542.226-.875c0-.328-.075-.617-.226-.867s-.362-.443-.633-.578c-.271-.141-.581-.211-.93-.211h-2.875v3.312zm12.024 6.25c-1.12 0-2.12-.247-3-.742-.88-.5-1.568-1.195-2.063-2.086-.489-.89-.734-1.901-.734-3.031 0-1.135.245-2.146.734-3.031.495-.891 1.183-1.584 2.063-2.078.88-.5 1.88-.75 3-.75s2.12.25 3 .75c.88.494 1.565 1.187 2.054 2.078.495.885.743 1.896.743 3.031 0 1.13-.248 2.141-.743 3.031-.489.891-1.174 1.586-2.054 2.086-.88.495-1.88.742-3 .742zm-3.711-5.859c0 .745.159 1.409.476 1.992.318.578.758 1.029 1.321 1.352.562.323 1.2.484 1.914.484.713 0 1.351-.161 1.914-.484.562-.323 1.002-.774 1.32-1.352.318-.583.477-1.247.477-1.992s-.159-1.406-.477-1.984c-.318-.584-.758-1.037-1.32-1.36-.563-.323-1.201-.484-1.914-.484-.714 0-1.352.161-1.914.484-.563.323-1.003.776-1.321 1.36-.317.578-.476 1.239-.476 1.984zm17.57 5.859c-1.12 0-2.12-.247-3-.742-.88-.5-1.568-1.195-2.062-2.086-.49-.89-.735-1.901-.735-3.031 0-1.135.245-2.146.735-3.031.494-.891 1.182-1.584 2.062-2.078.88-.5 1.88-.75 3-.75s2.12.25 3 .75c.88.494 1.565 1.187 2.055 2.078.495.885.742 1.896.742 3.031 0 1.13-.247 2.141-.742 3.031-.49.891-1.175 1.586-2.055 2.086-.88.495-1.88.742-3 .742zm-3.711-5.859c0 .745.159 1.409.477 1.992.317.578.758 1.029 1.32 1.352.563.323 1.201.484 1.914.484.714 0 1.352-.161 1.914-.484.563-.323 1.003-.774 1.321-1.352.317-.583.476-1.247.476-1.992s-.159-1.406-.476-1.984c-.318-.584-.758-1.037-1.321-1.36-.562-.323-1.2-.484-1.914-.484-.713 0-1.351.161-1.914.484-.562.323-1.003.776-1.32 1.36-.318.578-.477 1.239-.477 1.984zm15.563 5.805c-.297 0-.539-.097-.727-.289-.187-.193-.281-.443-.281-.75v-8.399h-2.797c-.292 0-.534-.094-.727-.281-.187-.188-.281-.427-.281-.719 0-.291.094-.528.281-.711.193-.187.435-.281.727-.281h7.617c.292 0 .531.094.719.281.193.183.289.42.289.711 0 .292-.096.531-.289.719-.188.187-.427.281-.719.281h-2.797v8.399c0 .307-.093.557-.281.75-.187.192-.432.289-.734.289z" fill="#444"/><rect fill="#fff" height="111" rx="55.5" stroke="#6349ff" stroke-linejoin="round" stroke-width="3" width="157" x="4.5" y="188.5"/><path d="m46.0391 226.234c-.7969 0-1.4896-.086-2.0782-.257-.5833-.178-1.1067-.435-1.5703-.774-.3385-.25-.612-.549-.8203-.898-.2031-.349-.3047-.688-.3047-1.016 0-.281.0912-.516.2735-.703.1823-.193.4088-.289.6797-.289.2812 0 .5286.127.7421.383.3907.562.8334.976 1.3282 1.242s1.1198.398 1.875.398c.6406 0 1.138-.125 1.4921-.375.3594-.255.5391-.606.5391-1.054 0-.401-.1302-.711-.3906-.93-.2552-.219-.6172-.378-1.0859-.477l-2.0547-.422c-1.0052-.208-1.7683-.557-2.2891-1.046-.5156-.495-.7734-1.201-.7734-2.118 0-.682.1744-1.278.5234-1.789.349-.51.8438-.903 1.4844-1.179s1.3854-.414 2.2344-.414c1.2239 0 2.3229.317 3.2968.953.3542.224.6328.505.836.843.2031.334.3046.665.3046.993 0 .286-.0807.523-.2421.711-.1563.182-.3698.273-.6407.273-.177 0-.3411-.039-.4922-.117-.151-.078-.3072-.193-.4687-.344-.6146-.943-1.5339-1.414-2.7578-1.414-.5938 0-1.0677.117-1.4219.352-.3542.229-.5312.552-.5312.968 0 .292.0625.526.1875.704.1302.171.3099.307.539.406.2292.094.5339.182.9141.265l1.9687.446c.599.135 1.112.317 1.5391.547.4271.229.7708.557 1.0312.984.2605.422.3907.966.3907 1.633 0 .713-.1771 1.336-.5313 1.867-.3489.531-.8463.94-1.4922 1.226-.6406.282-1.3854.422-2.2343.422zm8.2109-.054c-.3021 0-.5469-.097-.7344-.289-.1823-.193-.2734-.443-.2734-.75v-9.539c0-.308.0911-.555.2734-.743.1875-.192.4323-.289.7344-.289s.5469.097.7344.289c.1875.188.2812.435.2812.743v9.539c0 .307-.0937.557-.2812.75-.1875.192-.4323.289-.7344.289zm9.6484.054c-1.1406 0-2.151-.244-3.0312-.734-.8802-.495-1.5651-1.185-2.0547-2.07-.4844-.886-.7266-1.896-.7266-3.032 0-1.135.2526-2.148.7579-3.039.5052-.895 1.2031-1.593 2.0937-2.093s1.8984-.75 3.0234-.75c.7448 0 1.4219.096 2.0313.289.6146.192 1.1562.453 1.625.781.3594.255.6536.555.8828.898.2292.344.3438.67.3438.977 0 .281-.0912.503-.2735.664-.1771.156-.3906.234-.6406.234-.1823 0-.349-.031-.5-.093-.1458-.068-.3021-.177-.4688-.328-.3281-.448-.7448-.8-1.25-1.055s-1.1093-.383-1.8125-.383c-.7239 0-1.3698.167-1.9375.5-.5625.328-1.0026.786-1.3203 1.375-.3125.589-.4687 1.258-.4687 2.008 0 .745.1562 1.411.4687 2 .3177.583.7604 1.039 1.3282 1.367.5729.328 1.2343.492 1.9843.492.9375 0 1.6823-.229 2.2344-.687.5573-.464.8646-1.112.9219-1.946h-3.3282c-.2708 0-.5026-.091-.6953-.273s-.289-.406-.289-.672c0-.297.0937-.531.2812-.703s.4219-.258.7031-.258h4.336c.3125 0 .5677.094.7656.281.1979.188.2969.464.2969.828 0 1.136-.2214 2.112-.6641 2.93-.4375.813-1.0547 1.432-1.8515 1.86-.7917.421-1.7136.632-2.7657.632zm9.1016-.062c-.3021 0-.5469-.094-.7344-.281-.1823-.193-.2734-.44-.2734-.743v-9.265c0-.396.112-.711.3359-.945.224-.24.5209-.36.8907-.36.2656 0 .4973.07.6953.211.1979.135.4297.391.6953.766l4.9453 7.211v-7.164c0-.303.0937-.547.2812-.735.1875-.193.4297-.289.7266-.289.3021 0 .5469.096.7344.289.1875.188.2812.432.2812.735v9.257c0 .391-.112.709-.3359.953-.224.24-.513.36-.8672.36-.2604 0-.4974-.068-.7109-.203-.2084-.141-.4323-.378-.6719-.711l-4.9844-7.156v7.046c0 .303-.0937.55-.2812.743-.1823.187-.4245.281-.7266.281zm16.4375.031c-.1719 0-.3333-.044-.4844-.133-.1458-.083-.263-.198-.3515-.343-.0886-.146-.1328-.305-.1328-.477 0-.203.0468-.424.1406-.664l3.4765-8.484c.224-.558.4818-.961.7735-1.211.2968-.25.6849-.375 1.164-.375.4792 0 .8646.125 1.1563.375.2969.25.5573.653.7812 1.211l3.4766 8.484c.099.234.1484.456.1484.664 0 .172-.0442.331-.1328.477-.0885.145-.2083.26-.3593.343-.1459.089-.3047.133-.4766.133-.25 0-.461-.057-.6328-.172-.1667-.109-.2891-.268-.3672-.476l-.8516-2.164h-5.4765l-.8516 2.164c-.1719.432-.5052.648-1 .648zm6.5703-4.734-1.9766-5.024-1.9843 5.024zm6.6332 4.703c-.302 0-.547-.094-.735-.281-.182-.193-.273-.44-.273-.743v-9.265c0-.396.112-.711.336-.945.224-.24.521-.36.89-.36.266 0 .498.07.696.211.198.135.429.391.695.766l4.945 7.211v-7.164c0-.303.094-.547.282-.735.187-.193.429-.289.726-.289.302 0 .547.096.735.289.187.188.281.432.281.735v9.257c0 .391-.112.709-.336.953-.224.24-.513.36-.867.36-.261 0-.498-.068-.711-.203-.209-.141-.433-.378-.672-.711l-4.985-7.156v7.046c0 .303-.093.55-.281.743-.182.187-.424.281-.726.281zm12.953-.172c-.297 0-.539-.096-.727-.289-.187-.193-.281-.44-.281-.742v-9.188c0-.307.091-.554.273-.742.188-.193.433-.289.735-.289h3.625c1.083 0 2.039.237 2.867.711s1.469 1.138 1.922 1.992.68 1.828.68 2.922c0 1.099-.227 2.076-.68 2.93-.453.849-1.094 1.51-1.922 1.984s-1.784.711-2.867.711zm3.617-1.977c.667 0 1.253-.153 1.758-.461.505-.312.896-.744 1.172-1.296s.414-1.183.414-1.891c0-.703-.138-1.331-.414-1.883-.276-.557-.67-.992-1.18-1.304-.505-.313-1.089-.469-1.75-.469h-2.602v7.304zm-71.0626 26.157c-.302 0-.5468-.097-.7343-.289-.1823-.193-.2735-.443-.2735-.75v-9.36c0-.307.0912-.554.2735-.742.1875-.193.4323-.289.7343-.289h3.7188c.7656 0 1.4557.151 2.0703.453.6198.302 1.1042.729 1.4531 1.281.3542.552.5313 1.19.5313 1.914 0 .73-.1771 1.37-.5313 1.922-.3489.552-.8333.979-1.4531 1.282-.6146.296-1.3047.445-2.0703.445h-2.7031v3.094c0 .307-.0938.557-.2813.75-.1875.192-.4323.289-.7344.289zm3.7813-6.055c.3698 0 .6979-.07.9844-.211.2864-.146.5078-.349.664-.609.1563-.261.2344-.563.2344-.907 0-.343-.0781-.645-.2344-.906-.1562-.26-.3776-.461-.664-.601-.2865-.146-.6146-.219-.9844-.219h-2.7656v3.453zm10.9062 6.109c-.9375 0-1.7604-.192-2.4687-.578-.7031-.385-1.2474-.927-1.6328-1.625-.3802-.698-.5703-1.502-.5703-2.414v-6.015c0-.303.0937-.55.2812-.743.1927-.192.4401-.289.7422-.289.2969 0 .5365.097.7187.289.1876.193.2813.44.2813.743v5.812c0 .552.1068 1.039.3203 1.461.2188.422.5261.75.9219.984.401.23.8698.344 1.4062.344.5417 0 1.0105-.114 1.4063-.344.401-.234.7083-.562.9219-.984.2187-.422.3281-.909.3281-1.461v-5.812c0-.303.0911-.55.2734-.743.1875-.192.4297-.289.7266-.289.3021 0 .5469.097.7344.289.1927.193.289.44.289.743v6.015c0 .912-.1927 1.716-.5781 2.414-.3802.698-.9245 1.24-1.6328 1.625-.7083.386-1.5313.578-2.4688.578zm8.8438-.234c-.2969-.005-.5365-.102-.7188-.289-.1823-.193-.2734-.44-.2734-.742v-9.188c0-.302.0911-.547.2734-.734.1823-.193.4219-.292.7188-.297h4.0547c.7604 0 1.4245.13 1.9922.391.5677.26 1.0052.63 1.3125 1.109s.4609 1.042.4609 1.688c0 .546-.1432 1.023-.4297 1.429-.2812.406-.6875.709-1.2187.906.5468.193.9713.5 1.2734.922.3073.417.4609.909.4609 1.477 0 .661-.1562 1.245-.4687 1.75-.3125.5-.7578.888-1.336 1.164-.5729.276-1.2421.414-2.0078.414h-4.0781zm4.0234-1.945c.5573 0 .9896-.131 1.2969-.391.3125-.266.4688-.635.4688-1.109 0-.459-.1537-.815-.461-1.071-.3073-.26-.7422-.39-1.3047-.39h-3v2.961zm-.0547-4.633c.5521 0 .9792-.117 1.2813-.352.3021-.234.4531-.56.4531-.976 0-.438-.1536-.779-.4609-1.024-.3021-.25-.7266-.375-1.2735-.375h-2.9453v2.727zm7.9063 6.578c-.2969 0-.5391-.096-.7266-.289s-.2812-.44-.2812-.742v-9.367c0-.308.0911-.555.2734-.743.1875-.192.4323-.289.7344-.289s.5469.097.7344.289c.1875.188.2812.435.2812.743v8.406h4.7266c.2969 0 .539.094.7265.281.1927.182.2891.419.2891.711s-.0964.531-.2891.719c-.1927.187-.4349.281-.7265.281zm10.0312.18c-.302 0-.5468-.097-.7343-.289-.1823-.193-.2735-.443-.2735-.75v-9.539c0-.308.0912-.555.2735-.743.1875-.192.4323-.289.7343-.289.3021 0 .5469.097.7344.289.1875.188.2813.435.2813.743v9.539c0 .307-.0938.557-.2813.75-.1875.192-.4323.289-.7344.289zm8.5701.054c-.797 0-1.489-.086-2.078-.257-.5832-.178-1.1066-.435-1.5702-.774-.3385-.25-.612-.549-.8203-.898-.2031-.349-.3047-.688-.3047-1.016 0-.281.0912-.516.2734-.703.1823-.193.4089-.289.6797-.289.2813 0 .5287.127.7422.383.3907.562.8334.976 1.3279 1.242.495.266 1.12.398 1.875.398.641 0 1.138-.125 1.492-.375.36-.255.539-.606.539-1.054 0-.401-.13-.711-.39-.93-.255-.219-.617-.378-1.086-.477l-2.055-.422c-1.005-.208-1.768-.557-2.2888-1.046-.5156-.495-.7734-1.201-.7734-2.118 0-.682.1744-1.278.5234-1.789.3489-.51.8437-.903 1.4844-1.179.6404-.276 1.3854-.414 2.2344-.414 1.224 0 2.323.317 3.297.953.354.224.633.505.836.843.203.334.304.665.304.993 0 .286-.08.523-.242.711-.156.182-.37.273-.64.273-.177 0-.342-.039-.493-.117s-.307-.193-.468-.344c-.615-.943-1.534-1.414-2.758-1.414-.594 0-1.068.117-1.422.352-.354.229-.5312.552-.5312.968 0 .292.0624.526.1872.704.13.171.31.307.539.406.229.094.534.182.914.265l1.969.446c.599.135 1.112.317 1.539.547.427.229.771.557 1.031.984.261.422.391.966.391 1.633 0 .713-.177 1.336-.531 1.867-.349.531-.847.94-1.492 1.226-.641.282-1.386.422-2.235.422zm15.696-.054c-.303 0-.547-.097-.735-.289-.182-.193-.273-.443-.273-.75v-3.852h-5.461v3.852c0 .307-.094.557-.281.75-.188.192-.433.289-.735.289s-.547-.097-.734-.289c-.182-.193-.274-.443-.274-.75v-9.539c0-.308.092-.555.274-.743.187-.192.432-.289.734-.289s.547.097.735.289c.187.188.281.435.281.743v3.765h5.461v-3.765c0-.308.091-.555.273-.743.188-.192.432-.289.735-.289.302 0 .544.097.726.289.188.188.281.435.281.743v9.539c0 .307-.093.557-.281.75-.182.192-.424.289-.726.289zm-81.2973 24.023c-.1719 0-.3333-.044-.4844-.133-.1458-.083-.263-.198-.3515-.343-.0886-.146-.1329-.305-.1329-.477 0-.203.0469-.424.1407-.664l3.4765-8.484c.224-.558.4818-.961.7735-1.211.2968-.25.6849-.375 1.164-.375.4792 0 .8646.125 1.1563.375.2969.25.5573.653.7812 1.211l3.4766 8.484c.0989.234.1484.456.1484.664 0 .172-.0442.331-.1328.477-.0885.145-.2083.26-.3594.343-.1458.089-.3047.133-.4765.133-.25 0-.461-.057-.6328-.172-.1667-.109-.2891-.268-.3672-.476l-.8516-2.164h-5.4766l-.8515 2.164c-.1719.432-.5052.648-1 .648zm6.5703-4.734-1.9766-5.024-1.9843 5.024zm6.6328 4.711c-.3021 0-.5469-.097-.7344-.289-.1823-.193-.2734-.443-.2734-.75v-9.36c0-.307.0911-.554.2734-.742.1875-.193.4323-.289.7344-.289h3.8672c.7396 0 1.4062.151 2 .453s1.0599.724 1.3984 1.266c.3438.541.5157 1.161.5157 1.859 0 .761-.198 1.425-.5938 1.992-.3906.568-.9245.99-1.6015 1.266l2.0078 2.937c.1823.256.2734.513.2734.774 0 .151-.0469.294-.1406.43-.0886.135-.2084.242-.3594.32-.151.083-.3125.125-.4844.125-.1771 0-.3385-.042-.4844-.125-.1458-.078-.2682-.19-.3671-.336l-2.5703-3.805h-2.4454v3.235c0 .307-.0937.557-.2812.75-.1875.192-.4323.289-.7344.289zm3.8906-6.196c.3542 0 .6641-.067.9297-.203.2709-.135.4818-.328.6328-.578.1511-.25.2266-.542.2266-.875 0-.328-.0755-.617-.2266-.867-.151-.25-.3619-.443-.6328-.578-.2708-.141-.5807-.211-.9297-.211h-2.875v3.312zm10.3125 6.196c-.2968 0-.539-.097-.7265-.289-.1875-.193-.2813-.443-.2813-.75v-8.399h-2.7969c-.2916 0-.5338-.094-.7265-.281-.1875-.188-.2813-.427-.2813-.719 0-.291.0938-.528.2813-.711.1927-.187.4349-.281.7265-.281h7.6172c.2917 0 .5313.094.7188.281.1927.183.289.42.289.711 0 .292-.0963.531-.289.719-.1875.187-.4271.281-.7188.281h-2.7968v8.399c0 .307-.0938.557-.2813.75-.1875.192-.4323.289-.7344.289zm8.125 0c-.302 0-.5468-.097-.7343-.289-.1823-.193-.2735-.443-.2735-.75v-9.539c0-.308.0912-.555.2735-.743.1875-.192.4323-.289.7343-.289.3021 0 .5469.097.7344.289.1875.188.2813.435.2813.743v9.539c0 .307-.0938.557-.2813.75-.1875.192-.4323.289-.7344.289zm5.3907 0c-.3021 0-.5469-.097-.7344-.289-.1823-.193-.2734-.443-.2734-.75v-9.36c0-.307.0911-.554.2734-.742.1875-.193.4323-.289.7344-.289h6.1093c.2969 0 .5391.094.7266.281.1927.183.2891.42.2891.711 0 .292-.0964.531-.2891.719-.1927.187-.4349.281-.7266.281h-5.0937v2.82h4.4766c.2916 0 .5338.094.7265.282.1927.187.2891.427.2891.718 0 .292-.0964.532-.2891.719-.1875.183-.4297.274-.7265.274h-4.4766v3.586c0 .307-.0938.557-.2813.75-.1875.192-.4323.289-.7343.289zm8.3281.023c-.1719 0-.3333-.044-.4844-.133-.1458-.083-.263-.198-.3515-.343-.0886-.146-.1329-.305-.1329-.477 0-.203.0469-.424.1407-.664l3.4765-8.484c.224-.558.4818-.961.7735-1.211.2968-.25.6849-.375 1.164-.375.4792 0 .8646.125 1.1563.375.2969.25.5573.653.7812 1.211l3.4766 8.484c.0989.234.1484.456.1484.664 0 .172-.0442.331-.1328.477-.0885.145-.2083.26-.3594.343-.1458.089-.3047.133-.4765.133-.25 0-.461-.057-.6328-.172-.1667-.109-.2891-.268-.3672-.476l-.8516-2.164h-5.4766l-.8515 2.164c-.1719.432-.5052.648-1 .648zm6.5703-4.734-1.9766-5.024-1.9843 5.024zm10.398 4.765c-1.099 0-2.078-.247-2.9371-.742-.8593-.495-1.5286-1.185-2.0078-2.07-.4791-.891-.7187-1.904-.7187-3.039 0-1.141.2396-2.156.7187-3.047.4792-.891 1.1485-1.583 2.0078-2.078.8591-.495 1.8381-.742 2.9371-.742 1.87 0 3.308.58 4.313 1.742.203.239.37.505.5.797.135.286.203.544.203.773 0 .276-.094.511-.281.703-.182.193-.404.289-.664.289-.365 0-.683-.185-.953-.554-.667-1.146-1.701-1.719-3.102-1.719-.698 0-1.32.164-1.867.492-.542.323-.9663.776-1.2736 1.359-.302.584-.4531 1.245-.4531 1.985 0 .734.1511 1.393.4531 1.976.3073.579.7316 1.032 1.2736 1.36.547.323 1.169.484 1.867.484 1.385 0 2.419-.575 3.102-1.726.281-.365.599-.547.953-.547.26 0 .482.096.664.289.187.192.281.424.281.695 0 .214-.062.464-.187.75-.125.287-.284.542-.477.766-.516.593-1.138 1.044-1.867 1.351-.724.302-1.552.453-2.485.453zm11.391-.054c-.297 0-.539-.097-.726-.289-.188-.193-.282-.443-.282-.75v-8.399h-2.797c-.291 0-.533-.094-.726-.281-.188-.188-.281-.427-.281-.719 0-.291.093-.528.281-.711.193-.187.435-.281.726-.281h7.618c.291 0 .531.094.718.281.193.183.289.42.289.711 0 .292-.096.531-.289.719-.187.187-.427.281-.718.281h-2.797v8.399c0 .307-.094.557-.282.75-.187.192-.432.289-.734.289zm11.102.054c-.797 0-1.49-.086-2.078-.257-.584-.178-1.107-.435-1.571-.774-.338-.25-.612-.549-.82-.898-.203-.349-.305-.688-.305-1.016 0-.281.091-.516.274-.703.182-.193.408-.289.679-.289.282 0 .529.127.743.383.39.562.833.976 1.328 1.242.494.266 1.119.398 1.875.398.64 0 1.138-.125 1.492-.375.359-.255.539-.606.539-1.054 0-.401-.13-.711-.391-.93-.255-.219-.617-.378-1.086-.477l-2.054-.422c-1.006-.208-1.769-.557-2.289-1.046-.516-.495-.774-1.201-.774-2.118 0-.682.175-1.278.524-1.789.349-.51.843-.903 1.484-1.179s1.385-.414 2.234-.414c1.224 0 2.323.317 3.297.953.354.224.633.505.836.843.203.334.305.665.305.993 0 .286-.081.523-.242.711-.157.182-.37.273-.641.273-.177 0-.341-.039-.492-.117s-.307-.193-.469-.344c-.615-.943-1.534-1.414-2.758-1.414-.594 0-1.067.117-1.422.352-.354.229-.531.552-.531.968 0 .292.063.526.188.704.13.171.31.307.539.406.229.094.534.182.914.265l1.968.446c.599.135 1.112.317 1.54.547.427.229.77.557 1.031.984.26.422.39.966.39 1.633 0 .713-.177 1.336-.531 1.867-.349.531-.846.94-1.492 1.226-.641.282-1.385.422-2.234.422z" fill="#444"/><rect fill="#fff" height="111" rx="55.5" stroke="#6349ff" stroke-linejoin="round" stroke-width="3" width="169" x="197.5" y="188.5"/><path d="m247.148 226.18c-.302 0-.546-.097-.734-.289-.182-.193-.273-.443-.273-.75v-9.36c0-.307.091-.554.273-.742.188-.193.432-.289.734-.289h3.719c.766 0 1.456.151 2.071.453.619.302 1.104.729 1.453 1.281.354.552.531 1.19.531 1.914 0 .73-.177 1.37-.531 1.922-.349.552-.834.979-1.453 1.282-.615.296-1.305.445-2.071.445h-2.703v3.094c0 .307-.094.557-.281.75-.188.192-.432.289-.735.289zm3.782-6.055c.369 0 .698-.07.984-.211.287-.146.508-.349.664-.609.156-.261.234-.563.234-.907 0-.343-.078-.645-.234-.906-.156-.26-.377-.461-.664-.601-.286-.146-.615-.219-.984-.219h-2.766v3.453zm10.906 6.109c-.938 0-1.76-.192-2.469-.578-.703-.385-1.247-.927-1.633-1.625-.38-.698-.57-1.502-.57-2.414v-6.015c0-.303.094-.55.281-.743.193-.192.44-.289.743-.289.296 0 .536.097.718.289.188.193.282.44.282.743v5.812c0 .552.106 1.039.32 1.461.219.422.526.75.922.984.401.23.869.344 1.406.344.542 0 1.01-.114 1.406-.344.401-.234.709-.562.922-.984.219-.422.328-.909.328-1.461v-5.812c0-.303.091-.55.274-.743.187-.192.429-.289.726-.289.302 0 .547.097.735.289.192.193.289.44.289.743v6.015c0 .912-.193 1.716-.578 2.414-.381.698-.925 1.24-1.633 1.625-.709.386-1.532.578-2.469.578zm8.844-.234c-.297-.005-.537-.102-.719-.289-.182-.193-.273-.44-.273-.742v-9.188c0-.302.091-.547.273-.734.182-.193.422-.292.719-.297h4.054c.761 0 1.425.13 1.993.391.567.26 1.005.63 1.312 1.109s.461 1.042.461 1.688c0 .546-.143 1.023-.43 1.429-.281.406-.687.709-1.218.906.546.193.971.5 1.273.922.307.417.461.909.461 1.477 0 .661-.156 1.245-.469 1.75-.312.5-.758.888-1.336 1.164-.573.276-1.242.414-2.008.414h-4.078zm4.023-1.945c.557 0 .99-.131 1.297-.391.312-.266.469-.635.469-1.109 0-.459-.154-.815-.461-1.071-.307-.26-.742-.39-1.305-.39h-3v2.961zm-.055-4.633c.553 0 .98-.117 1.282-.352.302-.234.453-.56.453-.976 0-.438-.154-.779-.461-1.024-.302-.25-.727-.375-1.274-.375h-2.945v2.727zm7.907 6.578c-.297 0-.539-.096-.727-.289-.187-.193-.281-.44-.281-.742v-9.367c0-.308.091-.555.273-.743.188-.192.433-.289.735-.289s.547.097.734.289c.188.188.281.435.281.743v8.406h4.727c.297 0 .539.094.726.281.193.182.289.419.289.711s-.096.531-.289.719c-.192.187-.434.281-.726.281zm10.031.18c-.302 0-.547-.097-.734-.289-.183-.193-.274-.443-.274-.75v-9.539c0-.308.091-.555.274-.743.187-.192.432-.289.734-.289s.547.097.734.289c.188.188.282.435.282.743v9.539c0 .307-.094.557-.282.75-.187.192-.432.289-.734.289zm8.57.054c-.797 0-1.489-.086-2.078-.257-.583-.178-1.107-.435-1.57-.774-.339-.25-.612-.549-.82-.898-.204-.349-.305-.688-.305-1.016 0-.281.091-.516.273-.703.183-.193.409-.289.68-.289.281 0 .529.127.742.383.391.562.833.976 1.328 1.242s1.12.398 1.875.398c.641 0 1.138-.125 1.492-.375.36-.255.539-.606.539-1.054 0-.401-.13-.711-.39-.93-.255-.219-.617-.378-1.086-.477l-2.055-.422c-1.005-.208-1.768-.557-2.289-1.046-.515-.495-.773-1.201-.773-2.118 0-.682.174-1.278.523-1.789.349-.51.844-.903 1.485-1.179.64-.276 1.385-.414 2.234-.414 1.224 0 2.323.317 3.297.953.354.224.633.505.836.843.203.334.304.665.304.993 0 .286-.08.523-.242.711-.156.182-.37.273-.64.273-.177 0-.342-.039-.493-.117s-.307-.193-.468-.344c-.615-.943-1.534-1.414-2.758-1.414-.594 0-1.068.117-1.422.352-.354.229-.531.552-.531.968 0 .292.062.526.187.704.13.171.31.307.539.406.229.094.534.182.914.265l1.969.446c.599.135 1.112.317 1.539.547.427.229.771.557 1.031.984.261.422.391.966.391 1.633 0 .713-.177 1.336-.531 1.867-.349.531-.847.94-1.492 1.226-.641.282-1.386.422-2.235.422zm15.696-.054c-.303 0-.547-.097-.735-.289-.182-.193-.273-.443-.273-.75v-3.852h-5.461v3.852c0 .307-.094.557-.281.75-.188.192-.433.289-.735.289s-.547-.097-.734-.289c-.182-.193-.274-.443-.274-.75v-9.539c0-.308.092-.555.274-.743.187-.192.432-.289.734-.289s.547.097.735.289c.187.188.281.435.281.743v3.765h5.461v-3.765c0-.308.091-.555.273-.743.188-.192.432-.289.735-.289.302 0 .544.097.726.289.188.188.281.435.281.743v9.539c0 .307-.093.557-.281.75-.182.192-.424.289-.726.289zm-66.383 24.054c-.797 0-1.49-.086-2.078-.257-.584-.178-1.107-.435-1.571-.774-.338-.25-.612-.549-.82-.898-.203-.349-.305-.688-.305-1.016 0-.281.091-.516.274-.703.182-.193.409-.289.679-.289.282 0 .529.127.743.383.39.562.833.976 1.328 1.242s1.12.398 1.875.398c.64 0 1.138-.125 1.492-.375.359-.255.539-.606.539-1.054 0-.401-.13-.711-.391-.93-.255-.219-.617-.378-1.086-.477l-2.054-.422c-1.005-.208-1.768-.557-2.289-1.046-.516-.495-.774-1.201-.774-2.118 0-.682.175-1.278.524-1.789.349-.51.843-.903 1.484-1.179s1.385-.414 2.234-.414c1.224 0 2.323.317 3.297.953.354.224.633.505.836.843.203.334.305.665.305.993 0 .286-.081.523-.242.711-.157.182-.37.273-.641.273-.177 0-.341-.039-.492-.117s-.307-.193-.469-.344c-.614-.943-1.534-1.414-2.758-1.414-.593 0-1.067.117-1.421.352-.355.229-.532.552-.532.968 0 .292.063.526.188.704.13.171.31.307.539.406.229.094.534.182.914.265l1.969.446c.599.135 1.112.317 1.539.547.427.229.771.557 1.031.984.26.422.391.966.391 1.633 0 .713-.178 1.336-.532 1.867-.349.531-.846.94-1.492 1.226-.641.282-1.385.422-2.234.422zm8.211-.054c-.302 0-.547-.097-.735-.289-.182-.193-.273-.443-.273-.75v-9.539c0-.308.091-.555.273-.743.188-.192.433-.289.735-.289s.547.097.734.289c.188.188.281.435.281.743v9.539c0 .307-.093.557-.281.75-.187.192-.432.289-.734.289zm9.648.054c-1.14 0-2.151-.244-3.031-.734-.88-.495-1.565-1.185-2.055-2.07-.484-.886-.726-1.896-.726-3.032 0-1.135.252-2.148.757-3.039.506-.895 1.204-1.593 2.094-2.093.891-.5 1.899-.75 3.024-.75.744 0 1.421.096 2.031.289.614.192 1.156.453 1.625.781.359.255.654.555.883.898.229.344.343.67.343.977 0 .281-.091.503-.273.664-.177.156-.391.234-.641.234-.182 0-.349-.031-.5-.093-.145-.068-.302-.177-.468-.328-.329-.448-.745-.8-1.25-1.055-.506-.255-1.11-.383-1.813-.383-.724 0-1.37.167-1.937.5-.563.328-1.003.786-1.321 1.375-.312.589-.468 1.258-.468 2.008 0 .745.156 1.411.468 2 .318.583.761 1.039 1.328 1.367.573.328 1.235.492 1.985.492.937 0 1.682-.229 2.234-.687.557-.464.865-1.112.922-1.946h-3.328c-.271 0-.503-.091-.695-.273-.193-.182-.289-.406-.289-.672 0-.297.093-.531.281-.703.187-.172.422-.258.703-.258h4.336c.312 0 .568.094.765.281.198.188.297.464.297.828 0 1.136-.221 2.112-.664 2.93-.437.813-1.054 1.432-1.851 1.86-.792.421-1.714.632-2.766.632zm9.102-.062c-.302 0-.547-.094-.735-.281-.182-.193-.273-.44-.273-.743v-9.265c0-.396.112-.711.336-.945.224-.24.521-.36.89-.36.266 0 .498.07.696.211.198.135.429.391.695.766l4.945 7.211v-7.164c0-.303.094-.547.282-.735.187-.193.429-.289.726-.289.302 0 .547.096.735.289.187.188.281.432.281.735v9.257c0 .391-.112.709-.336.953-.224.24-.513.36-.867.36-.261 0-.498-.068-.711-.203-.209-.141-.433-.378-.672-.711l-4.984-7.156v7.046c0 .303-.094.55-.282.743-.182.187-.424.281-.726.281zm12.953.008c-.302 0-.547-.097-.735-.289-.182-.193-.273-.443-.273-.75v-9.539c0-.308.091-.555.273-.743.188-.192.433-.289.735-.289s.547.097.734.289c.188.188.281.435.281.743v9.539c0 .307-.093.557-.281.75-.187.192-.432.289-.734.289zm5.39-.008c-.302 0-.546-.094-.734-.281-.182-.193-.273-.44-.273-.743v-9.265c0-.396.112-.711.336-.945.224-.24.52-.36.89-.36.266 0 .498.07.696.211.197.135.429.391.695.766l4.945 7.211v-7.164c0-.303.094-.547.281-.735.188-.193.43-.289.727-.289.302 0 .547.096.734.289.188.188.282.432.282.735v9.257c0 .391-.112.709-.336.953-.224.24-.513.36-.868.36-.26 0-.497-.068-.71-.203-.209-.141-.433-.378-.672-.711l-4.985-7.156v7.046c0 .303-.093.55-.281.743-.182.187-.424.281-.727.281zm17.211.062c-1.14 0-2.151-.244-3.031-.734-.88-.495-1.565-1.185-2.055-2.07-.484-.886-.726-1.896-.726-3.032 0-1.135.252-2.148.758-3.039.505-.895 1.203-1.593 2.093-2.093.891-.5 1.899-.75 3.024-.75.745 0 1.422.096 2.031.289.615.192 1.156.453 1.625.781.359.255.654.555.883.898.229.344.344.67.344.977 0 .281-.091.503-.274.664-.177.156-.39.234-.64.234-.183 0-.349-.031-.5-.093-.146-.068-.302-.177-.469-.328-.328-.448-.745-.8-1.25-1.055s-1.109-.383-1.813-.383c-.724 0-1.369.167-1.937.5-.563.328-1.003.786-1.32 1.375-.313.589-.469 1.258-.469 2.008 0 .745.156 1.411.469 2 .317.583.76 1.039 1.328 1.367.573.328 1.234.492 1.984.492.938 0 1.682-.229 2.234-.687.558-.464.865-1.112.922-1.946h-3.328c-.271 0-.502-.091-.695-.273s-.289-.406-.289-.672c0-.297.094-.531.281-.703.188-.172.422-.258.703-.258h4.336c.313 0 .568.094.766.281.198.188.297.464.297.828 0 1.136-.222 2.112-.664 2.93-.438.813-1.055 1.432-1.852 1.86-.792.421-1.714.632-2.766.632zm-86.445 24c-1.099 0-2.078-.247-2.937-.742-.86-.495-1.529-1.185-2.008-2.07-.479-.891-.719-1.904-.719-3.039 0-1.141.24-2.156.719-3.047s1.148-1.583 2.008-2.078c.859-.495 1.838-.742 2.937-.742 1.87 0 3.307.58 4.313 1.742.203.239.369.505.5.797.135.286.203.544.203.773 0 .276-.094.511-.282.703-.182.193-.403.289-.664.289-.364 0-.682-.185-.953-.554-.666-1.146-1.7-1.719-3.101-1.719-.698 0-1.321.164-1.867.492-.542.323-.967.776-1.274 1.359-.302.584-.453 1.245-.453 1.985 0 .734.151 1.393.453 1.976.307.579.732 1.032 1.274 1.36.546.323 1.169.484 1.867.484 1.385 0 2.419-.575 3.101-1.726.282-.365.599-.547.953-.547.261 0 .482.096.664.289.188.192.282.424.282.695 0 .214-.063.464-.188.75-.125.287-.284.542-.476.766-.516.593-1.138 1.044-1.868 1.351-.724.302-1.552.453-2.484.453zm8.734-.234c-.302 0-.546-.096-.734-.289-.182-.193-.273-.443-.273-.75v-9.18c0-.307.091-.554.273-.742.188-.193.432-.289.734-.289h6.086c.297 0 .539.094.727.281.193.183.289.42.289.711 0 .292-.096.531-.289.719-.193.187-.435.281-.727.281h-5.07v2.625h4.539c.276 0 .505.091.688.274.187.177.281.401.281.671 0 .277-.094.503-.281.68-.183.172-.412.258-.688.258h-4.539v2.758h5.102c.297 0 .539.094.726.281.193.182.289.419.289.711s-.096.531-.289.719c-.193.187-.435.281-.726.281zm11.125.18c-.302 0-.546-.097-.734-.289-.182-.193-.273-.443-.273-.75v-9.36c0-.307.091-.554.273-.742.188-.193.432-.289.734-.289h3.868c.739 0 1.406.151 2 .453.593.302 1.06.724 1.398 1.266.344.541.516 1.161.516 1.859 0 .761-.198 1.425-.594 1.992-.391.568-.925.99-1.602 1.266l2.008 2.937c.182.256.274.513.274.774 0 .151-.047.294-.141.43-.089.135-.208.242-.359.32-.151.083-.313.125-.485.125-.177 0-.338-.042-.484-.125-.146-.078-.268-.19-.367-.336l-2.571-3.805h-2.445v3.235c0 .307-.094.557-.281.75-.188.192-.432.289-.735.289zm3.891-6.196c.354 0 .664-.067.93-.203.271-.135.482-.328.633-.578s.226-.542.226-.875c0-.328-.075-.617-.226-.867s-.362-.443-.633-.578c-.271-.141-.581-.211-.93-.211h-2.875v3.312zm10.313 6.196c-.297 0-.54-.097-.727-.289-.187-.193-.281-.443-.281-.75v-8.399h-2.797c-.292 0-.534-.094-.727-.281-.187-.188-.281-.427-.281-.719 0-.291.094-.528.281-.711.193-.187.435-.281.727-.281h7.617c.292 0 .531.094.719.281.193.183.289.42.289.711 0 .292-.096.531-.289.719-.188.187-.427.281-.719.281h-2.797v8.399c0 .307-.094.557-.281.75-.188.192-.432.289-.734.289zm8.125 0c-.303 0-.547-.097-.735-.289-.182-.193-.273-.443-.273-.75v-9.539c0-.308.091-.555.273-.743.188-.192.432-.289.735-.289.302 0 .546.097.734.289.187.188.281.435.281.743v9.539c0 .307-.094.557-.281.75-.188.192-.432.289-.734.289zm5.39 0c-.302 0-.547-.097-.734-.289-.182-.193-.274-.443-.274-.75v-9.36c0-.307.092-.554.274-.742.187-.193.432-.289.734-.289h6.11c.296 0 .539.094.726.281.193.183.289.42.289.711 0 .292-.096.531-.289.719-.193.187-.435.281-.726.281h-5.094v2.82h4.476c.292 0 .534.094.727.282.193.187.289.427.289.718 0 .292-.096.532-.289.719-.188.183-.43.274-.727.274h-4.476v3.586c0 .307-.094.557-.281.75-.188.192-.433.289-.735.289zm10.453 0c-.302 0-.547-.097-.734-.289-.182-.193-.274-.443-.274-.75v-9.539c0-.308.092-.555.274-.743.187-.192.432-.289.734-.289s.547.097.735.289c.187.188.281.435.281.743v9.539c0 .307-.094.557-.281.75-.188.192-.433.289-.735.289zm9.5.054c-1.099 0-2.078-.247-2.937-.742-.86-.495-1.529-1.185-2.008-2.07-.479-.891-.719-1.904-.719-3.039 0-1.141.24-2.156.719-3.047s1.148-1.583 2.008-2.078c.859-.495 1.838-.742 2.937-.742 1.87 0 3.308.58 4.313 1.742.203.239.37.505.5.797.135.286.203.544.203.773 0 .276-.094.511-.281.703-.183.193-.404.289-.664.289-.365 0-.683-.185-.953-.554-.667-1.146-1.701-1.719-3.102-1.719-.698 0-1.32.164-1.867.492-.542.323-.966.776-1.274 1.359-.302.584-.453 1.245-.453 1.985 0 .734.151 1.393.453 1.976.308.579.732 1.032 1.274 1.36.547.323 1.169.484 1.867.484 1.385 0 2.419-.575 3.102-1.726.281-.365.598-.547.953-.547.26 0 .481.096.664.289.187.192.281.424.281.695 0 .214-.063.464-.188.75-.125.287-.283.542-.476.766-.516.593-1.138 1.044-1.867 1.351-.724.302-1.552.453-2.485.453zm7.36-.031c-.172 0-.334-.044-.485-.133-.146-.083-.263-.198-.351-.343-.089-.146-.133-.305-.133-.477 0-.203.047-.424.141-.664l3.476-8.484c.224-.558.482-.961.774-1.211.296-.25.684-.375 1.164-.375.479 0 .864.125 1.156.375.297.25.557.653.781 1.211l3.477 8.484c.099.234.148.456.148.664 0 .172-.044.331-.133.477-.088.145-.208.26-.359.343-.146.089-.305.133-.477.133-.25 0-.461-.057-.632-.172-.167-.109-.289-.268-.368-.476l-.851-2.164h-5.477l-.851 2.164c-.172.432-.506.648-1 .648zm6.57-4.734-1.977-5.024-1.984 5.024zm8.305 4.711c-.297 0-.539-.097-.727-.289-.187-.193-.281-.443-.281-.75v-8.399h-2.797c-.292 0-.534-.094-.727-.281-.187-.188-.281-.427-.281-.719 0-.291.094-.528.281-.711.193-.187.435-.281.727-.281h7.617c.292 0 .531.094.719.281.193.183.289.42.289.711 0 .292-.096.531-.289.719-.188.187-.427.281-.719.281h-2.797v8.399c0 .307-.093.557-.281.75-.187.192-.432.289-.734.289zm8.125-.18c-.302 0-.547-.096-.735-.289-.182-.193-.273-.443-.273-.75v-9.18c0-.307.091-.554.273-.742.188-.193.433-.289.735-.289h6.086c.296 0 .539.094.726.281.193.183.289.42.289.711 0 .292-.096.531-.289.719-.193.187-.435.281-.726.281h-5.071v2.625h4.539c.276 0 .506.091.688.274.187.177.281.401.281.671 0 .277-.094.503-.281.68-.182.172-.412.258-.688.258h-4.539v2.758h5.102c.297 0 .539.094.726.281.193.182.289.419.289.711s-.096.531-.289.719c-.192.187-.434.281-.726.281zm14.304.234c-.796 0-1.489-.086-2.078-.257-.583-.178-1.107-.435-1.57-.774-.339-.25-.612-.549-.82-.898-.204-.349-.305-.688-.305-1.016 0-.281.091-.516.273-.703.183-.193.409-.289.68-.289.281 0 .529.127.742.383.391.562.834.976 1.328 1.242.495.266 1.12.398 1.875.398.641 0 1.138-.125 1.493-.375.359-.255.539-.606.539-1.054 0-.401-.131-.711-.391-.93-.255-.219-.617-.378-1.086-.477l-2.055-.422c-1.005-.208-1.768-.557-2.289-1.046-.515-.495-.773-1.201-.773-2.118 0-.682.174-1.278.523-1.789.349-.51.844-.903 1.485-1.179.64-.276 1.385-.414 2.234-.414 1.224 0 2.323.317 3.297.953.354.224.633.505.836.843.203.334.305.665.305.993 0 .286-.081.523-.243.711-.156.182-.369.273-.64.273-.177 0-.341-.039-.492-.117s-.308-.193-.469-.344c-.615-.943-1.534-1.414-2.758-1.414-.594 0-1.068.117-1.422.352-.354.229-.531.552-.531.968 0 .292.062.526.187.704.131.171.31.307.539.406.23.094.534.182.914.265l1.969.446c.599.135 1.112.317 1.539.547.427.229.771.557 1.032.984.26.422.39.966.39 1.633 0 .713-.177 1.336-.531 1.867-.349.531-.846.94-1.492 1.226-.641.282-1.386.422-2.235.422z" fill="#444"/><rect fill="#fff" height="111" rx="55.5" stroke="#6349ff" stroke-linejoin="round" stroke-width="3" width="157" x="404.5" y="188.5"/><path d="m443.844 238.18c-.287 0-.526-.099-.719-.297-.187-.203-.281-.459-.281-.766v-9.172c0-.432.117-.768.351-1.007.24-.245.547-.368.922-.368.328 0 .591.081.789.242.203.162.406.43.61.805l3.312 6.281 3.313-6.281c.208-.38.414-.648.617-.805.203-.161.466-.242.789-.242.375 0 .68.123.914.368.24.239.359.575.359 1.007v9.172c0 .307-.096.563-.289.766-.187.198-.427.297-.719.297-.286 0-.526-.102-.718-.305-.188-.203-.282-.456-.282-.758v-6.867l-2.664 5.117c-.156.292-.296.518-.421.68-.12.156-.25.273-.391.351-.141.079-.31.118-.508.118-.286 0-.521-.084-.703-.25-.182-.172-.388-.472-.617-.899l-2.656-5.117v6.867c0 .302-.097.555-.29.758-.192.203-.432.305-.718.305zm19.594.054c-1.12 0-2.12-.247-3-.742-.881-.5-1.568-1.195-2.063-2.086-.49-.89-.734-1.901-.734-3.031 0-1.135.244-2.146.734-3.031.495-.891 1.182-1.584 2.063-2.078.88-.5 1.88-.75 3-.75 1.119 0 2.119.25 3 .75.88.494 1.565 1.187 2.054 2.078.495.885.742 1.896.742 3.031 0 1.13-.247 2.141-.742 3.031-.489.891-1.174 1.586-2.054 2.086-.881.495-1.881.742-3 .742zm-3.711-5.859c0 .745.158 1.409.476 1.992.318.578.758 1.029 1.32 1.352.563.323 1.201.484 1.915.484.713 0 1.351-.161 1.914-.484.562-.323 1.002-.774 1.32-1.352.318-.583.476-1.247.476-1.992s-.158-1.406-.476-1.984c-.318-.584-.758-1.037-1.32-1.36-.563-.323-1.201-.484-1.914-.484-.714 0-1.352.161-1.915.484-.562.323-1.002.776-1.32 1.36-.318.578-.476 1.239-.476 1.984zm13.328 5.797c-.302 0-.547-.094-.735-.281-.182-.193-.273-.44-.273-.743v-9.265c0-.396.112-.711.336-.945.224-.24.521-.36.89-.36.266 0 .498.07.696.211.198.135.429.391.695.766l4.945 7.211v-7.164c0-.303.094-.547.282-.735.187-.193.429-.289.726-.289.302 0 .547.096.735.289.187.188.281.432.281.735v9.257c0 .391-.112.709-.336.953-.224.24-.513.36-.867.36-.261 0-.498-.068-.711-.203-.209-.141-.433-.378-.672-.711l-4.985-7.156v7.046c0 .303-.093.55-.281.743-.182.187-.424.281-.726.281zm12.953.008c-.302 0-.547-.097-.735-.289-.182-.193-.273-.443-.273-.75v-9.539c0-.308.091-.555.273-.743.188-.192.433-.289.735-.289s.547.097.734.289c.188.188.281.435.281.743v9.539c0 .307-.093.557-.281.75-.187.192-.432.289-.734.289zm8.125 0c-.297 0-.539-.097-.727-.289-.187-.193-.281-.443-.281-.75v-8.399h-2.797c-.292 0-.534-.094-.726-.281-.188-.188-.282-.427-.282-.719 0-.291.094-.528.282-.711.192-.187.434-.281.726-.281h7.617c.292 0 .532.094.719.281.193.183.289.42.289.711 0 .292-.096.531-.289.719-.187.187-.427.281-.719.281h-2.797v8.399c0 .307-.093.557-.281.75-.187.192-.432.289-.734.289zm11.867.054c-1.12 0-2.12-.247-3-.742-.88-.5-1.568-1.195-2.062-2.086-.49-.89-.735-1.901-.735-3.031 0-1.135.245-2.146.735-3.031.494-.891 1.182-1.584 2.062-2.078.88-.5 1.88-.75 3-.75s2.12.25 3 .75c.88.494 1.565 1.187 2.055 2.078.494.885.742 1.896.742 3.031 0 1.13-.248 2.141-.742 3.031-.49.891-1.175 1.586-2.055 2.086-.88.495-1.88.742-3 .742zm-3.711-5.859c0 .745.159 1.409.477 1.992.317.578.757 1.029 1.32 1.352.562.323 1.2.484 1.914.484s1.352-.161 1.914-.484c.563-.323 1.003-.774 1.32-1.352.318-.583.477-1.247.477-1.992s-.159-1.406-.477-1.984c-.317-.584-.757-1.037-1.32-1.36-.562-.323-1.2-.484-1.914-.484s-1.352.161-1.914.484c-.563.323-1.003.776-1.32 1.36-.318.578-.477 1.239-.477 1.984zm13.328 5.805c-.302 0-.547-.097-.734-.289-.182-.193-.274-.443-.274-.75v-9.36c0-.307.092-.554.274-.742.187-.193.432-.289.734-.289h3.867c.74 0 1.407.151 2 .453.594.302 1.06.724 1.399 1.266.344.541.515 1.161.515 1.859 0 .761-.197 1.425-.593 1.992-.391.568-.925.99-1.602 1.266l2.008 2.937c.182.256.273.513.273.774 0 .151-.046.294-.14.43-.089.135-.209.242-.36.32-.151.083-.312.125-.484.125-.177 0-.339-.042-.484-.125-.146-.078-.269-.19-.368-.336l-2.57-3.805h-2.445v3.235c0 .307-.094.557-.281.75-.188.192-.433.289-.735.289zm3.891-6.196c.354 0 .664-.067.93-.203.27-.135.481-.328.632-.578s.227-.542.227-.875c0-.328-.076-.617-.227-.867s-.362-.443-.632-.578c-.271-.141-.581-.211-.93-.211h-2.875v3.312zm-57.867 30.016c-.297 0-.539-.096-.727-.289-.187-.193-.281-.44-.281-.742v-9.367c0-.308.091-.555.273-.743.188-.192.433-.289.735-.289s.547.097.734.289c.187.188.281.435.281.743v8.406h4.727c.297 0 .539.094.726.281.193.182.289.419.289.711s-.096.531-.289.719c-.192.187-.435.281-.726.281zm13.757.234c-1.119 0-2.119-.247-3-.742-.88-.5-1.567-1.195-2.062-2.086-.49-.89-.734-1.901-.734-3.031 0-1.135.244-2.146.734-3.031.495-.891 1.182-1.584 2.062-2.078.881-.5 1.881-.75 3-.75 1.12 0 2.12.25 3 .75.881.494 1.566 1.187 2.055 2.078.495.885.742 1.896.742 3.031 0 1.13-.247 2.141-.742 3.031-.489.891-1.174 1.586-2.055 2.086-.88.495-1.88.742-3 .742zm-3.71-5.859c0 .745.158 1.409.476 1.992.318.578.758 1.029 1.32 1.352.563.323 1.201.484 1.914.484.714 0 1.352-.161 1.914-.484.563-.323 1.003-.774 1.321-1.352.318-.583.476-1.247.476-1.992s-.158-1.406-.476-1.984c-.318-.584-.758-1.037-1.321-1.36-.562-.323-1.2-.484-1.914-.484-.713 0-1.351.161-1.914.484-.562.323-1.002.776-1.32 1.36-.318.578-.476 1.239-.476 1.984zm17.585 5.859c-1.14 0-2.151-.244-3.031-.734-.88-.495-1.565-1.185-2.054-2.07-.485-.886-.727-1.896-.727-3.032 0-1.135.253-2.148.758-3.039.505-.895 1.203-1.593 2.093-2.093.891-.5 1.899-.75 3.024-.75.745 0 1.422.096 2.031.289.615.192 1.156.453 1.625.781.36.255.654.555.883.898.229.344.344.67.344.977 0 .281-.091.503-.274.664-.177.156-.39.234-.64.234-.183 0-.349-.031-.5-.093-.146-.068-.302-.177-.469-.328-.328-.448-.745-.8-1.25-1.055s-1.109-.383-1.813-.383c-.724 0-1.369.167-1.937.5-.563.328-1.003.786-1.32 1.375-.313.589-.469 1.258-.469 2.008 0 .745.156 1.411.469 2 .317.583.76 1.039 1.328 1.367.573.328 1.234.492 1.984.492.938 0 1.682-.229 2.234-.687.558-.464.865-1.112.922-1.946h-3.328c-.271 0-.502-.091-.695-.273s-.289-.406-.289-.672c0-.297.094-.531.281-.703.188-.172.422-.258.703-.258h4.336c.313 0 .568.094.766.281.198.188.297.464.297.828 0 1.136-.222 2.112-.664 2.93-.438.813-1.055 1.432-1.852 1.86-.792.421-1.713.632-2.766.632zm12.25 0c-.796 0-1.489-.086-2.078-.257-.583-.178-1.106-.435-1.57-.774-.339-.25-.612-.549-.82-.898-.203-.349-.305-.688-.305-1.016 0-.281.091-.516.273-.703.183-.193.409-.289.68-.289.281 0 .529.127.742.383.391.562.834.976 1.328 1.242.495.266 1.12.398 1.875.398.641 0 1.138-.125 1.493-.375.359-.255.539-.606.539-1.054 0-.401-.131-.711-.391-.93-.255-.219-.617-.378-1.086-.477l-2.055-.422c-1.005-.208-1.768-.557-2.289-1.046-.515-.495-.773-1.201-.773-2.118 0-.682.174-1.278.523-1.789.349-.51.844-.903 1.485-1.179.64-.276 1.385-.414 2.234-.414 1.224 0 2.323.317 3.297.953.354.224.633.505.836.843.203.334.305.665.305.993 0 .286-.081.523-.243.711-.156.182-.369.273-.64.273-.177 0-.341-.039-.492-.117s-.308-.193-.469-.344c-.615-.943-1.534-1.414-2.758-1.414-.594 0-1.068.117-1.422.352-.354.229-.531.552-.531.968 0 .292.062.526.187.704.131.171.31.307.54.406.229.094.533.182.914.265l1.968.446c.599.135 1.112.317 1.539.547.427.229.771.557 1.032.984.26.422.39.966.39 1.633 0 .713-.177 1.336-.531 1.867-.349.531-.846.94-1.492 1.226-.641.282-1.386.422-2.235.422z" fill="#444"/><g stroke="#444"><circle cx="282.5" cy="27.5" fill="#fff" r="26" stroke-width="3"/><path d="m268.995 37.4031c0-4.475 3.628-8.1027 8.103-8.1027s8.103 3.6277 8.103 8.1027" stroke-linecap="round" stroke-linejoin="round" stroke-width="2"/><path d="m272.831 17.4162c2.377 2.4619 6.029 3.196 9.173 1.8438" stroke-linecap="round" stroke-linejoin="round" stroke-width="2"/><path clip-rule="evenodd" d="m277.098 24.8808c2.735 0 4.952-2.217 4.952-4.9517s-2.217-4.9516-4.952-4.9516-4.951 2.2169-4.951 4.9516 2.216 4.9517 4.951 4.9517z" fill-rule="evenodd" stroke-linecap="round" stroke-linejoin="round" stroke-width="2"/><path d="m285.202 15.7772c2.071-1.3457 4.817-.9594 6.437.9054 1.619 1.8648 1.617 4.6379-.006 6.4999s-4.37 2.2435-6.438.8942" stroke-linecap="round" stroke-linejoin="round" stroke-width="2"/><path d="m286.101 29.501c2.404-.5446 4.925.0333 6.851 1.5705 1.927 1.5372 3.05 3.867 3.052 6.3317" stroke-linecap="round" stroke-linejoin="round" stroke-width="2"/><path d="m285.198 18.6797c1.305.8185 2.814 1.2517 4.354 1.2496 1.12.0009 2.227-.227 3.256-.6698" stroke-linecap="round" stroke-linejoin="round" stroke-width="2"/></g></svg>