<svg width="136" height="25" viewBox="0 0 136 25" fill="none" xmlns="http://www.w3.org/2000/svg">
<path d="M40.4581 19.524C43.5895 19.524 45.5044 17.9685 45.5044 15.3566C45.5044 13.3716 44.3555 12.1411 42.0238 11.6536L39.985 11.2357C38.8473 11.0267 38.2729 10.5276 38.2729 9.74979C38.2729 8.90238 39.0276 8.39161 40.2103 8.39161C41.1677 8.39161 42.0689 8.69343 42.7898 9.45958C43.3417 9.98196 43.7472 10.2838 44.2316 10.2838C44.8511 10.2838 45.3242 9.80783 45.3242 9.15777C45.3242 8.46126 44.8849 7.72994 44.1978 7.19595C43.2741 6.46463 41.8548 6.05833 40.2666 6.05833C37.3154 6.05833 35.4343 7.5326 35.4343 9.95874C35.4343 11.8625 36.6847 13.151 39.1064 13.6502L41.0438 14.0565C42.1252 14.2654 42.6546 14.811 42.6546 15.6352C42.6546 16.5871 41.8661 17.1095 40.5595 17.1095C39.343 17.1095 38.363 16.7032 37.4844 15.7281C36.9325 15.1361 36.6058 14.9387 36.144 14.9387C35.4569 14.9387 35.0176 15.4147 35.0176 16.088C35.0176 16.68 35.4006 17.4113 35.9525 17.9337C36.8649 18.9088 38.5432 19.524 40.4581 19.524Z" fill="#444444"/>
<path d="M50.6971 19.4428C51.4969 19.4428 52.0601 18.8275 52.0601 17.9685V7.61385C52.0601 6.74323 51.4969 6.13959 50.6971 6.13959C49.8861 6.13959 49.3116 6.74323 49.3116 7.61385V17.9685C49.3116 18.8275 49.8861 19.4428 50.6971 19.4428ZM48.985 2.84282C48.985 3.84114 49.7171 4.59568 50.7084 4.59568C51.6996 4.59568 52.4092 3.84114 52.4092 2.84282C52.4092 1.85611 51.6996 1.10156 50.7084 1.10156C49.7171 1.10156 48.985 1.85611 48.985 2.84282Z" fill="#444444"/>
<path d="M61.6795 22.2752C65.7909 22.2752 68.1 20.9054 68.1 18.4561C68.1 16.4362 66.692 15.3218 64.1126 15.3218H60.1251C59.4267 15.3218 59.0212 14.9852 59.0212 14.4628C59.0212 14.1958 59.1451 13.9868 59.3929 13.8011C60.1026 14.0565 60.9474 14.1842 61.8823 14.1842C65.1151 14.1842 67.1539 12.6171 67.1539 10.1213C67.1539 9.42476 66.9962 8.79791 66.692 8.26392L67.5706 7.47455C67.9536 7.11469 68.1789 6.7084 68.1789 6.30211C68.1789 5.76812 67.7283 5.28057 67.1313 5.28057C66.7709 5.28057 66.3879 5.4547 66.0725 5.72169L64.9574 6.68518C64.1351 6.27889 63.0875 6.05833 61.8823 6.05833C58.6608 6.05833 56.5995 7.63707 56.5995 10.1213C56.5995 11.2357 57.0162 12.1759 57.7709 12.8608C56.9036 13.4064 56.5206 14.1029 56.5206 14.9968C56.5206 15.7861 56.8473 16.4478 57.4105 16.9122C56.4981 17.3533 55.8786 18.1426 55.8786 19.1874C55.8786 21.2189 57.9286 22.2752 61.6795 22.2752ZM58.6157 18.7231C58.6157 18.2471 58.8297 17.8756 59.2465 17.5854C59.4042 17.597 59.5619 17.6087 59.7309 17.6087H63.5719C64.7096 17.6087 65.2615 17.9801 65.2615 18.7114C65.2615 19.6169 64.0788 20.1277 61.8034 20.1277C59.6407 20.1277 58.6157 19.6749 58.6157 18.7231ZM59.3817 10.098C59.3817 8.86756 60.3616 8.0898 61.9161 8.0898C63.448 8.0898 64.4054 8.85595 64.4054 10.098C64.4054 11.3285 63.448 12.0947 61.9161 12.0947C60.3616 12.0947 59.3817 11.3285 59.3817 10.098Z" fill="#444444"/>
<path d="M76.6156 19.524C79.747 19.524 81.6619 17.9685 81.6619 15.3566C81.6619 13.3716 80.513 12.1411 78.1813 11.6536L76.1426 11.2357C75.0049 11.0267 74.4304 10.5276 74.4304 9.74979C74.4304 8.90238 75.1851 8.39161 76.3678 8.39161C77.3253 8.39161 78.2264 8.69343 78.9473 9.45958C79.4992 9.98196 79.9047 10.2838 80.3891 10.2838C81.0086 10.2838 81.4817 9.80783 81.4817 9.15777C81.4817 8.46126 81.0424 7.72994 80.3553 7.19595C79.4316 6.46463 78.0124 6.05833 76.4242 6.05833C73.473 6.05833 71.5919 7.5326 71.5919 9.95874C71.5919 11.8625 72.8422 13.151 75.264 13.6502L77.2014 14.0565C78.2827 14.2654 78.8121 14.811 78.8121 15.6352C78.8121 16.5871 78.0236 17.1095 76.717 17.1095C75.5005 17.1095 74.5205 16.7032 73.6419 15.7281C73.09 15.1361 72.7633 14.9387 72.3015 14.9387C71.6144 14.9387 71.1751 15.4147 71.1751 16.088C71.1751 16.68 71.5581 17.4113 72.11 17.9337C73.0224 18.9088 74.7008 19.524 76.6156 19.524Z" fill="#444444"/>
<path d="M90.3465 19.524C91.563 19.524 92.7457 19.0481 93.4554 18.3748C93.9397 17.9221 94.1875 17.4113 94.1875 16.8889C94.1875 16.2156 93.737 15.7397 93.1062 15.7397C92.6894 15.7397 92.374 15.9487 92.1149 16.1576C91.6756 16.5175 91.2476 16.8077 90.6844 16.8077C89.8396 16.8077 89.2877 16.2505 89.2877 15.1477V8.97203H92.5542C93.2977 8.97203 93.8383 8.43805 93.8383 7.6835C93.8383 6.94057 93.2977 6.40658 92.5542 6.40658H89.2877V4.2126C89.2877 3.35358 88.7245 2.74995 87.9247 2.74995C87.1137 2.74995 86.5392 3.35358 86.5392 4.2126V6.40658H84.8496C84.095 6.40658 83.5543 6.94057 83.5543 7.6835C83.5543 8.43805 84.095 8.97203 84.8496 8.97203H86.5392V15.5424C86.5392 18.0033 88.1613 19.524 90.3465 19.524Z" fill="#444444"/>
<path d="M102.816 19.524C106.668 19.524 109.428 16.8309 109.428 12.7912C109.428 8.73986 106.668 6.05833 102.816 6.05833C98.9747 6.05833 96.2151 8.73986 96.2151 12.7912C96.2151 16.8309 98.9747 19.524 102.816 19.524ZM99.0423 12.7912C99.0423 10.3418 100.608 8.68182 102.816 8.68182C105.024 8.68182 106.589 10.3418 106.589 12.7912C106.589 15.2405 105.024 16.9005 102.816 16.9005C100.608 16.9005 99.0423 15.2405 99.0423 12.7912Z" fill="#444444"/>
<path d="M115.623 12.3617C115.623 10.1213 116.671 8.7863 117.966 8.7863C118.597 8.7863 119.07 9.09972 119.408 9.49441C119.656 9.79623 120.05 10.1213 120.523 10.1213C121.413 10.1213 121.92 9.4828 121.92 8.56574C121.92 7.93889 121.66 7.35847 121.176 6.88253C120.669 6.39498 119.87 6.05833 118.867 6.05833C117.493 6.05833 116.321 6.67358 115.623 7.77637V7.61385C115.623 6.74323 115.06 6.13959 114.26 6.13959C113.449 6.13959 112.875 6.74323 112.875 7.61385V17.9685C112.875 18.8275 113.449 19.4428 114.26 19.4428C115.06 19.4428 115.623 18.8275 115.623 17.9685V12.3617Z" fill="#444444"/>
<path d="M130.356 19.524C132.316 19.524 134.321 18.8043 135.279 17.3184C135.504 16.9702 135.673 16.5755 135.673 16.1924C135.673 15.4959 135.346 15.0432 134.614 15.0432C134.141 15.0432 133.769 15.2638 133.398 15.612C132.677 16.5175 131.742 16.9122 130.458 16.9122C128.227 16.9122 126.696 15.6468 126.493 13.6502H134.535C135.504 13.6502 136 13.1394 136 12.0482C136 8.55413 133.657 6.05833 129.973 6.05833C126.279 6.05833 123.711 8.76308 123.711 12.7564C123.711 16.8889 126.335 19.524 130.356 19.524ZM126.493 11.3634C126.684 9.51762 128.002 8.3684 129.872 8.3684C131.776 8.3684 133.06 9.47119 133.262 11.3634H126.493Z" fill="#444444"/>
<path fill-rule="evenodd" clip-rule="evenodd" d="M9.81874 12.6268V6.02589C9.81874 5.33157 9.88626 4.64704 10.1081 3.98206C10.5903 2.57387 11.497 1.5764 12.8858 1.09723C14.5447 0.520262 16.194 0.657169 17.7758 1.41994C18.1809 1.61552 18.5377 1.88933 18.8174 2.27072C19.1839 2.76945 19.1068 3.45399 18.6535 3.82559C18.3738 4.05051 17.9108 4.06029 17.5636 3.89405C17.4478 3.83752 17.332 3.77906 17.2158 3.72038C16.8093 3.51514 16.3976 3.30728 15.9625 3.1704C15.3356 2.97481 14.6701 2.99437 14.0336 3.18995C12.9823 3.50288 12.4904 4.29499 12.365 5.35113C12.3361 5.63473 12.3168 5.91832 12.3168 6.20191V19.5015C12.3168 20.4109 12.1914 21.3008 11.8056 22.132C11.1497 23.5207 10.0502 24.3323 8.59384 24.6453C7.34965 24.9093 6.11511 24.8311 4.91914 24.3715C4.32116 24.1465 3.76176 23.8434 3.35667 23.3153C3.03839 22.8948 3.0191 22.3374 3.30845 21.9267C3.53992 21.5942 3.97394 21.428 4.35009 21.5746C4.66838 21.7018 4.97701 21.868 5.276 22.0343C6.17298 22.533 7.12782 22.6112 8.10195 22.3472C8.99893 22.1027 9.51011 21.4377 9.71265 20.5478C9.78981 20.2056 9.8091 19.834 9.8091 19.4819C9.82356 17.7732 9.82176 16.0589 9.81995 14.3433C9.81935 13.7712 9.81874 13.199 9.81874 12.6268ZM22.3003 12.5396C22.3003 13.7957 21.2821 14.814 20.0259 14.814C18.7698 14.814 17.7515 13.7957 17.7515 12.5396C17.7515 11.2835 18.7698 10.2652 20.0259 10.2652C21.2821 10.2652 22.3003 11.2835 22.3003 12.5396ZM2.2744 14.814C3.53051 14.814 4.5488 13.7957 4.5488 12.5396C4.5488 11.2835 3.53051 10.2652 2.2744 10.2652C1.01828 10.2652 0 11.2835 0 12.5396C0 13.7957 1.01828 14.814 2.2744 14.814Z" fill="#444444"/>
</svg>