<?xml version="1.0" encoding="UTF-8"?><svg id="Layer_1" xmlns="http://www.w3.org/2000/svg" viewBox="0 0 360 125"><defs><style>.cls-1{fill:#faf7ef;}.cls-2{fill:#8c5ca6;}.cls-3{fill:#2e2f71;}</style></defs><g><path class="cls-1" d="M78.88985,119.61432c-.55389,.04883-1.10681,.07324-1.65936,.08643,.55249-.01318,1.10547-.0376,1.65936-.08643Z"/><path class="cls-1" d="M102.91616,104.28131c-.05151,.11084-.10406,.22119-.15741,.33105,.05328-.10986,.1059-.22021,.15741-.33105Z"/><path class="cls-1" d="M104.08431,101.3067c-.04071,.12354-.07996,.24707-.12213,.37012,.04218-.12305,.08142-.24658,.12213-.37012Z"/><path class="cls-1" d="M76.72988,119.70465c-.40472,.00146-.8092-.00586-1.2132-.02246,.40405,.0166,.80847,.02393,1.2132,.02246Z"/><path class="cls-1" d="M104.48745,100.00641c-.04047,.13965-.08179,.2793-.12378,.41846,.04199-.13916,.08337-.27881,.12378-.41846Z"/><path class="cls-1" d="M104.83498,98.7403c-.03235,.12549-.06696,.25-.10028,.375,.03333-.125,.06793-.24951,.10028-.375Z"/><path class="cls-1" d="M15.56075,95.46784c.33936,.25781,.69025,.50635,1.06409,.73682,.41394,.25488,.849,.49268,1.3053,.71289,.1662,.08057,.341,.14307,.51453,.20801-.17352-.06494-.34833-.12793-.51453-.2085-.86835-.41992-1.65436-.90576-2.36938-1.44922Z"/><path class="cls-1" d="M113.06637,47.80133c.03693,.16504,.07269,.33057,.10767,.49561-.03497-.16504-.07074-.33057-.10767-.49561Z"/><path class="cls-1" d="M112.5931,45.85114l-.00183-.00732c-.15234-.57129-.32269-1.13281-.51025-1.68555l-.00543-.01416c.18958,.55762,.36212,1.12402,.51587,1.70068l.00165,.00635Z"/><path class="cls-1" d="M111.10787,41.732c.08588,.18994,.17566,.37793,.25732,.57031-.08167-.19238-.17145-.38037-.25732-.57031Z"/><path class="cls-1" d="M113.80074,52.28522c.01636,.16455,.03119,.32959,.04498,.49463-.01373-.16504-.02863-.33008-.04498-.49463Z"/><path class="cls-1" d="M110.19033,39.88092c.1095,.20142,.21637,.4043,.32104,.6084-.10474-.2041-.21149-.40698-.32104-.6084Z"/><path class="cls-1" d="M109.1838,38.16046c.1087,.17163,.21008,.34717,.31519,.52075-.10516-.17358-.20648-.34912-.31519-.52075Z"/><path class="cls-1" d="M86.72298,10.2342c-.20563-.16553-.40839-.33496-.62091-.4917-1.36133-1.00342-2.85919-1.82837-4.42944-2.55762-.64783-.30078-1.30078-.57739-1.95844-.83105-.62311-.24023-1.25122-.45654-1.88251-.65723,1.29773,.4126,2.57947,.90259,3.84113,1.48853,1.81525,.84326,3.52747,1.82227,5.05017,3.04907Z"/><path class="cls-1" d="M40.78585,11.50251c-1.18756,.80664-2.32806,1.67749-3.44635,2.57935-.60278,.48633-1.20062,.97925-1.79901,1.47192-.84668,.69678-1.68683,1.40112-2.52197,2.11084,.83508-.70972,1.67535-1.41382,2.52197-2.1106,1.70862-1.40649,3.41779-2.80981,5.24536-4.05151Z"/><path class="cls-1" d="M67.32564,3.89508c-.66406-.03516-1.32996-.06079-1.99835-.07422-.79877-.01392-1.59454,.00146-2.38739,.04321-.71735,.03784-1.43152,.10376-2.1441,.18237,1.50031-.16553,3.01013-.25195,4.53149-.22534,.66833,.01343,1.33429,.03882,1.99835,.07397Z"/><path class="cls-1" d="M94.48702,22.17243c-.16748-.2373-.33643-.47314-.49426-.71753-.45374-.70166-.86731-1.43359-1.23724-2.19727-.185-.38184-.35907-.77173-.52185-1.16992-.14301-.34985-.29547-.6958-.45123-1.04004,.15576,.34448,.30829,.69019,.45129,1.04028,.6015,1.47168,1.36401,2.8252,2.2533,4.08447Z"/><path class="cls-1" d="M98.09475,26.19928c2.60394,2.33667,5.18622,4.69189,7.52277,7.29883-.51624-.57593-1.03876-1.14575-1.57715-1.69946-1.26532-1.30103-2.58459-2.54688-3.9245-3.77246-.66998-.61279-1.34509-1.22046-2.0213-1.82739-.42145-.37817-.8233-.77124-1.21582-1.17139,.39258,.40039,.79443,.79346,1.216,1.17188Z"/><path class="cls-1" d="M95.47097,23.47394c-.08795-.10669-.16864-.21899-.25458-.32739,.43292,.5459,.89117,1.07324,1.37402,1.58203-.38702-.40771-.76428-.823-1.11945-1.25464Z"/><path class="cls-1" d="M72.0245,4.36823c.40851,.06177,.81573,.12964,1.2218,.20312-.40601-.07349-.81329-.14136-1.2218-.20312Z"/><path class="cls-1" d="M53.06246,5.62824c.18427-.05737,.3692-.11328,.55463-.16772-.18542,.05444-.37036,.11035-.55463,.16772Z"/><polygon class="cls-1" points="50.88509 6.37018 50.88058 6.37213 50.8868 6.36969 50.88509 6.37018"/><path class="cls-1" d="M75.92586,5.15265c.44373,.11377,.88452,.2417,1.32465,.37305-.44012-.13135-.88092-.25928-1.32465-.37305Z"/><path class="cls-1" d="M55.88265,4.86628c.69409-.15356,1.39105-.28809,2.08948-.41211-.69843,.12402-1.39532,.25879-2.08948,.41211Z"/><path class="cls-1" d="M48.45888,7.37628c.19489-.08643,.38898-.17505,.58484-.25903-.19586,.08398-.38995,.17261-.58484,.25903Z"/><path class="cls-1" d="M46.57296,8.25421c.2113-.10327,.4234-.20508,.63574-.30591-.2124,.10083-.42438,.20264-.63574,.30591Z"/><path class="cls-1" d="M16.12563,32.44635c3.25488-1.7832,6.07068-4.05029,8.5506-6.82129,1.5769-1.7627,3.25909-3.41748,4.99799-5.0127-.82886,.7605-1.64838,1.53076-2.44519,2.32446-.87482,.87134-1.72766,1.76538-2.55292,2.68774-2.47992,2.77124-5.29553,5.03809-8.55066,6.82153-.72949,.3999-1.43646,.83008-2.12268,1.28809-1.37244,.91602-2.66174,1.94312-3.88177,3.06104-.60999,.55908-1.20264,1.14062-1.77972,1.74268-.28265,.29492-.54773,.59619-.7951,.90381-.22278,.2771-.42645,.56152-.62054,.84961,.40967-.60767,.87854-1.19312,1.41571-1.75317,2.30817-2.40771,4.86621-4.49268,7.7843-6.0918Z"/><path class="cls-1" d="M73.99233,4.71271c.41107,.08276,.82019,.17505,1.22845,.27124-.40826-.09619-.81738-.18848-1.22845-.27124Z"/><path class="cls-1" d="M70.00704,4.11115c.42517,.04468,.84943,.09351,1.27222,.14966-.42273-.05615-.84711-.10498-1.27222-.14966Z"/><path class="cls-1" d="M58.59316,4.35138c.52277-.08545,1.04688-.16089,1.57208-.22729-.52527,.06641-1.04932,.14185-1.57208,.22729Z"/><path class="cls-1" d="M67.89376,3.93317c.47296,.03003,.94525,.06323,1.41565,.10596-.4704-.04272-.94269-.07593-1.41565-.10596Z"/><path class="cls-1" d="M102.23428,46.32428c-.75378-2.33496-1.57556-4.63892-2.70081-6.81787-1.96503-3.80566-4.68536-7.05566-7.71234-10.04126-2.20795-2.17798-4.62726-4.11719-7.32153-5.69263-2.10712-1.23169-4.35596-2.11328-6.6319-2.97827-2.29419-.87256-4.62476-1.61011-6.96423-2.33301-1.43555-.44312-2.90204-.78882-4.38885-.9812-7.16541-.92407-14.00934,.20898-20.53223,3.30493l.49664,.22754c.12115,.22314,.38062,.52905,.23236,.7146-.31982,.40063,.00043,.28955,.17322,.26807,.18597-.02319,.3656-.09912,.54645-.15674,2.22028-.7041,4.41467-1.51001,6.73553-1.83691,1.25928-.17773,2.48602-.55762,3.75891-.62988,1.17462-.06714,2.35602-.02515,3.52808-.11401,3.57043-.27173,7.04218,.3772,10.49316,1.13208,1.55286,.33936,3.04645,.91724,4.53705,1.5,3.61621,1.41235,7.00409,3.21094,10.12128,5.53027,2.31238,1.7207,4.38226,3.7041,6.41211,5.73633,.16876,.1687,.34076,.2793,.6051,.34814,.50916,.13403,1.10938,.13818,1.48041,.60205,1.50818,1.88452,2.5625,4.03125,3.52429,6.22388,.83868,1.91089,1.54315,3.87671,2.20624,5.85474,1.45105,4.32861,2.38062,8.75928,2.48456,13.33887,.0282,1.23193,.00427,2.46387,.00427,3.6958l.16754-.00098c.17938-1.61182,.41827-3.21924,.5174-4.83496,.07056-1.15186-.05463-2.31592-.10693-3.47168-.13324-2.93848-.76141-5.78662-1.66577-8.58789Z"/><path class="cls-1" d="M80.30801,97.04108c-.79785,.05029-1.41315,.38965-2.03583,.67725-3.96771,1.83252-8.15515,2.78027-12.49841,3.02051-3.44464,.18994-6.87061-.05859-10.27356-.66357-6.70856-1.19336-12.73712-3.87109-17.97308-8.24463-5.18262-4.32959-8.99365-9.70654-11.79956-15.81396-1.39911-3.04541-2.3407-6.25-3.20868-9.49902,.07074,1.0376-.07599,2.07568-.01923,3.0918,.05823,1.04395,.44495,2.06982,.68536,3.10449,.28375,1.2207,.73975,2.38037,1.18579,3.5498,.97766,2.56348,2.16925,4.98438,3.86017,7.17871,1.47223,1.90967,2.92151,3.8208,4.59344,5.56934,1.96924,2.06055,4.16724,3.83398,6.48364,5.46436,.79193,.55713,1.46881,1.28076,2.35071,1.69922,1.43683,.68066,2.8656,1.39062,4.34607,1.96436,1.83368,.70947,3.67889,1.38281,5.61127,1.83545,1.68103,.39404,3.38855,.64111,5.06189,1.05811,.20038,.0498,.41516,.07178,.62164,.06299,1.10602-.04639,2.19885,.13086,3.29932,.1748,1.5885,.0625,3.16614,.29883,4.76941-.01318,.87897-.17188,1.79919-.21533,2.71564-.20361,.88763,.01172,1.79224-.05664,2.66272-.22559,3.17438-.6167,6.17548-1.72803,8.99426-3.31885,.18744-.10596,.39758-.19385,.56702-.46875Z"/><path class="cls-1" d="M80.03731,53.02936c-1.97437,0-3.57471,1.60059-3.57471,3.57471,0,1.97461,1.60034,3.57471,3.57471,3.57471s3.57507-1.6001,3.57507-3.57471c0-1.97412-1.60071-3.57471-3.57507-3.57471Z"/><path class="cls-1" d="M65.04983,106.43805c-.92358-.08545-1.84808-.11182-2.77618-.13281-1.40253-.03223-2.80035-.24609-4.20288-.28467-2.73932-.07617-5.44604-.51074-8.16064-.79395-2.14105-.22363-4.31512-.67773-6.23291-1.82959-.12921-.07715-.2749-.13037-.41742-.18164-.37299-.13428-.58691-.00879-.62927,.39453-.05103,.48584,.0271,.95703,.25415,1.38232,.32172,.60156,.63074,1.22314,1.03992,1.76465,.93866,1.24268,2.12622,2.10742,3.77081,2.08252,1.13794-.01709,2.27594-.06543,3.41199-.12744,.51044-.02783,1.02216-.07275,1.52155-.2124,1.35504-.37891,2.73914-.61523,4.12854-.82471,.25055-.03711,.4903,0,.73621,.02783,1.24384,.13916,2.48877,.27002,3.60706,.39062,1.5495-.03955,2.92786-.23193,4.13721-1.06445,.15247-.10498,.39856-.19141,.34796-.40283-.06287-.26318-.33948-.16992-.53607-.18799Z"/><path class="cls-1" d="M33.70547,97.86579c-1.06-.53467-2.01501-1.19727-2.86517-2.03564-.75293-.74219-1.41687-.53125-1.7854,.4707-.21008,.57129-.04871,1.12158,.00763,1.68506,.15759,1.56494,1.02466,2.27588,2.57098,2.01709,1.44165-.24072,2.85876-.61865,4.31635-.77832,.19891-.02148,.41766-.05371,.63898-.25586-.45996-.32373-.90771-.54736-1.42279-.64258-.50366-.09326-.9942-.22559-1.46057-.46045Z"/><path class="cls-1" d="M80.03731,65.28571c-1.97437,0-3.57471,1.60107-3.57471,3.57568,0,1.97412,1.60034,3.57422,3.57471,3.57422s3.57507-1.6001,3.57507-3.57422c0-1.97461-1.60071-3.57568-3.57507-3.57568Z"/><path class="cls-1" d="M24.34035,88.69977c.27423,.22412,.62012,.36328,.94165,.5249,.1391,.06934,.302,.06592,.42969-.04443,.14423-.12451,.08582-.28027,.02734-.42041-.05847-.13965-.11945-.2832-.21136-.3999-.71588-.91064-1.36951-1.88281-2.1756-2.70654-1.7265-1.76416-2.97418-3.83789-4.10773-5.99512-.31641-.60303-.72882-1.15967-.9118-1.83105-.73999-2.71338-1.44696-5.44092-1.62317-8.25537-.13873-2.21045-.68683-4.34766-1.01428-6.52148-.31793-2.11328-.70886-4.20898-.84955-6.34863-.10864-1.65576-.08112-3.30029,.10126-4.94482,.17792-1.604,.38928-3.2041,.82599-4.7627,.79785-2.84717,2.01587-5.52148,3.34637-8.15234,1.32794-2.62646,3.00958-5.0083,4.88739-7.26001,1.16742-1.39941,2.41486-2.73169,3.51788-4.18579,.35858-.47241,.65491-.97461,.92981-1.65332-.68073,.21045-1.24115,.37451-1.6825,.84204-2.1925,2.3208-4.34222,4.6875-6.61353,6.92993-2.64423,2.6106-4.27997,5.77344-5.4317,9.23682-1.05896,3.18457-1.52155,6.46924-1.5033,9.81348,.01544,2.89062,.44983,5.75049,.81689,8.61084,.23914,1.86328,.51318,3.73047,.67627,5.5918,.17621,2.01367,.43329,3.99707,.86432,5.96533,.79272,3.61816,2.0722,7.06299,3.79004,10.33691,.72351,1.37891,1.7077,2.58105,2.80103,3.70996,.67963,.70166,1.42114,1.31006,2.16858,1.91992Z"/><path class="cls-1" d="M110.0317,54.03278c-.21857-3.28174-.88464-6.47607-2.64044-9.35742,.74744,3.11768,1.41266,6.24756,1.63953,9.44434,.22656,3.19727-.1076,6.40137,.09442,9.61084,.95605-3.17139,1.12421-6.43115,.90649-9.69775Z"/><path class="cls-1" d="M110.62704,45.47663c.99353,2.97461,1.55182,6.01611,1.7204,9.1377,.02881,.53076,.05194,1.06299,.04578,1.59375-.02075,1.71973,.10651,3.43896-.2243,5.15283-.28021,1.45068-.57629,2.896-.86096,4.35449,.03436-.04248,.08093-.07959,.1015-.12842,1.92432-4.56836,2.55908-9.29053,1.84875-14.2168-.61169-4.24072-1.89264-8.24902-3.94916-11.9939-2.31281-4.21118-5.53461-7.64819-9.30499-10.5896-.13721-.10718-.26599-.29834-.57562-.20728,.36084,.21777,.55151,.50415,.75861,.7749,1.82312,2.38477,3.64032,4.77368,5.46942,7.1543,2.10565,2.74146,3.86694,5.66089,4.97058,8.96802Z"/><path class="cls-1" d="M44.79128,9.15534c.17731-.09302,.3559-.18286,.53381-.27441-.17792,.09155-.35651,.1814-.53381,.27441Z"/><path class="cls-1" d="M81.56966,43.83649h-6.63934v-5.87329c0-1.27612-1.0213-2.04248-2.04279-2.04248h-25.2796c-3.3197,0-6.12854,2.80884-6.12854,6.12842v34.21655c0,3.32031,2.80908,6.12891,6.12854,6.12891h33.96173c1.27649,0,2.04272-1.02197,2.04272-2.04248,0-1.53271-1.02167-2.5542-2.04272-2.5542H47.60793c-1.02148,0-2.04297-.76611-2.04297-2.04297v-28.08789c.51062,.25537,1.27686,.25537,2.04297,.25537h33.96173c1.27649,0,2.04272-1.02197,2.04272-2.04297,0-1.27686-1.02167-2.04297-2.04272-2.04297Zm-10.72467-.25537h-23.23706c-1.02148,0-2.04297-.76611-2.04297-2.04272,0-.76587,1.02148-1.7876,2.04297-1.7876h23.23706v3.83032Z"/><path class="cls-1" d="M102.97512,85.61139c-1.0755,1.94531-2.04047,3.97461-3.42877,5.70996-2.43311,3.04395-4.57202,6.32422-7.32513,9.11084-1.01678,1.02832-2.09125,1.97705-3.27881,2.80908-.69592,.4873-1.38678,1.00195-1.95715,1.64648-.53583,.60498-.47382,.85498,.27808,1.17432,.10291,.04346,.21942,.08154,.32892,.08008,1.00519-.0083,2.00867,.05615,3.01514-.09277,1.55475-.23145,3.01611-.75537,4.45209-1.34863,1.21741-.50439,2.30396-1.27783,3.29639-2.11377,1.01788-.85693,1.8028-1.95703,2.33588-3.21973,.56189-1.33057,1.00287-2.70166,1.45251-4.06836,.52252-1.58838,.75421-3.24756,1.10199-4.87842,.31744-1.48584,.55615-2.9834,.69977-4.49219,.04108-.42822,.16309-.94971-.23853-1.37939-.35242,.31982-.5318,.69922-.73236,1.0625Z"/><path class="cls-1" d="M105.14107,97.50397l.00287-.01172c.05896-.25049,.10864-.50195,.16339-.75293-.05475,.25098-.10443,.50293-.16345,.75293l-.00281,.01172Z"/><path class="cls-1" d="M19.74166,98.74176c.27679-.2959,.37726-.55176,.30975-.76807,.01868,.06006,.02777,.12158,.0202,.1875-.01324,.11523-.06641,.23975-.15985,.37305-.04669,.06689-.10345,.13574-.17023,.20703-.06488,.06934-.13892,.13135-.20001,.20361-.19012,.22363-.3681,.45166-.53973,.68164,.17151-.22998,.34961-.45801,.53967-.68164,.06122-.07178,.13538-.13428,.2002-.20312Z"/><path class="cls-1" d="M17.3196,103.08942c-.06348,.26904-.1178,.54102-.15302,.81982-.07788,.6167-.08459,1.25879-.01086,1.92969,.06091,.55371,.18634,1.07715,.36707,1.56592,.18066,.48828,.41663,.94141,.69849,1.354l.00092,.00098c-.56409-.82568-.94452-1.81299-1.06635-2.9209-.10706-.97412-.0401-1.88623,.16376-2.74951Z"/><path class="cls-1" d="M27.68954,110.32086c.98694-.07227,1.97021,.24512,2.72644,.88037,.32825,.27539,.60229,.62158,.82678,1.01123-.7417-1.2876-2.13788-1.99561-3.55322-1.8916Z"/><path class="cls-1" d="M19.04195,97.34528c.12695,.04346,.25415,.08643,.37994,.13184,.10675,.03809,.1969,.08057,.27747,.12549-.08063-.04492-.17059-.0874-.27734-.12598-.12579-.04541-.25305-.08789-.38007-.13135Z"/><path class="cls-1" d="M19.76534,97.64557c.05121,.03271,.09692,.06689,.13513,.10303-.03821-.03613-.08398-.07031-.13513-.10303Z"/><path class="cls-1" d="M82.19277,119.08454c.13379-.03027,.26709-.04932,.40094-.08154,1.21655-.29688,2.40295-.65723,3.56152-1.07666,1.15863-.41992,2.28931-.89844,3.39471-1.43164,2.21069-1.06592,4.31989-2.34863,6.34656-3.80957-4.05334,2.92139-8.4364,5.13086-13.30261,6.31787-.13391,.03223-.26727,.05127-.40112,.08154Z"/><path class="cls-1" d="M31.35244,112.38385h0c.11145,.22021,.2149,.44434,.32086,.66748s.21448,.44531,.32098,.66797c.03925,.08203,.07703,.16455,.11584,.24707-.03882-.08252-.07642-.16553-.11572-.24756-.21289-.44531-.41913-.89453-.64197-1.33496Z"/><path class="cls-1" d="M62.61758,7.29914c.10828,.02759,.2262,.02124,.33972,.02002,.66718-.00562,1.32733,.07666,1.98456,.17456,4.19312,.625,8.32904,1.5376,12.42175,2.6228,2.84778,.75488,5.34784,2.26025,7.63477,4.09399,1.59357,1.27783,2.82703,2.91431,4.18762,4.42188,.18127,.20068,.33527,.54346,.68091,.36597,.33398-.17212,.23657-.52271,.20331-.82178-.01038-.09229-.05505-.18042-.08618-.27075-.73938-2.15015-1.79095-4.06421-3.58356-5.57397-2-1.68579-4.16858-3.0752-6.59399-3.99365-3.87671-1.46729-7.95337-1.93188-12.07019-2.09326-.39948,0-.80188-.03223-1.19751,.00537-1.31989,.12573-2.66608,.05127-3.94403,.4978-.12708,.04443-.34949,.03735-.33679,.23389,.0119,.18262,.19,.27441,.35962,.31714Z"/><path class="cls-1" d="M10.16067,75.28083c.23425-1.96289,.35876-3.93799,.3988-5.91553,.01385-.68164-.05676-1.34424-.17371-1.99707,.07239,.4043,.13013,.81152,.15643,1.22559,.01617,.25488,.02246,.51221,.01721,.77197-.0401,1.97705-.16473,3.95215-.39899,5.91504-.13177,1.10303-.20886,2.20215-.23407,3.29785-.02515,1.09521,.00153,2.18652,.07745,3.2749s.20105,2.17383,.37262,3.25586c-.51453-3.24658-.61127-6.51855-.21576-9.82861Z"/><path class="cls-1" d="M40.14004,121.17878c.27484-.00781,.55383-.02637,.83887-.06152,.41345-.05078,.81604-.13184,1.20972-.23828,.13116-.03516,.25586-.08838,.38507-.12891-.51709,.1626-1.04364,.29932-1.59473,.3667-.28503,.03516-.56409,.0542-.83893,.06201Z"/><path class="cls-1" d="M54.84811,113.05963c.14636-.02686,.29315-.05273,.44531-.06152-.15247,.00781-.29858,.03613-.44531,.06152Z"/><path class="cls-1" d="M5.54299,51.92536c-.10333-.49072-.19012-.9834-.26776-1.47803,.07764,.49463,.16449,.9873,.26776,1.47803Z"/><path class="cls-1" d="M34.00387,117.66413c-.24475-.37988-.46405-.77393-.67426-1.17285,.21021,.39893,.42944,.79297,.67426,1.17285Z"/><path class="cls-1" d="M18.93624,109.60895c-.06134-.06201-.12512-.12158-.18396-.18604,.05896,.06445,.1225,.12354,.18396,.18604Z"/><path class="cls-1" d="M24.72378,111.28669c.01312-.00342,.02612-.00879,.03925-.01172-.01373,.00293-.0274,.00879-.04114,.01172h.00189Z"/><path class="cls-1" d="M34.89596,118.86286h.00006c-.04553-.05273-.07874-.11182-.12292-.16504,.04413,.05322,.07733,.1123,.12286,.16504Z"/><path class="cls-1" d="M35.52395,119.50836h0c-.0188-.01709-.03595-.03857-.05463-.05615,.01868,.01758,.03583,.03906,.05463,.05615Z"/><path class="cls-1" d="M20.29848,110.65436c-.07434-.04199-.1449-.08984-.21747-.13477,.07269,.04492,.14301,.09277,.21747,.13477Z"/><path class="cls-1" d="M23.85323,111.4195c-.08966,.00781-.17853,.0083-.26782,.01221,.08948-.00391,.17798-.00391,.26782-.01221Z"/><path class="cls-1" d="M36.15285,120.01422c-.21405-.15283-.42352-.31885-.62616-.50342,.20264,.18457,.41205,.35059,.62616,.50342Z"/><path class="cls-1" d="M19.59518,110.18903c-.07672-.05811-.1521-.11816-.2262-.18018,.07422,.06201,.14923,.12158,.2262,.18018Z"/><path class="cls-1" d="M22.10049,111.31745c-.08374-.01709-.16846-.03027-.25122-.05078,.08289,.02051,.16736,.03369,.25122,.05078Z"/><path class="cls-1" d="M22.98269,111.43073c-.09814-.00537-.1958-.0127-.29315-.02295,.09753,.01025,.19476,.01758,.29315,.02295Z"/><path class="cls-1" d="M33.13113,116.10309c-.15302-.3042-.30334-.60986-.4483-.91846,.14496,.30859,.29529,.61426,.4483,.91846Z"/><path class="cls-1" d="M54.67129,113.08893c-.18408,.04199-.36316,.10547-.53949,.17871,.17609-.07471,.35571-.13428,.53949-.17871Z"/><path class="cls-1" d="M62.26821,115.95954c1.18036,.68848,2.40558,1.28271,3.6806,1.77344,.20306,.07764,.41565,.13623,.62128,.20898-1.56921-.55615-3.06873-1.25732-4.4975-2.10693,.06616,.03955,.12915,.08545,.19562,.12451Z"/><path class="cls-1" d="M69.52566,118.81842c-.52759-.12793-1.05493-.26465-1.58142-.41699,.52655,.15234,1.05383,.28906,1.58142,.41699Z"/><path class="cls-1" d="M36.81783,120.42731c-.1524-.08252-.3006-.17676-.44794-.27295,.14734,.09619,.29547,.19043,.44794,.27295Z"/><path class="cls-1" d="M73.32723,119.51325c-.53296-.06348-1.06519-.14502-1.59698-.23682,.5318,.0918,1.06396,.17383,1.59698,.23682Z"/><path class="cls-1" d="M71.22256,119.1817c-.39783-.0752-.79547-.15771-1.19269-.24756,.39722,.08984,.7948,.17236,1.19269,.24756Z"/><path class="cls-1" d="M38.25692,120.97956c-.15143-.0376-.30066-.08057-.448-.12891,.14734,.04834,.29663,.09131,.448,.12891Z"/><path class="cls-1" d="M54.09206,113.28327c-.18829,.08008-.37323,.18164-.55426,.29932,.18134-.11816,.36597-.21729,.55426-.29932Z"/><path class="cls-1" d="M37.51845,120.74811c-.14722-.05664-.29138-.12207-.43439-.19043,.14294,.06836,.28717,.13379,.43439,.19043Z"/><path class="cls-1" d="M39.04,121.12213c-.1626-.01953-.32391-.04297-.48236-.07422,.15839,.03125,.31976,.05469,.48236,.07422Z"/><path class="cls-1" d="M39.8915,121.17536c-.18762-.00098-.37427-.00488-.55688-.01904,.18262,.01416,.36926,.01807,.55688,.01904Z"/><path class="cls-1" d="M9.22958,63.36432c-.77734-2.29443-1.64978-4.55762-2.409-6.85742,.75916,2.30029,1.63153,4.56348,2.409,6.85742Z"/><path class="cls-1" d="M30.41836,19.94025c.62128-.55835,1.24792-1.11108,1.88135-1.65674-.63342,.54565-1.26007,1.09839-1.88135,1.65674Z"/><path class="cls-1" d="M75.01614,119.66022c-.53357-.03174-1.06659-.07471-1.59894-.13623,.53229,.06152,1.06537,.10449,1.59894,.13623Z"/><path class="cls-1" d="M10.35848,67.20856c-.07404-.38525-.16559-.7666-.26862-1.14551,.10297,.37891,.19458,.76025,.26862,1.14551Z"/><path class="cls-1" d="M5.21267,50.00739c-.05176-.36963-.09503-.74072-.13037-1.11279,.03534,.37207,.07855,.74316,.13037,1.11279Z"/><path class="cls-1" d="M10.03542,65.86579c-.10632-.37598-.22101-.75049-.34283-1.12354,.12183,.37305,.23651,.74756,.34283,1.12354Z"/><path class="cls-1" d="M9.62337,64.53278c-.12054-.36377-.24359-.72705-.36639-1.09033,.12268,.36328,.24591,.72656,.36639,1.09033Z"/><path class="cls-1" d="M17.38058,102.85749c.05322-.19824,.11346-.39404,.18127-.5874-.06775,.19336-.12811,.38916-.18127,.5874Z"/><path class="cls-1" d="M6.37154,41.20465c.12183-.22192,.25153-.44092,.38916-.65674-.13763,.21582-.26733,.43481-.38916,.65674Z"/><path class="cls-1" d="M5.16854,44.57135c-.02747,.1499-.03906,.30615-.06079,.4585,.10376-.72705,.27301-1.42725,.50623-2.10254-.18445,.53369-.34192,1.07764-.44543,1.64404Z"/><path class="cls-1" d="M4.97127,46.92438v.00049c-.00055-.07031,.00714-.13721,.00763-.20654-.00049,.06934-.00818,.13623-.00763,.20605Z"/><path class="cls-1" d="M5.04134,48.44635c-.03827-.50439-.0658-1.01074-.07001-1.52051,.00421,.50977,.03168,1.01611,.07001,1.52051Z"/><path class="cls-1" d="M5.79916,42.39215c.12653-.31348,.27222-.6189,.42755-.9209-.15533,.302-.30103,.60791-.42755,.9209Z"/><path class="cls-1" d="M15.27639,95.2403c-.24646-.19922-.48328-.40576-.71045-.62012,.22717,.21436,.46399,.4209,.71045,.62012Z"/><path class="cls-1" d="M14.3041,94.37067c-.58643-.58789-1.10437-1.23193-1.5542-1.93066,.44983,.69922,.96783,1.34277,1.5542,1.93066Z"/><path class="cls-1" d="M18.50216,100.35407c.11322-.17822,.23212-.35498,.35687-.5293-.12476,.17432-.24365,.35107-.35687,.5293Z"/><path class="cls-1" d="M17.64089,102.04743c.19617-.5127,.44202-1.00781,.73175-1.48779-.28979,.47998-.53558,.9751-.73175,1.48779Z"/><path class="cls-1" d="M20.02663,97.92047c-.01874-.04053-.04272-.07959-.0744-.11719,.03162,.0376,.05566,.07666,.0744,.11719Z"/><path class="cls-1" d="M11.44955,89.77692h.00012c-.146-.41455-.26935-.84766-.38129-1.29004,.11182,.44238,.23523,.875,.38116,1.29004Z"/><path class="cls-1" d="M11.02743,88.34821h.00012c-.25122-1.03418-.45966-2.07031-.62787-3.10938,.16821,1.03857,.37659,2.0752,.62775,3.10938Z"/><path class="cls-1" d="M11.94271,90.97174c-.17932-.38574-.34723-.78076-.49268-1.19385,.14545,.41309,.31335,.80811,.49268,1.19385Z"/><path class="cls-1" d="M12.5588,92.12506c-.15942-.26514-.30945-.53809-.45013-.81836,.14069,.28027,.29077,.55322,.45013,.81836Z"/><path class="cls-2" d="M113.84573,52.77985c-.01379-.16504-.02863-.33008-.04498-.49463-.13281-1.33789-.34717-2.66699-.62671-3.98828-.03497-.16504-.07074-.33057-.10767-.49561-.14563-.65137-.30042-1.30176-.47327-1.9502l-.00165-.00635c-.15375-.57666-.32629-1.14307-.51587-1.70068-.21326-.62646-.4541-1.23877-.71039-1.8418-.08167-.19238-.17145-.38037-.25732-.57031-.18958-.41943-.38696-.83447-.5965-1.24268-.10468-.2041-.21155-.40698-.32104-.6084-.22046-.40552-.4519-.80469-.69135-1.19971-.1051-.17358-.20648-.34912-.31519-.52075-.96783-1.52734-2.06934-2.98022-3.28973-4.3645-.08978-.10181-.18604-.19678-.27655-.29785-2.33655-2.60693-4.91882-4.96216-7.52277-7.29883-.42157-.37842-.82343-.77148-1.216-1.17188-.09705-.09888-.19312-.19849-.28833-.29883-.48285-.50879-.9411-1.03613-1.37402-1.58203-.25201-.31812-.49536-.64258-.72937-.97412-.88928-1.25928-1.65179-2.61279-2.2533-4.08447-.14301-.3501-.29553-.6958-.45129-1.04028-.57947-1.28076-1.25043-2.51904-2.07013-3.67554-.86414-1.21851-1.87775-2.24219-2.98932-3.13794-1.52271-1.22681-3.23492-2.20581-5.05017-3.04907-1.26166-.58594-2.5434-1.07593-3.84113-1.48853-.19287-.06128-.38763-.11304-.58118-.1709-.44012-.13135-.88092-.25928-1.32465-.37305-.23425-.0603-.46985-.11328-.70508-.1687-.40826-.09619-.81738-.18848-1.22845-.27124-.24811-.0498-.49695-.09619-.74603-.14136-.40607-.07349-.81329-.14136-1.2218-.20312-.24811-.03711-.49628-.07422-.74524-.10742-.42279-.05615-.84705-.10498-1.27222-.14966-.23242-.02441-.46454-.05103-.69763-.07202-.4704-.04272-.94269-.07593-1.41565-.10596-.18951-.01172-.37823-.02783-.56812-.03809-.66406-.03516-1.33002-.06055-1.99835-.07397-1.52136-.02661-3.03119,.05981-4.53149,.22534-.21051,.02295-.42041,.05127-.63055,.07764-.52521,.06641-1.04932,.14185-1.57208,.22729-.20709,.03394-.41437,.06616-.62103,.10278-.69843,.12402-1.39539,.25854-2.08948,.41211l-.00183,.00024c-.76587,.16919-1.51776,.37402-2.26373,.59399-.18542,.05444-.37036,.11035-.55463,.16772-.7326,.22876-1.45966,.47119-2.17566,.74146l-.00623,.00244c-.61823,.2334-1.22937,.48486-1.83685,.74512-.19586,.08398-.38995,.17261-.58484,.25903-.4187,.18579-.83575,.37573-1.25018,.57202-.21234,.10083-.42444,.20264-.63574,.30591-.41791,.20435-.83368,.41333-1.24786,.62671-.17792,.09155-.35651,.1814-.53381,.27441-.58417,.30664-1.16608,.6189-1.74457,.93921-.7807,.43237-1.52814,.91016-2.26086,1.40796-1.82758,1.2417-3.53674,2.64502-5.24536,4.05151-.84662,.69678-1.68689,1.40088-2.52197,2.1106-.24097,.20483-.47925,.4126-.71881,.6189-.63342,.54565-1.26007,1.09839-1.88135,1.65674-.2486,.22339-.49786,.44629-.74414,.67212-1.73889,1.59521-3.42108,3.25-4.99799,5.0127-2.47992,2.771-5.29572,5.03809-8.5506,6.82129-2.91809,1.59912-5.47614,3.68408-7.7843,6.0918-.53717,.56006-1.00604,1.14551-1.41571,1.75317-.05707,.08472-.11029,.1709-.16492,.25659-.13763,.21582-.26733,.43481-.38916,.65674-.04865,.08887-.09869,.177-.14484,.2666-.15533,.302-.30103,.60742-.42755,.9209-.07074,.1748-.12354,.35693-.18518,.53516-.23322,.67529-.40247,1.37549-.50623,2.10254-.07825,.54834-.12469,1.10938-.12885,1.68848-.00049,.06934-.00818,.13623-.00763,.20654h0l.00006,.00098c.00421,.50977,.03174,1.01611,.07001,1.52051,.01141,.1499,.02679,.29883,.04095,.44824,.03534,.37207,.07861,.74316,.13037,1.11279,.02057,.14697,.03955,.29395,.06256,.43994,.07764,.49463,.16443,.9873,.26776,1.47803,.11554,.54834,.24609,1.09424,.3894,1.63818,.26147,.99268,.56702,1.9707,.88818,2.94336,.75922,2.2998,1.63165,4.56299,2.409,6.85742,.00885,.02637,.01855,.05176,.02734,.07812h.00006c.1228,.36328,.24585,.72656,.36639,1.09033,.02313,.06982,.04645,.13965,.06921,.20947,.12183,.37305,.23651,.74756,.34283,1.12354,.01855,.06592,.03656,.13135,.05444,.19727,.10303,.37891,.19458,.76025,.26862,1.14551,.01019,.05273,.01776,.10645,.02728,.15967,.11694,.65283,.18756,1.31543,.17371,1.99707-.04004,1.97754-.16455,3.95264-.3988,5.91553-.39551,3.31006-.29877,6.58203,.21576,9.82861,.00684,.04297,.01624,.08643,.02325,.12939,.16821,1.03906,.37665,2.0752,.62787,3.10938v.00049c.0116,.04736,.02887,.09082,.04083,.13818,.11194,.44238,.23529,.87549,.38129,1.29004l.00037,.00098c.14545,.41309,.31335,.80811,.49268,1.19385,.05286,.11377,.11017,.22363,.16595,.33496,.14069,.28027,.29071,.55322,.45013,.81836,.06323,.10547,.12488,.21191,.1911,.31494,.44983,.69873,.96777,1.34277,1.5542,1.93066,.08484,.08545,.17413,.1665,.26184,.24951,.22717,.21436,.46399,.4209,.71045,.62012,.09436,.07617,.18713,.15332,.28436,.22754,.71503,.54346,1.50104,1.0293,2.36938,1.44922,.1662,.08057,.341,.14355,.51453,.2085,.19843,.07471,.39594,.15137,.59729,.21973,.12701,.04346,.25427,.08594,.38007,.13135,.10675,.03857,.19672,.08105,.27734,.12598,.02441,.01367,.04395,.02881,.06598,.04297,.05115,.03271,.09692,.06689,.13513,.10303,.0188,.01807,.03607,.03613,.05176,.05469,.03168,.0376,.05566,.07666,.0744,.11719,.00824,.01807,.01904,.03516,.02478,.05322,.0675,.21631-.03296,.47217-.30975,.76807-.06482,.06885-.13898,.13135-.2002,.20312-.19006,.22363-.36816,.45166-.53967,.68164-.04901,.06543-.09534,.13232-.14276,.19824-.12476,.17432-.24365,.35107-.35687,.5293-.04346,.06836-.08783,.13672-.12952,.20557-.28973,.47998-.53558,.9751-.73175,1.48779-.02814,.07373-.05298,.14844-.07904,.22266-.06781,.19336-.12805,.38916-.18127,.5874-.02069,.07715-.04254,.15381-.06097,.23193-.20386,.86328-.27081,1.77539-.16376,2.74951,.12183,1.10791,.50226,2.09521,1.06635,2.9209,.16107,.23584,.34076,.45459,.53009,.66309,.05884,.06445,.12262,.12402,.18396,.18604,.13879,.14014,.28198,.27441,.43274,.3999,.0741,.06201,.14948,.12207,.2262,.18018,.15668,.11865,.31897,.22803,.48584,.33057,.07257,.04492,.14313,.09277,.21747,.13477,.48541,.27246,1.00629,.479,1.55078,.6123,.08276,.02051,.16748,.03369,.25122,.05078,.1944,.03906,.3902,.07031,.58905,.09033,.09735,.01025,.19501,.01758,.29315,.02295,.19965,.01074,.40045,.00977,.60272,.00098,.08929-.00391,.17816-.00439,.26782-.01221,.28882-.0249,.57861-.06543,.86865-.13281,.01373-.00293,.0274-.00879,.04114-.01172,.49426-.11865,.98755-.29688,1.47119-.54492,.46741-.23975,.96185-.37305,1.45532-.40918,1.41534-.104,2.81152,.604,3.55322,1.8916,.03418,.05957,.07843,.10938,.10968,.17139h0c.22284,.44043,.42908,.88965,.64197,1.33496,.03931,.08203,.0769,.16504,.11572,.24756,.19159,.40576,.38196,.81201,.57269,1.21826,.14496,.30859,.29529,.61426,.4483,.91846,.06531,.12988,.13074,.25977,.19849,.38818,.21021,.39893,.4295,.79297,.67426,1.17285,.23108,.3584,.49268,.7002,.76923,1.03369,.04419,.05322,.07739,.1123,.12292,.16504h.00018c.18494,.21338,.37708,.40674,.57312,.58936,.01868,.01758,.03583,.03906,.05463,.05615l.00275,.00244c.20264,.18457,.41211,.35059,.62616,.50342,.07092,.05078,.1449,.09277,.21704,.14014,.14734,.09619,.29553,.19043,.44794,.27295,.0874,.04736,.17719,.08789,.26624,.13037,.14301,.06836,.28717,.13379,.43439,.19043,.09576,.03711,.19293,.07031,.29047,.10254,.14734,.04834,.29657,.09131,.448,.12891,.09955,.0249,.1994,.04883,.30072,.06836,.15845,.03125,.31976,.05469,.48236,.07422,.09796,.01221,.19513,.02637,.29462,.03418,.18262,.01416,.36926,.01807,.55688,.01904,.08313,0,.16449,.00537,.24854,.00342,.27484-.00781,.55389-.02686,.83893-.06201,.55109-.06738,1.07764-.2041,1.59473-.3667,1.03455-.3252,2.01526-.79785,2.96686-1.33887,2.77393-1.57764,5.18817-3.65137,7.67651-5.62012,.1048-.08252,.21387-.13916,.32074-.2085,.18103-.11768,.36597-.21924,.55426-.29932,.01318-.00586,.02655-.01025,.03973-.01562,.17633-.07324,.35541-.13672,.53949-.17871,.05792-.0127,.11804-.01904,.17682-.0293,.14673-.02539,.29285-.05371,.44531-.06152,.22302-.01074,.45056-.00732,.68738,.01904,1.6933,.18848,3.17139,.89307,4.5498,1.83984,.50446,.34619,1.02051,.66797,1.54199,.97803,1.42877,.84961,2.92828,1.55078,4.4975,2.10693,.43988,.15576,.87738,.31689,1.32922,.44775,.01495,.00439,.02997,.00781,.04492,.01172,.52649,.15234,1.05383,.28906,1.58142,.41699,.16803,.04102,.33612,.07764,.50421,.11572,.39722,.08984,.79486,.17236,1.19269,.24756,.16925,.03223,.33832,.06543,.50769,.09473,.5318,.0918,1.06403,.17334,1.59698,.23682,.02997,.00391,.06,.00732,.08997,.01074,.53235,.06152,1.06537,.10449,1.59894,.13623,.16675,.00977,.33368,.01514,.50055,.02197,.40399,.0166,.80847,.02393,1.2132,.02246,.16687-.00098,.33368,0,.50061-.00391,.55255-.01318,1.10547-.0376,1.65936-.08643,1.09808-.09717,2.19934-.27979,3.30292-.52979,.13385-.03027,.26721-.04932,.40112-.08154,4.86621-1.18701,9.24927-3.39648,13.30261-6.31787,2.52289-1.81885,4.59766-4.00928,6.15137-6.71289,.25653-.44629,.48877-.90137,.71088-1.35986,.05334-.10986,.1059-.22021,.15741-.33105,.396-.85156,.74237-1.7207,1.04602-2.60449,.04218-.12305,.08142-.24658,.12213-.37012,.09662-.29248,.19037-.58643,.27936-.88184,.04199-.13916,.08331-.27881,.12378-.41846,.08551-.2959,.16785-.59277,.24725-.89111,.03333-.125,.06793-.24951,.10028-.375,.10608-.41064,.20856-.82227,.30609-1.23633l.00281-.01172c.05902-.25,.1087-.50195,.16345-.75293,.88715-4.06641,1.2395-8.20703,1.54553-12.34912,.27405-3.71143,.88892-7.35938,1.9754-10.91504,.86713-2.83643,2.11414-5.5332,3.22266-8.2793,.95374-2.3623,1.53064-4.7998,1.78015-7.3374,.1684-1.71094,.15472-3.40186,.01465-5.07861ZM62.59475,6.74811c1.27795-.44653,2.62415-.37207,3.94403-.4978,.39563-.0376,.79803-.00537,1.19751-.00537,4.11682,.16138,8.19348,.62598,12.07019,2.09326,2.42542,.91846,4.59399,2.30786,6.59399,3.99365,1.7926,1.50977,2.84418,3.42383,3.58356,5.57397,.03113,.09033,.07581,.17847,.08618,.27075,.03326,.29907,.13068,.64966-.20331,.82178-.34564,.17749-.49963-.16528-.68091-.36597-1.3606-1.50757-2.59406-3.14404-4.18762-4.42188-2.28693-1.83374-4.78699-3.33911-7.63477-4.09399-4.09271-1.08521-8.22864-1.9978-12.42175-2.6228-.65723-.0979-1.31738-.18018-1.98456-.17456-.11353,.00122-.23145,.00757-.33972-.02002-.16962-.04272-.34772-.13452-.35962-.31714-.0127-.19653,.20972-.18945,.33679-.23389ZM19.37075,83.06989c-1.71783-3.27393-2.99731-6.71875-3.79004-10.33691-.43103-1.96826-.68811-3.95166-.86432-5.96533-.16309-1.86133-.43713-3.72852-.67627-5.5918-.36707-2.86035-.80145-5.72021-.81689-8.61084-.01825-3.34424,.44434-6.62891,1.5033-9.81348,1.15173-3.46338,2.78748-6.62622,5.4317-9.23682,2.2713-2.24243,4.42102-4.60913,6.61353-6.92993,.44135-.46753,1.00177-.63159,1.6825-.84204-.2749,.67871-.57123,1.18091-.92981,1.65332-1.10303,1.4541-2.35046,2.78638-3.51788,4.18579-1.87781,2.25171-3.55945,4.63354-4.88739,7.26001-1.33051,2.63086-2.54852,5.30518-3.34637,8.15234-.43671,1.55859-.64807,3.15869-.82599,4.7627-.18237,1.64453-.2099,3.28906-.10126,4.94482,.14069,2.13965,.53162,4.23535,.84955,6.34863,.32745,2.17383,.87555,4.31104,1.01428,6.52148,.17621,2.81445,.88318,5.54199,1.62317,8.25537,.18298,.67139,.5954,1.22803,.9118,1.83105,1.13354,2.15723,2.38123,4.23096,4.10773,5.99512,.80609,.82373,1.45972,1.7959,2.1756,2.70654,.09192,.1167,.15289,.26025,.21136,.3999,.05847,.14014,.11688,.2959-.02734,.42041-.12769,.11035-.29059,.11377-.42969,.04443-.32153-.16162-.66742-.30078-.94165-.5249-.74744-.60986-1.48895-1.21826-2.16858-1.91992-1.09332-1.12891-2.07751-2.33105-2.80103-3.70996Zm16.5791,16.15479c-1.45758,.15967-2.87469,.5376-4.31635,.77832-1.54633,.25879-2.41339-.45215-2.57098-2.01709-.05634-.56348-.21771-1.11377-.00763-1.68506,.36853-1.00195,1.03247-1.21289,1.7854-.4707,.85016,.83838,1.80518,1.50098,2.86517,2.03564,.46637,.23486,.95691,.36719,1.46057,.46045,.51508,.09521,.96283,.31885,1.42279,.64258-.22131,.20215-.44006,.23438-.63898,.25586Zm29.28809,7.8042c-1.20935,.83252-2.58771,1.0249-4.13721,1.06445-1.11829-.12061-2.36322-.25146-3.60706-.39062-.24591-.02783-.48566-.06494-.73621-.02783-1.3894,.20947-2.7735,.4458-4.12854,.82471-.49939,.13965-1.01111,.18457-1.52155,.2124-1.13605,.06201-2.27405,.11035-3.41199,.12744-1.64459,.0249-2.83215-.83984-3.77081-2.08252-.40918-.5415-.7182-1.16309-1.03992-1.76465-.22705-.42529-.30518-.89648-.25415-1.38232,.04236-.40332,.25629-.52881,.62927-.39453,.14252,.05127,.28821,.10449,.41742,.18164,1.91779,1.15186,4.09186,1.60596,6.23291,1.82959,2.7146,.2832,5.42133,.71777,8.16064,.79395,1.40253,.03857,2.80035,.25244,4.20288,.28467,.9281,.021,1.8526,.04736,2.77618,.13281,.19659,.01807,.47321-.0752,.53607,.18799,.0506,.21143-.1955,.29785-.34796,.40283Zm2.84607-5.97461c-.91644-.01172-1.83667,.03174-2.71564,.20361-1.60327,.31201-3.18091,.07568-4.76941,.01318-1.10046-.04395-2.1933-.22119-3.29932-.1748-.20648,.00879-.42126-.01318-.62164-.06299-1.67334-.41699-3.38086-.66406-5.06189-1.05811-1.93237-.45264-3.77759-1.12598-5.61127-1.83545-1.48047-.57373-2.90924-1.28369-4.34607-1.96436-.8819-.41846-1.55878-1.14209-2.35071-1.69922-2.31641-1.63037-4.5144-3.40381-6.48364-5.46436-1.67194-1.74854-3.12122-3.65967-4.59344-5.56934-1.69092-2.19434-2.88251-4.61523-3.86017-7.17871-.44604-1.16943-.90204-2.3291-1.18579-3.5498-.24042-1.03467-.62714-2.06055-.68536-3.10449-.05676-1.01611,.08997-2.0542,.01923-3.0918,.86798,3.24902,1.80957,6.45361,3.20868,9.49902,2.80591,6.10742,6.61694,11.48438,11.79956,15.81396,5.23596,4.37354,11.26453,7.05127,17.97308,8.24463,3.40295,.60498,6.82892,.85352,10.27356,.66357,4.34326-.24023,8.5307-1.18799,12.49841-3.02051,.62268-.2876,1.23798-.62695,2.03583-.67725-.16943,.2749-.37958,.36279-.56702,.46875-2.81879,1.59082-5.81989,2.70215-8.99426,3.31885-.87048,.16895-1.77509,.2373-2.66272,.22559Zm11.95331-40.87549c-1.97437,0-3.57471-1.6001-3.57471-3.57471,0-1.97412,1.60034-3.57471,3.57471-3.57471s3.57507,1.60059,3.57507,3.57471c0,1.97461-1.60071,3.57471-3.57507,3.57471Zm3.57507,8.68262c0,1.97412-1.60071,3.57422-3.57507,3.57422s-3.57471-1.6001-3.57471-3.57422c0-1.97461,1.60034-3.57568,3.57471-3.57568s3.57507,1.60107,3.57507,3.57568Zm-2.04272-20.93896H47.60793c-.76611,0-1.53235,0-2.04297-.25537v28.08789c0,1.27686,1.02148,2.04297,2.04297,2.04297h33.96173c1.02106,0,2.04272,1.02148,2.04272,2.5542,0,1.02051-.76624,2.04248-2.04272,2.04248H47.60793c-3.31946,0-6.12854-2.80859-6.12854-6.12891V42.04914c0-3.31958,2.80884-6.12842,6.12854-6.12842h25.2796c1.02148,0,2.04279,.76636,2.04279,2.04248v5.87329h6.63934c1.02106,0,2.04272,.76611,2.04272,2.04297,0,1.021-.76624,2.04297-2.04272,2.04297Zm22.37634,38.00586c-.14362,1.50879-.38232,3.00635-.69977,4.49219-.34778,1.63086-.57947,3.29004-1.10199,4.87842-.44965,1.3667-.89062,2.73779-1.45251,4.06836-.53308,1.2627-1.31799,2.36279-2.33588,3.21973-.99243,.83594-2.07898,1.60938-3.29639,2.11377-1.43597,.59326-2.89734,1.11719-4.45209,1.34863-1.00647,.14893-2.00995,.08447-3.01514,.09277-.1095,.00146-.22601-.03662-.32892-.08008-.75189-.31934-.8139-.56934-.27808-1.17432,.57037-.64453,1.26123-1.15918,1.95715-1.64648,1.18756-.83203,2.26202-1.78076,3.27881-2.80908,2.75311-2.78662,4.89203-6.06689,7.32513-9.11084,1.38831-1.73535,2.35327-3.76465,3.42877-5.70996,.20056-.36328,.37994-.74268,.73236-1.0625,.40161,.42969,.2796,.95117,.23853,1.37939Zm.06097-27.54443c-.09912,1.61572-.33801,3.22314-.5174,4.83496l-.16754,.00098c0-1.23193,.02393-2.46387-.00427-3.6958-.10394-4.57959-1.03351-9.01025-2.48456-13.33887-.66309-1.97803-1.36755-3.94385-2.20624-5.85474-.96179-2.19263-2.01611-4.33936-3.52429-6.22388-.37103-.46387-.97125-.46802-1.48041-.60205-.26434-.06885-.43634-.17944-.6051-.34814-2.02985-2.03223-4.09973-4.01562-6.41211-5.73633-3.11719-2.31934-6.50507-4.11792-10.12128-5.53027-1.4906-.58276-2.98419-1.16064-4.53705-1.5-3.45099-.75488-6.92273-1.40381-10.49316-1.13208-1.17206,.08887-2.35345,.04688-3.52808,.11401-1.27289,.07227-2.49963,.45215-3.75891,.62988-2.32086,.3269-4.51526,1.13281-6.73553,1.83691-.18085,.05762-.36047,.13354-.54645,.15674-.17279,.02148-.49304,.13257-.17322-.26807,.14825-.18555-.11121-.49146-.23236-.7146l-.49664-.22754c6.52289-3.09595,13.36682-4.229,20.53223-3.30493,1.48682,.19238,2.95331,.53809,4.38885,.9812,2.33948,.7229,4.67004,1.46045,6.96423,2.33301,2.27594,.86499,4.52478,1.74658,6.6319,2.97827,2.69427,1.57544,5.11359,3.51465,7.32153,5.69263,3.02698,2.9856,5.74731,6.2356,7.71234,10.04126,1.12524,2.17896,1.94702,4.48291,2.70081,6.81787,.90436,2.80127,1.53253,5.64941,1.66577,8.58789,.05231,1.15576,.17749,2.31982,.10693,3.47168Zm-3.81995-29.02954c-.20709-.27075-.39777-.55713-.75861-.7749,.30963-.09106,.43842,.1001,.57562,.20728,3.77039,2.94141,6.99219,6.37842,9.30499,10.5896,2.05652,3.74487,3.33746,7.75317,3.94916,11.9939,.71033,4.92627,.07556,9.64844-1.84875,14.2168-.02057,.04883-.06714,.08594-.1015,.12842,.28467-1.4585,.58075-2.90381,.86096-4.35449,.33081-1.71387,.20355-3.43311,.2243-5.15283,.00616-.53076-.01697-1.06299-.04578-1.59375-.16858-3.12158-.72687-6.16309-1.7204-9.1377-1.10364-3.30713-2.86493-6.22656-4.97058-8.96802-1.8291-2.38062-3.6463-4.76953-5.46942-7.1543Zm8.84375,24.76538c-.22687-3.19678-.89209-6.32666-1.63953-9.44434,1.7558,2.88135,2.42188,6.07568,2.64044,9.35742,.21771,3.2666,.04956,6.52637-.90649,9.69775-.20203-3.20947,.13214-6.41357-.09442-9.61084Z"/><path class="cls-2" d="M45.56496,41.53839c0,1.27661,1.02148,2.04272,2.04297,2.04272h23.23706v-3.83032h-23.23706c-1.02148,0-2.04297,1.02173-2.04297,1.7876Z"/></g><g><g><path class="cls-3" d="M168.60283,15.724c-2.85864,1.11032-3.80526,4.64751-1.83943,6.95424,.28133,.33039,.32714,.53864-.06257,.81196-1.34559,.94462-1.35761,2.94799-.38746,4.05881,.26081,.29885,.30011,.40047-.07234,.66379-2.09523,1.48125-1.79187,4.15092,.56392,5.21918,1.96658,.89206,4.05831,.90808,6.14828,.84,1.84368-.06007,3.65984-.31838,5.22444-1.42469,1.24147-.87804,1.75983-2.09548,1.58563-3.60127-.1697-1.46974-1.04424-2.3613-2.39434-2.83185-1.43345-.49909-2.92747-.32589-4.19647-.36493h-2.95901c-.37945-.0005-.75289-.04255-1.08403-.24229-.43201-.25981-.48858-.66178-.34816-1.0993,.15568-.48558,.5026-.40548,.90132-.31237,1.94055,.45003,3.87334,.42951,5.76658-.23628,2.22714-.78343,3.64757-2.85588,3.09467-4.95637-.32338-1.22795-.17346-1.96082,.79594-2.73924,.72486-.58169,.71234-1.37863,.22176-1.92228-.46004-.5091-1.30755-.55165-1.99987-.06358-.45879,.32388-.89856,.6788-1.31956,1.05074-.22477,.19823-.39297,.21125-.68131,.11013-2.32525-.81597-4.6465-.81246-6.95799,.0856Zm.8047,13.02493c.86703,.03254,1.73556,.00851,2.60358,.00851v.02203h0c.86753,0,1.73531-.001,2.60308,.0005,.38045,.0005,.74588,.0826,1.07978,.26231,.75089,.40398,.8445,1.4332,.16219,1.93029-.25881,.18822-.53563,.36143-.86477,.44503-1.75808,.44803-3.53118,.45604-5.29377,.10262-1.25048-.2503-1.76659-1.0978-1.3546-2.03992,.19999-.45754,.49884-.75289,1.06451-.73137Zm4.5559-10.94597c.88755,.35692,1.38614,1.30855,1.29453,2.29422-.09161,.98717-.83524,1.75458-1.97484,2.00538-.31863,.07008-.65077,.07809-1.02221,.11914-.93361-.03504-1.89224-.16319-2.59708-.9286-.98467-1.06877-.56967-2.83786,.81196-3.46661,1.14886-.52262,2.33477-.48708,3.48763-.02353Z"/><path class="cls-3" d="M248.10751,24.99648c.3384,1.71103,1.07703,3.21631,2.49571,4.26856,2.93097,2.17458,6.11224,2.29622,9.38261,.90007,1.14185-.48758,2.04768-1.33258,2.46993-2.56103,.20424-.5932,.12565-1.17339-.38496-1.6029-.49358-.41549-1.05375-.32739-1.57937-.07709-.31237,.14918-.6305,.34641-.86102,.59921-1.16213,1.27651-2.64563,1.52931-4.25003,1.35511-2.11601-.23077-3.70189-1.57987-3.97921-3.29891-.05932-.36844-.03304-.52312,.41049-.51511,1.55234,.02853,3.10518,.01101,4.65777,.01101s3.10518,.01101,4.65777-.0035c1.14986-.01151,1.67548-.48307,1.79513-1.62342,.09411-.89706-.03479-1.78862-.32038-2.63462-.93386-2.76427-2.90845-4.3061-5.77259-4.66853-3.05987-.38746-5.71827,.41349-7.53768,3.0431-1.42118,2.05443-1.66297,4.3867-1.18415,6.80807Zm3.374-4.48231c.59295-1.84819,2.25192-2.86089,4.40597-2.69069,1.86821,.14818,3.16775,1.19391,3.58099,2.84087,.1234,.49258,.08435,.70934-.51661,.68431-1.14961-.04706-2.30248-.01352-3.45409-.01352s-2.30298,.0025-3.45459-.001c-.74513-.0025-.79795-.0836-.56167-.81997Z"/><path class="cls-3" d="M222.09194,15.05871c-4.61146,.02153-7.89836,3.38651-7.85455,8.04002,.0443,4.70207,3.3377,7.95943,8.02726,7.93991,4.91682-.02052,8.14215-3.24534,8.12287-8.12112-.01877-4.73161-3.34421-7.88234-8.29558-7.85881Zm.13766,12.84972c-2.67342-.02603-4.59995-2.12251-4.54664-4.94786,.05281-2.79631,2.02365-4.82872,4.64625-4.79168,2.75276,.03855,4.68555,2.11651,4.61246,4.95787-.07409,2.88141-1.97234,4.8077-4.71208,4.78166Z"/><path class="cls-3" d="M184.55948,28.99422c1.55509,1.58588,3.5432,2.00538,5.07877,2.03791,1.8164-.001,3.01432-.17721,4.14241-.70734,2.84712-1.33809,3.55847-5.22169,1.32732-7.30115-.61122-.56917-1.36211-.89106-2.15906-1.12683-1.37613-.40798-2.82685-.48808-4.18521-.96564-.79494-.27933-1.21219-.82998-1.19567-1.54283,.01552-.66579,.45003-1.22695,1.2625-1.40917,1.38239-.30987,2.69369-.14918,3.85206,.77542,.49258,.39347,.91233,.88755,1.5153,1.13735,.53213,.21976,1.03873,.24279,1.50929-.15168,.47306-.39697,.55591-.91258,.41199-1.46924-.1304-.5046-.37895-.95563-.74363-1.34009-1.00394-1.05775-2.29247-1.52881-3.68662-1.73355-2.03942-.29935-4.04279-.23928-5.8229,.97916-2.26243,1.54883-2.41461,4.87177-.31037,6.61233,.92935,.76841,2.06545,1.06726,3.21931,1.32106,1.00519,.22126,2.04918,.29585,3.00356,.71735,.82297,.36343,1.2232,1.0137,1.12909,1.75758-.09737,.77041-.60146,1.29804-1.49827,1.46173-1.74432,.31838-3.31067-.04255-4.5997-1.32507-.35092-.34941-.70383-.69582-1.14586-.9266-.49158-.2573-1.01095-.26031-1.47725,.02002-.48808,.29285-.65152,.78843-.5902,1.34359,.0816,.73337,.4653,1.32757,.96314,1.83567Z"/><path class="cls-3" d="M147.28783,28.01456c-1.58738,.3369-3.0779,.13516-4.35816-.96114-.40999-.35142-.80595-.71985-1.21995-1.06626-.52062-.43552-1.31781-.5086-1.83918-.14918-.58419,.40148-.65778,.99067-.49409,1.62342,.13716,.52963,.41199,.98767,.78443,1.39565,1.58963,1.74156,3.67986,2.12001,5.88873,2.13703,.30536,0,.61398,.03004,.91533-.00451,1.99486-.22977,3.75345-.86402,4.72009-2.81984,.95613-1.93429,.43752-4.25704-1.27051-5.48149-.93486-.67079-2.05093-.89656-3.15499-1.13234-1.00594-.21525-2.04667-.27933-3.00281-.71385-.64977-.29535-.99017-.78193-.95513-1.49277,.03654-.73287,.49158-1.15487,1.15762-1.33658,1.17414-.32088,2.30498-.22276,3.39102,.38195,.64702,.35993,1.11807,.9306,1.7263,1.32958,.57418,.37645,1.18691,.47707,1.77761,.07409,.5882-.40098,.6345-1.0157,.45604-1.63544-.25906-.90157-.86578-1.54383-1.66647-2.00037-2.20561-1.25749-4.55915-1.40667-6.95123-.75489-2.6176,.71385-3.99023,3.19629-3.16825,5.60864,.56567,1.66097,1.92428,2.42087,3.5019,2.84287,1.29228,.34541,2.61685,.57018,3.90538,.9271,.81096,.22477,1.22545,.91959,1.18891,1.71253-.03454,.74238-.51361,1.34159-1.33258,1.5158Z"/><path class="cls-3" d="M200.05433,18.45824c.60447,.06858,1.21969,.07509,1.82892,.06007,.39597-.00951,.52838,.10963,.52087,.51561-.02353,1.2695-.00851,2.53951-.00851,3.80951,.00025,1.22295-.02002,2.4464,.00576,3.66835,.02828,1.34359,.4613,2.54702,1.5203,3.41805,1.66172,1.36662,3.52042,1.3511,5.43969,.63325,.97516-.36493,1.78111-.94562,2.22013-1.92478,.28434-.63475,.23778-1.27201-.29385-1.74657-.53413-.47707-1.15637-.43101-1.75308-.05707-.35592,.22326-.69282,.48157-1.06426,.6733-1.46323,.7559-2.68468,.04906-2.69945-1.57837-.02052-2.2812,.00976-4.56291-.01727-6.84361-.00601-.5026,.19673-.57568,.62049-.56567,1.01095,.02203,2.0229,.00801,3.03434,.00651,.45204-.0005,.90958-.03805,1.27426-.32488,.49659-.39046,.7206-.91158,.58144-1.55534-.14067-.65127-.55716-1.05625-1.19742-1.12133-.74588-.07659-1.50228-.04155-2.25392-.06908-.65327-.02353-1.49327,.27182-1.90951-.11414-.4245-.39447-.0886-1.24497-.13666-1.89324-.02077-.28083-.00776-.56567-.04681-.8435-.13241-.94262-.84075-1.54683-1.72554-1.49177-.94712,.05957-1.58237,.73337-1.59664,1.71153-.01001,.70534-.02153,1.41217,.00551,2.11651,.01527,.39146-.09461,.54114-.5086,.52612-.60922-.02102-1.22445-.01402-1.83017,.04906-.77016,.08009-1.34034,.73787-1.33508,1.45272,.00601,.77292,.52838,1.39766,1.32507,1.48876Z"/><path class="cls-3" d="M235.37267,30.65469c.55816,.37244,1.14961,.37695,1.73756,.08911,.64426-.31537,.87804-.88505,.87954-1.56485,.00451-2.14054,.0015-4.28157,.00175-6.42211,0-.80395,.08535-1.59539,.36218-2.35579,.27933-.76791,.69482-1.44822,1.44371-1.83467,1.05125-.54264,1.88924-.32639,2.96151,.69883,.52512,.50209,1.10531,.73387,1.8547,.49559,.65928-.21075,.9321-.68231,1.03823-1.29003,.13641-.77992-.06207-1.48576-.56217-2.10599-.69808-.86603-1.64395-1.20743-2.71321-1.29403-1.73956-.14067-3.16625,.46906-4.29759,1.87172-.04706-.12915-.07509-.18272-.0866-.23978-.23278-1.14235-.84-1.63394-1.88724-1.52681-.90282,.09261-1.47825,.78093-1.48,1.82666-.00726,4.02277-.00476,8.04553-.00125,12.0683,.0005,.64026,.18572,1.20793,.74889,1.58388Z"/><path class="cls-3" d="M158.49335,15.16384c-.94111-.00851-1.68074,.63926-1.68575,1.6079-.02253,4.16343-.01877,8.32686-.00125,12.4903,.00375,.8475,.56342,1.49477,1.28477,1.62993,1.15687,.21726,2.04993-.48157,2.06545-1.68299,.02603-2.04642,.00701-4.09285,.00701-6.13927-.0005-2.06995,.02052-4.1404-.00901-6.20986-.01502-1.06176-.6718-1.687-1.66122-1.69601Z"/><path class="cls-3" d="M158.51362,9.15222c-1.1844-.01101-2.13002,.91458-2.12201,2.07746,.00801,1.1794,.91133,2.06344,2.11801,2.07246,1.15161,.00901,2.07095-.88705,2.07796-2.0244,.00751-1.18741-.89706-2.1145-2.07396-2.12552Z"/></g><g><path class="cls-3" d="M148.21035,95.25397c0,2.65137-1.79102,4.55078-4.33496,4.55078-2.57959,0-4.40674-1.89941-4.40674-4.55078v-31.95801c0-2.68652,1.82715-4.5498,4.40674-4.5498,2.54395,0,4.33496,1.86328,4.33496,4.5498v.50195c2.22168-3.40332,5.94775-5.30273,10.31836-5.30273,3.18896,0,5.73242,1.03906,7.34473,2.54395,1.54053,1.46875,2.36475,3.25977,2.36475,5.19531,0,2.83008-1.6123,4.80078-4.44238,4.80078-1.50488,0-2.75879-1.00391-3.54736-1.93457-1.07471-1.21875-2.57959-2.18555-4.58594-2.18555-4.12012,0-7.45215,4.12012-7.45215,11.03418v17.30469Z"/><path class="cls-3" d="M175.50137,79.16803c0-12.3252,8.16895-20.67285,19.92041-20.67285,11.71533,0,19.16748,7.70312,19.16748,18.4873,0,3.36719-1.57617,4.94434-4.65771,4.94434h-25.58057c.64502,6.16211,5.51709,10.06738,12.61133,10.06738,4.08447,0,7.05811-1.21777,9.35107-4.0127,1.18213-1.0752,2.36426-1.75586,3.86914-1.75586,2.3291,0,3.36768,1.39746,3.36768,3.54688,0,1.18262-.53711,2.40039-1.25391,3.47559-3.04541,4.58594-9.42236,6.80762-15.65674,6.80762-12.79004,0-21.13818-8.13281-21.13818-20.8877Zm30.38184-4.2998c-.64502-5.83984-4.729-9.24316-10.78418-9.24316-5.94727,0-10.13916,3.54688-10.74805,9.24316h21.53223Z"/><path class="cls-3" d="M255.31924,97.65534l-12.39648-15.83594-7.81055,6.73535v6.69922c0,2.65137-1.79102,4.55078-4.33496,4.55078-2.57959,0-4.40674-1.89941-4.40674-4.55078V51.07917c0-2.65137,1.82715-4.51465,4.40674-4.51465,2.54395,0,4.33496,1.86328,4.33496,4.51465v26.62012l19.02441-16.5166c2.3291-2.04199,3.47559-2.54395,5.12354-2.54395,2.25732,0,3.94092,1.43262,3.94092,3.72559,0,1.21875-.50146,2.47266-2.32861,4.0127l-11.17822,9.60254,12.32471,15.87109c1.50488,2.00684,1.68408,2.79492,1.68408,4.0127,0,1.89941-1.7915,3.83398-4.29932,3.83398-1.32568,0-2.83057-.3584-4.08447-2.04199Z"/><path class="cls-3" d="M271.33779,79.27545c0-12.50391,8.77734-20.78027,20.99463-20.78027,12.25342,0,21.03076,8.27637,21.03076,20.78027,0,12.46777-8.77734,20.78027-21.03076,20.78027-12.21729,0-20.99463-8.3125-20.99463-20.78027Zm20.99463,12.68262c7.02246,0,12.00244-5.12305,12.00244-12.68262s-4.97998-12.68359-12.00244-12.68359c-7.02197,0-12.00195,5.12402-12.00195,12.68359s4.97998,12.68262,12.00195,12.68262Z"/><path class="cls-3" d="M333.63711,95.25397c0,2.65137-1.79102,4.55078-4.33496,4.55078-2.57959,0-4.40674-1.89941-4.40674-4.55078v-31.95801c0-2.68652,1.82715-4.5498,4.40674-4.5498,2.54395,0,4.33496,1.86328,4.33496,4.5498v.50195c2.22168-3.40332,5.94775-5.30273,10.31836-5.30273,3.18896,0,5.73242,1.03906,7.34473,2.54395,1.54053,1.46875,2.36475,3.25977,2.36475,5.19531,0,2.83008-1.6123,4.80078-4.44238,4.80078-1.50488,0-2.75879-1.00391-3.54736-1.93457-1.07471-1.21875-2.57959-2.18555-4.58594-2.18555-4.12012,0-7.45215,4.12012-7.45215,11.03418v17.30469Z"/></g></g></svg>