<?xml version="1.0" encoding="UTF-8"?>
<svg id="Layer_1" data-name="Layer 1" xmlns="http://www.w3.org/2000/svg" viewBox="0 0 420 125">
  <defs>
    <style>
      .cls-1 {
        fill: #2e2f71;
      }
    </style>
  </defs>
  <path class="cls-1" d="m109.2092274,41.4494918c-7.111761-6.0980519-7.9194817-9.5655229-10.3709424-19.0449685-2.6660941-10.3101161-16.9562887-19.2594153-27.4229485-17.0231478-8.0130224,1.711843-15.8361025,2.1621316-23.7963839.2654464-.8426119-.200764-1.7349794-.2241492-2.6073202-.2634561-4.2325884-.1910617-7.6750571,1.3493731-10.3025906,4.7073816-1.5797418,2.0190841-2.9664938,4.1717621-4.1174663,6.4441025-3.0533796,6.0276477-7.7350749,10.3056381-13.6749661,13.382776-2.7138595,1.4058458-5.3938852,2.9276222-7.9049282,4.6635967-3.8671332,2.6733708-7.0271142,5.9706775-7.6315209,10.9576859-.4403375,3.633406.6739402,6.9871853,2.381865,10.0640745,3.1400166,5.6569681,4.684805,11.6037629,4.0638546,17.4706999,0,2.4243438-.0652421,4.2508736.011817,6.0711839.2655708,6.2687138,1.7332379,12.0047934,7.2605926,15.8760314,2.0994395,1.4705281,4.3285546,2.7437751,6.6856661,3.7038103,6.9091934,2.8141793,12.4746111,7.155857,16.2702827,13.6658856.5071966.8697287,1.2465655,1.6165609,1.9399104,2.3631444,3.151647,3.3938326,7.0171009,5.1039341,11.6866061,4.9501892,3.4790391-.1141892,6.8048309-.9436158,9.939561-2.3609054,9.3813648-4.2419176,18.872814-7.9004502,29.1695583-9.5523376,7.2862168-1.1690089,12.0358285-6.1373589,14.5595592-13.1272808.8251974-2.2855256,1.2319498-4.6548894,1.5799905-7.0282337.6925986-4.7235522,2.9898167-8.2967539,7.1601173-10.6611422.9493066-.5381073,1.3202972-1.161048,2.2047038-1.8028958,3.1691237-2.2992084,5.0536809-5.3955022,5.6196203-9.2749499.588827-4.0364268-.2294357-7.8288021-2.0238731-11.4490229-2.6246414-5.2952446-6.3040403-9.2448477-10.6807646-12.9976673Zm-32.628322-31.8090331c5.8916282-.0363216,10.3676461,2.4064318,13.2573918,7.6041553.1094624.1970324.1660595.4271522.2225321.6483161.0291692.1141892-.0224522.2263882-.1781874.2736561-.2574855.039307-.4763481-.0880675-.6554684-.2736561-.3987293-.4134694-.8102085-.8184804-1.1701284-1.264291-2.3577335-2.9204076-5.408874-4.7210644-9.0149145-5.6495048-.8456594-.2176809-1.6783823-.4866102-2.5132199-.7440957-.2358418-.072892-.5788447-.1525011-.5375476-.4403375.0426655-.29729.3854819-.1532474.5895422-.1542425ZM19.4446938,46.3193256c-.3229141.8702262-.6248065,1.753389-1.0222297,2.5900301-2.603402,5.479838-3.08995,11.1860643-1.9170228,17.0895716.2750243,1.3844508.4663348,2.7858186.6757439,4.1824596.059147.3945623.1834739.9500841-.2648244,1.0916389-.4631007.1460328-.4932028-.454269-.6379296-.7508127-4.1786657-8.5579711-3.754561-16.7892963,1.7941264-24.6392445.2102176-.2975388.5058905-.5413414.7883782-.7781783.1459706-.1226477.3456773-.1258818.5237404.0676677.2372722.347792.2050555.7557883.0600177,1.1468676Zm1.6076049,40.2351517c7.5964432,9.5667668,17.3780922,15.4448988,29.393894,17.4799047,21.7805339,3.6891324,42.9954705-8.0131467,50.6230732-27.8387813,6.2089448-16.1382437,1.2596264-34.9742385-12.149147-46.2376728-19.4282114-16.3198518-47.6120481-14.7082664-65.0375947,3.7540635-1.4735756,1.5613322-2.7288484,3.3289015-4.227675,5.175831,6.848678-13.6785733,26.0222649-27.049408,49.3800528-22.1770864,20.972129,4.3745164,36.3947622,23.5769615,36.2313149,45.3229152-.1681741,22.378348-15.9837524,41.0645783-38.3454322,45.0982685-20.4066561,3.6811714-39.1239837-7.89846-45.8684859-20.5774424Zm36.0867125-25.035797h.0737006c0-4.8758045.0720835-9.7531017-.0149889-14.6274135-.1806752-10.1098496,8.4771181-13.3208302,15.668737-10.9452469,1.4044775.4639714,2.7210741,1.0943754,3.7455428,2.2051702.950706,1.0306882,1.0780183,2.2865207.3535761,3.3094968-.6981961.9856593-1.6170585,1.1747308-3.0089105.5721899-1.0380894-.4495423-2.0319584-1.0115323-3.0906341-1.4006214-2.6378578-.9694888-5.6327745-.1273745-7.1268121,1.9200704-.6438381.8824164-.8156816,1.9116119-.9354683,2.9517537-.2314881,2.0088842-.1427365,4.0279683-.144167,6.0433207-.0060951,8.5328445.0085828,17.0656889-.0068414,25.5985334-.0093914,5.2026991-2.7492482,9.1207074-7.6141065,10.3996763-4.198257,1.103829-8.2662164.7037936-11.6684453-2.3835442-1.0201151-.9257038-1.1809503-2.2541795-.5817679-3.2040148.6453307-1.0229761,1.6353437-1.31131,2.8553521-.7811636,1.3346952.5796533,2.5496659,1.4513722,4.0349341,1.6603459,4.3913089.6182139,7.4715565-1.2894176,7.4624761-6.065462-.0097024-5.0842807-.0021768-10.1685613-.0021768-15.2530907Zm22.5346429-5.437297c2.739919.0313461,4.9438453,2.2524381,4.952677,4.9909888.008956,2.7992526-2.2373248,5.0422371-5.0311665,5.0240763-2.730963-.0176633-4.9527392-2.2427357-4.9678524-4.975067-.0152999-2.7644237,2.294606-5.0713442,5.046342-5.0399981Zm-39.0670135,10.0145676c-2.7854454-.017912-5.0059777-2.2997059-4.9603269-5.0967196.0444691-2.7273557,2.3051169-4.9379991,5.0279946-4.9168529,2.7128022.0208974,4.9547916,2.267116,4.9758133,4.9852669.0215193,2.7706431-2.2610209,5.0464664-5.043481,5.0283056Zm64.5116775,20.4448436c-2.5491061,9.1759362-8.3262341,15.0550633-17.6855199,17.2492872-.3545712.0830919-.7375031.0694091-1.106068.059458-.1905019-.0052243-.3421945-.1350866-.3469834-.3982939.053052-.4174499.347792-.7015546.7156728-.8978406.8188535-.4371033,1.6306169-.8978406,2.4829311-1.2603105,5.583081-2.3740906,9.7319555-6.3217036,12.7699109-11.5176856.7123765-1.2185158,1.4988266-2.3942417,2.2684843-3.578426.2174322-.3343579.4928919-.8326607.9221587-.6411015.4435094.1977787.0677299.6669744-.0205864.984913Z"/>
  <path class="cls-1" d="m233.2180219,48.0771926c1.6137933-1.2951395,1.5861167-3.0699233.4932961-4.2799806-1.0237224-1.1336824-2.9112028-1.2282181-4.4524461-.1410573-1.0217944.7207105-2.0009855,1.5105814-2.9382264,2.3385153-.5001375.4420789-.8752951.471186-1.517485.2457929-5.1766085-1.8170762-10.3455359-1.8093641-15.4922288.1903153-6.3648666,2.4728556-8.4722048,10.3489255-4.0953561,15.4844545.626548.7348909.7281117,1.1991111-.1395024,1.8081202-2.9963161,2.1029224-3.0227488,6.5632672-.8625452,9.0373667.5809283.6654818.6680006.8918699-.161115,1.4777427-4.6654314,3.2975554-3.9897497,9.24236,1.2558014,11.6211774,4.3785279,1.9857478,9.035532,2.0220694,13.6891464,1.8700659,4.1055871-.1340915,8.1495394-.7087692,11.6327145-3.1719224,2.7644237-1.9548993,3.9185681-4.6658357,3.5310027-8.0186199-.3782984-3.2724288-2.3256722-5.2579279-5.3319394-6.3052842-3.1913893-1.1117899-6.5179896-.7266812-9.3434883-.813256-2.5008742,0-4.5447118.0004976-6.5885182-.0002488-.8444777-.0002488-1.6762055-.0945357-2.4135842-.5383561-.9619321-.5791557-1.0879383-1.4747573-.7755039-2.4474802.3472944-1.0816877,1.1190356-.903065,2.0072671-.6970766,4.320376,1.0025763,8.6245814.9570498,12.8396931-.5256684,4.9588031-1.7441842,8.1215519-6.358274,6.8904106-11.0353047-.7197154-2.7343215-.3861349-4.3668042,1.7726071-6.0992958Zm-22.1148296,27.3546589c1.9297105.0731408,3.8642722.0191559,5.7967504.0191559.0000311.0164194.0000622.0328387.0000622.0492581,1.9318873,0,3.8637436-.002239,5.7956309.0009951.8470277.0012439,1.6608746.1838471,2.4041617.5836337,1.672536.8993333,1.8805146,3.1915759.3610083,4.2981415-.5758905.4194401-1.1926428.8045488-1.9249526.9911325-3.9147742.9973519-7.8625115,1.015264-11.7871125.2286272-2.784357-.5580096-3.9335881-2.4452412-3.0162494-4.5424417.4454374-1.0184981,1.111168-1.6762677,2.370701-1.6285023Zm13.0261835-19.2643909c-.2040603,2.1984532-1.8598038,3.9070621-4.3976838,4.4663155-.709018.1562327-1.4487289.1731496-2.2754812.2654464-2.0792262-.0781164-4.2133703-.3644601-5.7829121-2.0683422-2.1920161-2.3795638-1.2679293-6.3179719,1.8082135-7.7180958,2.5582487-1.1645309,5.1980345-1.0851706,7.7656435-.052741,1.9758278.7945977,3.0859384,2.9134418,2.8822202,5.107417Z"/>
  <path class="cls-1" d="m394.5825467,65.0015754c3.4557784.0629409,6.9134537.0243803,10.3703826.0243803,3.4569601-.0002488,6.9141378.0248778,10.3707869-.0084585,2.560581-.024629,3.7304606-1.0747219,3.9970576-3.6142501.2095335-1.9966941-.0771834-3.9824419-.7131228-5.8651955-2.0792884-6.1557685-6.4762881-9.5891568-12.8532516-10.3959446-6.8133826-.8622653-12.7322521.920977-16.7831079,6.7759726-3.16477,4.5740365-3.7027841,9.7675308-2.6365517,15.1588038.7533938,3.8097898,2.3982532,7.1613301,5.5566172,9.5043234,6.5264169,4.8417219,13.6096618,5.1128902,20.8913383,2.0034111,2.5423891-1.0856682,4.5591098-2.9661828,5.4997714-5.7010019.4545489-1.3217587.279409-2.6136641-.8571654-3.5702164-1.0991644-.9252062-2.3468183-.7284227-3.5165425-.1704131-.6962059.3321189-1.4043531.7699686-1.9172094,1.3334513-2.5878222,2.8420425-5.890913,3.4057739-9.4633683,3.0166848-4.711331-.5132295-8.2422404-3.5169778-8.8598634-7.3451772-.1322256-.8194755-.0740737-1.1642821.9142289-1.1463701Zm-.7355439-7.9046794c1.3206081-4.1152895,5.013752-6.3704641,9.8101963-5.9905797,4.1601006.3293824,7.0531427,2.657449,7.9733733,6.3251865.2750554,1.0963657.1882629,1.5784979-1.1501328,1.5232691-2.5596792-.105482-5.1267284-.0305997-7.6907613-.0305997-2.5639706,0-5.1280034.0057219-7.691974-.0019902-1.6588532-.0047268-1.7768363-.1858373-1.2507014-1.8252859Z"/>
  <path class="cls-1" d="m328.4087818,44.9493039c-10.2676061.0487605-17.5866305,7.5407169-17.4888918,17.9020813.0987961,10.4693342,7.4318764,17.7224634,17.8731919,17.6786785,10.9482945-.0462728,18.1294957-7.2257636,18.0866437-18.0826943-.0416082-10.5352604-7.4466165-17.5503089-18.4709438-17.4980655Zm.3065881,28.6107402c-5.9525789-.0569702-10.2422308-4.7250449-10.1235635-11.0161487.1173922-6.2256752,4.5061511-10.7519463,10.3454115-10.6696007,6.1292425.0865748,10.4328571,4.7123572,10.2701872,11.0390363-.1649711,6.4162393-4.391651,10.7051759-10.4920352,10.6467131Z"/>
  <path class="cls-1" d="m268.3265073,62.6849526c-1.3607858-1.2682714-3.0325755-1.9845039-4.8065509-2.5099235-3.0640771-.9077918-6.2945245-1.0866633-9.3190148-2.1499415-1.7699638-.6221943-2.6994304-1.8484222-2.6624557-3.4358761.0345491-1.4824695,1.0019543-2.7308386,2.8113495-3.1368447,3.0776977-.6906084,5.9973279-.3323677,8.576505,1.7265209,1.0966766.8754506,2.0314919,1.9762942,3.373837,2.5315673,1.1851795.4903419,2.3134198.5413414,3.3604652-.3368457,1.0540112-.883909,1.2382625-2.0317718.9178984-3.2714337-.2903864-1.1234825-.8440734-2.128049-1.6558368-2.9835973-2.2355212-2.3559298-5.1044939-3.4045301-8.2085309-3.860043-4.5408868-.6662281-9.0016981-.532883-12.9653262,2.1805412-5.0372927,3.4480662-5.3763463,10.8474771-.690826,14.722198,2.0690574,1.7110967,4.5990076,2.3763296,7.1675495,2.9415538,2.2385376.4925809,4.5629037.6587647,6.6882161,1.597405,1.8321584.8092756,2.7234375,2.2574136,2.513904,3.9135303-.2169968,1.7150771-1.3394842,2.8903055-3.3362404,3.2547656-3.8840501.7085204-7.3715788-.0952821-10.2412978-2.9505098-.7816923-.7776807-1.5672717-1.5493908-2.5519049-2.0638642-1.0939401-.5719411-2.2506344-.5796533-3.2889415.0445313-1.086259.6527941-1.4506259,1.7558767-1.3136112,2.9915582.1811416,1.6334778,1.0355705,2.956978,2.1443439,4.0879239,3.4622777,3.531407,7.8892241,4.4653204,11.3081211,4.5372173,4.0439834-.0024878,6.7112903-.3945623,9.2234528-1.5747662,6.3390247-2.9786217,7.9233067-11.626153,2.9548945-16.255667Z"/>
  <path class="cls-1" d="m168.8135367,61.9371252c-2.0818384-1.4931669-4.5666976-1.9956989-7.025124-2.5213673-2.2395949-.4791469-4.5569019-.621448-6.685635-1.5889465-1.4467698-.6575209-2.2051702-1.7404525-2.1265874-3.3231796.0810706-1.6319852,1.0942821-2.5721181,2.5772181-2.9768803,2.6145348-.7139935,5.1318906-.4960638,7.5503881.8505728,1.4403948.802061,2.4897414,2.0720739,3.843748,2.9602121,1.2787512.8386314,2.642398,1.0627806,3.9576574.1654375,1.3097863-.8933626,1.4129981-2.2613941,1.015917-3.6418645-.5771966-2.006894-1.9278758-3.4376176-3.7111181-4.4543742-4.910478-2.799999-10.1509292-3.1316203-15.4768357-1.6799994-5.828594,1.5886978-8.8844925,7.11655-7.054853,12.4879207,1.2596264,3.6978396,4.284894,5.3907754,7.797456,6.3299132,2.8769336.7689735,5.8264172,1.2700129,8.6954521,2.0643617,1.8057257.5000442,2.7285063,2.0479424,2.6469693,3.8127751-.0763749,1.6531313-1.1430116,2.9878265-2.9663072,3.3749254-3.5345789.7500664-6.853467.3012704-9.7039991-2.1404879-.9132027-.7821588-1.7945307-1.6021318-2.7165339-2.3735931-1.1588401-.9697375-2.9343081-1.1319409-4.0953872-.3326165-1.3004882.8951041-1.4641532,2.2069117-1.0994132,3.615494.3052509,1.1787112.9172142,2.1984532,1.7463299,3.1069913,3.5392435,3.877955,8.1929823,4.7205669,13.1115456,4.7591275.679942,0,1.3675339.0664238,2.038551-.0106975,4.44122-.5122344,8.3567095-1.9235533,10.5092009-6.2781674,2.1292307-4.3078438.9740601-9.4782017-2.8286396-12.2055574Z"/>
  <path class="cls-1" d="m300.4488144,71.1697828c-.7922343.4970589-1.5423628,1.0722342-2.3697059,1.4996352-3.2577198,1.6829847-5.9779853.1082185-6.0106064-3.5152364-.0457441-5.0788075.0220791-10.158859-.0382497-15.2374177-.0133096-1.1187557.4379119-1.2812079,1.3813722-1.2600617,2.251132.0502532,4.5041609.017912,6.7564435.0149267,1.0066189-.0012439,2.0253968-.0843358,2.8369736-.7229495,1.1058192-.8699775,1.6043397-2.0300303,1.2946419-3.4632417-.3133362-1.4501283-1.2407192-2.3517006-2.6659697-2.4974846-1.6606258-.169418-3.3453519-.0925455-5.0184788-.1532474-1.4547618-.052741-3.3249832.6055262-4.2514333-.2545001-.9457926-.8776896-.1979653-2.7711407-.3047222-4.2152983-.0462106-.6254285-.0172901-1.2595642-.104207-1.8782756-.2948955-2.0986931-1.8720251-3.4443346-3.8419755-3.3209406-2.1088619.1321012-3.5233217,1.6324827-3.5547299,3.8110337-.0226388,1.570537-.0480453,3.1433129.0122523,4.7118596.033554.8717189-.2112438,1.2045842-1.1326562,1.172243-1.3563078-.0475166-2.7263917-.0318436-4.0748008.1087161-1.7152015.1786228-2.9848412,1.6429314-2.9728687,3.2343657.0129676,1.720799,1.1762857,3.1124644,2.9500122,3.3144723,1.3460146.1534962,2.7158497.167179,4.0724374.1343402.8817633-.0211461,1.1765655.2440514,1.1598041,1.147614-.05243,2.8266182-.0192492,5.6549779-.018845,8.4825913.0004665,2.7228777-.0448734,5.4467505.0126255,8.1686331.0631586,2.9915582,1.026801,5.6701534,3.3850321,7.6096285,3.7002963,3.0430553,7.8389087,3.0082263,12.1115815,1.410075,2.1712431-.8120121,3.966489-2.1049126,4.9436588-4.2854538.6335138-1.4135579.5294934-2.8325889-.6538514-3.8889013-1.1896575-1.0620343-2.5752278-.960284-3.9037347-.1271257Z"/>
  <path class="cls-1" d="m373.5738783,44.9761719c-3.8729173-.3132118-7.049722,1.0448686-9.5686326,4.1682792-.1053576-.2873389-.1673967-.4074987-.1933318-.5348732-.5183294-2.5430111-1.8699416-3.637884-4.2021753-3.3988082-2.0099415.2059884-3.2907762,1.738711-3.2949432,4.0670265-.0161084,8.9567626-.0104798,17.9137739-.0027366,26.8705365.0012128,1.425748.4131584,2.690039,1.6674983,3.5269289,1.2426162.8289291,2.5594926.8393777,3.8689679.198525,1.4344553-.7018034,1.9545572-1.9700748,1.9578536-3.4843879.0104487-4.7665909.0039183-9.5331817.0041359-14.2995238.0000933-1.7894618.190191-3.5525531.8060104-5.2447426.6223809-1.7101015,1.547867-3.225161,3.2145879-4.0854361,2.340972-1.2080671,4.2070886-.7266812,6.5943956,1.555859,1.1690711,1.1180094,2.4607898,1.6349705,4.1291899,1.1030827,1.4685379-.4682006,2.0761165-1.5185423,2.312518-2.8716471.3034161-1.7369696-.1387872-3.3085017-1.2517899-4.6892208-1.554553-1.9287776-3.6610826-2.6890439-6.0415482-2.8815982Z"/>
  <path class="cls-1" d="m190.5004056,48.9598577c-.033554-2.3641395-1.4958724-3.7563025-3.6988347-3.7762047-2.0954279-.0189071-3.7422465,1.423509-3.753908,3.5804163-.0500977,9.2699743-.0413594,18.5404463-.0023634,27.8106694.0079298,1.8867341,1.2541532,3.3279064,2.8608874,3.6291768,2.5753211.4831273,4.564272-1.0727317,4.5985101-3.7480928.0583074-4.5556269.0160462-9.1127465.0154553-13.6693685-.0005908-4.6088655.0456819-9.2184773-.0197468-13.8265964Z"/>
  <path class="cls-1" d="m186.8469107,31.798638c-2.6373291-.0248778-4.7429569,2.036001-4.7252937,4.625036.0178809,2.6263518,2.0294084,4.5949339,4.7161822,4.6150849,2.5641572.0194047,4.6106691-1.9748016,4.6267464-4.5083591.0167614-2.6435175-1.9972849-4.7071329-4.6176349-4.7317619Z"/>
</svg>