<?xml version="1.0" encoding="UTF-8"?><svg id="Layer_1" xmlns="http://www.w3.org/2000/svg" viewBox="0 0 410 125"><defs><style>.cls-1{fill:#faf7ef;}.cls-2{fill:#a9cb38;}.cls-3{fill:#2e2f71;}</style></defs><g><path class="cls-1" d="M10.17489,75.31588c.23499-1.96826,.36011-3.94849,.40021-5.93164,.04211-2.08374-.65308-4.00537-1.30627-5.9397-1.11499-3.30103-2.44476-6.53149-3.33386-9.90649-.28468-1.08057-.51862-2.17017-.68524-3.27002,.08337,.55518,.17761,1.10864,.29352,1.65869,.11548,.54785,.24597,1.09326,.38916,1.63672,.88654,3.36523,2.21265,6.58691,3.32446,9.87842,.56982,1.68799,1.17188,3.36621,1.28534,5.15186,.01617,.25488,.02246,.51221,.01721,.77197-.0401,1.97705-.16473,3.95215-.39899,5.91504-.13177,1.10303-.20886,2.20215-.23407,3.29785-.02515,1.09521,.00153,2.18652,.07745,3.2749,.15186,2.17676,.50043,4.34033,1.02362,6.49463l.00397,.01318c-1.03851-4.30103-1.38263-8.63965-.85651-13.04541Z"/><path class="cls-1" d="M4.97127,46.92428c.00427,.5249,.03363,1.04614,.07404,1.56592-.04193-.52759-.0683-1.05737-.07312-1.58984,.00006,.00806-.00098,.01587-.00092,.02393Z"/><path class="cls-1" d="M19.58211,99.04611c.06165-.07227,.1355-.13403,.20081-.20386,.31671-.33789,.40204-.62378,.26959-.85791,.01617,.05664,.02625,.11475,.0191,.17676-.01324,.11523-.06641,.23975-.15985,.37305-.04669,.06689-.10345,.13574-.17023,.20703-.06488,.06934-.13892,.13135-.20001,.20361-1.26678,1.49121-2.14124,3.11377-2.37494,4.96436-.07788,.6167-.08459,1.25879-.01086,1.92969,.03461,.31421,.09509,.61597,.16956,.90991-.05939-.25562-.10565-.51831-.13544-.78906-.29584-2.69092,.69861-4.91943,2.39227-6.91357Z"/><path class="cls-1" d="M31.42599,112.52316c-.00745-.01465-.01843-.02612-.026-.04053,.09314,.18848,.18304,.37842,.27332,.5686,.10596,.22314,.21448,.44531,.32098,.66797,.41962,.87598,.81519,1.76514,1.2608,2.62646-.41492-.81665-.78888-1.65625-1.18494-2.48389-.21393-.44653-.42053-.89697-.64417-1.33862Z"/><path class="cls-1" d="M65.2178,106.56076c-.92627-.08594-1.85333-.11206-2.784-.13306-1.40619-.03223-2.80798-.24683-4.21448-.28564-2.74707-.07617-5.46112-.51245-8.18365-.79639-2.14691-.22412-4.32715-.67969-6.25031-1.83423-.12946-.07788-.27551-.1311-.41846-.18262-.37402-.13477-.58868-.00806-.6311,.39551-.05121,.48755,.02734,.95972,.25488,1.38599,.32281,.604,.63245,1.22681,1.04272,1.77002,.94116,1.24609,2.13226,2.11353,3.78162,2.08838,1.14105-.01709,2.2821-.06543,3.42169-.12769,.51154-.02808,1.02454-.073,1.52557-.21362,1.35864-.37988,2.74664-.6167,4.13995-.82568,.25128-.03784,.49182-.00049,.7381,.0271,1.24744,.13965,2.49585,.271,3.61761,.3916,1.55365-.03882,2.93573-.23242,4.14844-1.06738,.1532-.10522,.3996-.19263,.349-.40381-.06293-.26367-.34064-.17041-.5376-.18848Z"/><path class="cls-1" d="M102.50619,46.27853c-.7558-2.34155-1.58002-4.6521-2.70819-6.83667-1.9707-3.81665-4.69855-7.07568-7.73358-10.06934-2.21466-2.18457-4.64056-4.12891-7.34235-5.7085-2.11279-1.23535-4.3681-2.1189-6.65033-2.98682-2.30096-.875-4.63776-1.6145-6.98364-2.33911-1.44019-.44482-2.91016-.79175-4.40149-.98413-7.18561-.92725-14.04852,.20972-20.5896,3.31421l.49799,.22754c.1214,.22461,.3819,.53101,.23291,.71729-.32043,.40137,.00092,.29028,.17413,.2688,.18628-.02344,.36639-.09961,.54785-.15723,2.2265-.70605,4.42676-1.51392,6.75409-1.84229,1.26306-.17822,2.49323-.55884,3.76965-.63184,1.17761-.06689,2.36255-.02515,3.53784-.11426,3.58057-.27246,7.06195,.37842,10.52252,1.13501,1.55737,.34058,3.05499,.92041,4.54987,1.50464,3.6261,1.4165,7.02362,3.21924,10.14972,5.54565,2.31866,1.72534,4.39441,3.71436,6.42981,5.75244,.16913,.16943,.3421,.28003,.60693,.34937,.51038,.13403,1.11237,.13867,1.48431,.60352,1.51245,1.88989,2.56976,4.04248,3.53436,6.24097,.84076,1.91675,1.54736,3.88745,2.21228,5.87134,1.4552,4.34106,2.38715,8.78345,2.49152,13.37598,.02808,1.23486,.00439,2.47095,.00439,3.70654l.16797-.00195c.17969-1.61523,.41937-3.22729,.51886-4.8479,.0708-1.15479-.05475-2.32227-.10742-3.48145-.13342-2.94653-.76349-5.80249-1.67041-8.61182Z"/><path class="cls-1" d="M33.78579,97.96408c-1.06305-.53638-2.02057-1.20044-2.87323-2.04077-.75488-.74414-1.42065-.5332-1.79047,.47168-.21082,.57324-.04883,1.12524,.00793,1.68994,.15771,1.56885,1.02704,2.28223,2.57812,2.02295,1.44537-.2417,2.86664-.62109,4.32825-.78076,.19958-.02197,.41895-.05396,.64093-.25684-.46149-.32471-.91016-.54858-1.4267-.64429-.50537-.09351-.99677-.22559-1.46484-.46191Z"/><path class="cls-1" d="M62.77883,7.14474c.10828,.02759,.22681,.021,.34064,.02026,.66901-.00586,1.33099,.07593,1.99005,.17432,4.20477,.62695,8.35254,1.54199,12.45636,2.63013,2.85602,.75708,5.36298,2.26685,7.65631,4.10547,1.59821,1.28149,2.83496,2.92212,4.19958,4.43433,.1814,.20117,.33594,.54517,.68256,.36694,.33466-.17236,.23724-.52441,.20386-.82373-.01025-.09277-.0553-.1814-.0863-.27173-.74133-2.15625-1.79602-4.07568-3.59351-5.58984-2.00592-1.68994-4.18048-3.08398-6.61273-4.00439-3.88757-1.47144-7.97559-1.93799-12.104-2.09937-.40033,0-.80389-.03198-1.20074,.00562-1.32336,.12573-2.67352,.05127-3.9549,.49902-.12756,.04468-.35046,.0376-.33771,.23438,.01172,.18311,.19049,.27563,.36053,.3186Z"/><path class="cls-1" d="M25.58517,88.43161c-.71802-.9126-1.3736-1.88818-2.18158-2.71362-1.73132-1.76929-2.98273-3.84888-4.11938-6.01245-.3172-.60425-.73071-1.1626-.91425-1.83569-.74213-2.7207-1.45135-5.45679-1.62799-8.27808-.13873-2.21729-.6889-4.36035-1.01697-6.54028-.31885-2.1189-.711-4.22095-.85187-6.36621-.10889-1.6604-.08136-3.30981,.1015-4.95874,.17822-1.60815,.39026-3.21289,.82825-4.77612,.80011-2.85522,2.02161-5.53662,3.35577-8.17505,1.33191-2.63379,3.01782-5.02222,4.90118-7.28076,1.17047-1.40332,2.42157-2.73901,3.52777-4.19702,.35938-.47412,.65668-.97754,.93207-1.6582-.68243,.21167-1.24463,.37573-1.68713,.84424-2.19867,2.32812-4.35431,4.70093-6.6319,6.94971-2.65155,2.61841-4.29187,5.78906-5.44696,9.26294-1.06171,3.19287-1.52557,6.48682-1.50757,9.84058,.0155,2.89917,.45142,5.76636,.8194,8.6355,.23956,1.86768,.51434,3.7395,.67792,5.60669,.17706,2.01953,.43463,4.00879,.86688,5.98218,.7948,3.62793,2.07782,7.08301,3.80066,10.36572,.72546,1.38257,1.7124,2.58862,2.80884,3.72021,.68158,.70361,1.42523,1.31372,2.17468,1.92578,.27478,.22437,.62158,.36426,.94421,.52588,.13977,.06982,.30292,.06641,.43097-.04419,.14453-.125,.08618-.28149,.02722-.42212-.05829-.13892-.11969-.28369-.21173-.40088Z"/><path class="cls-1" d="M109.60061,39.311c-2.31897-4.22266-5.54999-7.66895-9.33087-10.61914-.13757-.10718-.26678-.29932-.57709-.20728,.36182,.21802,.55292,.50513,.76074,.77661,1.82819,2.3916,3.65063,4.78711,5.48456,7.17432,2.11188,2.74902,3.87762,5.67676,4.98486,8.99316,.99585,2.9834,1.55603,6.03247,1.72516,9.16284,.02869,.53247,.05182,1.06616,.04553,1.59912-.02063,1.72388,.10693,3.448-.22491,5.16699-.28064,1.45435-.57788,2.90356-.86316,4.3667,.03448-.04297,.08118-.08081,.10168-.12939,1.92975-4.58105,2.56622-9.31616,1.85394-14.25562-.6134-4.25342-1.89771-8.27271-3.96045-12.02832Z"/><path class="cls-1" d="M107.67757,44.62545c.74982,3.12622,1.41675,6.2644,1.6441,9.4707,.22742,3.20605-.10767,6.41943,.09485,9.63745,.95898-3.18042,1.12726-6.44897,.909-9.72534-.21924-3.29028-.88702-6.49365-2.64795-9.38281Z"/><path class="cls-1" d="M65.94387,100.84518c-3.45447,.19116-6.88989-.05835-10.30237-.66528-6.72742-1.19678-12.77258-3.88086-18.02332-8.26733-5.19714-4.3418-9.01892-9.73364-11.83246-15.8584-1.40295-3.05396-2.3476-6.26807-3.21765-9.52637,.07111,1.0415-.07654,2.08228-.01965,3.10107,.05853,1.04712,.44659,2.07544,.68744,3.11279,.28448,1.22461,.74207,2.38818,1.18909,3.56055,.98035,2.57031,2.17511,4.99854,3.87103,7.19849,1.47614,1.91479,2.92987,3.8313,4.60632,5.58521,1.97491,2.06616,4.17889,3.84375,6.50195,5.47949,.79364,.55884,1.4726,1.28442,2.3573,1.70361,1.44073,.68311,2.87341,1.39526,4.35815,1.96997,1.83887,.71167,3.68915,1.38721,5.62677,1.84082,1.68567,.39478,3.39801,.64282,5.07605,1.06104,.20087,.05005,.41644,.07153,.62335,.06299,1.10913-.04663,2.20526,.13159,3.30872,.17529,1.5929,.06274,3.1748,.29956,4.78278-.01392,.88116-.17163,1.8042-.21484,2.72339-.20312,.88983,.01099,1.79688-.05688,2.66998-.22656,3.18304-.61865,6.19263-1.73242,9.01935-3.32837,.18793-.1062,.39874-.19434,.56866-.46973-.80011,.05054-1.41687,.39038-2.04169,.67896-3.97876,1.83789-8.17767,2.78833-12.5332,3.02881Z"/><path class="cls-1" d="M103.24892,85.67575c-1.078,1.95068-2.04565,3.98511-3.43805,5.72656-2.43988,3.05151-4.58484,6.34131-7.34583,9.1355-1.01935,1.03149-2.09686,1.98291-3.28796,2.81714-.69781,.48877-1.3905,1.00513-1.96252,1.65088-.53729,.60742-.47522,.85791,.27893,1.17749,.10327,.0437,.21979,.08179,.32983,.08081,1.00818-.0083,2.01428,.0564,3.0235-.09351,1.5592-.23145,3.02466-.75708,4.46484-1.35278,1.22089-.50513,2.31018-1.28101,3.30518-2.1189,1.02075-.85962,1.80811-1.96265,2.34283-3.22876,.56335-1.33423,1.00537-2.70898,1.45636-4.08008,.5238-1.59229,.75604-3.25635,1.10535-4.89185,.31812-1.4895,.5575-2.99194,.70148-4.50439,.04095-.42969,.16357-.95288-.23926-1.38354-.35339,.32056-.5332,.70117-.73468,1.06543Z"/><path class="cls-2" d="M112.89236,45.79708c-1.22241-4.5835-3.5993-8.54663-6.71637-12.08179-2.4129-2.73682-5.10876-5.18408-7.8208-7.61816-2.5387-2.27856-4.57159-4.93945-5.87726-8.13403-.67694-1.65649-1.48566-3.25684-2.52881-4.72827-2.05353-2.89648-4.9126-4.74219-8.06195-6.20483-5.19702-2.41357-10.72125-3.2605-16.39093-3.37305-3.2041-.0564-6.36005,.36011-9.47327,1.0481-4.58215,1.01294-8.78796,2.98242-12.86987,5.24292-2.73553,1.51489-5.12677,3.49878-7.52728,5.47412-3.83075,3.15259-7.58459,6.39966-10.89465,10.09912-2.48676,2.7793-5.31024,5.05225-8.57452,6.84106-2.92621,1.60327-5.49115,3.69385-7.80585,6.1084-2.26746,2.36475-3.40643,5.14307-3.37952,8.41016l.00092,.01953c.00482,.53247,.03119,1.06226,.07312,1.58984,.0058,.073,.01349,.146,.02002,.21899,.04425,.49878,.10101,.99561,.17456,1.48999l.00983,.06885c.16663,1.09985,.40057,2.18945,.68524,3.27002,.8891,3.375,2.21887,6.60547,3.33386,9.90649,.6532,1.93433,1.34839,3.85596,1.30627,5.9397-.0401,1.98315-.16522,3.96338-.40021,5.93164-.52612,4.40576-.18201,8.74438,.85651,13.04541,.00476,.01978,.00836,.03955,.01312,.05908,.18994,.78174,.44739,1.5083,.74194,2.20508,.026,.06128,.0498,.12476,.0766,.18555,1.2074,2.73779,3.2298,4.81323,6.10333,6.20264,.47736,.23096,.99475,.37988,1.49591,.56055,.3056,.11035,.49854,.24829,.59021,.41016,.13245,.23413,.04712,.52002-.26959,.85791-.06531,.06982-.13916,.13159-.20081,.20386-1.69366,1.99414-2.68811,4.22266-2.39227,6.91357,.02979,.27075,.07605,.53345,.13544,.78906,.9162,3.94214,5.22864,6.03394,8.9682,4.11597,1.86041-.9541,4.14362-.22632,5.10651,1.61792,.00757,.0144,.01855,.02588,.026,.04053,.22363,.44165,.43024,.89209,.64417,1.33862,.39606,.82764,.77002,1.66724,1.18494,2.48389,.04462,.08765,.08868,.17578,.1344,.2627,.09918,.18921,.21344,.36987,.31921,.55518,.37,.64844,.77075,1.27979,1.27094,1.85645,1.62598,1.87476,3.68158,2.55908,6.10004,2.26123,1.65845-.20435,3.14307-.89746,4.5744-1.71118,2.78168-1.58179,5.20245-3.66162,7.69775-5.6355,.83551-.66064,1.73236-.89258,2.77167-.77661,1.69781,.18945,3.17981,.89551,4.56262,1.84521,2.28003,1.56567,4.7298,2.77148,7.38928,3.54272,4.86163,1.41064,9.77039,1.82544,14.73535,.61499,4.87994-1.18994,9.27557-3.40552,13.34021-6.33569,2.52966-1.82373,4.61011-4.02051,6.16852-6.73193,1.52905-2.66064,2.40875-5.54883,3.10468-8.50342,1.01746-4.31934,1.38776-8.72852,1.71362-13.13867,.27496-3.72217,.89099-7.37988,1.98114-10.94556,.86945-2.84399,2.11981-5.54834,3.23157-8.30249,.95624-2.36914,1.53479-4.81348,1.78503-7.35742,.40411-4.10767-.1911-8.10425-1.24316-12.04858ZM62.756,6.59176c1.28137-.44775,2.63153-.37329,3.9549-.49902,.39685-.0376,.80042-.00562,1.20074-.00562,4.12842,.16138,8.21643,.62793,12.104,2.09937,2.43225,.92041,4.60681,2.31445,6.61273,4.00439,1.79749,1.51416,2.85217,3.43359,3.59351,5.58984,.03101,.09033,.07605,.17896,.0863,.27173,.03339,.29932,.1308,.65137-.20386,.82373-.34662,.17822-.50116-.16577-.68256-.36694-1.36462-1.51221-2.60138-3.15283-4.19958-4.43433-2.29333-1.83862-4.80029-3.34839-7.65631-4.10547-4.10382-1.08813-8.25159-2.00317-12.45636-2.63013-.65906-.09839-1.32104-.18018-1.99005-.17432-.11383,.00073-.23236,.00732-.34064-.02026-.17004-.04297-.34882-.1355-.36053-.3186-.01276-.19678,.21014-.1897,.33771-.23438Zm-11.61469,63.60547c.63702-.23608,1.32257-.37158,2.04071-.37158,1.10205,0,2.13068,.30957,3.01398,.83813l20.77051-20.76807c-.43341-.82031-.68158-1.75317-.68158-2.74365,0-3.25073,2.64459-5.89526,5.89545-5.89526s5.89539,2.64453,5.89539,5.89526c0,3.25098-2.64459,5.89551-5.89539,5.89551-.8606,0-1.67627-.1897-2.41406-.52271l-21.08667,21.08545c.25287,.65649,.39728,1.36621,.39728,2.11084,0,3.25073-2.64459,5.89526-5.8949,5.89526-3.25079,0-5.89545-2.64453-5.89545-5.89526,0-1.13062,.3255-2.18408,.87946-3.08228l-5.31934-7.5022c-.52612,.15454-1.08099,.24121-1.65637,.24121-3.25085,0-5.89545-2.64453-5.89545-5.89551,0-3.25073,2.64459-5.89551,5.89545-5.89551s5.89539,2.64478,5.89539,5.89551c0,1.28027-.41461,2.46289-1.11035,3.43042l5.16595,7.28442Zm-25.37164,19.05737c-.12805,.1106-.2912,.11401-.43097,.04419-.32263-.16162-.66943-.30151-.94421-.52588-.74945-.61206-1.4931-1.22217-2.17468-1.92578-1.09644-1.13159-2.08337-2.33765-2.80884-3.72021-1.72284-3.28271-3.00586-6.73779-3.80066-10.36572-.43225-1.97339-.68982-3.96265-.86688-5.98218-.16357-1.86719-.43835-3.73901-.67792-5.60669-.36798-2.86914-.80389-5.73633-.8194-8.6355-.01801-3.35376,.44586-6.64771,1.50757-9.84058,1.15509-3.47388,2.79541-6.64453,5.44696-9.26294,2.27759-2.24878,4.43323-4.62158,6.6319-6.94971,.4425-.46851,1.0047-.63257,1.68713-.84424-.27539,.68066-.57269,1.18408-.93207,1.6582-1.1062,1.45801-2.3573,2.7937-3.52777,4.19702-1.88336,2.25854-3.56927,4.64697-4.90118,7.28076-1.33417,2.63843-2.55566,5.31982-3.35577,8.17505-.43799,1.56323-.65002,3.16797-.82825,4.77612-.18286,1.64893-.21039,3.29834-.1015,4.95874,.14087,2.14526,.53302,4.24731,.85187,6.36621,.32806,2.17993,.87823,4.323,1.01697,6.54028,.17664,2.82129,.88586,5.55737,1.62799,8.27808,.18353,.6731,.59705,1.23145,.91425,1.83569,1.13666,2.16357,2.38806,4.24316,4.11938,6.01245,.80798,.82544,1.46356,1.80103,2.18158,2.71362,.09204,.11719,.15344,.26196,.21173,.40088,.05896,.14062,.11731,.29712-.02722,.42212Zm10.26672,10.07251c-1.46161,.15967-2.88287,.53906-4.32825,.78076-1.55109,.25928-2.42041-.4541-2.57812-2.02295-.05676-.5647-.21875-1.1167-.00793-1.68994,.36981-1.00488,1.03558-1.21582,1.79047-.47168,.85266,.84033,1.81018,1.50439,2.87323,2.04077,.46808,.23633,.95947,.36841,1.46484,.46191,.51654,.0957,.96521,.31958,1.4267,.64429-.22198,.20288-.44135,.23486-.64093,.25684Zm29.37,7.82593c-1.21271,.83496-2.59479,1.02856-4.14844,1.06738-1.12177-.12061-2.37018-.25195-3.61761-.3916-.24628-.02759-.48682-.06494-.7381-.0271-1.39331,.20898-2.78131,.4458-4.13995,.82568-.50104,.14062-1.01404,.18555-1.52557,.21362-1.13959,.06226-2.28064,.1106-3.42169,.12769-1.64935,.02515-2.84045-.84229-3.78162-2.08838-.41028-.54321-.71991-1.16602-1.04272-1.77002-.22754-.42627-.30609-.89844-.25488-1.38599,.04242-.40356,.25708-.53027,.6311-.39551,.14294,.05151,.289,.10474,.41846,.18262,1.92316,1.15454,4.10339,1.61011,6.25031,1.83423,2.72253,.28394,5.43658,.72021,8.18365,.79639,1.40649,.03882,2.80829,.25342,4.21448,.28564,.93066,.021,1.85773,.04712,2.784,.13306,.19696,.01807,.47467-.0752,.5376,.18848,.0506,.21118-.1958,.29858-.349,.40381Zm14.5437-9.5459c-2.82672,1.59595-5.8363,2.70972-9.01935,3.32837-.87311,.16968-1.78015,.23755-2.66998,.22656-.91919-.01172-1.84222,.03149-2.72339,.20312-1.60797,.31348-3.18988,.07666-4.78278,.01392-1.10345-.0437-2.19958-.22192-3.30872-.17529-.20691,.00854-.42249-.01294-.62335-.06299-1.67804-.41821-3.39038-.66626-5.07605-1.06104-1.93762-.45361-3.7879-1.12915-5.62677-1.84082-1.48474-.57471-2.91742-1.28687-4.35815-1.96997-.8847-.41919-1.56366-1.14478-2.3573-1.70361-2.32306-1.63574-4.52704-3.41333-6.50195-5.47949-1.67645-1.75391-3.13019-3.67041-4.60632-5.58521-1.69592-2.19995-2.89069-4.62817-3.87103-7.19849-.44702-1.17236-.9046-2.33594-1.18909-3.56055-.24084-1.03735-.62891-2.06567-.68744-3.11279-.05688-1.0188,.09076-2.05957,.01965-3.10107,.87006,3.2583,1.8147,6.47241,3.21765,9.52637,2.81354,6.12476,6.63531,11.5166,11.83246,15.8584,5.25073,4.38647,11.2959,7.07056,18.02332,8.26733,3.41248,.60693,6.8479,.85645,10.30237,.66528,4.35553-.24048,8.55444-1.19092,12.5332-3.02881,.62482-.28857,1.24158-.62842,2.04169-.67896-.16992,.27539-.38074,.36353-.56866,.46973Zm24.27277-11.61328c-.14398,1.51245-.38336,3.01489-.70148,4.50439-.3493,1.6355-.58154,3.29956-1.10535,4.89185-.45099,1.37109-.89301,2.74585-1.45636,4.08008-.53473,1.26611-1.32208,2.36914-2.34283,3.22876-.995,.83789-2.08429,1.61377-3.30518,2.1189-1.44019,.5957-2.90564,1.12134-4.46484,1.35278-1.00922,.1499-2.01532,.08521-3.0235,.09351-.11005,.00098-.22656-.03711-.32983-.08081-.75415-.31958-.81622-.57007-.27893-1.17749,.57202-.64575,1.26471-1.16211,1.96252-1.65088,1.1911-.83423,2.26862-1.78564,3.28796-2.81714,2.76099-2.79419,4.90594-6.08398,7.34583-9.1355,1.3924-1.74146,2.36005-3.77588,3.43805-5.72656,.20148-.36426,.38129-.74487,.73468-1.06543,.40283,.43066,.28021,.95386,.23926,1.38354Zm.06116-27.62207c-.09949,1.62061-.33917,3.23267-.51886,4.8479l-.16797,.00195c0-1.2356,.02368-2.47168-.00439-3.70654-.10437-4.59253-1.03632-9.03491-2.49152-13.37598-.66492-1.98389-1.37152-3.95459-2.21228-5.87134-.9646-2.19849-2.02191-4.35107-3.53436-6.24097-.37195-.46484-.97394-.46948-1.48431-.60352-.26483-.06934-.43781-.17993-.60693-.34937-2.0354-2.03809-4.11115-4.0271-6.42981-5.75244-3.1261-2.32642-6.52362-4.12915-10.14972-5.54565-1.49487-.58423-2.99249-1.16406-4.54987-1.50464-3.46057-.75659-6.94196-1.40747-10.52252-1.13501-1.17529,.08911-2.36023,.04736-3.53784,.11426-1.27643,.073-2.50659,.45361-3.76965,.63184-2.32733,.32837-4.52759,1.13623-6.75409,1.84229-.18146,.05762-.36157,.13379-.54785,.15723-.17322,.02148-.49457,.13257-.17413-.2688,.14899-.18628-.11151-.49268-.23291-.71729l-.49799-.22754c6.54108-3.10449,13.40399-4.24146,20.5896-3.31421,1.49133,.19238,2.9613,.53931,4.40149,.98413,2.34589,.72461,4.68268,1.46411,6.98364,2.33911,2.28223,.86792,4.53754,1.75146,6.65033,2.98682,2.70178,1.57959,5.12769,3.52393,7.34235,5.7085,3.03503,2.99365,5.76288,6.25269,7.73358,10.06934,1.12817,2.18457,1.95239,4.49512,2.70819,6.83667,.90692,2.80933,1.53699,5.66528,1.67041,8.61182,.05267,1.15918,.17822,2.32666,.10742,3.48145Zm5.13251,5.36182c-.20251-3.21802,.13257-6.4314-.09485-9.63745-.22736-3.2063-.89429-6.34448-1.6441-9.4707,1.76093,2.88916,2.42871,6.09253,2.64795,9.38281,.21826,3.27637,.04999,6.54492-.909,9.72534Zm2.29059,1.86133c-.02051,.04858-.0672,.08643-.10168,.12939,.28528-1.46313,.58252-2.91235,.86316-4.3667,.33185-1.71899,.20428-3.44312,.22491-5.16699,.00629-.53296-.01685-1.06665-.04553-1.59912-.16913-3.13037-.72931-6.17944-1.72516-9.16284-1.10724-3.31641-2.87299-6.24414-4.98486-8.99316-1.83392-2.38721-3.65637-4.78271-5.48456-7.17432-.20782-.27148-.39893-.55859-.76074-.77661,.3103-.09204,.43951,.1001,.57709,.20728,3.78088,2.9502,7.0119,6.39648,9.33087,10.61914,2.06274,3.75562,3.34705,7.7749,3.96045,12.02832,.71228,4.93945,.07581,9.67456-1.85394,14.25562Z"/><path class="cls-1" d="M41.19033,53.58688c-3.25085,0-5.89545,2.64478-5.89545,5.89551,0,3.25098,2.64459,5.89551,5.89545,5.89551,.57538,0,1.13025-.08667,1.65637-.24121l5.31934,7.5022c-.55396,.89819-.87946,1.95166-.87946,3.08228,0,3.25073,2.64465,5.89526,5.89545,5.89526,3.25031,0,5.8949-2.64453,5.8949-5.89526,0-.74463-.14441-1.45435-.39728-2.11084l21.08667-21.08545c.73779,.33301,1.55347,.52271,2.41406,.52271,3.25079,0,5.89539-2.64453,5.89539-5.89551,0-3.25073-2.64459-5.89526-5.89539-5.89526s-5.89545,2.64453-5.89545,5.89526c0,.99048,.24817,1.92334,.68158,2.74365l-20.77051,20.76807c-.8833-.52856-1.91193-.83813-3.01398-.83813-.71814,0-1.40369,.1355-2.04071,.37158l-5.16595-7.28442c.69574-.96753,1.11035-2.15015,1.11035-3.43042,0-3.25073-2.64459-5.89551-5.89539-5.89551Z"/></g><g><g><path class="cls-3" d="M168.60283,15.724c-2.85864,1.11032-3.80526,4.64751-1.83943,6.95424,.28133,.33039,.32714,.53864-.06257,.81196-1.34559,.94462-1.35761,2.94799-.38746,4.05881,.26081,.29885,.30011,.40047-.07234,.66379-2.09523,1.48125-1.79187,4.15092,.56392,5.21918,1.96658,.89206,4.05831,.90808,6.14828,.84,1.84368-.06007,3.65984-.31838,5.22444-1.42469,1.24147-.87804,1.75983-2.09548,1.58563-3.60127-.1697-1.46974-1.04424-2.3613-2.39434-2.83185-1.43345-.49909-2.92747-.32589-4.19647-.36493h-2.95901c-.37945-.0005-.75289-.04255-1.08403-.24229-.43201-.25981-.48858-.66178-.34816-1.0993,.15568-.48558,.5026-.40548,.90132-.31237,1.94055,.45003,3.87334,.42951,5.76658-.23628,2.22714-.78343,3.64757-2.85588,3.09467-4.95637-.32338-1.22795-.17346-1.96082,.79594-2.73924,.72486-.58169,.71234-1.37863,.22176-1.92228-.46004-.5091-1.30755-.55165-1.99987-.06358-.45879,.32388-.89856,.6788-1.31956,1.05074-.22477,.19823-.39297,.21125-.68131,.11013-2.32525-.81597-4.6465-.81246-6.95799,.0856Zm.8047,13.02493c.86703,.03254,1.73556,.00851,2.60358,.00851v.02203h0c.86753,0,1.73531-.001,2.60308,.0005,.38045,.0005,.74588,.0826,1.07978,.26231,.75089,.40398,.8445,1.4332,.16219,1.93029-.25881,.18822-.53563,.36143-.86477,.44503-1.75808,.44803-3.53118,.45604-5.29377,.10262-1.25048-.2503-1.76659-1.0978-1.3546-2.03992,.19999-.45754,.49884-.75289,1.06451-.73137Zm4.5559-10.94597c.88755,.35692,1.38614,1.30855,1.29453,2.29422-.09161,.98717-.83524,1.75458-1.97484,2.00538-.31863,.07008-.65077,.07809-1.02221,.11914-.93361-.03504-1.89224-.16319-2.59708-.9286-.98467-1.06877-.56967-2.83786,.81196-3.46661,1.14886-.52262,2.33477-.48708,3.48763-.02353Z"/><path class="cls-3" d="M248.10751,24.99648c.3384,1.71103,1.07703,3.21631,2.49571,4.26856,2.93097,2.17458,6.11224,2.29622,9.38261,.90007,1.14185-.48758,2.04768-1.33258,2.46993-2.56103,.20424-.5932,.12565-1.17339-.38496-1.6029-.49358-.41549-1.05375-.32739-1.57937-.07709-.31237,.14918-.6305,.34641-.86102,.59921-1.16213,1.27651-2.64563,1.52931-4.25003,1.35511-2.11601-.23077-3.70189-1.57987-3.97921-3.29891-.05932-.36844-.03304-.52312,.41049-.51511,1.55234,.02853,3.10518,.01101,4.65777,.01101s3.10518,.01101,4.65777-.0035c1.14986-.01151,1.67548-.48307,1.79513-1.62342,.09411-.89706-.03479-1.78862-.32038-2.63462-.93386-2.76427-2.90845-4.3061-5.77259-4.66853-3.05987-.38746-5.71827,.41349-7.53768,3.0431-1.42118,2.05443-1.66297,4.3867-1.18415,6.80807Zm3.374-4.48231c.59295-1.84819,2.25192-2.86089,4.40597-2.69069,1.86821,.14818,3.16775,1.19391,3.58099,2.84087,.1234,.49258,.08435,.70934-.51661,.68431-1.14961-.04706-2.30248-.01352-3.45409-.01352s-2.30298,.0025-3.45459-.001c-.74513-.0025-.79795-.0836-.56167-.81997Z"/><path class="cls-3" d="M222.09194,15.05871c-4.61146,.02153-7.89836,3.38651-7.85455,8.04002,.0443,4.70207,3.3377,7.95943,8.02726,7.93991,4.91682-.02052,8.14215-3.24534,8.12287-8.12112-.01877-4.73161-3.34421-7.88234-8.29558-7.85881Zm.13766,12.84972c-2.67342-.02603-4.59995-2.12251-4.54664-4.94786,.05281-2.79631,2.02365-4.82872,4.64625-4.79168,2.75276,.03855,4.68555,2.11651,4.61246,4.95787-.07409,2.88141-1.97234,4.8077-4.71208,4.78166Z"/><path class="cls-3" d="M184.55948,28.99422c1.55509,1.58588,3.5432,2.00538,5.07877,2.03791,1.8164-.001,3.01432-.17721,4.14241-.70734,2.84712-1.33809,3.55847-5.22169,1.32732-7.30115-.61122-.56917-1.36211-.89106-2.15906-1.12683-1.37613-.40798-2.82685-.48808-4.18521-.96564-.79494-.27933-1.21219-.82998-1.19567-1.54283,.01552-.66579,.45003-1.22695,1.2625-1.40917,1.38239-.30987,2.69369-.14918,3.85206,.77542,.49258,.39347,.91233,.88755,1.5153,1.13735,.53213,.21976,1.03873,.24279,1.50929-.15168,.47306-.39697,.55591-.91258,.41199-1.46924-.1304-.5046-.37895-.95563-.74363-1.34009-1.00394-1.05775-2.29247-1.52881-3.68662-1.73355-2.03942-.29935-4.04279-.23928-5.8229,.97916-2.26243,1.54883-2.41461,4.87177-.31037,6.61233,.92935,.76841,2.06545,1.06726,3.21931,1.32106,1.00519,.22126,2.04918,.29585,3.00356,.71735,.82297,.36343,1.2232,1.0137,1.12909,1.75758-.09737,.77041-.60146,1.29804-1.49827,1.46173-1.74432,.31838-3.31067-.04255-4.5997-1.32507-.35092-.34941-.70383-.69582-1.14586-.9266-.49158-.2573-1.01095-.26031-1.47725,.02002-.48808,.29285-.65152,.78843-.5902,1.34359,.0816,.73337,.4653,1.32757,.96314,1.83567Z"/><path class="cls-3" d="M147.28783,28.01456c-1.58738,.3369-3.0779,.13516-4.35816-.96114-.40999-.35142-.80595-.71985-1.21995-1.06626-.52062-.43552-1.31781-.5086-1.83918-.14918-.58419,.40148-.65778,.99067-.49409,1.62342,.13716,.52963,.41199,.98767,.78443,1.39565,1.58963,1.74156,3.67986,2.12001,5.88873,2.13703,.30536,0,.61398,.03004,.91533-.00451,1.99486-.22977,3.75345-.86402,4.72009-2.81984,.95613-1.93429,.43752-4.25704-1.27051-5.48149-.93486-.67079-2.05093-.89656-3.15499-1.13234-1.00594-.21525-2.04667-.27933-3.00281-.71385-.64977-.29535-.99017-.78193-.95513-1.49277,.03654-.73287,.49158-1.15487,1.15762-1.33658,1.17414-.32088,2.30498-.22276,3.39102,.38195,.64702,.35993,1.11807,.9306,1.7263,1.32958,.57418,.37645,1.18691,.47707,1.77761,.07409,.5882-.40098,.6345-1.0157,.45604-1.63544-.25906-.90157-.86578-1.54383-1.66647-2.00037-2.20561-1.25749-4.55915-1.40667-6.95123-.75489-2.6176,.71385-3.99023,3.19629-3.16825,5.60864,.56567,1.66097,1.92428,2.42087,3.5019,2.84287,1.29228,.34541,2.61685,.57018,3.90538,.9271,.81096,.22477,1.22545,.91959,1.18891,1.71253-.03454,.74238-.51361,1.34159-1.33258,1.5158Z"/><path class="cls-3" d="M200.05433,18.45824c.60447,.06858,1.21969,.07509,1.82892,.06007,.39597-.00951,.52838,.10963,.52087,.51561-.02353,1.2695-.00851,2.53951-.00851,3.80951,.00025,1.22295-.02002,2.4464,.00576,3.66835,.02828,1.34359,.4613,2.54702,1.5203,3.41805,1.66172,1.36662,3.52042,1.3511,5.43969,.63325,.97516-.36493,1.78111-.94562,2.22013-1.92478,.28434-.63475,.23778-1.27201-.29385-1.74657-.53413-.47707-1.15637-.43101-1.75308-.05707-.35592,.22326-.69282,.48157-1.06426,.6733-1.46323,.7559-2.68468,.04906-2.69945-1.57837-.02052-2.2812,.00976-4.56291-.01727-6.84361-.00601-.5026,.19673-.57568,.62049-.56567,1.01095,.02203,2.0229,.00801,3.03434,.00651,.45204-.0005,.90958-.03805,1.27426-.32488,.49659-.39046,.7206-.91158,.58144-1.55534-.14067-.65127-.55716-1.05625-1.19742-1.12133-.74588-.07659-1.50228-.04155-2.25392-.06908-.65327-.02353-1.49327,.27182-1.90951-.11414-.4245-.39447-.0886-1.24497-.13666-1.89324-.02077-.28083-.00776-.56567-.04681-.8435-.13241-.94262-.84075-1.54683-1.72554-1.49177-.94712,.05957-1.58237,.73337-1.59664,1.71153-.01001,.70534-.02153,1.41217,.00551,2.11651,.01527,.39146-.09461,.54114-.5086,.52612-.60922-.02102-1.22445-.01402-1.83017,.04906-.77016,.08009-1.34034,.73787-1.33508,1.45272,.00601,.77292,.52838,1.39766,1.32507,1.48876Z"/><path class="cls-3" d="M235.37267,30.65469c.55816,.37244,1.14961,.37695,1.73756,.08911,.64426-.31537,.87804-.88505,.87954-1.56485,.00451-2.14054,.0015-4.28157,.00175-6.42211,0-.80395,.08535-1.59539,.36218-2.35579,.27933-.76791,.69482-1.44822,1.44371-1.83467,1.05125-.54264,1.88924-.32639,2.96151,.69883,.52512,.50209,1.10531,.73387,1.8547,.49559,.65928-.21075,.9321-.68231,1.03823-1.29003,.13641-.77992-.06207-1.48576-.56217-2.10599-.69808-.86603-1.64395-1.20743-2.71321-1.29403-1.73956-.14067-3.16625,.46906-4.29759,1.87172-.04706-.12915-.07509-.18272-.0866-.23978-.23278-1.14235-.84-1.63394-1.88724-1.52681-.90282,.09261-1.47825,.78093-1.48,1.82666-.00726,4.02277-.00476,8.04553-.00125,12.0683,.0005,.64026,.18572,1.20793,.74889,1.58388Z"/><path class="cls-3" d="M158.49335,15.16384c-.94111-.00851-1.68074,.63926-1.68575,1.6079-.02253,4.16343-.01877,8.32686-.00125,12.4903,.00375,.8475,.56342,1.49477,1.28477,1.62993,1.15687,.21726,2.04993-.48157,2.06545-1.68299,.02603-2.04642,.00701-4.09285,.00701-6.13927-.0005-2.06995,.02052-4.1404-.00901-6.20986-.01502-1.06176-.6718-1.687-1.66122-1.69601Z"/><path class="cls-3" d="M158.51362,9.15222c-1.1844-.01101-2.13002,.91458-2.12201,2.07746,.00801,1.1794,.91133,2.06344,2.11801,2.07246,1.15161,.00901,2.07095-.88705,2.07796-2.0244,.00751-1.18741-.89706-2.1145-2.07396-2.12552Z"/></g><g><path class="cls-3" d="M137.39053,99.01657c0-3.22461,1.9707-5.66113,4.87256-7.02246-1.7915-1.43359-2.83057-3.47559-2.83057-5.91211,0-2.75781,1.21826-4.9082,3.97705-6.5918-2.40039-2.11426-3.72607-5.01562-3.72607-8.45508,0-7.66699,6.55664-12.54004,16.80322-12.54004,3.8335,0,7.16553,.68066,9.78076,1.93457l3.54688-2.97363c1.00342-.82422,2.22168-1.36133,3.36816-1.36133,1.89893,0,3.33203,1.50488,3.33203,3.15332,0,1.25391-.7168,2.50781-1.93506,3.61816l-2.79443,2.43652c.96729,1.64746,1.46875,3.58203,1.46875,5.73242,0,7.70312-6.48438,12.53906-16.76709,12.53906-2.97363,0-5.66064-.39355-7.91797-1.18164-.78809,.57324-1.18213,1.21777-1.18213,2.04199,0,1.6123,1.28955,2.65137,3.51074,2.65137h12.68311c8.20459,0,12.68311,3.43945,12.68311,9.67285,0,7.55957-7.34473,11.78809-20.42188,11.78809-11.93066,0-18.45117-3.26074-18.45117-9.53027Zm18.84521,2.90137c7.2373,0,10.99951-1.57617,10.99951-4.37109,0-2.25684-1.75586-3.40332-5.37451-3.40332h-12.21729c-.53711,0-1.03906-.03613-1.54053-.07129-1.32568,.89551-2.00635,2.04199-2.00635,3.51074,0,2.93848,3.26025,4.33496,10.13916,4.33496Zm.3584-24.79199c4.87256,0,7.91797-2.36523,7.91797-6.16309,0-3.83301-3.04541-6.19824-7.91797-6.19824-4.94434,0-8.06104,2.40137-8.06104,6.19824,0,3.79785,3.1167,6.16309,8.06104,6.16309Z"/><path class="cls-3" d="M192.4872,43.19723c3.15234,0,5.40967,2.32812,5.40967,5.37402,0,3.08105-2.25732,5.40918-5.40967,5.40918-3.15332,0-5.48193-2.32812-5.48193-5.40918,0-3.0459,2.32861-5.37402,5.48193-5.37402Zm-4.44287,52.05664v-31.95801c0-2.68652,1.82715-4.5498,4.40674-4.5498,2.54395,0,4.33496,1.86328,4.33496,4.5498v31.95801c0,2.65137-1.79102,4.55078-4.33496,4.55078-2.57959,0-4.40674-1.89941-4.40674-4.55078Z"/><path class="cls-3" d="M215.31631,87.76657v-20.27832h-5.37451c-2.40039,0-4.12012-1.64844-4.12012-3.97754,0-2.29297,1.71973-3.94043,4.12012-3.94043h5.37451v-6.77148c0-2.65137,1.82715-4.51465,4.40674-4.51465,2.54346,0,4.33496,1.86328,4.33496,4.51465v6.77148h10.39014c2.36475,0,4.08447,1.64746,4.08447,3.94043,0,2.3291-1.71973,3.97754-4.08447,3.97754h-10.39014v19.05957c0,3.4043,1.75537,5.12402,4.44287,5.12402,1.79102,0,3.15283-.89551,4.5498-2.00684,.82422-.64453,1.82715-1.29004,3.15283-1.29004,2.00635,0,3.43945,1.46973,3.43945,3.54785,0,1.6123-.78809,3.18848-2.32861,4.58594-2.25732,2.07715-6.01904,3.54688-9.88867,3.54688-6.9502,0-12.10938-4.69336-12.10938-12.28906Z"/><path class="cls-3" d="M251.28457,95.14645c-1.75537-1.61133-2.97363-3.86914-2.97363-5.69629,0-2.07812,1.39697-3.54688,3.58252-3.54688,1.46924,0,2.5083,.60938,4.26367,2.43652,2.79443,3.00977,5.91162,4.26367,9.78076,4.26367,4.15625,0,6.66406-1.6123,6.66406-4.55078,0-2.54297-1.68408-4.22754-5.12354-4.87207l-6.16211-1.25391c-7.70312-1.54102-11.67969-5.51758-11.67969-11.39355,0-7.48828,5.98291-12.03809,15.37012-12.03809,5.05176,0,9.56592,1.25391,12.50391,3.51074,2.18506,1.64844,3.58252,3.90527,3.58252,6.05566,0,2.00586-1.50488,3.47461-3.4751,3.47461-1.54102,0-2.83057-.93066-4.58594-2.54297-2.29297-2.36523-5.15918-3.29688-8.20459-3.29688-3.76221,0-6.1626,1.57715-6.1626,4.19238,0,2.40039,1.82715,3.94043,5.4458,4.58594l6.48486,1.28906c7.4165,1.50488,11.0708,5.30273,11.0708,11.42969,0,8.06055-6.09082,12.8623-16.05078,12.8623-6.09082,0-11.4292-1.89941-14.33105-4.90918Z"/><path class="cls-3" d="M298.31533,43.19723c3.15332,0,5.41016,2.32812,5.41016,5.37402,0,3.08105-2.25684,5.40918-5.41016,5.40918-3.15234,0-5.48145-2.32812-5.48145-5.40918,0-3.0459,2.3291-5.37402,5.48145-5.37402Zm-4.44238,52.05664v-31.95801c0-2.68652,1.82715-4.5498,4.40674-4.5498,2.54395,0,4.33545,1.86328,4.33545,4.5498v31.95801c0,2.65137-1.7915,4.55078-4.33545,4.55078-2.57959,0-4.40674-1.89941-4.40674-4.55078Z"/><path class="cls-3" d="M314.52871,99.01657c0-3.22461,1.9707-5.66113,4.87256-7.02246-1.7915-1.43359-2.83008-3.47559-2.83008-5.91211,0-2.75781,1.21777-4.9082,3.97656-6.5918-2.40039-2.11426-3.72607-5.01562-3.72607-8.45508,0-7.66699,6.55664-12.54004,16.80322-12.54004,3.8335,0,7.16553,.68066,9.78076,1.93457l3.54736-2.97363c1.00293-.82422,2.22119-1.36133,3.36768-1.36133,1.89893,0,3.33203,1.50488,3.33203,3.15332,0,1.25391-.7168,2.50781-1.93506,3.61816l-2.79443,2.43652c.96729,1.64746,1.46924,3.58203,1.46924,5.73242,0,7.70312-6.48486,12.53906-16.76758,12.53906-2.97363,0-5.66064-.39355-7.91797-1.18164-.78809,.57324-1.18213,1.21777-1.18213,2.04199,0,1.6123,1.28955,2.65137,3.51123,2.65137h12.68262c8.20459,0,12.68311,3.43945,12.68311,9.67285,0,7.55957-7.34473,11.78809-20.42188,11.78809-11.93066,0-18.45117-3.26074-18.45117-9.53027Zm18.84521,2.90137c7.2373,0,10.99902-1.57617,10.99902-4.37109,0-2.25684-1.75537-3.40332-5.37402-3.40332h-12.21729c-.53711,0-1.03857-.03613-1.54053-.07129-1.32568,.89551-2.00635,2.04199-2.00635,3.51074,0,2.93848,3.26025,4.33496,10.13916,4.33496Zm.3584-24.79199c4.87256,0,7.91795-2.36523,7.91795-6.16309,0-3.83301-3.04539-6.19824-7.91795-6.19824-4.94434,0-8.06104,2.40137-8.06104,6.19824,0,3.79785,3.1167,6.16309,8.06104,6.16309Z"/><path class="cls-3" d="M365.39053,95.25387v-31.95801c0-2.68652,1.82715-4.5498,4.40674-4.5498,2.54395,0,4.33496,1.86328,4.33496,4.5498v.78809c2.43652-3.61816,6.87891-5.58887,12.28906-5.58887,9.70947,0,16.08643,6.05469,16.08643,16.83887v19.91992c0,2.61621-1.82715,4.55078-4.37061,4.55078-2.57959,0-4.37109-1.9707-4.37109-4.55078v-18.37891c0-6.98633-3.54688-10.35449-9.2793-10.35449-6.41309,0-10.35449,4.40723-10.35449,10.96387v17.76953c0,2.65137-1.79102,4.55078-4.33496,4.55078-2.57959,0-4.40674-1.89941-4.40674-4.55078Z"/></g></g></svg>