<?xml version="1.0" encoding="UTF-8"?><svg id="Layer_1" xmlns="http://www.w3.org/2000/svg" viewBox="0 0 363.99999 125"><defs><style>.cls-1{fill:#faf7ef;}.cls-2{fill:#42bfb9;}.cls-3{fill:#2e2f71;}</style></defs><g><path class="cls-1" d="M20.01999,97.90983l-.01654-.02588c.00507,.00879,.01215,.01709,.01654,.02588Z"/><path class="cls-1" d="M51.41061,67.62272l3.22131,1.64453,.33142,.64893v16.354c0,.7832,.41931,1.50391,1.09723,1.89307,.67792,.39404,1.51404,.38916,2.18689-.00488l4.09009-2.3877,4.09003,2.3877c.33899,.19824,.71808,.2959,1.09973,.2959,.37659,0,.75073-.09521,1.08716-.29102,.67792-.38916,1.09723-1.10986,1.09723-1.89307v-16.35449l.33142-.64844,3.22131-1.64453c.9541-.4873,1.41357-1.59961,1.08466-2.61914l-1.11481-3.44189,1.11481-3.44238c.32892-1.01953-.13055-2.13184-1.08466-2.61865l-3.22131-1.64453-1.64709-3.22168c-.48706-.9541-1.60687-1.40576-2.61871-1.08447l-3.43976,1.11475-3.44232-1.11475c-1.02435-.32129-2.13165,.13037-2.61871,1.08447l-1.64459,3.22168-3.22131,1.64453c-.9541,.48682-1.41357,1.59668-1.08466,2.61865l1.11481,3.44238-1.11481,3.44189c-.32892,1.02197,.13055,2.13184,1.08466,2.61914Zm13.93231,14.84326l-1.9057-1.11182c-.33893-.19873-.72058-.29639-1.09967-.29639-.37915,0-.7608,.09766-1.09973,.29639l-1.9057,1.11182v-9.03467l3.00543-.97314,3.00537,.97412v9.03369Zm-9.52838-21.57715l-.75824-2.34277,2.1944-1.11963c.40924-.2085,.74316-.54248,.9516-.95166l1.11981-2.19434,2.34253,.76074c.43689,.14062,.90887,.14062,1.34576,0l2.34259-.76074,1.11981,2.19434c.21088,.40918,.5423,.74316,.95154,.95166l2.19446,1.11963-.7608,2.34277c-.14056,.43652-.14056,.90869,0,1.3457l.7608,2.34229-2.19446,1.12012c-.40924,.20801-.74066,.54199-.95154,.95166l-1.11981,2.19434-2.34259-.7583c-.21844-.07031-.4469-.10547-.67285-.10547-.22601,0-.45447,.03516-.67291,.10547l-2.34253,.7583-1.11981-2.19434c-.20844-.40967-.54236-.74365-.9516-.95166l-2.1944-1.12012,.75824-2.34229c.14056-.43701,.14056-.90918,0-1.3457Z"/><path class="cls-1" d="M87.61099,72.49821v-25.73779c0-3.36963-2.73926-6.10889-6.1087-6.10889H43.17276c-3.36945,0-6.1087,2.73926-6.1087,6.10889v25.73779c0,3.36963,2.73926,6.10889,6.1087,6.10889h3.77625c1.20764,0,2.18433-.97656,2.18433-2.18408,0-1.20801-.97668-2.18457-2.18433-2.18457h-3.77625c-.95911,0-1.73999-.78076-1.73999-1.74023v-25.73779c0-.95898,.78088-1.73975,1.73999-1.73975h38.32953c.95911,0,1.73999,.78076,1.73999,1.73975v25.73779c0,.95947-.78088,1.74023-1.73999,1.74023h-3.9444c-1.2077,0-2.18439,.97656-2.18439,2.18457,0,1.20752,.97668,2.18408,2.18439,2.18408h3.9444c3.36945,0,6.1087-2.73926,6.1087-6.10889Z"/><path class="cls-1" d="M33.86624,117.43083c-.17664-.2915-.35052-.58398-.50885-.88525,.15961,.30078,.33038,.59521,.50885,.88525Z"/><path class="cls-1" d="M102.36935,46.30094c-.75446-2.33789-1.578-4.64502-2.7041-6.82666-1.96844-3.81152-4.69263-7.06592-7.72314-10.05566-2.21136-2.18115-4.63361-4.12256-7.33209-5.7002-2.10968-1.2334-4.36188-2.11572-6.64099-2.98291-2.29736-.87354-4.63116-1.6123-6.97369-2.33545-1.43805-.44434-2.90625-.79102-4.39514-.98291-7.17578-.92578-14.02893,.20947-20.56073,3.30957l.49713,.22754c.12115,.22363,.38098,.53027,.23285,.71582-.32013,.40039,.00067,.29004,.17328,.26807,.1864-.02295,.36658-.09912,.5473-.15625,2.22333-.70557,4.4209-1.51221,6.74524-1.84033,1.26038-.17773,2.48944-.55811,3.76367-.63037,1.17627-.06689,2.3595-.02539,3.53326-.11475,3.57538-.27148,7.05212,.37842,10.50763,1.13428,1.55481,.33984,3.0506,.91895,4.54321,1.50195,3.62122,1.41455,7.01385,3.21533,10.13538,5.53857,2.31561,1.72217,4.38885,3.70898,6.42133,5.74365,.16888,.16943,.34149,.2793,.60571,.34912,.5097,.13379,1.11102,.13867,1.48267,.60254,1.51019,1.8877,2.56598,4.03662,3.52887,6.23242,.83984,1.91406,1.54541,3.88232,2.20947,5.86279,1.45312,4.33447,2.38336,8.77148,2.48822,13.35742,.02759,1.2334,.00439,2.46729,.00439,3.70117l.16754-.00195c.17957-1.61279,.4187-3.22217,.51788-4.84131,.07092-1.15283-.05463-2.31836-.10669-3.47607-.13373-2.94287-.7627-5.79443-1.66846-8.6001Z"/><path class="cls-1" d="M12.43191,91.91618c-.07275-.12744-.14441-.25586-.21295-.38721,.06885,.13086,.13983,.26025,.21295,.38721Z"/><path class="cls-1" d="M36.63284,99.01872c-.46075-.32422-.90894-.54736-1.42426-.64355-.5047-.09375-.99554-.22559-1.4632-.46094-1.0614-.53516-2.01801-1.19873-2.86914-2.03809-.75391-.74316-1.41864-.53271-1.78772,.4707-.21088,.57275-.04895,1.12402,.00757,1.68799,.15753,1.56689,1.02563,2.2793,2.57477,2.02002,1.44312-.2417,2.8623-.62012,4.32233-.7793,.19897-.02246,.41803-.0542,.63965-.25684Z"/><path class="cls-1" d="M24.36703,88.73551c.27496,.22461,.6214,.36426,.94281,.52539,.13995,.06982,.30255,.06592,.4306-.04395,.14435-.125,.086-.28125,.02759-.4209-.05896-.13965-.11987-.28369-.21216-.40039-.7168-.91162-1.37152-1.88574-2.1781-2.71045-1.72864-1.7666-2.97839-3.84326-4.11389-6.00391-.31635-.60352-.72937-1.16064-.91266-1.8335-.74133-2.7168-1.44934-5.44873-1.62573-8.26611-.13873-2.21387-.68799-4.354-1.01562-6.53125-.31824-2.11621-.7099-4.21484-.85052-6.35742-.10858-1.65771-.0816-3.30518,.10107-4.95117,.17828-1.60645,.38977-3.20898,.82727-4.77002,.79907-2.85059,2.01868-5.52832,3.35126-8.16309,1.33014-2.62988,3.01361-5.01514,4.89417-7.27051,1.16876-1.40137,2.41785-2.73535,3.52264-4.19189,.35901-.47314,.65588-.97607,.93085-1.65527-.68103,.21094-1.24286,.375-1.68475,.84277-2.19568,2.32471-4.34802,4.69434-6.6228,6.94043-2.64758,2.61426-4.28589,5.78076-5.43896,9.24951-1.06018,3.18848-1.52338,6.47754-1.50586,9.82715,.01575,2.89453,.45068,5.75781,.81854,8.62305,.23914,1.86523,.51343,3.73438,.67664,5.59912,.177,2.01611,.43439,4.00293,.86621,5.97314,.79346,3.62305,2.07458,7.07373,3.79504,10.35156,.72437,1.38086,1.70984,2.58496,2.80518,3.71533,.68042,.70215,1.42297,1.31201,2.1712,1.92236Z"/><path class="cls-1" d="M65.13327,106.4987c-.92523-.08594-1.8504-.11182-2.78003-.13281-1.40417-.03223-2.80396-.24658-4.20868-.28564-2.74304-.0752-5.45343-.51123-8.172-.79492-2.14417-.22314-4.32104-.6792-6.24176-1.83154-.12933-.07764-.27496-.13135-.41742-.18262-.37415-.13428-.5882-.0083-.63025,.39502-.05145,.48682,.02704,.9585,.25427,1.38477,.32196,.60254,.63141,1.22461,1.04132,1.76758,.93964,1.24365,2.12915,2.10986,3.77618,2.08496,1.13928-.01709,2.27856-.06592,3.41718-.12744,.51031-.02832,1.02313-.07324,1.52344-.21338,1.35645-.37988,2.74237-.61572,4.13397-.82471,.25049-.0376,.49084-.00049,.73694,.02686,1.24597,.13965,2.49255,.27051,3.61237,.39111,1.5517-.03906,2.93195-.23145,4.14276-1.06592,.1532-.10449,.39923-.19189,.349-.40332-.06335-.26318-.34082-.16992-.53729-.18799Z"/><path class="cls-1" d="M62.33755,6.90397c.0119,.18311,.19019,.27539,.36029,.31787,.10797,.02783,.22656,.02148,.34021,.02051,.66785-.00586,1.3288,.07617,1.98724,.17432,4.19867,.62646,8.34082,1.53955,12.43903,2.62646,2.85162,.75586,5.35486,2.26318,7.64532,4.09961,1.59625,1.2793,2.83093,2.91846,4.19366,4.42773,.1814,.20117,.33514,.54492,.68164,.3667,.33392-.17188,.23663-.52344,.20337-.82275-.01001-.09229-.05524-.18164-.086-.27051-.74005-2.15381-1.79333-4.0708-3.5885-5.58301-2.00299-1.68701-4.17419-3.0791-6.60333-3.99805-3.88232-1.46973-7.96423-1.93555-12.08691-2.09668-.40045,0-.8028-.03223-1.19891,.00586-1.3219,.12549-2.67017,.05078-3.9494,.49805-.12805,.04492-.35028,.03711-.33771,.23389Z"/><path class="cls-1" d="M113.40866,51.35514c-.61267-4.24756-1.89502-8.26172-3.95514-12.01123-2.31555-4.21729-5.54193-7.65869-9.3175-10.60449-.13745-.10742-.26611-.29883-.57623-.20703,.36157,.21777,.55243,.50439,.75952,.77588,1.82538,2.3877,3.64569,4.78027,5.47729,7.16357,2.1084,2.74512,3.87158,5.66895,4.9776,8.98047,.99426,2.979,1.55353,6.02441,1.72241,9.15039,.02887,.53125,.05206,1.06494,.04578,1.59668-.02069,1.72168,.10675,3.44238-.22467,5.16016-.28058,1.45166-.57684,2.89941-.86182,4.35986,.03448-.04248,.08093-.08057,.10168-.12891,1.927-4.57471,2.56226-9.30322,1.85107-14.23535Z"/><path class="cls-1" d="M11.90317,90.89176c-.10217-.22559-.19543-.4585-.28619-.69336,.09137,.23438,.18341,.46826,.28619,.69336Z"/><path class="cls-1" d="M110.17789,54.02018c-.21906-3.28564-.88629-6.48438-2.64447-9.37012,.74884,3.12207,1.41479,6.25586,1.64203,9.45752,.22723,3.20215-.10797,6.41064,.09479,9.62451,.95728-3.17627,1.12549-6.43994,.90765-9.71191Z"/><path class="cls-1" d="M103.84445,84.57926c-.35278,.31982-.53229,.7002-.73315,1.06348-1.07648,1.94824-2.04315,3.97998-3.43347,5.71924-2.43671,3.04688-4.57843,6.33203-7.33527,9.12207-1.01813,1.03027-2.09399,1.98047-3.28345,2.81348-.69739,.48779-1.3891,1.00391-1.95966,1.64893-.53668,.60596-.47455,.85645,.27808,1.17529,.10291,.04395,.21967,.08154,.32953,.08057,1.00684-.00781,2.01178,.05664,3.01923-.09326,1.55731-.23096,3.02045-.75586,4.4585-1.35107,1.21899-.50439,2.30743-1.2793,3.30042-2.11572,1.01935-.85791,1.80591-1.95947,2.34003-3.22461,.56244-1.33203,1.00372-2.70459,1.45374-4.07373,.5235-1.59033,.75513-3.25195,1.10413-4.88477,.31763-1.48828,.55676-2.98828,.7005-4.49854,.04083-.42871,.16321-.95166-.23914-1.38135Z"/><path class="cls-1" d="M80.41263,97.08903c-.79907,.05029-1.41486,.38965-2.03876,.67773-3.97333,1.83496-8.16632,2.78467-12.51562,3.02441-3.44916,.19092-6.88013-.05859-10.2879-.66406-6.7182-1.19531-12.75476-3.87549-17.99786-8.25586-5.18976-4.33594-9.00616-9.72021-11.81573-15.83643-1.401-3.04932-2.34442-6.25928-3.21381-9.5127,.07159,1.03955-.07593,2.07959-.0188,3.09668,.05774,1.04541,.44568,2.07227,.68604,3.10791,.28436,1.22314,.74133,2.38525,1.18762,3.55566,.97858,2.56689,2.17181,4.9917,3.86536,7.18896,1.47443,1.9126,2.92566,3.82568,4.59973,5.57666,1.97223,2.06348,4.17352,3.83936,6.49286,5.47266,.79279,.55762,1.4707,1.28223,2.35388,1.70068,1.43927,.68213,2.86981,1.39355,4.35242,1.96729,1.836,.71045,3.68396,1.38477,5.61914,1.83789,1.6828,.39453,3.39264,.64209,5.0686,1.05957,.20087,.05029,.41553,.07178,.62268,.06299,1.10724-.0459,2.20197,.13184,3.3042,.1748,1.59058,.06299,3.16986,.2998,4.77551-.01318,.88-.17188,1.80206-.21436,2.71979-.20312,.88879,.01123,1.79456-.05664,2.66644-.22607,3.17798-.61768,6.18402-1.72998,9.00677-3.32373,.18707-.10596,.39795-.19385,.56744-.46875Z"/><path class="cls-1" d="M19.56143,98.99479c.06146-.07227,.13556-.13379,.20087-.20361,.29639-.31641,.38763-.58691,.28967-.81201,.0174,.05811,.02698,.11816,.01965,.18213-.01324,.11475-.06641,.23926-.15985,.37256-.04669,.06689-.10345,.13623-.17023,.20752-.06488,.06885-.13892,.13086-.20001,.20312-1.26678,1.49121-2.14124,3.11426-2.37494,4.96436-.07788,.6167-.08459,1.25879-.01086,1.92969,.03241,.29492,.08582,.57959,.15344,.85693-.0603-.25781-.10669-.52344-.13678-.79688-.29498-2.68701,.698-4.91309,2.38904-6.90381Z"/><path class="cls-1" d="M31.38907,112.45231c-.00409-.00781-.01019-.01416-.01434-.02197,.10272,.20557,.20001,.41309,.29858,.62061,.10596,.22314,.21448,.44531,.32098,.66797,.40143,.83838,.78149,1.68799,1.20337,2.51416-.40686-.8042-.7757-1.62939-1.16522-2.44385-.21405-.44531-.42053-.89551-.64337-1.33691Z"/><path class="cls-1" d="M4.97128,46.92448c.00421,.51807,.03278,1.03271,.07227,1.54639-.04028-.51758-.0672-1.03662-.07184-1.55859,0,.00391-.00049,.00781-.00043,.01221Z"/><path class="cls-1" d="M5.22702,50.10856c-.06299-.43555-.11353-.87354-.15369-1.3125,.03986,.43945,.09094,.87646,.15369,1.3125Z"/><path class="cls-1" d="M6.54697,40.882l.0116-.02002-.0116,.02002Z"/><path class="cls-1" d="M10.16733,75.29801c.23474-1.96582,.35968-3.94336,.39984-5.92383,.04205-2.08057-.65216-3.99951-1.30432-5.93066-1.11353-3.29688-2.4411-6.52246-3.32928-9.89307-.27826-1.05615-.50598-2.12158-.67163-3.19629,.08075,.52588,.17133,1.05078,.28131,1.57227,.11548,.54785,.24597,1.09375,.38916,1.63672,.88654,3.36572,2.21265,6.58691,3.32446,9.87891,.56982,1.6875,1.17188,3.36621,1.28534,5.15137,.01617,.25488,.02246,.51221,.01721,.77197-.0401,1.97754-.16473,3.95215-.39899,5.91504-.13177,1.10352-.20886,2.20264-.23407,3.29785-.02515,1.09521,.00153,2.18701,.07745,3.27539,.15186,2.17676,.50043,4.34033,1.02362,6.49414l.00232,.00781c-1.04291-4.30518-1.38855-8.64746-.86243-13.05762Z"/><path class="cls-2" d="M112.74075,45.81999c-1.22083-4.57715-3.59418-8.53369-6.70691-12.06494-2.40906-2.73193-5.10126-5.17627-7.80975-7.60693-2.53528-2.27539-4.56525-4.93213-5.86896-8.12207-.67603-1.65479-1.48389-3.25293-2.52521-4.72217-2.05066-2.89209-4.90546-4.73535-8.05084-6.19629-5.18976-2.41016-10.70593-3.25586-16.36774-3.36816-3.19934-.05615-6.35101,.35938-9.45996,1.04639-4.57593,1.01123-8.77582,2.97852-12.85144,5.23584-2.73236,1.5127-5.12012,3.49365-7.51727,5.46631-3.82513,3.14795-7.57373,6.39062-10.87921,10.08545-2.48315,2.7749-5.30273,5.04492-8.56238,6.83105-2.92188,1.60107-5.48352,3.68896-7.79529,6.1001-.71198,.74268-1.29926,1.53076-1.78723,2.35742l-.0116,.02002c-1.05603,1.79688-1.59412,3.79199-1.57568,6.02051l.00043,.00977c.00464,.52197,.03156,1.04102,.07184,1.55859,.00848,.1084,.01984,.2168,.02979,.3252,.04016,.43896,.0907,.87695,.15369,1.3125,.01184,.08154,.02234,.16357,.03491,.24561,.16565,1.07471,.39337,2.14014,.67163,3.19629,.88818,3.37061,2.21576,6.59619,3.32928,9.89307,.65216,1.93115,1.34637,3.8501,1.30432,5.93066-.04016,1.98047-.1651,3.95801-.39984,5.92383-.52612,4.41016-.18048,8.75244,.86243,13.05762l.00629,.02832c.1546,.63672,.35681,1.23438,.58093,1.81445,.09076,.23486,.18402,.46777,.28619,.69336,.09863,.21777,.20654,.42822,.3158,.63721,.06854,.13135,.1402,.25977,.21295,.38721,1.23584,2.1709,3.06268,3.8623,5.5163,5.04883,.47644,.23047,.99304,.37939,1.49396,.55957,.27338,.09863,.45935,.21924,.56128,.35938l.01654,.02588c.01422,.02246,.02191,.0459,.03198,.06934,.09796,.2251,.00671,.49561-.28967,.81201-.06531,.06982-.1394,.13135-.20087,.20361-1.69104,1.99072-2.68402,4.2168-2.38904,6.90381,.03009,.27344,.07648,.53906,.13678,.79688,.91943,3.93066,5.22253,6.01562,8.9541,4.10107,1.86438-.95605,4.1554-.22217,5.11145,1.63379,.00415,.00781,.01025,.01416,.01434,.02197,.22284,.44141,.42932,.8916,.64337,1.33691,.38953,.81445,.75836,1.63965,1.16522,2.44385,.05286,.10449,.10535,.20898,.15973,.3125,.15833,.30127,.33221,.59375,.50885,.88525,.31824,.52441,.66034,1.03564,1.07117,1.50977,1.62384,1.87207,3.67639,2.55518,6.0918,2.2583,1.65582-.20459,3.13843-.89648,4.56769-1.70947,2.77759-1.57959,5.19543-3.65625,7.68677-5.62695,.83484-.66016,1.72992-.8916,2.76813-.77588,1.69543,.18945,3.17554,.89453,4.55585,1.84277,2.27722,1.56299,4.72339,2.76758,7.37915,3.5376,4.85461,1.40869,9.7569,1.82275,14.71503,.61377,4.8728-1.1875,9.26227-3.40088,13.32092-6.32617,2.52649-1.82129,4.60419-4.01562,6.16022-6.72266,1.52716-2.65723,2.40533-5.54053,3.10016-8.4917,1.01624-4.3125,1.38599-8.71582,1.71112-13.12012,.2749-3.71631,.89008-7.36963,1.97852-10.92969,.86871-2.84033,2.11658-5.5415,3.22693-8.2915,.95477-2.36572,1.53284-4.80615,1.78265-7.34717,.40363-4.10107-.1908-8.09229-1.24158-12.03174Zm-1.28485,19.89941c.28497-1.46045,.58124-2.9082,.86182-4.35986,.33142-1.71777,.20398-3.43848,.22467-5.16016,.00629-.53174-.01691-1.06543-.04578-1.59668-.16888-3.12598-.72815-6.17139-1.72241-9.15039-1.10602-3.31152-2.8692-6.23535-4.9776-8.98047-1.8316-2.3833-3.65192-4.77588-5.47729-7.16357-.20709-.27148-.39795-.55811-.75952-.77588,.31012-.0918,.43878,.09961,.57623,.20703,3.77557,2.9458,7.00195,6.38721,9.3175,10.60449,2.06012,3.74951,3.34247,7.76367,3.95514,12.01123,.71118,4.93213,.07593,9.66064-1.85107,14.23535-.02075,.04834-.0672,.08643-.10168,.12891Zm-2.28046-11.61182c-.22723-3.20166-.89319-6.33545-1.64203-9.45752,1.75818,2.88574,2.42542,6.08447,2.64447,9.37012,.21783,3.27197,.04962,6.53564-.90765,9.71191-.20276-3.21387,.13245-6.42236-.09479-9.62451Zm-6.89648,41.23633c-.45001,1.36914-.8913,2.7417-1.45374,4.07373-.53412,1.26514-1.32068,2.3667-2.34003,3.22461-.99298,.83643-2.08142,1.61133-3.30042,2.11572-1.43805,.59521-2.90118,1.12012-4.4585,1.35107-1.00745,.1499-2.01239,.08545-3.01923,.09326-.10986,.00098-.22662-.03662-.32953-.08057-.75262-.31885-.81476-.56934-.27808-1.17529,.57056-.64502,1.26227-1.16113,1.95966-1.64893,1.18945-.83301,2.26532-1.7832,3.28345-2.81348,2.75684-2.79004,4.89856-6.0752,7.33527-9.12207,1.39032-1.73926,2.35699-3.771,3.43347-5.71924,.20087-.36328,.38037-.74365,.73315-1.06348,.40234,.42969,.27997,.95264,.23914,1.38135-.14374,1.51025-.38287,3.01025-.7005,4.49854-.349,1.63281-.58063,3.29443-1.10413,4.88477Zm-34.10699,5.76367c-.91772-.01123-1.83978,.03125-2.71979,.20312-1.60565,.31299-3.18494,.07617-4.77551,.01318-1.10223-.04297-2.19696-.2207-3.3042-.1748-.20715,.00879-.42181-.0127-.62268-.06299-1.67596-.41748-3.3858-.66504-5.0686-1.05957-1.93518-.45312-3.78314-1.12744-5.61914-1.83789-1.4826-.57373-2.91315-1.28516-4.35242-1.96729-.88318-.41846-1.5611-1.14307-2.35388-1.70068-2.31934-1.6333-4.52063-3.40918-6.49286-5.47266-1.67407-1.75098-3.12531-3.66406-4.59973-5.57666-1.69354-2.19727-2.88678-4.62207-3.86536-7.18896-.44629-1.17041-.90326-2.33252-1.18762-3.55566-.24036-1.03564-.6283-2.0625-.68604-3.10791-.05713-1.01709,.09039-2.05713,.0188-3.09668,.86938,3.25342,1.81281,6.46338,3.21381,9.5127,2.80957,6.11621,6.62598,11.50049,11.81573,15.83643,5.2431,4.38037,11.27966,7.06055,17.99786,8.25586,3.40778,.60547,6.83875,.85498,10.2879,.66406,4.3493-.23975,8.5423-1.18945,12.51562-3.02441,.6239-.28809,1.23969-.62744,2.03876-.67773-.16949,.2749-.38037,.36279-.56744,.46875-2.82275,1.59375-5.8288,2.70605-9.00677,3.32373-.87189,.16943-1.77765,.2373-2.66644,.22607Zm-2.8504,5.98242c-1.21082,.83447-2.59106,1.02686-4.14276,1.06592-1.11981-.12061-2.36639-.25146-3.61237-.39111-.24609-.02734-.48645-.06445-.73694-.02686-1.3916,.20898-2.77753,.44482-4.13397,.82471-.50031,.14014-1.01312,.18506-1.52344,.21338-1.13861,.06152-2.27789,.11035-3.41718,.12744-1.64703,.0249-2.83655-.84131-3.77618-2.08496-.40991-.54297-.71936-1.16504-1.04132-1.76758-.22723-.42627-.30573-.89795-.25427-1.38477,.04205-.40332,.2561-.5293,.63025-.39502,.14246,.05127,.28809,.10498,.41742,.18262,1.92072,1.15234,4.0976,1.6084,6.24176,1.83154,2.71857,.28369,5.42896,.71973,8.172,.79492,1.40472,.03906,2.8045,.25342,4.20868,.28564,.92963,.021,1.8548,.04688,2.78003,.13281,.19647,.01807,.47394-.0752,.53729,.18799,.05023,.21143-.1958,.29883-.349,.40332Zm-14.99561-48.9707c-.32892-1.02197,.13055-2.13184,1.08466-2.61865l3.22131-1.64453,1.64459-3.22168c.48706-.9541,1.59436-1.40576,2.61871-1.08447l3.44232,1.11475,3.43976-1.11475c1.01184-.32129,2.13165,.13037,2.61871,1.08447l1.64709,3.22168,3.22131,1.64453c.9541,.48682,1.41357,1.59912,1.08466,2.61865l-1.11481,3.44238,1.11481,3.44189c.32892,1.01953-.13055,2.13184-1.08466,2.61914l-3.22131,1.64453-.33142,.64844v16.35449c0,.7832-.41931,1.50391-1.09723,1.89307-.33643,.1958-.71057,.29102-1.08716,.29102-.38165,0-.76074-.09766-1.09973-.2959l-4.09003-2.3877-4.09009,2.3877c-.67285,.39404-1.50897,.39893-2.18689,.00488-.67792-.38916-1.09723-1.10986-1.09723-1.89307v-16.354l-.33142-.64893-3.22131-1.64453c-.9541-.4873-1.41357-1.59717-1.08466-2.61914l1.11481-3.44189-1.11481-3.44238Zm27.23193,20.48779c-1.2077,0-2.18439-.97656-2.18439-2.18408,0-1.20801,.97668-2.18457,2.18439-2.18457h3.9444c.95911,0,1.73999-.78076,1.73999-1.74023v-25.73779c0-.95898-.78088-1.73975-1.73999-1.73975H43.17276c-.95911,0-1.73999,.78076-1.73999,1.73975v25.73779c0,.95947,.78088,1.74023,1.73999,1.74023h3.77625c1.20764,0,2.18433,.97656,2.18433,2.18457,0,1.20752-.97668,2.18408-2.18433,2.18408h-3.77625c-3.36945,0-6.1087-2.73926-6.1087-6.10889v-25.73779c0-3.36963,2.73926-6.10889,6.1087-6.10889h38.32953c3.36945,0,6.1087,2.73926,6.1087,6.10889v25.73779c0,3.36963-2.73926,6.10889-6.1087,6.10889h-3.9444Zm26.58661-20.22998c-.09918,1.61914-.33832,3.22852-.51788,4.84131l-.16754,.00195c0-1.23389,.02319-2.46777-.00439-3.70117-.10486-4.58594-1.0351-9.02295-2.48822-13.35742-.66406-1.98047-1.36963-3.94873-2.20947-5.86279-.96289-2.1958-2.01868-4.34473-3.52887-6.23242-.37164-.46387-.97296-.46875-1.48267-.60254-.26422-.06982-.43683-.17969-.60571-.34912-2.03247-2.03467-4.10571-4.02148-6.42133-5.74365-3.12152-2.32324-6.51416-4.12402-10.13538-5.53857-1.49261-.58301-2.9884-1.16211-4.54321-1.50195-3.45551-.75586-6.93225-1.40576-10.50763-1.13428-1.17377,.08936-2.35699,.04785-3.53326,.11475-1.27423,.07227-2.5033,.45264-3.76367,.63037-2.32434,.32812-4.52191,1.13477-6.74524,1.84033-.18073,.05713-.3609,.1333-.5473,.15625-.17261,.02197-.49341,.13232-.17328-.26807,.14813-.18555-.11169-.49219-.23285-.71582l-.49713-.22754c6.5318-3.1001,13.38495-4.23535,20.56073-3.30957,1.48889,.19189,2.95709,.53857,4.39514,.98291,2.34253,.72314,4.67633,1.46191,6.97369,2.33545,2.27911,.86719,4.53131,1.74951,6.64099,2.98291,2.69849,1.57764,5.12073,3.51904,7.33209,5.7002,3.03052,2.98975,5.7547,6.24414,7.72314,10.05566,1.1261,2.18164,1.94965,4.48877,2.7041,6.82666,.90576,2.80566,1.53473,5.65723,1.66846,8.6001,.05206,1.15771,.17761,2.32324,.10669,3.47607ZM67.82358,6.16618c4.12268,.16113,8.20459,.62695,12.08691,2.09668,2.42914,.91895,4.60034,2.31104,6.60333,3.99805,1.79517,1.51221,2.84845,3.4292,3.5885,5.58301,.03076,.08887,.07599,.17822,.086,.27051,.03326,.29932,.13055,.65088-.20337,.82275-.3465,.17822-.50024-.16553-.68164-.3667-1.36273-1.50928-2.59741-3.14844-4.19366-4.42773-2.29047-1.83643-4.7937-3.34375-7.64532-4.09961-4.09821-1.08691-8.24036-2-12.43903-2.62646-.65845-.09814-1.3194-.18018-1.98724-.17432-.11365,.00098-.23224,.00732-.34021-.02051-.1701-.04248-.34839-.13477-.36029-.31787-.01257-.19678,.20966-.18896,.33771-.23389,1.27924-.44727,2.6275-.37256,3.9494-.49805,.39612-.03809,.79846-.00586,1.19891-.00586ZM19.39066,83.09782c-1.72046-3.27783-3.00159-6.72852-3.79504-10.35156-.43182-1.97021-.68921-3.95703-.86621-5.97314-.16321-1.86475-.4375-3.73389-.67664-5.59912-.36786-2.86523-.8028-5.72852-.81854-8.62305-.01752-3.34961,.44568-6.63867,1.50586-9.82715,1.15308-3.46875,2.79138-6.63525,5.43896-9.24951,2.27478-2.24609,4.42712-4.61572,6.6228-6.94043,.44189-.46777,1.00372-.63184,1.68475-.84277-.27496,.6792-.57184,1.18213-.93085,1.65527-1.1048,1.45654-2.35388,2.79053-3.52264,4.19189-1.88055,2.25537-3.56403,4.64062-4.89417,7.27051-1.33258,2.63477-2.55219,5.3125-3.35126,8.16309-.4375,1.56104-.64899,3.16357-.82727,4.77002-.18268,1.646-.20966,3.29346-.10107,4.95117,.14062,2.14258,.53229,4.24121,.85052,6.35742,.32764,2.17725,.87689,4.31738,1.01562,6.53125,.17639,2.81738,.8844,5.54932,1.62573,8.26611,.18329,.67285,.59631,1.22998,.91266,1.8335,1.1355,2.16064,2.38525,4.2373,4.11389,6.00391,.80658,.82471,1.4613,1.79883,2.1781,2.71045,.09229,.1167,.1532,.26074,.21216,.40039,.05841,.13965,.11676,.2959-.02759,.4209-.12805,.10986-.29065,.11377-.4306,.04395-.32141-.16113-.66785-.30078-.94281-.52539-.74823-.61035-1.49078-1.22021-2.1712-1.92236-1.09534-1.13037-2.08081-2.33447-2.80518-3.71533Zm12.28021,16.95703c-1.54913,.25928-2.41724-.45312-2.57477-2.02002-.05652-.56396-.21844-1.11523-.00757-1.68799,.36908-1.00342,1.03381-1.21387,1.78772-.4707,.85114,.83936,1.80774,1.50293,2.86914,2.03809,.46765,.23535,.9585,.36719,1.4632,.46094,.51532,.09619,.9635,.31934,1.42426,.64355-.22162,.20264-.44067,.23438-.63965,.25684-1.46002,.15918-2.87921,.5376-4.32233,.7793Z"/><path class="cls-2" d="M59.33212,73.43131v9.03467l1.9057-1.11182c.33893-.19873,.72058-.29639,1.09973-.29639,.37909,0,.76074,.09766,1.09967,.29639l1.9057,1.11182v-9.03369l-3.00537-.97412-3.00543,.97314Z"/><path class="cls-2" d="M55.0563,64.57682l2.1944,1.12012c.40924,.20801,.74316,.54199,.9516,.95166l1.11981,2.19434,2.34253-.7583c.21844-.07031,.4469-.10547,.67291-.10547,.22595,0,.45441,.03516,.67285,.10547l2.34259,.7583,1.11981-2.19434c.21088-.40967,.5423-.74365,.95154-.95166l2.19446-1.12012-.7608-2.34229c-.14056-.43701-.14056-.90918,0-1.3457l.7608-2.34277-2.19446-1.11963c-.40924-.2085-.74066-.54248-.95154-.95166l-1.11981-2.19434-2.34259,.76074c-.43689,.14062-.90887,.14062-1.34576,0l-2.34253-.76074-1.11981,2.19434c-.20844,.40918-.54236,.74316-.9516,.95166l-2.1944,1.11963,.75824,2.34277c.14056,.43652,.14056,.90869,0,1.3457l-.75824,2.34229Z"/></g><g><g><path class="cls-3" d="M168.60283,15.724c-2.85864,1.11032-3.80526,4.64751-1.83943,6.95424,.28133,.33039,.32714,.53864-.06257,.81196-1.34559,.94462-1.35761,2.94799-.38746,4.05881,.26081,.29885,.30011,.40047-.07234,.66379-2.09523,1.48125-1.79187,4.15092,.56392,5.21918,1.96658,.89206,4.05831,.90808,6.14828,.84,1.84368-.06007,3.65984-.31838,5.22444-1.42469,1.24147-.87804,1.75983-2.09548,1.58563-3.60127-.1697-1.46974-1.04424-2.3613-2.39434-2.83185-1.43345-.49909-2.92747-.32589-4.19647-.36493h-2.95901c-.37945-.0005-.75289-.04255-1.08403-.24229-.43201-.25981-.48858-.66178-.34816-1.0993,.15568-.48558,.5026-.40548,.90132-.31237,1.94055,.45003,3.87334,.42951,5.76658-.23628,2.22714-.78343,3.64757-2.85588,3.09467-4.95637-.32338-1.22795-.17346-1.96082,.79594-2.73924,.72486-.58169,.71234-1.37863,.22176-1.92228-.46004-.5091-1.30755-.55165-1.99987-.06358-.45879,.32388-.89856,.6788-1.31956,1.05074-.22477,.19823-.39297,.21125-.68131,.11013-2.32525-.81597-4.6465-.81246-6.95799,.0856Zm.8047,13.02493c.86703,.03254,1.73556,.00851,2.60358,.00851v.02203h0c.86753,0,1.73531-.001,2.60308,.0005,.38045,.0005,.74588,.0826,1.07978,.26231,.75089,.40398,.8445,1.4332,.16219,1.93029-.25881,.18822-.53563,.36143-.86477,.44503-1.75808,.44803-3.53118,.45604-5.29377,.10262-1.25048-.2503-1.76659-1.0978-1.3546-2.03992,.19999-.45754,.49884-.75289,1.06451-.73137Zm4.5559-10.94597c.88755,.35692,1.38614,1.30855,1.29453,2.29422-.09161,.98717-.83524,1.75458-1.97484,2.00538-.31863,.07008-.65077,.07809-1.02221,.11914-.93361-.03504-1.89224-.16319-2.59708-.9286-.98467-1.06877-.56967-2.83786,.81196-3.46661,1.14886-.52262,2.33477-.48708,3.48763-.02353Z"/><path class="cls-3" d="M248.10752,24.99648c.3384,1.71103,1.07703,3.21631,2.49571,4.26856,2.93097,2.17458,6.11224,2.29622,9.38261,.90007,1.14185-.48758,2.04768-1.33258,2.46993-2.56103,.20424-.5932,.12565-1.17339-.38496-1.6029-.49358-.41549-1.05375-.32739-1.57937-.07709-.31237,.14918-.6305,.34641-.86102,.59921-1.16213,1.27651-2.64563,1.52931-4.25003,1.35511-2.11601-.23077-3.70189-1.57987-3.97921-3.29891-.05932-.36844-.03304-.52312,.41049-.51511,1.55234,.02853,3.10518,.01101,4.65777,.01101s3.10518,.01101,4.65777-.0035c1.14986-.01151,1.67548-.48307,1.79513-1.62342,.09411-.89706-.03479-1.78862-.32038-2.63462-.93386-2.76427-2.90845-4.3061-5.77259-4.66853-3.05987-.38746-5.71827,.41349-7.53768,3.0431-1.42118,2.05443-1.66297,4.3867-1.18415,6.80807Zm3.374-4.48231c.59295-1.84819,2.25192-2.86089,4.40597-2.69069,1.86821,.14818,3.16775,1.19391,3.58099,2.84087,.1234,.49258,.08435,.70934-.51661,.68431-1.14961-.04706-2.30248-.01352-3.45409-.01352s-2.30298,.0025-3.45459-.001c-.74513-.0025-.79795-.0836-.56167-.81997Z"/><path class="cls-3" d="M222.09195,15.05871c-4.61146,.02153-7.89836,3.38651-7.85455,8.04002,.0443,4.70207,3.3377,7.95943,8.02726,7.93991,4.91682-.02052,8.14215-3.24534,8.12287-8.12112-.01877-4.73161-3.34421-7.88234-8.29558-7.85881Zm.13766,12.84972c-2.67342-.02603-4.59995-2.12251-4.54664-4.94786,.05281-2.79631,2.02365-4.82872,4.64625-4.79168,2.75276,.03855,4.68555,2.11651,4.61246,4.95787-.07409,2.88141-1.97234,4.8077-4.71208,4.78166Z"/><path class="cls-3" d="M184.55949,28.99422c1.55509,1.58588,3.5432,2.00538,5.07877,2.03791,1.8164-.001,3.01432-.17721,4.14241-.70734,2.84712-1.33809,3.55847-5.22169,1.32732-7.30115-.61122-.56917-1.36211-.89106-2.15906-1.12683-1.37613-.40798-2.82685-.48808-4.18521-.96564-.79494-.27933-1.21219-.82998-1.19567-1.54283,.01552-.66579,.45003-1.22695,1.2625-1.40917,1.38239-.30987,2.69369-.14918,3.85206,.77542,.49258,.39347,.91233,.88755,1.5153,1.13735,.53213,.21976,1.03873,.24279,1.50929-.15168,.47306-.39697,.55591-.91258,.41199-1.46924-.1304-.5046-.37895-.95563-.74363-1.34009-1.00394-1.05775-2.29247-1.52881-3.68662-1.73355-2.03942-.29935-4.04279-.23928-5.8229,.97916-2.26243,1.54883-2.41461,4.87177-.31037,6.61233,.92935,.76841,2.06545,1.06726,3.21931,1.32106,1.00519,.22126,2.04918,.29585,3.00356,.71735,.82297,.36343,1.2232,1.0137,1.12909,1.75758-.09737,.77041-.60146,1.29804-1.49827,1.46173-1.74432,.31838-3.31067-.04255-4.5997-1.32507-.35092-.34941-.70383-.69582-1.14586-.9266-.49158-.2573-1.01095-.26031-1.47725,.02002-.48808,.29285-.65152,.78843-.5902,1.34359,.0816,.73337,.4653,1.32757,.96314,1.83567Z"/><path class="cls-3" d="M147.28783,28.01456c-1.58738,.3369-3.0779,.13516-4.35816-.96114-.40999-.35142-.80595-.71985-1.21995-1.06626-.52062-.43552-1.31781-.5086-1.83918-.14918-.58419,.40148-.65778,.99067-.49409,1.62342,.13716,.52963,.41199,.98767,.78443,1.39565,1.58963,1.74156,3.67986,2.12001,5.88873,2.13703,.30536,0,.61398,.03004,.91533-.00451,1.99486-.22977,3.75345-.86402,4.72009-2.81984,.95613-1.93429,.43752-4.25704-1.27051-5.48149-.93486-.67079-2.05093-.89656-3.15499-1.13234-1.00594-.21525-2.04667-.27933-3.00281-.71385-.64977-.29535-.99017-.78193-.95513-1.49277,.03654-.73287,.49158-1.15487,1.15762-1.33658,1.17414-.32088,2.30498-.22276,3.39102,.38195,.64702,.35993,1.11807,.9306,1.7263,1.32958,.57418,.37645,1.18691,.47707,1.77761,.07409,.5882-.40098,.6345-1.0157,.45604-1.63544-.25906-.90157-.86578-1.54383-1.66647-2.00037-2.20561-1.25749-4.55915-1.40667-6.95123-.75489-2.6176,.71385-3.99023,3.19629-3.16825,5.60864,.56567,1.66097,1.92428,2.42087,3.5019,2.84287,1.29228,.34541,2.61685,.57018,3.90538,.9271,.81096,.22477,1.22545,.91959,1.18891,1.71253-.03454,.74238-.51361,1.34159-1.33258,1.5158Z"/><path class="cls-3" d="M200.05434,18.45824c.60447,.06858,1.21969,.07509,1.82892,.06007,.39597-.00951,.52838,.10963,.52087,.51561-.02353,1.2695-.00851,2.53951-.00851,3.80951,.00025,1.22295-.02002,2.4464,.00576,3.66835,.02828,1.34359,.4613,2.54702,1.5203,3.41805,1.66172,1.36662,3.52042,1.3511,5.43969,.63325,.97516-.36493,1.78111-.94562,2.22013-1.92478,.28434-.63475,.23778-1.27201-.29385-1.74657-.53413-.47707-1.15637-.43101-1.75308-.05707-.35592,.22326-.69282,.48157-1.06426,.6733-1.46323,.7559-2.68468,.04906-2.69945-1.57837-.02052-2.2812,.00976-4.56291-.01727-6.84361-.00601-.5026,.19673-.57568,.62049-.56567,1.01095,.02203,2.0229,.00801,3.03434,.00651,.45204-.0005,.90958-.03805,1.27426-.32488,.49659-.39046,.7206-.91158,.58144-1.55534-.14067-.65127-.55716-1.05625-1.19742-1.12133-.74588-.07659-1.50228-.04155-2.25392-.06908-.65327-.02353-1.49327,.27182-1.90951-.11414-.4245-.39447-.0886-1.24497-.13666-1.89324-.02077-.28083-.00776-.56567-.04681-.8435-.13241-.94262-.84075-1.54683-1.72554-1.49177-.94712,.05957-1.58237,.73337-1.59664,1.71153-.01001,.70534-.02153,1.41217,.00551,2.11651,.01527,.39146-.09461,.54114-.5086,.52612-.60922-.02102-1.22445-.01402-1.83017,.04906-.77016,.08009-1.34034,.73787-1.33508,1.45272,.00601,.77292,.52838,1.39766,1.32507,1.48876Z"/><path class="cls-3" d="M235.37268,30.65469c.55816,.37244,1.14961,.37695,1.73756,.08911,.64426-.31537,.87804-.88505,.87954-1.56485,.00451-2.14054,.0015-4.28157,.00175-6.42211,0-.80395,.08535-1.59539,.36218-2.35579,.27933-.76791,.69482-1.44822,1.44371-1.83467,1.05125-.54264,1.88924-.32639,2.96151,.69883,.52512,.50209,1.10531,.73387,1.8547,.49559,.65928-.21075,.9321-.68231,1.03823-1.29003,.13641-.77992-.06207-1.48576-.56217-2.10599-.69808-.86603-1.64395-1.20743-2.71321-1.29403-1.73956-.14067-3.16625,.46906-4.29759,1.87172-.04706-.12915-.07509-.18272-.0866-.23978-.23278-1.14235-.84-1.63394-1.88724-1.52681-.90282,.09261-1.47825,.78093-1.48,1.82666-.00726,4.02277-.00476,8.04553-.00125,12.0683,.0005,.64026,.18572,1.20793,.74889,1.58388Z"/><path class="cls-3" d="M158.49336,15.16384c-.94111-.00851-1.68074,.63926-1.68575,1.6079-.02253,4.16343-.01877,8.32686-.00125,12.4903,.00375,.8475,.56342,1.49477,1.28477,1.62993,1.15687,.21726,2.04993-.48157,2.06545-1.68299,.02603-2.04642,.00701-4.09285,.00701-6.13927-.0005-2.06995,.02052-4.1404-.00901-6.20986-.01502-1.06176-.6718-1.687-1.66122-1.69601Z"/><path class="cls-3" d="M158.51363,9.15222c-1.1844-.01101-2.13002,.91458-2.12201,2.07746,.00801,1.1794,.91133,2.06344,2.11801,2.07246,1.15161,.00901,2.07095-.88705,2.07796-2.0244,.00751-1.18741-.89706-2.1145-2.07396-2.12552Z"/></g><g><path class="cls-3" d="M142.80069,95.25407v-27.76562h-5.48193c-2.40039,0-4.12012-1.64844-4.12012-3.97754,0-2.29297,1.71973-3.94043,4.12012-3.94043h5.48193v-1.00391c0-7.63086,4.94434-12.25293,13.00537-12.25293,3.40381,0,6.30566,.78809,8.02539,2.11426,1.07471,.82422,1.7915,2.07812,1.7915,3.40332,0,1.9707-1.32568,3.33203-3.26074,3.33203-.60889,0-1.21777-.21484-1.86279-.46582-.93164-.42969-2.11377-.9668-3.97705-.9668-3.33203,0-4.97998,1.71973-4.97998,4.97949v.86035h9.35107c2.40039,0,4.08447,1.64746,4.08447,3.94043,0,2.3291-1.68408,3.97754-4.08447,3.97754h-9.35107v27.76562c0,2.65137-1.7915,4.55078-4.40674,4.55078-2.54395,0-4.33496-1.89941-4.33496-4.55078Z"/><path class="cls-3" d="M211.74503,63.29606v31.95801c0,2.65137-1.82715,4.55078-4.40674,4.55078-2.54395,0-4.33545-1.89941-4.33545-4.55078v-.82324c-2.43604,3.6543-6.87891,5.625-12.28857,5.625-9.70947,0-16.08691-6.05566-16.08691-16.875v-19.91992c0-2.58008,1.82764-4.51465,4.37109-4.51465,2.57959,0,4.37109,1.9707,4.37109,4.51465v18.41504c0,6.98633,3.54688,10.35449,9.2793,10.35449,6.41309,0,10.354-4.44336,10.354-10.96387v-17.77051c0-2.68652,1.7915-4.5498,4.33545-4.5498,2.57959,0,4.40674,1.89844,4.40674,4.5498Z"/><path class="cls-3" d="M226.16495,95.25407V51.07926c0-2.65137,1.82715-4.51465,4.40674-4.51465,2.54395,0,4.33496,1.86328,4.33496,4.51465v44.1748c0,2.65137-1.79102,4.55078-4.33496,4.55078-2.57959,0-4.40674-1.89941-4.40674-4.55078Z"/><path class="cls-3" d="M246.48428,79.27555c0-12.14551,8.67041-20.78027,20.45801-20.78027,6.41309,0,11.32129,1.9707,14.25928,5.05176,2.04199,2.11426,3.36768,4.80078,3.36768,6.80762,0,2.18555-1.54053,3.79785-3.69043,3.79785-1.89844,0-3.08105-.78906-4.37061-2.47266-1.86328-3.04492-5.12354-5.08789-9.2793-5.08789-6.80762,0-11.75146,5.16016-11.75146,12.68359,0,7.48828,4.94385,12.68262,11.75146,12.68262,4.58594,0,7.70264-2.43652,9.52979-5.55273,1.18262-1.68457,2.22168-2.43652,4.08447-2.43652,2.11377,0,3.86963,1.6123,3.86963,3.86914,0,1.93457-1.36182,4.6582-3.29639,6.7002-3.08105,3.22461-8.24023,5.51758-14.47412,5.51758-11.7876,0-20.45801-8.63477-20.45801-20.78027Z"/><path class="cls-3" d="M300.64346,43.19743c3.15234,0,5.40967,2.32812,5.40967,5.37402,0,3.08105-2.25732,5.40918-5.40967,5.40918-3.15332,0-5.48193-2.32812-5.48193-5.40918,0-3.0459,2.32861-5.37402,5.48193-5.37402Zm-4.44287,52.05664v-31.95801c0-2.68652,1.82715-4.5498,4.40674-4.5498,2.54395,0,4.33496,1.86328,4.33496,4.5498v31.95801c0,2.65137-1.79102,4.55078-4.33496,4.55078-2.57959,0-4.40674-1.89941-4.40674-4.55078Z"/><path class="cls-3" d="M316.2294,79.27555c0-12.50391,8.77783-20.78027,20.99512-20.78027,12.25293,0,21.03076,8.27637,21.03076,20.78027,0,12.46777-8.77783,20.78027-21.03076,20.78027-12.21729,0-20.99512-8.3125-20.99512-20.78027Zm20.99512,12.68262c7.02246,0,12.00244-5.12305,12.00244-12.68262s-4.97998-12.68359-12.00244-12.68359c-7.02197,0-12.00195,5.12402-12.00195,12.68359s4.97998,12.68262,12.00195,12.68262Z"/></g></g></svg>