<?xml version="1.0" encoding="UTF-8"?>
<svg id="Layer_1" data-name="Layer 1" xmlns="http://www.w3.org/2000/svg" viewBox="0 0 400 125">
  <defs>
    <style>
      .cls-1 {
        fill: #faf7ef;
      }

      .cls-2 {
        fill: #5a9ecc;
      }

      .cls-3 {
        fill: #2e2f71;
      }
    </style>
  </defs>
  <g>
    <path class="cls-3" d="m173.6028266,15.7240004c-2.8586364,1.1103153-3.8052578,4.6475056-1.839429,6.9542382.2813333.3303914.3271375.5386381-.0625741.8119619-1.345594.944619-1.3576083,2.9479923-.387459,4.0588082.260809.298854.3001055.4004744-.0723357.6637863-2.0952321,1.4812547-1.7918727,4.1509173.563918,5.2191828,1.9665797.8920568,4.0583076.9080757,6.1482834.8399951,1.8436841-.0600712,3.6598355-.3183772,5.224439-1.4246877,1.2414707-.8780402,1.7598347-2.0954824,1.5856284-3.6012662-.169701-1.4697411-1.044237-2.3612973-2.3943364-2.8318547-1.4334481-.4990912-2.927468-.3258861-4.1964713-.3649323h-2.9590053c-.3794495-.0005006-.7528919-.0425504-1.0840342-.242287-.4320118-.2598078-.4885788-.661784-.3481624-1.0993023.1556844-.4855752.5025954-.4054803.9013177-.31237,1.9405488.4500331,3.8733385.4295088,5.7665813-.2362799,2.2271383-.7834281,3.647571-2.8558832,3.094666-4.9563715-.3233831-1.2279547-.1734555-1.9608228.7959429-2.739245.7248587-.5816891.7123439-1.3786332.2217627-1.9222772-.460045-.5091031-1.307549-.5516535-1.9998691-.0635753-.4587935.3238837-.8985645.6788041-1.3195632,1.0507447-.2247663.1982348-.3929655.2112503-.6813071.1101305-2.3252546-.8159666-4.6465044-.8124625-6.9579926.0856014Zm.8047033,13.0249297c.8670271.0325385,1.735556.0085101,2.6035843.0085101v.0220261h0c.8675277,0,1.7353057-.0010012,2.6030837.0005006.3804507.0005006.7458836.0825978,1.0797791.2623107.7508895.4039786.8445004,1.4331978.1621921,1.9302867-.2588066.188223-.5356345.3614282-.8647744.4450272-1.7580827.4480307-3.5311831.4560402-5.2937711.1026216-1.2504814-.2502965-1.7665928-1.0978005-1.3546047-2.0399165.1999869-.457542.4988409-.7528919,1.064511-.7313664Zm4.555897-10.9459669c.8875514.3569228,1.3861421,1.3085501,1.2945335,2.2942178-.0916085.9871694-.8352394,1.7545785-1.9748395,2.0053756-.3186275.070083-.6507709.0780925-1.0222109.1191411-.933606-.0350415-1.8922416-.1631933-2.5970766-.9286-.9846665-1.0687661-.5696749-2.8378618.8119619-3.4666066,1.148861-.5226191,2.3347658-.487077,3.4876315-.0235279Z"/>
    <path class="cls-3" d="m253.1075101,24.9964848c.3384009,1.7110269,1.0770259,3.2163101,2.4957065,4.2685567,2.9309721,2.1745761,6.1122407,2.2962202,9.3826149.9000662,1.1418527-.4875776,2.0476757-1.3325786,2.4699259-2.5610339.204242-.5932027.1256488-1.17339-.384956-1.6028988-.4935847-.4154922-1.0537483-.3273878-1.579371-.0770913-.31237.1491767-.6304969.3464104-.86102.5992098-1.1621267,1.2765122-2.6456341,1.5293117-4.2500347,1.3551053-2.1160067-.2307734-3.7018854-1.5798716-3.9792139-3.298908-.0593203-.3684365-.0330391-.5231197.4104863-.5151102,1.5523389.0285338,3.1051785.011013,4.6577677.011013s3.1051785.011013,4.6577677-.0035042c1.1498622-.0115136,1.6754848-.4830723,1.7951266-1.6234232.0941115-.8970627-.0347912-1.7886188-.3203795-2.634621-.9338563-2.7642746-2.9084454-4.3061011-5.7725884-4.6685305-3.0598748-.387459-5.718274.4134898-7.5376793,3.0431049-1.4211836,2.0544337-1.66297,4.3866966-1.1841528,6.808065Zm3.3739969-4.4823099c.5929524-1.8481894,2.2519177-2.8608891,4.4059694-2.6906875,1.8682131.1481755,3.1677526,1.1939143,3.5809921,2.8408654.1233962.4925835.0843499.7093403-.516612.6843107-1.1496119-.0470557-2.3024776-.013516-3.4540918-.013516s-2.3029782.002503-3.4545924-.0010012c-.7451327-.002503-.7979453-.083599-.5616654-.8199714Z"/>
    <path class="cls-3" d="m227.0919413,15.0587123c-4.6114629.0215255-7.8983566,3.3865118-7.8545547,8.0400244.0443025,4.7020702,3.3377039,7.959429,8.0272593,7.9399058,4.9168246-.0205243,8.1421454-3.2453445,8.1228726-8.1211205-.0187722-4.7316052-3.3442116-7.8823376-8.2955772-7.8588098Zm.1376631,12.8497221c-2.673417-.0260308-4.5999492-2.1225144-4.5466361-4.9478614.0528126-2.7963126,2.0236473-4.8287202,4.6462541-4.7916764,2.752761.0385457,4.6855506,2.1165073,4.6124641,4.9578732-.0740878,2.8814134-1.9723365,4.8076953-4.7120821,4.7816645Z"/>
    <path class="cls-3" d="m189.5594793,28.9942206c1.5550922,1.5858787,3.5431974,2.0053756,5.0787664,2.0379142,1.8164018-.0010012,3.0143208-.1772099,4.1424072-.7073379,2.8471228-1.3380851,3.5584655-5.2216858,1.3273224-7.3011491-.6112241-.5691743-1.3621136-.8910556-2.1590577-1.1268349-1.3761302-.4079833-2.8268488-.4880782-4.1852079-.9656439-.7949417-.2793309-1.212186-.8299832-1.1956664-1.5428277.0155184-.6657887.4500331-1.2269535,1.2624956-1.4091693,1.3823876-.3098671,2.693691-.1491767,3.8520633.7754186.4925835.3934661.9123308.8875514,1.5152951,1.1373473.5321304.2197603,1.0387305.2427876,1.5092879-.1516797.4730604-.3969703.5559085-.9125811.4119881-1.4692405-.1304045-.5045978-.3789489-.9556321-.7436309-1.3400875-1.0039393-1.057753-2.2924657-1.5288111-3.6866173-1.7335536-2.0394159-.2993546-4.0427892-.2392835-5.822898.9791599-2.2624301,1.5488348-2.4146104,4.8717712-.3103677,6.6123332.9293509.7684103,2.0654468,1.0672643,3.2193137,1.321065,1.0051908.2212621,2.0491775.2958505,3.0035581.7173498.8229749.3634305,1.223199,1.0137009,1.1290875,1.7575821-.0973653.7704127-.6014625,1.2980377-1.4982749,1.4617316-1.7443164.3183772-3.3106719-.0425504-4.5996989-1.3250697-.3509157-.3494139-.7038338-.6958243-1.1458574-.9265977-.4915823-.2573048-1.0109476-.2603084-1.47725.0200237-.4880782.2928469-.6515218.788434-.5901992,1.3435917.0815967.7333688.4653012,1.3275727.963141,1.8356746Z"/>
    <path class="cls-3" d="m152.2878263,28.0145601c-1.5873805.3368991-3.0778962.1351601-4.3581628-.9611386-.4099857-.3514163-.8059548-.7198528-1.2199452-1.0662631-.5206167-.4355159-1.3178111-.5086025-1.8391787-.1491767-.5841921.4014756-.6577792.9906736-.4940853,1.6234232.1371625.5296274.4119881.98767.7844293,1.3956533,1.5896331,1.7415631,3.6798593,2.1200114,5.8887259,2.1370316.3053617,0,.6139773.0300356.9153343-.0045053,1.9948632-.2297722,3.7534464-.8640235,4.7200916-2.8198405.9561327-1.9342914.4375183-4.257043-1.2705051-5.4814935-.9348575-.6707946-2.0509296-.8965621-3.1549875-1.1323414-1.0059417-.215255-2.0466745-.2793309-3.0028072-.7138456-.6497697-.2953499-.990173-.7819263-.9551315-1.4927684.0365433-.7328682.4915823-1.1548681,1.1576214-1.3365834,1.1741409-.3208801,2.3049805-.2227639,3.3910171.3819525.6470165.3599264,1.1180745.9306024,1.726295,1.3295751.5741802.3764459,1.186906.4770651,1.7776058.0740878.5881968-.400975.6345016-1.0157032.4560402-1.6354374-.2590569-.901568-.8657756-1.5438289-1.6664742-2.0003697-2.2056128-1.2574897-4.5591509-1.4066664-6.9512346-.7548943-2.6176009.7138456-3.9902269,3.1962864-3.1682532,5.6086442.5656701,1.6609676,1.9242796,2.4208678,3.5018984,2.8428677,1.2922809.3454092,2.61685.5701754,3.9053764.9270983.8109607.2247663,1.2254517.9195894,1.1889084,1.7125287-.0345409.7423794-.5136084,1.3415893-1.3325786,1.5157957Z"/>
    <path class="cls-3" d="m205.054335,18.4582394c.6044661.0685812,1.2196949.075089,1.8289166.0600712.3959691-.0095113.5283759.1096299.520867.5156108-.0235279,1.2695039-.0085101,2.5395084-.0085101,3.8095129.0002503,1.2229487-.0200237,2.4463981.0057568,3.6683456.0282835,1.3435917.4612965,2.5470173,1.520301,3.4180491,1.6617185,1.3666189,3.5204204,1.3511006,5.439694.6332502.9751552-.3649323,1.78111-.9456202,2.22013-1.9247801.2843368-.6347519.2377817-1.2720069-.2938481-1.746569-.5341327-.4770651-1.1563699-.4310106-1.7530767-.0570676-.3559216.2232645-.6928207.4815705-1.0642608.6732976-1.4632334.7558955-2.6846803.0490581-2.6994478-1.5783698-.0205243-2.2812024.0097616-4.5629053-.0172705-6.8436071-.0060071-.5025954.1967331-.575682.620485-.5656701,1.0109476.0220261,2.0228964.0080095,3.0343446.0065077.4520355-.0005006.9095775-.0380451,1.2742595-.3248849.4965883-.3904626.7206036-.9115799.5814388-1.5553425-.1406666-.6512715-.55716-1.0562513-1.1974185-1.1213284-.7458836-.0765907-1.5022796-.0415492-2.2539201-.0690818-.6532739-.0235279-1.493269.271822-1.9095121-.1141352-.4245029-.3944673-.088605-1.2449748-.1366619-1.8932428-.0207746-.2808327-.0077592-.5656701-.0468054-.8434992-.1324069-.9426167-.840746-1.5468324-1.7255441-1.4917672-.947122.0595706-1.5823745.7333688-1.5966414,1.7115275-.0100119.7053356-.0215255,1.4121729.0055065,2.1165073.0152681.3914637-.0946121.5411411-.5086025.5261233-.6092217-.0210249-1.2244505-.0140166-1.8301681.0490581-.7701624.0800949-1.3403378.7378741-1.3350816,1.4527209.0060071.7729156.5283759,1.3976557,1.3250697,1.4887636Z"/>
    <path class="cls-3" d="m240.3726741,30.6546877c.5581612.3724412,1.1496119.3769465,1.7375584.0891056.6442632-.3153736.8780402-.8850485.8795419-1.5648538.0045053-2.1405357.0015018-4.2815721.0017521-6.4221078,0-.8039524.0853511-1.5953899.362179-2.3557907.2793309-.7679097.6948231-1.4482156,1.4437103-1.8346734,1.0512453-.5426428,1.889238-.3263866,2.9615083.6988279.5251221.5020948,1.1053094.7338694,1.8546971.4955871.659281-.2107497.9321042-.6823083,1.0382299-1.2900282.1364116-.7799239-.0620735-1.4857601-.562166-2.1059948-.698077-.8660259-1.6439475-1.2074304-2.7132141-1.2940329-1.7395607-.1406666-3.1662508.4690557-4.297591,1.8717173-.0470557-.129153-.075089-.1827165-.0866026-.2397841-.2327758-1.1423533-.8399951-1.6339356-1.8872357-1.5268087-.9028195.0926097-1.4782512.7809251-1.4800033,1.8266639-.0072586,4.0227655-.0047556,8.045531-.0012515,12.0682964.0005006.6402585.18572,1.2079309.7488872,1.5838763Z"/>
    <path class="cls-3" d="m163.4933507,15.1638368c-.9411149-.0085101-1.6807411.6392573-1.685747,1.6079048-.0225267,4.1634321-.0187722,8.3268642-.0012515,12.4902964.0037544.847504.5634174,1.4947707,1.284772,1.6299309,1.1568705.2172574,2.0499284-.4815705,2.0654468-1.6829937.0260308-2.0464243.0070083-4.0928485.0070083-6.1392728-.0005006-2.0699521.0205243-4.1404048-.0090107-6.2098564-.0150178-1.0617578-.6717958-1.6869985-1.6612179-1.6960091Z"/>
    <path class="cls-3" d="m163.5136247,9.1522153c-1.1844031-.011013-2.1300233.9145834-2.1220138,2.077461.0080095,1.1793971.9113296,2.0634444,2.1180091,2.0724551,1.1516142.0090107,2.0709533-.8870508,2.0779616-2.0243982.0075089-1.1874066-.8970627-2.1145049-2.0739569-2.1255179Z"/>
  </g>
  <g>
    <path class="cls-3" d="m140.9930642,79.2752581c0-12.1455078,8.6704102-20.7802734,20.4580078-20.7802734,6.4130859,0,11.3212891,1.9707031,14.2592773,5.0517578,2.0419922,2.1142578,3.3676758,4.8007812,3.3676758,6.8076172,0,2.1855469-1.5405273,3.7978516-3.6904297,3.7978516-1.8984375,0-3.0810547-.7890625-4.3706055-2.4726562-1.8632812-3.0449219-5.1235352-5.0878906-9.2792969-5.0878906-6.8076172,0-11.7514648,5.1601562-11.7514648,12.6835938,0,7.4882812,4.9438477,12.6826172,11.7514648,12.6826172,4.5859375,0,7.7026367-2.4365234,9.5297852-5.5527344,1.1826172-1.6845703,2.2216797-2.4365234,4.0844727-2.4365234,2.1137695,0,3.8696289,1.6123047,3.8696289,3.8691406,0,1.9345703-1.3618164,4.6582031-3.2963867,6.7001953-3.0810547,3.2246094-8.2402344,5.5175781-14.4741211,5.5175781-11.7875977,0-20.4580078-8.6347656-20.4580078-20.7802734Z"/>
    <path class="cls-3" d="m187.7137674,79.2752581c0-12.5039062,8.777832-20.7802734,20.9951172-20.7802734,12.2529297,0,21.0307617,8.2763672,21.0307617,20.7802734,0,12.4677734-8.777832,20.7802734-21.0307617,20.7802734-12.2172852,0-20.9951172-8.3125-20.9951172-20.7802734Zm20.9951172,12.6826172c7.0224609,0,12.0024414-5.1230469,12.0024414-12.6826172s-4.9799805-12.6835938-12.0024414-12.6835938c-7.0219727,0-12.0019531,5.1240234-12.0019531,12.6835938s4.9799805,12.6826172,12.0019531,12.6826172Z"/>
    <path class="cls-3" d="m241.3133767,95.1463519c-1.7553711-1.6113281-2.9736328-3.8691406-2.9736328-5.6962891,0-2.078125,1.3974609-3.546875,3.5825195-3.546875,1.4692383,0,2.5083008.609375,4.2636719,2.4365234,2.7944336,3.0097656,5.9116211,4.2636719,9.7807617,4.2636719,4.15625,0,6.6640625-1.6123047,6.6640625-4.5507812,0-2.5429688-1.6835938-4.2275391-5.1230469-4.8720703l-6.1625977-1.2539062c-7.703125-1.5410156-11.6796875-5.5175781-11.6796875-11.3935547,0-7.4882812,5.9829102-12.0380859,15.3701172-12.0380859,5.0512695,0,9.565918,1.2539062,12.503418,3.5107422,2.1855469,1.6484375,3.5830078,3.9052734,3.5830078,6.0556641,0,2.0058594-1.5048828,3.4746094-3.4750977,3.4746094-1.5405273,0-2.8305664-.9306641-4.5859375-2.5429688-2.2929688-2.3652344-5.1591797-3.296875-8.2045898-3.296875-3.762207,0-6.1625977,1.5771484-6.1625977,4.1923828,0,2.4003906,1.8271484,3.9404297,5.4458008,4.5859375l6.4848633,1.2890625c7.4165039,1.5048828,11.0708008,5.3027344,11.0708008,11.4296875,0,8.0605469-6.0908203,12.8623047-16.0507812,12.8623047-6.0908203,0-11.4291992-1.8994141-14.3310547-4.9091797Z"/>
    <path class="cls-3" d="m288.3446267,43.1971331c3.1523438,0,5.409668,2.328125,5.409668,5.3740234,0,3.0810547-2.2573242,5.4091797-5.409668,5.4091797-3.1533203,0-5.4819336-2.328125-5.4819336-5.4091797,0-3.0458984,2.3286133-5.3740234,5.4819336-5.3740234Zm-4.4428711,52.0566406v-31.9580078c0-2.6865234,1.8271484-4.5498047,4.4067383-4.5498047,2.5439453,0,4.3349609,1.8632812,4.3349609,4.5498047v31.9580078c0,2.6513672-1.7910156,4.5507812-4.3349609,4.5507812-2.5795898,0-4.4067383-1.8994141-4.4067383-4.5507812Z"/>
    <path class="cls-3" d="m304.5570291,99.0164691c0-3.2246094,1.9707031-5.6611328,4.8725586-7.0224609-1.7915039-1.4335938-2.8300781-3.4755859-2.8300781-5.9121094,0-2.7578125,1.2177734-4.9082031,3.9765625-6.5917969-2.4003906-2.1142578-3.7260742-5.015625-3.7260742-8.4550781,0-7.6669922,6.5566406-12.5400391,16.8032227-12.5400391,3.8334961,0,7.1655273.6806641,9.7807617,1.9345703l3.5473633-2.9736328c1.0029297-.8242188,2.2211914-1.3613281,3.3676758-1.3613281,1.8989258,0,3.3320312,1.5048828,3.3320312,3.1533203,0,1.2539062-.7167969,2.5078125-1.9350586,3.6181641l-2.7944336,2.4365234c.9672852,1.6474609,1.4692383,3.5820312,1.4692383,5.7324219,0,7.703125-6.4848633,12.5390625-16.7675781,12.5390625-2.9736328,0-5.6606445-.3935547-7.9179688-1.1816406-.7880859.5732422-1.1821289,1.2177734-1.1821289,2.0419922,0,1.6123047,1.2895508,2.6513672,3.5112305,2.6513672h12.6826172c8.2045898,0,12.6831055,3.4394531,12.6831055,9.6728516,0,7.5595703-7.3447266,11.7880859-20.421875,11.7880859-11.9306641,0-18.4511719-3.2607422-18.4511719-9.5302734Zm18.8452148,2.9013672c7.2373047,0,10.9990234-1.5761719,10.9990234-4.3710938,0-2.2568359-1.7553711-3.4033203-5.3740234-3.4033203h-12.2172852c-.5371094,0-1.0385742-.0361328-1.5405273-.0712891-1.3256836.8955078-2.0063477,2.0419922-2.0063477,3.5107422,0,2.9384766,3.2602539,4.3349609,10.1391602,4.3349609Zm.3583984-24.7919922c4.8725586,0,7.9179688-2.3652344,7.9179688-6.1630859,0-3.8330078-3.0454102-6.1982422-7.9179688-6.1982422-4.9443359,0-8.0610352,2.4013672-8.0610352,6.1982422,0,3.7978516,3.1166992,6.1630859,8.0610352,6.1630859Z"/>
    <path class="cls-3" d="m355.4193338,95.2537737v-31.9580078c0-2.6865234,1.8271484-4.5498047,4.4067383-4.5498047,2.5439453,0,4.3349609,1.8632812,4.3349609,4.5498047v.7880859c2.4365234-3.6181641,6.8789062-5.5888672,12.2890625-5.5888672,9.7094727,0,16.0864258,6.0546875,16.0864258,16.8388672v19.9199219c0,2.6162109-1.8271484,4.5507812-4.3706055,4.5507812-2.5795898,0-4.3710938-1.9707031-4.3710938-4.5507812v-18.3789062c0-6.9863281-3.546875-10.3544922-9.2792969-10.3544922-6.4130859,0-10.3544922,4.4072266-10.3544922,10.9638672v17.7695312c0,2.6513672-1.7910156,4.5507812-4.3349609,4.5507812-2.5795898,0-4.4067383-1.8994141-4.4067383-4.5507812Z"/>
  </g>
  <g>
    <path class="cls-1" d="m18.8335794,45.1312151c-.2819824.2368164-.5772095.4802246-.7871094.7770996-5.5400391,7.8378906-5.963501,16.0563965-1.7913208,24.6013184.1445312.2958984.1744995.8955078.6369629.7495117.4475708-.1411133.3234253-.6958008.2644043-1.0898438-.2091064-1.3942871-.4000854-2.7937012-.6747437-4.1757812-1.1710205-5.8945312-.6853027-11.5917969,1.9140015-17.0634766.3968506-.8352051.6983032-1.7172852,1.020752-2.5859375.1447754-.390625.177002-.7978516-.0599365-1.1450195-.1777954-.1933594-.3771973-.1899414-.5230103-.0678711Z"/>
    <path class="cls-1" d="m76.4122537,10.3157855c.8335571.2570801,1.664978.5258789,2.5092773.7431641,3.6004639.927002,6.6469116,2.7248535,9.0009766,5.640625.359375.4448242.7702026.8496094,1.168335,1.2619629.178833.1855469.3973389.3127441.6543579.2734375.1555176-.0471191.2070923-.1591797.1779785-.2731934-.0563965-.2207031-.112915-.4504395-.222229-.6469727-2.8853149-5.1899414-7.3543091-7.6286621-13.2368164-7.5927734-.2037964.0012207-.5460815-.1425781-.5886841.1540527-.0411987.2873535.3013306.3671875.5368042.4396973Z"/>
    <path class="cls-1" d="m105.1050027,62.0340472c.163147-21.7119141-15.2355347-40.8850098-36.1751709-45.2524414-23.3215942-4.8649902-42.4655151,8.4853516-49.3034668,22.1425781,1.496521-1.8442383,2.7498169-3.6088867,4.2210693-5.1677246,12.1602783-12.8837891,29.5657349-17.5368652,45.5683594-13.6147461,6.8934326,1.6894531,13.5281982,4.9604492,19.3685303,9.8664551,10.4701538,8.7949219,15.7736206,22.2143555,14.6230469,35.3530273-.3206177,3.6616211-1.1417847,7.3012695-2.4928589,10.8129883-7.6157227,19.7946777-28.7977905,31.4790039-50.5445557,27.7958984-11.9971924-2.0322266-21.7636719-7.9013672-29.3483276-17.453125,6.7340698,12.6591797,25.4223633,24.2209473,45.7973633,20.5454102,22.3269653-4.0273438,38.118042-22.6845703,38.2860107-45.0283203Z"/>
    <path class="cls-1" d="m104.9778665,85.519887c-.4285889-.1914062-.7036133.3061523-.9206543.6401367-.7685547,1.182373-1.5537109,2.355957-2.2650146,3.5727539-3.0332642,5.1879883-7.1756592,9.1293945-12.7501221,11.5002441-.8509521.3618164-1.661499.8217773-2.4790039,1.2580566-.3673706.1962891-.6616821.4794922-.7146606.8967285.0048218.2624512.15625.392334.3464355.3972168.368042.0100098.7503662.0239258,1.1044312-.059082,9.3447266-2.1911621,15.112915-8.060791,17.6580811-17.2226562.0881958-.3173828.4633789-.7858887.0205078-.9833984Z"/>
    <path class="cls-2" d="m109.0418924,41.4820452c-7.100769-6.0888672-7.9071655-9.5507812-10.3548584-19.015625-2.6619263-10.2941895-16.9299927-19.2294922-27.3804321-16.9968262-8.0006104,1.7094727-15.8115234,2.1591797-23.7595215.2648926-.8413086-.2004395-1.7322998-.2233887-2.6032104-.2626953-4.2260742-.1911621-7.663208,1.347168-10.2867432,4.6999512-1.5772095,2.0158691-2.961853,4.1655273-4.1110229,6.434082-3.048645,6.0185547-7.7230835,10.2897949-13.6537476,13.3623047-2.7096558,1.4038086-5.385498,2.9226074-7.8926392,4.65625-3.8612061,2.6691895-7.0163574,5.9614258-7.6196899,10.9406738-.4396973,3.6276855.6728516,6.9763184,2.3781128,10.048584,3.1351318,5.6479492,4.6774902,11.5854492,4.0576172,17.4433594,0,2.4206543-.0651855,4.2441406.0117798,6.0617676.2650757,6.2590332,1.7304688,11.9863281,7.2492676,15.8515625,2.0961914,1.4682617,4.3218384,2.7392578,6.675293,3.697998,6.8986206,2.8095703,12.4552612,7.1447754,16.2451172,13.6447754.5064087.8684082,1.2446289,1.6140137,1.9368896,2.359375,3.1467285,3.3884277,7.0062256,5.0959473,11.6685181,4.942627,3.4735718-.1142578,6.7943115-.9423828,9.9241333-2.3574219,9.3667603-4.2351074,18.8435669-7.8881836,29.1243286-9.5373535,7.2749634-1.1672363,12.0172119-6.1279297,14.5369873-13.1069336.8239136-2.2819824,1.2300415-4.6474609,1.5775146-7.017334.6915283-4.7163086,2.9851685-8.2839355,7.1491089-10.6445312.9477539-.5375977,1.3181763-1.1594238,2.2012329-1.800293,3.1641846-2.2956543,5.0458374-5.3869629,5.6109009-9.260498.5878906-4.0300293-.2290649-7.8166504-2.0206909-11.4313965-2.6206055-5.2871094-6.2943115-9.2304688-10.6642456-12.9772949Zm-32.5777588-31.7600098c5.8825073-.0358887,10.3515015,2.402832,13.2368164,7.5927734.109314.1965332.1658325.4262695.222229.6469727.0291138.1140137-.0224609.2260742-.1779785.2731934-.257019.0393066-.4755249-.0878906-.6543579-.2734375-.3981323-.4123535-.80896-.8171387-1.168335-1.2619629-2.3540649-2.9157715-5.4005127-4.713623-9.0009766-5.640625-.8442993-.2172852-1.6757202-.486084-2.5092773-.7431641-.2354736-.0725098-.5780029-.1523438-.5368042-.4396973.0426025-.2966309.3848877-.152832.5886841-.1540527ZM19.4165262,46.3441058c-.3224487.8686523-.6239014,1.7507324-1.020752,2.5859375-2.5993042,5.4716797-3.085022,11.1689453-1.9140015,17.0634766.2746582,1.3820801.4656372,2.7814941.6747437,4.1757812.059021.394043.1831665.9487305-.2644043,1.0898438-.4624634.1459961-.4924316-.4536133-.6369629-.7495117-4.1721802-8.5449219-3.7487183-16.7634277,1.7913208-24.6013184.2098999-.296875.505127-.5402832.7871094-.7770996.145813-.1220703.3452148-.1254883.5230103.0678711.2369385.347168.2047119.7543945.0599365,1.1450195Zm1.6051025,40.1728516c7.5846558,9.5517578,17.3511353,15.4208984,29.3483276,17.453125,21.7467651,3.6831055,42.928833-8.0012207,50.5445557-27.7958984,1.3510742-3.5117188,2.1722412-7.1513672,2.4928589-10.8129883,1.1505737-13.1386719-4.1528931-26.5581055-14.6230469-35.3530273-5.840332-4.9060059-12.4750977-8.177002-19.3685303-9.8664551-16.0026245-3.9221191-33.4080811.730957-45.5683594,13.6147461-1.4712524,1.5588379-2.7245483,3.3234863-4.2210693,5.1677246,6.8379517-13.6572266,25.9818726-27.0075684,49.3034668-22.1425781,20.9396362,4.3674316,36.3383179,23.5405273,36.1751709,45.2524414-.1679688,22.34375-15.9590454,41.0009766-38.2860107,45.0283203-20.375,3.6755371-39.0632935-7.8862305-45.7973633-20.5454102Zm53.9451904-24.2729492l-1.4141846.942627c-.9428711.7072754-2.3570557.4711914-3.0641479-.4714355l-13.6706543-18.855957c-.7073364-.9431152-.4715576-2.3571777.4713135-3.0644531l1.4141235-.9428711c.9428711-.7072754,2.3570557-.4709473,3.0641479.4716797l13.6709595,18.8564453c.7068481.942627.4713135,2.3566895-.4715576,3.0639648Zm4.2427368,4.0068359c.7070923-.4716797,1.4141846-.2358398,1.4141846.7072754l.4713135,4.7141113c0,.942627-.7070923,1.4140625-1.4141846.942627l-4.2424927-2.1208496c-.7073364-.4716797-.7073364-1.1789551,0-1.6501465l3.7711792-2.5930176Zm-12.2567139,1.8857422c1.1786499.4711914,1.6499023,2.1210938,1.1786499,3.2998047-.7070923,1.4143066-2.3570557,1.8857422-3.5354614,1.1784668-4.9498901-2.5925293-8.2497559-1.4140625-12.2565308-.2358398-1.8857422.7072754-3.5357056,1.1784668-5.6572266,1.4143066h-1.4141235c-1.885498,0-4.0067749-.4711914-6.3640747-1.4143066-1.1784058-.4714355-1.885498-1.8850098-1.4141846-3.2998047.4715576-1.1784668,1.8857422-1.8852539,3.2999268-1.4143066,2.121521.7075195,4.007019,1.1789551,5.4212036.9428711,1.6499023-.2353516,3.0643311-.7070312,4.7140503-1.1784668,4.4785767-1.1784668,9.4281616-2.8283691,16.027771.7072754Zm38.0045166,18.3666992c-2.545166,9.1618652-8.3133545,15.0314941-17.6580811,17.2226562-.3540649.0830078-.7363892.0690918-1.1044312.059082-.1901855-.0048828-.3416138-.1347656-.3464355-.3972168.0529785-.4172363.34729-.7004395.7146606-.8967285.8175049-.4362793,1.6280518-.8962402,2.4790039-1.2580566,5.5744629-2.3708496,9.7168579-6.3122559,12.7501221-11.5002441.7113037-1.2167969,1.49646-2.3903809,2.2650146-3.5727539.217041-.3339844.4920654-.831543.9206543-.6401367.4428711.1975098.067688.6660156-.0205078.9833984Z"/>
    <path class="cls-1" d="m61.7674173,40.323598c-.7070923-.942627-2.1212769-1.1789551-3.0641479-.4716797l-1.4141235.9428711c-.9428711.7072754-1.1786499,2.1213379-.4713135,3.0644531l13.6706543,18.855957c.7070923.942627,2.1212769,1.1787109,3.0641479.4714355l1.4141846-.942627c.9428711-.7072754,1.1784058-2.1213379.4715576-3.0639648l-13.6709595-18.8564453Z"/>
    <path class="cls-1" d="m46.2110208,68.6077776c-1.4141846.236084-3.2996826-.2353516-5.4212036-.9428711-1.4141846-.4709473-2.8283691.2358398-3.2999268,1.4143066-.4713135,1.4147949.2357788,2.8283691,1.4141846,3.2998047,2.3572998.9431152,4.4785767,1.4143066,6.3640747,1.4143066h1.4141235c2.121521-.2358398,3.7714844-.7070312,5.6572266-1.4143066,4.0067749-1.1782227,7.3066406-2.3566895,12.2565308.2358398,1.1784058.7072754,2.8283691.2358398,3.5354614-1.1784668.4712524-1.1787109,0-2.8286133-1.1786499-3.2998047-6.5996094-3.5356445-11.5491943-1.8857422-16.027771-.7072754-1.6497192.4714355-3.0641479.9431152-4.7140503,1.1784668Z"/>
    <path class="cls-1" d="m75.4383767,70.4940081l4.2424927,2.1208496c.7070923.4714355,1.4141846,0,1.4141846-.942627l-.4713135-4.7141113c0-.9431152-.7070923-1.1789551-1.4141846-.7072754l-3.7711792,2.5930176c-.7073364.4711914-.7073364,1.1784668,0,1.6501465Z"/>
  </g>
</svg>