<?xml version="1.0" encoding="UTF-8" standalone="no"?>
<!DOCTYPE svg PUBLIC "-//W3C//DTD SVG 1.1//EN" "http://www.w3.org/Graphics/SVG/1.1/DTD/svg11.dtd">
<!-- Generated by graphviz version 2.40.1 (20161225.0304)
 -->
<!-- Title: G Pages: 1 -->
<svg width="1046pt" height="364pt" viewBox="0.00 0.00 1046.16 363.79" xmlns="http://www.w3.org/2000/svg" xmlns:xlink="http://www.w3.org/1999/xlink">
<g id="graph0" class="graph" transform="scale(1 1) rotate(0) translate(4 359.7932)">
<title>G</title>
<polygon fill="#ffffff" stroke="transparent" points="-4,4 -4,-359.7932 1042.1551,-359.7932 1042.1551,4 -4,4"/>
<!-- tuf -->
<g id="node1" class="node">
<title>tuf</title>
<ellipse fill="none" stroke="#ff0000" cx="954.4308" cy="-179.9932" rx="83.9493" ry="18"/>
<text text-anchor="middle" x="954.4308" y="-175.7932" font-family="Times,serif" font-size="14.00" fill="#000000">TUF Root of Trust</text>
</g>
<!-- client -->
<g id="node2" class="node">
<title>client</title>
<ellipse fill="none" stroke="#000000" cx="34.6429" cy="-157.9932" rx="34.7864" ry="18"/>
<text text-anchor="middle" x="34.6429" y="-153.7932" font-family="Times,serif" font-size="14.00" fill="#000000">Client</text>
</g>
<!-- tuf&#45;&gt;client -->
<g id="edge9" class="edge">
<title>tuf-&gt;client</title>
<path fill="none" stroke="#000000" d="M911.9197,-195.7095C893.895,-201.7569 872.5134,-208.1314 852.7064,-211.9932 591.1498,-262.9893 520.528,-241.3119 254.0874,-245.9932 179.9648,-247.2955 151.7733,-282.5613 87.2858,-245.9932 64.6614,-233.1639 50.7151,-206.3181 42.9103,-185.6318"/>
<polygon fill="#000000" stroke="#000000" points="46.1674,-184.3428 39.561,-176.0599 39.5602,-186.6547 46.1674,-184.3428"/>
<text text-anchor="middle" x="464.2733" y="-250.1932" font-family="Times,serif" font-size="14.00" fill="#000000">(2) Root key material</text>
</g>
<!-- client&#45;&gt;tuf -->
<g id="edge8" class="edge">
<title>client-&gt;tuf</title>
<path fill="none" stroke="#000000" d="M36.3772,-175.9816C40.1418,-203.8491 51.8217,-256.6711 87.2858,-279.9932 318.4957,-432.0426 433.2245,-278.7717 709.867,-271.9932 773.357,-270.4375 793.5088,-290.9941 852.7064,-267.9932 885.7107,-255.1696 915.305,-226.6647 933.9502,-205.5534"/>
<polygon fill="#000000" stroke="#000000" points="936.6861,-207.7397 940.5443,-197.8724 931.3748,-203.18 936.6861,-207.7397"/>
<text text-anchor="middle" x="464.2733" y="-343.1932" font-family="Times,serif" font-size="14.00" fill="#000000">(1) TUF update</text>
</g>
<!-- idp -->
<g id="node3" class="node">
<title>idp</title>
<ellipse fill="none" stroke="#ff0000" cx="464.2733" cy="-215.9932" rx="102.5092" ry="18"/>
<text text-anchor="middle" x="464.2733" y="-211.7932" font-family="Times,serif" font-size="14.00" fill="#000000">OIDC Identity Provider</text>
</g>
<!-- client&#45;&gt;idp -->
<g id="edge10" class="edge">
<title>client-&gt;idp</title>
<path fill="none" stroke="#ff0000" d="M51.6846,-174.175C61.342,-182.2829 74.1049,-191.3437 87.2858,-195.9932 177.4937,-227.8137 287.3744,-229.8525 365.1772,-225.7247"/>
<polygon fill="#ff0000" stroke="#ff0000" points="365.6755,-229.202 375.4581,-225.1336 365.2736,-222.2135 365.6755,-229.202"/>
<text text-anchor="middle" x="170.6866" y="-229.1932" font-family="Times,serif" font-size="14.00" fill="#000000">(3) Log in with account</text>
</g>
<!-- fulcio -->
<g id="node4" class="node">
<title>fulcio</title>
<ellipse fill="none" stroke="#ff0000" cx="307.8032" cy="-133.9932" rx="35.9329" ry="18"/>
<text text-anchor="middle" x="307.8032" y="-129.7932" font-family="Times,serif" font-size="14.00" fill="#000000">Fulcio</text>
</g>
<!-- client&#45;&gt;fulcio -->
<g id="edge12" class="edge">
<title>client-&gt;fulcio</title>
<path fill="none" stroke="#000000" d="M61.5083,-146.5384C69.6419,-143.5814 78.6979,-140.7852 87.2858,-139.1932 147.0202,-128.1201 217.4043,-128.774 262.2994,-130.8729"/>
<polygon fill="#000000" stroke="#000000" points="262.1439,-134.3694 272.3096,-131.3848 262.5015,-127.3786 262.1439,-134.3694"/>
<text text-anchor="middle" x="170.6866" y="-143.1932" font-family="Times,serif" font-size="14.00" fill="#000000">(5) Request certificate</text>
</g>
<!-- rekor -->
<g id="node6" class="node">
<title>rekor</title>
<ellipse fill="none" stroke="#ff0000" cx="307.8032" cy="-57.9932" rx="34.7709" ry="18"/>
<text text-anchor="middle" x="307.8032" y="-53.7932" font-family="Times,serif" font-size="14.00" fill="#000000">Rekor</text>
</g>
<!-- client&#45;&gt;rekor -->
<g id="edge16" class="edge">
<title>client-&gt;rekor</title>
<path fill="none" stroke="#000000" d="M39.9131,-140.0622C47.008,-119.4766 61.7804,-86.5759 87.2858,-71.1932 141.787,-38.3229 218.2931,-42.5214 265.373,-49.5424"/>
<polygon fill="#000000" stroke="#000000" points="265.1001,-53.0432 275.5278,-51.169 266.2073,-46.1313 265.1001,-53.0432"/>
<text text-anchor="middle" x="170.6866" y="-76.1932" font-family="Times,serif" font-size="14.00" fill="#000000">(9) Signature</text>
</g>
<!-- idp&#45;&gt;tuf -->
<!-- idp&#45;&gt;client -->
<g id="edge11" class="edge">
<title>idp-&gt;client</title>
<path fill="none" stroke="#000000" d="M397.6488,-202.2068C346.8901,-191.8647 281.2522,-178.8822 254.0874,-175.1932 193.965,-167.0286 124.0093,-162.3754 79.5437,-160.0186"/>
<polygon fill="#000000" stroke="#000000" points="79.5255,-156.5131 69.3591,-159.4954 79.1663,-163.5039 79.5255,-156.5131"/>
<text text-anchor="middle" x="170.6866" y="-179.1932" font-family="Times,serif" font-size="14.00" fill="#000000">(4) OIDC Token</text>
</g>
<!-- fulcio&#45;&gt;tuf -->
<!-- fulcio&#45;&gt;client -->
<g id="edge15" class="edge">
<title>fulcio-&gt;client</title>
<path fill="none" stroke="#000000" d="M284.8393,-120.1709C275.6189,-115.3786 264.6792,-110.605 254.0874,-108.1932 181.8036,-91.7341 156.1637,-80.7761 87.2858,-108.1932 74.1888,-113.4065 62.4718,-123.5963 53.4358,-133.4076"/>
<polygon fill="#000000" stroke="#000000" points="50.6834,-131.2396 46.7888,-141.0926 55.9778,-135.8189 50.6834,-131.2396"/>
<text text-anchor="middle" x="170.6866" y="-112.1932" font-family="Times,serif" font-size="14.00" fill="#000000">(8) Certificate + SCT</text>
</g>
<!-- ctlog -->
<g id="node5" class="node">
<title>ctlog</title>
<ellipse fill="none" stroke="#ff0000" cx="647.4473" cy="-69.9932" rx="41.1941" ry="18"/>
<text text-anchor="middle" x="647.4473" y="-65.7932" font-family="Times,serif" font-size="14.00" fill="#000000">CT Log</text>
</g>
<!-- fulcio&#45;&gt;ctlog -->
<g id="edge13" class="edge">
<title>fulcio-&gt;ctlog</title>
<path fill="none" stroke="#000000" d="M319.9463,-116.7852C332.2643,-99.928 350.9738,-76.0768 361.519,-71.1932 401.93,-52.4785 526.1525,-59.4079 596.8512,-65.2278"/>
<polygon fill="#000000" stroke="#000000" points="596.6182,-68.7205 606.8774,-66.0752 597.2078,-61.7453 596.6182,-68.7205"/>
<text text-anchor="middle" x="464.2733" y="-76.1932" font-family="Times,serif" font-size="14.00" fill="#000000">(6) Submit certificate</text>
</g>
<!-- ctlog&#45;&gt;tuf -->
<!-- ctlog&#45;&gt;fulcio -->
<g id="edge14" class="edge">
<title>ctlog-&gt;fulcio</title>
<path fill="none" stroke="#000000" d="M610.6883,-78.5826C597.0093,-81.6835 581.3361,-85.1239 567.0276,-87.9932 491.7693,-103.0852 403.7003,-118.1713 352.0119,-126.7651"/>
<polygon fill="#000000" stroke="#000000" points="351.1564,-123.359 341.8631,-128.4467 352.3007,-130.2649 351.1564,-123.359"/>
<text text-anchor="middle" x="464.2733" y="-128.1932" font-family="Times,serif" font-size="14.00" fill="#000000">(7) SCT</text>
</g>
<!-- rekormonitor -->
<g id="node7" class="node">
<title>rekormonitor</title>
<ellipse fill="none" stroke="#ff0000" cx="954.4308" cy="-22.9932" rx="68.9026" ry="18"/>
<text text-anchor="middle" x="954.4308" y="-18.7932" font-family="Times,serif" font-size="14.00" fill="#000000">Rekor Monitor</text>
</g>
<!-- ctlog&#45;&gt;rekormonitor -->
<!-- fulciomonitor -->
<g id="node8" class="node">
<title>fulciomonitor</title>
<ellipse fill="none" stroke="#ff0000" cx="954.4308" cy="-76.9932" rx="69.5639" ry="18"/>
<text text-anchor="middle" x="954.4308" y="-72.7932" font-family="Times,serif" font-size="14.00" fill="#000000">Fulcio Monitor</text>
</g>
<!-- ctlog&#45;&gt;fulciomonitor -->
<!-- rekor&#45;&gt;tuf -->
<!-- rekor&#45;&gt;client -->
<g id="edge17" class="edge">
<title>rekor-&gt;client</title>
<path fill="none" stroke="#000000" d="M289.1869,-42.6135C279.3882,-35.5134 266.7914,-27.8576 254.0874,-24.1932 182.8573,-3.6474 148.5558,17.5421 87.2858,-24.1932 69.1657,-36.5361 51.1266,-94.9377 41.5889,-130.3781"/>
<polygon fill="#000000" stroke="#000000" points="38.1814,-129.5743 39.0211,-140.1358 44.9509,-131.3558 38.1814,-129.5743"/>
<text text-anchor="middle" x="170.6866" y="-29.1932" font-family="Times,serif" font-size="14.00" fill="#000000">(10) Signed Entry Timestamp</text>
</g>
<!-- rekor&#45;&gt;ctlog -->
<!-- rekormonitor&#45;&gt;rekor -->
<g id="edge19" class="edge">
<title>rekormonitor-&gt;rekor</title>
<path fill="none" stroke="#000000" d="M894.577,-31.9285C880.8518,-33.6193 866.2991,-35.1282 852.7064,-35.9932 797.3343,-39.5171 781.6361,-49.6817 727.867,-35.9932 719.0397,-33.746 718.6943,-28.4405 709.867,-26.1932 656.0979,-12.5047 640.4815,-24.3592 585.0276,-26.1932 485.5273,-29.4839 459.3508,-22.5519 361.519,-40.9932 356.423,-41.9538 351.134,-43.2456 345.9504,-44.6903"/>
<polygon fill="#000000" stroke="#000000" points="344.7681,-41.3906 336.1907,-47.6099 346.7743,-48.097 344.7681,-41.3906"/>
<text text-anchor="middle" x="647.4473" y="-31.1932" font-family="Times,serif" font-size="14.00" fill="#000000">Continous Monitoring</text>
</g>
<!-- fulciomonitor&#45;&gt;ctlog -->
<g id="edge18" class="edge">
<title>fulciomonitor-&gt;ctlog</title>
<path fill="none" stroke="#000000" d="M909.8209,-63.1272C892.2136,-58.3291 871.6897,-53.563 852.7064,-51.1932 797.6496,-44.3201 782.9858,-44.8362 727.867,-51.1932 716.0792,-52.5527 703.5084,-54.998 691.8929,-57.6848"/>
<polygon fill="#000000" stroke="#000000" points="690.8699,-54.3313 681.9748,-60.0871 692.5177,-61.1346 690.8699,-54.3313"/>
<text text-anchor="middle" x="790.2867" y="-56.1932" font-family="Times,serif" font-size="14.00" fill="#000000">Continous Monitoring</text>
</g>
</g>
</svg>