<?xml version="1.0" encoding="UTF-8"?><svg id="Layer_1" xmlns="http://www.w3.org/2000/svg" viewBox="0 0 395 125"><defs><style>.cls-1{fill:#faf7ef;}.cls-2{fill:#5a9ecc;}.cls-3{fill:#2e2f71;}</style></defs><g><path class="cls-1" d="M82.83572,7.75109c.76501,.39111,1.50793,.81128,2.22076,1.271-.71277-.45972-1.45575-.87988-2.22076-1.271Z"/><path class="cls-1" d="M79.71419,6.35387c-.62122-.2395-1.24738-.45532-1.87671-.65576,.96259,.3064,1.9129,.67139,2.85596,1.07129-.32642-.13843-.65039-.28857-.97925-.41553Z"/><path class="cls-1" d="M86.10207,9.74254c-.34033-.25098-.68921-.49048-1.04559-.72046,.71277,.45972,1.39551,.95898,2.03998,1.50806-.32227-.27466-.65405-.53662-.99438-.7876Z"/><path class="cls-1" d="M88.03365,11.3922c.60437,.60132,1.16656,1.25806,1.67853,1.97998-.51196-.72192-1.07416-1.37866-1.67853-1.97998Z"/><path class="cls-1" d="M72.04336,4.37096c.39624,.06006,.79126,.12598,1.18524,.19727-.39392-.07129-.789-.13721-1.18524-.19727Z"/><path class="cls-1" d="M74.00533,4.7152c.3985,.08008,.79517,.16992,1.19104,.26294-.39587-.09302-.79248-.18262-1.19104-.26294Z"/><path class="cls-1" d="M75.93618,5.15514c.43024,.11035,.85767,.23486,1.28448,.36182-.42682-.12695-.85425-.25146-1.28448-.36182Z"/><path class="cls-1" d="M110.18948,39.87951c.10999,.20215,.21729,.40601,.32239,.6106-.1051-.20483-.21246-.40845-.32239-.6106Z"/><path class="cls-1" d="M113.06637,47.80114c.03699,.16553,.07281,.3313,.10791,.49707-.0351-.16577-.07092-.33154-.10791-.49707Z"/><path class="cls-1" d="M93.99276,21.45495c-.45374-.70166-.86731-1.43359-1.23724-2.19727-.185-.38184-.35907-.77173-.52185-1.16992,.5614,1.37354,1.26495,2.64258,2.07825,3.83057-.10596-.15479-.21722-.30566-.31915-.46338Z"/><path class="cls-1" d="M113.80025,52.28112c.0166,.16699,.03168,.33472,.04565,.5022-.01398-.16772-.02905-.33496-.04565-.5022Z"/><path class="cls-1" d="M111.10793,41.73205c.08575,.18994,.17548,.37744,.25708,.56958-.0816-.19214-.17126-.37988-.25708-.56958Z"/><path class="cls-1" d="M70.03731,4.11437c.40967,.04321,.8186,.09009,1.22607,.14429-.40747-.0542-.81641-.10107-1.22607-.14429Z"/><path class="cls-1" d="M95.47298,23.47619c.35406,.43018,.7301,.84399,1.11578,1.25049-.38574-.40649-.76178-.82031-1.11578-1.25049Z"/><path class="cls-1" d="M109.18246,38.15856c.10992,.17334,.21246,.35107,.31879,.52637-.10632-.17529-.2088-.35303-.31879-.52637Z"/><path class="cls-1" d="M30.42904,19.93053c.61316-.55078,1.23138-1.09619,1.85632-1.63477-.62494,.53857-1.24323,1.08398-1.85632,1.63477Z"/><path class="cls-1" d="M27.24074,22.92565c.79156-.78809,1.60516-1.55347,2.42834-2.30859-.82312,.75537-1.63684,1.52051-2.42834,2.30859Z"/><path class="cls-1" d="M33.03048,17.65441c.82635-.70239,1.6579-1.39917,2.49554-2.08862-.83765,.68945-1.66913,1.38623-2.49554,2.08862Z"/><path class="cls-1" d="M67.93777,3.93615c.45337,.02905,.90631,.06079,1.35736,.10132-.45105-.04053-.90399-.07227-1.35736-.10132Z"/><path class="cls-1" d="M6.37154,41.2047c.12177-.22192,.25128-.44067,.38885-.65649-.13757,.21582-.26715,.43457-.38885,.65649Z"/><path class="cls-1" d="M5.16854,44.57116c-.06903,.37744-.12,.76221-.15289,1.1543,.09875-1.17651,.36023-2.28564,.78265-3.33154-.28162,.69727-.49176,1.42261-.62976,2.17725Z"/><path class="cls-1" d="M37.3395,14.0819c-.30139,.24316-.59985,.49023-.89948,.73584,.8988-.73682,1.80084-1.46875,2.72809-2.16602-.61816,.46484-1.22583,.94409-1.82861,1.43018Z"/><path class="cls-1" d="M5.7983,42.39391c.12671-.31396,.27277-.62012,.42841-.92261-.15564,.30249-.3017,.60864-.42841,.92261Z"/><path class="cls-1" d="M60.79958,4.04577c.71136-.07812,1.42426-.14404,2.14032-.18164-.71606,.03784-1.42896,.10352-2.14032,.18164Z"/><path class="cls-1" d="M65.32729,3.82091c.66504,.01318,1.32764,.03882,1.9884,.07349-.66077-.03467-1.32336-.0603-1.9884-.07349Z"/><path class="cls-1" d="M5.04122,48.44567c-.03833-.50513-.0658-1.01147-.06995-1.52124,.00415,.50977,.03162,1.01611,.06995,1.52124Z"/><path class="cls-1" d="M48.4609,7.37536c.19373-.08594,.38666-.17407,.58142-.25757-.19476,.0835-.3877,.17163-.58142,.25757Z"/><path class="cls-1" d="M46.57394,8.25377c.21088-.10303,.42242-.20459,.63434-.30518-.21198,.10059-.42346,.20215-.63434,.30518Z"/><path class="cls-1" d="M53.06148,5.62853c.18481-.05762,.37036-.11353,.55634-.16846-.18597,.05493-.37152,.11084-.55634,.16846Z"/><path class="cls-1" d="M44.78609,9.15807c.18079-.09473,.36292-.18652,.54431-.27979-.1814,.09326-.36359,.18506-.54431,.27979Z"/><path class="cls-1" d="M58.59493,4.35119c.52032-.08521,1.04199-.1604,1.56476-.22632-.52283,.06592-1.04443,.14111-1.56476,.22632Z"/><path class="cls-1" d="M62.01308,40.3236c-.70709-.94263-2.12128-1.17896-3.06415-.47168l-1.41412,.94287c-.94287,.70728-1.17865,2.12134-.47131,3.06445l13.67065,18.85596c.70709,.94263,2.12128,1.17871,3.06415,.47144l1.41418-.94263c.94287-.70728,1.17841-2.12134,.47156-3.06396l-13.67096-18.85645Z"/><path class="cls-1" d="M39.14974,72.37902c2.3573,.94312,4.47858,1.41431,6.36407,1.41431h1.41412c2.12152-.23584,3.77148-.70703,5.65723-1.41431,4.00677-1.17822,7.30664-2.35669,12.25653,.23584,1.17841,.70728,2.82837,.23584,3.53546-1.17847,.47125-1.17871,0-2.82861-1.17865-3.2998-6.59961-3.53564-11.54919-1.88574-16.02777-.70728-1.64972,.47144-3.06415,.94312-4.71405,1.17847-1.41418,.23608-3.29968-.23535-5.4212-.94287-1.41418-.47095-2.82837,.23584-3.29993,1.41431-.47131,1.41479,.23578,2.82837,1.41418,3.2998Z"/><path class="cls-1" d="M75.68404,70.49401l4.24249,2.12085c.70709,.47144,1.41418,0,1.41418-.94263l-.47131-4.71411c0-.94312-.70709-1.17896-1.41418-.70728l-3.77118,2.59302c-.70734,.47119-.70734,1.17847,0,1.65015Z"/><path class="cls-1" d="M25.52761,88.35949c-.71582-.90991-1.36963-1.88257-2.1756-2.7063-1.7265-1.76392-2.97424-3.83789-4.10785-5.99561-.31635-.60254-.72858-1.15918-.91156-1.83057-.74011-2.71313-1.4472-5.44141-1.62341-8.25488-.13843-2.21094-.68683-4.34814-1.01422-6.52197-.31787-2.11304-.70886-4.20898-.84949-6.34863-.10864-1.65552-.08112-3.30029,.10107-4.94482,.17798-1.604,.38947-3.20386,.82599-4.7627,.79797-2.84741,2.01593-5.521,3.3465-8.1521,1.32806-2.62671,3.00952-5.00854,4.88751-7.26001,1.16718-1.3999,2.41461-2.73193,3.51794-4.18604,.3584-.47266,.65479-.97461,.92957-1.65356-.68054,.21069-1.24146,.375-1.6825,.84204-2.19257,2.32178-4.3421,4.68799-6.61328,6.93018-2.64441,2.61108-4.28009,5.77344-5.43195,9.23706-1.05878,3.18433-1.5213,6.46899-1.5033,9.81299,.0155,2.89087,.45001,5.75073,.81696,8.61182,.23901,1.86255,.51312,3.72876,.67633,5.59106,.17621,2.01392,.43323,3.99731,.86426,5.96509,.79266,3.61841,2.0722,7.06323,3.79022,10.33716,.72339,1.37866,1.70752,2.58105,2.80084,3.70996,.67957,.70142,1.42114,1.31006,2.16858,1.92041,.27429,.22363,.61993,.36279,.94159,.52393,.13916,.06958,.30212,.06616,.4295-.04395,.14441-.12427,.08612-.28027,.02753-.42041-.05829-.13916-.11938-.28345-.21124-.40015Z"/><path class="cls-1" d="M108.09969,76.15856c.21472-.8999,.45691-1.79468,.72858-2.68359,.07227-.23633,.16058-.4668,.23779-.70142-.07721,.23462-.16553,.46509-.23779,.70142-.27167,.88892-.51385,1.78345-.72858,2.68359Z"/><path class="cls-1" d="M111.76778,65.87999c.09399-.22827,.19067-.45557,.28308-.68433,.2384-.59058,.45325-1.18579,.64539-1.78613-.19208,.6001-.40698,1.19556-.64539,1.78613-.09241,.22876-.18909,.45605-.28308,.68433Z"/><path class="cls-1" d="M62.61758,7.29943c.10809,.02759,.22626,.02075,.3399,.01953,.66699-.00537,1.32703,.07666,1.98431,.17432,4.19299,.62573,8.3291,1.53784,12.42175,2.62305,2.84784,.75488,5.34784,2.26025,7.63477,4.09399,1.59363,1.27783,2.82684,2.91382,4.18774,4.42163,.18121,.20068,.33514,.54419,.68079,.36597,.33386-.17188,.23651-.52271,.20325-.82153-.01025-.09204-.05505-.18066-.08612-.27075-.73938-2.15015-1.79114-4.06445-3.5835-5.57422-2.00012-1.68555-4.1687-3.0752-6.59406-3.99316-3.87683-1.46729-7.95343-1.93237-12.07031-2.09351-.39948,0-.8017-.03198-1.19739,.00562-1.31958,.12549-2.6662,.05103-3.94421,.49756-.12714,.04443-.34912,.0376-.33636,.23364,.01147,.18286,.1897,.2749,.35944,.31787Z"/><path class="cls-1" d="M109.30886,39.37609c-2.31274-4.21118-5.53455-7.64819-9.30499-10.5896-.13721-.10718-.26611-.29834-.57568-.20679,.3609,.21729,.55164,.50366,.75885,.77441,1.82294,2.38477,3.64032,4.77368,5.46924,7.15454,2.10577,2.74121,3.86682,5.66064,4.97064,8.96753,.99347,2.9751,1.55188,6.01611,1.72058,9.13794,.02875,.53052,.05176,1.06323,.04553,1.59424-.02051,1.71924,.10663,3.43823-.22424,5.15283-.28009,1.4502-.57623,2.89526-.86102,4.354,.03448-.04248,.08105-.08008,.10162-.12866,1.92426-4.56836,2.55902-9.29053,1.84863-14.21582-.61169-4.24146-1.89221-8.24976-3.94916-11.99463Z"/><path class="cls-1" d="M109.12514,63.73082c.95612-3.17188,1.12408-6.43164,.90656-9.69849-.21875-3.28149-.88477-6.47559-2.64062-9.35718,.74744,3.11768,1.41272,6.24756,1.63947,9.44434,.22675,3.19727-.10736,6.40161,.0946,9.61133Z"/><path class="cls-1" d="M102.23397,46.32409c-.7536-2.33521-1.57538-4.63892-2.70044-6.81787-1.96509-3.80566-4.68555-7.05591-7.71216-10.04102-2.20831-2.17847-4.62744-4.11719-7.3219-5.69263-2.10699-1.23145-4.3559-2.11304-6.63184-2.97852-2.29425-.87256-4.62476-1.61011-6.96429-2.33276-1.43591-.4436-2.90192-.78955-4.38892-.9812-7.16577-.92456-14.00934,.20923-20.5321,3.30493l.49664,.22729c.12109,.22314,.38068,.52905,.23224,.71484-.31964,.40039,.00049,.28931,.17346,.26782,.18597-.02295,.36542-.09912,.54639-.15674,2.22015-.70386,4.41449-1.50928,6.73547-1.83667,1.25928-.17773,2.48596-.55762,3.75897-.63013,1.17438-.06714,2.35577-.02515,3.52795-.11426,3.57043-.27148,7.0423,.37744,10.49316,1.13232,1.55286,.33936,3.04657,.91748,4.53687,1.49976,3.61627,1.41284,7.00427,3.21069,10.12146,5.53052,2.31226,1.7207,4.3822,3.70386,6.41211,5.73633,.1687,.16919,.34119,.2793,.60522,.34888,.50885,.1333,1.10931,.1377,1.48029,.60181,1.50824,1.88428,2.5625,4.03076,3.52441,6.22339,.8385,1.91113,1.54309,3.87646,2.20612,5.85474,1.45093,4.32886,2.38055,8.75903,2.48468,13.33887,.02802,1.23145,.00403,2.46387,.00403,3.69604l.16766-.00171c.1792-1.61133,.41827-3.21875,.5174-4.83447,.07056-1.15137-.05457-2.31592-.10687-3.47168-.13318-2.93848-.76141-5.78638-1.66602-8.58789Z"/><path class="cls-1" d="M100.78585,107.90563c.45239-.61377,.87347-1.25781,1.2619-1.93359l.00208-.00391-.00208,.00391c-.38843,.67578-.80945,1.31958-1.2619,1.93359Z"/><path class="cls-1" d="M65.0497,106.43786c-.92358-.08545-1.84821-.11157-2.77631-.13257-1.4024-.03198-2.80005-.24634-4.20276-.28491-2.7392-.07544-5.44568-.51099-8.16064-.79443-2.14105-.22314-4.31512-.67773-6.23285-1.8291-.12921-.07764-.27484-.13013-.41754-.18164-.37292-.13428-.58691-.00806-.62921,.39453-.05109,.48584,.02728,.95654,.25427,1.38208,.3219,.60205,.63074,1.22339,1.03973,1.76489,.9386,1.24268,2.12628,2.10767,3.771,2.08252,1.13782-.01709,2.2757-.06543,3.41205-.12695,.51031-.02808,1.02191-.07324,1.52155-.21338,1.35486-.37891,2.73895-.61475,4.12836-.82349,.25055-.0376,.49036-.00049,.73615,.0271,1.24396,.13916,2.48895,.27026,3.60724,.39038,1.54938-.03857,2.92773-.23169,4.1369-1.06421,.15271-.10522,.39874-.19189,.34845-.40308-.06311-.2627-.3399-.16968-.53638-.18774Z"/><path class="cls-1" d="M102.97488,85.6112c-1.07526,1.94531-2.04016,3.97437-3.42859,5.71045-2.43311,3.04297-4.5719,6.32324-7.32513,9.11011-1.01672,1.02881-2.09125,1.97729-3.27893,2.80933-.6958,.48779-1.3866,1.0022-1.95703,1.64648-.53589,.60522-.47382,.85498,.27808,1.17383,.10309,.0437,.21924,.08179,.32886,.08057,1.00519-.00781,2.00867,.05615,3.01508-.09302,1.55487-.23071,3.01636-.75488,4.45227-1.34912,1.21747-.50366,2.30377-1.27759,3.29614-2.11304,1.01801-.85693,1.80292-1.95728,2.33606-3.21973,.56189-1.33057,1.00269-2.70117,1.4527-4.06885,.52216-1.58789,.75391-3.24683,1.10181-4.87769,.31738-1.48584,.55615-2.98364,.69983-4.49194,.04083-.42847,.16296-.95068-.23877-1.38013-.35242,.32007-.53162,.69946-.73236,1.06274Z"/><path class="cls-1" d="M33.70528,97.86535c-1.06-.53467-2.01489-1.19702-2.86511-2.03491-.75293-.74243-1.41693-.53223-1.7854,.46997-.21021,.57178-.04877,1.12231,.00781,1.68555,.15741,1.56421,1.02441,2.27563,2.57074,2.01685,1.44171-.24072,2.85889-.61865,4.31665-.77832,.19873-.02148,.41748-.05371,.63873-.25586-.46002-.32397-.90753-.54761-1.42267-.64282-.50385-.09302-.99396-.22485-1.46075-.46045Z"/><path class="cls-1" d="M112.5917,45.84557l-.00043-.00195c-.15234-.57129-.32269-1.13281-.51025-1.6853l-.00098-.00244c.18787,.55322,.35864,1.11548,.51123,1.68774l.00043,.00195Z"/><path class="cls-1" d="M80.30801,97.04137c-.79791,.05005-1.41315,.38892-2.03589,.67676-3.96771,1.83252-8.15515,2.78027-12.49835,3.02051-3.44482,.19043-6.87061-.05859-10.27362-.66382-6.7085-1.19336-12.73712-3.86987-17.97308-8.24414-5.18262-4.32959-8.9939-9.70654-11.79944-15.81372-1.39893-3.04565-2.34106-6.25098-3.20856-9.49976,.07056,1.03833-.0766,2.07593-.01953,3.09204,.05804,1.04443,.44501,2.07007,.6853,3.10425,.28381,1.22095,.73987,2.38135,1.18591,3.55029,.97766,2.56299,2.16907,4.98486,3.86005,7.17847,1.47229,1.90967,2.92175,3.82056,4.59344,5.56958,1.96936,2.0603,4.16748,3.83301,6.4837,5.46436,.79193,.55737,1.46875,1.28052,2.35077,1.69897,1.43671,.68091,2.86542,1.39136,4.34619,1.96436,1.83362,.70947,3.67883,1.3833,5.61115,1.83569,1.68097,.39355,3.38849,.64087,5.06171,1.05786,.2005,.05005,.41528,.07153,.62177,.06299,1.10602-.04639,2.1991,.13135,3.29938,.1748,1.58838,.0625,3.16602,.29883,4.76941-.01367,.87878-.17114,1.79913-.2146,2.7157-.20312,.88757,.01147,1.79218-.05664,2.66266-.22583,3.17426-.6167,6.17535-1.72754,8.9942-3.31885,.18744-.10571,.39771-.1936,.56714-.46802Z"/><path class="cls-1" d="M10.12099,36.79528c-.60999,.55908-1.20264,1.14062-1.77972,1.74268-.28265,.29492-.54773,.59619-.7951,.90381-.22272,.2771-.42633,.56152-.62036,.84937,.40961-.60767,.87836-1.19312,1.41547-1.75317,.57709-.60205,1.16974-1.18359,1.77972-1.74268Z"/><path class="cls-1" d="M24.67611,25.62462c.27509-.30737,.56995-.59448,.85095-.896-.28101,.30151-.57587,.58862-.85095,.896-2.47992,2.77124-5.29553,5.03809-8.55066,6.82153-.72949,.3999-1.43646,.83008-2.12268,1.28809,.68622-.45801,1.39319-.88818,2.12268-1.28809,3.25513-1.78345,6.07074-4.05029,8.55066-6.82153Z"/><path class="cls-1" d="M5.27517,50.44713c.07776,.49512,.16461,.98853,.26807,1.47949,.11548,.54785,.24597,1.09351,.38916,1.63672,.22162,.84131,.47076,1.67383,.73712,2.50049-.26636-.82666-.5155-1.65918-.73712-2.50049-.27142-1.03003-.49274-2.06885-.65723-3.11621Z"/><path class="cls-1" d="M10.38644,67.3734c.0719,.40234,.12958,.80786,.15576,1.22021,.01617,.25488,.02246,.51221,.01721,.77197h0c.01373-.67969-.05658-1.34082-.17297-1.99219Z"/><path class="cls-1" d="M84.3962,118.51061c.59344-.17969,1.17975-.37451,1.75903-.58447,1.15863-.41968,2.28931-.89844,3.39471-1.4314,2.21069-1.06592,4.31989-2.34888,6.34656-3.80981,.63068-.45459,1.23334-.93262,1.80688-1.43604-.57355,.50342-1.17621,.98145-1.80688,1.43604-3.54669,2.55664-7.34595,4.56812-11.50031,5.82568Z"/><path class="cls-1" d="M98.09457,26.19884c.33807,.30347,.67365,.60938,1.01068,.91382-.3371-.30444-.67255-.61035-1.01068-.91382-.42072-.37769-.82184-.77002-1.21368-1.16919,.39185,.39941,.79297,.7915,1.21368,1.16919Z"/><path class="cls-1" d="M58.37362,113.65246c.50232,.21216,.98242,.47778,1.45404,.76416-1.17914-.71558-2.43591-1.24268-3.84698-1.3999,.84668,.09448,1.63947,.31763,2.39294,.63574Z"/><path class="cls-1" d="M105.89382,33.79577c.77704,.88135,1.508,1.78931,2.18634,2.72705-.67834-.93774-1.4093-1.8457-2.18634-2.72705-.60156-.68213-1.22076-1.34644-1.85345-1.99707-.94897-.97583-1.93372-1.91504-2.92938-2.84351,1.65936,1.54736,3.27887,3.13501,4.78284,4.84058Z"/><path class="cls-1" d="M18.29867,97.06676c.12311,.04883,.24304,.10449,.36853,.14893,.25098,.08838,.50488,.1709,.7547,.26123,.10657,.03833,.19653,.08105,.2771,.12573-.08057-.04468-.17047-.0874-.2771-.12573-.37469-.13574-.75385-.26294-1.12323-.41016Z"/><path class="cls-1" d="M54.83706,113.06139c.15033-.02856,.30139-.05444,.45782-.06323-.15674,.00757-.30713,.03638-.45782,.06323Z"/><path class="cls-1" d="M31.91482,113.55382c.02655,.05493,.0531,.11011,.07947,.16528l.0177,.03784-.0177-.03784c-.02637-.05518-.05328-.11011-.07947-.16528Z"/><path class="cls-1" d="M34.89596,118.86266c.2027,.23364,.41205,.44873,.62799,.64575,.20343,.18555,.41382,.35205,.62878,.50586-.44318-.31689-.86316-.69775-1.25677-1.15161Z"/><path class="cls-1" d="M19.76571,97.64586c.05096,.03271,.09662,.06689,.13464,.10278-.03809-.03589-.08368-.07007-.13464-.10278Z"/><path class="cls-1" d="M20.05141,97.97399c.01855,.05957,.02777,.12158,.0202,.18726,.00751-.06567-.00165-.12769-.0202-.18726Z"/><path class="cls-1" d="M25.48299,111.05944c.25208-.09253,.50281-.20215,.75098-.32935,.46741-.23975,.96185-.37329,1.45538-.40942-.49353,.03613-.98798,.16943-1.45538,.40942-.24817,.1272-.4989,.23682-.75098,.32935Z"/><path class="cls-1" d="M57.9717,4.45421c-.69897,.12427-1.39648,.25879-2.09113,.41235l-.00452,.00122,.00452-.00122c.69464-.15356,1.39215-.28809,2.09113-.41235Z"/><path class="cls-1" d="M38.25478,120.97912c-.15027-.03735-.29858-.08008-.44495-.12817,.1463,.0481,.29462,.09082,.44495,.12817Z"/><path class="cls-1" d="M37.51791,120.74816c-.14685-.05664-.29071-.12183-.43329-.19019,.14264,.06836,.28644,.13354,.43329,.19019Z"/><path class="cls-1" d="M36.81747,120.42711c-.15228-.08252-.30029-.17651-.44745-.27295,.14716,.09644,.29517,.19043,.44745,.27295Z"/><path class="cls-1" d="M40.96938,121.11803c-.28046,.03418-.55524,.05322-.82581,.06055,.27057-.00732,.54535-.02637,.82581-.06055Z"/><path class="cls-1" d="M34.006,117.66759c-.24597-.38159-.46613-.77734-.67725-1.17798,.21118,.40088,.43127,.79639,.67725,1.17798Z"/><path class="cls-1" d="M39.03542,121.12169c-.16028-.01953-.31946-.04248-.47571-.07324,.15625,.03076,.31543,.05371,.47571,.07324Z"/><path class="cls-1" d="M19.59554,110.18908c-.07709-.05835-.15271-.11865-.22705-.18066,.07458,.06226,.14984,.12207,.22705,.18066Z"/><path class="cls-1" d="M22.98336,111.43053c-.09857-.00513-.19678-.0127-.29449-.02271,.09796,.01001,.19568,.01758,.29449,.02271Z"/><path class="cls-1" d="M42.18862,120.87902c.13123-.0354,.25604-.08838,.38531-.12891-.32324,.10156-.6543,.1814-.99017,.24805,.20154-.03979,.40802-.06616,.60486-.11914Z"/><path class="cls-1" d="M22.10195,111.31725c-.08447-.01685-.16998-.03027-.25348-.05078,.08368,.02051,.16876,.03394,.25348,.05078Z"/><path class="cls-1" d="M20.29885,110.65441c-.07471-.04199-.14563-.09009-.21857-.13501,.07306,.04492,.14374,.09302,.21857,.13501Z"/><path class="cls-1" d="M33.13235,116.10558c-.15295-.30396-.30322-.60962-.44812-.91797,.1449,.30835,.29517,.61401,.44812,.91797Z"/><path class="cls-1" d="M30.41598,111.20104c-.37817-.31763-.81305-.55566-1.27679-.70557,.46375,.1499,.89868,.38794,1.27679,.70557Z"/><path class="cls-1" d="M23.8539,111.41955c-.09039,.00806-.17993,.00806-.26996,.01196,.09015-.00391,.17944-.00391,.26996-.01196Z"/><path class="cls-1" d="M24.72378,111.28649c.25366-.05908,.50708-.13452,.75922-.22705-.25342,.09302-.50818,.16846-.76312,.22754l.00391-.00049Z"/><path class="cls-1" d="M39.8782,121.17516c-.18219-.00122-.36359-.00464-.54108-.01855,.17749,.01392,.35889,.01733,.54108,.01855Z"/><path class="cls-1" d="M76.73696,119.70446c-.40948,.00171-.8186-.00562-1.22736-.02246,.40875,.01685,.81787,.02417,1.22736,.02246Z"/><path class="cls-1" d="M49.48574,116.74767c.21021-.1604,.41553-.32739,.62402-.48999-.57098,.44556-1.15283,.87622-1.74011,1.29932,.37286-.26855,.75055-.53076,1.11609-.80933Z"/><path class="cls-1" d="M78.89059,119.61413c.41034-.03638,.82159-.09863,1.23267-.15576-.96759,.13428-1.93335,.21997-2.89679,.24243,.55414-.01294,1.10864-.0376,1.66412-.08667Z"/><path class="cls-1" d="M102.9186,104.27575c-.0531,.11426-.10742,.22803-.16248,.3418,.05505-.11377,.10938-.22754,.16248-.3418Z"/><path class="cls-1" d="M69.53231,118.81994c-.54187-.1311-1.08331-.27124-1.62402-.42798,.54071,.15674,1.08215,.29688,1.62402,.42798Z"/><path class="cls-1" d="M73.35775,119.51769c-.54541-.06445-1.08984-.14844-1.63397-.24243,.54413,.09399,1.08868,.17822,1.63397,.24243Z"/><path class="cls-1" d="M71.23366,119.18395c-.40521-.07642-.81012-.16064-1.21466-.25244,.40454,.09204,.80945,.17603,1.21466,.25244Z"/><path class="cls-1" d="M75.02059,119.66051c-.54468-.03223-1.08881-.07568-1.6322-.13916,.54333,.06348,1.08759,.10693,1.6322,.13916Z"/><path class="cls-1" d="M113.77273,58.29918c-.10272,.90161-.25104,1.79004-.44025,2.66772,.18921-.87769,.33746-1.76611,.44025-2.66772Z"/><path class="cls-1" d="M54.67324,113.08849c-.18665,.04248-.36829,.10645-.54694,.18066,.17847-.07593,.3606-.13599,.54694-.18066Z"/><path class="cls-1" d="M53.53573,113.58361c.18274-.1189,.36877-.21899,.55859-.302-.23981,.10254-.47437,.23291-.70276,.396,.04834-.02979,.09613-.06274,.14417-.09399Z"/><path class="cls-1" d="M104.49007,99.99694c-.04205,.14551-.08514,.29077-.12885,.43579,.0437-.14502,.08673-.29028,.12885-.43579Z"/><path class="cls-1" d="M104.08883,101.29259c-.04291,.13013-.08435,.26074-.12885,.39014,.04449-.12964,.08594-.26001,.12885-.39014Z"/><path class="cls-1" d="M104.83547,98.73864c-.03326,.12891-.06891,.25708-.10321,.38574,.0343-.12866,.06989-.25684,.10321-.38574Z"/><path class="cls-1" d="M107.12417,81.61901c.11316-.91968,.24969-1.83472,.41156-2.74487,.16193-.9104,.34924-1.81567,.56396-2.71558-.57263,2.3999-.9353,4.84058-1.15649,7.30786,.0553-.6167,.10553-1.23438,.18097-1.84741Z"/><path class="cls-1" d="M19.91177,98.53405c-.04669,.06689-.10345,.13599-.17023,.20728,.13361-.14282,.22693-.27612,.28021-.40063-.02661,.06226-.06323,.12671-.10999,.19336Z"/><path class="cls-1" d="M20.02645,97.92028c-.0188-.04053-.04272-.07959-.07428-.11719,.03162,.03735,.05554,.07666,.07428,.11719Z"/><path class="cls-1" d="M5.21267,50.00719c-.05176-.36914-.09497-.73975-.13025-1.11157,.03528,.37183,.07849,.74243,.13025,1.11157Z"/><path class="cls-1" d="M10.35763,67.2047c-.07349-.38159-.16431-.75952-.26624-1.13501,.10193,.37549,.19275,.75342,.26624,1.13501Z"/><path class="cls-1" d="M19.0046,99.62243c.16907-.22656,.3446-.45068,.53162-.67114-.18707,.22046-.36249,.44482-.53162,.67114Z"/><polygon class="cls-1" points="9.92635 78.57848 9.92635 78.58092 9.92635 78.57848 9.92635 78.57848"/><path class="cls-1" d="M14.30215,94.36901c-.58557-.58789-1.10291-1.23071-1.55219-1.92896,.44922,.69824,.96661,1.34106,1.55219,1.92896Z"/><path class="cls-1" d="M18.93661,109.609c-.06146-.06226-.12543-.12134-.18439-.18628,.05908,.06494,.1228,.12402,.18439,.18628Z"/><path class="cls-1" d="M18.50637,100.34728c.11072-.17407,.22681-.34644,.34851-.5166-.1217,.17017-.23779,.34253-.34851,.5166Z"/><path class="cls-1" d="M11.94241,90.97106c-.17889-.38477-.34637-.77881-.49158-1.19116,.1452,.41235,.31268,.8064,.49158,1.19116Z"/><path class="cls-1" d="M12.55855,92.12487c-.15924-.26514-.30914-.5376-.44971-.81812,.14056,.28052,.29041,.55298,.44971,.81812Z"/><path class="cls-1" d="M16.62179,96.2025c-.37146-.229-.72034-.47583-1.05774-.73218,.3374,.25635,.68622,.50317,1.05774,.73218Z"/><path class="cls-1" d="M15.27157,95.2362c-.24335-.19653-.47729-.40063-.70184-.6123,.22455,.21167,.4585,.41577,.70184,.6123Z"/><path class="cls-1" d="M17.38174,102.85289c.05261-.19531,.11206-.38867,.17883-.5791-.06677,.19043-.12628,.38379-.17883,.5791Z"/><path class="cls-1" d="M9.25686,63.44201c-.83386-2.46899-1.78827-4.89819-2.58734-7.37817,.79907,2.47998,1.75348,4.90942,2.58734,7.37817Z"/><path class="cls-1" d="M17.16671,103.90831c.03516-.27759,.08917-.54883,.15228-.81665-.06311,.26807-.11719,.53906-.15228,.81665Z"/><path class="cls-1" d="M17.52279,107.40465c.18066,.48828,.41663,.94141,.69849,1.354-.35236-.51587-.62207-1.10107-.81268-1.7334,.03809,.12646,.06903,.25732,.1142,.37939Z"/><path class="cls-1" d="M17.64181,102.04479c.09729-.25391,.20294-.50513,.3241-.75098-.12115,.24585-.22675,.49707-.3241,.75098Z"/><path class="cls-1" d="M10.03274,65.8568c-.1051-.37109-.2182-.74072-.33838-1.10889,.12012,.36816,.23328,.73779,.33838,1.10889Z"/><path class="cls-1" d="M17.96786,101.28991c.1217-.24658,.25854-.48779,.40259-.72681-.14404,.23901-.28088,.48022-.40259,.72681Z"/><path class="cls-1" d="M9.61465,64.50695c-.11786-.35522-.23792-.70996-.35779-1.06494,.11987,.35498,.23993,.70972,.35779,1.06494Z"/><path class="cls-2" d="M113.9548,54.80626c-.01031-.677-.05286-1.35083-.10889-2.02295-.01398-.16748-.02905-.33521-.04565-.5022-.13281-1.33618-.34692-2.66333-.62598-3.98291-.0351-.16577-.07092-.33154-.10791-.49707-.14606-.65332-.30139-1.30566-.47467-1.95557l-.00043-.00195c-.15259-.57227-.32336-1.13452-.51123-1.68774-.21436-.6311-.45703-1.24683-.71503-1.85425-.0816-.19214-.17133-.37964-.25708-.56958-.18945-.41895-.38672-.83374-.59607-1.24194-.1051-.20459-.2124-.40845-.32239-.6106-.21948-.40356-.44995-.80127-.68823-1.19458-.10632-.17529-.20886-.35303-.31879-.52637-.35126-.5542-.71564-1.10132-1.10229-1.63574-.67834-.93774-1.4093-1.8457-2.18634-2.72705-1.50397-1.70557-3.12347-3.29321-4.78284-4.84058-.66376-.6189-1.3316-1.23389-2.00574-1.84253-.33704-.30444-.67261-.61035-1.01068-.91382-.42072-.37769-.82184-.76978-1.21368-1.16919-.09833-.10034-.19568-.20142-.29211-.30298-.38568-.40649-.76172-.82031-1.11578-1.25049-.41211-.50073-.7948-1.02319-1.16107-1.55786-.81329-1.18799-1.51685-2.45703-2.07825-3.83057-.67505-1.65186-1.48126-3.2478-2.52148-4.71558-.51196-.72192-1.07416-1.37866-1.67853-1.97998-.30219-.30078-.61493-.58765-.93719-.86206-.64447-.54907-1.32721-1.04834-2.03998-1.50806-.71283-.45972-1.45575-.87988-2.22076-1.271-.38251-.19556-.77051-.38403-1.16309-.56616-.32391-.15039-.65277-.2771-.97919-.41553-.94305-.3999-1.89337-.76489-2.85596-1.07129-.20459-.06494-.41138-.12012-.61682-.18115-.42682-.12695-.85425-.25146-1.28448-.36182-.24573-.06323-.49298-.11914-.73981-.177-.39587-.09302-.79254-.18286-1.19104-.26294-.2583-.05225-.5174-.1001-.77673-.14697-.39398-.07129-.789-.13721-1.18524-.19727-.25964-.03906-.51941-.07788-.77997-.1123-.40747-.0542-.81641-.10107-1.22607-.14429-.24731-.02612-.49414-.05444-.74219-.0769-.45105-.04053-.90399-.07227-1.35736-.10132-.20746-.01318-.41412-.03076-.62207-.04175-.66077-.03467-1.32336-.0603-1.9884-.07349-.79877-.01392-1.59454,.00146-2.38739,.04321-.71606,.0376-1.42896,.10352-2.14032,.18164-.21368,.02368-.42664,.052-.63989,.0791-.52277,.06592-1.04443,.14111-1.56476,.22632-.20782,.03394-.41583,.06616-.62323,.10303-.69897,.12427-1.39648,.25879-2.09113,.41235l-.00452,.00122c-.76398,.16895-1.51404,.37329-2.25824,.59229-.18597,.05493-.37152,.11084-.55634,.16846-1.36743,.42676-2.70599,.92627-4.01917,1.48926-.19476,.0835-.3877,.17163-.58142,.25757-.41956,.18604-.83746,.37646-1.25262,.57324-.21191,.10059-.42346,.20215-.63434,.30518-.41644,.20361-.83075,.41211-1.24353,.62451-.1814,.09326-.36353,.18506-.54431,.27979-.58246,.30591-1.16272,.61743-1.7395,.93677-1.36395,.75513-2.64215,1.6272-3.87848,2.55688-.92725,.69727-1.82928,1.4292-2.72809,2.16602-.29962,.24561-.60034,.48975-.89954,.73608l-.01447,.01196c-.83765,.68945-1.66919,1.38623-2.49554,2.08862-.24982,.21216-.49683,.42749-.74512,.64136-.62494,.53857-1.24316,1.08398-1.85632,1.63477-.25391,.22827-.50848,.45557-.75995,.68652-.82318,.75513-1.63678,1.52051-2.42834,2.30859-.5871,.58472-1.14801,1.19629-1.71368,1.80298-.28101,.30151-.57587,.58862-.85095,.896-2.47992,2.77124-5.29553,5.03809-8.55066,6.82153-.72949,.3999-1.43646,.83008-2.12268,1.28809-1.37244,.91602-2.66174,1.94312-3.88177,3.06104-.60999,.55908-1.20264,1.14062-1.77972,1.74268-.53711,.56006-1.00586,1.14551-1.41547,1.75317-.05719,.08472-.11066,.17114-.16541,.25708-.13757,.21582-.26709,.43457-.38885,.65649-.04865,.08862-.09869,.17676-.14484,.2666-.15564,.30249-.3017,.60864-.42841,.92261-.42242,1.0459-.6839,2.15503-.78265,3.33154-.0329,.39209-.04773,.79175-.04437,1.19897,.00415,.50977,.03162,1.01611,.06995,1.52124,.01141,.15015,.02692,.2998,.0412,.44995,.03528,.37183,.07849,.74243,.13025,1.11157,.02051,.14673,.03949,.2937,.0625,.43994,.16449,1.04736,.3858,2.08618,.65723,3.11621,.22162,.84131,.47076,1.67383,.73712,2.50049,.79907,2.47998,1.75348,4.90918,2.58734,7.37817,.11987,.35498,.23993,.70972,.35779,1.06494,.02661,.08032,.05347,.16064,.07971,.24097,.12018,.36816,.23328,.73779,.33838,1.10889,.02002,.0708,.03943,.14185,.05865,.21289,.10193,.37549,.19275,.75342,.26624,1.13501,.0108,.05591,.0188,.11255,.02881,.1687,.11639,.65137,.18671,1.3125,.17297,1.99219h0c-.0401,1.97729-.16473,3.95215-.39899,5.91504-.13177,1.10327-.20886,2.20239-.23407,3.29785v.00244c-.06268,2.73755,.19879,5.45166,.74176,8.14966,.10864,.53979,.22852,1.07886,.35931,1.61743,.12012,.49438,.26135,.97168,.4234,1.43188,.1452,.41235,.31268,.8064,.49158,1.19116,.05298,.11401,.11053,.22412,.16644,.33569,.14056,.28052,.29047,.55298,.44971,.81812,.06335,.10547,.12512,.21216,.19141,.31519,.44928,.69824,.96661,1.34106,1.55219,1.92896,.08667,.08691,.17792,.17017,.26758,.25488,.22455,.21167,.4585,.41577,.70184,.6123,.09705,.07861,.19244,.1582,.29248,.23413,.3374,.25635,.68628,.50317,1.05774,.73218,.41492,.25537,.85089,.4939,1.30835,.71509,.11902,.05737,.24536,.09985,.36853,.14917,.36938,.14722,.74854,.27441,1.12323,.41016,.10663,.03833,.19653,.08105,.2771,.12573,.02472,.01392,.04449,.02881,.06671,.04321,.05096,.03271,.09656,.06689,.13464,.10278,.01886,.01782,.03613,.03589,.05182,.05444,.03156,.0376,.05548,.07666,.07428,.11719,.0083,.01807,.01917,.03516,.02496,.05371,.01855,.05957,.02771,.12158,.0202,.18726-.00659,.05737-.02325,.11743-.04987,.17944-.05328,.12451-.14661,.25781-.28021,.40063-.06488,.06909-.13892,.1311-.20001,.20337l-.00531,.00659c-.18701,.22046-.36255,.44458-.53162,.67114-.05139,.06885-.10004,.13867-.14972,.20825-.1217,.17017-.23779,.34253-.34851,.5166-.04565,.07178-.09222,.14331-.13593,.21582-.14404,.23901-.28088,.48022-.40259,.72681l-.00195,.00391c-.12115,.24585-.22681,.49707-.3241,.75098-.02899,.07568-.0545,.15259-.08124,.229-.06677,.19043-.12622,.38379-.17883,.5791-.0213,.07959-.04382,.15869-.06274,.23877-.06311,.26782-.11713,.53906-.15228,.81665-.03894,.30859-.06018,.62354-.06238,.94531-.0022,.32153,.01453,.64966,.05139,.98511,.04565,.41553,.13849,.80737,.25287,1.18652,.19061,.63232,.46033,1.21753,.81268,1.7334,.16132,.23633,.34131,.45508,.53094,.66406,.05896,.06494,.12292,.12402,.18439,.18628,.13855,.14014,.28143,.27393,.43188,.39941,.07434,.06201,.14996,.12231,.22705,.18066,.15631,.11841,.31824,.22729,.48474,.33032,.07294,.04492,.14386,.09302,.21857,.13501,.48511,.27246,1.00549,.47852,1.54962,.61206,.0835,.02051,.16901,.03394,.25348,.05078,.19373,.03906,.38873,.07031,.58691,.09058,.09772,.01001,.19592,.01758,.29449,.02271,.19897,.01074,.39905,.00977,.60059,.00098,.09003-.00391,.17957-.00391,.26996-.01196,.2879-.02539,.57678-.06543,.86597-.13257,.25494-.05908,.5097-.13452,.76312-.22754,.25208-.09253,.50281-.20215,.75098-.32935,.46741-.23999,.96185-.37329,1.45538-.40942s.98608,.02515,1.44983,.1748c.46375,.1499,.89862,.38794,1.27679,.70557,.18909,.15869,.36395,.3374,.52118,.53491s.29675,.41382,.4151,.64746c.19543,.38599,.37708,.7793,.56256,1.17041,.02618,.05518,.0531,.11011,.07947,.16528l.0177,.03784c.22711,.47534,.44818,.95386,.67224,1.43066,.1449,.30835,.29517,.61401,.44812,.91797,.06464,.12842,.12939,.25684,.19641,.38403,.21112,.40063,.43127,.79639,.67725,1.17798,.26727,.41455,.56024,.81494,.88995,1.19507,.39362,.45386,.8136,.83472,1.25677,1.15161,.07098,.05054,.14508,.09253,.21729,.13989,.14716,.09644,.29517,.19043,.44745,.27295,.08771,.04736,.1778,.08789,.26715,.13086,.14258,.06836,.28644,.13354,.43329,.19019,.09625,.03711,.19391,.07056,.29193,.10278,.14636,.0481,.29468,.09082,.44495,.12817,.10095,.02515,.20221,.04907,.30493,.06934,.15625,.03076,.31543,.05371,.47571,.07324,.10034,.01245,.19983,.02686,.3017,.03491,.17749,.01392,.35889,.01733,.54108,.01855,.08868,.00049,.1756,.00586,.26538,.00342,.27057-.00732,.54535-.02637,.82581-.06055l.00952-.00073c.20673-.02539,.40332-.0791,.60486-.11914,.33588-.06665,.66693-.14648,.99017-.24805,1.03436-.3252,2.01501-.7981,2.96661-1.33936,.98492-.56006,1.91541-1.19531,2.8291-1.85376,.58728-.4231,1.16913-.85376,1.74011-1.29932,1.04248-.81323,2.07031-1.64648,3.10718-2.46655,.05701-.04517,.117-.07251,.17462-.11353,.22839-.16309,.46295-.29346,.70276-.396l.03198-.01245c.17865-.07422,.36029-.13818,.54694-.18066,.05365-.01221,.10938-.01758,.16382-.0271,.1507-.02686,.30109-.05566,.45782-.06323,.22253-.01074,.44952-.00781,.68579,.01855,1.41107,.15723,2.66785,.68433,3.84698,1.3999,.23584,.14307,.47314,.28247,.70294,.44019,1.13684,.78076,2.31592,1.47168,3.54242,2.06348,.61322,.29614,1.23828,.56738,1.87579,.8125s1.28748,.4646,1.9505,.65674l.00897,.00244c.54071,.15674,1.08215,.29688,1.62402,.42798,.16217,.03931,.32446,.07471,.48669,.11157,.40454,.0918,.80945,.17603,1.21466,.25244,.16333,.03101,.32666,.06299,.49011,.09131,.54413,.09399,1.08856,.17798,1.63397,.24243l.03064,.00366c.5434,.06348,1.08752,.10693,1.6322,.13916,.16284,.00952,.32599,.01465,.48901,.02148,.40875,.01685,.81787,.02417,1.22736,.02246,.16315-.00073,.32623,0,.4895-.00366,.96344-.02246,1.9292-.10815,2.89679-.24243,.82214-.11377,1.64526-.25439,2.47046-.45557,.60828-.14819,1.20898-.3125,1.80249-.49219,4.15436-1.25757,7.95361-3.26904,11.50031-5.82568,.63068-.45459,1.23334-.93262,1.80688-1.43604s1.11798-1.03223,1.63208-1.58862c.51416-.5564,.99792-1.14062,1.45038-1.75464s.87347-1.25781,1.2619-1.93359l.00208-.00391c.25476-.44336,.48553-.89526,.7063-1.35059,.05505-.11377,.10938-.22754,.16248-.3418,.39404-.8479,.73889-1.71289,1.04138-2.59302,.04449-.12939,.08594-.26001,.12885-.39014,.09406-.2854,.18555-.57202,.2724-.85986,.0437-.14502,.08679-.29028,.12885-.43579,.08374-.28979,.16431-.58057,.24219-.87256,.0343-.12866,.06995-.25684,.10321-.38574,.10693-.41406,.21021-.82935,.30847-1.24634,1.01471-4.30762,1.38385-8.70483,1.70874-13.10205,.02283-.30933,.06287-.61548,.09052-.92383,.22119-2.46729,.58386-4.90796,1.15649-7.30786,.21472-.90015,.45691-1.79468,.72858-2.68359,.07227-.23633,.16058-.4668,.23779-.70142,.7724-2.34497,1.76172-4.6106,2.70172-6.89355,.09399-.22827,.19067-.45557,.28308-.68433,.2384-.59058,.45331-1.18604,.64539-1.78613,.25714-.80371,.45886-1.62012,.63623-2.44263,.18921-.87769,.33752-1.76611,.44025-2.66772,.01685-.14746,.04364-.29199,.05823-.44043,.10077-1.02393,.13922-2.04102,.12384-3.05225v-.00024ZM62.5945,6.74791c1.27802-.44653,2.62463-.37207,3.94421-.49756,.39569-.0376,.79791-.00562,1.19739-.00562,4.11688,.16113,8.19348,.62622,12.07031,2.09351,2.42535,.91797,4.59393,2.30762,6.59406,3.99316,1.79236,1.50977,2.84412,3.42407,3.5835,5.57422,.03107,.09009,.07587,.17871,.08612,.27075,.03326,.29883,.13062,.64966-.20325,.82153-.34564,.17822-.49957-.16528-.68079-.36597-1.3609-1.50781-2.59412-3.1438-4.18774-4.42163-2.28693-1.83374-4.78693-3.33911-7.63477-4.09399-4.09265-1.08521-8.22876-1.99731-12.42175-2.62305-.65729-.09766-1.31732-.17969-1.98431-.17432-.11365,.00122-.23181,.00806-.3399-.01953-.16974-.04297-.34796-.13501-.35944-.31787-.01276-.19604,.20923-.18921,.33636-.23364Zm-24.85895,62.3313c.47156-1.17847,1.88574-1.88525,3.29993-1.41431,2.12152,.70752,4.00702,1.17896,5.4212,.94287,1.6499-.23535,3.06433-.70703,4.71405-1.17847,4.47858-1.17847,9.42816-2.82837,16.02777,.70728,1.17865,.47119,1.6499,2.12109,1.17865,3.2998-.70709,1.41431-2.35706,1.88574-3.53546,1.17847-4.94989-2.59253-8.24976-1.41406-12.25653-.23584-1.88574,.70728-3.53571,1.17847-5.65723,1.41431h-1.41412c-1.8855,0-4.00677-.47119-6.36407-1.41431-1.17841-.47144-1.8855-1.88501-1.41418-3.2998Zm37.47693-6.83521l-1.41418,.94263c-.94287,.70728-2.35706,.47119-3.06415-.47144l-13.67065-18.85596c-.70734-.94312-.47156-2.35718,.47131-3.06445l1.41412-.94287c.94287-.70728,2.35706-.47095,3.06415,.47168l13.67096,18.85645c.70685,.94263,.47131,2.35669-.47156,3.06396Zm4.24274,4.00684c.70709-.47168,1.41418-.23584,1.41418,.70728l.47131,4.71411c0,.94263-.70709,1.41406-1.41418,.94263l-4.24249-2.12085c-.70734-.47168-.70734-1.17896,0-1.65015l3.77118-2.59302Zm-53.7439,22.9292c-.12738,.11011-.29034,.11353-.4295,.04395-.32166-.16113-.6673-.30029-.94159-.52393-.74744-.61035-1.48901-1.21899-2.16858-1.92041-1.09332-1.12891-2.07745-2.3313-2.80084-3.70996-1.71802-3.27393-2.99756-6.71875-3.79022-10.33716-.43103-1.96777-.68805-3.95117-.86426-5.96509-.16321-1.8623-.43732-3.72852-.67633-5.59106-.36694-2.86108-.80145-5.72095-.81696-8.61182-.01801-3.34399,.44452-6.62866,1.5033-9.81299,1.15186-3.46362,2.78754-6.62598,5.43195-9.23706,2.27118-2.24219,4.42072-4.6084,6.61328-6.93018,.44104-.46704,1.00195-.63135,1.6825-.84204-.27478,.67896-.57117,1.18091-.92957,1.65356-1.10333,1.4541-2.35077,2.78613-3.51794,4.18604-1.87799,2.25146-3.55945,4.6333-4.88751,7.26001-1.33057,2.6311-2.54852,5.30469-3.3465,8.1521-.43652,1.55884-.64801,3.15869-.82599,4.7627-.18219,1.64453-.20972,3.28931-.10107,4.94482,.14062,2.13965,.53162,4.2356,.84949,6.34863,.32739,2.17383,.87579,4.31104,1.01422,6.52197,.17621,2.81348,.8833,5.54175,1.62341,8.25488,.18298,.67139,.59521,1.22803,.91156,1.83057,1.13361,2.15771,2.38135,4.23169,4.10785,5.99561,.80597,.82373,1.45978,1.79639,2.1756,2.7063,.09186,.1167,.15295,.26099,.21124,.40015,.05859,.14014,.11688,.29614-.02753,.42041Zm10.23865,10.04443c-1.45776,.15967-2.87494,.5376-4.31665,.77832-1.54633,.25879-2.41333-.45264-2.57074-2.01685-.05658-.56323-.21802-1.11377-.00781-1.68555,.36847-1.0022,1.03247-1.2124,1.7854-.46997,.85022,.83789,1.80511,1.50024,2.86511,2.03491,.4668,.2356,.95691,.36743,1.46075,.46045,.51514,.09521,.96265,.31885,1.42267,.64282-.22125,.20215-.44,.23438-.63873,.25586Zm29.28766,7.8042c-1.20917,.83252-2.58752,1.02563-4.1369,1.06421-1.11829-.12012-2.36328-.25122-3.60724-.39038-.24579-.02759-.4856-.0647-.73615-.0271-1.3894,.20874-2.7735,.44458-4.12836,.82349-.49963,.14014-1.01123,.1853-1.52155,.21338-1.13635,.06152-2.27423,.10986-3.41205,.12695-1.64471,.02515-2.8324-.83984-3.771-2.08252-.409-.5415-.71783-1.16284-1.03973-1.76489-.22699-.42554-.30536-.89624-.25427-1.38208,.0423-.40259,.25629-.52881,.62921-.39453,.1427,.05151,.28833,.104,.41754,.18164,1.91772,1.15137,4.0918,1.60596,6.23285,1.8291,2.71497,.28345,5.42145,.71899,8.16064,.79443,1.40271,.03857,2.80035,.25293,4.20276,.28491,.9281,.021,1.85272,.04712,2.77631,.13257,.19647,.01807,.47327-.07495,.53638,.18774,.05029,.21118-.19574,.29785-.34845,.40308Zm5.50903-6.20044c-.87048,.16919-1.77509,.2373-2.66266,.22583-.91656-.01147-1.83691,.03198-2.7157,.20312-1.60339,.3125-3.18103,.07617-4.76941,.01367-1.10028-.04346-2.19336-.22119-3.29938-.1748-.20648,.00854-.42126-.01294-.62177-.06299-1.67322-.41699-3.38074-.66431-5.06171-1.05786-1.93231-.45239-3.77753-1.12622-5.61115-1.83569-1.48077-.573-2.90948-1.28345-4.34619-1.96436-.88202-.41846-1.55884-1.1416-2.35077-1.69897-2.31622-1.63135-4.51434-3.40405-6.4837-5.46436-1.67169-1.74902-3.12115-3.65991-4.59344-5.56958-1.69098-2.1936-2.88239-4.61548-3.86005-7.17847-.44604-1.16895-.9021-2.32935-1.18591-3.55029-.2403-1.03418-.62726-2.05981-.6853-3.10425-.05707-1.01611,.09009-2.05371,.01953-3.09204,.86749,3.24878,1.80963,6.4541,3.20856,9.49976,2.80554,6.10718,6.61682,11.48413,11.79944,15.81372,5.23596,4.37427,11.26459,7.05078,17.97308,8.24414,3.40302,.60522,6.8288,.85425,10.27362,.66382,4.3432-.24023,8.53064-1.18799,12.49835-3.02051,.62274-.28784,1.23798-.62671,2.03589-.67676-.16943,.27441-.3797,.3623-.56714,.46802-2.81885,1.59131-5.81995,2.70215-8.9942,3.31885Zm33.19934-14.89966c-.14368,1.5083-.38245,3.0061-.69983,4.49194-.3479,1.63086-.57965,3.28979-1.10181,4.87769-.45001,1.36768-.89081,2.73828-1.4527,4.06885-.53314,1.26245-1.31805,2.36279-2.33606,3.21973-.99237,.83545-2.07867,1.60938-3.29614,2.11304-1.43591,.59424-2.8974,1.11841-4.45227,1.34912-1.00641,.14917-2.00989,.08521-3.01508,.09302-.10962,.00122-.22577-.03687-.32886-.08057-.75189-.31885-.81396-.5686-.27808-1.17383,.57043-.64429,1.26123-1.15869,1.95703-1.64648,1.18768-.83203,2.26221-1.78052,3.27893-2.80933,2.75323-2.78687,4.89203-6.06714,7.32513-9.11011,1.38843-1.73608,2.35333-3.76514,3.42859-5.71045,.20074-.36328,.37994-.74268,.73236-1.06274,.40173,.42944,.2796,.95166,.23877,1.38013Zm.06085-27.54492c-.09912,1.61572-.3382,3.22314-.5174,4.83447l-.16766,.00171c0-1.23218,.02399-2.4646-.00403-3.69604-.10413-4.57983-1.03375-9.01001-2.48468-13.33887-.66302-1.97827-1.36761-3.9436-2.20612-5.85474-.96191-2.19263-2.01617-4.33911-3.52441-6.22339-.37097-.46411-.97144-.46851-1.48029-.60181-.26404-.06958-.43652-.17969-.60522-.34888-2.02991-2.03247-4.09985-4.01562-6.41211-5.73633-3.11719-2.31982-6.50519-4.11768-10.12146-5.53052-1.4903-.58228-2.98401-1.1604-4.53687-1.49976-3.45087-.75488-6.92273-1.40381-10.49316-1.13232-1.17218,.08911-2.35358,.04712-3.52795,.11426-1.27301,.07251-2.49969,.45239-3.75897,.63013-2.32098,.32739-4.51532,1.13281-6.73547,1.83667-.18097,.05762-.36041,.13379-.54639,.15674-.17297,.02148-.4931,.13257-.17346-.26782,.14844-.18579-.11115-.4917-.23224-.71484l-.49664-.22729c6.52277-3.0957,13.36633-4.22949,20.5321-3.30493,1.487,.19165,2.953,.5376,4.38892,.9812,2.33954,.72266,4.67004,1.46021,6.96429,2.33276,2.27594,.86548,4.52484,1.74707,6.63184,2.97852,2.69446,1.57544,5.11359,3.51416,7.3219,5.69263,3.02661,2.98511,5.74707,6.23535,7.71216,10.04102,1.12506,2.17896,1.94684,4.48267,2.70044,6.81787,.9046,2.80151,1.53284,5.64941,1.66602,8.58789,.05231,1.15576,.17743,2.32031,.10687,3.47168Zm5.02368-4.26416c-.22675-3.19678-.89203-6.32666-1.63947-9.44434,1.75586,2.88159,2.42188,6.07568,2.64062,9.35718,.21753,3.26685,.04956,6.52661-.90656,9.69849-.20197-3.20972,.13214-6.41406-.0946-9.61133Zm2.37885,11.46704c-.02057,.04858-.06714,.08618-.10162,.12866,.28479-1.45874,.58093-2.90381,.86102-4.354,.33087-1.7146,.20374-3.43359,.22424-5.15283,.00623-.53101-.01678-1.06372-.04553-1.59424-.1687-3.12183-.72711-6.16284-1.72058-9.13794-1.10382-3.30688-2.86487-6.22632-4.97064-8.96753-1.82892-2.38086-3.6463-4.76978-5.46924-7.15454-.20721-.27075-.39795-.55713-.75885-.77441,.30957-.09155,.43848,.09961,.57568,.20679,3.77045,2.94141,6.99225,6.37842,9.30499,10.5896,2.05695,3.74487,3.33746,7.75317,3.94916,11.99463,.71039,4.92529,.07562,9.64746-1.84863,14.21582Z"/></g><g><path class="cls-3" d="M168.60283,15.724c-2.85864,1.11032-3.80526,4.64751-1.83943,6.95424,.28133,.33039,.32714,.53864-.06257,.81196-1.34559,.94462-1.35761,2.94799-.38746,4.05881,.26081,.29885,.30011,.40047-.07234,.66379-2.09523,1.48125-1.79187,4.15092,.56392,5.21918,1.96658,.89206,4.05831,.90808,6.14828,.84,1.84368-.06007,3.65984-.31838,5.22444-1.42469,1.24147-.87804,1.75983-2.09548,1.58563-3.60127-.1697-1.46974-1.04424-2.3613-2.39434-2.83185-1.43345-.49909-2.92747-.32589-4.19647-.36493h-2.95901c-.37945-.0005-.75289-.04255-1.08403-.24229-.43201-.25981-.48858-.66178-.34816-1.0993,.15568-.48558,.5026-.40548,.90132-.31237,1.94055,.45003,3.87334,.42951,5.76658-.23628,2.22714-.78343,3.64757-2.85588,3.09467-4.95637-.32338-1.22795-.17346-1.96082,.79594-2.73924,.72486-.58169,.71234-1.37863,.22176-1.92228-.46004-.5091-1.30755-.55165-1.99987-.06358-.45879,.32388-.89856,.6788-1.31956,1.05074-.22477,.19823-.39297,.21125-.68131,.11013-2.32525-.81597-4.6465-.81246-6.95799,.0856Zm.8047,13.02493c.86703,.03254,1.73556,.00851,2.60358,.00851v.02203h0c.86753,0,1.73531-.001,2.60308,.0005,.38045,.0005,.74588,.0826,1.07978,.26231,.75089,.40398,.8445,1.4332,.16219,1.93029-.25881,.18822-.53563,.36143-.86477,.44503-1.75808,.44803-3.53118,.45604-5.29377,.10262-1.25048-.2503-1.76659-1.0978-1.3546-2.03992,.19999-.45754,.49884-.75289,1.06451-.73137Zm4.5559-10.94597c.88755,.35692,1.38614,1.30855,1.29453,2.29422-.09161,.98717-.83524,1.75458-1.97484,2.00538-.31863,.07008-.65077,.07809-1.02221,.11914-.93361-.03504-1.89224-.16319-2.59708-.9286-.98467-1.06877-.56967-2.83786,.81196-3.46661,1.14886-.52262,2.33477-.48708,3.48763-.02353Z"/><path class="cls-3" d="M248.10751,24.99648c.3384,1.71103,1.07703,3.21631,2.49571,4.26856,2.93097,2.17458,6.11224,2.29622,9.38261,.90007,1.14185-.48758,2.04768-1.33258,2.46993-2.56103,.20424-.5932,.12565-1.17339-.38496-1.6029-.49358-.41549-1.05375-.32739-1.57937-.07709-.31237,.14918-.6305,.34641-.86102,.59921-1.16213,1.27651-2.64563,1.52931-4.25003,1.35511-2.11601-.23077-3.70189-1.57987-3.97921-3.29891-.05932-.36844-.03304-.52312,.41049-.51511,1.55234,.02853,3.10518,.01101,4.65777,.01101s3.10518,.01101,4.65777-.0035c1.14986-.01151,1.67548-.48307,1.79513-1.62342,.09411-.89706-.03479-1.78862-.32038-2.63462-.93386-2.76427-2.90845-4.3061-5.77259-4.66853-3.05987-.38746-5.71827,.41349-7.53768,3.0431-1.42118,2.05443-1.66297,4.3867-1.18415,6.80807Zm3.374-4.48231c.59295-1.84819,2.25192-2.86089,4.40597-2.69069,1.86821,.14818,3.16775,1.19391,3.58099,2.84087,.1234,.49258,.08435,.70934-.51661,.68431-1.14961-.04706-2.30248-.01352-3.45409-.01352s-2.30298,.0025-3.45459-.001c-.74513-.0025-.79795-.0836-.56167-.81997Z"/><path class="cls-3" d="M222.09194,15.05871c-4.61146,.02153-7.89836,3.38651-7.85455,8.04002,.0443,4.70207,3.3377,7.95943,8.02726,7.93991,4.91682-.02052,8.14215-3.24534,8.12287-8.12112-.01877-4.73161-3.34421-7.88234-8.29558-7.85881Zm.13766,12.84972c-2.67342-.02603-4.59995-2.12251-4.54664-4.94786,.05281-2.79631,2.02365-4.82872,4.64625-4.79168,2.75276,.03855,4.68555,2.11651,4.61246,4.95787-.07409,2.88141-1.97234,4.8077-4.71208,4.78166Z"/><path class="cls-3" d="M184.55948,28.99422c1.55509,1.58588,3.5432,2.00538,5.07877,2.03791,1.8164-.001,3.01432-.17721,4.14241-.70734,2.84712-1.33809,3.55847-5.22169,1.32732-7.30115-.61122-.56917-1.36211-.89106-2.15906-1.12683-1.37613-.40798-2.82685-.48808-4.18521-.96564-.79494-.27933-1.21219-.82998-1.19567-1.54283,.01552-.66579,.45003-1.22695,1.2625-1.40917,1.38239-.30987,2.69369-.14918,3.85206,.77542,.49258,.39347,.91233,.88755,1.5153,1.13735,.53213,.21976,1.03873,.24279,1.50929-.15168,.47306-.39697,.55591-.91258,.41199-1.46924-.1304-.5046-.37895-.95563-.74363-1.34009-1.00394-1.05775-2.29247-1.52881-3.68662-1.73355-2.03942-.29935-4.04279-.23928-5.8229,.97916-2.26243,1.54883-2.41461,4.87177-.31037,6.61233,.92935,.76841,2.06545,1.06726,3.21931,1.32106,1.00519,.22126,2.04918,.29585,3.00356,.71735,.82297,.36343,1.2232,1.0137,1.12909,1.75758-.09737,.77041-.60146,1.29804-1.49827,1.46173-1.74432,.31838-3.31067-.04255-4.5997-1.32507-.35092-.34941-.70383-.69582-1.14586-.9266-.49158-.2573-1.01095-.26031-1.47725,.02002-.48808,.29285-.65152,.78843-.5902,1.34359,.0816,.73337,.4653,1.32757,.96314,1.83567Z"/><path class="cls-3" d="M147.28783,28.01456c-1.58738,.3369-3.0779,.13516-4.35816-.96114-.40999-.35142-.80595-.71985-1.21995-1.06626-.52062-.43552-1.31781-.5086-1.83918-.14918-.58419,.40148-.65778,.99067-.49409,1.62342,.13716,.52963,.41199,.98767,.78443,1.39565,1.58963,1.74156,3.67986,2.12001,5.88873,2.13703,.30536,0,.61398,.03004,.91533-.00451,1.99486-.22977,3.75345-.86402,4.72009-2.81984,.95613-1.93429,.43752-4.25704-1.27051-5.48149-.93486-.67079-2.05093-.89656-3.15499-1.13234-1.00594-.21525-2.04667-.27933-3.00281-.71385-.64977-.29535-.99017-.78193-.95513-1.49277,.03654-.73287,.49158-1.15487,1.15762-1.33658,1.17414-.32088,2.30498-.22276,3.39102,.38195,.64702,.35993,1.11807,.9306,1.7263,1.32958,.57418,.37645,1.18691,.47707,1.77761,.07409,.5882-.40098,.6345-1.0157,.45604-1.63544-.25906-.90157-.86578-1.54383-1.66647-2.00037-2.20561-1.25749-4.55915-1.40667-6.95123-.75489-2.6176,.71385-3.99023,3.19629-3.16825,5.60864,.56567,1.66097,1.92428,2.42087,3.5019,2.84287,1.29228,.34541,2.61685,.57018,3.90538,.9271,.81096,.22477,1.22545,.91959,1.18891,1.71253-.03454,.74238-.51361,1.34159-1.33258,1.5158Z"/><path class="cls-3" d="M200.05433,18.45824c.60447,.06858,1.21969,.07509,1.82892,.06007,.39597-.00951,.52838,.10963,.52087,.51561-.02353,1.2695-.00851,2.53951-.00851,3.80951,.00025,1.22295-.02002,2.4464,.00576,3.66835,.02828,1.34359,.4613,2.54702,1.5203,3.41805,1.66172,1.36662,3.52042,1.3511,5.43969,.63325,.97516-.36493,1.78111-.94562,2.22013-1.92478,.28434-.63475,.23778-1.27201-.29385-1.74657-.53413-.47707-1.15637-.43101-1.75308-.05707-.35592,.22326-.69282,.48157-1.06426,.6733-1.46323,.7559-2.68468,.04906-2.69945-1.57837-.02052-2.2812,.00976-4.56291-.01727-6.84361-.00601-.5026,.19673-.57568,.62049-.56567,1.01095,.02203,2.0229,.00801,3.03434,.00651,.45204-.0005,.90958-.03805,1.27426-.32488,.49659-.39046,.7206-.91158,.58144-1.55534-.14067-.65127-.55716-1.05625-1.19742-1.12133-.74588-.07659-1.50228-.04155-2.25392-.06908-.65327-.02353-1.49327,.27182-1.90951-.11414-.4245-.39447-.0886-1.24497-.13666-1.89324-.02077-.28083-.00776-.56567-.04681-.8435-.13241-.94262-.84075-1.54683-1.72554-1.49177-.94712,.05957-1.58237,.73337-1.59664,1.71153-.01001,.70534-.02153,1.41217,.00551,2.11651,.01527,.39146-.09461,.54114-.5086,.52612-.60922-.02102-1.22445-.01402-1.83017,.04906-.77016,.08009-1.34034,.73787-1.33508,1.45272,.00601,.77292,.52838,1.39766,1.32507,1.48876Z"/><path class="cls-3" d="M235.37267,30.65469c.55816,.37244,1.14961,.37695,1.73756,.08911,.64426-.31537,.87804-.88505,.87954-1.56485,.00451-2.14054,.0015-4.28157,.00175-6.42211,0-.80395,.08535-1.59539,.36218-2.35579,.27933-.76791,.69482-1.44822,1.44371-1.83467,1.05125-.54264,1.88924-.32639,2.96151,.69883,.52512,.50209,1.10531,.73387,1.8547,.49559,.65928-.21075,.9321-.68231,1.03823-1.29003,.13641-.77992-.06207-1.48576-.56217-2.10599-.69808-.86603-1.64395-1.20743-2.71321-1.29403-1.73956-.14067-3.16625,.46906-4.29759,1.87172-.04706-.12915-.07509-.18272-.0866-.23978-.23278-1.14235-.84-1.63394-1.88724-1.52681-.90282,.09261-1.47825,.78093-1.48,1.82666-.00726,4.02277-.00476,8.04553-.00125,12.0683,.0005,.64026,.18572,1.20793,.74889,1.58388Z"/><path class="cls-3" d="M158.49335,15.16384c-.94111-.00851-1.68074,.63926-1.68575,1.6079-.02253,4.16343-.01877,8.32686-.00125,12.4903,.00375,.8475,.56342,1.49477,1.28477,1.62993,1.15687,.21726,2.04993-.48157,2.06545-1.68299,.02603-2.04642,.00701-4.09285,.00701-6.13927-.0005-2.06995,.02052-4.1404-.00901-6.20986-.01502-1.06176-.6718-1.687-1.66122-1.69601Z"/><path class="cls-3" d="M158.51362,9.15222c-1.1844-.01101-2.13002,.91458-2.12201,2.07746,.00801,1.1794,.91133,2.06344,2.11801,2.07246,1.15161,.00901,2.07095-.88705,2.07796-2.0244,.00751-1.18741-.89706-2.1145-2.07396-2.12552Z"/></g><g><path class="cls-3" d="M135.99306,79.27526c0-12.14551,8.67041-20.78027,20.45801-20.78027,6.41309,0,11.32129,1.9707,14.25928,5.05176,2.04199,2.11426,3.36768,4.80078,3.36768,6.80762,0,2.18555-1.54053,3.79785-3.69043,3.79785-1.89844,0-3.08105-.78906-4.37061-2.47266-1.86328-3.04492-5.12354-5.08789-9.2793-5.08789-6.80762,0-11.75146,5.16016-11.75146,12.68359,0,7.48828,4.94385,12.68262,11.75146,12.68262,4.58594,0,7.70264-2.43652,9.52979-5.55273,1.18262-1.68457,2.22168-2.43652,4.08447-2.43652,2.11377,0,3.86963,1.6123,3.86963,3.86914,0,1.93457-1.36182,4.6582-3.29639,6.7002-3.08105,3.22461-8.24023,5.51758-14.47412,5.51758-11.7876,0-20.45801-8.63477-20.45801-20.78027Z"/><path class="cls-3" d="M182.71377,79.27526c0-12.50391,8.77783-20.78027,20.99512-20.78027,12.25293,0,21.03076,8.27637,21.03076,20.78027,0,12.46777-8.77783,20.78027-21.03076,20.78027-12.21729,0-20.99512-8.3125-20.99512-20.78027Zm20.99512,12.68262c7.02246,0,12.00244-5.12305,12.00244-12.68262s-4.97998-12.68359-12.00244-12.68359c-7.02197,0-12.00195,5.12402-12.00195,12.68359s4.97998,12.68262,12.00195,12.68262Z"/><path class="cls-3" d="M236.31338,95.14635c-1.75537-1.61133-2.97363-3.86914-2.97363-5.69629,0-2.07812,1.39746-3.54688,3.58252-3.54688,1.46924,0,2.5083,.60938,4.26367,2.43652,2.79443,3.00977,5.91162,4.26367,9.78076,4.26367,4.15625,0,6.66406-1.6123,6.66406-4.55078,0-2.54297-1.68359-4.22754-5.12305-4.87207l-6.1626-1.25391c-7.70312-1.54102-11.67969-5.51758-11.67969-11.39355,0-7.48828,5.98291-12.03809,15.37012-12.03809,5.05127,0,9.56592,1.25391,12.50342,3.51074,2.18555,1.64844,3.58301,3.90527,3.58301,6.05566,0,2.00586-1.50488,3.47461-3.4751,3.47461-1.54053,0-2.83057-.93066-4.58594-2.54297-2.29297-2.36523-5.15918-3.29688-8.20459-3.29688-3.76221,0-6.1626,1.57715-6.1626,4.19238,0,2.40039,1.82715,3.94043,5.4458,4.58594l6.48486,1.28906c7.4165,1.50488,11.0708,5.30273,11.0708,11.42969,0,8.06055-6.09082,12.8623-16.05078,12.8623-6.09082,0-11.4292-1.89941-14.33105-4.90918Z"/><path class="cls-3" d="M283.34463,43.19713c3.15234,0,5.40967,2.32812,5.40967,5.37402,0,3.08105-2.25732,5.40918-5.40967,5.40918-3.15332,0-5.48193-2.32812-5.48193-5.40918,0-3.0459,2.32861-5.37402,5.48193-5.37402Zm-4.44287,52.05664v-31.95801c0-2.68652,1.82715-4.5498,4.40674-4.5498,2.54395,0,4.33496,1.86328,4.33496,4.5498v31.95801c0,2.65137-1.79102,4.55078-4.33496,4.55078-2.57959,0-4.40674-1.89941-4.40674-4.55078Z"/><path class="cls-3" d="M299.55703,99.01647c0-3.22461,1.9707-5.66113,4.87256-7.02246-1.7915-1.43359-2.83008-3.47559-2.83008-5.91211,0-2.75781,1.21777-4.9082,3.97656-6.5918-2.40039-2.11426-3.72607-5.01562-3.72607-8.45508,0-7.66699,6.55664-12.54004,16.80322-12.54004,3.8335,0,7.16553,.68066,9.78076,1.93457l3.54736-2.97363c1.00293-.82422,2.22119-1.36133,3.36768-1.36133,1.89893,0,3.33203,1.50488,3.33203,3.15332,0,1.25391-.7168,2.50781-1.93506,3.61816l-2.79443,2.43652c.96729,1.64746,1.46924,3.58203,1.46924,5.73242,0,7.70312-6.48486,12.53906-16.76758,12.53906-2.97363,0-5.66064-.39355-7.91797-1.18164-.78809,.57324-1.18213,1.21777-1.18213,2.04199,0,1.6123,1.28955,2.65137,3.51123,2.65137h12.68262c8.20459,0,12.68311,3.43945,12.68311,9.67285,0,7.55957-7.34473,11.78809-20.42188,11.78809-11.93066,0-18.45117-3.26074-18.45117-9.53027Zm18.84521,2.90137c7.2373,0,10.99902-1.57617,10.99902-4.37109,0-2.25684-1.75537-3.40332-5.37402-3.40332h-12.21729c-.53711,0-1.03857-.03613-1.54053-.07129-1.32568,.89551-2.00635,2.04199-2.00635,3.51074,0,2.93848,3.26025,4.33496,10.13916,4.33496Zm.3584-24.79199c4.87256,0,7.91797-2.36523,7.91797-6.16309,0-3.83301-3.04541-6.19824-7.91797-6.19824-4.94434,0-8.06104,2.40137-8.06104,6.19824,0,3.79785,3.1167,6.16309,8.06104,6.16309Z"/><path class="cls-3" d="M350.41933,95.25377v-31.95801c0-2.68652,1.82715-4.5498,4.40674-4.5498,2.54395,0,4.33496,1.86328,4.33496,4.5498v.78809c2.43652-3.61816,6.87891-5.58887,12.28906-5.58887,9.70947,0,16.08643,6.05469,16.08643,16.83887v19.91992c0,2.61621-1.82715,4.55078-4.37061,4.55078-2.57959,0-4.37109-1.9707-4.37109-4.55078v-18.37891c0-6.98633-3.54688-10.35449-9.2793-10.35449-6.41309,0-10.35449,4.40723-10.35449,10.96387v17.76953c0,2.65137-1.79102,4.55078-4.33496,4.55078-2.57959,0-4.40674-1.89941-4.40674-4.55078Z"/></g></svg>