<?xml version="1.0" encoding="UTF-8"?><svg id="a" xmlns="http://www.w3.org/2000/svg" viewBox="0 0 1920 511"><g><path d="M922.54324,298.17556c13.82985,.4238,30.11252-1.4616,45.7332,3.98017,14.7146,5.12618,24.24639,14.84498,26.09801,30.86232,1.897,16.41104-3.7521,29.67964-17.28299,39.2483-17.04905,12.05647-36.84283,14.86992-56.9382,15.52601-22.77791,.74376-45.57236,.5653-67.00374-9.15383-25.67513-11.64356-28.98246-40.74099-6.14677-56.88147,4.05829-2.8684,3.63203-3.97637,.78864-7.23297-10.57345-12.10973-10.44407-33.94192,4.22196-44.23551,4.24657-2.98053,3.74947-5.25214,.68275-8.85031-21.42321-25.13639-11.10851-63.68677,20.04539-75.79088,25.19128-9.78754,50.49144-9.82494,75.82919-.93164,3.14319,1.10322,4.9795,.96067,7.42753-1.20211,4.58743-4.05285,9.38034-7.91944,14.38163-11.44721,7.54384-5.32129,16.78241-4.85816,21.79319,.69062,5.34892,5.9232,5.48449,14.60941-2.41449,20.94921-10.5664,8.48061-12.19911,16.4703-8.67635,29.85361,6.02604,22.89292-9.45447,45.47798-33.72623,54.01504-20.63147,7.25669-41.69915,7.47913-62.84586,2.57307-4.34757-1.00869-8.12504-1.88259-9.82492,3.41071-1.52927,4.76205-.91256,9.14531,3.79588,11.98004,3.6091,2.17287,7.68026,2.63424,11.81362,2.6357,10.00381,.00357,20.00762,.00113,32.24854,.00113Zm-9.93334-41.71014c4.04664-.45095,7.6673-.53412,11.13763-1.2988,12.42215-2.73728,20.52633-11.10066,21.52524-21.86075,.99703-10.73874-4.43654-21.11015-14.10748-24.99935-12.56769-5.05407-25.48854-5.44196-38.01029,.25785-15.05668,6.85369-19.57966,26.13101-8.85054,37.77801,7.68242,8.33969,18.12828,9.74057,28.30543,10.12304Zm-2.72247,71.46731l-.00028-.24116c-9.45888,0-18.92782,.26389-28.37317-.09397-6.1649-.23355-9.42346,2.98675-11.60383,7.97133-4.49,10.26527,1.13514,19.50312,14.76364,22.23434,19.20958,3.84961,38.53229,3.76203,57.69377-1.11966,3.58449-.91316,6.60319-2.79828,9.42205-4.85102,7.43749-5.41613,6.41951-16.63679-1.76706-21.03851-3.63804-1.95599-7.62154-2.84952-11.76749-2.85638-9.45588-.01573-18.91175-.00498-28.36763-.00498Z" style="fill:#2f2e71;"/><path d="M1830.34238,276.66471c-16.92052,.00059-33.84461,.1891-50.75949-.11863-4.83744-.08801-5.12193,1.59935-4.47478,5.61108,3.02302,18.73679,20.30564,33.43892,43.36597,35.9511,17.48593,1.90494,33.65351-.85389,46.32003-14.76571,2.51023-2.75686,5.97634-4.90071,9.384-6.5264,5.72548-2.7315,11.83222-3.69459,17.21234,.83365,5.56313,4.68242,6.42036,11.00664,4.19556,17.47533-4.60425,13.3869-14.47549,22.59094-26.91954,27.90483-35.64136,15.21947-70.31144,13.89209-102.25594-9.80606-15.45918-11.46853-23.51018-27.87266-27.19782-46.52006-5.21889-26.38882-2.58539-51.80881,12.90498-74.19761,19.82761-28.65785,48.79851-37.386,82.14761-33.16643,31.21318,3.94932,52.73494,20.75414,62.91228,50.88468,3.11284,9.21547,4.51612,18.93468,3.49053,28.70817-1.30482,12.4303-7.03105,17.56989-19.56416,17.69089-16.9192,.16339-33.84085,.0406-50.76156,.04119Zm-10.58829-29.86573c12.55002,0,25.11489-.36641,37.64368,.15012,6.55095,.27004,6.97581-2.09064,5.62946-7.45671-4.50428-17.95236-18.66466-29.34753-39.02704-30.96001-23.47692-1.85913-41.55362,9.17936-48.01757,29.32187-2.57525,8.02468-1.99762,8.91098,6.12177,8.93503,12.54984,.03712,25.09986,.00977,37.6497,.0097Z" style="fill:#2f2e71;"/><path d="M1457.56587,352.55175c-51.10665,.21519-86.99961-35.28701-87.48309-86.53065-.47841-50.71535,35.34569-87.38584,85.60216-87.62427,53.96027-.256,90.20528,34.07966,90.40888,85.64649,.2098,53.14107-34.93972,88.28282-88.52794,88.50843Zm-.38032-34.11531c29.85923,.28634,50.54744-20.70676,51.35487-52.11182,.79625-30.96724-20.26843-53.60878-50.26906-54.03218-28.58119-.40337-50.06255,21.75081-50.63726,52.22333-.58082,30.79345,20.41566,53.64128,49.55144,53.92067Z" style="fill:#2f2e71;"/><path d="M1101.9937,352.48088c-16.7343-.35237-38.40273-4.92334-55.34927-22.2087-5.42718-5.53566-9.6093-12.01359-10.49584-20.00855-.67063-6.0492,1.11268-11.44787,6.42956-14.64328,5.08228-3.05433,10.74378-3.01704,16.09834-.21829,4.8194,2.51908,8.66451,6.29529,12.49074,10.10236,14.04622,13.97569,31.1165,17.91026,50.12766,14.44147,9.77344-1.78316,15.26751-7.53607,16.32974-15.93116,1.02559-8.10541-3.33701-15.19336-12.30481-19.15433-10.40264-4.59469-21.77966-5.40874-32.73643-7.81941-12.5722-2.76609-24.95536-6.02211-35.08281-14.39735-22.93397-18.96581-21.27438-55.18315,3.38136-72.06093,19.40068-13.28051,41.23475-13.9333,63.46097-10.67207,15.1932,2.2293,29.23585,7.36214,40.17796,18.89323,3.97317,4.18714,6.68333,9.10454,8.10465,14.60352,1.56817,6.06724,.66622,11.68555-4.49273,16.0126-5.12503,4.29866-10.64729,4.04888-16.44841,1.64899-6.57021-2.71812-11.14581-8.10699-16.5138-12.39186-12.62415-10.07688-26.91475-11.83083-41.97895-8.45032-8.85646,1.98743-13.59149,8.09797-13.76061,15.35433-.18105,7.76932,4.36843,13.77186,13.03181,16.81713,14.80376,5.20372,30.61573,6.07994,45.61332,10.5224,8.68302,2.57199,16.86584,6.07856,23.52653,12.28511,24.31864,22.66092,16.56406,64.98703-14.46328,79.56596-12.29616,5.77752-25.35175,7.69692-45.14572,7.70914Z" style="fill:#2f2e71;"/><path d="M626.94879,352.06981c-24.07474-.18837-46.85317-4.31291-64.17651-23.29427-4.05824-4.44666-7.05365-9.43768-8.54768-15.20759-1.78534-6.89483-.98425-13.31538,5.38124-17.6969,5.68306-3.91175,14.37337-3.11811,20.04544,1.62818,4.51293,3.7763,8.82668,7.78944,13.29657,11.61849,13.95236,11.95183,30.19713,14.1479,47.49778,10.47614,8.92443-1.89409,14.14525-8.42693,14.51904-16.51872,.39906-8.63864-4.11757-16.2151-12.95609-18.66212-14.04284-3.88791-28.47958-6.34068-42.56126-10.10485-17.1927-4.59577-32.00046-12.88216-38.16582-30.98236-8.95544-26.29107,6.00213-53.34785,34.53117-61.1241,26.06847-7.10556,51.7187-5.48177,75.7537,8.22275,8.72849,4.97693,15.33953,11.98027,18.16474,21.80249,1.9436,6.75699,1.43832,13.45324-4.97264,17.82661-6.43774,4.39162-13.11233,3.29485-19.37137-.81066-6.62738-4.34715-11.76359-10.5627-18.81371-14.48848-11.83772-6.5917-24.15939-7.65846-36.95661-4.16413-7.25851,1.98196-12.2179,6.58273-12.61466,14.57123-.38469,7.74671,3.32753,13.04743,10.40898,16.26608,10.41932,4.73579,21.76186,5.43203,32.72385,7.77676,12.03314,2.57387,24.19566,5.03265,34.38563,12.34123,18.61289,13.34973,24.26711,38.65757,13.84521,59.74219-10.53577,21.31512-29.70073,28.22311-51.439,30.72923-3.28435,.37867-6.64993,.05279-9.97797,.05279Z" style="fill:#2f2e71;"/><path d="M1241.0283,263.23867c-.00207-13.84046-.16451-27.68392,.09217-41.51963,.08202-4.42269-1.36091-5.72097-5.67691-5.61653-6.64002,.16078-13.34477,.09353-19.93311-.65737-8.6818-.9895-14.3759-7.80107-14.43932-16.22367-.05853-7.79024,6.15579-14.95669,14.55122-15.83164,6.5999-.68783,13.30606-.76393,19.94467-.53144,4.51002,.15794,5.70819-1.47079,5.54406-5.73755-.2952-7.67779-.17081-15.37633-.05994-23.06391,.15371-10.66324,7.07699-18.00719,17.39911-18.65381,9.64219-.60402,17.36182,5.9835,18.80512,16.25594,.42542,3.02805,.28393,6.13158,.51016,9.19255,.52247,7.06843-3.13783,16.33643,1.4915,20.63312,4.53463,4.20879,13.68873,.98675,20.80922,1.24505,8.18949,.29707,16.43563-.07904,24.56376,.75107,6.97618,.71249,11.51542,5.12569,13.0491,12.22378,1.51574,7.01529-.92421,12.6929-6.33683,16.95135-3.97251,3.1256-8.95896,3.53219-13.88613,3.53874-11.02404,.01468-22.05194,.17226-33.07044-.07364-4.61797-.10306-6.82642,.69222-6.76141,6.16805,.29529,24.85806-.03664,49.7231,.18725,74.58265,.15963,17.73536,13.47443,25.44243,29.4199,17.20557,4.04955-2.0919,7.72123-4.90827,11.59894-7.34033,6.50257-4.07837,13.28445-4.57581,19.10746,.62189,5.792,5.17009,6.30122,12.11569,3.20041,19.03518-4.78304,10.67329-13.57007,17.00109-24.19763,20.97609-20.91323,7.82236-41.17039,7.99289-59.28204-6.90211-11.54266-9.49277-16.25937-22.60418-16.56857-37.24708-.28139-13.32191-.05957-26.65445-.06173-39.98229Z" style="fill:#2f2e71;"/><path d="M1629.91744,198.93003c12.32923-15.28788,27.87861-21.93457,46.83527-20.40156,11.65146,.94223,21.96221,4.66375,29.57126,14.10378,5.44776,6.75859,7.61224,14.4503,6.12704,22.95282-1.15712,6.62303-4.13092,11.76297-11.31887,14.05461-8.16638,2.60357-14.48883,.07359-20.21112-5.39819-11.68491-11.17318-20.819-13.52939-32.27729-7.61584-8.15792,4.21018-12.68795,11.626-15.73427,19.99711-3.01419,8.28226-3.9447,16.91169-3.94508,25.67058-.00113,23.33043,.03082,46.66091-.02029,69.99124-.01616,7.41209-2.5619,13.61984-9.583,17.05547-6.40946,3.13642-12.85518,3.08551-18.93731-.9721-6.13963-4.0958-8.15585-10.28406-8.16187-17.26296-.03796-43.84064-.06539-87.68133,.01334-131.52181,.02048-11.39668,6.28976-18.89861,16.12775-19.90722,11.41545-1.17033,18.03104,4.18886,20.56814,16.63688,.12702,.62326,.43068,1.21051,.94629,2.61719Z" style="fill:#2f2e71;"/><path d="M780.76705,265.70316c.00287,22.30289,.2097,44.60838-.07573,66.90763-.16756,13.09366-9.90281,20.70976-22.50817,18.34552-7.86436-1.47504-13.96425-8.52907-14.00305-17.76411-.19082-45.37429-.23361-90.75055,.0116-136.1243,.05708-10.55664,8.11775-17.61702,18.37411-17.5245,10.78273,.09726,17.94028,6.91216,18.10456,18.48364,.32019,22.55459,.09381,45.11697,.09668,67.67612Z" style="fill:#2f2e71;"/><path d="M785.38948,137.18852c-.07864,12.40182-10.0956,22.16277-22.64638,22.06769-13.15076-.09963-22.99649-9.73458-23.0841-22.58991-.08634-12.67169,10.21995-22.75928,23.12878-22.63811,12.82568,.12039,22.68372,10.22211,22.6017,23.16033Z" style="fill:#2f2e71;"/></g><g><path d="M97.15668,162.65271c-1.14569,2.04126-2.29138,4.08252-3.43707,6.12372,2.13635-1.49329,3.38885-3.47528,3.43707-6.12372Z" style="fill:none;"/><path d="M259.29047,432.21173c-3.74908-.34735-7.50287-.45294-11.27032-.53882-5.69275-.12982-11.36761-.9989-17.0611-1.15625-11.12115-.30743-22.10767-2.0741-33.12909-3.22369-8.69177-.90656-17.51776-2.75122-25.30322-7.42609-.52399-.31464-1.11511-.52972-1.69403-.7381-1.51404-.5451-2.38306-.0329-2.55469,1.60101-.20728,1.9743,.11053,3.88495,1.0321,5.6106,1.30609,2.44562,2.56006,4.96698,4.22064,7.16571,3.8103,5.04492,8.63202,8.55548,15.30927,8.4549,4.61908-.06964,9.2384-.26648,13.85162-.51752,2.07092-.11273,4.14801-.29657,6.17627-.86395,5.49982-1.53857,11.11877-2.49658,16.75952-3.34406,1.0166-.15271,1.99048-.00098,2.98779,.11053,5.05011,.56445,10.10382,1.09644,14.64478,1.58478,6.28979-.15802,11.88477-.94067,16.79425-4.32043,.61975-.4267,1.61798-.77917,1.41309-1.63568-.25537-1.0672-1.37982-.68915-2.17688-.76294Z" style="fill:none;"/><path d="M98.84778,358.82117c-2.90674-3.69482-5.56067-7.64307-8.83167-10.9856-7.00909-7.16223-12.07458-15.58191-16.67572-24.33978-1.28485-2.44556-2.95837-4.70667-3.70166-7.43176-3.00421-11.01404-5.87518-22.08929-6.59027-33.51147-.56189-8.97546-2.78845-17.6507-4.11664-26.47601-1.29114-8.57886-2.87866-17.08832-3.44879-25.77258-.44116-6.72064-.32977-13.39948,.41052-20.07422,.72211-6.5105,1.5802-13.00714,3.35315-19.33459,3.23877-11.5589,8.18365-22.4137,13.58539-33.09503,5.39148-10.66113,12.21692-20.33136,19.84082-29.47321,4.73853-5.68207,9.80316-11.08905,14.28107-16.99249,1.45502-1.91833,2.65845-3.95642,3.7738-6.71185-2.76263,.85657-5.03882,1.52069-6.83014,3.4176-8.90082,9.42517-17.6272,19.03064-26.84753,28.13452-10.73444,10.59912-17.37445,23.43567-22.05029,37.49756-4.29816,12.92627-6.17633,26.26117-6.10358,39.83826,.06287,11.73492,1.82758,23.34424,3.31738,34.95825,.96997,7.56134,2.08234,15.13904,2.74451,22.69794,.71619,8.17517,1.75916,16.22754,3.50903,24.21576,3.21741,14.68768,8.4115,28.67456,15.38599,41.96503,2.93689,5.59637,6.93237,10.47864,11.37109,15.06036,2.75867,2.84747,5.76965,5.31793,8.80316,7.79498,1.1131,.90887,2.51715,1.47467,3.82288,2.1283,.56531,.28302,1.22626,.26886,1.74408-.17828,.58563-.50568,.34937-1.13983,.1109-1.70807-.23651-.56342-.48462-1.14954-.85748-1.6236Z" style="fill:none;"/><path d="M262.22968,409.07526c-13.98389,.77289-27.8916-.2373-41.7063-2.69476-27.23413-4.84448-51.70691-15.71063-72.96283-33.46826-21.03931-17.57672-36.51111-39.40344-47.9007-64.19708-5.67981-12.36401-9.50415-25.37592-13.02625-38.56561,.28778,4.21497-.30945,8.42908-.07916,12.55377,.23663,4.23901,1.80798,8.40228,2.78339,12.6015,1.15149,4.95709,3.00342,9.66718,4.81342,14.41278,3.96863,10.40527,8.80505,20.2356,15.67053,29.14209,5.97589,7.75232,11.86072,15.50952,18.64758,22.61011,7.99475,8.36432,16.9173,15.56073,26.32141,22.18231,3.21356,2.26276,5.96136,5.20001,9.54272,6.89746,5.83252,2.7644,11.63275,5.64795,17.64294,7.97382,7.4447,2.88098,14.9353,5.6156,22.77936,7.45264,6.82373,1.59802,13.75568,2.60229,20.54858,4.29547,.81354,.20276,1.68597,.28943,2.5238,.25433,4.48981-.18793,8.92725,.53333,13.39404,.70947,6.44818,.25427,12.85272,1.21411,19.36249-.05487,3.56702-.69531,7.30334-.87079,11.02441-.82367,3.60242,.04559,7.27466-.22998,10.80896-.91681,12.88556-2.50415,25.06964-7.01343,36.51288-13.47424,.76068-.4295,1.61383-.78656,2.30145-1.90118-3.23907,.20483-5.73578,1.58063-8.26501,2.74872-16.10724,7.43915-33.10571,11.28748-50.73773,12.26202Z" style="fill:none;"/><path d="M249.41669,29.75189c.43896,.11096,.91858,.08484,1.37964,.08081,2.7085-.0235,5.38751,.30908,8.05603,.70703,17.02167,2.53809,33.81281,6.24213,50.42682,10.64691,11.56091,3.06512,21.71033,9.17676,30.99432,16.62085,6.4696,5.18744,11.47595,11.82935,17.00049,17.95001,.73499,.81427,1.36053,2.2074,2.76349,1.4856,1.3551-.69708,.96051-2.12219,.82544-3.3349-.04175-.37469-.22437-.73456-.34961-1.09882-3.0011-8.72894-7.27094-16.49982-14.54749-22.63007-8.12048-6.84143-16.92322-12.48364-26.76959-16.21045-15.73798-5.95679-32.28735-7.84503-49.00049-8.49927-1.62091,0-3.25403-.12903-4.86041,.02356-5.35748,.50903-10.82343,.20728-16.01093,2.02008-.51617,.18042-1.41833,.15198-1.367,.94751,.04785,.74249,.77136,1.11719,1.45929,1.29114Z" style="fill:none;"/><path d="M132.0462,397.41144c-4.30359-2.1712-8.17975-4.85999-11.63184-8.26233-3.05609-3.01215-5.75153-2.15906-7.24799,1.90991-.85333,2.32037-.198,4.55426,.03186,6.841,.63855,6.35138,4.15833,9.23956,10.43658,8.18921,5.85211-.979,11.60529-2.51379,17.52258-3.16125,.80731-.08832,1.69568-.21759,2.59436-1.03845-1.86829-1.31531-3.68463-2.22205-5.77545-2.60889-2.04596-.3786-4.03564-.91345-5.93011-1.8692Z" style="fill:none;"/><path d="M431.17877,181.48303c3.03461,12.65564,5.73517,25.35974,6.65576,38.33923,.92059,12.97925-.43646,25.98761,.38354,39.01605,3.88184-12.87573,4.56323-26.10864,3.67987-39.37054-.88727-13.32074-3.59113-26.28888-10.71918-37.98474Z" style="fill:none;"/><path d="M438.96344,159.96875c-9.388-17.09351-22.4679-31.04688-37.77423-42.9884-.55682-.43439-1.07959-1.21252-2.33606-.84003,1.46509,.88306,2.23877,2.04504,3.07965,3.1449,7.401,9.68097,14.77924,19.37939,22.20306,29.04285,8.54926,11.12842,15.69739,22.98114,20.1795,36.40631,4.03204,12.0769,6.29938,24.42157,6.98444,37.09418,.11646,2.15503,.20984,4.31616,.18408,6.47296-.08331,6.97858,.4328,13.95801-.9104,20.91711-1.13647,5.88794-2.33929,11.75488-3.4942,17.67712,.13959-.17334,.32867-.32587,.41168-.52301,7.81165-18.54541,10.38873-37.71515,7.50507-57.71051-2.48315-17.21808-7.68237-33.48975-16.03259-48.69348Z" style="fill:none;"/><path d="M410.24335,188.17517c-3.05981-9.47906-6.39606-18.83209-10.96326-27.67688-7.97791-15.45001-19.02112-28.64423-31.30792-40.76349-8.96539-8.84314-18.78564-16.71393-29.72314-23.10864-8.55347-5.00092-17.68365-8.57861-26.92255-12.09222-9.3147-3.54236-18.77484-6.53564-28.27185-9.46942-5.82971-1.80084-11.78088-3.20459-17.81781-3.98358-29.08911-3.75372-56.87219,.84888-83.35181,13.41663-.34149,.16211-.87677,.19464-.8858,.76453,.9837,.50861,2.10547-1.31042,2.90143,.15753,.49225,.90771,1.54596,2.14917,.9436,2.9032-1.29761,1.62433,.00275,1.17499,.70428,1.08716,.75415-.09436,1.48352-.40265,2.21796-.63556,9.01331-2.85834,17.92078-6.1283,27.34265-7.45795,5.11261-.72156,10.0929-2.26312,15.25977-2.55737,4.76776-.27161,9.56433-.10248,14.32257-.46417,14.49506-1.10211,28.5885,1.53253,42.5979,4.59625,6.3042,1.37872,12.36725,3.72589,18.41821,6.0899,14.67963,5.73517,28.43347,13.03369,41.08868,22.45093,9.38702,6.98523,17.78998,15.03717,26.02991,23.28778,.68475,.68567,1.38477,1.13336,2.45673,1.41461,2.06616,.54211,4.50311,.56055,6.00952,2.44275,6.12262,7.65009,10.40277,16.36554,14.3075,25.26556,3.40387,7.75848,6.26422,15.73773,8.95612,23.76807,5.89087,17.5733,9.66364,35.55707,10.0863,54.14893,.11365,4.99927,.01715,10.0033,.01715,15.00513l.68011-.00714c.72754-6.54034,1.69812-13.06586,2.1004-19.62616,.28668-4.67511-.22137-9.401-.43414-14.09387-.54071-11.92889-3.09131-23.48938-6.76251-34.86249Z" style="fill:none;"/><path d="M413.25043,347.6651c-4.36426,7.89673-8.2818,16.1319-13.91876,23.18188-9.87708,12.35297-18.56018,25.67065-29.73706,36.98224-4.12677,4.17645-8.48926,8.02802-13.31091,11.40527-2.82489,1.97864-5.62921,4.06812-7.94446,6.6839-2.17493,2.45721-1.92383,3.4715,1.12848,4.76593,.4184,.17749,.88989,.33112,1.33539,.32739,4.08124-.03412,8.15424,.22797,12.24017-.3786,6.31226-.93695,12.24493-3.06458,18.07434-5.47644,4.94263-2.04498,9.35272-5.18634,13.38074-8.57782,4.13251-3.47949,7.31964-7.94531,9.48407-13.07147,2.28064-5.40143,4.07019-10.96674,5.89612-16.51678,2.12054-6.44586,3.06042-13.18201,4.47424-19.80237,1.28809-6.03143,2.25745-12.11304,2.84033-18.23547,.16559-1.73901,.66156-3.85773-.96875-5.60132-1.43109,1.29816-2.15863,2.83838-2.97394,4.31366Z" style="fill:none;"/><path d="M452.28894,186.2262c-4.94873-18.55499-14.57062-34.59863-27.18927-48.91064-9.76776-11.07855-20.68146-20.98517-31.66052-30.83948-10.2774-9.22449-18.5072-19.99634-23.79291-32.92847-2.7406-6.70532-6.01428-13.18549-10.2373-19.14191-8.31274-11.72473-19.88721-19.19733-32.6366-25.11841-21.03882-9.77081-43.40265-13.19904-66.35449-13.65552-12.9707-.22839-25.74658,1.45807-38.35046,4.24377-18.54932,4.09998-35.57538,12.07379-52.09985,21.22388-11.07446,6.13226-20.75482,14.1637-30.47223,22.16089-15.50806,12.76276-30.70428,25.9071-44.10449,40.88373-10.06708,11.2514-21.4975,20.45251-34.71198,27.69379-11.84589,6.49133-22.22931,14.95483-31.60028,24.72876-9.17902,9.57373-13.78961,20.82031-13.68091,34.04663,.07532,9.16101,1.5777,18.12964,3.90131,26.95007,3.59955,13.66394,8.98242,26.74017,13.49615,40.10364,2.64496,7.83099,5.4588,15.61084,5.28821,24.04565-.16223,8.02844-.66864,16.04474-1.61993,24.01251-2.13934,17.91791-.72852,35.5611,3.52045,53.05048,3.89178,16.01953,13.20264,27.62225,28.02112,34.78772,1.93268,.93451,4.02753,1.53723,6.05603,2.26935,3.02423,1.09155,3.46777,2.81757,1.29773,5.13434-.26373,.28162-.56317,.53156-.81226,.82483-6.85681,8.07208-10.88245,17.09338-9.68481,27.98706,1.97778,17.98828,20.73346,28.12604,36.85345,19.85754,7.59088-3.89355,16.93488-.883,20.7782,6.7132,.90485,1.78839,1.7417,3.61139,2.60718,5.41968,3.4574,7.22412,6.42487,14.70856,11.77887,20.88153,6.5824,7.58911,14.90393,10.35883,24.69434,9.15283,6.71344-.82703,12.72388-3.6319,18.51825-6.92712,11.26038-6.40369,21.06104-14.82281,31.16229-22.81232,3.38239-2.67529,7.013-3.61407,11.2204-3.14496,6.87347,.76648,12.87317,3.62598,18.47058,7.4696,9.22998,6.33801,19.14777,11.21973,29.9137,14.3429,19.68085,5.70941,39.55304,7.38892,59.65283,2.48853,19.75513-4.81641,37.54938-13.78662,54.00378-25.64819,10.24121-7.38263,18.66333-16.27655,24.9715-27.2522,6.19043-10.77087,9.7514-22.4632,12.56879-34.42358,4.1189-17.48547,5.61853-35.33612,6.93738-53.18909,1.1131-15.0672,3.6073-29.87585,8.02026-44.31036,3.51978-11.51312,8.5813-22.46161,13.08191-33.6106,3.87122-9.58978,6.21344-19.48608,7.22662-29.78503,1.63593-16.6286-.77417-32.80695-5.03302-48.77502ZM249.3244,27.51324c5.1875-1.81281,10.65344-1.51105,16.01093-2.02008,1.60638-.15259,3.2395-.02356,4.86041-.02356,16.71313,.65424,33.26251,2.54248,49.00049,8.49927,9.84637,3.72681,18.64911,9.36902,26.76959,16.21045,7.27655,6.13025,11.54639,13.90112,14.54749,22.63007,.12524,.36426,.30786,.72412,.34961,1.09882,.13507,1.21271,.52966,2.63782-.82544,3.3349-1.40295,.7218-2.0285-.67133-2.76349-1.4856-5.52454-6.12067-10.53088-12.76257-17.00049-17.95001-9.284-7.44409-19.43341-13.55573-30.99432-16.62085-16.61401-4.40479-33.40515-8.10883-50.42682-10.64691-2.66852-.39795-5.34753-.73053-8.05603-.70703-.46106,.00403-.94067,.03015-1.37964-.08081-.68793-.17395-1.41144-.54865-1.45929-1.29114-.05133-.79553,.85083-.76709,1.367-.94751Zm-70.16583,196.00623c9.85474,.07654,17.99902,8.23608,18.07562,18.10962,.07812,10.0647-8.21375,18.33179-18.32135,18.2666-10.11835-.06525-18.18494-8.35394-18.0191-18.51532,.16162-9.90729,8.37372-17.93774,18.26483-17.8609Zm59.81055,19.74872l.26782-.00024c0-17.71252,.26178-35.42969-.05457-53.1366-.65613-36.72559,30.79443-48.38947,56.91895-39.76025,5.10205,1.6853,9.88477,3.97577,13.60632,8.01093,3.45355,3.74457,3.91595,8.30566,1.28424,12.02185-2.53601,3.58112-5.87402,4.2677-10.93018,2.07861-3.771-1.63269-7.38135-3.67474-11.22729-5.08813-9.58228-3.52142-20.46173-.46271-25.88904,6.97528-2.33881,3.20538-2.96295,6.94464-3.39832,10.72284-.84088,7.29749-.51837,14.6322-.52356,21.95294-.02203,30.99689,.03125,61.9939-.02484,92.99072-.03424,18.89972-9.98718,33.13245-27.65936,37.77844-15.25085,4.0094-30.02826,2.55634-42.38745-8.65881-3.70569-3.36267-4.29004-8.18829-2.1134-11.63892,2.3443-3.71643,5.9408-4.76349,10.37268-2.83813,4.84827,2.1062,9.2619,5.27264,14.65741,6.0321,15.9519,2.24536,27.14142-4.68427,27.10846-22.03418-.03503-18.46942-.00787-36.93896-.00787-55.40845Zm-139.37476,118.88464c-.51782,.44714-1.17877,.4613-1.74408,.17828-1.30573-.65363-2.70978-1.21942-3.82288-2.1283-3.03351-2.47705-6.04449-4.94751-8.80316-7.79498-4.43872-4.58173-8.4342-9.46399-11.37109-15.06036-6.97449-13.29047-12.16858-27.27734-15.38599-41.96503-1.74988-7.98822-2.79285-16.04059-3.50903-24.21576-.66217-7.5589-1.77454-15.1366-2.74451-22.69794-1.48981-11.61401-3.25452-23.22333-3.31738-34.95825-.07275-13.57709,1.80542-26.91199,6.10358-39.83826,4.67584-14.06189,11.31586-26.89844,22.05029-37.49756,9.22034-9.10388,17.94672-18.70935,26.84753-28.13452,1.79132-1.89691,4.0675-2.56104,6.83014-3.4176-1.11536,2.75543-2.31879,4.79352-3.7738,6.71185-4.47791,5.90344-9.54254,11.31042-14.28107,16.99249-7.6239,9.14185-14.44934,18.81207-19.84082,29.47321-5.40173,10.68134-10.34662,21.53613-13.58539,33.09503-1.77295,6.32745-2.63104,12.8241-3.35315,19.33459-.7403,6.67474-.85168,13.35358-.41052,20.07422,.57013,8.68427,2.15765,17.19373,3.44879,25.77258,1.32819,8.82532,3.55475,17.50055,4.11664,26.47601,.71509,11.42218,3.58606,22.49744,6.59027,33.51147,.74329,2.7251,2.41681,4.98621,3.70166,7.43176,4.60114,8.75787,9.66663,17.17755,16.67572,24.33978,3.271,3.34253,5.92493,7.29077,8.83167,10.9856,.37286,.47406,.62097,1.06018,.85748,1.6236,.23846,.56824,.47473,1.20239-.1109,1.70807Zm41.56305,40.77515c-5.9173,.64746-11.67047,2.18225-17.52258,3.16125-6.27826,1.05035-9.79803-1.83783-10.43658-8.18921-.22986-2.28674-.88519-4.52063-.03186-6.841,1.49646-4.06897,4.19189-4.92206,7.24799-1.90991,3.45209,3.40234,7.32825,6.09113,11.63184,8.26233,1.89447,.95575,3.88416,1.4906,5.93011,1.8692,2.09082,.38684,3.90717,1.29358,5.77545,2.60889-.89868,.82086-1.78705,.95013-2.59436,1.03845Zm118.89685,31.68237c-4.90948,3.37976-10.50446,4.16241-16.79425,4.32043-4.54095-.48834-9.59467-1.02032-14.64478-1.58478-.99731-.11151-1.97119-.26324-2.98779-.11053-5.64075,.84747-11.2597,1.80548-16.75952,3.34406-2.02826,.56738-4.10535,.75122-6.17627,.86395-4.61322,.25104-9.23254,.44788-13.85162,.51752-6.67725,.10059-11.49896-3.40997-15.30927-8.4549-1.66058-2.19873-2.91455-4.72009-4.22064-7.16571-.92157-1.72565-1.23938-3.63629-1.0321-5.6106,.17163-1.63391,1.04065-2.14612,2.55469-1.60101,.57892,.20837,1.17004,.42346,1.69403,.7381,7.78546,4.67487,16.61145,6.51953,25.30322,7.42609,11.02142,1.1496,22.00793,2.91626,33.12909,3.22369,5.69348,.15735,11.36835,1.02643,17.0611,1.15625,3.76746,.08588,7.52124,.19147,11.27032,.53882,.79706,.07379,1.92151-.30426,2.17688,.76294,.2049,.85651-.79333,1.20898-1.41309,1.63568Zm58.87671-38.64465c-11.44324,6.46082-23.62732,10.97009-36.51288,13.47424-3.5343,.68683-7.20654,.9624-10.80896,.91681-3.72107-.04712-7.4574,.12836-11.02441,.82367-6.50977,1.26898-12.91431,.30914-19.36249,.05487-4.4668-.17615-8.90424-.8974-13.39404-.70947-.83783,.0351-1.71027-.05157-2.5238-.25433-6.79291-1.69318-13.72485-2.69745-20.54858-4.29547-7.84406-1.83704-15.33466-4.57166-22.77936-7.45264-6.01019-2.32587-11.81042-5.20941-17.64294-7.97382-3.58136-1.69745-6.32916-4.6347-9.54272-6.89746-9.40411-6.62158-18.32666-13.81799-26.32141-22.18231-6.78687-7.10059-12.67169-14.85779-18.64758-22.61011-6.86548-8.90649-11.7019-18.73682-15.67053-29.14209-1.81-4.74561-3.66193-9.45569-4.81342-14.41278-.9754-4.19922-2.54675-8.36249-2.78339-12.6015-.23029-4.12469,.36694-8.33881,.07916-12.55377,3.52209,13.1897,7.34644,26.2016,13.02625,38.56561,11.38959,24.79364,26.86139,46.62036,47.9007,64.19708,21.25592,17.75763,45.7287,28.62378,72.96283,33.46826,13.8147,2.45746,27.72241,3.46765,41.7063,2.69476,17.63202-.97455,34.63049-4.82288,50.73773-12.26202,2.52924-1.16809,5.02594-2.54388,8.26501-2.74872-.68762,1.11462-1.54077,1.47168-2.30145,1.90118Zm1.6134-136.06818c-9.92072-.06451-17.99158-8.14722-18.04645-18.07275-.05548-10.04254,8.33557-18.42303,18.33167-18.30872,9.95319,.11389,17.95923,8.18201,17.99115,18.13086,.03265,10.16815-8.12732,18.31659-18.27637,18.25061Zm96.64874,89.05524c-.58289,6.12244-1.55225,12.20404-2.84033,18.23547-1.41382,6.62036-2.3537,13.35651-4.47424,19.80237-1.82593,5.55005-3.61548,11.11536-5.89612,16.51678-2.16443,5.12616-5.35156,9.59198-9.48407,13.07147-4.02802,3.39148-8.43811,6.53284-13.38074,8.57782-5.82941,2.41187-11.76208,4.53949-18.07434,5.47644-4.08594,.60657-8.15894,.34448-12.24017,.3786-.4455,.00372-.91699-.1499-1.33539-.32739-3.05231-1.29443-3.30341-2.30872-1.12848-4.76593,2.31525-2.61578,5.11957-4.70526,7.94446-6.6839,4.82166-3.37726,9.18414-7.22882,13.31091-11.40527,11.17688-11.31158,19.85999-24.62927,29.73706-36.98224,5.63696-7.04999,9.5545-15.28516,13.91876-23.18188,.81531-1.47528,1.54285-3.0155,2.97394-4.31366,1.63031,1.74359,1.13434,3.8623,.96875,5.60132ZM181.88501,84.49756c26.47961-12.56775,54.2627-17.17035,83.35181-13.41663,6.03693,.77899,11.9881,2.18274,17.81781,3.98358,9.49701,2.93378,18.95715,5.92706,28.27185,9.46942,9.23889,3.51361,18.36908,7.09131,26.92255,12.09222,10.9375,6.39471,20.75775,14.2655,29.72314,23.10864,12.2868,12.11926,23.33002,25.31348,31.30792,40.76349,4.5672,8.84479,7.90344,18.19781,10.96326,27.67688,3.6712,11.37311,6.2218,22.93359,6.76251,34.86249,.21277,4.69287,.72083,9.41876,.43414,14.09387-.40228,6.5603-1.37286,13.08582-2.1004,19.62616l-.68011,.00714c0-5.00183,.0965-10.00586-.01715-15.00513-.42267-18.59186-4.19543-36.57562-10.0863-54.14893-2.69189-8.03033-5.55225-16.00958-8.95612-23.76807-3.90472-8.90002-8.18488-17.61548-14.3075-25.26556-1.50641-1.8822-3.94336-1.90063-6.00952-2.44275-1.07196-.28125-1.77197-.72894-2.45673-1.41461-8.23993-8.25061-16.64288-16.30255-26.02991-23.28778-12.65521-9.41724-26.40906-16.71576-41.08868-22.45093-6.05096-2.36401-12.11401-4.71118-18.41821-6.0899-14.0094-3.06372-28.10284-5.69836-42.5979-4.59625-4.75824,.36169-9.55481,.19257-14.32257,.46417-5.16687,.29425-10.14716,1.83582-15.25977,2.55737-9.42188,1.32965-18.32935,4.59961-27.34265,7.45795-.73444,.23291-1.46381,.5412-2.21796,.63556-.70154,.08783-2.00189,.53717-.70428-1.08716,.60236-.75403-.45135-1.99548-.9436-2.9032m254.31744,173.4187c-.82001-13.02844,.53705-26.0368-.38354-39.01605-.92059-12.97949-3.62115-25.68359-6.65576-38.33923,7.12805,11.69586,9.83191,24.664,10.71918,37.98474,.88336,13.2619,.20197,26.49481-3.67987,39.37054Zm9.27289,7.53442c-.08301,.19714-.27209,.34967-.41168,.52301,1.15491-5.92224,2.35773-11.78918,3.4942-17.67712,1.3432-6.95911,.82709-13.93854,.9104-20.91711,.02576-2.1568-.06763-4.31793-.18408-6.47296-.68506-12.67261-2.95239-25.01727-6.98444-37.09418-4.48212-13.42517-11.63025-25.27789-20.1795-36.40631-7.42383-9.66345-14.80206-19.36188-22.20306-29.04285-.84088-1.09985-1.61456-2.26184-3.07965-3.1449,1.25647-.3725,1.77924,.40564,2.33606,.84003,15.30634,11.94153,28.38623,25.8949,37.77423,42.9884,8.35022,15.20374,13.54944,31.4754,16.03259,48.69348,2.88367,19.99536,.30658,39.1651-7.50507,57.71051Z" style="fill:#2f2e71;"/><path d="M211.86853,320.71082c-5.39551-.75946-9.80914-3.9259-14.65741-6.0321-4.43188-1.92535-8.02838-.8783-10.37268,2.83813-2.17664,3.45062-1.59229,8.27625,2.1134,11.63892,12.35919,11.21515,27.1366,12.66821,42.38745,8.65881,17.67218-4.646,27.62512-18.87872,27.65936-37.77844,.05609-30.99683,.00281-61.99384,.02484-92.99072,.00519-7.32074-.31732-14.65546,.52356-21.95294,.43536-3.7782,1.05951-7.51746,3.39832-10.72284,5.42731-7.43799,16.30676-10.4967,25.88904-6.97528,3.84595,1.41339,7.4563,3.45544,11.22729,5.08813,5.05615,2.18909,8.39417,1.5025,10.93018-2.07861,2.63171-3.71619,2.16931-8.27728-1.28424-12.02185-3.72156-4.03516-8.50427-6.32562-13.60632-8.01093-26.12451-8.62921-57.57507,3.03467-56.91895,39.76025,.31635,17.70691,.05457,35.42407,.05457,53.1366l-.26782,.00024c0,18.46948-.02716,36.93903,.00787,55.40845,.03296,17.34991-11.15656,24.27954-27.10846,22.03418Z" style="fill:#fff;"/><path d="M320.82959,223.51605c-9.99609-.11432-18.38715,8.26617-18.33167,18.30872,.05487,9.92554,8.12573,18.00824,18.04645,18.07275,10.14905,.06598,18.30902-8.08246,18.27637-18.25061-.03192-9.94885-8.03796-18.01697-17.99115-18.13086Z" style="fill:#fff;"/><path d="M178.91284,259.89569c10.1076,.06519,18.39948-8.2019,18.32135-18.2666-.0766-9.87354-8.22089-18.03308-18.07562-18.10962-9.89111-.07684-18.10321,7.95361-18.26483,17.8609-.16583,10.16138,7.90076,18.45007,18.0191,18.51532Z" style="fill:#fff;"/></g></svg>