<svg width="20" height="18" viewBox="0 0 20 18" fill="none" xmlns="http://www.w3.org/2000/svg">
<path fill-rule="evenodd" clip-rule="evenodd" d="M11.2656 0C5.3176 0 0.5 4.8176 0.5 10.7656C0.5 15.5294 3.58165 19.553 7.86097 20.9794C8.39925 21.0736 8.6011 20.7507 8.6011 20.4681C8.6011 20.2124 8.58765 19.3646 8.58765 18.463C5.88279 18.9609 5.18303 17.8036 4.96772 17.198C4.8466 16.8885 4.32178 15.9331 3.86425 15.6774C3.48745 15.4755 2.94917 14.9776 3.85079 14.9642C4.69858 14.9507 5.30414 15.7447 5.506 16.0676C6.4749 17.6959 8.02245 17.2384 8.64147 16.9558C8.73567 16.256 9.01827 15.785 9.32778 15.5159C6.93244 15.2468 4.42944 14.3182 4.42944 10.2004C4.42944 9.02963 4.8466 8.06073 5.53291 7.30714C5.42526 7.038 5.04846 5.93453 5.64057 4.45426C5.64057 4.45426 6.54218 4.17166 8.6011 5.55773C9.46235 5.31551 10.3774 5.19439 11.2925 5.19439C12.2076 5.19439 13.1226 5.31551 13.9839 5.55773C16.0428 4.15821 16.9444 4.45426 16.9444 4.45426C17.5365 5.93453 17.1597 7.038 17.0521 7.30714C17.7384 8.06073 18.1556 9.01618 18.1556 10.2004C18.1556 14.3317 15.6391 15.2468 13.2438 15.5159C13.634 15.8523 13.9704 16.4983 13.9704 17.5075C13.9704 18.9474 13.957 20.1047 13.957 20.4681C13.957 20.7507 14.1588 21.0871 14.6971 20.9794C16.8343 20.2579 18.6914 18.8844 20.007 17.0522C21.3227 15.2199 22.0306 13.0212 22.0312 10.7656C22.0312 4.8176 17.2136 0 11.2656 0Z" fill="#ffffff"/>
</svg>