<svg width="127" height="35" viewBox="0 0 127 35" fill="none" xmlns="http://www.w3.org/2000/svg">
<path d="M40.9375 20.0193C43.6523 20.0193 45.3125 18.7107 45.3125 16.5134C45.3125 14.8435 44.3164 13.8083 42.2949 13.3982L40.5273 13.0466C39.541 12.8708 39.043 12.4509 39.043 11.7966C39.043 11.0837 39.6973 10.6541 40.7227 10.6541C41.5527 10.6541 42.334 10.908 42.959 11.5525C43.4375 11.9919 43.7891 12.2458 44.209 12.2458C44.7461 12.2458 45.1562 11.8455 45.1562 11.2986C45.1562 10.7126 44.7754 10.0974 44.1797 9.64819C43.3789 9.03296 42.1484 8.69116 40.7715 8.69116C38.2129 8.69116 36.582 9.9314 36.582 11.9724C36.582 13.574 37.666 14.658 39.7656 15.0779L41.4453 15.4197C42.3828 15.5955 42.8418 16.0544 42.8418 16.7478C42.8418 17.5486 42.1582 17.988 41.0254 17.988C39.9707 17.988 39.1211 17.6462 38.3594 16.8259C37.8809 16.3279 37.5977 16.1619 37.1973 16.1619C36.6016 16.1619 36.2207 16.5623 36.2207 17.1287C36.2207 17.6267 36.5527 18.2419 37.0312 18.6814C37.8223 19.5017 39.2773 20.0193 40.9375 20.0193Z" fill="#444444"/>
<path d="M49.8145 19.9509C50.5078 19.9509 50.9961 19.4333 50.9961 18.7107V9.99976C50.9961 9.26733 50.5078 8.75952 49.8145 8.75952C49.1113 8.75952 48.6133 9.26733 48.6133 9.99976V18.7107C48.6133 19.4333 49.1113 19.9509 49.8145 19.9509ZM48.3301 5.98608C48.3301 6.82593 48.9648 7.46069 49.8242 7.46069C50.6836 7.46069 51.2988 6.82593 51.2988 5.98608C51.2988 5.15601 50.6836 4.52124 49.8242 4.52124C48.9648 4.52124 48.3301 5.15601 48.3301 5.98608Z" fill="#444444"/>
<path d="M59.3359 22.3337C62.9004 22.3337 64.9023 21.1814 64.9023 19.1208C64.9023 17.4216 63.6816 16.4841 61.4453 16.4841H57.9883C57.3828 16.4841 57.0312 16.2009 57.0312 15.7615C57.0312 15.5369 57.1387 15.3611 57.3535 15.2048C57.9688 15.4197 58.7012 15.5271 59.5117 15.5271C62.3145 15.5271 64.082 14.2087 64.082 12.1091C64.082 11.5232 63.9453 10.9958 63.6816 10.5466L64.4434 9.88257C64.7754 9.57983 64.9707 9.23804 64.9707 8.89624C64.9707 8.44702 64.5801 8.03687 64.0625 8.03687C63.75 8.03687 63.418 8.18335 63.1445 8.40796L62.1777 9.21851C61.4648 8.87671 60.5566 8.69116 59.5117 8.69116C56.7188 8.69116 54.9316 10.0193 54.9316 12.1091C54.9316 13.0466 55.293 13.8376 55.9473 14.4138C55.1953 14.8728 54.8633 15.4587 54.8633 16.2107C54.8633 16.8748 55.1465 17.4314 55.6348 17.822C54.8438 18.1931 54.3066 18.8572 54.3066 19.7361C54.3066 21.4451 56.084 22.3337 59.3359 22.3337ZM56.6797 19.3455C56.6797 18.9451 56.8652 18.6326 57.2266 18.3884C57.3633 18.3982 57.5 18.408 57.6465 18.408H60.9766C61.9629 18.408 62.4414 18.7205 62.4414 19.3357C62.4414 20.0974 61.416 20.5271 59.4434 20.5271C57.5684 20.5271 56.6797 20.1462 56.6797 19.3455ZM57.3438 12.0896C57.3438 11.0544 58.1934 10.4001 59.541 10.4001C60.8691 10.4001 61.6992 11.0447 61.6992 12.0896C61.6992 13.1248 60.8691 13.7693 59.541 13.7693C58.1934 13.7693 57.3438 13.1248 57.3438 12.0896Z" fill="#444444"/>
<path d="M72.2852 20.0193C75 20.0193 76.6602 18.7107 76.6602 16.5134C76.6602 14.8435 75.6641 13.8083 73.6426 13.3982L71.875 13.0466C70.8887 12.8708 70.3906 12.4509 70.3906 11.7966C70.3906 11.0837 71.0449 10.6541 72.0703 10.6541C72.9004 10.6541 73.6816 10.908 74.3066 11.5525C74.7852 11.9919 75.1367 12.2458 75.5566 12.2458C76.0938 12.2458 76.5039 11.8455 76.5039 11.2986C76.5039 10.7126 76.123 10.0974 75.5273 9.64819C74.7266 9.03296 73.4961 8.69116 72.1191 8.69116C69.5605 8.69116 67.9297 9.9314 67.9297 11.9724C67.9297 13.574 69.0137 14.658 71.1133 15.0779L72.793 15.4197C73.7305 15.5955 74.1895 16.0544 74.1895 16.7478C74.1895 17.5486 73.5059 17.988 72.373 17.988C71.3184 17.988 70.4688 17.6462 69.707 16.8259C69.2285 16.3279 68.9453 16.1619 68.5449 16.1619C67.9492 16.1619 67.5684 16.5623 67.5684 17.1287C67.5684 17.6267 67.9004 18.2419 68.3789 18.6814C69.1699 19.5017 70.625 20.0193 72.2852 20.0193Z" fill="#444444"/>
<path d="M84.1895 20.0193C85.2441 20.0193 86.2695 19.6189 86.8848 19.0525C87.3047 18.6716 87.5195 18.2419 87.5195 17.8025C87.5195 17.2361 87.1289 16.8357 86.582 16.8357C86.2207 16.8357 85.9473 17.0115 85.7227 17.1873C85.3418 17.49 84.9707 17.7341 84.4824 17.7341C83.75 17.7341 83.2715 17.2654 83.2715 16.3376V11.1423H86.1035C86.748 11.1423 87.2168 10.6931 87.2168 10.0583C87.2168 9.43335 86.748 8.98413 86.1035 8.98413H83.2715V7.13843C83.2715 6.41577 82.7832 5.90796 82.0898 5.90796C81.3867 5.90796 80.8887 6.41577 80.8887 7.13843V8.98413H79.4238C78.7695 8.98413 78.3008 9.43335 78.3008 10.0583C78.3008 10.6931 78.7695 11.1423 79.4238 11.1423H80.8887V16.6697C80.8887 18.74 82.2949 20.0193 84.1895 20.0193Z" fill="#444444"/>
<path d="M95 20.0193C98.3398 20.0193 100.732 17.7537 100.732 14.3552C100.732 10.947 98.3398 8.69116 95 8.69116C91.6699 8.69116 89.2773 10.947 89.2773 14.3552C89.2773 17.7537 91.6699 20.0193 95 20.0193ZM91.7285 14.3552C91.7285 12.2947 93.0859 10.8982 95 10.8982C96.9141 10.8982 98.2715 12.2947 98.2715 14.3552C98.2715 16.4158 96.9141 17.8123 95 17.8123C93.0859 17.8123 91.7285 16.4158 91.7285 14.3552Z" fill="#444444"/>
<path d="M106.104 13.9939C106.104 12.1091 107.012 10.9861 108.135 10.9861C108.682 10.9861 109.092 11.2498 109.385 11.5818C109.6 11.8357 109.941 12.1091 110.352 12.1091C111.123 12.1091 111.562 11.572 111.562 10.8005C111.562 10.2732 111.338 9.78491 110.918 9.38452C110.479 8.97437 109.785 8.69116 108.916 8.69116C107.725 8.69116 106.709 9.20874 106.104 10.1365V9.99976C106.104 9.26733 105.615 8.75952 104.922 8.75952C104.219 8.75952 103.721 9.26733 103.721 9.99976V18.7107C103.721 19.4333 104.219 19.9509 104.922 19.9509C105.615 19.9509 106.104 19.4333 106.104 18.7107V13.9939Z" fill="#444444"/>
<path d="M118.877 20.0193C120.576 20.0193 122.314 19.4138 123.145 18.1638C123.34 17.8708 123.486 17.5388 123.486 17.2166C123.486 16.6306 123.203 16.2498 122.568 16.2498C122.158 16.2498 121.836 16.4353 121.514 16.7283C120.889 17.49 120.078 17.822 118.965 17.822C117.031 17.822 115.703 16.7576 115.527 15.0779H122.5C123.34 15.0779 123.77 14.6482 123.77 13.7302C123.77 10.7908 121.738 8.69116 118.545 8.69116C115.342 8.69116 113.115 10.9666 113.115 14.3259C113.115 17.8025 115.391 20.0193 118.877 20.0193ZM115.527 13.1541C115.693 11.6013 116.836 10.6345 118.457 10.6345C120.107 10.6345 121.221 11.5623 121.396 13.1541H115.527Z" fill="#444444"/>
<path d="M14.0386 14.305C14.0386 12.3884 14.0386 10.4719 14.0386 8.55535C14.0386 7.95057 14.0973 7.35432 14.2902 6.77509C14.7096 5.5485 15.498 4.67967 16.7058 4.26229C18.1484 3.75972 19.5827 3.87898 20.9582 4.54338C21.3105 4.71374 21.6208 4.95224 21.8641 5.28444C22.1828 5.71886 22.1157 6.31512 21.7215 6.6388C21.4782 6.83472 21.0756 6.84324 20.7737 6.69843C20.3208 6.47696 19.8679 6.22142 19.3814 6.0681C18.8362 5.89774 18.2575 5.91478 17.7039 6.08514C16.7896 6.35771 16.3619 7.04767 16.2529 7.96761C16.2277 8.21463 16.2109 8.46165 16.2109 8.70868C16.2109 12.5673 16.2109 16.4345 16.2109 20.2931C16.2109 21.0853 16.1019 21.8605 15.7664 22.5845C15.196 23.794 14.2399 24.501 12.9734 24.7736C11.8914 25.0036 10.8178 24.9354 9.77772 24.5351C9.2577 24.3392 8.77123 24.0751 8.41895 23.6152C8.14217 23.2489 8.12539 22.7634 8.37702 22.4056C8.57831 22.116 8.95575 21.9712 9.28286 22.099C9.55965 22.2097 9.82805 22.3545 10.0881 22.4993C10.8681 22.9337 11.6985 23.0019 12.5456 22.7719C13.3256 22.5589 13.7702 21.9797 13.9463 21.2046C14.0134 20.9064 14.0302 20.5828 14.0302 20.2761C14.0469 18.2914 14.0386 16.2982 14.0386 14.305Z" fill="#444444"/>
<circle cx="22.9264" cy="14.2188" r="1.97917" fill="#444444"/>
<circle cx="7.47917" cy="14.2188" r="1.97917" fill="#444444"/>
</svg>
