<svg width="660" height="117" viewBox="0 0 660 117" fill="none" xmlns="http://www.w3.org/2000/svg">
<path d="M197.645 89.6118C212.786 89.6118 222.045 82.3134 222.045 70.0587C222.045 60.7452 216.49 54.9718 205.215 52.6843L195.357 50.7235C189.856 49.7432 187.078 47.4011 187.078 43.752C187.078 39.776 190.728 37.3795 196.446 37.3795C201.076 37.3795 205.433 38.7956 208.919 42.3903C211.588 44.8413 213.549 46.2574 215.891 46.2574C218.886 46.2574 221.174 44.0243 221.174 40.9742C221.174 37.7063 219.05 34.275 215.727 31.7696C211.261 28.3383 204.398 26.432 196.719 26.432C182.449 26.432 173.353 33.3491 173.353 44.7323C173.353 53.6647 179.399 59.7103 191.109 62.0523L200.477 63.9586C205.706 64.939 208.265 67.4989 208.265 71.3659C208.265 75.8321 204.453 78.283 198.135 78.283C192.253 78.283 187.514 76.3767 183.266 71.8016C180.597 69.0239 179.018 68.098 176.784 68.098C173.462 68.098 171.338 70.3311 171.338 73.49C171.338 76.2678 173.19 79.6991 175.859 82.15C180.27 86.7251 188.386 89.6118 197.645 89.6118Z" fill="#444444"/>
<path d="M247.154 89.2305C251.021 89.2305 253.744 86.3439 253.744 82.3134V33.7303C253.744 29.6454 251.021 26.8132 247.154 26.8132C243.232 26.8132 240.454 29.6454 240.454 33.7303V82.3134C240.454 86.3439 243.232 89.2305 247.154 89.2305ZM238.875 11.3451C238.875 16.0291 242.415 19.5694 247.208 19.5694C252.001 19.5694 255.432 16.0291 255.432 11.3451C255.432 6.71554 252.001 3.17529 247.208 3.17529C242.415 3.17529 238.875 6.71554 238.875 11.3451Z" fill="#444444"/>
<path d="M300.257 102.52C320.137 102.52 331.303 96.0932 331.303 84.601C331.303 75.124 324.494 69.8953 312.022 69.8953H292.741C289.364 69.8953 287.404 68.3158 287.404 65.8649C287.404 64.6122 288.003 63.6318 289.201 62.7604C292.632 63.9586 296.717 64.5577 301.238 64.5577C316.869 64.5577 326.727 57.2049 326.727 45.4949C326.727 42.2269 325.965 39.2858 324.494 36.7804L328.743 33.0768C330.595 31.3883 331.684 29.482 331.684 27.5758C331.684 25.0704 329.505 22.7828 326.619 22.7828C324.876 22.7828 323.024 23.5998 321.499 24.8525L316.107 29.3731C312.131 27.4668 307.066 26.432 301.238 26.432C285.661 26.432 275.693 33.8393 275.693 45.4949C275.693 50.7235 277.709 55.1352 281.358 58.3487C277.164 60.9086 275.312 64.1765 275.312 68.3703C275.312 72.0739 276.892 75.1785 279.615 77.3571C275.203 79.4268 272.208 83.1304 272.208 88.0323C272.208 97.5637 282.12 102.52 300.257 102.52ZM285.443 85.8537C285.443 83.6206 286.478 81.8777 288.493 80.5161C289.255 80.5705 290.018 80.625 290.835 80.625H309.408C314.909 80.625 317.577 82.3679 317.577 85.7992C317.577 90.0475 311.858 92.444 300.856 92.444C290.399 92.444 285.443 90.3198 285.443 85.8537ZM289.146 45.3859C289.146 39.6126 293.885 35.9634 301.401 35.9634C308.808 35.9634 313.438 39.5581 313.438 45.3859C313.438 51.1593 308.808 54.754 301.401 54.754C293.885 54.754 289.146 51.1593 289.146 45.3859Z" fill="#444444"/>
<path d="M372.478 89.6118C387.62 89.6118 396.879 82.3134 396.879 70.0587C396.879 60.7452 391.323 54.9718 380.049 52.6843L370.191 50.7235C364.69 49.7432 361.912 47.4011 361.912 43.752C361.912 39.776 365.561 37.3795 371.28 37.3795C375.91 37.3795 380.267 38.7956 383.753 42.3903C386.422 44.8413 388.382 46.2574 390.724 46.2574C393.72 46.2574 396.007 44.0243 396.007 40.9742C396.007 37.7063 393.883 34.275 390.561 31.7696C386.095 28.3383 379.232 26.432 371.552 26.432C357.283 26.432 348.187 33.3491 348.187 44.7323C348.187 53.6647 354.232 59.7103 365.943 62.0523L375.311 63.9586C380.539 64.939 383.099 67.4989 383.099 71.3659C383.099 75.8321 379.287 78.283 372.969 78.283C367.086 78.283 362.348 76.3767 358.1 71.8016C355.431 69.0239 353.851 68.098 351.618 68.098C348.296 68.098 346.172 70.3311 346.172 73.49C346.172 76.2678 348.023 79.6991 350.692 82.15C355.104 86.7251 363.219 89.6118 372.478 89.6118Z" fill="#444444"/>
<path d="M438.872 89.6118C444.754 89.6118 450.473 87.3787 453.904 84.2197C456.246 82.0956 457.444 79.6991 457.444 77.2482C457.444 74.0892 455.266 71.8561 452.216 71.8561C450.2 71.8561 448.675 72.8365 447.423 73.8168C445.299 75.5053 443.229 76.8669 440.506 76.8669C436.421 76.8669 433.752 74.2526 433.752 69.0784V40.1028H449.547C453.142 40.1028 455.756 37.5974 455.756 34.0571C455.756 30.5714 453.142 28.066 449.547 28.066H433.752V17.772C433.752 13.7416 431.029 10.9094 427.162 10.9094C423.24 10.9094 420.462 13.7416 420.462 17.772V28.066H412.293C408.643 28.066 406.029 30.5714 406.029 34.0571C406.029 37.5974 408.643 40.1028 412.293 40.1028H420.462V70.9302C420.462 82.4768 428.305 89.6118 438.872 89.6118Z" fill="#444444"/>
<path d="M499.165 89.6118C517.792 89.6118 531.136 76.9758 531.136 58.0219C531.136 39.0135 517.792 26.432 499.165 26.432C480.592 26.432 467.248 39.0135 467.248 58.0219C467.248 76.9758 480.592 89.6118 499.165 89.6118ZM480.919 58.0219C480.919 46.5297 488.49 38.7412 499.165 38.7412C509.84 38.7412 517.411 46.5297 517.411 58.0219C517.411 69.5141 509.84 77.3026 499.165 77.3026C488.49 77.3026 480.919 69.5141 480.919 58.0219Z" fill="#444444"/>
<path d="M561.092 56.0067C561.092 45.4949 566.157 39.2313 572.421 39.2313C575.471 39.2313 577.758 40.7019 579.392 42.5537C580.59 43.9698 582.497 45.4949 584.784 45.4949C589.087 45.4949 591.538 42.4993 591.538 38.1965C591.538 35.2554 590.285 32.5321 587.943 30.299C585.492 28.0115 581.625 26.432 576.778 26.432C570.133 26.432 564.469 29.3187 561.092 34.4929V33.7303C561.092 29.6454 558.369 26.8132 554.502 26.8132C550.58 26.8132 547.802 29.6454 547.802 33.7303V82.3134C547.802 86.3439 550.58 89.2305 554.502 89.2305C558.369 89.2305 561.092 86.3439 561.092 82.3134V56.0067Z" fill="#444444"/>
<path d="M632.332 89.6118C641.809 89.6118 651.504 86.2349 656.134 79.2634C657.223 77.6294 658.04 75.7776 658.04 73.9802C658.04 70.7123 656.461 68.5882 652.92 68.5882C650.633 68.5882 648.836 69.623 647.038 71.257C643.552 75.5053 639.032 77.3571 632.823 77.3571C622.039 77.3571 614.631 71.4204 613.651 62.0523H652.539C657.223 62.0523 659.62 59.6558 659.62 54.5361C659.62 38.142 648.291 26.432 630.481 26.432C612.616 26.432 600.198 39.1224 600.198 57.8585C600.198 77.2482 612.888 89.6118 632.332 89.6118ZM613.651 51.3227C614.577 42.6627 620.949 37.2706 629.99 37.2706C639.195 37.2706 645.404 42.4448 646.385 51.3227H613.651Z" fill="#444444"/>
<path d="M47.6222 57.7391C47.6222 47.05 47.6222 36.3609 47.6222 25.6719C47.6222 22.2989 47.9496 18.9734 49.0255 15.7429C51.3645 8.9019 55.7617 4.05619 62.4979 1.72835C70.5439 -1.07456 78.5431 -0.409462 86.2149 3.29608C88.1796 4.24622 89.9104 5.57641 91.267 7.42919C93.0446 9.85204 92.6704 13.1775 90.4717 14.9828C89.1152 16.0755 86.8698 16.123 85.1857 15.3153C82.6596 14.0802 80.1336 12.655 77.4204 11.7998C74.3798 10.8497 71.152 10.9447 68.0646 11.8948C62.9657 13.4151 60.5799 17.2631 59.9718 22.3939C59.8315 23.7716 59.7379 25.1493 59.7379 26.527C59.7379 48.0476 59.7379 69.6158 59.7379 91.1364C59.7379 95.5546 59.1298 99.8777 57.2586 103.916C54.0777 110.662 48.7449 114.605 41.6812 116.125C35.6467 117.408 29.659 117.028 23.8584 114.795C20.9581 113.702 18.2449 112.23 16.2802 109.664C14.7365 107.621 14.6429 104.913 16.0463 102.918C17.169 101.303 19.2741 100.495 21.0984 101.208C22.6421 101.826 24.1391 102.633 25.5892 103.441C29.9397 105.864 34.5708 106.244 39.2955 104.961C43.6459 103.773 46.1252 100.543 47.1076 96.2197C47.4818 94.557 47.5754 92.7517 47.5754 91.0414C47.6689 79.9723 47.6222 68.8557 47.6222 57.7391Z" fill="#444444"/>
<circle cx="97.1907" cy="57.2605" r="11.0383" fill="#444444"/>
<circle cx="11.0383" cy="57.2605" r="11.0383" fill="#444444"/>
</svg>