<svg width="23" height="19" viewBox="0 0 23 19" fill="none" xmlns="http://www.w3.org/2000/svg">
<path d="M22.0312 2.94381C21.6857 3.09709 21.3303 3.22645 20.9673 3.33148C21.3971 2.84538 21.7248 2.27342 21.9249 1.64753C21.9697 1.50724 21.9232 1.35367 21.8079 1.26192C21.6927 1.17009 21.5327 1.15909 21.4059 1.23424C20.6349 1.69153 19.8031 2.02016 18.9309 2.21232C18.0523 1.35381 16.859 0.865234 15.6254 0.865234C13.0214 0.865234 10.9028 2.98369 10.9028 5.5876C10.9028 5.79268 10.9158 5.99663 10.9415 6.19774C7.71023 5.91403 4.70615 4.32581 2.64326 1.79534C2.56974 1.70515 2.45649 1.65654 2.34053 1.66584C2.22451 1.67492 2.12027 1.74035 2.06165 1.8409C1.64325 2.55883 1.42206 3.37995 1.42206 4.21539C1.42206 5.35328 1.82832 6.43291 2.54597 7.27652C2.32776 7.20094 2.11601 7.10649 1.91391 6.9943C1.8054 6.93391 1.67299 6.93483 1.56519 6.99664C1.45733 7.05845 1.3897 7.17213 1.38686 7.29639C1.38637 7.31732 1.38637 7.33826 1.38637 7.35947C1.38637 9.05797 2.30051 10.5871 3.69813 11.4206C3.57806 11.4086 3.45806 11.3912 3.33884 11.3685C3.21593 11.345 3.08955 11.388 3.00666 11.4818C2.92364 11.5754 2.89617 11.706 2.93442 11.8252C3.45174 13.4404 4.78364 14.6283 6.39379 14.9905C5.05834 15.827 3.53115 16.2651 1.92796 16.2651C1.59344 16.2651 1.257 16.2454 0.927735 16.2065C0.764165 16.187 0.607763 16.2836 0.552057 16.4392C0.496351 16.5948 0.555392 16.7683 0.694551 16.8575C2.75411 18.178 5.13555 18.876 7.58129 18.876C12.3893 18.876 15.3971 16.6088 17.0736 14.7068C19.1641 12.3351 20.3631 9.19592 20.3631 6.09421C20.3631 5.96463 20.3611 5.83377 20.3572 5.70334C21.182 5.08192 21.8921 4.32986 22.4699 3.46546C22.5577 3.33417 22.5482 3.16067 22.4465 3.03982C22.345 2.9189 22.1757 2.8798 22.0312 2.94381Z" fill="#AFAFAF"/>
</svg>